<?xml version="1.0" encoding="UTF-8"?>
<!-- Created with Inkscape (http://www.inkscape.org/) -->
<svg width="1e3" height="330" version="1.1" viewBox="0 0 264.58334 87.312502" xmlns="http://www.w3.org/2000/svg" xmlns:cc="http://creativecommons.org/ns#" xmlns:dc="http://purl.org/dc/elements/1.1/" xmlns:rdf="http://www.w3.org/1999/02/22-rdf-syntax-ns#">
 <metadata>
  <rdf:RDF>
   <cc:Work rdf:about="">
    <dc:format>image/svg+xml</dc:format>
    <dc:type rdf:resource="http://purl.org/dc/dcmitype/StillImage"/>
    <dc:title/>
   </cc:Work>
  </rdf:RDF>
 </metadata>
 <rect x="-2.3828125e-6" y="-4.1015624e-6" width="264.58334" height="87.3125" ry="0" opacity="0" stroke-width=".1788366"/>
 <g transform="translate(-1.01061,-404.65954)" fill="#72cff9" style="font-feature-settings:normal;font-variant-caps:normal;font-variant-ligatures:normal;font-variant-numeric:normal" aria-label="5">
  <path d="m238.29574 448.57315 22.60844 0.9474 1.33497-12.70379-34.92465-1.33497 0.55983 26.61336q5.33989-1.11966 9.94771-0.68902 9.21563 0.90434 9.43095 8.74193 0.25838 7.88065-7.75147 8.95725-4.00492 0.55982-8.09597-0.4737l-0.77515 13.00523q8.52661 1.03353 16.9671-1.11966 16.8379-4.22024 16.01969-19.93848-0.73208-15.71825-13.17749-18.8619-6.15811-1.98093-12.23009-0.38758z" fill="#72cff9" stroke-width=".26458335" style="font-feature-settings:normal;font-variant-caps:normal;font-variant-ligatures:normal;font-variant-numeric:normal"/>
 </g>
 <g transform="translate(-1.01061,-404.65954)" fill="#fff" stroke="#303f9f" stroke-width=".79374999" style="font-feature-settings:normal;font-variant-caps:normal;font-variant-ligatures:normal;font-variant-numeric:normal" aria-label="fifth ">
  <path d="m139.95628 422.27553-1.17133 7.99262-6.71105-0.35829 0.27561 1.37804 5.33301 0.60634-0.73036 5.73264-3.67936-0.82682 1.24023 5.98068-6.75239 0.90951-1.51584-18.09365z" style="font-feature-settings:normal;font-variant-caps:normal;font-variant-ligatures:normal;font-variant-numeric:normal"/>
  <path d="m147.02562 424.50795 1.4056 18.58974-7.7997 1.4745 0.35829-19.58192z" style="font-feature-settings:normal;font-variant-caps:normal;font-variant-ligatures:normal;font-variant-numeric:normal"/>
  <path d="m162.83172 422.27553-1.17134 7.99262-6.71104-0.35829 0.27561 1.37804 5.333 0.60634-0.73036 5.73264-3.67936-0.82682 1.24024 5.98068-6.75239 0.90951-1.51584-18.09365z" style="font-feature-settings:normal;font-variant-caps:normal;font-variant-ligatures:normal;font-variant-numeric:normal"/>
  <path d="m174.65528 430.26815 0.67524 11.74089-7.46896 1.92925 1.28157-14.02843-5.63618-0.48231 0.44098-5.09874 16.16439-0.96463 0.59255 7.53787z" style="font-feature-settings:normal;font-variant-caps:normal;font-variant-ligatures:normal;font-variant-numeric:normal"/>
  <path d="m188.60103 437.87493 0.4961 4.65776-5.27789 0.92329-2.39779-15.26866 5.87044-2.50803 0.66146 6.61458 5.29167-0.60634 0.0827-6.02202 9.19152 0.92328-3.514 16.93609-5.91178-1.75011 0.0689-4.39594z" style="font-feature-settings:normal;font-variant-caps:normal;font-variant-ligatures:normal;font-variant-numeric:normal"/>
 </g>
 <g transform="translate(-1.01061,-404.65954)" fill="#fff" stroke="#303f9f" stroke-width=".79374999" style="font-feature-settings:normal;font-variant-caps:normal;font-variant-ligatures:normal;font-variant-numeric:normal" aria-label="Grade">
  <path d="m148.32097 477.06269-7.84103 1.98437 0.1378-2.1773q-1.52962 0.38586-3.22461 0.38586-4.61643 0-7.88238-2.82498t-3.26595-6.82129 3.26595-6.82129 7.88238-2.82498 7.88238 2.82498q1.63986 1.41938 2.46669 3.14193l-6.61459 1.66742q-0.33073-0.88194-1.15755-1.59852-1.4056-1.21268-3.37619-1.21268-1.9706 0-3.3762 1.21268-1.40559 1.21267-1.40559 2.92144t1.40559 2.92144q1.4056 1.21267 3.3762 1.21267 1.97059 0 3.37619-1.21267 0.75792-0.66146 1.17133-1.46072l6.2563-0.27561z" style="font-feature-settings:normal;font-variant-caps:normal;font-variant-ligatures:normal;font-variant-numeric:normal"/>
  <path d="m155.76238 462.51061 0.19293 3.7207q6.89019 0 6.89019-1.37804t-7.08312-2.34266zm0.92329 13.62879-7.67568 1.07487 1.59853-20.57411q17.74913 1.32292 18.34169 7.11068 0.60633 5.77398-6.10471 7.99262l5.51215 2.99035-5.64996 5.00227-6.463-7.99262z" style="font-feature-settings:normal;font-variant-caps:normal;font-variant-ligatures:normal;font-variant-numeric:normal"/>
  <path d="m175.02736 474.49954-0.96463 2.75608-5.42947-3.27974 6.80751-16.0128 5.18142-0.35829 8.14421 16.5778-6.43544 3.07303-1.41938-3.87229zm4.71289-6.03581-1.54341-4.9885-1.81901 5.51216z" style="font-feature-settings:normal;font-variant-caps:normal;font-variant-ligatures:normal;font-variant-numeric:normal"/>
  <path d="m190.35114 477.25562-0.88194-19.29254q18.79644 0 18.79644 9.64627t-17.9145 9.64627zm4.90582-14.18002 0.92328 6.66971q5.96691 0.0276 5.96691-3.32108 0-3.34863-6.89019-3.34863z" style="font-feature-settings:normal;font-variant-caps:normal;font-variant-ligatures:normal;font-variant-numeric:normal"/>
  <path d="m223.58942 455.48261 0.35829 7.3036-8.5714 0.92329 0.11024 1.66743 5.6224-0.52366 0.49609 4.9885-5.87044 0.42719 0.0965 1.35048 8.32335-0.6339 1.24024 6.27008-16.41244 0.56499 1.66743-19.88509z" style="font-feature-settings:normal;font-variant-caps:normal;font-variant-ligatures:normal;font-variant-numeric:normal"/>
 </g>
 <g transform="matrix(.35989106 0 0 .35989106 12.06966 40.96282)">
  <path d="m228.83984-17.411316h-7.49582l-7.03425-0.0029-15.88153 0.0029-7.03549-0.0019-61.71311-9.73e-4 -7.03426 0.0029-15.88277-2e-3 -7.033012 0.0019-15.88277-0.0019-7.03548 2e-3 -15.88154-0.0029-7.03426 0.0029h-38.79609l-7.0354902-0.0019-15.88277 0.0019-7.0330098-2e-3h-8.59619c-4.51473 0.0019-8.17278 2.897925-8.17525 6.472099l3e-3 37.406041c-4e-3 3.573199 3.65436 6.469175 8.17154 6.469175h252.292312c4.5098 0 8.16786-2.895975 8.17155-6.469174l-4e-3 -37.407016c4e-3 -3.573199-3.65806-6.472099-8.17155-6.469177z" fill="#29b6f6" stroke-width=".39648703"/>
  <g fill="#303f9f" stroke-width=".35277778">
   <path d="m-2.9210414-17.411313-5.56783-0.0019v16.8340796c0 1.53958435 1.24628 2.7858668 2.78586 2.7858675 1.53569 0.00195 2.78197-1.24433494 2.78295-2.78294393z"/>
   <path d="m15.145945-17.411313-5.5697894-0.0019v11.5839065c9.7e-4 1.5386073 1.2472594 2.7848922 2.7858694 2.7858676 1.53569 0.00195 2.78294-1.2453096 2.78392-2.7839193z"/>
   <path d="m33.213894-17.411313h-5.57173l9.7e-4 11.5848796c2e-3 1.5356862 1.24921 2.7829465 2.78489 2.7848947 1.53667-0.00292 2.78392-1.2501814 2.78587-2.7858675z"/>
   <path d="m51.278924-17.414237-5.56881 0.0029v11.5839068c-9.7e-4 1.5386097 1.24628 2.7858675 2.78587 2.785865 1.53471-0.00292 2.78197-1.2501789 2.78489-2.7848922z"/>
   <path d="m69.346881-17.413264-5.56979 2e-3 9.8e-4 16.83505667c-9.8e-4 1.53860724 1.24628 2.78586503 2.78294 2.78294393 1.53861 9.729e-4 2.78587-1.2462849 2.78489-2.78489464z"/>
   <path d="m87.411909-17.414239-5.56881 0.0029v11.5839073c-9.8e-4 1.5386122 1.24433 2.7839193 2.78294 2.7829439 1.53861 9.754e-4 2.78587-1.2462824 2.78587-2.7858675z"/>
   <path d="m105.47694-17.414237-5.568808 0.0029v11.5839068c-2e-3 1.5356836 1.245308 2.7829414 2.783918 2.7839168 1.53763 0 2.78489-1.2472578 2.78587-2.7858676z"/>
   <path d="m123.54588-17.413264h-5.57174v11.583907c9.8e-4 1.5386098 1.24726 2.7848947 2.78587 2.7858676 1.53861-9.754e-4 2.78587-1.2482332 2.78587-2.7858676z"/>
   <path d="m141.61381-17.414239-5.57173 2e-6v16.83602996c0 1.53763438 1.24725 2.78489214 2.78586 2.78586754 1.53861-9.729e-4 2.78294-1.24530709 2.78392-2.78391683z"/>
   <path d="m159.67983-17.411316-5.56979-0.0019v11.583907c9.8e-4 1.5386098 1.24726 2.7848922 2.78587 2.7858676 1.53861-9.754e-4 2.78587-1.2482332 2.78392-2.7839193z"/>
   <path d="m177.74486-17.411316-5.56881-0.0029v11.5839067c9.8e-4 1.5386097 1.24823 2.7858678 2.78587 2.785868 1.53958-5e-7 2.78392-1.2443347 2.78294-2.7829439z"/>
   <path d="m195.81282-17.413264h-5.57174v11.583907c9.8e-4 1.5386098 1.24726 2.7848947 2.78587 2.7858676 1.53861-9.754e-4 2.78587-1.2482332 2.78587-2.7858676z"/>
   <path d="m213.88077-17.414239-5.57173 2e-6v16.83602996c0 1.53763438 1.24725 2.78489214 2.78586 2.78586754 1.53861-9.729e-4 2.78294-1.24530709 2.78392-2.78391683z"/>
  </g>
  <rect x="-23.180695" y="16.490967" width="84.630463" height="8.1900444" ry="4.0950222" fill="#afe4fc"/>
  <rect transform="matrix(-.5 .8660254 .86602539 .50000002 0 0)" x="-126.81829" y="80.535568" width="152.11041" height="32.375736" fill="#ffc107" stroke-width=".52496433"/>
  <path d="m139.12114-17.414269-29.06851 50.348348h6.91328l29.06851-50.347829z" fill="#303f9f" opacity=".49200056" stroke-width=".396487"/>
  <rect transform="matrix(.86602539 .50000002 .5 -.8660254 0 0)" x="101.30884" y="-25.288696" width="11.601874" height="152.11041" fill="#e4ab00" stroke-width=".52496433"/>
  <g stroke-width=".52496934">
   <path d="m57.100227 62.174682-9.730089 42.894258c-0.744087 3.27952 3.016956 5.45096 5.485057 3.1668l32.282474-29.873632z" fill="#f0a479"/>
   <path d="m75.642575 72.879667 9.494978 5.481929-32.282485 29.873654c-2.4681 2.28415-6.229144 0.11271-5.485055-3.1668l1.730131-7.626938z" fill="#ea976e"/>
   <path d="m169.08547-85.539024-12.01596-6.937415c-4.40589-2.543744-10.18873-0.852643-12.85069 3.758011l-11.83108 20.492036 28.03744 16.187426 11.83108-20.492036c2.66184-4.611149 1.2351-10.464277-3.17079-13.008022z" fill="#e91e63"/>
   <path d="m163.48609-80.576136c1.30441-2.259299 1.87987-4.735087 1.82011-7.144847l3.77927 2.181959c4.40589 2.543745 5.83276 8.397368 3.17079 13.008022l-11.83108 20.492036-10.06114-5.808384z" fill="#c71351"/>
   <path d="m52.865893 80.842048-5.495358 24.226232c-0.744097 3.27954 3.016935 5.45097 5.485057 3.1668l18.232833-16.872247z" fill="#616161"/>
   <path d="m48.787998 98.819653 0.312786-1.377795 12.492789-11.560436 9.49498 5.48193-6.469377 5.986465-11.763468 10.885773c-0.616964 0.57074-1.315193 0.86351-2.003181 0.93022-2.064191 0.19911-4.040162-1.63717-3.482389-4.09687z" fill="#545454"/>
   <path d="m137.35467-76.829743-4.96699 8.603083 28.03798 16.18774 4.96699-8.603083z" fill="#616161"/>
   <path d="m155.33141-66.450866-4.96752 8.603995 10.06178 5.807932 4.96699-8.603082z" fill="#545454"/>
  </g>
  <rect transform="rotate(30.000001)" x="84.980461" y="-117.36826" width="6.302299" height="97.763824" ry="3.2975893" fill="#ffde7d"/>
  <rect transform="rotate(30.000001)" x="84.980461" y="-152.28374" width="6.302299" height="13.578309" ry="3.2975891" fill="#f7aac4"/>
  <path d="m108.39841-26.678351-6.56239 11.366746c0.46086 0.78369 0.93286 1.58125 1.36375 2.327507 2.56691 4.4460215 9.89157 17.4203545 16.30908 31.814079l6.99388-12.1139898c-5.57504-11.7263173-11.19075-21.6573332-13.37127-25.4341072-1.42954-2.475849-3.0427-5.184634-4.73305-7.960235z" fill="#c19100" opacity=".631" stroke-width=".52092254"/>
  <path transform="matrix(.26458333 0 0 .26458333 -31.623252 -93.660788)" d="m597.47266 379.18164-11.97266 19.42383c2e-3 5e-3 4e-3 0.0105 6e-3 0.0156l-3.2793 4.98829c11.38757 25.37556 21.27811 51.21176 27.11328 74.58203l20.52149 0.20703c-3e-3 -0.0117-7e-3 -0.0235-0.01-0.0352l3.28321 0.0352c-7.25639-31.00582-20.7789-66.08151-35.66211-99.2168z" fill="#2d7ccb" stroke-width="1.52984107"/>
  <path d="m50.289529-89.422836c10.841278 3.326604 24.595087 19.734239 35.861386 35.515621 5.717697 8.410742 13.726158 20.789084 18.797905 29.575004 5.48082 9.492357 32.89253 58.462773 26.06504 76.194555l-6.27457 2.866884-7.696 3.688425c-18.785728-5.96778-45.562106-51.1495061-50.878931-60.3585171-5.480599-9.4933759-12.570124-22.9691339-16.211623-31.0673549-8.148687-17.39748-15.275408-37.442644-12.80605-48.69091 0.711686-3.245023 2.254634-5.647418 4.840465-7.140348 2.460322-1.420556 5.26684-1.514805 8.302378-0.583359z" fill="#9c27b0" stroke-width=".52092254"/>
  <path d="m41.781044-88.720465c2.58583-1.49293 5.43747-1.627925 8.603587-0.621751 10.975962 3.485606 24.772153 19.680149 35.764472 35.435864 5.192511 7.202733 13.318226 20.080623 18.799427 29.573641 5.31683 9.209019 31.05727 54.988447 26.83265 74.241256l-7.04198 4.821012-5.62063 4.000384c-0.44744-0.0704-0.90044-0.166644-1.35872-0.287362l4.08972-2.800014c4.22461-19.252809-21.51582-65.0322417-26.832646-74.241261-5.481209-9.493013-13.606924-22.370903-18.799435-29.573636-10.992319-15.755715-24.788501-31.950263-35.764464-35.435869-0.882344-0.280406-1.73924-0.468312-2.573829-0.566763 0.834935-1.961109 2.108438-3.510139 3.901848-4.545501z" fill="#822193" stroke-width=".52092254"/>
  <path d="m51.580676-52.154465s2.768902 16.19124 30.606267 58.2382705" fill="none" stroke="#e2a9ec" stroke-linecap="round" stroke-width="6.89547968"/>
  <path d="m158.50311 53.496981c2.36428 4.095031 3.49612 8.741494 3.57319 13.354156-0.0929 7.602467 4.92498 14.501997 12.5897 17.625231 2.46462 0.985308 4.11458 3.244977 4.13271 5.964547 0.14811 2.645649-1.35404 5.118297-3.81067 6.536637l-2.58583 1.492938c-5.94623 3.43306-12.26082 5.63277-18.68411 6.45072-6.15461 0.98422-12.2785 0.82607-18.24305-0.54873-12.39678-2.96071-22.49434-10.299115-28.68367-21.019333-3.68606-6.384459-4.44795-13.974159-2.3071-21.312983 2.27004-7.413427 7.27416-13.674579 14.25461-17.704744 13.83274-7.987412 32.39276-3.606208 39.76422 9.161561z" fill="#333" stroke-width=".48030642"/>
  <path d="m117.85295 55.892767s-15.56319 17.005015 3.41068 31.137408" fill="none" stroke="#949494" stroke-linecap="round" stroke-width="6.38470364"/>
  <path d="m118.73887 44.335574c-1.52481 0.880349-2.95525 1.866995-4.28357 2.94902 13.12227-4.894207 28.71262-0.189803 35.31856 11.252014 2.36427 4.095036 3.496 8.741563 3.57309 13.354218-0.0929 7.602478 4.92537 14.501798 12.59008 17.625033 2.46462 0.98531 4.1144 3.245488 4.13253 5.965059 0.11247 2.009157-0.72832 3.917314-2.21458 5.340942 1.53629-0.70446 3.05353-1.488869 4.54745-2.351385l2.58584-1.492937c2.45663-1.418339 3.95848-3.89071 3.81038-6.536363-0.0181-2.719572-1.66791-4.979749-4.13253-5.965059-7.66471-3.123235-12.68299-10.022556-12.59008-17.625034-0.0771-4.612654-1.20882-9.259181-3.57309-13.354218-7.37147-12.767763-25.93134-17.148703-39.76408-9.16129z" fill="#262626" stroke-width=".48030642"/>
 </g>
</svg>
