<?xml version="1.0" encoding="UTF-8"?>
<!-- Created with Inkscape (http://www.inkscape.org/) -->
<svg width="1e3" height="330" version="1.1" viewBox="0 0 264.58334 87.312502" xmlns="http://www.w3.org/2000/svg" xmlns:cc="http://creativecommons.org/ns#" xmlns:dc="http://purl.org/dc/elements/1.1/" xmlns:rdf="http://www.w3.org/1999/02/22-rdf-syntax-ns#">
 <metadata>
  <rdf:RDF>
   <cc:Work rdf:about="">
    <dc:format>image/svg+xml</dc:format>
    <dc:type rdf:resource="http://purl.org/dc/dcmitype/StillImage"/>
    <dc:title/>
   </cc:Work>
  </rdf:RDF>
 </metadata>
 <g transform="translate(-312.97156,-302.22784)">
  <rect x="312.97156" y="302.22784" width="264.58334" height="87.3125" ry="0" opacity="0" stroke-width=".1788366"/>
  <g transform="translate(311.96095,4.2382813e-6)">
   <g fill="#f69c9b" style="font-feature-settings:normal;font-variant-caps:normal;font-variant-ligatures:normal;font-variant-numeric:normal" aria-label="4">
    <path d="m250.20662 350.82608h-9.00032l0.38758-19.29253-14.85698 0.43064v31.26424l22.65151 0.81821-1.63643 25.10613 15.58906 0.38757 1.24885-58.00679h-13.9957z" fill="#f69c9b" stroke-width=".26458335" style="font-feature-settings:normal;font-variant-caps:normal;font-variant-ligatures:normal;font-variant-numeric:normal"/>
   </g>
   <g fill="#fff" stroke="#ef5350" stroke-width=".79374999" style="font-feature-settings:normal;font-variant-caps:normal;font-variant-ligatures:normal;font-variant-numeric:normal" aria-label="fourth ">
    <path d="m139.95628 319.60497-1.17133 7.99262-6.71105-0.35829 0.27561 1.37804 5.33301 0.60634-0.73036 5.73264-3.67936-0.82683 1.24023 5.98069-6.75239 0.9095-1.51584-18.09364z" style="font-feature-settings:normal;font-variant-caps:normal;font-variant-ligatures:normal;font-variant-numeric:normal"/>
    <path d="m150.59474 341.01968q-4.65777 0-7.95128-2.82497-3.27973-2.82498-3.27973-6.82129t3.27973-6.82129q3.29351-2.82498 7.95128-2.82498 4.64399 0 7.92372 2.82498 3.29351 2.82498 3.29351 6.82129t-3.29351 6.82129q-3.27973 2.82497-7.92372 2.82497zm-0.7717-6.02202q1.98437 0 3.38997-1.21268 1.41938-1.21267 1.41938-2.92144t-1.41938-2.92144q-1.4056-1.21267-3.38997-1.21267-1.99816 0-3.41754 1.21267-1.4056 1.21267-1.4056 2.92144t1.4056 2.92144q1.41938 1.21268 3.41754 1.21268z" style="font-feature-settings:normal;font-variant-caps:normal;font-variant-ligatures:normal;font-variant-numeric:normal"/>
    <path d="m164.22354 322.69178 7.34494 1.43315q-3.66558 11.25858 1.04731 11.3826 5.59483-0.0413 3.23839-11.6582l6.72483-2.12218q3.0868 19.12717-9.96322 19.29253-13.18783-0.12402-8.39225-18.3279z" style="font-feature-settings:normal;font-variant-caps:normal;font-variant-ligatures:normal;font-variant-numeric:normal"/>
    <path d="m190.59919 326.27467 0.19292 3.72071q6.8902 0 6.8902-1.37804t-7.08312-2.34267zm0.92329 13.6288-7.67568 1.07487 1.59853-20.57411q17.74913 1.32292 18.34169 7.11068 0.60633 5.77398-6.10471 7.99262l5.51215 2.99034-5.64996 5.00228-6.463-7.99262z" style="font-feature-settings:normal;font-variant-caps:normal;font-variant-ligatures:normal;font-variant-numeric:normal"/>
    <path d="m216.21692 327.59759 0.67524 11.74089-7.46897 1.92925 1.28158-14.02843-5.63618-0.48231 0.44097-5.09874 16.16439-0.96463 0.59256 7.53787z" style="font-feature-settings:normal;font-variant-caps:normal;font-variant-ligatures:normal;font-variant-numeric:normal"/>
    <path d="m230.16267 335.20436 0.49609 4.65777-5.27788 0.92329-2.39779-15.26867 5.87044-2.50803 0.66146 6.61459 5.29167-0.60634 0.0827-6.02203 9.19152 0.92329-3.514 16.93609-5.91179-1.75011 0.0689-4.39594z" style="font-feature-settings:normal;font-variant-caps:normal;font-variant-ligatures:normal;font-variant-numeric:normal"/>
   </g>
   <g fill="#fff" stroke="#ef5350" stroke-width=".79374999" style="font-feature-settings:normal;font-variant-caps:normal;font-variant-ligatures:normal;font-variant-numeric:normal" aria-label="Grade">
    <path d="m148.32097 374.39216-7.84103 1.98437 0.1378-2.1773q-1.52962 0.38585-3.22461 0.38585-4.61643 0-7.88238-2.82498-3.26595-2.82497-3.26595-6.82128 0-3.99632 3.26595-6.82129 3.26595-2.82498 7.88238-2.82498t7.88238 2.82498q1.63986 1.41938 2.46669 3.14192l-6.61459 1.66743q-0.33073-0.88195-1.15755-1.59852-1.4056-1.21268-3.37619-1.21268-1.9706 0-3.3762 1.21268-1.40559 1.21267-1.40559 2.92144 0 1.70876 1.40559 2.92144 1.4056 1.21267 3.3762 1.21267 1.97059 0 3.37619-1.21267 0.75792-0.66146 1.17133-1.46072l6.2563-0.27561z" style="font-feature-settings:normal;font-variant-caps:normal;font-variant-ligatures:normal;font-variant-numeric:normal"/>
    <path d="m155.76238 359.84007 0.19293 3.72071q6.89019 0 6.89019-1.37804t-7.08312-2.34267zm0.92329 13.6288-7.67568 1.07487 1.59853-20.57411q17.74913 1.32292 18.34169 7.11068 0.60633 5.77398-6.10471 7.99262l5.51215 2.99034-5.64996 5.00228-6.463-7.99262z" style="font-feature-settings:normal;font-variant-caps:normal;font-variant-ligatures:normal;font-variant-numeric:normal"/>
    <path d="m175.02736 371.82901-0.96463 2.75607-5.42947-3.27973 6.80751-16.0128 5.18142-0.35829 8.14421 16.5778-6.43544 3.07302-1.41938-3.87228zm4.71289-6.03581-1.54341-4.9885-1.81901 5.51215z" style="font-feature-settings:normal;font-variant-caps:normal;font-variant-ligatures:normal;font-variant-numeric:normal"/>
    <path d="m190.35114 374.58508-0.88194-19.29253q18.79644 0 18.79644 9.64627 0 9.64626-17.9145 9.64626zm4.90582-14.18001 0.92328 6.6697q5.96691 0.0276 5.96691-3.32107 0-3.34863-6.89019-3.34863z" style="font-feature-settings:normal;font-variant-caps:normal;font-variant-ligatures:normal;font-variant-numeric:normal"/>
    <path d="m223.58942 352.81208 0.35829 7.3036-8.5714 0.92329 0.11024 1.66742 5.6224-0.52365 0.49609 4.9885-5.87044 0.42719 0.0965 1.35048 8.32335-0.6339 1.24024 6.27007-16.41244 0.565 1.66743-19.88509z" style="font-feature-settings:normal;font-variant-caps:normal;font-variant-ligatures:normal;font-variant-numeric:normal"/>
   </g>
  </g>
  <g transform="matrix(0 -.63340117 .63340117 0 304.09876 412.03734)">
   <g transform="matrix(1.2566103,0,0,1.2566103,-101.7333,-59.391117)">
    <rect transform="rotate(105)" x="48.139877" y="-137.0332" width="11.758306" height="7.9005113" ry="2.0774415" fill="#34c4ff"/>
    <rect transform="rotate(60)" x="146.10431" y="-51.704178" width="11.758306" height="7.9005113" ry="2.0774417" fill="#34c4ff"/>
    <path d="m148.58644 67.207442c-14.70137-3.939087-29.81251 4.78532-33.75183 19.486639-3.93957 14.701549 4.78483 29.813139 19.48643 33.752559 14.70167 3.93917 29.81302-4.78565 33.75204-19.48735 3.93909-14.701387-4.78531-29.81251-19.48664-33.751848zm-2.67482 9.982574c9.18838 2.46188 14.64134 11.906221 12.1796 21.094639-2.46196 9.188655-11.90677 14.641625-21.09535 12.179415-9.18827-2.46229-14.64083-11.906861-12.1787-21.095169 2.46221-9.187988 11.90631-14.640546 21.09445-12.178885z" fill="#5ed0ff"/>
    <path d="m145.91163 77.189982a17.224049 17.224049 0 0 0 -21.09494 12.179173 17.224049 17.224049 0 0 0 12.17917 21.094945 17.224049 17.224049 0 0 0 21.09494 -12.179173 17.224049 17.224049 0 0 0 -12.17917 -21.094945zm-1.48585 5.545254a11.482699 11.482699 0 0 1 8.11978 14.063847 11.482699 11.482699 0 0 1 -14.06368 8.119117 11.482699 11.482699 0 0 1 -8.11929 -14.063026 11.482699 11.482699 0 0 1 14.06319 -8.119938z" fill="#2196f3"/>
    <g fill="#5ed0ff">
     <rect transform="rotate(15)" x="155.03889" y="22.23369" width="11.758306" height="7.9005113" ry="2.0774415"/>
     <rect transform="rotate(15)" x="155.03889" y="77.90387" width="11.758306" height="7.9005113" ry="2.0774415"/>
     <rect transform="rotate(105)" x="48.139877" y="-192.7034" width="11.758306" height="7.9005113" ry="2.0774415"/>
     <rect transform="rotate(60)" x="146.10431" y="-107.37437" width="11.758306" height="7.9005113" ry="2.0774417"/>
     <rect transform="rotate(150)" x="-81.46817" y="-183.76881" width="11.758306" height="7.9005113" ry="2.0774417"/>
     <rect transform="rotate(150)" x="-81.46817" y="-128.09863" width="11.758306" height="7.9005113" ry="2.0774417"/>
    </g>
    <path d="m151.52576 73.819s12.66518 3.993525 11.98057 22.591943" fill="none" stroke="#f6fcff" stroke-linecap="round" stroke-width="3.96875"/>
    <g transform="translate(-102.25139)" fill="#34c4ff">
     <path d="m231.94929 117.26739c-0.88571 0.0342-0.40046-0.78735-0.64248 0.1159l-0.96945 3.61787c-0.29788 1.11168 0.35748 2.24667 1.46916 2.54455l7.34426 1.96783c0.68237 0.18285 1.3729 6e-3 1.87378-0.41496l-5.79499-1.55287c-1.11169-0.29788-1.76704-1.43287-1.46916-2.54455l0.40787-1.77641c0.18577-0.7848 0.26558-1.05124-1.55762-1.9132-0.20844-0.0559-0.45697-0.0521-0.66137-0.0442z"/>
     <path d="m232.08919 64.119874c-0.33473 9e-3 -0.67245 0.09974-0.98392 0.27957l-6.58513 3.801835c-0.99671 0.57545-1.33561 1.840841-0.76016 2.837553l1.87276 3.244247c0.57545 0.996709 1.12316 0.460941 2.11987-0.114507 0.47267-0.300323 0.69901-0.558987 0.38364-1.029288l-0.95322-2.100447c-0.57545-0.996712-0.23655-2.262103 0.76016-2.837553l5.78724-3.3414c-0.41335-0.492199-1.02139-0.756748-1.64124-0.740005z"/>
     <path d="m226.88847 71.998978c-4.63104 3.562332-8.17345 8.615723-9.8025 14.695229-3.63479 13.564163 3.51105 27.476843 16.18506 32.642453 0.0677-0.49323 0.17144-0.9927 0.32091-1.49707-10.70634-6.02556-16.40944-18.731614-13.08292-31.145383 1.35383-5.052423 4.0297-9.396117 7.55251-12.765112z"/>
    </g>
   </g>
   <g transform="translate(-65.642557,38.637633)">
    <rect transform="rotate(105)" x="48.139877" y="-137.0332" width="11.758306" height="7.9005113" ry="2.0774415" fill="#34c4ff"/>
    <rect transform="rotate(60)" x="146.10431" y="-51.704178" width="11.758306" height="7.9005113" ry="2.0774417" fill="#34c4ff"/>
    <path d="m148.58644 67.207442c-14.70137-3.939087-29.81251 4.78532-33.75183 19.486639-3.93957 14.701549 4.78483 29.813139 19.48643 33.752559 14.70167 3.93917 29.81302-4.78565 33.75204-19.48735 3.93909-14.701387-4.78531-29.81251-19.48664-33.751848zm-2.67482 9.982574c9.18838 2.46188 14.64134 11.906221 12.1796 21.094639-2.46196 9.188655-11.90677 14.641625-21.09535 12.179415-9.18827-2.46229-14.64083-11.906861-12.1787-21.095169 2.46221-9.187988 11.90631-14.640546 21.09445-12.178885z" fill="#5ed0ff"/>
    <path d="m145.91163 77.189982a17.224049 17.224049 0 0 0 -21.09494 12.179173 17.224049 17.224049 0 0 0 12.17917 21.094945 17.224049 17.224049 0 0 0 21.09494 -12.179173 17.224049 17.224049 0 0 0 -12.17917 -21.094945zm-1.48585 5.545254a11.482699 11.482699 0 0 1 8.11978 14.063847 11.482699 11.482699 0 0 1 -14.06368 8.119117 11.482699 11.482699 0 0 1 -8.11929 -14.063026 11.482699 11.482699 0 0 1 14.06319 -8.119938z" fill="#2196f3"/>
    <g fill="#5ed0ff">
     <rect transform="rotate(15)" x="155.03889" y="22.23369" width="11.758306" height="7.9005113" ry="2.0774415"/>
     <rect transform="rotate(15)" x="155.03889" y="77.90387" width="11.758306" height="7.9005113" ry="2.0774415"/>
     <rect transform="rotate(105)" x="48.139877" y="-192.7034" width="11.758306" height="7.9005113" ry="2.0774415"/>
     <rect transform="rotate(60)" x="146.10431" y="-107.37437" width="11.758306" height="7.9005113" ry="2.0774417"/>
     <rect transform="rotate(150)" x="-81.46817" y="-183.76881" width="11.758306" height="7.9005113" ry="2.0774417"/>
     <rect transform="rotate(150)" x="-81.46817" y="-128.09863" width="11.758306" height="7.9005113" ry="2.0774417"/>
    </g>
    <path d="m151.52576 73.819s12.66518 3.993525 11.98057 22.591943" fill="none" stroke="#f6fcff" stroke-linecap="round" stroke-width="3.96875"/>
    <g transform="translate(-102.25139)" fill="#34c4ff">
     <path d="m231.94929 117.26739c-0.88571 0.0342-0.40046-0.78735-0.64248 0.1159l-0.96945 3.61787c-0.29788 1.11168 0.35748 2.24667 1.46916 2.54455l7.34426 1.96783c0.68237 0.18285 1.3729 6e-3 1.87378-0.41496l-5.79499-1.55287c-1.11169-0.29788-1.76704-1.43287-1.46916-2.54455l0.40787-1.77641c0.18577-0.7848 0.26558-1.05124-1.55762-1.9132-0.20844-0.0559-0.45697-0.0521-0.66137-0.0442z"/>
     <path d="m232.08919 64.119874c-0.33473 9e-3 -0.67245 0.09974-0.98392 0.27957l-6.58513 3.801835c-0.99671 0.57545-1.33561 1.840841-0.76016 2.837553l1.87276 3.244247c0.57545 0.996709 1.12316 0.460941 2.11987-0.114507 0.47267-0.300323 0.69901-0.558987 0.38364-1.029288l-0.95322-2.100447c-0.57545-0.996712-0.23655-2.262103 0.76016-2.837553l5.78724-3.3414c-0.41335-0.492199-1.02139-0.756748-1.64124-0.740005z"/>
     <path d="m226.88847 71.998978c-4.63104 3.562332-8.17345 8.615723-9.8025 14.695229-3.63479 13.564163 3.51105 27.476843 16.18506 32.642453 0.0677-0.49323 0.17144-0.9927 0.32091-1.49707-10.70634-6.02556-16.40944-18.731614-13.08292-31.145383 1.35383-5.052423 4.0297-9.396117 7.55251-12.765112z"/>
    </g>
   </g>
   <rect transform="rotate(105)" x="48.139877" y="-137.0332" width="11.758306" height="7.9005113" ry="2.0774415" fill="#34c4ff"/>
   <rect transform="rotate(60)" x="146.10431" y="-51.704178" width="11.758306" height="7.9005113" ry="2.0774417" fill="#34c4ff"/>
   <path d="m148.58644 67.207442c-14.70137-3.939087-29.81251 4.78532-33.75183 19.486639-3.93957 14.701549 4.78483 29.813139 19.48643 33.752559 14.70167 3.93917 29.81302-4.78565 33.75204-19.48735 3.93909-14.701387-4.78531-29.81251-19.48664-33.751848zm-2.67482 9.982574c9.18838 2.46188 14.64134 11.906221 12.1796 21.094639-2.46196 9.188655-11.90677 14.641625-21.09535 12.179415-9.18827-2.46229-14.64083-11.906861-12.1787-21.095169 2.46221-9.187988 11.90631-14.640546 21.09445-12.178885z" fill="#5ed0ff"/>
   <path d="m145.91163 77.189982a17.224049 17.224049 0 0 0 -21.09494 12.179173 17.224049 17.224049 0 0 0 12.17917 21.094945 17.224049 17.224049 0 0 0 21.09494 -12.179173 17.224049 17.224049 0 0 0 -12.17917 -21.094945zm-1.48585 5.545254a11.482699 11.482699 0 0 1 8.11978 14.063847 11.482699 11.482699 0 0 1 -14.06368 8.119117 11.482699 11.482699 0 0 1 -8.11929 -14.063026 11.482699 11.482699 0 0 1 14.06319 -8.119938z" fill="#2196f3"/>
   <g fill="#5ed0ff">
    <rect transform="rotate(15)" x="155.03889" y="22.23369" width="11.758306" height="7.9005113" ry="2.0774415"/>
    <rect transform="rotate(15)" x="155.03889" y="77.90387" width="11.758306" height="7.9005113" ry="2.0774415"/>
    <rect transform="rotate(105)" x="48.139877" y="-192.7034" width="11.758306" height="7.9005113" ry="2.0774415"/>
    <rect transform="rotate(60)" x="146.10431" y="-107.37437" width="11.758306" height="7.9005113" ry="2.0774417"/>
    <rect transform="rotate(150)" x="-81.46817" y="-183.76881" width="11.758306" height="7.9005113" ry="2.0774417"/>
    <rect transform="rotate(150)" x="-81.46817" y="-128.09863" width="11.758306" height="7.9005113" ry="2.0774417"/>
   </g>
   <path d="m151.52576 73.819s12.66518 3.993525 11.98057 22.591943" fill="none" stroke="#f6fcff" stroke-linecap="round" stroke-width="3.96875"/>
   <g transform="translate(-102.25139)" fill="#34c4ff">
    <path d="m231.94929 117.26739c-0.88571 0.0342-0.40046-0.78735-0.64248 0.1159l-0.96945 3.61787c-0.29788 1.11168 0.35748 2.24667 1.46916 2.54455l7.34426 1.96783c0.68237 0.18285 1.3729 6e-3 1.87378-0.41496l-5.79499-1.55287c-1.11169-0.29788-1.76704-1.43287-1.46916-2.54455l0.40787-1.77641c0.18577-0.7848 0.26558-1.05124-1.55762-1.9132-0.20844-0.0559-0.45697-0.0521-0.66137-0.0442z"/>
    <path d="m232.08919 64.119874c-0.33473 9e-3 -0.67245 0.09974-0.98392 0.27957l-6.58513 3.801835c-0.99671 0.57545-1.33561 1.840841-0.76016 2.837553l1.87276 3.244247c0.57545 0.996709 1.12316 0.460941 2.11987-0.114507 0.47267-0.300323 0.69901-0.558987 0.38364-1.029288l-0.95322-2.100447c-0.57545-0.996712-0.23655-2.262103 0.76016-2.837553l5.78724-3.3414c-0.41335-0.492199-1.02139-0.756748-1.64124-0.740005z"/>
    <path d="m226.88847 71.998978c-4.63104 3.562332-8.17345 8.615723-9.8025 14.695229-3.63479 13.564163 3.51105 27.476843 16.18506 32.642453 0.0677-0.49323 0.17144-0.9927 0.32091-1.49707-10.70634-6.02556-16.40944-18.731614-13.08292-31.145383 1.35383-5.052423 4.0297-9.396117 7.55251-12.765112z"/>
   </g>
  </g>
 </g>
</svg>
