<?xml version="1.0" encoding="UTF-8"?>
<!-- Created with Inkscape (http://www.inkscape.org/) -->
<svg width="1000.0001" height="330" version="1.1" viewBox="0 0 264.58335 87.312502" xmlns="http://www.w3.org/2000/svg" xmlns:cc="http://creativecommons.org/ns#" xmlns:dc="http://purl.org/dc/elements/1.1/" xmlns:rdf="http://www.w3.org/1999/02/22-rdf-syntax-ns#">
 <metadata>
  <rdf:RDF>
   <cc:Work rdf:about="">
    <dc:format>image/svg+xml</dc:format>
    <dc:type rdf:resource="http://purl.org/dc/dcmitype/StillImage"/>
    <dc:title/>
   </cc:Work>
  </rdf:RDF>
 </metadata>
 <g transform="translate(-312.97156,-101.77634)">
  <rect x="312.97156" y="101.77634" width="264.58334" height="87.3125" ry="0" opacity="0" stroke-width=".1788366"/>
  <g transform="translate(311.93395,-3.3300781e-6)">
   <g fill="#ffe081" style="font-feature-settings:normal;font-variant-caps:normal;font-variant-ligatures:normal;font-variant-numeric:normal" aria-label="2">
    <path d="m259.80254 132.89072q-12.96217-7.88066-24.11566-0.12919-5.59828 4.09105-9.86159 10.11996l8.69887 11.02431q1.11965-1.80868 3.14365-3.35897 4.47862-4.47862 9.00031-3.53122 2.54076 0.55983 2.06705 3.44509-0.38757 2.45463-2.88526 6.41649-4.69395 7.3639-11.45494 11.84252-2.92834 2.49769-5.42603 4.3925l-1.03353 15.24454 35.01078 0.73209 0.0431-14.5986-17.69918 0.81821q8.39742-7.75146 14.38327-16.88096 5.25377-7.96679 5.85666-13.9957 0.81822-7.53615-5.72747-11.54107z" fill="#ffe081" stroke-width=".26458335" style="font-feature-settings:normal;font-variant-caps:normal;font-variant-ligatures:normal;font-variant-numeric:normal"/>
   </g>
   <g fill="#fff" stroke="#ffc107" stroke-width=".79374999" style="font-feature-settings:normal;font-variant-caps:normal;font-variant-ligatures:normal;font-variant-numeric:normal" aria-label="second ">
    <path d="m131.21952 132.77021q-4.97472-0.7028-4.39594-6.18739 0.57877-5.48459 12.78819-6.49056l1.15755 6.22873q-6.04958-0.1378-6.49056 1.43316-0.44097 1.57097 4.63021 1.80523 5.07118 0.23427 4.96094 6.17361-0.11024 5.93935-13.35319 6.33898l-2.43913-6.51812q6.77995 0.73036 7.45519-0.67524 0.67524-1.41938-4.31326-2.1084z" style="font-feature-settings:normal;font-variant-caps:normal;font-variant-ligatures:normal;font-variant-numeric:normal"/>
    <path d="m159.2626 118.61776 0.35829 7.3036-8.5714 0.92329 0.11024 1.66742 5.6224-0.52365 0.49609 4.9885-5.87044 0.42719 0.0965 1.35048 8.32335-0.6339 1.24024 6.27007-16.41244 0.565 1.66743-19.88509z" style="font-feature-settings:normal;font-variant-caps:normal;font-variant-ligatures:normal;font-variant-numeric:normal"/>
    <path d="m179.83671 137.56578q-3.26595 2.82498-7.88238 2.82498t-7.88238-2.82498q-3.26595-2.82497-3.26595-6.82129 0-3.99631 3.26595-6.82128 3.26595-2.82498 7.88238-2.82498t7.88238 2.82498q1.63986 1.41937 2.46669 3.14192l-6.61459 1.66743q-0.33073-0.88195-1.15755-1.59853-1.4056-1.21267-3.37619-1.21267-1.9706 0-3.3762 1.21267-1.4056 1.21268-1.4056 2.92145 0 1.70876 1.4056 2.92144 1.4056 1.21267 3.3762 1.21267 1.97059 0 3.37619-1.21267 0.75792-0.66146 1.11621-1.48828l6.64215 2.93522q-0.81305 1.72254-2.45291 3.14192z" style="font-feature-settings:normal;font-variant-caps:normal;font-variant-ligatures:normal;font-variant-numeric:normal"/>
    <path d="m194.25099 140.39076q-4.65777 0-7.95128-2.82498-3.27973-2.82497-3.27973-6.82129 0-3.99631 3.27973-6.82128 3.29351-2.82498 7.95128-2.82498 4.64399 0 7.92372 2.82498 3.29351 2.82497 3.29351 6.82128 0 3.99632-3.29351 6.82129-3.27973 2.82498-7.92372 2.82498zm-0.7717-6.02202q1.98437 0 3.38997-1.21268 1.41938-1.21267 1.41938-2.92144t-1.41938-2.92144q-1.4056-1.21267-3.38997-1.21267-1.99816 0-3.41754 1.21267-1.4056 1.21267-1.4056 2.92144t1.4056 2.92144q1.41938 1.21268 3.41754 1.21268z" style="font-feature-settings:normal;font-variant-caps:normal;font-variant-ligatures:normal;font-variant-numeric:normal"/>
    <path d="m213.07499 130.74449 1.36426 7.89616-6.87641 1.75011-1.39182-18.09364 6.90397-1.19889 6.80751 9.01237 0.0827-9.01237 8.54384-0.88195-3.03169 20.17448-5.47081 0.79926z" style="font-feature-settings:normal;font-variant-caps:normal;font-variant-ligatures:normal;font-variant-numeric:normal"/>
    <path d="m230.09376 140.39076-0.88194-19.29253q18.79644 0 18.79644 9.64626 0 9.64627-17.9145 9.64627zm4.90582-14.18001 0.92329 6.6697q5.9669 0.0276 5.9669-3.32107 0-3.34863-6.89019-3.34863z" style="font-feature-settings:normal;font-variant-caps:normal;font-variant-ligatures:normal;font-variant-numeric:normal"/>
   </g>
   <g fill="#fff" stroke="#ffc107" stroke-width=".79374999" style="font-feature-settings:normal;font-variant-caps:normal;font-variant-ligatures:normal;font-variant-numeric:normal" aria-label="Grade">
    <path d="m148.32097 173.76322-7.84103 1.98438 0.1378-2.1773q-1.52962 0.38585-3.22461 0.38585-4.61643 0-7.88238-2.82498t-3.26595-6.82129 3.26595-6.82129 7.88238-2.82498 7.88238 2.82498q1.63986 1.41938 2.46669 3.14193l-6.61459 1.66742q-0.33073-0.88194-1.15755-1.59852-1.4056-1.21268-3.37619-1.21268-1.9706 0-3.3762 1.21268-1.40559 1.21267-1.40559 2.92144t1.40559 2.92144q1.4056 1.21267 3.3762 1.21267 1.97059 0 3.37619-1.21267 0.75792-0.66146 1.17133-1.46072l6.2563-0.27561z" style="font-feature-settings:normal;font-variant-caps:normal;font-variant-ligatures:normal;font-variant-numeric:normal"/>
    <path d="m155.76238 159.21114 0.19293 3.7207q6.89019 0 6.89019-1.37804t-7.08312-2.34266zm0.92329 13.6288-7.67568 1.07487 1.59853-20.57412q17.74913 1.32292 18.34169 7.11068 0.60633 5.77398-6.10471 7.99262l5.51215 2.99035-5.64996 5.00228-6.463-7.99263z" style="font-feature-settings:normal;font-variant-caps:normal;font-variant-ligatures:normal;font-variant-numeric:normal"/>
    <path d="m175.02736 171.20007-0.96463 2.75608-5.42947-3.27973 6.80751-16.01281 5.18142-0.35829 8.14421 16.5778-6.43544 3.07303-1.41938-3.87229zm4.71289-6.03581-1.54341-4.9885-1.81901 5.51216z" style="font-feature-settings:normal;font-variant-caps:normal;font-variant-ligatures:normal;font-variant-numeric:normal"/>
    <path d="m190.35114 173.95615-0.88194-19.29254q18.79644 0 18.79644 9.64627t-17.9145 9.64627zm4.90582-14.18002 0.92328 6.66971q5.96691 0.0276 5.96691-3.32107 0-3.34864-6.89019-3.34864z" style="font-feature-settings:normal;font-variant-caps:normal;font-variant-ligatures:normal;font-variant-numeric:normal"/>
    <path d="m223.58942 152.18314 0.35829 7.3036-8.5714 0.92329 0.11024 1.66743 5.6224-0.52366 0.49609 4.9885-5.87044 0.42719 0.0965 1.35048 8.32335-0.6339 1.24024 6.27008-16.41244 0.56499 1.66743-19.88509z" style="font-feature-settings:normal;font-variant-caps:normal;font-variant-ligatures:normal;font-variant-numeric:normal"/>
   </g>
  </g>
  <path d="m362.00083 102.50877a30.903979 30.903979 0 0 0 -30.90425 30.90375 30.903979 30.903979 0 0 0 17.84296 27.96871v13.43092h25.65605v-13.22063a30.903979 30.903979 0 0 0 18.30899 -28.179 30.903979 30.903979 0 0 0 -30.90375 -30.90375z" fill="#fff" stroke-width=".25574136"/>
  <path d="m362.00083 102.50877a30.903979 30.903979 0 0 0 -30.90425 30.90375 30.903979 30.903979 0 0 0 17.84296 27.96871v13.43092h25.65605v-13.22063a30.903979 30.903979 0 0 0 18.30899 -28.179 30.903979 30.903979 0 0 0 -30.90375 -30.90375z" fill="#ffc107" opacity=".29300005" stroke-width=".25574136"/>
  <g transform="matrix(.96658158 0 0 .96658158 270.45491 73.394712)" fill="#ffce39" opacity=".76099997">
   <circle cx="94.710838" cy="69.121452" r="22.561689" opacity="1"/>
   <rect x="87.230484" y="80.505966" width="14.478091" height="17.373707" ry="0" opacity="1"/>
  </g>
  <g transform="matrix(.96658158 0 0 .96658158 328.13362 75.252911)">
   <rect transform="matrix(-.99993899 .01104637 -.00176437 -.99999844 0 0)" x="-39.800228" y="-100.65635" width="2.0570109" height="26.202005" ry="1.0285054" fill="#616161"/>
   <path transform="scale(.26458333)" d="m169.89453 263.4668c-12.75354-7e-4 -23.0925 10.33825-23.0918 23.09179 5e-3 0.3166 0.0156 0.63307 0.0332 0.94922l0.92861 22.0925c0.1032 2.45503-2.47635-0.0242-0.0192-0.0172l22.0925 0.0634c0.0189 6.8e-4 0.0378 1e-3 0.0566 2e-3 12.75202-3.7e-4 23.08948-10.33783 23.08985-23.08985 7e-4 -12.75277-10.33707-23.09142-23.08985-23.09179z" fill="none" stroke="#616161" stroke-linecap="round" stroke-width="7.99999952"/>
   <rect transform="matrix(-.99993899 .01104637 -.00176437 -.99999844 0 0)" x="-32.369564" y="-100.57426" width="2.0570109" height="26.202005" ry="1.0285054" fill="#616161"/>
   <path d="m25.306243 82.169844-0.0037-0.420464c-4e-3 -0.453283 0.357745-0.819018 0.811049-0.820023l19.208846-0.0426c0.453305-1e-3 0.821447 0.363111 0.825431 0.816394l0.0037 0.420464c4e-3 0.453292-0.357744 0.819027-0.811049 0.820033l-19.208845 0.0426c-0.453305 1e-3 -0.821447-0.363111-0.825431-0.816403z" fill="#616161"/>
   <path transform="scale(.26458333)" d="m95.908203 263.4668c-12.753535-7e-4 -23.092495 10.33825-23.091797 23.09179 3.73e-4 12.75278 10.339019 23.09055 23.091797 23.08985 0.415676-3e-3 0.831192-0.0174 1.246094-0.043l21.561513 0.33736 0.23536-22.43502c0.0221-0.31605 0.0378-0.63253 0.0469-0.94922 7e-4 -12.75277-10.33707-23.09142-23.089847-23.09179z" fill="none" stroke="#616161" stroke-linecap="round" stroke-width="7.99999952"/>
  </g>
  <path d="m367.26663 108.83248s13.58021 1.19254 18.76416 18.02089" fill="none" opacity=".86699997" stroke="#fff" stroke-linecap="round" stroke-width="5.11482716"/>
  <g transform="matrix(.96658158 0 0 .96658158 270.45491 73.394712)">
   <path transform="scale(.26458333)" d="m357.96289 113.8418a120.84075 120.84075 0 0 0 -120.8418 120.83984 120.84075 120.84075 0 0 0 69.76953 109.36328v52.51758h10.1543v-52.51758a120.84075 120.84075 0 0 1 -69.76953 -109.36328 120.84075 120.84075 0 0 1 116.63281 -120.62891 120.84075 120.84075 0 0 0 -5.94531 -0.21093z" fill="#ffc20d" opacity=".172"/>
   <path d="m89.468205 114.88259a5.6705856 5.6705856 0 0 0 5.367115 3.86126 5.6705856 5.6705856 0 0 0 5.36867 -3.86126z" fill="#616161"/>
   <path d="m89.46844 114.88245a5.6705854 5.6705854 0 0 0 0.543634 1.15135h9.648508a5.6705854 5.6705854 0 0 0 0.543638 -1.15135z" fill="#565656"/>
   <rect x="80.245041" y="96.613831" width="28.448992" height="17.829132" ry="3.4605842" fill="#b3b3b3"/>
   <path d="m81.756015 96.613741c-0.837095 0-1.510786 0.839761-1.510786 1.882571v14.064258c0 1.04281 0.673691 1.88257 1.510786 1.88257h2.660261v-17.829399z" fill="#a7a7a7"/>
  </g>
  <g transform="matrix(.96658158 0 0 .96658158 270.45491 73.394712)" fill="#616161">
   <rect x="77.944992" y="96.001228" width="33.782211" height="4.63623" ry="1.4350222"/>
   <rect x="77.944992" y="103.21028" width="33.782211" height="4.63623" ry="1.4350222"/>
   <rect x="77.944992" y="110.41933" width="33.782211" height="4.63623" ry="1.4350222"/>
  </g>
  <g transform="matrix(.96658158 0 0 .96658158 270.45491 73.394712)" fill="#e4e4e4">
   <rect x="102.74374" y="96.996613" width="8.0488682" height="1.8348933" ry=".91744667"/>
   <rect x="102.74374" y="104.24881" width="8.0488682" height="1.8348933" ry=".91744667"/>
   <rect x="102.74374" y="111.41363" width="8.0488682" height="1.8348933" ry=".91744667"/>
  </g>
  <path d="m348.01847 170.66884v0.90958h27.49819v-0.90958z" fill="#a7a7a7" stroke-width=".25574136"/>
  <path d="m348.01847 177.64219v0.90957h27.49819v-0.90957z" fill="#a7a7a7" stroke-width=".96658158"/>
 </g>
</svg>
