<?xml version="1.0" encoding="UTF-8"?>
<!-- Created with Inkscape (http://www.inkscape.org/) -->
<svg width="1e3" height="330" version="1.1" viewBox="0 0 264.58334 87.312502" xmlns="http://www.w3.org/2000/svg" xmlns:cc="http://creativecommons.org/ns#" xmlns:dc="http://purl.org/dc/elements/1.1/" xmlns:rdf="http://www.w3.org/1999/02/22-rdf-syntax-ns#">
 <metadata>
  <rdf:RDF>
   <cc:Work rdf:about="">
    <dc:format>image/svg+xml</dc:format>
    <dc:type rdf:resource="http://purl.org/dc/dcmitype/StillImage"/>
    <dc:title/>
   </cc:Work>
  </rdf:RDF>
 </metadata>
 <g transform="translate(-313.79086,-507.32401)">
  <rect x="313.79086" y="507.32401" width="264.58334" height="87.3125" ry="0" opacity="0" stroke-width=".1788366"/>
  <g transform="translate(311.93395,6.3302067e-6)">
   <g fill="#ffba73" style="font-feature-settings:normal;font-variant-caps:normal;font-variant-ligatures:normal;font-variant-numeric:normal" aria-label="6">
    <path d="m246.49966 579.49508q-1.50723 0.12919-2.32544-0.77515-0.73208-0.77515-0.73208-2.02399 0-1.24885 0.60289-2.23932 0.64595-1.03352 1.67948-1.20578 2.45463-0.43064 3.66042 0.43064 1.07659 0.73208 0.9474 2.11012-0.12919 1.29191-1.16272 2.3685-1.11966 1.16272-2.66995 1.33498zm-1.03353-19.68011q-0.51676-1.80868 0.51676-3.31591 2.15319-3.05752 10.07691-1.67948l2.28237-13.39281q-1.98093-0.99046-5.51215-1.24884-7.10551-0.43064-14.85697 3.35896-4.04799 1.98093-7.7084 9.43095-3.74654 7.7084-4.43556 16.06276-0.73209 9.6032 3.22977 16.01969 4.65088 7.57921 15.20149 9.2587 9.1295 1.46416 15.28761-3.61735 5.55521-4.56475 6.20117-12.01477 0.64595-7.49309-4.26331-12.78992-5.55521-5.98585-16.01969-6.07198z" fill="#ffba73" stroke-width=".26458335" style="font-feature-settings:normal;font-variant-caps:normal;font-variant-ligatures:normal;font-variant-numeric:normal"/>
   </g>
   <g fill="#fff" stroke="#f57c00" stroke-width=".79374999" style="font-feature-settings:normal;font-variant-caps:normal;font-variant-ligatures:normal;font-variant-numeric:normal" aria-label="sixth ">
    <path d="m131.21952 538.74023q-4.97472-0.7028-4.39594-6.18739 0.57877-5.4846 12.78819-6.49056l1.15755 6.22873q-6.04958-0.13781-6.49056 1.43316-0.44097 1.57096 4.63021 1.80523 5.07118 0.23426 4.96094 6.17361-0.11024 5.93934-13.35319 6.33898l-2.43913-6.51813q6.77995 0.73036 7.45519-0.67523 0.67524-1.41938-4.31326-2.1084z" style="font-feature-settings:normal;font-variant-caps:normal;font-variant-ligatures:normal;font-variant-numeric:normal"/>
    <path d="m151.04949 527.17849 1.4056 18.58973-7.7997 1.4745 0.35829-19.58192z" style="font-feature-settings:normal;font-variant-caps:normal;font-variant-ligatures:normal;font-variant-numeric:normal"/>
    <path d="m159.11101 536.71451-5.7602-6.32519 5.44326-3.32108 3.36241 5.01606 3.43131-5.01606 6.57325 3.91363-6.79373 5.77398 6.47678 7.1658-6.13227 2.43913-3.59668-4.9885-3.26595 4.9885-5.70508-2.12218z" style="font-feature-settings:normal;font-variant-caps:normal;font-variant-ligatures:normal;font-variant-numeric:normal"/>
    <path d="m184.02594 532.93869 0.67524 11.74088-7.46897 1.92926 1.28158-14.02843-5.63618-0.48232 0.44098-5.09874 16.16438-0.96463 0.59256 7.53787z" style="font-feature-settings:normal;font-variant-caps:normal;font-variant-ligatures:normal;font-variant-numeric:normal"/>
    <path d="m197.97169 540.54546 0.49609 4.65777-5.27788 0.92328-2.39779-15.26866 5.87044-2.50803 0.66146 6.61458 5.29167-0.60633 0.0827-6.02203 9.19152 0.92328-3.514 16.93609-5.91179-1.7501 0.0689-4.39595z" style="font-feature-settings:normal;font-variant-caps:normal;font-variant-ligatures:normal;font-variant-numeric:normal"/>
   </g>
   <g fill="#fff" stroke="#f57c00" stroke-width=".79374999" style="font-feature-settings:normal;font-variant-caps:normal;font-variant-ligatures:normal;font-variant-numeric:normal" aria-label="Grade">
    <path d="m148.32097 579.73322-7.84103 1.98438 0.1378-2.1773q-1.52962 0.38585-3.22461 0.38585-4.61643 0-7.88238-2.82498t-3.26595-6.82129 3.26595-6.82129 7.88238-2.82498 7.88238 2.82498q1.63986 1.41938 2.46669 3.14193l-6.61459 1.66742q-0.33073-0.88194-1.15755-1.59852-1.4056-1.21267-3.37619-1.21267-1.9706 0-3.3762 1.21267-1.40559 1.21267-1.40559 2.92144t1.40559 2.92144q1.4056 1.21268 3.3762 1.21268 1.97059 0 3.37619-1.21268 0.75792-0.66146 1.17133-1.46072l6.2563-0.27561z" style="font-feature-settings:normal;font-variant-caps:normal;font-variant-ligatures:normal;font-variant-numeric:normal"/>
    <path d="m155.76238 565.18114 0.19293 3.7207q6.89019 0 6.89019-1.37804t-7.08312-2.34266zm0.92329 13.6288-7.67568 1.07487 1.59853-20.57411q17.74913 1.32291 18.34169 7.11067 0.60633 5.77398-6.10471 7.99262l5.51215 2.99035-5.64996 5.00228-6.463-7.99263z" style="font-feature-settings:normal;font-variant-caps:normal;font-variant-ligatures:normal;font-variant-numeric:normal"/>
    <path d="m175.02736 577.17007-0.96463 2.75608-5.42947-3.27973 6.80751-16.01281 5.18142-0.35829 8.14421 16.5778-6.43544 3.07303-1.41938-3.87229zm4.71289-6.03581-1.54341-4.9885-1.81901 5.51216z" style="font-feature-settings:normal;font-variant-caps:normal;font-variant-ligatures:normal;font-variant-numeric:normal"/>
    <path d="m190.35114 579.92615-0.88194-19.29254q18.79644 0 18.79644 9.64627t-17.9145 9.64627zm4.90582-14.18002 0.92328 6.66971q5.96691 0.0276 5.96691-3.32107 0-3.34864-6.89019-3.34864z" style="font-feature-settings:normal;font-variant-caps:normal;font-variant-ligatures:normal;font-variant-numeric:normal"/>
    <path d="m223.58942 558.15314 0.35829 7.30361-8.5714 0.92328 0.11024 1.66743 5.6224-0.52366 0.49609 4.9885-5.87044 0.42719 0.0965 1.35048 8.32335-0.6339 1.24024 6.27008-16.41244 0.56499 1.66743-19.88509z" style="font-feature-settings:normal;font-variant-caps:normal;font-variant-ligatures:normal;font-variant-numeric:normal"/>
   </g>
  </g>
  <g transform="matrix(.96841577 0 0 .96841577 263.15335 489.83931)">
   <rect x="53.810238" y="32.774849" width="60.566681" height="20.269327" ry="2.9142673" fill="#00c853"/>
   <path transform="rotate(-90,76.251278,-6.798599)" d="m26.543168 67.282021c-2.382387 0-25.0150596-39.200937-23.8238664-41.264145 1.1911932-2.063207 46.4565374-2.063208 47.6477304-1e-6s-21.441478 41.264146-23.823864 41.264146z" fill="#00c853"/>
   <rect transform="scale(-1,1)" x="-150.33189" y="73.313499" width="60.566681" height="20.269327" ry="2.9142673" fill="#ef5350"/>
   <path transform="matrix(0,-1,-1,0,121.48217,110.1213)" d="m26.543168 67.282021c-2.382387 0-25.0150596-39.200937-23.8238664-41.264145 1.1911932-2.063207 46.4565374-2.063208 47.6477304-1e-6s-21.441478 41.264146-23.823864 41.264146z" fill="#ef5350"/>
   <rect transform="rotate(-60)" x="30.637693" y="114.38242" width="4.5847282" height="27.267073" ry="1.7385044" fill="#94ffc0"/>
   <rect transform="matrix(0,-1,-1,0,0,0)" x="-81.161293" y="-145.22102" width="4.5847282" height="25.09536" ry="2.2923641" fill="#f9bab9"/>
   <path transform="matrix(.26458333 0 0 .26458333 53.810238 19.040264)" d="m10.677734 51.927734c-5.9438657 0.178088-10.677734 5.007534-10.677734 10.996094v54.580082c0 6.10206 4.9116092 11.01562 11.013672 11.01562h193.928838c4.80038 0 12.66061-0.46769 11.72-4.55134-0.11266 3e-3 0.33018-2.74551-1.6868-2.74551h-193.928835c-6.102063 0-11.015625-4.91161-11.015625-11.01368v-54.580094c0-1.301675 0.235544-2.543895 0.646484-3.701172z" fill="#00a545"/>
   <path transform="matrix(.26458333 0 0 .26458333 53.810238 19.040264)" d="m358.46094 96.822266c-40.28387 27.112444-130.79551 77.807534-136.84571 74.314454-2.48879-1.43691-4.11935-22.66666-5.01867-47.19562l-13.11609 2.82452c0.79476 28.95852 2.58 51.88301 5.36719 53.49219 6.82657 3.94133 121.21849-61.12301 149.61328-83.435544z" fill="#00a545"/>
   <path transform="matrix(.26458333 0 0 .26458333 53.810238 19.040264)" d="m364.75195 271.79492c-1.1262 0.38646-2.33125 0.60742-3.59179 0.60742h-198.17969c-0.0647 3.15488-0.12609 6.301-0.21289 9.33399h191.02344c5.73914 0 10.42374-4.34773 10.96093-9.94141z" fill="#ed3a36"/>
   <path transform="matrix(.26458333 0 0 .26458333 53.810238 19.040264)" d="m9.5371094 236.00977c-5.0558025 3.82896-8.0625 6.64611-8.0625 7.91211-3e-7 9.00429 148.1610306 94.54511 155.9589806 90.04296 1.04058-0.60077 1.93831-4.23685 2.70118-9.97851-25.49169-8.11898-140.757734-75.0115-150.5976606-87.97656z" fill="#ed3a36"/>
  </g>
 </g>
</svg>
