<?xml version="1.0" encoding="UTF-8"?>
<!-- Created with Inkscape (http://www.inkscape.org/) -->
<svg width="1e3" height="330" version="1.1" viewBox="0 0 264.58334 87.312502" xmlns="http://www.w3.org/2000/svg" xmlns:cc="http://creativecommons.org/ns#" xmlns:dc="http://purl.org/dc/elements/1.1/" xmlns:rdf="http://www.w3.org/1999/02/22-rdf-syntax-ns#">
 <metadata>
  <rdf:RDF>
   <cc:Work rdf:about="">
    <dc:format>image/svg+xml</dc:format>
    <dc:type rdf:resource="http://purl.org/dc/dcmitype/StillImage"/>
    <dc:title/>
   </cc:Work>
  </rdf:RDF>
 </metadata>
 <g transform="translate(-312.97156,-199.81952)">
  <rect x="312.97156" y="199.81952" width="264.58334" height="87.3125" ry="0" opacity="0" stroke-width=".1788366"/>
  <g transform="translate(311.9667,4.1525337e-6)">
   <g fill="#db92e7" style="font-feature-settings:normal;font-variant-caps:normal;font-variant-ligatures:normal;font-variant-numeric:normal" aria-label="3">
    <path d="m226.36656 231.91472 0.38757 13.13443 16.57952-0.38758-13.95263 10.11997q3.83266-0.55983 7.53614 0.43064 7.49308 1.98093 7.27777 9.77546-0.25839 7.83759-7.53615 7.7084-3.66041-0.0861-7.27776-1.72255l-3.40204 14.03876q6.20118 1.98093 13.522 2.11013 14.51247 0.30144 19.85237-8.82806 7.32082-12.5746-0.1292-21.27347-3.74654-4.34943-8.56967-6.6318l14.90004-18.30207z" fill="#db92e7" stroke-width=".26458335" style="font-feature-settings:normal;font-variant-caps:normal;font-variant-ligatures:normal;font-variant-numeric:normal"/>
   </g>
   <g fill="#fff" stroke="#9c27b0" stroke-width=".79374999" style="font-feature-settings:normal;font-variant-caps:normal;font-variant-ligatures:normal;font-variant-numeric:normal" aria-label="third ">
    <path d="m137.39313 225.42067 0.67524 11.74088-7.46897 1.92926 1.28158-14.02843-5.63618-0.48232 0.44097-5.09874 16.16439-0.96463 0.59256 7.53787z" style="font-feature-settings:normal;font-variant-caps:normal;font-variant-ligatures:normal;font-variant-numeric:normal"/>
    <path d="m151.33888 233.02744 0.49609 4.65777-5.27789 0.92328-2.39778-15.26866 5.87044-2.50803 0.66146 6.61458 5.29167-0.60633 0.0827-6.02203 9.19151 0.92328-3.51399 16.93609-5.91179-1.7501 0.0689-4.39595z" style="font-feature-settings:normal;font-variant-caps:normal;font-variant-ligatures:normal;font-variant-numeric:normal"/>
    <path d="m172.3264 219.66047 1.4056 18.58973-7.7997 1.4745 0.35829-19.58192z" style="font-feature-settings:normal;font-variant-caps:normal;font-variant-ligatures:normal;font-variant-numeric:normal"/>
    <path d="m181.1734 224.09775 0.19293 3.7207q6.89019 0 6.89019-1.37804 0-1.37803-7.08312-2.34266zm0.92329 13.6288-7.67567 1.07487 1.59852-20.57411q17.74913 1.32291 18.34169 7.11067 0.60634 5.77398-6.10471 7.99263l5.51215 2.99034-5.64995 5.00228-6.463-7.99262z" style="font-feature-settings:normal;font-variant-caps:normal;font-variant-ligatures:normal;font-variant-numeric:normal"/>
    <path d="m196.52475 238.84276-0.88195-19.29254q18.79645 0 18.79645 9.64627t-17.9145 9.64627zm4.90581-14.18002 0.92329 6.66971q5.96691 0.0276 5.96691-3.32107 0-3.34864-6.8902-3.34864z" style="font-feature-settings:normal;font-variant-caps:normal;font-variant-ligatures:normal;font-variant-numeric:normal"/>
   </g>
   <g fill="#fff" stroke="#9c27b0" stroke-width=".79374999" style="font-feature-settings:normal;font-variant-caps:normal;font-variant-ligatures:normal;font-variant-numeric:normal" aria-label="Grade">
    <path d="m148.32097 272.21522-7.84103 1.98437 0.1378-2.1773q-1.52962 0.38585-3.22461 0.38585-4.61643 0-7.88238-2.82498-3.26595-2.82497-3.26595-6.82129 0-3.99631 3.26595-6.82128 3.26595-2.82498 7.88238-2.82498t7.88238 2.82498q1.63986 1.41937 2.46669 3.14192l-6.61459 1.66743q-0.33073-0.88195-1.15755-1.59853-1.4056-1.21267-3.37619-1.21267-1.9706 0-3.3762 1.21267-1.40559 1.21268-1.40559 2.92145 0 1.70876 1.40559 2.92144 1.4056 1.21267 3.3762 1.21267 1.97059 0 3.37619-1.21267 0.75792-0.66146 1.17133-1.46072l6.2563-0.27561z" style="font-feature-settings:normal;font-variant-caps:normal;font-variant-ligatures:normal;font-variant-numeric:normal"/>
    <path d="m155.76238 257.66313 0.19293 3.72071q6.89019 0 6.89019-1.37804t-7.08312-2.34267zm0.92329 13.6288-7.67568 1.07487 1.59853-20.57411q17.74913 1.32292 18.34169 7.11068 0.60633 5.77398-6.10471 7.99262l5.51215 2.99034-5.64996 5.00228-6.463-7.99262z" style="font-feature-settings:normal;font-variant-caps:normal;font-variant-ligatures:normal;font-variant-numeric:normal"/>
    <path d="m175.02736 269.65207-0.96463 2.75607-5.42947-3.27973 6.80751-16.0128 5.18142-0.35829 8.14421 16.5778-6.43544 3.07302-1.41938-3.87229zm4.71289-6.03581-1.54341-4.9885-1.81901 5.51215z" style="font-feature-settings:normal;font-variant-caps:normal;font-variant-ligatures:normal;font-variant-numeric:normal"/>
    <path d="m190.35114 272.40814-0.88194-19.29253q18.79644 0 18.79644 9.64626 0 9.64627-17.9145 9.64627zm4.90582-14.18001 0.92328 6.6697q5.96691 0.0276 5.96691-3.32107 0-3.34863-6.89019-3.34863z" style="font-feature-settings:normal;font-variant-caps:normal;font-variant-ligatures:normal;font-variant-numeric:normal"/>
    <path d="m223.58942 250.63514 0.35829 7.3036-8.5714 0.92329 0.11024 1.66742 5.6224-0.52365 0.49609 4.9885-5.87044 0.42719 0.0965 1.35048 8.32335-0.6339 1.24024 6.27007-16.41244 0.565 1.66743-19.88509z" style="font-feature-settings:normal;font-variant-caps:normal;font-variant-ligatures:normal;font-variant-numeric:normal"/>
   </g>
  </g>
  <g transform="translate(413.94339,-15.252936)">
   <path d="m-90.988075 289.76336v0.49673c0 1.44132 1.160379 2.60171 2.601709 2.60171h25.888383c1.44133 0 2.601708-1.16039 2.601708-2.60171v-0.49673c0 1.44132-1.160378 2.60171-2.601708 2.60171h-25.888383c-1.44133 0-2.601709-1.16039-2.601709-2.60171z" fill="#202a6a" stroke-width=".10891862"/>
   <path d="m-59.99574 289.76336v0.49673c0 1.44132 1.160379 2.60171 2.601709 2.60171h25.888383c1.44133 0 2.601709-1.16039 2.601709-2.60171v-0.49673c0 1.44132-1.160379 2.60171-2.601709 2.60171h-25.888383c-1.44133 0-2.601709-1.16039-2.601709-2.60171z" fill="#b38600" stroke-width=".10891862"/>
   <g transform="translate(-100.88171,215.16259)" stroke-width=".41166094">
    <path d="m31.73692 80.022057a6.3077346 6.3077346 0 0 1 -6.297496 6.101358 6.3077346 6.3077346 0 0 1 -6.297284 -6.017968 6.3077346 6.3077346 0 0 0 -0.01042 0.206987 6.3077346 6.3077346 0 0 0 6.307707 6.307708 6.3077346 6.3077346 0 0 0 6.30792 -6.307708 6.3077346 6.3077346 0 0 0 -0.01042 -0.290377z" fill="#202a6a"/>
    <path d="m62.828562 80.022057a6.3077346 6.3077346 0 0 1 -6.297495 6.101358 6.3077346 6.3077346 0 0 1 -6.297284 -6.017968 6.3077346 6.3077346 0 0 0 -0.01042 0.206987 6.3077346 6.3077346 0 0 0 6.307707 6.307708 6.3077346 6.3077346 0 0 0 6.307919 -6.307708 6.3077346 6.3077346 0 0 0 -0.01042 -0.290377z" fill="#b38600"/>
    <path d="m80.162367 63.582216a6.3077346 6.3077346 0 0 1 -6.297499 6.101359 6.3077346 6.3077346 0 0 1 -6.297282 -6.017969 6.3077346 6.3077346 0 0 0 -0.01042 0.206988 6.3077346 6.3077346 0 0 0 6.307705 6.307707 6.3077346 6.3077346 0 0 0 6.307922 -6.307707 6.3077346 6.3077346 0 0 0 -0.01042 -0.290378z" fill="#b38600"/>
    <circle cx="25.439531" cy="79.91507" r="6.3077345" fill="#303f9f"/>
   </g>
   <g transform="matrix(.41166095 0 0 .41166095 -68.739531 217.61241)" fill="#ffc107">
    <path d="m27.801787 114.45971c-3.501253 0-6.320026 2.81878-6.320026 6.32003v12.30984a15.322645 15.322645 0 0 1 2.171444 -0.17054 15.322645 15.322645 0 0 1 15.323091 15.32311 15.322645 15.322645 0 0 1 -15.323091 15.32257 15.322645 15.322645 0 0 1 -2.171444 -0.17364v12.07162c0 3.50125 2.818773 6.32003 6.320026 6.32003h62.887119c3.50125 0 6.32003-2.81878 6.32003-6.32003v-54.68296c0-3.50125-2.81878-6.32003-6.32003-6.32003h-16.33492a15.322645 15.322645 0 0 1 0.21394 2.5337 15.322645 15.322645 0 0 1 -15.32258 15.32257 15.322645 15.322645 0 0 1 -15.32258 -15.32257 15.322645 15.322645 0 0 1 0.22841 -2.5337z"/>
    <circle cx="59.245342" cy="188.17731" r="15.322645"/>
    <circle transform="rotate(90)" cx="148.24191" cy="-101.35252" r="15.322645"/>
   </g>
   <g transform="matrix(.41166095 0 0 .41166095 -97.842089 212.00179)" fill="#009a40">
    <path d="m119.27851 30.297892c-1.28471 1.524495-1.82549 3.630729-1.26814 5.710762l14.15314 52.819516c0.90619 3.381952 4.35866 5.375169 7.74061 4.468976l60.74461-16.276526c2.59713-0.695896 4.37277-2.893457 4.64778-5.407422-0.80405 0.953805-1.89877 1.680586-3.20032 2.029333l-60.74461 16.276526c-3.38195 0.906193-6.83391-1.087024-7.7401-4.468976l-14.15314-52.820032c-0.21026-0.784704-0.26288-1.57257-0.17983-2.332157z"/>
    <path d="m107.89884 55.756285a15.322645 15.322645 0 0 0 -1.57458 11.689726 15.322645 15.322645 0 0 0 18.76629 10.834481 15.322645 15.322645 0 0 0 10.70684 -10.453624 15.322645 15.322645 0 0 1 -9.25886 7.075535 15.322645 15.322645 0 0 1 -18.76682 -10.834997 15.322645 15.322645 0 0 1 0.12713 -8.311121z"/>
    <path d="m157.70613 79.882462a15.322645 15.322645 0 0 0 -1.57458 11.689725 15.322645 15.322645 0 0 0 18.7663 10.834483 15.322645 15.322645 0 0 0 10.70736 -10.453628 15.322645 15.322645 0 0 1 -9.25939 7.075537 15.322645 15.322645 0 0 1 -18.76681 -10.834481 15.322645 15.322645 0 0 1 0.12712 -8.311636z"/>
   </g>
   <g transform="matrix(.39763394 -.10654569 .10654569 .39763394 -93.432023 279.55466)" fill="#00c853">
    <rect x="138.50706" y="-104.76701" width="75.527374" height="67.32312" ry="6.3199534"/>
    <circle transform="rotate(90)" cx="-71.105446" cy="-134.40494" r="15.322645"/>
    <circle cx="176.27075" cy="-34.910229" r="15.322645"/>
   </g>
   <g transform="translate(-100.88171,215.16259)" stroke-width=".41166094">
    <rect transform="rotate(-15)" x="72.848503" y="25.284157" width="2.3840256" height="11.324122" ry="1.1920128" fill="#76ffaf"/>
    <rect x="66.812309" y="52.945786" width="2.3840256" height="11.125453" ry="1.1920128" fill="#ffe084"/>
    <rect transform="rotate(90)" x="24.337471" y="-37.210651" width="2.3840256" height="11.125453" ry="1.1920128" fill="#d27ae1"/>
   </g>
   <g transform="matrix(.41166095 0 0 .41166095 -68.739531 217.61241)" stroke-width=".26458332">
    <path d="m-47.725797 47.136565c-3.501254 0-6.320028 2.818773-6.320028 6.320026v54.682969c0 3.50125 2.818774 6.32002 6.320028 6.32002h62.887634c3.501255 0 6.320028-2.81877 6.320028-6.32002v-12.578046a15.322645 15.322645 0 0 1 -4.102077 0.559139 15.322645 15.322645 0 0 1 -15.3230945 -15.322579 15.322645 15.322645 0 0 1 15.3230945 -15.322577 15.322645 15.322645 0 0 1 4.102077 0.575676v-12.594582c0-3.501253-2.818773-6.320026-6.320028-6.320026z" fill="#9c27b0"/>
    <path d="m-47.725797 47.136565c-3.501254 0-6.320028 2.818773-6.320028 6.320026v54.682969c0 3.50125 2.818774 6.32002 6.320028 6.32002h5.791376c-3.501252 0-6.320026-2.81876-6.320026-6.32002v-54.682969c0-3.501253 2.818774-6.320026 6.320026-6.320026zm69.207662 18.450552a15.322645 15.322645 0 0 0 -1.223182 0.180351 15.322645 15.322645 0 0 1 1.223182 0.283705zm0 29.974397a15.322645 15.322645 0 0 1 -1.219566 0.274402 15.322645 15.322645 0 0 0 1.219566 0.18397z" fill="#9124a4"/>
    <path d="m-47.725797 114.45958c-3.501254 0-6.320028 2.81878-6.320028 6.32003v54.68349c0 3.50125 2.818774 6.31951 6.320028 6.31951h6.274035c-3.501253 0-6.320027-2.81826-6.320027-6.31951v-54.68349c0-3.50125 2.818774-6.32003 6.320027-6.32003z" fill="#283484"/>
    <path d="m27.801892 114.45958c-3.501252 0-6.320027 2.81878-6.320027 6.32003v12.30985c0.718851-0.10829 1.4445-0.16527 2.171443-0.17054 14.424408 0.76268 19.925696 29.98009 0 30.64568-0.727017-6e-3 -1.452666-0.0643-2.171443-0.17364v12.07162c0 3.50125 2.818775 6.32003 6.320027 6.32003h6.756175c-3.501249 0-6.320025-2.81878-6.320025-6.32003v-18.43371c0.718778 0.10932 1.444427 0.16735 2.171443 0.17364v-18.96446c-0.726942 5e-3 -1.452591 0.0623-2.171443 0.17053v-17.62897c0-3.50125 2.818776-6.32003 6.320025-6.32003z" fill="#e9af00"/>
   </g>
   <circle transform="rotate(90)" cx="278.63782" cy="59.002338" r="6.3077345" fill="#303f9f" stroke-width=".41166094"/>
   <rect x="-64.986031" y="238.77805" width="2.2326107" height="4.6369605" ry="1.1163054" fill="#cf70df" stroke-width=".41166094"/>
   <path d="m-61.584939 244.28726a6.3077346 6.3077346 0 0 0 -6.30792 6.30771 6.3077346 6.3077346 0 0 0 0.01021 0.29123 6.3077346 6.3077346 0 0 1 6.297709 -6.10221 6.3077346 6.3077346 0 0 1 1.688664 0.23698v-0.49673a6.3077346 6.3077346 0 0 0 -1.688663 -0.23698zm-29.403136 17.56313v0.49673c0 1.44133 1.160379 2.60171 2.601709 2.60171h25.888383c1.44133 0 2.601708-1.16038 2.601708-2.60171v-0.49673c0 1.44133-1.160378 2.60171-2.601708 2.60171h-25.888383c-1.44133 0-2.601709-1.16038-2.601709-2.60171z" fill="#60186d" stroke-width=".10891862"/>
   <g transform="translate(-100.88171,215.16259)" stroke-width=".41166094">
    <path d="m48.127103 63.433187a6.3077346 6.3077346 0 0 1 -6.297497 6.101358 6.3077346 6.3077346 0 0 1 -6.297283 -6.017968 6.3077346 6.3077346 0 0 0 -0.01042 0.206987 6.3077346 6.3077346 0 0 0 6.307707 6.307708 6.3077346 6.3077346 0 0 0 6.30792 -6.307708 6.3077346 6.3077346 0 0 0 -0.01042 -0.290377z" fill="#202a6a"/>
    <rect x="9.8936949" y="49.568413" width="31.091671" height="27.7143" ry="2.6016781" fill="#303f9f"/>
    <rect x="35.819973" y="52.945786" width="2.3840256" height="11.125453" ry="1.1920128" fill="#8591da"/>
    <path d="m31.736925 50.321042a6.3077343 6.3077343 0 0 1 -6.297496 6.101358 6.3077343 6.3077343 0 0 1 -6.297283 -6.017966 6.3077343 6.3077343 0 0 0 -0.01042 0.206988 6.3077343 6.3077343 0 0 0 6.307707 6.307707 6.3077343 6.3077343 0 0 0 6.30792 -6.307707 6.3077343 6.3077343 0 0 0 -0.01042 -0.29038z" fill="#60186d"/>
    <circle cx="25.439531" cy="50.114754" r="6.3077345" fill="#9c27b0"/>
   </g>
  </g>
 </g>
</svg>
