<?xml version="1.0" encoding="UTF-8"?>
<!-- Created with Inkscape (http://www.inkscape.org/) -->
<svg width="1003.6706" height="329.99997" version="1.1" viewBox="0 0 265.55451 87.312494" xmlns="http://www.w3.org/2000/svg" xmlns:cc="http://creativecommons.org/ns#" xmlns:dc="http://purl.org/dc/elements/1.1/" xmlns:rdf="http://www.w3.org/1999/02/22-rdf-syntax-ns#">
 <metadata>
  <rdf:RDF>
   <cc:Work rdf:about="">
    <dc:format>image/svg+xml</dc:format>
    <dc:type rdf:resource="http://purl.org/dc/dcmitype/StillImage"/>
    <dc:title/>
   </cc:Work>
  </rdf:RDF>
 </metadata>
 <g transform="matrix(.26615057 0 0 .26615057 103.13782 31.654535)">
  <path d="m515.53659 30.410665c-0.58865-2.442616-2.77545-4.16455-5.28821-4.16455h-13.19095c-2.51276 0-4.69818 1.720559-5.28821 4.163175l-40.22477 166.58475h104.21691z" fill="#ff7e40" stroke-width=".35208878"/>
  <path d="m558.06094 206.51557h-108.81469c-5.25795 0-9.52153-4.26358-9.52153-9.52153s4.26358-9.52153 9.52153-9.52153h108.81469c5.25795 0 9.52152 4.26358 9.52152 9.52153s-4.26357 9.52153-9.52152 9.52153z" fill="#f05434" stroke-width=".35208878"/>
  <path transform="scale(.26458334)" d="m1770.4297 480.31055-19.8633 82.25586h306.0078l-19.8633-82.25586z" fill="#fff9eb" stroke-width="1.86798668"/>
  <path transform="scale(.26458334)" d="m1810.1543 315.79492-19.8613 82.25h226.5527l-19.8594-82.25z" fill="#fff9eb" stroke-width="2.19487858"/>
  <rect transform="rotate(15)" x="489.7406" y="-93.973122" width="12.457863" height="41.526211" ry="6.2289314" fill="#ffbb9b"/>
 </g>
 <rect x=".11408447" y=".11408692" width="264.35516" height="87.084328" ry="3.035013" opacity="0" stroke-width=".22816895"/>
 <g transform="matrix(.64090763 0 0 .64090763 -192.41596 12.189191)">
  <path d="m307.28516 21.921853c-5.72188-5.722144-7.96555-13.9115274-6.39498-21.65270677 0.2802-1.17818962 1.12183-2.13174793 2.24367-2.46829803 1.23428-0.33655 2.41247-0.056092 3.30967 0.8411105l5.27315 5.2728814c0.78528 0.7852833 1.73884 1.1781896 2.86067 1.1781896h5.60943c1.06627 0.056092 2.01983-0.4487334 2.74902-1.1781896 0.7292-0.7294563 1.23429-1.6827501 1.17793-2.7484918v-5.6096959c0-1.1218334-0.39238-2.0756563-1.17793-2.8609397l-6.05843-6.0584297c-1.45864-1.458648-0.78528-3.926416 1.17819-4.431506 2.01957-0.560652 4.09496-0.841375 6.11426-0.841375 7.51681 2.65e-4 14.36053 3.366029 18.96057 9.424194 4.99243 6.5629897 5.72188 15.4826233 2.97286 23.27963l-0.44847 1.3462 56.2237 56.223695c11.77978-4.151048 20.58723-1.850761 27.15022 4.712229 4.99268 4.992688 7.92744 14.248078 6.1886 22.494347-0.50456 2.187573-3.14113 2.916763-4.7117 1.346203l-5.9645-5.890158c-0.72919-0.729456-1.73911-1.177925-2.80511-1.122098h-4.82415c-1.29011 0.05609-2.4683 0.561182-3.30941 1.402292-0.89773 0.897731-1.34938 2.075656-1.40573 3.3655l0.0558 4.768324c-0.0558 1.066 0.33998 2.07565 1.06944 2.80485l4.7117 4.7117c2.07566 2.07565 0.95356 5.66605-1.90738 6.17061-9.31175 1.68301-17.78185-2.07566-22.94282-8.91884-4.54395-6.00234-6.22643-14.3047-2.52438-24.626625l-56.22344-56.222637-2.41247 0.841375c-2.58021 0.897731-5.27261 1.3462-7.96501 1.3462-6.39525 0-12.34149-2.468298-16.773-6.89954z" fill="#999" stroke-width=".26458335"/>
  <path d="m427.4097-17.431479 7.18 7.316787c1.23428 1.2342817 1.51474 3.0855714 0.78528 4.6000464l-8.80718 17.6699336c-0.6731 1.3462-2.07566 2.187575-3.64596 2.187311h-8.7511l-47.0236 47.024397-6.50716-4.7117-6.56299-4.655873 48.87489-48.8754225 2.7e-4 -8.751094c0.0558-1.514475 0.89746-2.9167667 2.2434-3.5898668l17.66993-8.9437107c1.51474-0.729192 3.3663-0.448733 4.54422 0.729192z" fill="#b3b3b3" stroke-width=".26458335"/>
  <path d="m338.81873 51.213875-28.49642 21.316421c-11.94885 9.031552-13.18286 26.533476-2.6371 37.079234 10.60212 10.60212 28.10404 9.36837 37.0795-2.63683l21.37225-28.440596c1.17819-1.626658 1.00965-3.814498-0.39264-5.216789l-21.76515-21.765155c-1.40203-1.402027-3.58987-1.570302-5.16044-0.336285z" fill="#2196f3" stroke-width=".26458335"/>
  <path d="m374.50415 76.420465c-1.50734 1.507331-3.49065 2.379927-5.63272 2.379927-2.06269 0-4.12538-0.872596-5.63218-2.379927l-22.37132-22.371315c-3.09404-3.094038-3.09404-8.171392 0-11.265165 1.42796-1.507331 3.41127-2.300817 5.55281-2.300817 2.14233 0 4.12538 0.793486 5.63272 2.300817l11.2649 11.265165 11.18605 11.185525c3.09377 3.093773 3.09377 8.091752-2.6e-4 11.18579z" fill="#303f9f" stroke-width=".26458335"/>
  <rect transform="rotate(49.882775)" x="262.1954" y="-219.5067" width="5.1049566" height="29.130835" ry="2.5524783" fill="#a4d4fa"/>
  <rect transform="rotate(-40.651387)" x="227.63968" y="257.06543" width="7.1187792" height="13.051094" ry="3.5593896" fill="#97a1e0"/>
  <rect transform="rotate(60)" x="199.34509" y="-374.89703" width="5.3390841" height="17.203714" ry="2.6695421" fill="#e8e8e8"/>
  <path d="m325.0909-13.833487s13.94093 2.966158 14.53418 14.53417306" fill="none" stroke="#d6d6d6" stroke-linecap="round" stroke-linejoin="round" stroke-width="5.29166651"/>
 </g>
 <g transform="matrix(.70513935 0 0 .85000602 49.582572 -81.916103)" fill="#fff" stroke="#2196f3" stroke-width="1.02526296">
  <g style="font-feature-settings:normal;font-variant-caps:normal;font-variant-ligatures:normal;font-variant-numeric:normal" aria-label="under">
   <path d="m121.22653 111.8861 7.34495 1.43316q-3.66559 11.25857 1.0473 11.38259 5.59484-0.0413 3.23839-11.6582l6.72483-2.12218q3.08681 19.12717-9.96322 19.29253-13.18782-0.12402-8.39225-18.3279z" style="font-feature-settings:normal;font-variant-caps:normal;font-variant-ligatures:normal;font-variant-numeric:normal"/>
   <path d="m148.19474 120.56774 1.36426 7.89616-6.87641 1.7501-1.39182-18.09364 6.90397-1.19889 6.80751 9.01237 0.0827-9.01237 8.54384-0.88195-3.03169 20.17448-5.47081 0.79927z" style="font-feature-settings:normal;font-variant-caps:normal;font-variant-ligatures:normal;font-variant-numeric:normal"/>
   <path d="m165.21351 130.214-0.88194-19.29253q18.79644 0 18.79644 9.64627 0 9.64626-17.9145 9.64626zm4.90582-14.18001 0.92329 6.66971q5.9669 0.0276 5.9669-3.32108 0-3.34863-6.89019-3.34863z" style="font-feature-settings:normal;font-variant-caps:normal;font-variant-ligatures:normal;font-variant-numeric:normal"/>
   <path d="m198.4518 108.441 0.35829 7.3036-8.5714 0.92329 0.11024 1.66742 5.6224-0.52365 0.49609 4.9885-5.87044 0.42719 0.0965 1.35048 8.32335-0.6339 1.24024 6.27007-16.41244 0.565 1.66743-19.88509z" style="font-feature-settings:normal;font-variant-caps:normal;font-variant-ligatures:normal;font-variant-numeric:normal"/>
   <path d="m207.68465 115.469 0.19293 3.7207q6.89019 0 6.89019-1.37804t-7.08312-2.34266zm0.92329 13.62879-7.67568 1.07487 1.59853-20.57411q17.74913 1.32292 18.34169 7.11068 0.60633 5.77398-6.10471 7.99262l5.51215 2.99034-5.64996 5.00228-6.463-7.99262z" style="font-feature-settings:normal;font-variant-caps:normal;font-variant-ligatures:normal;font-variant-numeric:normal"/>
  </g>
  <g style="font-feature-settings:normal;font-variant-caps:normal;font-variant-ligatures:normal;font-variant-numeric:normal" aria-label="construction">
   <path d="m75.61586 156.5909q-3.26595 2.82498-7.882378 2.82498-4.616429 0-7.882379-2.82498-3.265951-2.82498-3.265951-6.82129t3.265951-6.82129q3.26595-2.82498 7.882379-2.82498 4.616428 0 7.882378 2.82498 1.639866 1.41938 2.466689 3.14193l-6.614584 1.66742q-0.330729-0.88194-1.157552-1.59852-1.405599-1.21267-3.376194-1.21267-1.970594 0-3.376193 1.21267t-1.405599 2.92144 1.405599 2.92144q1.405599 1.21268 3.376193 1.21268 1.970595 0 3.376194-1.21268 0.757921-0.66146 1.116211-1.48828l6.642144 2.93522q-0.813042 1.72255-2.452908 3.14193z" style="font-feature-settings:normal;font-variant-caps:normal;font-variant-ligatures:normal;font-variant-numeric:normal"/>
   <path d="m90.03014 159.41588q-4.65777 0-7.951281-2.82498-3.279731-2.82498-3.279731-6.82129t3.279731-6.82129q3.293511-2.82498 7.951281-2.82498 4.643989 0 7.92372 2.82498 3.29351 2.82498 3.29351 6.82129t-3.29351 6.82129q-3.279731 2.82498-7.92372 2.82498zm-0.771702-6.02203q1.984375 0 3.389974-1.21267 1.41938-1.21268 1.41938-2.92144 0-1.70877-1.41938-2.92144-1.405599-1.21268-3.389974-1.21268-1.998155 0-3.417535 1.21268-1.405599 1.21267-1.405599 2.92144 0 1.70876 1.405599 2.92144 1.41938 1.21267 3.417535 1.21267z" style="font-feature-settings:normal;font-variant-caps:normal;font-variant-ligatures:normal;font-variant-numeric:normal"/>
   <path d="m108.85414 149.76961 1.36426 7.89616-6.87641 1.75011-1.39182-18.09364 6.90397-1.1989 6.80751 9.01237 0.0827-9.01237 8.54383-0.88194-3.03168 20.17448-5.47081 0.79926z" style="font-feature-settings:normal;font-variant-caps:normal;font-variant-ligatures:normal;font-variant-numeric:normal"/>
   <path d="m129.13886 151.79533q-4.97471-0.7028-4.39594-6.18739 0.57878-5.4846 12.7882-6.49057l1.15755 6.22874q-6.04959-0.13781-6.49056 1.43316-0.44097 1.57096 4.63021 1.80523 5.07118 0.23426 4.96094 6.17361-0.11025 5.93934-13.35319 6.33897l-2.43913-6.51812q6.77995 0.73036 7.45518-0.67523 0.67524-1.41938-4.31326-2.1084z" style="font-feature-settings:normal;font-variant-caps:normal;font-variant-ligatures:normal;font-variant-numeric:normal"/>
   <path d="m151.02211 145.99379 0.67524 11.74088-7.46897 1.92926 1.28158-14.02843-5.63618-0.48232 0.44097-5.09874 16.16439-0.96463 0.59256 7.53787z" style="font-feature-settings:normal;font-variant-caps:normal;font-variant-ligatures:normal;font-variant-numeric:normal"/>
   <path d="m164.54066 144.67087 0.19293 3.7207q6.89019 0 6.89019-1.37804 0-1.37803-7.08312-2.34266zm0.92329 13.6288-7.67567 1.07487 1.59852-20.57411q17.74913 1.32291 18.34169 7.11067 0.60634 5.77398-6.10471 7.99263l5.51215 2.99034-5.64995 5.00228-6.463-7.99262z" style="font-feature-settings:normal;font-variant-caps:normal;font-variant-ligatures:normal;font-variant-numeric:normal"/>
   <path d="m180.44323 141.08797 7.34494 1.43316q-3.66558 11.25857 1.04731 11.3826 5.59483-0.0413 3.23839-11.65821l6.72482-2.12218q3.08681 19.12717-9.96321 19.29254-13.18783-0.12403-8.39225-18.32791z" style="font-feature-settings:normal;font-variant-caps:normal;font-variant-ligatures:normal;font-variant-numeric:normal"/>
   <path d="m219.53818 156.5909q-3.26595 2.82498-7.88238 2.82498t-7.88238-2.82498-3.26595-6.82129 3.26595-6.82129 7.88238-2.82498 7.88238 2.82498q1.63986 1.41938 2.46669 3.14193l-6.61459 1.66742q-0.33073-0.88194-1.15755-1.59852-1.4056-1.21267-3.37619-1.21267-1.9706 0-3.3762 1.21267t-1.4056 2.92144 1.4056 2.92144q1.4056 1.21268 3.3762 1.21268 1.97059 0 3.37619-1.21268 0.75792-0.66146 1.11621-1.48828l6.64215 2.93522q-0.81305 1.72255-2.45291 3.14193z" style="font-feature-settings:normal;font-variant-caps:normal;font-variant-ligatures:normal;font-variant-numeric:normal"/>
   <path d="m233.86977 145.99379 0.67524 11.74088-7.46897 1.92926 1.28158-14.02843-5.63618-0.48232 0.44098-5.09874 16.16438-0.96463 0.59256 7.53787z" style="font-feature-settings:normal;font-variant-caps:normal;font-variant-ligatures:normal;font-variant-numeric:normal"/>
   <path d="m247.03003 140.23359 1.4056 18.58973-7.7997 1.4745 0.35829-19.58192z" style="font-feature-settings:normal;font-variant-caps:normal;font-variant-ligatures:normal;font-variant-numeric:normal"/>
   <path d="m260.35567 159.41588q-4.65777 0-7.95128-2.82498-3.27973-2.82498-3.27973-6.82129t3.27973-6.82129q3.29351-2.82498 7.95128-2.82498 4.64399 0 7.92372 2.82498 3.29351 2.82498 3.29351 6.82129t-3.29351 6.82129q-3.27973 2.82498-7.92372 2.82498zm-0.7717-6.02203q1.98437 0 3.38997-1.21267 1.41938-1.21268 1.41938-2.92144 0-1.70877-1.41938-2.92144-1.4056-1.21268-3.38997-1.21268-1.99816 0-3.41754 1.21268-1.4056 1.21267-1.4056 2.92144 0 1.70876 1.4056 2.92144 1.41938 1.21267 3.41754 1.21267z" style="font-feature-settings:normal;font-variant-caps:normal;font-variant-ligatures:normal;font-variant-numeric:normal"/>
   <path d="m279.17968 149.76961 1.36425 7.89616-6.87641 1.75011-1.39182-18.09364 6.90398-1.1989 6.8075 9.01237 0.0827-9.01237 8.54383-0.88194-3.03168 20.17448-5.47081 0.79926z" style="font-feature-settings:normal;font-variant-caps:normal;font-variant-ligatures:normal;font-variant-numeric:normal"/>
  </g>
 </g>
</svg>
