<svg xmlns="http://www.w3.org/2000/svg" viewBox="0 0 270.93 135.47">
  <text x="250.28" y="-242.6" stroke-width=".26" font-family="sans-serif" font-size="10.58" font-weight="400" letter-spacing="0" style="line-height:1.25" word-spacing="0"/>
  <g transform="matrix(.90636 0 0 .90636 -190.59 737.85)">
    <g fill="#00c853" transform="translate(7.99 30.08) scale(1.09493)">
      <rect width="7.84" height="23.53" x="303.23" y="-746.43" ry="3.92"/>
      <rect width="7.84" height="23.53" x="-738.58" y="-318.92" ry="3.92" transform="rotate(90)"/>
    </g>
    <rect width="2.21" height="6.35" x="345.05" y="-785.14" fill="#c7ffde" ry="1.1"/>
  </g>
  <g transform="matrix(0 .88688 -.88688 0 -119.33 659.19)">
    <rect width="7.84" height="18.82" x="-712.05" y="-356.04" fill="#e91e63" ry="3.92"/>
    <rect width="7.84" height="18.82" x="-701.07" y="-356.04" fill="#e91e63" ry="3.92"/>
    <rect width="2.21" height="6.35" x="-710.76" y="-353.53" fill="#facedd" ry="1.1"/>
    <rect width="2.21" height="6.35" x="-699.77" y="-353.53" fill="#facedd" ry="1.1"/>
  </g>
  <g style="line-height:1.25;-inkscape-font-specification:'Funhouse, Normal';font-variant-ligatures:normal;font-variant-caps:normal;font-variant-numeric:normal;font-feature-settings:normal;text-align:start">
    <path fill="#fff" stroke="#00c853" stroke-width="1.06" d="M92.2 50.8l-13.72-5.76 9.32-13.52-9.92 1.3-2.77-9.53 26.65-2.15z" aria-label="7" font-family="Funhouse" font-size="42.33" font-weight="400" letter-spacing="0" style="-inkscape-font-specification:'Funhouse, Normal';font-variant-ligatures:normal;font-variant-caps:normal;font-variant-numeric:normal;font-feature-settings:normal;text-align:start" word-spacing="0"/>
  </g>
  <g style="line-height:1.25;-inkscape-font-specification:'Funhouse, Normal';font-variant-ligatures:normal;font-variant-caps:normal;font-variant-numeric:normal;font-feature-settings:normal;text-align:start">
    <path fill="#fff" stroke="#00c853" stroke-width="1.06" d="M159.64 50.8l-13.73-5.76 9.32-13.52-9.92 1.3-2.77-9.53 26.65-2.15z" aria-label="7" font-family="Funhouse" font-size="42.33" font-weight="400" letter-spacing="0" style="-inkscape-font-specification:'Funhouse, Normal';font-variant-ligatures:normal;font-variant-caps:normal;font-variant-numeric:normal;font-feature-settings:normal;text-align:start" word-spacing="0"/>
  </g>
  <g transform="translate(0 -160.13)">
    <rect width="204.93" height="55.37" x="32.96" y="234.54" fill="#fff" stroke="#00c853" stroke-linecap="round" stroke-linejoin="round" stroke-width="1.32" ry="5.23"/>
    <path fill="#fff" stroke="#00c853" stroke-linecap="round" stroke-linejoin="round" stroke-width="1.32" d="M216.2 220.71a5.18 5.18 0 0 0-5.14 5.25v8.58h21.6c2.9 0 5.23 2.34 5.23 5.23v36.51h26.8a5.18 5.18 0 0 0 5.15-5.24l-9.92-22.54 9.92-22.54c1.16-2.66-2.3-5.25-5.15-5.25z"/>
    <path fill="#00c853" d="M215.78 220.6c-2.15-.1-4.69 3.25-4.69 5.72v8.22h23.78c-.5-.4-1.06-.87-1.68-1.43-3.48-3.15-16.28-12.07-16.28-12.07a1.92 1.92 0 0 0-1.13-.44z"/>
    <g>
      <path fill="#fff" stroke="#00c853" stroke-linecap="round" stroke-linejoin="round" stroke-width="1.32" d="M6.24 220.71c-2.85 0-6.3 2.6-5.14 5.25L11 248.5 1.1 271.04c0 2.9 2.3 5.24 5.14 5.24h26.72v-36.51c0-2.9 2.33-5.23 5.23-5.23h21.68v-8.58c0-2.91-2.3-5.25-5.15-5.25z"/>
      <path fill="#00c853" d="M55.15 220.6c-.4.02-.78.16-1.13.44 0 0-12.8 8.92-16.27 12.07-.63.56-1.19 1.03-1.7 1.43h23.79v-8.22c0-2.47-2.54-5.82-4.69-5.72z"/>
    </g>
    <g fill="#00c853" stroke-width=".26" font-family="Funhouse" font-size="19.4" font-weight="400" letter-spacing="0" word-spacing="0">
      <g aria-label="1-digit number" style="line-height:1.25;-inkscape-font-specification:'Funhouse, Normal';font-variant-ligatures:normal;font-variant-caps:normal;font-variant-numeric:normal;font-feature-settings:normal;text-align:start">
        <path d="M58.26 257.54l-6.48-.28 1.1-8.95-2.24.9-.88-3.73 6.8-2.1zM67.98 248.5l-.74 4.8-8.63-.89-.44-3.27zM69.05 257.67l-.61-13.26q12.92 0 12.92 6.63t-12.31 6.63zm3.37-9.75l.63 4.59q4.1.02 4.1-2.29 0-2.3-4.73-2.3zM86.25 244.48l.97 12.78-5.36 1.02.24-13.47zM102.87 257.54l-5.4 1.36.1-1.5q-1.05.27-2.21.27-3.18 0-5.42-1.94-2.25-1.94-2.25-4.7 0-2.74 2.25-4.68 2.24-1.94 5.42-1.94 3.17 0 5.41 1.94 1.13.97 1.7 2.16l-4.55 1.14q-.22-.6-.8-1.1-.96-.83-2.31-.83-1.36 0-2.32.84-.97.83-.97 2 0 1.18.97 2.01.96.84 2.32.84 1.35 0 2.32-.84.52-.45.8-1l4.3-.2zM107.74 244.48l.96 12.78-5.36 1.02.25-13.47zM116.84 248.44l.47 8.07-5.14 1.33.88-9.64-3.87-.34.3-3.5 11.11-.66.41 5.18zM131.05 251.04l.94 5.43-4.73 1.2-.95-12.44 4.74-.82 4.68 6.2.06-6.2 5.87-.61-2.08 13.87-3.76.55z" style="-inkscape-font-specification:'Funhouse, Normal';font-variant-ligatures:normal;font-variant-caps:normal;font-variant-numeric:normal;font-feature-settings:normal;text-align:start"/>
        <path d="M142.8 245.07l5.04.98q-2.52 7.74.72 7.83 3.85-.03 2.23-8.01l4.62-1.46q2.12 13.15-6.85 13.26-9.06-.09-5.77-12.6z" style="-inkscape-font-specification:'Funhouse, Normal';font-variant-ligatures:normal;font-variant-caps:normal;font-variant-numeric:normal;font-feature-settings:normal;text-align:start"/>
        <path d="M171.44 244.4l.8 12.5-4.83.41-.26-6.4-.98 4.4-4.34.6-1.76-4.53.64 5.38-4.43.91.6-13.26 4.36-.58 2.4 7.58 2.92-7.35zM176.4 249.06q2.93-.55 2.88-1.67-.06-1.12-3-.35zm.45 5.63q4.3-.18 4.3-1.5.02-1.33-4.44-1.27zm-4.12 2.98l.35-12.27q6.77-2.76 9.31-.26 2.54 2.49-.64 5.02 4.83 1.48 3.12 4.86-1.7 3.36-12.14 2.65z" style="-inkscape-font-specification:'Funhouse, Normal';font-variant-ligatures:normal;font-variant-caps:normal;font-variant-numeric:normal;font-feature-settings:normal;text-align:start"/>
        <path d="M195.96 242.7l.25 5.02-5.9.64.08 1.14 3.86-.36.35 3.43-4.04.3.07.92 5.72-.43.85 4.31-11.28.39 1.14-13.67zM202.3 247.53l.14 2.56q4.74 0 4.74-.95 0-.94-4.87-1.6zm.64 9.37l-5.27.74 1.1-14.14q12.2.9 12.6 4.89.42 3.96-4.2 5.49l3.8 2.06-3.89 3.44-4.44-5.5z" style="-inkscape-font-specification:'Funhouse, Normal';font-variant-ligatures:normal;font-variant-caps:normal;font-variant-numeric:normal;font-feature-settings:normal;text-align:start"/>
      </g>
      <g aria-label="plus 7" style="line-height:1.25;-inkscape-font-specification:'Funhouse, Normal';font-variant-ligatures:normal;font-variant-caps:normal;font-variant-numeric:normal;font-feature-settings:normal;text-align:start">
        <path d="M102.36 276.78l.77 2.83-4.94.99-.94-12.69q12.62-2.03 13.25 4.16 0 4.74-8.14 4.71zm-1.3-5.6l.54 1.84q5.11 0 4.81-1.35-.3-1.34-5.34-.5zM111.62 267.15l4.67.24-1.53 9.42 4.75-.74-1.05 5.05-7.5-.52z" style="-inkscape-font-specification:'Funhouse, Normal';font-variant-ligatures:normal;font-variant-caps:normal;font-variant-numeric:normal;font-feature-settings:normal;text-align:start"/>
        <path d="M120.9 268l5.05.98q-2.52 7.74.72 7.83 3.84-.03 2.22-8.02l4.63-1.45q2.12 13.15-6.85 13.26-9.07-.09-5.77-12.6z" style="-inkscape-font-specification:'Funhouse, Normal';font-variant-ligatures:normal;font-variant-caps:normal;font-variant-numeric:normal;font-feature-settings:normal;text-align:start"/>
        <path d="M137.8 275.36q-3.41-.48-3.02-4.25.4-3.77 8.8-4.47l.8 4.29q-4.17-.1-4.47.98-.3 1.08 3.18 1.24 3.49.16 3.41 4.25-.07 4.08-9.18 4.35l-1.67-4.48q4.66.5 5.12-.46.47-.98-2.96-1.45zM159.7 279.95l-6.3-2.65 4.27-6.2-4.54.6-1.27-4.36 12.2-.99z" style="-inkscape-font-specification:'Funhouse, Normal';font-variant-ligatures:normal;font-variant-caps:normal;font-variant-numeric:normal;font-feature-settings:normal;text-align:start"/>
      </g>
    </g>
  </g>
</svg>
