<svg xmlns="http://www.w3.org/2000/svg" viewBox="0 0 270.93 135.47">
  <text x="-319.2" y="-82.47" stroke-width=".26" font-family="sans-serif" font-size="10.58" font-weight="400" letter-spacing="0" style="line-height:1.25" word-spacing="0"/>
  <g style="line-height:1.25;-inkscape-font-specification:'Funhouse, Normal';font-variant-ligatures:normal;font-variant-caps:normal;font-variant-numeric:normal;font-feature-settings:normal;text-align:start">
    <path fill="#fff" stroke="#00c853" stroke-width="1.06" d="M85.02 21.64L74.48 42.2l11.8 1.55-1.67 9.92 12.21-1.5-.35-7.01 4.49.47 1.67-9.05-6.4-.17V21.1zm-1.14 13.92l2.38-5.65 2.46.25-1.01 5.75z" aria-label="4" font-family="Funhouse" font-size="42.33" font-weight="400" letter-spacing="0" style="-inkscape-font-specification:'Funhouse, Normal';font-variant-ligatures:normal;font-variant-caps:normal;font-variant-numeric:normal;font-feature-settings:normal;text-align:start" word-spacing="0"/>
  </g>
  <g transform="matrix(0 .88688 -.88688 0 -118.57 660.57)">
    <rect width="7.84" height="18.82" x="-712.05" y="-356.04" fill="#e91e63" ry="3.92"/>
    <rect width="7.84" height="18.82" x="-701.07" y="-356.04" fill="#e91e63" ry="3.92"/>
    <rect width="2.21" height="6.35" x="-710.76" y="-353.53" fill="#facedd" ry="1.1"/>
    <rect width="2.21" height="6.35" x="-699.77" y="-353.53" fill="#facedd" ry="1.1"/>
  </g>
  <g style="line-height:1.25;-inkscape-font-specification:'Funhouse, Normal';font-variant-ligatures:normal;font-variant-caps:normal;font-variant-numeric:normal;font-feature-settings:normal;text-align:start">
    <path fill="#fff" stroke="#00c853" stroke-width="1.06" d="M153.2 21.64L142.68 42.2l11.8 1.55-1.68 9.92 12.22-1.5-.35-7.01 4.49.47 1.67-9.05-6.4-.17V21.1zm-1.13 13.92l2.38-5.65 2.46.25-1.01 5.75z" aria-label="4" font-family="Funhouse" font-size="42.33" font-weight="400" letter-spacing="0" style="-inkscape-font-specification:'Funhouse, Normal';font-variant-ligatures:normal;font-variant-caps:normal;font-variant-numeric:normal;font-feature-settings:normal;text-align:start" word-spacing="0"/>
  </g>
  <g transform="matrix(.90636 0 0 .90636 -189.38 739.93)">
    <g fill="#00c853" transform="translate(7.99 30.08) scale(1.09493)">
      <rect width="7.84" height="23.53" x="303.23" y="-746.43" ry="3.92"/>
      <rect width="7.84" height="23.53" x="-738.58" y="-318.92" ry="3.92" transform="rotate(90)"/>
    </g>
    <rect width="2.21" height="6.35" x="345.05" y="-785.14" fill="#c7ffde" ry="1.1"/>
  </g>
  <g>
    <g transform="translate(.21)">
      <path fill="#fff" stroke="#00c853" stroke-linecap="round" stroke-linejoin="round" stroke-width="1.32" d="M216.2 60.58a5.18 5.18 0 0 0-5.14 5.25v8.59h21.6c2.9 0 5.23 2.33 5.23 5.22v36.52h26.8a5.18 5.18 0 0 0 5.15-5.25l-9.92-22.54 9.92-22.54c1.16-2.65-2.3-5.25-5.15-5.25z"/>
      <path fill="#00c853" d="M215.78 60.48c-2.15-.1-4.69 3.24-4.69 5.7v8.24h23.78c-.5-.4-1.06-.87-1.68-1.44-3.48-3.15-16.28-12.06-16.28-12.06a1.92 1.92 0 0 0-1.13-.44z"/>
      <g>
        <path fill="#fff" stroke="#00c853" stroke-linecap="round" stroke-linejoin="round" stroke-width="1.32" d="M6.24 60.58c-2.85 0-6.3 2.6-5.14 5.25L11 88.37 1.1 110.91c0 2.9 2.3 5.25 5.14 5.25h26.72V79.64c0-2.9 2.33-5.22 5.23-5.22h21.68v-8.6c0-2.9-2.3-5.24-5.15-5.24z"/>
        <path fill="#00c853" d="M55.15 60.48c-.4.02-.78.15-1.13.44 0 0-12.8 8.91-16.27 12.06-.63.57-1.19 1.03-1.7 1.44h23.79v-8.23c0-2.47-2.54-5.81-4.69-5.71z"/>
      </g>
      <rect width="204.93" height="55.37" x="32.96" y="74.42" fill="#fff" stroke="#00c853" stroke-linecap="round" stroke-linejoin="round" stroke-width="1.32" ry="5.23"/>
    </g>
    <g fill="#00c853" stroke-width=".26" font-family="Funhouse" font-size="19.4" font-weight="400" letter-spacing="0" word-spacing="0">
      <g aria-label="1-digit number" style="line-height:1.25;-inkscape-font-specification:'Funhouse, Normal';font-variant-ligatures:normal;font-variant-caps:normal;font-variant-numeric:normal;font-feature-settings:normal;text-align:start">
        <path d="M63.36 97.19l-6.48-.28 1.09-8.95-2.24.9-.88-3.73 6.81-2.1zM73.07 88.16l-.74 4.78-8.63-.88-.44-3.27zM74.14 97.32l-.6-13.26q12.92 0 12.92 6.63t-12.32 6.63zm3.37-9.75l.64 4.59q4.1.01 4.1-2.29t-4.74-2.3zM91.35 84.13l.96 12.78-5.36 1.02.25-13.47zM107.96 97.19l-5.39 1.36.1-1.5q-1.05.27-2.22.27-3.17 0-5.42-1.94-2.24-1.95-2.24-4.7 0-2.74 2.24-4.68 2.25-1.94 5.42-1.94t5.42 1.94q1.13.97 1.7 2.16l-4.55 1.14q-.23-.6-.8-1.1-.96-.83-2.32-.83-1.35 0-2.32.84-.97.83-.97 2 0 1.18.97 2.01.97.84 2.32.84 1.36 0 2.32-.84.52-.45.8-1l4.3-.2zM112.83 84.13l.97 12.78-5.36 1.02.24-13.47zM121.94 88.1l.46 8.06-5.13 1.33.88-9.64-3.88-.34.3-3.5 11.12-.66.4 5.18zM136.15 90.69l.94 5.43-4.73 1.2-.96-12.44 4.75-.82 4.68 6.2.06-6.2 5.87-.61-2.08 13.87-3.77.55z" style="-inkscape-font-specification:'Funhouse, Normal';font-variant-ligatures:normal;font-variant-caps:normal;font-variant-numeric:normal;font-feature-settings:normal;text-align:start"/>
        <path d="M147.89 84.72l5.05.98q-2.52 7.74.72 7.83 3.84-.03 2.22-8.02l4.63-1.45q2.12 13.15-6.85 13.26-9.07-.09-5.77-12.6z" style="-inkscape-font-specification:'Funhouse, Normal';font-variant-ligatures:normal;font-variant-caps:normal;font-variant-numeric:normal;font-feature-settings:normal;text-align:start"/>
        <path d="M176.54 84.06l.8 12.5-4.84.4-.26-6.4-.97 4.4-4.34.6-1.76-4.53.63 5.38-4.42.9.6-13.25 4.35-.58 2.4 7.58 2.93-7.35zM181.5 88.7q2.93-.54 2.87-1.66-.06-1.12-3-.35zm.45 5.63q4.29-.17 4.3-1.5.02-1.32-4.45-1.26zm-4.13 2.99l.36-12.27q6.77-2.76 9.3-.26 2.55 2.49-.64 5.02 4.84 1.48 3.12 4.86-1.7 3.36-12.14 2.65z" style="-inkscape-font-specification:'Funhouse, Normal';font-variant-ligatures:normal;font-variant-caps:normal;font-variant-numeric:normal;font-feature-settings:normal;text-align:start"/>
        <path d="M201.05 82.35l.25 5.02-5.9.64.08 1.14 3.87-.36.34 3.43-4.04.3.07.92 5.72-.43.86 4.3-11.29.4 1.15-13.67zM207.4 87.18l.14 2.56q4.73 0 4.73-.95 0-.94-4.87-1.6zm.64 9.37l-5.28.74 1.1-14.14q12.2.9 12.6 4.88.43 3.97-4.19 5.5l3.8 2.06-3.9 3.43-4.44-5.49z" style="-inkscape-font-specification:'Funhouse, Normal';font-variant-ligatures:normal;font-variant-caps:normal;font-variant-numeric:normal;font-feature-settings:normal;text-align:start"/>
      </g>
      <g aria-label="plus 4" style="line-height:1.25;-inkscape-font-specification:'Funhouse, Normal';font-variant-ligatures:normal;font-variant-caps:normal;font-variant-numeric:normal;font-feature-settings:normal;text-align:start">
        <path d="M107.04 116.78l.77 2.84-4.95.98-.94-12.68q12.62-2.04 13.26 4.15 0 4.74-8.14 4.71zm-1.3-5.6l.53 1.84q5.12 0 4.81-1.34-.3-1.35-5.34-.5zM116.3 107.15l4.66.24-1.53 9.42 4.76-.74-1.06 5.05-7.49-.52z" style="-inkscape-font-specification:'Funhouse, Normal';font-variant-ligatures:normal;font-variant-caps:normal;font-variant-numeric:normal;font-feature-settings:normal;text-align:start"/>
        <path d="M125.57 108l5.05.99q-2.52 7.74.72 7.82 3.85-.03 2.23-8.01l4.62-1.46q2.12 13.15-6.85 13.26-9.07-.08-5.77-12.6z" style="-inkscape-font-specification:'Funhouse, Normal';font-variant-ligatures:normal;font-variant-caps:normal;font-variant-numeric:normal;font-feature-settings:normal;text-align:start"/>
        <path d="M142.48 115.36q-3.42-.48-3.02-4.25.4-3.77 8.79-4.46l.8 4.28q-4.16-.1-4.47.98-.3 1.08 3.19 1.24 3.48.17 3.4 4.25-.07 4.08-9.17 4.36l-1.68-4.48q4.66.5 5.13-.47.46-.97-2.97-1.45zM161.36 106.29l-4.83 9.41 5.41.71-.77 4.55 5.6-.7-.16-3.2 2.06.22.76-4.15-2.93-.08v-7.01zm-.52 6.37l1.09-2.58 1.13.1-.47 2.64z" style="-inkscape-font-specification:'Funhouse, Normal';font-variant-ligatures:normal;font-variant-caps:normal;font-variant-numeric:normal;font-feature-settings:normal;text-align:start"/>
      </g>
    </g>
  </g>
</svg>
