<svg xmlns="http://www.w3.org/2000/svg" viewBox="0 0 270.93 135.47">
  <text x="544.96" y="-82.47" stroke-width=".26" font-family="sans-serif" font-size="10.58" font-weight="400" letter-spacing="0" style="line-height:1.25" word-spacing="0"/>
  <g>
    <path fill="#fff" stroke="#00c853" stroke-linecap="round" stroke-linejoin="round" stroke-width="1.32" d="M216.2 60.58a5.18 5.18 0 0 0-5.14 5.25v8.59h21.6c2.9 0 5.23 2.33 5.23 5.22v36.52h26.8a5.18 5.18 0 0 0 5.15-5.25l-9.92-22.54 9.92-22.54c1.16-2.65-2.3-5.25-5.15-5.25z"/>
    <path fill="#00c853" d="M215.78 60.48c-2.15-.1-4.69 3.24-4.69 5.7v8.24h23.78c-.5-.4-1.06-.87-1.68-1.44-3.48-3.15-16.28-12.06-16.28-12.06a1.92 1.92 0 0 0-1.13-.44z"/>
    <g>
      <path fill="#fff" stroke="#00c853" stroke-linecap="round" stroke-linejoin="round" stroke-width="1.32" d="M6.24 60.58c-2.85 0-6.3 2.6-5.14 5.25L11 88.37 1.1 110.91c0 2.9 2.3 5.25 5.14 5.25h26.72V79.64c0-2.9 2.33-5.22 5.23-5.22h21.68v-8.6c0-2.9-2.3-5.24-5.15-5.24z"/>
      <path fill="#00c853" d="M55.15 60.48c-.4.02-.78.15-1.13.44 0 0-12.8 8.91-16.27 12.06-.63.57-1.19 1.03-1.7 1.44h23.79v-8.23c0-2.47-2.54-5.81-4.69-5.71z"/>
    </g>
    <rect width="204.93" height="55.37" x="32.96" y="74.42" fill="#fff" stroke="#00c853" stroke-linecap="round" stroke-linejoin="round" stroke-width="1.32" ry="5.23"/>
  </g>
  <g fill="#00c853" stroke-width=".26" font-family="Funhouse" font-size="19.4" font-weight="400" letter-spacing="0" word-spacing="0">
    <g aria-label="1-digit additions" style="line-height:1.25;-inkscape-font-specification:'Funhouse, Normal';font-variant-ligatures:normal;font-variant-caps:normal;font-variant-numeric:normal;font-feature-settings:normal;text-align:start">
      <path d="M51.47 97.19L45 96.9l1.1-8.95-2.24.9-.88-3.73 6.8-2.1zM61.18 88.16l-.73 4.78-8.63-.88-.44-3.27zM62.26 97.32l-.61-13.26q12.92 0 12.92 6.63t-12.31 6.63zm3.37-9.75l.63 4.59q4.1.01 4.1-2.29t-4.73-2.3zM79.46 84.13l.97 12.78-5.37 1.02.25-13.47zM96.08 97.19l-5.4 1.36.1-1.5q-1.05.27-2.22.27-3.17 0-5.41-1.94-2.25-1.95-2.25-4.7 0-2.74 2.25-4.68 2.24-1.94 5.41-1.94 3.18 0 5.42 1.94 1.13.97 1.7 2.16l-4.55 1.14q-.23-.6-.8-1.1-.96-.83-2.31-.83-1.36 0-2.33.84-.96.83-.96 2 0 1.18.96 2.01.97.84 2.33.84 1.35 0 2.32-.84.52-.45.8-1l4.3-.2zM100.95 84.13l.96 12.78-5.36 1.02.25-13.47zM110.05 88.1l.47 8.06-5.14 1.33.88-9.64-3.87-.34.3-3.5 11.11-.66.41 5.18zM123.91 95.42l-.66 1.9-3.73-2.26 4.68-11 3.56-.25 5.6 11.4-4.43 2.1-.97-2.65zm3.24-4.15l-1.06-3.42-1.25 3.78zM134.45 97.32l-.6-13.26q12.91 0 12.91 6.63t-12.31 6.63zm3.37-9.75l.63 4.59q4.1.01 4.1-2.29t-4.73-2.3zM147.86 97.32l-.6-13.26q12.92 0 12.92 6.63t-12.32 6.63zm3.38-9.75l.63 4.59q4.1.01 4.1-2.29t-4.73-2.3zM165.07 84.13l.96 12.78-5.36 1.02.25-13.47zM174.17 88.1l.47 8.06-5.14 1.33.88-9.64-3.87-.34.3-3.5 11.11-.66.41 5.18zM183.22 84.13l.97 12.78-5.37 1.02.25-13.47zM192.38 97.32q-3.2 0-5.47-1.94-2.25-1.95-2.25-4.7 0-2.74 2.25-4.68 2.27-1.94 5.47-1.94 3.2 0 5.45 1.94 2.26 1.94 2.26 4.69 0 2.74-2.26 4.69-2.26 1.94-5.45 1.94zm-.53-4.14q1.36 0 2.33-.83.98-.84.98-2.01 0-1.18-.98-2.01-.97-.84-2.33-.84-1.37 0-2.35.84-.97.83-.97 2 0 1.18.97 2.02.98.83 2.35.83zM205.32 90.69l.94 5.43-4.73 1.2-.95-12.44 4.74-.82 4.68 6.2.06-6.2 5.87-.61-2.08 13.87-3.76.55zM219.27 92.08q-3.42-.48-3.02-4.25.4-3.77 8.79-4.47l.8 4.29q-4.17-.1-4.47.98-.3 1.08 3.18 1.24 3.5.16 3.42 4.25-.08 4.08-9.18 4.36l-1.68-4.49q4.66.5 5.12-.46.47-.98-2.96-1.45z" style="-inkscape-font-specification:'Funhouse, Normal';font-variant-ligatures:normal;font-variant-caps:normal;font-variant-numeric:normal;font-feature-settings:normal;text-align:start"/>
    </g>
    <g aria-label="doubles" style="line-height:1.25;-inkscape-font-specification:'Funhouse, Normal';font-variant-ligatures:normal;font-variant-caps:normal;font-variant-numeric:normal;font-feature-settings:normal;text-align:start">
      <path d="M91.36 120.6l-.6-13.26q12.92 0 12.92 6.63t-12.32 6.63zm3.37-9.75l.64 4.59q4.1.02 4.1-2.29 0-2.3-4.74-2.3zM111.89 120.6q-3.2 0-5.47-1.94-2.25-1.94-2.25-4.7 0-2.74 2.25-4.68 2.27-1.94 5.47-1.94 3.2 0 5.45 1.94 2.26 1.94 2.26 4.69 0 2.75-2.26 4.69-2.26 1.94-5.45 1.94zm-.53-4.14q1.36 0 2.33-.83.98-.84.98-2.01 0-1.18-.98-2.01-.97-.83-2.33-.83-1.37 0-2.35.83-.97.83-.97 2 0 1.18.97 2.02.98.83 2.35.83z" style="-inkscape-font-specification:'Funhouse, Normal';font-variant-ligatures:normal;font-variant-caps:normal;font-variant-numeric:normal;font-feature-settings:normal;text-align:start"/>
      <path d="M121.26 108l5.05.99q-2.52 7.74.72 7.82 3.85-.03 2.23-8.01l4.62-1.46q2.12 13.15-6.85 13.26-9.07-.08-5.77-12.6z" style="-inkscape-font-specification:'Funhouse, Normal';font-variant-ligatures:normal;font-variant-caps:normal;font-variant-numeric:normal;font-feature-settings:normal;text-align:start"/>
      <path d="M138.72 111.99q2.94-.55 2.88-1.67-.06-1.12-3-.35zm.45 5.63q4.3-.17 4.3-1.5.03-1.33-4.44-1.27zm-4.12 2.98l.35-12.27q6.78-2.75 9.32-.26t-.65 5.02q4.83 1.49 3.12 4.86-1.7 3.36-12.14 2.65z" style="-inkscape-font-specification:'Funhouse, Normal';font-variant-ligatures:normal;font-variant-caps:normal;font-variant-numeric:normal;font-feature-settings:normal;text-align:start"/>
      <path d="M148.9 107.15l4.67.24-1.54 9.42 4.76-.74-1.05 5.05-7.5-.52zM167.3 105.63l.25 5.02-5.9.64.08 1.14 3.87-.36.34 3.43-4.04.3.07.93 5.72-.44.85 4.31-11.28.39 1.15-13.67z" style="-inkscape-font-specification:'Funhouse, Normal';font-variant-ligatures:normal;font-variant-caps:normal;font-variant-numeric:normal;font-feature-settings:normal;text-align:start"/>
      <path d="M171.48 115.36q-3.42-.48-3.02-4.25.4-3.77 8.8-4.46l.79 4.28q-4.16-.1-4.47.98-.3 1.08 3.19 1.24 3.48.17 3.4 4.25-.07 4.08-9.17 4.36l-1.68-4.48q4.66.5 5.13-.47.46-.97-2.97-1.45z" style="-inkscape-font-specification:'Funhouse, Normal';font-variant-ligatures:normal;font-variant-caps:normal;font-variant-numeric:normal;font-feature-settings:normal;text-align:start"/>
    </g>
  </g>
  <g>
    <path fill="#fff" stroke="#00c853" stroke-width=".8517100000000001" d="M102.34 26.32q-6 .83-4.95 4l8.76-.64 1.97 9.53-20.88-2.16q-.26-14.31 5.85-14.6 6.11-.28 5.58-2.17-.53-1.9-7.82-1.73l1.4-7.5q14.71 1.2 15.4 7.82.7 6.6-5.3 7.45z" font-family="Funhouse" font-size="42.33" font-weight="400" letter-spacing="0" style="line-height:1.25;-inkscape-font-specification:'Funhouse, Normal';font-variant-ligatures:normal;font-variant-caps:normal;font-variant-numeric:normal;font-feature-settings:normal;text-align:start" word-spacing="0"/>
    <g transform="matrix(0 .7126 -.7126 0 -69.59 525.85)">
      <rect width="7.84" height="18.82" x="-712.05" y="-356.04" fill="#e91e63" ry="3.92"/>
      <rect width="7.84" height="18.82" x="-701.07" y="-356.04" fill="#e91e63" ry="3.92"/>
      <rect width="2.21" height="6.35" x="-710.76" y="-353.53" fill="#facedd" ry="1.1"/>
      <rect width="2.21" height="6.35" x="-699.77" y="-353.53" fill="#facedd" ry="1.1"/>
    </g>
    <path fill="#fff" stroke="#00c853" stroke-width=".8517100000000001" d="M156.16 26.32q-6 .83-4.94 4l8.75-.64 1.97 9.53-20.87-2.16q-.27-14.31 5.84-14.6 6.12-.28 5.58-2.17-.53-1.9-7.82-1.73l1.4-7.5q14.71 1.2 15.41 7.82.7 6.6-5.32 7.45z" font-family="Funhouse" font-size="42.33" font-weight="400" letter-spacing="0" style="line-height:1.25;-inkscape-font-specification:'Funhouse, Normal';font-variant-ligatures:normal;font-variant-caps:normal;font-variant-numeric:normal;font-feature-settings:normal;text-align:start" word-spacing="0"/>
    <g transform="translate(-126.1 588.6) scale(.72826)">
      <g fill="#00c853" transform="translate(7.99 30.08) scale(1.09493)">
        <rect width="7.84" height="23.53" x="303.23" y="-746.43" ry="3.92"/>
        <rect width="7.84" height="23.53" x="-738.58" y="-318.92" ry="3.92" transform="rotate(90)"/>
      </g>
      <rect width="2.21" height="6.35" x="345.05" y="-785.14" fill="#c7ffde" ry="1.1"/>
    </g>
    <g>
      <g transform="translate(-140.95 652.36) scale(.77122)">
        <g fill="#00c853" transform="translate(7.99 30.08) scale(1.09493)">
          <rect width="7.84" height="23.53" x="303.23" y="-746.43" ry="3.92"/>
          <rect width="7.84" height="23.53" x="-738.58" y="-318.92" ry="3.92" transform="rotate(90)"/>
        </g>
        <rect width="2.21" height="6.35" x="345.05" y="-785.14" fill="#c7ffde" ry="1.1"/>
      </g>
      <g transform="matrix(0 .75464 -.75464 0 -81.32 584.75)">
        <rect width="7.84" height="18.82" x="-712.05" y="-356.04" fill="#e91e63" ry="3.92"/>
        <rect width="7.84" height="18.82" x="-701.07" y="-356.04" fill="#e91e63" ry="3.92"/>
        <rect width="2.21" height="6.35" x="-710.76" y="-353.53" fill="#facedd" ry="1.1"/>
        <rect width="2.21" height="6.35" x="-699.77" y="-353.53" fill="#facedd" ry="1.1"/>
      </g>
      <g style="line-height:1.25;-inkscape-font-specification:'Funhouse, Normal';font-variant-ligatures:normal;font-variant-caps:normal;font-variant-numeric:normal;font-feature-settings:normal;text-align:start">
        <path fill="#fff" stroke="#00c853" stroke-width=".901954" d="M97.2 42.47q13.68.14 8.23 24l-10.1-1.77 3.2-6.35q-13.98 2.9-14.49-6.56-.5-9.48 13.16-9.32zm-1.13 6.87q-3.1 0-3.1 2.12 0 2.1 3.1 2.1 3.12 0 3.12-2.1 0-2.12-3.12-2.12z" aria-label="9" font-family="Funhouse" font-size="42.33" font-weight="400" letter-spacing="0" style="-inkscape-font-specification:'Funhouse, Normal';font-variant-ligatures:normal;font-variant-caps:normal;font-variant-numeric:normal;font-feature-settings:normal;text-align:start" word-spacing="0"/>
      </g>
      <g style="line-height:1.25;-inkscape-font-specification:'Funhouse, Normal';font-variant-ligatures:normal;font-variant-caps:normal;font-variant-numeric:normal;font-feature-settings:normal;text-align:start">
        <path fill="#fff" stroke="#00c853" stroke-width=".901954" d="M154.56 42.47q13.68.14 8.23 24l-10.1-1.77 3.2-6.35q-13.98 2.9-14.49-6.56-.5-9.48 13.16-9.32zm-1.13 6.87q-3.1 0-3.1 2.12 0 2.1 3.1 2.1 3.12 0 3.12-2.1 0-2.12-3.12-2.12z" aria-label="9" font-family="Funhouse" font-size="42.33" font-weight="400" letter-spacing="0" style="-inkscape-font-specification:'Funhouse, Normal';font-variant-ligatures:normal;font-variant-caps:normal;font-variant-numeric:normal;font-feature-settings:normal;text-align:start" word-spacing="0"/>
      </g>
    </g>
  </g>
</svg>
