<svg xmlns="http://www.w3.org/2000/svg" viewBox="0 0 270.93 135.47">
  <path fill="#fff" stroke="#00c853" stroke-linecap="round" stroke-linejoin="round" stroke-width="1.32" d="M216.2 60.58a5.18 5.18 0 0 0-5.14 5.25v8.59h21.6c2.9 0 5.23 2.33 5.23 5.22v36.52h26.8a5.18 5.18 0 0 0 5.15-5.25l-9.92-22.54 9.92-22.54c1.16-2.65-2.3-5.25-5.15-5.25z"/>
  <path fill="#00c853" d="M215.78 60.48c-2.15-.1-4.69 3.24-4.69 5.7v8.24h23.78c-.5-.4-1.06-.87-1.68-1.44-3.48-3.15-16.28-12.06-16.28-12.06a1.92 1.92 0 0 0-1.13-.44z"/>
  <g>
    <path fill="#fff" stroke="#00c853" stroke-linecap="round" stroke-linejoin="round" stroke-width="1.32" d="M6.24 60.58c-2.85 0-6.3 2.6-5.14 5.25L11 88.37 1.1 110.91c0 2.9 2.3 5.25 5.14 5.25h26.72V79.64c0-2.9 2.33-5.22 5.23-5.22h21.68v-8.6c0-2.9-2.3-5.24-5.15-5.24z"/>
    <path fill="#00c853" d="M55.15 60.48c-.4.02-.78.15-1.13.44 0 0-12.8 8.91-16.27 12.06-.63.57-1.19 1.03-1.7 1.44h23.79v-8.23c0-2.47-2.54-5.81-4.69-5.71z"/>
  </g>
  <rect width="204.93" height="55.37" x="32.96" y="74.42" fill="#fff" stroke="#00c853" stroke-linecap="round" stroke-linejoin="round" stroke-width="1.32" ry="5.23"/>
  <g fill="#00c853" stroke-width=".39" font-family="Funhouse" font-size="21.17" font-weight="400" letter-spacing="0" word-spacing="0">
    <g aria-label="additions" style="line-height:1.25;-inkscape-font-specification:'Funhouse, Normal';font-variant-ligatures:normal;font-variant-caps:normal;font-variant-numeric:normal;font-feature-settings:normal;text-align:start">
      <path d="M81 118.47l-.7 2.04-4.03-2.43 5.05-11.87 3.84-.26 6.03 12.28-4.77 2.28-1.05-2.87zm3.5-4.48l-1.14-3.7-1.35 4.1zM92.37 120.51l-.66-14.3q13.93 0 13.93 7.15t-13.27 7.15zm3.63-10.5l.69 4.93q4.42.03 4.42-2.46 0-2.48-5.1-2.48zM106.83 120.51l-.66-14.3q13.93 0 13.93 7.15t-13.27 7.15zm3.63-10.5l.69 4.93q4.42.03 4.42-2.46 0-2.48-5.1-2.48zM125.37 106.3l1.05 13.77-5.78 1.1.26-14.52zM135.19 110.56l.5 8.7-5.54 1.43.95-10.4-4.17-.35.32-3.78 11.98-.71.44 5.58zM144.94 106.3l1.04 13.77-5.78 1.1.27-14.52zM154.82 120.51q-3.45 0-5.9-2.1-2.43-2.09-2.43-5.05t2.43-5.05q2.45-2.1 5.9-2.1 3.44 0 5.87 2.1 2.44 2.09 2.44 5.05t-2.44 5.06q-2.43 2.1-5.87 2.1zm-.57-4.46q1.47 0 2.5-.9 1.06-.9 1.06-2.17 0-1.26-1.05-2.16-1.04-.9-2.51-.9-1.49 0-2.54.9-1.04.9-1.04 2.16 0 1.27 1.04 2.17 1.05.9 2.54.9zM168.77 113.36l1 5.85-5.09 1.3-1.03-13.4 5.12-.9 5.04 6.68.06-6.68 6.34-.65-2.25 14.95-4.05.6zM183.8 114.86q-3.69-.52-3.26-4.58.43-4.07 9.48-4.81l.86 4.61q-4.48-.1-4.81 1.07-.33 1.16 3.43 1.33 3.76.18 3.68 4.58-.08 4.4-9.9 4.7l-1.8-4.83q5.02.54 5.52-.5.5-1.06-3.2-1.57z" style="-inkscape-font-specification:'Funhouse, Normal';font-variant-ligatures:normal;font-variant-caps:normal;font-variant-numeric:normal;font-feature-settings:normal;text-align:start"/>
    </g>
    <g aria-label="1-digit" style="line-height:1.25;-inkscape-font-specification:'Funhouse, Normal';font-variant-ligatures:normal;font-variant-caps:normal;font-variant-numeric:normal;font-feature-settings:normal;text-align:start">
      <path d="M106.17 97.94l-6.82-.3 1.14-9.42-2.35.95-.93-3.93 7.17-2.2zM116.4 88.43l-.78 5.04-9.1-.93-.45-3.44zM117.52 98.08l-.63-13.97q13.6 0 13.6 6.98 0 6.99-12.97 6.99zm3.56-10.27l.66 4.83q4.32.02 4.32-2.4 0-2.43-4.98-2.43zM135.64 84.19l1.02 13.46-5.65 1.07.26-14.18zM153.14 97.94l-5.67 1.44.1-1.58q-1.11.28-2.34.28-3.34 0-5.7-2.05-2.37-2.04-2.37-4.94 0-2.89 2.36-4.93 2.37-2.05 5.71-2.05t5.7 2.05q1.2 1.02 1.8 2.27l-4.8 1.2q-.23-.63-.83-1.15-1.02-.88-2.45-.88-1.42 0-2.44.88t-1.02 2.12q0 1.23 1.02 2.11 1.02.88 2.44.88 1.43 0 2.45-.88.55-.48.84-1.06l4.53-.2zM158.27 84.19l1.02 13.46-5.65 1.07.26-14.18zM167.86 88.36l.49 8.5-5.41 1.4.93-10.16-4.08-.35.32-3.69 11.7-.7.43 5.46z" style="-inkscape-font-specification:'Funhouse, Normal';font-variant-ligatures:normal;font-variant-caps:normal;font-variant-numeric:normal;font-feature-settings:normal;text-align:start"/>
    </g>
  </g>
  <g>
    <path fill="#fff" stroke="#00c853" d="M100.49 36.9q-6.23.86-5.14 4.15l9.09-.67 2.05 9.87L84.81 48q-.27-14.82 6.07-15.11 6.35-.3 5.8-2.25-.55-1.96-8.13-1.8L90 21.1q15.28 1.25 16 8.1.73 6.84-5.51 7.71zM151.02 26.62q-1.15 0-1.97.65-.8.65-.8 1.57 0 .93.8 1.58.82.65 1.97.65 1.14 0 1.94-.65.81-.65.81-1.58 0-.92-.81-1.57-.8-.65-1.94-.65zm.42 10.8q-1.74 0-2.98.7-1.24.72-1.24 1.75t1.24 1.77q1.24.7 2.98.7 1.77 0 3-.7 1.25-.74 1.25-1.77t-1.24-1.74q-1.24-.72-3-.72zm7.71-3.43q.82.44 1.58.99 3.46 2.62 3.46 6.34 0 3.7-3.48 6.32-3.47 2.63-8.38 2.63-4.94 0-8.43-2.63-3.46-2.62-3.46-6.32 0-3.72 3.48-6.34.55-.4 1.12-.76-2.23-2.18-2.23-5.19 0-3.3 2.69-5.6 2.69-2.34 6.49-2.34 3.78 0 6.47 2.34 2.69 2.3 2.69 5.6 0 2.84-2 4.96z" font-family="Funhouse" font-weight="400" letter-spacing="0" style="line-height:1.25;-inkscape-font-specification:'Funhouse, Normal';font-variant-ligatures:normal;font-variant-caps:normal;font-variant-numeric:normal;font-feature-settings:normal;text-align:start" word-spacing="0"/>
    <g transform="matrix(0 .91414 -.91414 0 -138.83 678.54)">
      <rect width="7.84" height="18.82" x="-712.05" y="-356.04" fill="#e91e63" ry="3.92"/>
      <rect width="7.84" height="18.82" x="-701.07" y="-356.04" fill="#e91e63" ry="3.92"/>
      <rect width="2.21" height="6.35" x="-710.76" y="-353.53" fill="#facedd" ry="1.1"/>
      <rect width="2.21" height="6.35" x="-699.77" y="-353.53" fill="#facedd" ry="1.1"/>
    </g>
    <g transform="matrix(.90636 0 0 .90636 -188.53 739.93)">
      <g fill="#00c853" transform="translate(7.99 30.08) scale(1.09493)">
        <rect width="7.84" height="23.53" x="303.23" y="-746.43" ry="3.92"/>
        <rect width="7.84" height="23.53" x="-738.58" y="-318.92" ry="3.92" transform="rotate(90)"/>
      </g>
      <rect width="2.21" height="6.35" x="345.05" y="-785.14" fill="#c7ffde" ry="1.1"/>
    </g>
  </g>
</svg>
