<svg xmlns="http://www.w3.org/2000/svg" viewBox="0 0 270.93 135.47">
  <text x="-623.71" y="-242.6" stroke-width=".26" font-family="sans-serif" font-size="10.58" font-weight="400" letter-spacing="0" style="line-height:1.25" word-spacing="0"/>
  <g transform="matrix(.90636 0 0 .90636 -190.59 737.85)">
    <g fill="#00c853" transform="translate(7.99 30.08) scale(1.09493)">
      <rect width="7.84" height="23.53" x="303.23" y="-746.43" ry="3.92"/>
      <rect width="7.84" height="23.53" x="-738.58" y="-318.92" ry="3.92" transform="rotate(90)"/>
    </g>
    <rect width="2.21" height="6.35" x="345.05" y="-785.14" fill="#c7ffde" ry="1.1"/>
  </g>
  <g transform="matrix(0 .88688 -.88688 0 -100.7 659.77)">
    <rect width="7.84" height="18.82" x="-712.05" y="-356.04" fill="#e91e63" ry="3.92"/>
    <rect width="7.84" height="18.82" x="-701.07" y="-356.04" fill="#e91e63" ry="3.92"/>
    <rect width="2.21" height="6.35" x="-710.76" y="-353.53" fill="#facedd" ry="1.1"/>
    <rect width="2.21" height="6.35" x="-699.77" y="-353.53" fill="#facedd" ry="1.1"/>
  </g>
  <g fill="#fff" stroke="#00c853" stroke-width="1.06" font-family="Funhouse" font-size="42.33" font-weight="400" letter-spacing="0" word-spacing="0">
    <g style="line-height:1.25;-inkscape-font-specification:'Funhouse, Normal';font-variant-ligatures:normal;font-variant-caps:normal;font-variant-numeric:normal;font-feature-settings:normal;text-align:start">
      <path d="M159.02 52.13l-14.14-.6 2.38-19.54-4.88 1.97-1.92-8.15 14.86-4.57z" aria-label="1" style="-inkscape-font-specification:'Funhouse, Normal';font-variant-ligatures:normal;font-variant-caps:normal;font-variant-numeric:normal;font-feature-settings:normal;text-align:start"/>
    </g>
    <g style="line-height:1.25;-inkscape-font-specification:'Funhouse, Normal';font-variant-ligatures:normal;font-variant-caps:normal;font-variant-numeric:normal;font-feature-settings:normal;text-align:start">
      <path d="M175.78 51.09q-6.99 0-11.93-4.24-4.92-4.24-4.92-10.23 0-6 4.92-10.24 4.94-4.23 11.93-4.23 6.97 0 11.89 4.23 4.94 4.24 4.94 10.24t-4.94 10.23q-4.92 4.24-11.89 4.24zm-1.16-9.04q2.98 0 5.09-1.82 2.13-1.81 2.13-4.38 0-2.56-2.13-4.38-2.11-1.82-5.09-1.82-3 0-5.12 1.82-2.11 1.82-2.11 4.38 0 2.57 2.1 4.38 2.14 1.82 5.13 1.82z" aria-label="0" style="-inkscape-font-specification:'Funhouse, Normal';font-variant-ligatures:normal;font-variant-caps:normal;font-variant-numeric:normal;font-feature-settings:normal;text-align:start"/>
    </g>
  </g>
  <g fill="#fff" stroke="#00c853" stroke-width="1.06" font-family="Funhouse" font-size="42.33" font-weight="400" letter-spacing="0" word-spacing="0">
    <g style="line-height:1.25;-inkscape-font-specification:'Funhouse, Normal';font-variant-ligatures:normal;font-variant-caps:normal;font-variant-numeric:normal;font-feature-settings:normal;text-align:start">
      <path d="M69.28 52.13l-14.14-.6 2.38-19.54-4.88 1.97-1.92-8.15 14.86-4.57z" aria-label="1" style="-inkscape-font-specification:'Funhouse, Normal';font-variant-ligatures:normal;font-variant-caps:normal;font-variant-numeric:normal;font-feature-settings:normal;text-align:start"/>
    </g>
    <g style="line-height:1.25;-inkscape-font-specification:'Funhouse, Normal';font-variant-ligatures:normal;font-variant-caps:normal;font-variant-numeric:normal;font-feature-settings:normal;text-align:start">
      <path d="M86.04 51.09q-6.99 0-11.93-4.24-4.92-4.24-4.92-10.23 0-6 4.92-10.24 4.94-4.23 11.93-4.23 6.96 0 11.88 4.23 4.94 4.24 4.94 10.24t-4.94 10.23Q93 51.09 86.04 51.09zm-1.16-9.04q2.98 0 5.08-1.82 2.13-1.81 2.13-4.38 0-2.56-2.13-4.38-2.1-1.82-5.08-1.82-3 0-5.13 1.82-2.1 1.82-2.1 4.38 0 2.57 2.1 4.38 2.13 1.82 5.13 1.82z" aria-label="0" style="-inkscape-font-specification:'Funhouse, Normal';font-variant-ligatures:normal;font-variant-caps:normal;font-variant-numeric:normal;font-feature-settings:normal;text-align:start"/>
    </g>
  </g>
  <g>
    <g>
      <path fill="#fff" stroke="#00c853" stroke-linecap="round" stroke-linejoin="round" stroke-width="1.32" d="M216.2 60.58a5.18 5.18 0 0 0-5.14 5.25v8.59h21.6c2.9 0 5.23 2.33 5.23 5.22v36.52h26.8a5.18 5.18 0 0 0 5.15-5.25l-9.92-22.54 9.92-22.54c1.16-2.65-2.3-5.25-5.15-5.25z"/>
      <path fill="#00c853" d="M215.78 60.48c-2.15-.1-4.69 3.24-4.69 5.7v8.24h23.78c-.5-.4-1.06-.87-1.68-1.44-3.48-3.15-16.28-12.06-16.28-12.06a1.92 1.92 0 0 0-1.13-.44z"/>
      <g>
        <path fill="#fff" stroke="#00c853" stroke-linecap="round" stroke-linejoin="round" stroke-width="1.32" d="M6.24 60.58c-2.85 0-6.3 2.6-5.14 5.25L11 88.37 1.1 110.91c0 2.9 2.3 5.25 5.14 5.25h26.72V79.64c0-2.9 2.33-5.22 5.23-5.22h21.68v-8.6c0-2.9-2.3-5.24-5.15-5.24z"/>
        <path fill="#00c853" d="M55.15 60.48c-.4.02-.78.15-1.13.44 0 0-12.8 8.91-16.27 12.06-.63.57-1.19 1.03-1.7 1.44h23.79v-8.23c0-2.47-2.54-5.81-4.69-5.71z"/>
      </g>
      <rect width="204.93" height="55.37" x="32.96" y="74.42" fill="#fff" stroke="#00c853" stroke-linecap="round" stroke-linejoin="round" stroke-width="1.32" ry="5.23"/>
    </g>
    <g fill="#00c853" stroke-width=".26" font-family="Funhouse" font-size="19.4" font-weight="400" letter-spacing="0" word-spacing="0">
      <g aria-label="1-digit number" style="line-height:1.25;-inkscape-font-specification:'Funhouse, Normal';font-variant-ligatures:normal;font-variant-caps:normal;font-variant-numeric:normal;font-feature-settings:normal;text-align:start">
        <path d="M63.15 97.41l-6.48-.27 1.09-8.96-2.24.9-.88-3.73 6.81-2.1zM72.86 88.38l-.74 4.79-8.63-.88-.44-3.27zM73.93 97.54l-.6-13.26q12.92 0 12.92 6.63t-12.32 6.63zm3.37-9.75l.64 4.59q4.1.02 4.1-2.28t-4.74-2.3zM91.13 84.36l.97 12.78-5.36 1.01.25-13.46zM107.75 97.41l-5.39 1.36.1-1.5q-1.06.27-2.22.27-3.17 0-5.42-1.94t-2.25-4.69q0-2.75 2.25-4.69 2.25-1.94 5.42-1.94t5.42 1.94q1.13.98 1.7 2.16l-4.55 1.15q-.23-.6-.8-1.1-.97-.83-2.32-.83-1.36 0-2.32.83-.97.83-.97 2 0 1.18.97 2.02.96.83 2.32.83 1.35 0 2.32-.83.52-.46.8-1l4.3-.2zM112.62 84.36l.97 12.78-5.36 1.01.24-13.46zM121.73 88.32l.46 8.07-5.13 1.32.88-9.64-3.88-.33.3-3.5 11.12-.67.4 5.18zM135.94 90.91l.94 5.43-4.73 1.2-.96-12.44 4.75-.82 4.68 6.2.05-6.2 5.88-.6-2.09 13.86-3.76.55z" style="-inkscape-font-specification:'Funhouse, Normal';font-variant-ligatures:normal;font-variant-caps:normal;font-variant-numeric:normal;font-feature-settings:normal;text-align:start"/>
        <path d="M147.68 84.94l5.05.99q-2.52 7.74.72 7.82 3.84-.02 2.22-8.01l4.62-1.46q2.13 13.15-6.84 13.26-9.07-.08-5.77-12.6z" style="-inkscape-font-specification:'Funhouse, Normal';font-variant-ligatures:normal;font-variant-caps:normal;font-variant-numeric:normal;font-feature-settings:normal;text-align:start"/>
        <path d="M176.32 84.28l.8 12.5-4.83.4-.26-6.4-.97 4.4-4.34.61-1.76-4.54.63 5.38-4.42.91.6-13.26 4.35-.58 2.4 7.58 2.93-7.35zM181.28 88.93q2.94-.55 2.88-1.67-.06-1.11-3-.35zm.45 5.63q4.3-.17 4.3-1.5.02-1.32-4.44-1.27zm-4.12 2.98l.35-12.27q6.78-2.75 9.32-.26 2.54 2.5-.65 5.02 4.83 1.49 3.12 4.86-1.7 3.36-12.14 2.65z" style="-inkscape-font-specification:'Funhouse, Normal';font-variant-ligatures:normal;font-variant-caps:normal;font-variant-numeric:normal;font-feature-settings:normal;text-align:start"/>
        <path d="M200.84 82.57l.25 5.03-5.9.63.08 1.15 3.87-.36.34 3.43-4.04.29.07.93 5.72-.44.85 4.31-11.28.4 1.15-13.68zM207.2 87.4l.12 2.56q4.74 0 4.74-.94 0-.95-4.87-1.61zm.63 9.38l-5.28.73 1.1-14.14q12.2.91 12.6 4.89.42 3.97-4.19 5.5l3.8 2.05-3.9 3.44-4.44-5.5z" style="-inkscape-font-specification:'Funhouse, Normal';font-variant-ligatures:normal;font-variant-caps:normal;font-variant-numeric:normal;font-feature-settings:normal;text-align:start"/>
      </g>
      <g aria-label="plus 10" style="line-height:1.25;-inkscape-font-specification:'Funhouse, Normal';font-variant-ligatures:normal;font-variant-caps:normal;font-variant-numeric:normal;font-feature-settings:normal;text-align:start">
        <path d="M101.07 116.65l.77 2.84-4.95.98-.93-12.68q12.61-2.04 13.25 4.16 0 4.73-8.14 4.7zm-1.3-5.6l.53 1.84q5.12 0 4.82-1.34-.3-1.35-5.35-.5zM110.33 107.02l4.67.25-1.54 9.41 4.76-.74-1.05 5.05-7.5-.52z" style="-inkscape-font-specification:'Funhouse, Normal';font-variant-ligatures:normal;font-variant-caps:normal;font-variant-numeric:normal;font-feature-settings:normal;text-align:start"/>
        <path d="M119.6 107.87l5.05.99q-2.52 7.74.72 7.82 3.85-.03 2.23-8.01l4.62-1.46q2.12 13.15-6.85 13.26-9.06-.08-5.77-12.6z" style="-inkscape-font-specification:'Funhouse, Normal';font-variant-ligatures:normal;font-variant-caps:normal;font-variant-numeric:normal;font-feature-settings:normal;text-align:start"/>
        <path d="M136.51 115.23q-3.42-.48-3.02-4.25.4-3.77 8.8-4.46l.79 4.28q-4.16-.1-4.46.98-.3 1.08 3.18 1.25 3.49.16 3.41 4.24-.08 4.08-9.18 4.36l-1.68-4.48q4.66.5 5.13-.47.46-.97-2.97-1.45zM159.07 120.34l-6.48-.27 1.09-8.96-2.24.9-.88-3.73 6.82-2.1zM167.27 120.47q-3.2 0-5.47-1.94-2.26-1.94-2.26-4.69 0-2.75 2.26-4.69 2.26-1.94 5.47-1.94 3.19 0 5.44 1.94 2.27 1.94 2.27 4.7 0 2.74-2.27 4.68-2.25 1.94-5.44 1.94zm-.53-4.14q1.36 0 2.33-.83t.97-2.01q0-1.17-.97-2-.97-.84-2.33-.84-1.38 0-2.35.83-.97.84-.97 2.01 0 1.18.97 2 .97.84 2.35.84z" style="-inkscape-font-specification:'Funhouse, Normal';font-variant-ligatures:normal;font-variant-caps:normal;font-variant-numeric:normal;font-feature-settings:normal;text-align:start"/>
      </g>
    </g>
  </g>
</svg>
