<svg xmlns="http://www.w3.org/2000/svg" viewBox="0 0 270.93 135.47">
  <g transform="translate(-1230.66)">
    <path fill="#fff" stroke="#00c853" stroke-linecap="round" stroke-linejoin="round" stroke-width="1.32" d="M1446.87 60.58a5.18 5.18 0 0 0-5.14 5.25v8.59h21.6c2.9 0 5.22 2.33 5.22 5.22v36.52h26.8a5.18 5.18 0 0 0 5.15-5.25l-9.92-22.54 9.92-22.54c1.16-2.65-2.3-5.25-5.15-5.25z"/>
    <path fill="#00c853" d="M1446.44 60.48c-2.14-.1-4.69 3.24-4.69 5.7v8.24H1465.53c-.5-.4-1.06-.87-1.68-1.44-3.47-3.15-16.27-12.06-16.27-12.06a1.92 1.92 0 0 0-1.14-.44z"/>
    <g>
      <path fill="#fff" stroke="#00c853" stroke-linecap="round" stroke-linejoin="round" stroke-width="1.32" d="M1236.9 60.58c-2.85 0-6.3 2.6-5.14 5.25l9.91 22.54-9.91 22.54c0 2.9 2.3 5.25 5.14 5.25h26.72V79.64c0-2.9 2.33-5.22 5.23-5.22h21.68v-8.6c0-2.9-2.3-5.24-5.14-5.24z"/>
      <path fill="#00c853" d="M1285.81 60.48c-.4.02-.78.15-1.13.44 0 0-12.8 8.91-16.27 12.06-.63.57-1.19 1.03-1.69 1.44H1290.5v-8.23c0-2.47-2.54-5.81-4.69-5.71z"/>
    </g>
    <rect width="204.93" height="55.37" x="1263.62" y="74.42" fill="#fff" stroke="#00c853" stroke-linecap="round" stroke-linejoin="round" stroke-width="1.32" ry="5.23"/>
  </g>
  <g fill="#00c853" stroke-width=".26" font-size="15.88" font-weight="400" letter-spacing="0" word-spacing="0">
    <g aria-label="1-digit additions" font-family="Funhouse" style="line-height:1.25;-inkscape-font-specification:'Funhouse, Normal';font-variant-ligatures:normal;font-variant-caps:normal;font-variant-numeric:normal;font-feature-settings:normal;text-align:start">
      <path d="M66.7 90.86l-5.3-.23.9-7.32-1.84.73-.72-3.05 5.58-1.71zM74.65 83.47l-.6 3.92-7.07-.73-.35-2.67zM75.53 90.97l-.5-10.86q10.57 0 10.57 5.43t-10.07 5.43zm2.75-7.98l.52 3.75q3.36.02 3.36-1.87 0-1.88-3.88-1.88zM89.6 80.18l.8 10.45-4.4.83.2-11.01zM103.2 90.86l-4.41 1.11.08-1.22q-.87.22-1.82.22-2.6 0-4.43-1.6-1.84-1.58-1.84-3.83t1.84-3.84q1.83-1.59 4.43-1.59 2.6 0 4.44 1.6.92.8 1.38 1.76l-3.72.94q-.18-.5-.65-.9-.79-.68-1.9-.68-1.1 0-1.9.68-.79.68-.79 1.64 0 .96.8 1.65.78.68 1.9.68 1.1 0 1.9-.68.42-.38.65-.83l3.52-.15zM107.18 80.18l.8 10.45-4.4.83.2-11.01zM114.63 83.42l.38 6.6-4.2 1.09.72-7.9-3.17-.27.25-2.86 9.1-.55.32 4.24zM125.97 89.42l-.54 1.55-3.06-1.85 3.83-9 2.92-.2 4.58 9.32-3.62 1.73-.8-2.18zm2.65-3.4l-.87-2.8-1.02 3.1zM134.6 90.97l-.5-10.86q10.57 0 10.57 5.43t-10.08 5.43zm2.75-7.98l.52 3.75q3.36.02 3.36-1.87 0-1.88-3.88-1.88zM145.57 90.97l-.5-10.86q10.57 0 10.57 5.43t-10.07 5.43zm2.76-7.98l.52 3.75q3.35.02 3.35-1.87 0-1.88-3.87-1.88zM159.64 80.18l.8 10.45-4.4.83.2-11.01zM167.1 83.42l.37 6.6-4.2 1.09.72-7.9-3.17-.27.25-2.86 9.1-.55.33 4.24zM174.5 80.18l.79 10.45-4.4.83.21-11.01zM182 90.97q-2.63 0-4.48-1.6-1.85-1.58-1.85-3.83t1.85-3.84q1.85-1.59 4.47-1.59 2.61 0 4.46 1.6 1.85 1.58 1.85 3.83t-1.85 3.84q-1.85 1.59-4.46 1.59zm-.44-3.4q1.11 0 1.9-.67.8-.68.8-1.65 0-.96-.8-1.64-.79-.68-1.9-.68-1.13 0-1.92.68-.8.68-.8 1.64 0 .97.8 1.65.8.68 1.92.68zM192.58 85.54l.77 4.44-3.87.99-.78-10.18 3.88-.68 3.83 5.07.05-5.07 4.8-.5-1.7 11.36-3.08.45zM203.99 86.68q-2.8-.4-2.47-3.48.32-3.09 7.2-3.65l.64 3.5q-3.4-.07-3.65.8-.25.9 2.6 1.02 2.86.14 2.8 3.48-.07 3.34-7.52 3.56l-1.37-3.66q3.82.4 4.2-.38.38-.8-2.43-1.19z" style="-inkscape-font-specification:'Funhouse, Normal';font-variant-ligatures:normal;font-variant-caps:normal;font-variant-numeric:normal;font-feature-settings:normal;text-align:start"/>
    </g>
    <g aria-label="up to 20" font-family="Funhouse" style="line-height:1.25;-inkscape-font-specification:'Funhouse, Normal';font-variant-ligatures:normal;font-variant-caps:normal;font-variant-numeric:normal;font-feature-settings:normal;text-align:start">
      <path d="M97.67 113.67l4.14.8q-2.07 6.34.58 6.4 3.15-.01 1.83-6.55l3.78-1.2q1.74 10.77-5.6 10.86-7.42-.07-4.73-10.31z" style="-inkscape-font-specification:'Funhouse, Normal';font-variant-ligatures:normal;font-variant-caps:normal;font-variant-numeric:normal;font-feature-settings:normal;text-align:start"/>
      <path d="M113.15 120.86l.62 2.31-4.04.8-.77-10.37q10.33-1.67 10.84 3.4 0 3.88-6.65 3.86zm-1.07-4.6l.44 1.52q4.18 0 3.94-1.1-.25-1.1-4.38-.41zM130.4 116.43l.37 6.6-4.2 1.09.72-7.9-3.17-.26.25-2.87 9.1-.54.33 4.24zM140.52 123.98q-2.62 0-4.48-1.59-1.84-1.59-1.84-3.84 0-2.24 1.84-3.83 1.86-1.6 4.48-1.6 2.6 0 4.45 1.6 1.86 1.59 1.86 3.83 0 2.25-1.86 3.84-1.84 1.59-4.45 1.59zm-.44-3.39q1.12 0 1.9-.68.8-.68.8-1.64 0-.96-.8-1.65-.78-.68-1.9-.68-1.12 0-1.92.68-.8.69-.8 1.65t.8 1.64q.8.68 1.92.68zM158.33 118.91q-2.8.39-2.31 1.87l4.08-.3.93 4.45-9.75-1.01q-.12-6.68 2.73-6.82 2.85-.13 2.6-1.01-.24-.89-3.64-.8l.65-3.51q6.86.56 7.19 3.65.33 3.08-2.48 3.48zM167.83 123.98q-2.62 0-4.47-1.59-1.84-1.59-1.84-3.84 0-2.24 1.84-3.83 1.85-1.6 4.47-1.6 2.61 0 4.46 1.6 1.85 1.59 1.85 3.83 0 2.25-1.85 3.84-1.85 1.59-4.46 1.59zm-.43-3.39q1.11 0 1.9-.68.8-.68.8-1.64 0-.96-.8-1.65-.79-.68-1.9-.68-1.13 0-1.92.68-.8.69-.8 1.65t.8 1.64q.8.68 1.92.68z" style="-inkscape-font-specification:'Funhouse, Normal';font-variant-ligatures:normal;font-variant-caps:normal;font-variant-numeric:normal;font-feature-settings:normal;text-align:start"/>
    </g>
    <g aria-label="subtractions" font-family="Funhouse" style="line-height:1.25;-inkscape-font-specification:'Funhouse, Normal';font-variant-ligatures:normal;font-variant-caps:normal;font-variant-numeric:normal;font-feature-settings:normal;text-align:start">
      <path d="M82.23 103.02q-2.8-.4-2.48-3.48.33-3.09 7.2-3.66l.65 3.5q-3.4-.07-3.65.81-.25.89 2.6 1.02t2.8 3.47q-.07 3.34-7.52 3.57l-1.37-3.67q3.81.41 4.2-.38.37-.8-2.43-1.18z" style="-inkscape-font-specification:'Funhouse, Normal';font-variant-ligatures:normal;font-variant-caps:normal;font-variant-numeric:normal;font-feature-settings:normal;text-align:start"/>
      <path d="M90.71 97l4.14.8q-2.07 6.33.59 6.4 3.14-.02 1.82-6.56l3.78-1.19q1.74 10.76-5.6 10.85-7.42-.07-4.73-10.3z" style="-inkscape-font-specification:'Funhouse, Normal';font-variant-ligatures:normal;font-variant-caps:normal;font-variant-numeric:normal;font-feature-settings:normal;text-align:start"/>
      <path d="M105 100.26q2.4-.45 2.36-1.37-.05-.91-2.46-.28zm.37 4.6q3.51-.14 3.52-1.22.02-1.09-3.63-1.04zM102 107.3l.29-10.04q5.54-2.25 7.62-.21 2.07 2.04-.53 4.1 3.95 1.22 2.55 3.98-1.4 2.75-9.93 2.17z" style="-inkscape-font-specification:'Funhouse, Normal';font-variant-ligatures:normal;font-variant-caps:normal;font-variant-numeric:normal;font-feature-settings:normal;text-align:start"/>
      <path d="M117.85 99.75l.38 6.6-4.2 1.1.72-7.9-3.17-.27.25-2.87 9.1-.54.33 4.24zM125.46 99l.1 2.1q3.88 0 3.88-.77 0-.78-3.98-1.32zm.52 7.67l-4.32.6.9-11.56q9.98.74 10.31 4 .35 3.24-3.43 4.5l3.1 1.67-3.18 2.82-3.63-4.5zM136.3 105.75l-.55 1.55-3.05-1.84 3.83-9 2.91-.21 4.58 9.32-3.62 1.73-.8-2.18zm2.64-3.4l-.86-2.8-1.03 3.1zM154.2 105.71q-1.85 1.6-4.44 1.6-2.6 0-4.44-1.6-1.83-1.59-1.83-3.83 0-2.25 1.83-3.84 1.84-1.59 4.44-1.59 2.6 0 4.43 1.59.92.8 1.39 1.77l-3.72.93q-.19-.5-.65-.9-.8-.68-1.9-.68-1.11 0-1.9.69-.8.68-.8 1.64 0 .96.8 1.64.79.68 1.9.68 1.1 0 1.9-.68.42-.37.63-.83l3.73 1.65q-.46.97-1.38 1.76zM162.25 99.75l.38 6.6-4.2 1.1.72-7.9-3.17-.27.25-2.87 9.1-.54.33 4.24zM169.66 96.51l.79 10.46-4.4.83.21-11.02zM177.15 107.3q-2.62 0-4.47-1.59-1.85-1.59-1.85-3.83 0-2.25 1.85-3.84 1.85-1.59 4.47-1.59 2.61 0 4.46 1.59t1.85 3.84q0 2.24-1.85 3.83-1.85 1.6-4.46 1.6zm-.43-3.38q1.11 0 1.9-.69.8-.68.8-1.64 0-.96-.8-1.64-.79-.69-1.9-.69-1.13 0-1.93.69-.79.68-.79 1.64 0 .96.8 1.64.8.69 1.92.69zM187.74 101.88l.77 4.44-3.87.98-.78-10.18 3.88-.67 3.83 5.07.05-5.07 4.8-.5-1.7 11.35-3.08.45zM199.15 103.02q-2.8-.4-2.47-3.48.32-3.09 7.2-3.66l.64 3.5q-3.4-.07-3.65.81-.25.89 2.6 1.02 2.86.13 2.8 3.47-.07 3.34-7.52 3.57l-1.37-3.67q3.82.41 4.2-.38.38-.8-2.43-1.18z" style="-inkscape-font-specification:'Funhouse, Normal';font-variant-ligatures:normal;font-variant-caps:normal;font-variant-numeric:normal;font-feature-settings:normal;text-align:start"/>
    </g>
    <g style="line-height:1.25;-inkscape-font-specification:'SC Gum Kids, Normal';font-variant-ligatures:normal;font-variant-caps:normal;font-variant-numeric:normal;font-feature-settings:normal;text-align:start">
      <path d="M68.37 98.52q-.31 0-.47.14v.02q-.02.03-.02.1-.01.26.15.68.1.25.25.54.29-.24.48-.46.34-.4.34-.64l-.01-.08-.12-.11q-.23-.19-.6-.19zm-1.24 5.22q-.2.32-.2.66 0 .56.45 1.01.48.47 1.12.47.53 0 1.02-.34-1.1-1.21-1.91-2.3-.3.24-.48.5zm1.37 4.49q-1.6 0-2.75-1.14-1.16-1.14-1.17-2.69 0-1.04.6-1.93.43-.66 1.13-1.17-.25-.48-.42-.92-.35-.87-.35-1.6 0-.54.18-1 .22-.52.65-.89.83-.71 2-.71.82 0 1.55.36.8.42 1.21 1.15.31.56.31 1.21 0 1.1-.9 2.15-.4.48-.96.92.37.49.8 1l.58.67q.41-.85.7-1.95l2.26.6q-.5 1.86-1.26 3.14.51.52.92.91l.07.06-1.59 1.72-.25-.24q-.33-.31-.66-.65-1.23 1-2.64 1z" aria-label="&amp;" font-family="SC Gum Kids" style="-inkscape-font-specification:'SC Gum Kids, Normal';font-variant-ligatures:normal;font-variant-caps:normal;font-variant-numeric:normal;font-feature-settings:normal;text-align:start"/>
    </g>
  </g>
  <g>
    <path fill="#e91e63" d="M193.92 13.91c0 1.99-1.6 3.58-3.59 3.58H180.3a3.58 3.58 0 1 1 0-7.16h10.03c1.99 0 3.59 1.6 3.59 3.58zM193.92 23.95c0 1.98-1.6 3.58-3.59 3.58H180.3a3.58 3.58 0 1 1 0-7.17h10.03c1.99 0 3.59 1.6 3.59 3.59z"/>
    <path fill="#facedd" d="M191.63 12.51a1 1 0 0 1-1.01 1h-3.79a1 1 0 1 1 0-2h3.79a1 1 0 0 1 1 1zM191.63 22.56a1 1 0 0 1-1.01 1.01h-3.79a1 1 0 1 1 0-2.02h3.79a1 1 0 0 1 1 1.01z"/>
    <g fill="#fff" stroke="#00c853" stroke-width="1.06" aria-label="3" font-family="Funhouse" font-size="35.28" font-weight="400" letter-spacing="0" style="line-height:1.25;-inkscape-font-specification:'Funhouse, Normal';font-variant-ligatures:normal;font-variant-caps:normal;font-variant-numeric:normal;font-feature-settings:normal;text-align:start" word-spacing="0">
      <path d="M165.06 18.49q5.5.55 4.46 6.3-1.01 5.76-16.91 7.2l-1.45-8.6q10.46.27 10.46-1.35 0-1.64-4.12-.93l-1.14-6.01q5.26-.06 5.2-2.09-.05-2.03-9.3.2l1-7.24q14.8-.99 16.04 4.75 1.26 5.72-4.24 7.77z" style="-inkscape-font-specification:'Funhouse, Normal';font-variant-ligatures:normal;font-variant-caps:normal;font-variant-numeric:normal;font-feature-settings:normal;text-align:start"/>
    </g>
    <g transform="matrix(.90636 0 0 .90636 -179.78 720.74)">
      <g fill="#00c853" transform="translate(7.99 30.08) scale(1.09493)">
        <rect width="7.84" height="23.53" x="303.23" y="-746.43" ry="3.92"/>
        <rect width="7.84" height="23.53" x="-738.58" y="-318.92" ry="3.92" transform="rotate(90)"/>
      </g>
      <rect width="2.21" height="6.35" x="345.05" y="-785.14" fill="#c7ffde" ry="1.1"/>
    </g>
    <g fill="#fff" stroke="#00c853" stroke-width="1.06" font-family="Funhouse" font-size="35.28" font-weight="400" letter-spacing="0" word-spacing="0">
      <path d="M101.54 30.72q-13.4-.13-8.06-23.51l9.89 1.74-3.14 6.22q13.7-2.84 14.2 6.42.5 9.29-12.89 9.13zm1.1-6.73q3.04 0 3.04-2.07t-3.04-2.07q-3.04 0-3.04 2.07t3.04 2.07z" style="line-height:1.25;-inkscape-font-specification:'Funhouse, Normal';font-variant-ligatures:normal;font-variant-caps:normal;font-variant-numeric:normal;font-feature-settings:normal;text-align:start"/>
      <path d="M90.67 29.83l-9.92-.42 1.67-13.7-3.43 1.37-1.35-5.71 10.43-3.2z" style="line-height:1.25;-inkscape-font-specification:'Funhouse, Normal';font-variant-ligatures:normal;font-variant-caps:normal;font-variant-numeric:normal;font-feature-settings:normal;text-align:start"/>
    </g>
    <g>
      <path fill="#e91e63" d="M193.92 45.93c0 1.99-1.6 3.59-3.59 3.59H180.3a3.58 3.58 0 1 1 0-7.17h10.03c1.99 0 3.59 1.6 3.59 3.58zM193.92 55.97c0 1.98-1.6 3.58-3.59 3.58H180.3a3.58 3.58 0 1 1 0-7.17h10.03c1.99 0 3.59 1.6 3.59 3.59z"/>
      <path fill="#facedd" d="M191.63 44.53a1 1 0 0 1-1.01 1.01h-3.79a1 1 0 1 1 0-2.02h3.79a1 1 0 0 1 1 1.01zM191.63 54.58a1 1 0 0 1-1.01 1.01h-3.79a1 1 0 1 1 0-2.02h3.79a1 1 0 0 1 1 1.01z"/>
      <path fill="#fff" stroke="#00c853" stroke-width="1.06" d="M157.52 37.8l-8.79 17.13 9.84 1.29-1.4 8.27 10.18-1.26-.29-5.84 3.74.4 1.4-7.55-5.35-.14V37.36zm-.95 11.6l1.98-4.7 2.05.2-.84 4.8z" font-family="Funhouse" font-size="35.28" font-weight="400" letter-spacing="0" style="line-height:1.25;-inkscape-font-specification:'Funhouse, Normal';font-variant-ligatures:normal;font-variant-caps:normal;font-variant-numeric:normal;font-feature-settings:normal;text-align:start" word-spacing="0"/>
      <g transform="matrix(0 1.06253 -1.06253 0 -236.02 837.1)">
        <rect width="7.84" height="18.82" x="-743.81" y="-356.04" fill="#e91e63" ry="3.92"/>
        <rect width="2.21" height="6.35" x="-742.53" y="-353.53" fill="#facedd" ry="1.1"/>
      </g>
      <g fill="#fff" stroke="#00c853" stroke-width="1.06" font-family="Funhouse" font-size="35.28" font-weight="400" letter-spacing="0" word-spacing="0">
        <g style="line-height:1.25;-inkscape-font-specification:'Funhouse, Normal';font-variant-ligatures:normal;font-variant-caps:normal;font-variant-numeric:normal;font-feature-settings:normal;text-align:start">
          <path d="M109.11 63.25l-11.43-4.8 7.76-11.27-8.26 1.08-2.31-7.94 22.2-1.79z" aria-label="7" style="-inkscape-font-specification:'Funhouse, Normal';font-variant-ligatures:normal;font-variant-caps:normal;font-variant-numeric:normal;font-feature-settings:normal;text-align:start"/>
        </g>
        <path d="M95.17 61.9l-9.93-.42 1.67-13.7-3.42 1.37-1.35-5.71 10.43-3.2z" style="line-height:1.25;-inkscape-font-specification:'Funhouse, Normal';font-variant-ligatures:normal;font-variant-caps:normal;font-variant-numeric:normal;font-feature-settings:normal;text-align:start"/>
      </g>
    </g>
  </g>
</svg>
