<svg xmlns="http://www.w3.org/2000/svg" viewBox="0 0 270.93 135.47">
  <g>
    <path fill="#fff" stroke="#00c853" stroke-linecap="round" stroke-linejoin="round" stroke-width="1.32" d="M216.2 60.58a5.18 5.18 0 0 0-5.14 5.25v8.59h21.6c2.9 0 5.23 2.33 5.23 5.22v36.52h26.8a5.18 5.18 0 0 0 5.15-5.25l-9.92-22.54 9.92-22.54c1.16-2.65-2.3-5.25-5.15-5.25z"/>
    <path fill="#00c853" d="M215.78 60.48c-2.15-.1-4.69 3.24-4.69 5.7v8.24h23.78c-.5-.4-1.06-.87-1.68-1.44-3.48-3.15-16.28-12.06-16.28-12.06a1.92 1.92 0 0 0-1.13-.44z"/>
    <g>
      <path fill="#fff" stroke="#00c853" stroke-linecap="round" stroke-linejoin="round" stroke-width="1.32" d="M6.24 60.58c-2.85 0-6.3 2.6-5.14 5.25L11 88.37 1.1 110.91c0 2.9 2.3 5.25 5.14 5.25h26.72V79.64c0-2.9 2.33-5.22 5.23-5.22h21.68v-8.6c0-2.9-2.3-5.24-5.15-5.24z"/>
      <path fill="#00c853" d="M55.15 60.48c-.4.02-.78.15-1.13.44 0 0-12.8 8.91-16.27 12.06-.63.57-1.19 1.03-1.7 1.44h23.79v-8.23c0-2.47-2.54-5.81-4.69-5.71z"/>
    </g>
    <rect width="204.93" height="55.37" x="32.96" y="74.42" fill="#fff" stroke="#00c853" stroke-linecap="round" stroke-linejoin="round" stroke-width="1.32" ry="5.23"/>
  </g>
  <g fill="#00c853" font-family="Funhouse" font-weight="400" letter-spacing="0" word-spacing="0">
    <g stroke-width=".39" aria-label="1-digit" font-size="21.17" style="line-height:1.25;-inkscape-font-specification:'Funhouse, Normal';font-variant-ligatures:normal;font-variant-caps:normal;font-variant-numeric:normal;font-feature-settings:normal;text-align:start">
      <path d="M106.17 97.94l-6.82-.3 1.14-9.42-2.35.95-.93-3.93 7.17-2.2zM116.4 88.43l-.78 5.04-9.1-.93-.45-3.44zM117.52 98.08l-.63-13.97q13.6 0 13.6 6.98 0 6.99-12.97 6.99zm3.56-10.27l.66 4.83q4.32.02 4.32-2.4 0-2.43-4.98-2.43zM135.64 84.19l1.02 13.46-5.65 1.07.26-14.18zM153.14 97.94l-5.67 1.44.1-1.58q-1.11.28-2.34.28-3.34 0-5.7-2.05-2.37-2.04-2.37-4.94 0-2.89 2.36-4.93 2.37-2.05 5.71-2.05t5.7 2.05q1.2 1.02 1.8 2.27l-4.8 1.2q-.23-.63-.83-1.15-1.02-.88-2.45-.88-1.42 0-2.44.88t-1.02 2.12q0 1.23 1.02 2.11 1.02.88 2.44.88 1.43 0 2.45-.88.55-.48.84-1.06l4.53-.2zM158.27 84.19l1.02 13.46-5.65 1.07.26-14.18zM167.86 88.36l.49 8.5-5.41 1.4.93-10.16-4.08-.35.32-3.69 11.7-.7.43 5.46z" style="-inkscape-font-specification:'Funhouse, Normal';font-variant-ligatures:normal;font-variant-caps:normal;font-variant-numeric:normal;font-feature-settings:normal;text-align:start"/>
    </g>
    <g stroke-width=".26" aria-label="subtractions" font-size="19.4" style="line-height:1.25;-inkscape-font-specification:'Funhouse, Normal';font-variant-ligatures:normal;font-variant-caps:normal;font-variant-numeric:normal;font-feature-settings:normal;text-align:start">
      <path d="M60.45 114.81q-3.42-.48-3.02-4.25.4-3.77 8.8-4.46l.79 4.28q-4.16-.1-4.46.98-.3 1.08 3.18 1.24 3.49.17 3.41 4.25-.07 4.08-9.18 4.36l-1.68-4.48q4.67.5 5.13-.47.46-.97-2.97-1.45z" style="-inkscape-font-specification:'Funhouse, Normal';font-variant-ligatures:normal;font-variant-caps:normal;font-variant-numeric:normal;font-feature-settings:normal;text-align:start"/>
      <path d="M70.83 107.45l5.05.99q-2.52 7.74.72 7.82 3.84-.03 2.22-8.01l4.63-1.46q2.12 13.15-6.85 13.26-9.07-.08-5.77-12.6z" style="-inkscape-font-specification:'Funhouse, Normal';font-variant-ligatures:normal;font-variant-caps:normal;font-variant-numeric:normal;font-feature-settings:normal;text-align:start"/>
      <path d="M88.29 111.44q2.94-.55 2.88-1.67-.06-1.12-3-.35zm.45 5.63q4.3-.17 4.3-1.5.02-1.33-4.44-1.27zm-4.12 2.98l.35-12.27q6.78-2.75 9.32-.26 2.53 2.49-.65 5.02 4.83 1.49 3.12 4.86-1.7 3.36-12.14 2.65z" style="-inkscape-font-specification:'Funhouse, Normal';font-variant-ligatures:normal;font-variant-caps:normal;font-variant-numeric:normal;font-feature-settings:normal;text-align:start"/>
      <path d="M104 110.82l.46 8.08-5.13 1.32.88-9.64-3.88-.33.3-3.51 11.12-.66.4 5.18zM113.3 109.91l.12 2.56q4.74 0 4.74-.95 0-.94-4.87-1.6zm.63 9.37l-5.28.74 1.1-14.14q12.2.9 12.6 4.89.42 3.97-4.19 5.5l3.79 2.05-3.88 3.44-4.45-5.5zM126.54 118.16l-.67 1.9-3.73-2.26 4.68-11.01 3.56-.25 5.6 11.4-4.42 2.11-.98-2.66zm3.24-4.15l-1.07-3.43-1.25 3.79zM148.41 118.1q-2.24 1.95-5.42 1.95-3.17 0-5.42-1.94-2.24-1.94-2.24-4.69 0-2.75 2.24-4.69 2.25-1.94 5.42-1.94 3.18 0 5.42 1.94 1.13.98 1.7 2.16l-4.55 1.15q-.23-.61-.8-1.1-.96-.84-2.32-.84-1.35 0-2.32.84-.97.83-.97 2 0 1.18.97 2.01.97.84 2.32.84 1.36 0 2.32-.84.52-.45.77-1.02l4.57 2.02q-.56 1.18-1.69 2.16zM158.26 110.82l.47 8.08-5.14 1.32.88-9.64-3.87-.33.3-3.51 11.12-.66.4 5.18zM167.31 106.86l.97 12.78-5.36 1.02.24-13.46zM176.47 120.05q-3.2 0-5.46-1.94t-2.26-4.69q0-2.75 2.26-4.69 2.26-1.94 5.46-1.94t5.45 1.94q2.26 1.94 2.26 4.69 0 2.75-2.26 4.69-2.25 1.94-5.45 1.94zm-.53-4.14q1.37 0 2.33-.83.98-.84.98-2.01 0-1.18-.98-2-.96-.84-2.33-.84t-2.35.83q-.96.83-.96 2 0 1.18.96 2.02.98.83 2.35.83zM189.41 113.42l.94 5.43-4.73 1.2-.95-12.44 4.74-.82 4.68 6.2.06-6.2 5.88-.6-2.09 13.86-3.76.55zM203.36 114.81q-3.42-.48-3.02-4.25.4-3.77 8.79-4.46l.8 4.28q-4.16-.1-4.47.98-.3 1.08 3.19 1.24 3.48.17 3.4 4.25-.07 4.08-9.17 4.36l-1.68-4.48q4.66.5 5.13-.47.46-.97-2.97-1.45z" style="-inkscape-font-specification:'Funhouse, Normal';font-variant-ligatures:normal;font-variant-caps:normal;font-variant-numeric:normal;font-feature-settings:normal;text-align:start"/>
    </g>
  </g>
  <g>
    <path fill="#fff" stroke="#00c853" d="M95.39 26.62q-1.16 0-1.98.65-.8.65-.8 1.57 0 .93.8 1.58.82.65 1.98.65 1.13 0 1.93-.65.82-.65.82-1.58 0-.92-.82-1.57-.8-.65-1.93-.65zm.42 10.8q-1.75 0-2.99.7-1.24.72-1.24 1.75t1.24 1.77q1.24.7 2.99.7 1.76 0 3-.7 1.24-.74 1.24-1.77t-1.24-1.74q-1.24-.72-3-.72zm7.7-3.43q.82.44 1.58.99 3.47 2.62 3.47 6.34 0 3.7-3.5 6.32-3.46 2.63-8.37 2.63-4.94 0-8.42-2.63-3.47-2.62-3.47-6.32 0-3.72 3.49-6.34.54-.4 1.11-.76-2.23-2.18-2.23-5.19 0-3.3 2.7-5.6 2.68-2.34 6.48-2.34 3.78 0 6.47 2.34 2.69 2.3 2.69 5.6 0 2.84-2 4.96zM156.95 36.9q-6.23.86-5.14 4.15l9.08-.67 2.06 9.87L141.27 48q-.28-14.82 6.07-15.11 6.35-.3 5.8-2.25-.56-1.96-8.13-1.8l1.45-7.76q15.28 1.25 16 8.1.73 6.84-5.51 7.71z" font-family="Funhouse" font-weight="400" letter-spacing="0" style="line-height:1.25;-inkscape-font-specification:'Funhouse, Normal';font-variant-ligatures:normal;font-variant-caps:normal;font-variant-numeric:normal;font-feature-settings:normal;text-align:start" word-spacing="0"/>
    <g transform="matrix(0 .91414 -.91414 0 -138.83 678.54)">
      <rect width="7.84" height="18.82" x="-712.05" y="-356.04" fill="#e91e63" ry="3.92"/>
      <rect width="7.84" height="18.82" x="-701.07" y="-356.04" fill="#e91e63" ry="3.92"/>
      <rect width="2.21" height="6.35" x="-710.76" y="-353.53" fill="#facedd" ry="1.1"/>
      <rect width="2.21" height="6.35" x="-699.77" y="-353.53" fill="#facedd" ry="1.1"/>
    </g>
    <g transform="matrix(0 1.06253 -1.06253 0 -243.4 821.83)">
      <rect width="7.84" height="18.82" x="-743.81" y="-356.04" fill="#e91e63" ry="3.92"/>
      <rect width="2.21" height="6.35" x="-742.53" y="-353.53" fill="#facedd" ry="1.1"/>
    </g>
  </g>
</svg>
