<svg xmlns="http://www.w3.org/2000/svg" viewBox="0 0 270.93 135.47">
  <text x="-35.17" y="-242.6" stroke-width=".26" font-family="sans-serif" font-size="10.58" font-weight="400" letter-spacing="0" style="line-height:1.25" word-spacing="0"/>
  <g transform="translate(-285.45 -160.13)">
    <path fill="#fff" stroke="#00c853" stroke-linecap="round" stroke-linejoin="round" stroke-width="1.32" d="M501.66 220.71a5.18 5.18 0 0 0-5.15 5.25v8.58h21.6c2.9 0 5.23 2.34 5.23 5.23v36.51h26.8a5.18 5.18 0 0 0 5.14-5.24l-9.91-22.54 9.91-22.54c1.17-2.66-2.3-5.25-5.14-5.25z"/>
    <path fill="#00c853" d="M501.23 220.6c-2.15-.1-4.7 3.25-4.7 5.72v8.22h23.79c-.5-.4-1.06-.87-1.69-1.43-3.47-3.15-16.27-12.07-16.27-12.07a1.92 1.92 0 0 0-1.13-.44z"/>
    <path fill="#fff" stroke="#00c853" stroke-linecap="round" stroke-linejoin="round" stroke-width="1.32" d="M291.69 220.71c-2.85 0-6.31 2.6-5.15 5.25l9.92 22.54-9.92 22.54c0 2.9 2.3 5.24 5.15 5.24h26.72v-36.51c0-2.9 2.33-5.23 5.22-5.23h21.69v-8.58c0-2.91-2.3-5.25-5.15-5.25z"/>
    <path fill="#00c853" d="M340.6 220.6c-.4.02-.78.16-1.13.44 0 0-12.8 8.92-16.28 12.07-.62.56-1.18 1.03-1.68 1.43h23.78v-8.22c0-2.47-2.54-5.82-4.69-5.72z"/>
    <rect width="204.93" height="55.37" x="318.41" y="234.54" fill="#fff" stroke="#00c853" stroke-linecap="round" stroke-linejoin="round" stroke-width="1.32" ry="5.23"/>
    <g fill="#00c853" font-family="Funhouse" font-size="19.4" font-weight="400" letter-spacing="0" word-spacing="0">
      <path d="M447.1 259.23q-.4 0-.68.23-.27.22-.27.54 0 .33.27.55.29.23.69.23.39 0 .67-.23.28-.22.28-.55 0-.32-.28-.54-.28-.23-.67-.23zm.15 3.74q-.6 0-1.03.25-.43.25-.43.6 0 .36.43.62.43.24 1.03.24.61 0 1.04-.24.43-.26.43-.61 0-.36-.43-.6-.43-.26-1.04-.26zm2.67-1.18q.29.15.55.34 1.2.91 1.2 2.2 0 1.28-1.2 2.19-1.21.9-2.91.9-1.71 0-2.92-.9-1.2-.91-1.2-2.2 0-1.28 1.2-2.19l.4-.26q-.78-.76-.78-1.8 0-1.14.93-1.94.93-.81 2.25-.81 1.31 0 2.24.8.93.8.93 1.95 0 .98-.69 1.72z" style="line-height:1.25;-inkscape-font-specification:'Funhouse, Normal';font-variant-ligatures:normal;font-variant-caps:normal;font-variant-numeric:normal;font-feature-settings:normal;text-align:start"/>
      <g stroke-width=".26" aria-label="minus" style="line-height:1.25;-inkscape-font-specification:'Funhouse, Normal';font-variant-ligatures:normal;font-variant-caps:normal;font-variant-numeric:normal;font-feature-settings:normal;text-align:start">
        <path d="M401.72 256.66l.61 9.6-3.71.32-.2-4.92-.75 3.38-3.33.47-1.35-3.49.48 4.13-3.4.7.47-10.19 3.34-.44 1.85 5.82 2.24-5.64zM406.09 256.72l.74 9.82-4.12.78.19-10.34zM410.84 261.76l.72 4.17-3.63.92-.74-9.55 3.65-.64 3.6 4.76.04-4.76 4.51-.46-1.6 10.65-2.89.43z" style="-inkscape-font-specification:'Funhouse, Normal';font-variant-ligatures:normal;font-variant-caps:normal;font-variant-numeric:normal;font-feature-settings:normal;text-align:start"/>
        <path d="M419.86 257.17l3.88.76q-1.94 5.95.55 6.01 2.95-.02 1.7-6.15l3.56-1.13q1.63 10.1-5.26 10.2-6.97-.07-4.43-9.69z" style="-inkscape-font-specification:'Funhouse, Normal';font-variant-ligatures:normal;font-variant-caps:normal;font-variant-numeric:normal;font-feature-settings:normal;text-align:start"/>
        <path d="M432.85 262.83q-2.63-.37-2.32-3.27.3-2.9 6.75-3.43l.61 3.3q-3.2-.08-3.43.75-.23.83 2.45.95 2.68.13 2.62 3.26-.06 3.14-7.05 3.35l-1.3-3.44q3.59.38 3.94-.36.36-.75-2.27-1.11z" style="-inkscape-font-specification:'Funhouse, Normal';font-variant-ligatures:normal;font-variant-caps:normal;font-variant-numeric:normal;font-feature-settings:normal;text-align:start"/>
      </g>
    </g>
    <g fill="#00c853" font-family="Funhouse" font-size="19.4" font-weight="400" letter-spacing="0" word-spacing="0">
      <path d="M375.72 244.15l-.54 3.55-6.4-.66-.33-2.42zM376.52 250.94l-.45-9.83q9.58 0 9.58 4.91 0 4.92-9.13 4.92zm2.5-7.23l.47 3.4q3.04.02 3.04-1.69 0-1.7-3.51-1.7zM389.27 241.16l.72 9.48-3.98.75.18-9.98zM401.59 250.84l-4 1.01.07-1.1q-.78.2-1.64.2-2.35 0-4.02-1.45-1.66-1.44-1.66-3.48 0-2.03 1.66-3.47 1.67-1.44 4.02-1.44 2.35 0 4.02 1.44.83.72 1.26 1.6l-3.38.85q-.16-.45-.59-.82-.71-.61-1.72-.61-1 0-1.72.61-.71.62-.71 1.5 0 .86.71 1.48.72.62 1.72.62t1.72-.62q.39-.33.6-.74l3.19-.14zM405.2 241.16l.72 9.48-3.98.75.18-9.98zM411.95 244.1l.34 5.98-3.8.99.65-7.15-2.87-.25.22-2.6 8.24-.49.3 3.84zM422.48 246.02l.7 4.03-3.5.9-.71-9.23 3.51-.61 3.47 4.6.05-4.6 4.35-.45-1.54 10.28-2.8.4z" style="line-height:1.25;-inkscape-font-specification:'Funhouse, Normal';font-variant-ligatures:normal;font-variant-caps:normal;font-variant-numeric:normal;font-feature-settings:normal;text-align:start"/>
      <path d="M431.19 241.6l3.74.73q-1.87 5.74.53 5.8 2.85-.02 1.65-5.94l3.43-1.08q1.57 9.75-5.08 9.83-6.72-.06-4.27-9.34z" style="line-height:1.25;-inkscape-font-specification:'Funhouse, Normal';font-variant-ligatures:normal;font-variant-caps:normal;font-variant-numeric:normal;font-feature-settings:normal;text-align:start"/>
      <path d="M452.42 241.1l.6 9.27-3.59.3-.19-4.74-.72 3.26-3.22.45-1.3-3.36.47 3.99-3.28.67.45-9.83 3.22-.43 1.78 5.62 2.17-5.45zM456.1 244.56q2.18-.41 2.13-1.24-.04-.83-2.22-.26zm.33 4.17q3.19-.13 3.2-1.11 0-.98-3.3-.94zm-3.05 2.21l.26-9.1q5.02-2.04 6.9-.2 1.89 1.86-.47 3.73 3.58 1.1 2.3 3.6-1.26 2.5-8.99 1.97z" style="line-height:1.25;-inkscape-font-specification:'Funhouse, Normal';font-variant-ligatures:normal;font-variant-caps:normal;font-variant-numeric:normal;font-feature-settings:normal;text-align:start"/>
      <path d="M470.6 239.84l.18 3.73-4.36.47.05.85 2.87-.27.25 2.54-3 .22.06.69 4.24-.32.63 3.2-8.36.28.85-10.14zM475.3 243.43l.1 1.9q3.52 0 3.52-.71 0-.7-3.61-1.2zm.48 6.94l-3.91.55.81-10.49q9.05.68 9.35 3.63.3 2.94-3.11 4.07l2.8 1.53-2.87 2.54-3.3-4.07z" style="line-height:1.25;-inkscape-font-specification:'Funhouse, Normal';font-variant-ligatures:normal;font-variant-caps:normal;font-variant-numeric:normal;font-feature-settings:normal;text-align:start"/>
      <g style="line-height:1.25;-inkscape-font-specification:'Funhouse, Normal';font-variant-ligatures:normal;font-variant-caps:normal;font-variant-numeric:normal;font-feature-settings:normal;text-align:start">
        <path stroke-width=".26" d="M366.08 246.1q-2.54.35-2.1 1.7l3.7-.28.84 4.03-8.82-.91q-.12-6.06 2.47-6.17 2.58-.12 2.36-.92-.23-.8-3.31-.74l.59-3.17q6.22.51 6.52 3.3.3 2.8-2.25 3.16z" aria-label="2" style="-inkscape-font-specification:'Funhouse, Normal';font-variant-ligatures:normal;font-variant-caps:normal;font-variant-numeric:normal;font-feature-settings:normal;text-align:start"/>
      </g>
    </g>
    <g fill="#00c853" stroke-width=".26" aria-label="up to 20" font-family="Funhouse" font-size="15.88" font-weight="400" letter-spacing="0" style="line-height:1.25;-inkscape-font-specification:'Funhouse, Normal';font-variant-ligatures:normal;font-variant-caps:normal;font-variant-numeric:normal;font-feature-settings:normal;text-align:start" word-spacing="0">
      <path d="M383 273.56l4.13.8q-2.06 6.34.59 6.4 3.15-.01 1.82-6.55l3.78-1.2q1.74 10.77-5.6 10.86-7.42-.07-4.72-10.31z" style="-inkscape-font-specification:'Funhouse, Normal';font-variant-ligatures:normal;font-variant-caps:normal;font-variant-numeric:normal;font-feature-settings:normal;text-align:start"/>
      <path d="M398.47 280.75l.63 2.31-4.05.81-.77-10.38q10.33-1.67 10.85 3.4 0 3.88-6.66 3.86zm-1.06-4.6l.43 1.52q4.19 0 3.94-1.1-.25-1.1-4.37-.41zM415.72 276.32l.38 6.6-4.2 1.09.72-7.9-3.17-.26.24-2.87 9.1-.54.33 4.24zM425.84 283.87q-2.62 0-4.47-1.59-1.85-1.59-1.85-3.84 0-2.24 1.85-3.83 1.85-1.6 4.47-1.6 2.61 0 4.46 1.6 1.85 1.59 1.85 3.83 0 2.25-1.85 3.84-1.85 1.59-4.46 1.59zm-.43-3.39q1.11 0 1.9-.68.8-.68.8-1.64 0-.96-.8-1.65-.79-.68-1.9-.68-1.13 0-1.93.68-.79.69-.79 1.65t.8 1.64q.8.68 1.92.68zM443.65 278.8q-2.8.39-2.3 1.87l4.08-.3.92 4.45-9.74-1.01q-.13-6.68 2.73-6.82 2.85-.13 2.6-1.01t-3.65-.8l.65-3.51q6.87.56 7.2 3.65.32 3.09-2.49 3.48zM453.16 283.87q-2.62 0-4.48-1.59-1.84-1.59-1.84-3.84 0-2.24 1.84-3.83 1.86-1.6 4.48-1.6 2.6 0 4.45 1.6 1.86 1.59 1.86 3.83 0 2.25-1.86 3.84-1.84 1.59-4.45 1.59zm-.44-3.39q1.12 0 1.9-.68.8-.68.8-1.64 0-.96-.8-1.65-.78-.68-1.9-.68-1.12 0-1.92.68-.8.69-.8 1.65t.8 1.64q.8.68 1.92.68z" style="-inkscape-font-specification:'Funhouse, Normal';font-variant-ligatures:normal;font-variant-caps:normal;font-variant-numeric:normal;font-feature-settings:normal;text-align:start"/>
    </g>
    <g>
      <g transform="matrix(0 .88688 -.88688 0 171.43 818.72)">
        <rect width="7.84" height="18.82" x="-712.05" y="-356.04" fill="#e91e63" ry="3.92"/>
        <rect width="7.84" height="18.82" x="-701.07" y="-356.04" fill="#e91e63" ry="3.92"/>
        <rect width="2.21" height="6.35" x="-710.76" y="-353.53" fill="#facedd" ry="1.1"/>
        <rect width="2.21" height="6.35" x="-699.77" y="-353.53" fill="#facedd" ry="1.1"/>
      </g>
      <g style="line-height:1.25;-inkscape-font-specification:'Funhouse, Normal';font-variant-ligatures:normal;font-variant-caps:normal;font-variant-numeric:normal;font-feature-settings:normal;text-align:start">
        <path fill="#fff" stroke="#00c853" stroke-width="1.06" d="M447.32 186.64q-1.14 0-1.94.65-.79.64-.79 1.55 0 .9.79 1.55.8.64 1.94.64 1.12 0 1.9-.64.8-.65.8-1.55 0-.91-.8-1.55-.78-.65-1.9-.65zm.41 10.63q-1.71 0-2.93.7-1.22.7-1.22 1.72 0 1.01 1.22 1.73 1.22.7 2.93.7 1.74 0 2.96-.7 1.22-.72 1.22-1.73 0-1.02-1.22-1.72t-2.96-.7zm7.59-3.37q.8.43 1.55.97 3.41 2.59 3.41 6.24 0 3.64-3.43 6.23-3.41 2.58-8.25 2.58-4.86 0-8.29-2.58-3.4-2.59-3.4-6.23 0-3.65 3.42-6.24.54-.4 1.1-.74-2.2-2.15-2.2-5.1 0-3.25 2.65-5.53 2.65-2.3 6.4-2.3 3.71 0 6.36 2.3 2.64 2.28 2.64 5.52 0 2.8-1.96 4.88z" aria-label="8" font-family="Funhouse" font-size="42.33" font-weight="400" letter-spacing="0" style="-inkscape-font-specification:'Funhouse, Normal';font-variant-ligatures:normal;font-variant-caps:normal;font-variant-numeric:normal;font-feature-settings:normal;text-align:start" word-spacing="0"/>
      </g>
      <g transform="rotate(90 223.85 395.36)">
        <rect width="6.39" height="19.14" x="21.46" y="192.53" fill="#e91e63" ry="3.2"/>
        <rect width="1.63" height="4.69" x="22.61" y="194.78" fill="#facedd" ry=".82"/>
      </g>
      <g fill="#fff" stroke="#00c853" stroke-width="1.06" font-family="Funhouse" font-size="42.33" font-weight="400" letter-spacing="0" word-spacing="0">
        <g style="line-height:1.25;-inkscape-font-specification:'Funhouse, Normal';font-variant-ligatures:normal;font-variant-caps:normal;font-variant-numeric:normal;font-feature-settings:normal;text-align:start">
          <path d="M384.36 186.64q-1.13 0-1.94.65-.79.64-.79 1.55 0 .9.79 1.55.8.64 1.94.64 1.12 0 1.9-.64.81-.65.81-1.55 0-.91-.8-1.55-.8-.65-1.9-.65zm.42 10.63q-1.72 0-2.94.7t-1.22 1.72q0 1.01 1.22 1.73 1.22.7 2.94.7 1.73 0 2.95-.7 1.22-.72 1.22-1.73 0-1.02-1.22-1.72t-2.95-.7zm7.58-3.37q.8.43 1.55.97 3.41 2.59 3.41 6.24 0 3.64-3.43 6.23-3.4 2.58-8.25 2.58t-8.29-2.58q-3.4-2.59-3.4-6.23 0-3.65 3.43-6.24.53-.4 1.1-.74-2.2-2.15-2.2-5.1 0-3.25 2.65-5.53 2.64-2.3 6.38-2.3 3.72 0 6.37 2.3 2.65 2.28 2.65 5.52 0 2.8-1.97 4.88z" aria-label="8" style="-inkscape-font-specification:'Funhouse, Normal';font-variant-ligatures:normal;font-variant-caps:normal;font-variant-numeric:normal;font-feature-settings:normal;text-align:start"/>
        </g>
        <g style="line-height:1.25;-inkscape-font-specification:'Funhouse, Normal';font-variant-ligatures:normal;font-variant-caps:normal;font-variant-numeric:normal;font-feature-settings:normal;text-align:start">
          <path d="M373.82 211.07l-14.14-.6 2.38-19.53-4.88 1.96-1.92-8.14 14.86-4.57z" aria-label="1" style="-inkscape-font-specification:'Funhouse, Normal';font-variant-ligatures:normal;font-variant-caps:normal;font-variant-numeric:normal;font-feature-settings:normal;text-align:start"/>
        </g>
      </g>
    </g>
  </g>
</svg>
