<svg xmlns="http://www.w3.org/2000/svg" viewBox="0 0 270.93 135.47">
  <text x="250.28" y="-242.6" stroke-width=".26" font-family="sans-serif" font-size="10.58" font-weight="400" letter-spacing="0" style="line-height:1.25" word-spacing="0"/>
  <g transform="translate(0 -160.13)">
    <rect width="204.93" height="55.37" x="32.96" y="234.54" fill="#fff" stroke="#00c853" stroke-linecap="round" stroke-linejoin="round" stroke-width="1.32" ry="5.23"/>
    <path fill="#fff" stroke="#00c853" stroke-linecap="round" stroke-linejoin="round" stroke-width="1.32" d="M216.2 220.71a5.18 5.18 0 0 0-5.14 5.25v8.58h21.6c2.9 0 5.23 2.34 5.23 5.23v36.51h26.8a5.18 5.18 0 0 0 5.15-5.24l-9.92-22.54 9.92-22.54c1.16-2.66-2.3-5.25-5.15-5.25z"/>
    <path fill="#00c853" d="M215.78 220.6c-2.15-.1-4.69 3.25-4.69 5.72v8.22h23.78c-.5-.4-1.06-.87-1.68-1.43-3.48-3.15-16.28-12.07-16.28-12.07a1.92 1.92 0 0 0-1.13-.44z"/>
    <path fill="#fff" stroke="#00c853" stroke-linecap="round" stroke-linejoin="round" stroke-width="1.32" d="M6.24 220.71c-2.85 0-6.3 2.6-5.14 5.25L11 248.5 1.1 271.04c0 2.9 2.3 5.24 5.14 5.24h26.72v-36.51c0-2.9 2.33-5.23 5.23-5.23h21.68v-8.58c0-2.91-2.3-5.25-5.15-5.25z"/>
    <path fill="#00c853" d="M55.15 220.6c-.4.02-.78.16-1.13.44 0 0-12.8 8.92-16.27 12.07-.63.56-1.19 1.03-1.7 1.43h23.79v-8.22c0-2.47-2.54-5.82-4.69-5.72z"/>
    <g fill="#00c853" font-family="Funhouse" font-size="19.4" font-weight="400" letter-spacing="0" word-spacing="0">
      <path d="M164.84 267.4l-5.06-2.12 3.44-4.98-3.66.48-1.02-3.52 9.82-.79z" style="line-height:1.25;-inkscape-font-specification:'Funhouse, Normal';font-variant-ligatures:normal;font-variant-caps:normal;font-variant-numeric:normal;font-feature-settings:normal;text-align:start"/>
      <g stroke-width=".26" aria-label="minus" style="line-height:1.25;-inkscape-font-specification:'Funhouse, Normal';font-variant-ligatures:normal;font-variant-caps:normal;font-variant-numeric:normal;font-feature-settings:normal;text-align:start">
        <path d="M114.68 256.42l.64 10.04-3.89.33-.2-5.14-.79 3.54-3.48.48-1.42-3.65.5 4.33-3.55.73.49-10.66 3.5-.47 1.93 6.1 2.35-5.91zM119.25 256.48l.77 10.27-4.3.82.2-10.82zM124.22 261.75l.75 4.36-3.8.97-.77-10 3.82-.66 3.76 4.98.05-4.98 4.72-.49-1.68 11.15-3.02.44z" style="-inkscape-font-specification:'Funhouse, Normal';font-variant-ligatures:normal;font-variant-caps:normal;font-variant-numeric:normal;font-feature-settings:normal;text-align:start"/>
        <path d="M133.66 256.95l4.06.8q-2.03 6.22.57 6.29 3.1-.03 1.8-6.45l3.71-1.17q1.7 10.57-5.5 10.66-7.3-.07-4.64-10.13z" style="-inkscape-font-specification:'Funhouse, Normal';font-variant-ligatures:normal;font-variant-caps:normal;font-variant-numeric:normal;font-feature-settings:normal;text-align:start"/>
        <path d="M147.25 262.87q-2.75-.39-2.43-3.42.32-3.03 7.07-3.59l.64 3.45q-3.35-.08-3.59.79-.24.87 2.56 1 2.8.12 2.74 3.4-.06 3.29-7.38 3.51l-1.35-3.6q3.75.4 4.12-.37.38-.79-2.38-1.17z" style="-inkscape-font-specification:'Funhouse, Normal';font-variant-ligatures:normal;font-variant-caps:normal;font-variant-numeric:normal;font-feature-settings:normal;text-align:start"/>
      </g>
    </g>
    <g fill="#00c853" font-family="Funhouse" font-size="19.4" font-weight="400" letter-spacing="0" word-spacing="0">
      <path d="M90.28 244.15l-.55 3.55-6.4-.66-.32-2.42zM91.07 250.94l-.45-9.83q9.58 0 9.58 4.91 0 4.92-9.13 4.92zm2.5-7.23l.47 3.4q3.04.02 3.04-1.69 0-1.7-3.51-1.7zM103.82 241.16l.72 9.48-3.97.75.18-9.98zM116.14 250.84l-4 1.01.08-1.1q-.78.2-1.65.2-2.35 0-4.01-1.45-1.67-1.44-1.67-3.48 0-2.03 1.67-3.47 1.66-1.44 4.01-1.44 2.36 0 4.02 1.44.84.72 1.26 1.6l-3.37.85q-.17-.45-.6-.82-.71-.61-1.71-.61t-1.72.61q-.72.62-.72 1.5 0 .86.72 1.48.71.62 1.72.62 1 0 1.72-.62.38-.33.6-.74l3.18-.14zM119.75 241.16l.72 9.48-3.98.75.19-9.98zM126.5 244.1l.35 5.98-3.81.99.65-7.15-2.87-.25.23-2.6 8.23-.49.3 3.84zM137.04 246.02l.7 4.03-3.51.9-.71-9.23 3.52-.61 3.47 4.6.04-4.6 4.35-.45-1.54 10.28-2.79.4z" style="line-height:1.25;-inkscape-font-specification:'Funhouse, Normal';font-variant-ligatures:normal;font-variant-caps:normal;font-variant-numeric:normal;font-feature-settings:normal;text-align:start"/>
      <path d="M145.74 241.6l3.74.73q-1.87 5.74.54 5.8 2.85-.02 1.65-5.94l3.42-1.08q1.58 9.75-5.07 9.83-6.73-.06-4.28-9.34z" style="line-height:1.25;-inkscape-font-specification:'Funhouse, Normal';font-variant-ligatures:normal;font-variant-caps:normal;font-variant-numeric:normal;font-feature-settings:normal;text-align:start"/>
      <path d="M166.98 241.1l.59 9.27-3.58.3-.2-4.74-.72 3.26-3.21.45-1.31-3.36.47 3.99-3.28.67.45-9.83 3.22-.43 1.79 5.62 2.16-5.45zM170.65 244.56q2.18-.41 2.14-1.24-.05-.83-2.23-.26zm.34 4.17q3.18-.13 3.19-1.11.01-.98-3.3-.94zm-3.06 2.21l.26-9.1q5.02-2.04 6.9-.2 1.89 1.86-.47 3.73 3.58 1.1 2.3 3.6-1.25 2.5-8.99 1.97z" style="line-height:1.25;-inkscape-font-specification:'Funhouse, Normal';font-variant-ligatures:normal;font-variant-caps:normal;font-variant-numeric:normal;font-feature-settings:normal;text-align:start"/>
      <path d="M185.15 239.84l.19 3.73-4.37.47.05.85 2.87-.27.25 2.54-2.99.22.05.69 4.24-.32.63 3.2-8.36.28.85-10.14zM189.86 243.43l.1 1.9q3.5 0 3.5-.71 0-.7-3.6-1.2zm.47 6.94l-3.91.55.81-10.49q9.05.68 9.35 3.63.31 2.94-3.11 4.07l2.8 1.53-2.87 2.54-3.3-4.07z" style="line-height:1.25;-inkscape-font-specification:'Funhouse, Normal';font-variant-ligatures:normal;font-variant-caps:normal;font-variant-numeric:normal;font-feature-settings:normal;text-align:start"/>
      <g style="line-height:1.25;-inkscape-font-specification:'Funhouse, Normal';font-variant-ligatures:normal;font-variant-caps:normal;font-variant-numeric:normal;font-feature-settings:normal;text-align:start">
        <path stroke-width=".26" d="M80.63 246.1q-2.53.35-2.09 1.7l3.7-.28.84 4.03-8.83-.91q-.11-6.06 2.47-6.17 2.59-.12 2.36-.92-.22-.8-3.3-.74l.58-3.17q6.23.51 6.52 3.3.3 2.8-2.25 3.16z" aria-label="2" style="-inkscape-font-specification:'Funhouse, Normal';font-variant-ligatures:normal;font-variant-caps:normal;font-variant-numeric:normal;font-feature-settings:normal;text-align:start"/>
      </g>
    </g>
    <g fill="#00c853" stroke-width=".26" aria-label="up to 20" font-family="Funhouse" font-size="15.88" font-weight="400" letter-spacing="0" style="line-height:1.25;-inkscape-font-specification:'Funhouse, Normal';font-variant-ligatures:normal;font-variant-caps:normal;font-variant-numeric:normal;font-feature-settings:normal;text-align:start" word-spacing="0">
      <path d="M97.55 273.56l4.13.8q-2.06 6.34.6 6.4 3.14-.01 1.81-6.55l3.79-1.2q1.73 10.77-5.6 10.86-7.43-.07-4.73-10.31z" style="-inkscape-font-specification:'Funhouse, Normal';font-variant-ligatures:normal;font-variant-caps:normal;font-variant-numeric:normal;font-feature-settings:normal;text-align:start"/>
      <path d="M113.02 280.75l.63 2.31-4.05.81-.76-10.38q10.32-1.67 10.84 3.4 0 3.88-6.66 3.86zm-1.06-4.6l.43 1.52q4.2 0 3.94-1.1-.25-1.1-4.37-.41zM130.27 276.32l.38 6.6-4.2 1.09.72-7.9-3.17-.26.25-2.87 9.09-.54.33 4.24zM140.4 283.87q-2.63 0-4.48-1.59-1.84-1.59-1.84-3.84 0-2.24 1.84-3.83 1.85-1.6 4.47-1.6 2.62 0 4.46 1.6 1.85 1.59 1.85 3.83 0 2.25-1.85 3.84-1.84 1.59-4.46 1.59zm-.44-3.39q1.12 0 1.9-.68.8-.68.8-1.64 0-.96-.8-1.65-.78-.68-1.9-.68-1.12 0-1.92.68-.8.69-.8 1.65t.8 1.64q.8.68 1.92.68zM158.2 278.8q-2.8.39-2.3 1.87l4.08-.3.92 4.45-9.74-1.01q-.12-6.68 2.73-6.82 2.85-.13 2.6-1.01t-3.65-.8l.65-3.51q6.87.56 7.2 3.65.32 3.09-2.48 3.48zM167.7 283.87q-2.61 0-4.46-1.59t-1.85-3.84q0-2.24 1.85-3.83 1.85-1.6 4.47-1.6 2.61 0 4.46 1.6 1.85 1.59 1.85 3.83 0 2.25-1.85 3.84-1.85 1.59-4.46 1.59zm-.42-3.39q1.11 0 1.9-.68.8-.68.8-1.64 0-.96-.8-1.65-.79-.68-1.9-.68-1.13 0-1.93.68-.79.69-.79 1.65t.8 1.64q.8.68 1.92.68z" style="-inkscape-font-specification:'Funhouse, Normal';font-variant-ligatures:normal;font-variant-caps:normal;font-variant-numeric:normal;font-feature-settings:normal;text-align:start"/>
    </g>
    <g>
      <g transform="matrix(0 .88688 -.88688 0 -113.37 819.31)">
        <rect width="7.84" height="18.82" x="-712.05" y="-356.04" fill="#e91e63" ry="3.92"/>
        <rect width="7.84" height="18.82" x="-701.07" y="-356.04" fill="#e91e63" ry="3.92"/>
        <rect width="2.21" height="6.35" x="-710.76" y="-353.53" fill="#facedd" ry="1.1"/>
        <rect width="2.21" height="6.35" x="-699.77" y="-353.53" fill="#facedd" ry="1.1"/>
      </g>
      <g style="line-height:1.25;-inkscape-font-specification:'Funhouse, Normal';font-variant-ligatures:normal;font-variant-caps:normal;font-variant-numeric:normal;font-feature-settings:normal;text-align:start">
        <path fill="#fff" stroke="#00c853" stroke-width="1.06" d="M166.92 210.93l-13.73-5.76 9.33-13.52-9.92 1.3-2.77-9.53 26.64-2.15z" aria-label="7" font-family="Funhouse" font-size="42.33" font-weight="400" letter-spacing="0" style="-inkscape-font-specification:'Funhouse, Normal';font-variant-ligatures:normal;font-variant-caps:normal;font-variant-numeric:normal;font-feature-settings:normal;text-align:start" word-spacing="0"/>
      </g>
      <g transform="rotate(90 80.84 252.35)">
        <rect width="6.39" height="19.14" x="21.46" y="192.53" fill="#e91e63" ry="3.2"/>
        <rect width="1.63" height="4.69" x="22.61" y="194.78" fill="#facedd" ry=".82"/>
      </g>
      <g fill="#fff" stroke="#00c853" stroke-width="1.06" font-family="Funhouse" font-size="42.33" font-weight="400" letter-spacing="0" word-spacing="0">
        <g style="line-height:1.25;-inkscape-font-specification:'Funhouse, Normal';font-variant-ligatures:normal;font-variant-caps:normal;font-variant-numeric:normal;font-feature-settings:normal;text-align:start">
          <path d="M102.75 210.93l-13.73-5.76 9.32-13.52-9.92 1.3-2.77-9.53 26.65-2.15z" aria-label="7" style="-inkscape-font-specification:'Funhouse, Normal';font-variant-ligatures:normal;font-variant-caps:normal;font-variant-numeric:normal;font-feature-settings:normal;text-align:start"/>
        </g>
        <g style="line-height:1.25;-inkscape-font-specification:'Funhouse, Normal';font-variant-ligatures:normal;font-variant-caps:normal;font-variant-numeric:normal;font-feature-settings:normal;text-align:start">
          <path d="M87.74 211.67l-14.14-.6 2.38-19.53-4.88 1.96-1.92-8.14 14.86-4.57z" aria-label="1" style="-inkscape-font-specification:'Funhouse, Normal';font-variant-ligatures:normal;font-variant-caps:normal;font-variant-numeric:normal;font-feature-settings:normal;text-align:start"/>
        </g>
      </g>
    </g>
  </g>
</svg>
