<svg xmlns="http://www.w3.org/2000/svg" viewBox="0 0 270.93 135.47">
  <text x="-920.22" y="-82.47" stroke-width=".26" font-family="sans-serif" font-size="10.58" font-weight="400" letter-spacing="0" style="line-height:1.25" word-spacing="0"/>
  <g>
    <path fill="#fff" stroke="#00c853" stroke-linecap="round" stroke-linejoin="round" stroke-width="1.32" d="M216.2 60.58a5.18 5.18 0 0 0-5.14 5.25v8.59h21.6c2.9 0 5.23 2.33 5.23 5.22v36.52h26.8a5.18 5.18 0 0 0 5.15-5.25l-9.92-22.54 9.92-22.54c1.16-2.65-2.3-5.25-5.15-5.25z"/>
    <path fill="#00c853" d="M215.78 60.48c-2.15-.1-4.69 3.24-4.69 5.7v8.24h23.78c-.5-.4-1.06-.87-1.68-1.44-3.48-3.15-16.28-12.06-16.28-12.06a1.92 1.92 0 0 0-1.13-.44z"/>
    <g>
      <path fill="#fff" stroke="#00c853" stroke-linecap="round" stroke-linejoin="round" stroke-width="1.32" d="M6.24 60.58c-2.85 0-6.3 2.6-5.14 5.25L11 88.37 1.1 110.91c0 2.9 2.3 5.25 5.14 5.25h26.72V79.64c0-2.9 2.33-5.22 5.23-5.22h21.68v-8.6c0-2.9-2.3-5.24-5.15-5.24z"/>
      <path fill="#00c853" d="M55.15 60.48c-.4.02-.78.15-1.13.44 0 0-12.8 8.91-16.27 12.06-.63.57-1.19 1.03-1.7 1.44h23.79v-8.23c0-2.47-2.54-5.81-4.69-5.71z"/>
    </g>
    <rect width="204.93" height="55.37" x="32.96" y="74.42" fill="#fff" stroke="#00c853" stroke-linecap="round" stroke-linejoin="round" stroke-width="1.32" ry="5.23"/>
  </g>
  <g fill="#00c853" font-family="Funhouse" font-size="19.4" font-weight="400" letter-spacing="0" word-spacing="0">
    <path d="M162.54 106.67q-5.7-.07-3.43-10.01l4.21.74-1.33 2.64q5.82-1.2 6.03 2.74.22 3.95-5.48 3.89zm.46-2.88q1.3 0 1.3-.88 0-.87-1.3-.87-1.29 0-1.29.87 0 .88 1.3.88z" style="line-height:1.25;-inkscape-font-specification:'Funhouse, Normal';font-variant-ligatures:normal;font-variant-caps:normal;font-variant-numeric:normal;font-feature-settings:normal;text-align:start"/>
    <g stroke-width=".26" aria-label="minus" style="line-height:1.25;-inkscape-font-specification:'Funhouse, Normal';font-variant-ligatures:normal;font-variant-caps:normal;font-variant-numeric:normal;font-feature-settings:normal;text-align:start">
      <path d="M114.63 96.1l.61 9.66-3.74.32-.2-4.95-.75 3.4-3.35.47-1.37-3.51.5 4.16-3.43.7.47-10.25 3.36-.45 1.87 5.86 2.25-5.69zM119.02 96.15l.75 9.9-4.15.77.2-10.4zM123.81 101.23l.73 4.2-3.66.93-.74-9.63 3.67-.63 3.62 4.79.04-4.8 4.55-.46-1.61 10.73-2.91.42z" style="-inkscape-font-specification:'Funhouse, Normal';font-variant-ligatures:normal;font-variant-caps:normal;font-variant-numeric:normal;font-feature-settings:normal;text-align:start"/>
      <path d="M132.89 96.6l3.9.77q-1.94 5.99.56 6.05 2.98-.02 1.73-6.2l3.57-1.12q1.64 10.17-5.3 10.26-7.01-.07-4.46-9.75z" style="-inkscape-font-specification:'Funhouse, Normal';font-variant-ligatures:normal;font-variant-caps:normal;font-variant-numeric:normal;font-feature-settings:normal;text-align:start"/>
      <path d="M145.97 102.3q-2.64-.37-2.34-3.29.31-2.91 6.8-3.45l.62 3.31q-3.22-.07-3.45.77-.24.83 2.46.96 2.7.12 2.64 3.28-.06 3.16-7.1 3.37l-1.3-3.47q3.6.4 3.97-.36.36-.75-2.3-1.12z" style="-inkscape-font-specification:'Funhouse, Normal';font-variant-ligatures:normal;font-variant-caps:normal;font-variant-numeric:normal;font-feature-settings:normal;text-align:start"/>
    </g>
  </g>
  <g fill="#00c853" font-family="Funhouse" font-size="19.4" font-weight="400" letter-spacing="0" word-spacing="0">
    <path d="M90.32 84.02l-.55 3.55-6.4-.65-.32-2.43zM91.11 90.81l-.45-9.83q9.58 0 9.58 4.92 0 4.91-9.13 4.91zm2.5-7.22l.47 3.4q3.04.01 3.04-1.7 0-1.7-3.5-1.7zM103.87 81.04l.71 9.47-3.97.75.18-9.98zM116.18 90.72l-4 1 .08-1.1q-.78.2-1.65.2-2.35 0-4.01-1.45-1.67-1.44-1.67-3.47 0-2.04 1.67-3.48 1.66-1.44 4.01-1.44 2.36 0 4.02 1.44.84.72 1.26 1.6l-3.37.85q-.17-.45-.6-.81-.7-.62-1.71-.62-1 0-1.72.62t-.72 1.49q0 .87.72 1.49.71.61 1.72.61 1 0 1.72-.61.38-.34.6-.75l3.18-.14zM119.8 81.04l.71 9.47-3.97.75.18-9.98zM126.54 83.97l.35 5.99-3.8.98.64-7.15-2.87-.24.23-2.6 8.23-.5.3 3.85zM137.08 85.9l.7 4.02-3.51.9-.71-9.23 3.52-.6 3.47 4.58.04-4.59 4.35-.45-1.54 10.28-2.79.41z" style="line-height:1.25;-inkscape-font-specification:'Funhouse, Normal';font-variant-ligatures:normal;font-variant-caps:normal;font-variant-numeric:normal;font-feature-settings:normal;text-align:start"/>
    <path d="M145.78 81.47l3.74.73q-1.86 5.74.54 5.8 2.85-.02 1.65-5.94l3.43-1.08q1.57 9.75-5.08 9.83-6.72-.06-4.28-9.34z" style="line-height:1.25;-inkscape-font-specification:'Funhouse, Normal';font-variant-ligatures:normal;font-variant-caps:normal;font-variant-numeric:normal;font-feature-settings:normal;text-align:start"/>
    <path d="M167.02 80.98l.59 9.27-3.58.3-.2-4.74-.72 3.26-3.21.44-1.3-3.36.46 3.99-3.28.67.45-9.83 3.22-.43 1.79 5.62 2.16-5.45zM170.7 84.43q2.17-.4 2.13-1.24-.05-.82-2.23-.26zm.33 4.17q3.18-.12 3.19-1.1.01-1-3.3-.95zm-3.06 2.21l.26-9.1q5.03-2.03 6.9-.19 1.89 1.85-.47 3.72 3.58 1.1 2.31 3.6-1.26 2.5-9 1.97z" style="line-height:1.25;-inkscape-font-specification:'Funhouse, Normal';font-variant-ligatures:normal;font-variant-caps:normal;font-variant-numeric:normal;font-feature-settings:normal;text-align:start"/>
    <path d="M185.2 79.72l.18 3.72-4.37.47.06.85 2.86-.27.25 2.55-2.99.21.05.7 4.24-.33.64 3.2-8.37.28.85-10.13zM189.9 83.3l.1 1.9q3.51 0 3.51-.7t-3.6-1.2zm.47 6.95l-3.91.54.81-10.48q9.05.67 9.35 3.62.31 2.94-3.1 4.07l2.8 1.53-2.88 2.55-3.3-4.08z" style="line-height:1.25;-inkscape-font-specification:'Funhouse, Normal';font-variant-ligatures:normal;font-variant-caps:normal;font-variant-numeric:normal;font-feature-settings:normal;text-align:start"/>
    <g style="line-height:1.25;-inkscape-font-specification:'Funhouse, Normal';font-variant-ligatures:normal;font-variant-caps:normal;font-variant-numeric:normal;font-feature-settings:normal;text-align:start">
      <path stroke-width=".26" d="M80.67 85.98q-2.53.35-2.09 1.69l3.7-.28.84 4.04-8.83-.92q-.11-6.05 2.47-6.17 2.59-.12 2.36-.92-.22-.8-3.3-.73l.58-3.18q6.23.52 6.52 3.31.3 2.8-2.25 3.16z" aria-label="2" style="-inkscape-font-specification:'Funhouse, Normal';font-variant-ligatures:normal;font-variant-caps:normal;font-variant-numeric:normal;font-feature-settings:normal;text-align:start"/>
    </g>
  </g>
  <g fill="#00c853" stroke-width=".26" aria-label="up to 20" font-family="Funhouse" font-size="15.88" font-weight="400" letter-spacing="0" style="line-height:1.25;-inkscape-font-specification:'Funhouse, Normal';font-variant-ligatures:normal;font-variant-caps:normal;font-variant-numeric:normal;font-feature-settings:normal;text-align:start" word-spacing="0">
    <path d="M97.6 113.43l4.12.81q-2.06 6.33.6 6.4 3.14-.02 1.81-6.55l3.79-1.2q1.73 10.76-5.6 10.85-7.43-.07-4.73-10.3z" style="-inkscape-font-specification:'Funhouse, Normal';font-variant-ligatures:normal;font-variant-caps:normal;font-variant-numeric:normal;font-feature-settings:normal;text-align:start"/>
    <path d="M113.06 120.62l.63 2.32-4.04.8-.77-10.38q10.32-1.66 10.84 3.4 0 3.88-6.66 3.86zm-1.06-4.59l.44 1.51q4.18 0 3.93-1.1-.24-1.1-4.37-.4zM130.31 116.2l.38 6.6-4.2 1.08.72-7.89-3.17-.27.25-2.87 9.1-.54.32 4.24zM140.43 123.74q-2.62 0-4.47-1.59-1.84-1.58-1.84-3.83t1.84-3.84q1.85-1.59 4.47-1.59 2.62 0 4.46 1.59 1.85 1.59 1.85 3.84t-1.85 3.83q-1.84 1.6-4.46 1.6zm-.43-3.38q1.12 0 1.9-.69.8-.68.8-1.64 0-.96-.8-1.64-.78-.68-1.9-.68-1.12 0-1.92.68-.8.68-.8 1.64 0 .96.8 1.64.8.69 1.92.69zM158.25 118.67q-2.8.4-2.31 1.87l4.08-.3.92 4.45-9.74-1q-.12-6.69 2.73-6.82 2.85-.13 2.6-1.02-.24-.88-3.65-.8l.65-3.5q6.87.56 7.2 3.64.32 3.09-2.48 3.48zM167.75 123.74q-2.62 0-4.47-1.59-1.85-1.58-1.85-3.83t1.85-3.84q1.85-1.59 4.47-1.59 2.61 0 4.46 1.59t1.85 3.84q0 2.25-1.85 3.83-1.85 1.6-4.46 1.6zm-.43-3.38q1.11 0 1.9-.69.8-.68.8-1.64 0-.96-.8-1.64-.79-.68-1.9-.68-1.13 0-1.93.68-.79.68-.79 1.64 0 .96.8 1.64.8.69 1.92.69z" style="-inkscape-font-specification:'Funhouse, Normal';font-variant-ligatures:normal;font-variant-caps:normal;font-variant-numeric:normal;font-feature-settings:normal;text-align:start"/>
  </g>
  <g transform="matrix(0 .88688 -.88688 0 -112.48 658.4)">
    <rect width="7.84" height="18.82" x="-712.05" y="-356.04" fill="#e91e63" ry="3.92"/>
    <rect width="7.84" height="18.82" x="-701.07" y="-356.04" fill="#e91e63" ry="3.92"/>
    <rect width="2.21" height="6.35" x="-710.76" y="-353.53" fill="#facedd" ry="1.1"/>
    <rect width="2.21" height="6.35" x="-699.77" y="-353.53" fill="#facedd" ry="1.1"/>
  </g>
  <g style="line-height:1.25;-inkscape-font-specification:'Funhouse, Normal';font-variant-ligatures:normal;font-variant-caps:normal;font-variant-numeric:normal;font-feature-settings:normal;text-align:start">
    <path fill="#fff" stroke="#00c853" stroke-width="1.06" d="M162.03 49.4q-16.06-.19-9.66-28.24l11.87 2.09-3.76 7.46q16.43-3.41 17.03 7.73.6 11.12-15.48 10.96zm1.32-8.1q3.66 0 3.66-2.49 0-2.48-3.66-2.48-3.64 0-3.64 2.48t3.64 2.48z" aria-label="6" font-family="Funhouse" font-size="42.33" font-weight="400" letter-spacing="0" style="-inkscape-font-specification:'Funhouse, Normal';font-variant-ligatures:normal;font-variant-caps:normal;font-variant-numeric:normal;font-feature-settings:normal;text-align:start" word-spacing="0"/>
  </g>
  <g transform="rotate(90 160.28 173.73)">
    <rect width="6.39" height="19.14" x="21.46" y="192.53" fill="#e91e63" ry="3.2"/>
    <rect width="1.63" height="4.69" x="22.61" y="194.78" fill="#facedd" ry=".82"/>
  </g>
  <g fill="#fff" stroke="#00c853" stroke-width="1.06" font-family="Funhouse" font-size="42.33" font-weight="400" letter-spacing="0" word-spacing="0">
    <g style="line-height:1.25;-inkscape-font-specification:'Funhouse, Normal';font-variant-ligatures:normal;font-variant-caps:normal;font-variant-numeric:normal;font-feature-settings:normal;text-align:start">
      <path d="M97.78 49.4q-16.07-.19-9.66-28.24L100 23.25l-3.76 7.46q16.43-3.41 17.03 7.73.6 11.12-15.48 10.96zm1.32-8.1q3.66 0 3.66-2.49 0-2.48-3.66-2.48-3.64 0-3.64 2.48t3.64 2.48z" aria-label="6" style="-inkscape-font-specification:'Funhouse, Normal';font-variant-ligatures:normal;font-variant-caps:normal;font-variant-numeric:normal;font-feature-settings:normal;text-align:start"/>
    </g>
    <g style="line-height:1.25;-inkscape-font-specification:'Funhouse, Normal';font-variant-ligatures:normal;font-variant-caps:normal;font-variant-numeric:normal;font-feature-settings:normal;text-align:start">
      <path d="M86.84 50.75l-14.14-.6 2.38-19.53-4.88 1.96-1.92-8.14 14.86-4.57z" aria-label="1" style="-inkscape-font-specification:'Funhouse, Normal';font-variant-ligatures:normal;font-variant-caps:normal;font-variant-numeric:normal;font-feature-settings:normal;text-align:start"/>
    </g>
  </g>
</svg>
