<svg xmlns="http://www.w3.org/2000/svg" viewBox="0 0 270.93 135.47">
  <g transform="translate(0 -503.92)">
    <path fill="#fff" stroke="#00c853" stroke-linecap="round" stroke-linejoin="round" stroke-width="1.32" d="M216.2 564.5a5.18 5.18 0 0 0-5.14 5.25v8.58h21.6c2.9 0 5.23 2.34 5.23 5.23v36.51h26.8a5.18 5.18 0 0 0 5.15-5.24l-9.92-22.54 9.92-22.54c1.16-2.66-2.3-5.25-5.15-5.25z"/>
    <path fill="#00c853" d="M215.78 564.4c-2.15-.1-4.69 3.24-4.69 5.7v8.23h23.78c-.5-.4-1.06-.87-1.68-1.43-3.48-3.15-16.28-12.07-16.28-12.07a1.92 1.92 0 0 0-1.13-.44z"/>
    <g>
      <path fill="#fff" stroke="#00c853" stroke-linecap="round" stroke-linejoin="round" stroke-width="1.32" d="M6.24 564.5c-2.85 0-6.3 2.6-5.14 5.25L11 592.29 1.1 614.83c0 2.9 2.3 5.24 5.14 5.24h26.72v-36.51c0-2.9 2.33-5.23 5.23-5.23h21.68v-8.58c0-2.91-2.3-5.25-5.15-5.25z"/>
      <path fill="#00c853" d="M55.15 564.4c-.4.01-.78.15-1.13.43 0 0-12.8 8.92-16.27 12.07-.63.56-1.19 1.03-1.7 1.43h23.79v-8.22c0-2.47-2.54-5.82-4.69-5.72z"/>
    </g>
    <rect width="204.93" height="55.37" x="32.96" y="578.33" fill="#fff" stroke="#00c853" stroke-linecap="round" stroke-linejoin="round" stroke-width="1.32" ry="5.23"/>
  </g>
  <g fill="#00c853" stroke-width=".26" font-family="Funhouse" font-size="15.88" font-weight="400" letter-spacing="0" word-spacing="0">
    <g aria-label="find the" style="line-height:1.25;-inkscape-font-specification:'Funhouse, Normal';font-variant-ligatures:normal;font-variant-caps:normal;font-variant-numeric:normal;font-feature-settings:normal;text-align:start">
      <path d="M107.14 78.1l-.65 4.5-3.78-.2.16.77 3 .34-.42 3.23-2.07-.47.7 3.37-3.8.5-.85-10.17zM111.12 79.36l.8 10.45-4.4.83.2-11.01zM116.18 84.72l.77 4.44-3.87.99-.78-10.18 3.88-.67 3.83 5.06.05-5.06 4.8-.5-1.7 11.35-3.08.45zM125.76 90.15l-.5-10.85q10.57 0 10.57 5.42 0 5.43-10.07 5.43zm2.75-7.98l.52 3.75q3.36.02 3.36-1.87 0-1.88-3.88-1.88zM146.44 82.6l.38 6.6-4.2 1.09.72-7.9-3.17-.27.25-2.86 9.1-.55.33 4.24zM154.29 86.88l.28 2.62-2.97.52-1.35-8.6 3.3-1.4.37 3.72 2.98-.34.05-3.4 5.17.53-1.98 9.52-3.32-.98.03-2.47zM170.22 77.9l.2 4.1-4.82.53.06.94 3.16-.3.28 2.8-3.3.25.05.76 4.69-.36.7 3.53-9.24.32.94-11.19z" style="-inkscape-font-specification:'Funhouse, Normal';font-variant-ligatures:normal;font-variant-caps:normal;font-variant-numeric:normal;font-feature-settings:normal;text-align:start"/>
    </g>
    <g aria-label="missing number" style="line-height:1.25;-inkscape-font-specification:'Funhouse, Normal';font-variant-ligatures:normal;font-variant-caps:normal;font-variant-numeric:normal;font-feature-settings:normal;text-align:start">
      <path d="M76.94 96.49l.65 10.22-3.95.34-.21-5.23-.8 3.6-3.55.49-1.44-3.71.52 4.4-3.62.74.5-10.85 3.55-.47 1.97 6.2 2.39-6.02zM81.59 96.55l.79 10.46-4.39.83.2-11.02zM85.57 103.06q-2.8-.4-2.48-3.48.33-3.09 7.2-3.66l.65 3.5q-3.4-.07-3.65.81-.25.89 2.6 1.02t2.8 3.47q-.07 3.34-7.52 3.57l-1.37-3.67q3.81.41 4.2-.38.37-.8-2.43-1.18z" style="-inkscape-font-specification:'Funhouse, Normal';font-variant-ligatures:normal;font-variant-caps:normal;font-variant-numeric:normal;font-feature-settings:normal;text-align:start"/>
      <path d="M95.12 103.06q-2.8-.4-2.48-3.48.33-3.09 7.2-3.66l.65 3.5q-3.4-.07-3.65.81-.25.89 2.6 1.02t2.8 3.47q-.07 3.34-7.52 3.57l-1.37-3.67q3.81.41 4.2-.38.37-.8-2.43-1.18zM106.27 96.55l.79 10.46-4.39.83.2-11.02zM111.33 101.92l.77 4.44-3.87.98-.78-10.18 3.88-.67 3.83 5.07.05-5.07 4.8-.5-1.7 11.35-3.08.45zM132.36 107.23l-4.41 1.12.08-1.22q-.86.21-1.82.21-2.6 0-4.43-1.59-1.84-1.59-1.84-3.83 0-2.25 1.84-3.84 1.84-1.59 4.43-1.59 2.6 0 4.44 1.59.92.8 1.39 1.77l-3.73.93q-.18-.5-.65-.9-.79-.68-1.9-.68-1.1 0-1.9.69-.79.68-.79 1.64 0 .96.8 1.64.79.68 1.9.68 1.1 0 1.9-.68.42-.37.65-.82l3.52-.15zM140.57 101.92l.77 4.44-3.87.98-.78-10.18 3.88-.67 3.83 5.07.05-5.07 4.8-.5-1.7 11.35-3.08.45z" style="-inkscape-font-specification:'Funhouse, Normal';font-variant-ligatures:normal;font-variant-caps:normal;font-variant-numeric:normal;font-feature-settings:normal;text-align:start"/>
      <path d="M150.17 97.03l4.14.8q-2.07 6.34.58 6.41 3.15-.02 1.83-6.56l3.78-1.19q1.74 10.76-5.6 10.85-7.42-.07-4.73-10.3z" style="-inkscape-font-specification:'Funhouse, Normal';font-variant-ligatures:normal;font-variant-caps:normal;font-variant-numeric:normal;font-feature-settings:normal;text-align:start"/>
      <path d="M173.61 96.49l.66 10.22-3.96.34-.2-5.23-.8 3.6-3.56.49-1.44-3.71.52 4.4-3.62.74.5-10.85 3.56-.47 1.96 6.2 2.4-6.02zM177.67 100.3q2.4-.45 2.35-1.37-.04-.91-2.45-.28zm.37 4.6q3.51-.14 3.52-1.22.01-1.09-3.64-1.04zm-3.37 2.44l.29-10.04q5.54-2.25 7.61-.21 2.08 2.04-.52 4.1 3.95 1.22 2.55 3.98-1.4 2.75-9.93 2.17z" style="-inkscape-font-specification:'Funhouse, Normal';font-variant-ligatures:normal;font-variant-caps:normal;font-variant-numeric:normal;font-feature-settings:normal;text-align:start"/>
      <path d="M193.68 95.1l.2 4.1-4.82.52.06.94 3.16-.3.28 2.81-3.3.24.05.76 4.68-.35.7 3.52-9.23.32.94-11.19zM198.87 99.05l.1 2.1q3.88 0 3.88-.78t-3.98-1.32zm.52 7.66l-4.32.6.9-11.56q9.98.74 10.32 4 .34 3.24-3.44 4.5l3.1 1.67-3.17 2.82-3.64-4.5z" style="-inkscape-font-specification:'Funhouse, Normal';font-variant-ligatures:normal;font-variant-caps:normal;font-variant-numeric:normal;font-feature-settings:normal;text-align:start"/>
    </g>
    <g aria-label="1-digit subtractions" style="line-height:1.25;-inkscape-font-specification:'Funhouse, Normal';font-variant-ligatures:normal;font-variant-caps:normal;font-variant-numeric:normal;font-feature-settings:normal;text-align:start">
      <path d="M47.65 124.8l-5.3-.23.89-7.32-1.83.74-.72-3.06 5.57-1.71zM55.6 117.41l-.6 3.92-7.07-.72-.36-2.68zM56.47 124.9l-.5-10.84q10.58 0 10.58 5.42 0 5.43-10.08 5.43zm2.76-7.97l.52 3.75q3.36.02 3.36-1.87 0-1.88-3.88-1.88zM70.55 114.12l.79 10.45-4.39.83.2-11.01zM84.14 124.8l-4.4 1.11.07-1.22q-.86.22-1.81.22-2.6 0-4.44-1.6-1.83-1.58-1.83-3.83t1.83-3.84q1.84-1.58 4.44-1.58 2.6 0 4.43 1.58.92.8 1.39 1.77l-3.72.94q-.19-.5-.65-.9-.8-.68-1.9-.68-1.11 0-1.9.68-.8.68-.8 1.64 0 .96.8 1.65.79.68 1.9.68 1.1 0 1.9-.68.42-.38.66-.82l3.52-.16zM88.13 114.12l.79 10.45-4.39.83.2-11.01zM95.58 117.36l.38 6.6-4.2 1.09.72-7.9-3.17-.27.25-2.86 9.09-.55.33 4.24zM106.12 120.62q-2.8-.4-2.47-3.48.32-3.08 7.2-3.65l.64 3.5q-3.4-.07-3.65.8-.25.9 2.6 1.02 2.86.14 2.8 3.48-.07 3.34-7.52 3.56l-1.37-3.66q3.82.4 4.2-.38.38-.8-2.43-1.19z" style="-inkscape-font-specification:'Funhouse, Normal';font-variant-ligatures:normal;font-variant-caps:normal;font-variant-numeric:normal;font-feature-settings:normal;text-align:start"/>
      <path d="M114.6 114.6l4.14.8q-2.06 6.34.59 6.4 3.15-.02 1.82-6.55l3.78-1.2q1.74 10.76-5.6 10.86-7.42-.07-4.72-10.31z" style="-inkscape-font-specification:'Funhouse, Normal';font-variant-ligatures:normal;font-variant-caps:normal;font-variant-numeric:normal;font-feature-settings:normal;text-align:start"/>
      <path d="M128.9 117.86q2.4-.45 2.35-1.36-.05-.92-2.46-.29zm.37 4.6q3.5-.13 3.52-1.22.01-1.08-3.64-1.04zm-3.38 2.45l.3-10.04q5.53-2.26 7.61-.22 2.08 2.04-.53 4.11 3.96 1.22 2.55 3.98-1.4 2.75-9.93 2.17z" style="-inkscape-font-specification:'Funhouse, Normal';font-variant-ligatures:normal;font-variant-caps:normal;font-variant-numeric:normal;font-feature-settings:normal;text-align:start"/>
      <path d="M141.75 117.36l.38 6.6-4.2 1.09.72-7.9-3.17-.27.24-2.86 9.1-.55.33 4.24zM149.35 116.61l.1 2.1q3.88 0 3.88-.78 0-.77-3.98-1.32zm.52 7.67l-4.32.6.9-11.57q9.99.75 10.32 4 .34 3.25-3.44 4.5l3.1 1.68-3.17 2.81-3.64-4.5zM160.19 123.36l-.55 1.55-3.05-1.85 3.83-9 2.91-.2 4.58 9.32-3.61 1.73-.8-2.18zm2.65-3.4l-.87-2.8-1.02 3.1zM178.08 123.32q-1.83 1.59-4.43 1.59-2.6 0-4.43-1.6-1.84-1.58-1.84-3.83t1.84-3.84q1.83-1.58 4.43-1.58 2.6 0 4.43 1.58.93.8 1.4 1.77l-3.73.94q-.18-.5-.65-.9-.79-.68-1.9-.68-1.1 0-1.9.68-.79.68-.79 1.64 0 .96.8 1.65.78.68 1.9.68 1.1 0 1.9-.68.42-.38.62-.84l3.73 1.65q-.45.97-1.38 1.77zM186.15 117.36l.38 6.6-4.2 1.09.72-7.9-3.17-.27.24-2.86 9.1-.55.33 4.24zM193.55 114.12l.79 10.45-4.39.83.2-11.01zM201.04 124.9q-2.62 0-4.47-1.58-1.84-1.6-1.84-3.84 0-2.25 1.84-3.84 1.85-1.58 4.47-1.58 2.62 0 4.46 1.58 1.85 1.6 1.85 3.84 0 2.25-1.85 3.84-1.84 1.59-4.46 1.59zm-.43-3.38q1.12 0 1.9-.68.8-.68.8-1.65 0-.96-.8-1.64-.78-.68-1.9-.68-1.12 0-1.92.68-.8.68-.8 1.64 0 .97.8 1.65.8.68 1.92.68zM211.63 119.48l.77 4.44-3.87.99-.78-10.18 3.88-.67 3.83 5.06.05-5.06 4.8-.5-1.7 11.35-3.08.45zM223.04 120.62q-2.8-.4-2.47-3.48.33-3.08 7.2-3.65l.65 3.5q-3.4-.07-3.66.8-.24.9 2.6 1.02 2.86.14 2.8 3.48-.06 3.34-7.51 3.56l-1.37-3.66q3.81.4 4.19-.38.38-.8-2.43-1.19z" style="-inkscape-font-specification:'Funhouse, Normal';font-variant-ligatures:normal;font-variant-caps:normal;font-variant-numeric:normal;font-feature-settings:normal;text-align:start"/>
    </g>
  </g>
  <g>
    <path fill="#e91e63" d="M172.73 14.4c0 1.98-1.6 3.58-3.59 3.58h-10.03a3.58 3.58 0 1 1 0-7.17h10.03c1.99 0 3.59 1.6 3.59 3.58zM172.73 24.43c0 1.99-1.6 3.58-3.59 3.58h-10.03a3.58 3.58 0 1 1 0-7.16h10.03c1.99 0 3.59 1.6 3.59 3.58z"/>
    <path fill="#facedd" d="M170.44 13a1 1 0 0 1-1.01 1h-3.79a1 1 0 1 1 0-2.02h3.79a1 1 0 0 1 1 1.01zM170.44 23.05a1 1 0 0 1-1.01 1h-3.79a1 1 0 1 1 0-2.01h3.79a1 1 0 0 1 1 1z"/>
    <path fill="#fff" stroke="#00c853" stroke-width="1.06" d="M186.68 6.3l-8.79 17.13 9.84 1.29-1.4 8.27 10.18-1.26-.29-5.84 3.74.4 1.4-7.55-5.35-.14V5.86zm-.95 11.6l1.98-4.7 2.05.2-.84 4.8zM137.5 33.32q-1.47 0-2.52-1.03-1.04-1.06-1.04-2.53 0-1.48 1.04-2.52 1.05-1.05 2.53-1.05 1.48 0 2.51 1.05 1.05 1.04 1.05 2.52 0 1.47-1.05 2.53-1.03 1.03-2.51 1.03zm-4.59-15.47q8.16-.57 8.32-2.19.16-1.62-11.2.93l-1.61-6.88q20.47-5.61 21.56 3.81.84 7.25-9.09 9.78l.52 1.29-7.75 1.33z" font-family="Funhouse" font-size="35.28" font-weight="400" letter-spacing="0" style="line-height:1.25;-inkscape-font-specification:'Funhouse, Normal';font-variant-ligatures:normal;font-variant-caps:normal;font-variant-numeric:normal;font-feature-settings:normal;text-align:start" word-spacing="0"/>
    <g fill="#fff" stroke="#00c853" stroke-width="1.06" aria-label="7" font-family="Funhouse" font-size="35.28" font-weight="400" letter-spacing="0" style="line-height:1.25;-inkscape-font-specification:'Funhouse, Normal';font-variant-ligatures:normal;font-variant-caps:normal;font-variant-numeric:normal;font-feature-settings:normal;text-align:start" word-spacing="0">
      <path d="M85.12 31.74l-11.44-4.8 7.77-11.27-8.27 1.08-2.3-7.94 22.2-1.79z" style="-inkscape-font-specification:'Funhouse, Normal';font-variant-ligatures:normal;font-variant-caps:normal;font-variant-numeric:normal;font-feature-settings:normal;text-align:start"/>
    </g>
    <g transform="matrix(0 1.06253 -1.06253 0 -257.22 805.57)">
      <rect width="7.84" height="18.82" x="-743.81" y="-356.04" fill="#e91e63" ry="3.92"/>
      <rect width="2.21" height="6.35" x="-742.53" y="-353.53" fill="#facedd" ry="1.1"/>
    </g>
    <g>
      <path fill="#fff" stroke="#00c853" stroke-width="1.06" d="M137.52 67.8q-13.4-.14-8.06-23.52l9.89 1.74-3.14 6.22q13.7-2.84 14.2 6.43.5 9.28-12.89 9.13zm1.1-6.74q3.04 0 3.04-2.07 0-2.06-3.03-2.06-3.05 0-3.05 2.06 0 2.07 3.05 2.07z" font-family="Funhouse" font-size="35.28" font-weight="400" letter-spacing="0" style="line-height:1.25;-inkscape-font-specification:'Funhouse, Normal';font-variant-ligatures:normal;font-variant-caps:normal;font-variant-numeric:normal;font-feature-settings:normal;text-align:start" word-spacing="0"/>
      <path fill="#e91e63" d="M172.73 48.87c0 1.99-1.6 3.59-3.59 3.59h-10.03a3.58 3.58 0 1 1 0-7.17h10.03c1.99 0 3.59 1.6 3.59 3.58zM172.73 58.91c0 1.99-1.6 3.59-3.59 3.59h-10.03a3.58 3.58 0 1 1 0-7.17h10.03c1.99 0 3.59 1.6 3.59 3.58z"/>
      <path fill="#facedd" d="M170.44 47.47a1 1 0 0 1-1.01 1.01h-3.79a1 1 0 1 1 0-2.01h3.79a1 1 0 0 1 1 1zM170.44 57.53a1 1 0 0 1-1.01 1h-3.79a1 1 0 1 1 0-2.01h3.79a1 1 0 0 1 1 1z"/>
      <path fill="#fff" stroke="#00c853" stroke-width="1.06" d="M80.33 67.8q-1.48 0-2.53-1.03-1.03-1.05-1.03-2.53 0-1.48 1.03-2.52 1.05-1.05 2.53-1.05 1.48 0 2.52 1.05 1.05 1.04 1.05 2.52 0 1.47-1.05 2.53-1.04 1.03-2.52 1.03zm-4.6-15.47q8.17-.57 8.33-2.19.16-1.62-11.21.93l-1.6-6.88Q91.72 38.58 92.8 48q.83 7.26-9.1 9.79l.53 1.28-7.76 1.34z" font-family="Funhouse" font-size="35.28" font-weight="400" letter-spacing="0" style="line-height:1.25;-inkscape-font-specification:'Funhouse, Normal';font-variant-ligatures:normal;font-variant-caps:normal;font-variant-numeric:normal;font-feature-settings:normal;text-align:start" word-spacing="0"/>
      <g fill="#fff" stroke="#00c853" stroke-width="1.06" aria-label="3" font-family="Funhouse" font-size="35.28" font-weight="400" letter-spacing="0" style="line-height:1.25;-inkscape-font-specification:'Funhouse, Normal';font-variant-ligatures:normal;font-variant-caps:normal;font-variant-numeric:normal;font-feature-settings:normal;text-align:start" word-spacing="0">
        <path d="M194.25 54.53q5.5.55 4.46 6.3-1.02 5.76-16.92 7.2l-1.44-8.6q10.45.26 10.45-1.35 0-1.64-4.11-.93l-1.14-6.02q5.25-.05 5.2-2.08-.05-2.03-9.3.2l1-7.25q14.8-.98 16.04 4.76 1.25 5.72-4.24 7.77z" style="-inkscape-font-specification:'Funhouse, Normal';font-variant-ligatures:normal;font-variant-caps:normal;font-variant-numeric:normal;font-feature-settings:normal;text-align:start"/>
      </g>
      <g transform="matrix(0 1.06253 -1.06253 0 -257.22 840.05)">
        <rect width="7.84" height="18.82" x="-743.81" y="-356.04" fill="#e91e63" ry="3.92"/>
        <rect width="2.21" height="6.35" x="-742.53" y="-353.53" fill="#facedd" ry="1.1"/>
      </g>
    </g>
  </g>
</svg>
