<?xml version="1.0" encoding="UTF-8"?>
<!-- Created with Inkscape (http://www.inkscape.org/) -->
<svg width="112.31382mm" height="86.755219mm" version="1.1" viewBox="0 0 112.31382 86.755216" xmlns="http://www.w3.org/2000/svg" xmlns:cc="http://creativecommons.org/ns#" xmlns:dc="http://purl.org/dc/elements/1.1/" xmlns:rdf="http://www.w3.org/1999/02/22-rdf-syntax-ns#">
 <metadata>
  <rdf:RDF>
   <cc:Work rdf:about="">
    <dc:format>image/svg+xml</dc:format>
    <dc:type rdf:resource="http://purl.org/dc/dcmitype/StillImage"/>
    <dc:title/>
   </cc:Work>
  </rdf:RDF>
 </metadata>
 <circle transform="scale(-1,1)" cx="-136.24588" cy="-27.082281" r="0" fill="#9ed1fa" stroke-width=".19842261"/>
 <g transform="translate(-5.614726,-30.820308)">
  <g transform="translate(-45.366217,6.340352)">
   <circle transform="scale(-1,1)" cx="-10.786873" cy="9.6006289" r="0" fill="#9ed1fa" stroke-width=".19842261"/>
   <rect x="104.00741" y="105.25736" width="6.2624664" height="5.9778094" ry="1.6907219" fill="#0c7dd6"/>
   <path d="m69.265576 70.587245 76.891974-0.569319c0.93664-0.0072 1.31194 0.834082 1.69073 1.690722l15.37151 34.762672c0.3788 0.85663-0.75406 1.69072-1.69072 1.69072h-108.773643c-0.936658 0-2.097985-0.84725-1.690715-1.69072l16.510138-34.193353c0.40727-0.843485 0.754089-1.683788 1.690726-1.690722z" fill="#2196f3"/>
   <rect x="106.7627" y="104.41" width=".75188559" height="4.7619419" ry=".3759428" fill="#0c7dd6"/>
   <path d="m69.499466 73.358829h76.344974c0.87189 0 1.27234 0.672931 1.57382 1.401431l11.92389 28.81454c0.30147 0.72851-0.70192 1.40144-1.57381 1.40144h-101.252667c-0.871897 0-1.8985-0.68088-1.57382-1.40144l12.983793-28.81454c0.32468-0.72055 0.701924-1.401431 1.57382-1.401431z" fill="#ffeeb4"/>
   <path d="m106.244 74.520672s20.75541-14.228621 35.42734-6.640023l15.38765 33.200111s-25.04964-10.434311-50.09928 3.79428c0 0-24.333931-14.860985-49.741429-3.79428l15.745491-33.832488s26.481039-5.37527 33.280228 7.2724z" fill="#fff6d5" stroke-width="1.55195212"/>
   <path d="m108.03329 72.307328s6.79918-12.331465 27.91246-9.485744l12.52481 29.722003s-30.77527-6.956212-41.15298 11.382893c0 0-17.176908-20.552449-41.510846-11.066704l12.524824-30.038184s22.544692-3.161934 29.701732 9.485736z" fill="#fff8e1" stroke-width="1.55195212"/>
   <path d="m108.21285 72.73153s4.73706-8.267216 12.42282-9.121186c-8.64937 12.726142-10.46697 23.744336-13.13853 40.740336z" fill="#fff4cc"/>
   <rect transform="matrix(-.70710678 .70710678 .70710678 .70710678 0 0)" x="-73.734154" y="141.37482" width="34.813347" height="7.7541475" fill="#ffc107" stroke-width=".12290808"/>
   <rect transform="matrix(.70710678 .70710678 .70710678 -.70710678 0 0)" x="146.52734" y="38.921585" width="2.7787058" height="34.813347" fill="#e7ad00" stroke-width=".12290808"/>
   <g stroke-width=".12290926">
    <path d="m127.48818 72.446692-4.59398 9.00421c-0.35128 0.688412 0.38421 1.423902 1.07263 1.072627l9.00421-4.593977z" fill="#f0a479"/>
    <path d="m131.11425 76.072636 1.85679 1.856791-9.00421 4.593977c-0.68842 0.351276-1.42391-0.384214-1.07263-1.07263l0.81685-1.601015z" fill="#ea976e"/>
    <path d="m161.16864 46.598996-2.34978-2.349783c-0.8616-0.861591-2.27149-0.861589-3.13309-1e-6l-3.82936 3.829361 5.48286 5.482862 3.82936-3.829362c0.8616-0.861714 0.8616-2.271484 1e-5 -3.133077z" fill="#e91e63"/>
    <path d="m159.61899 47.346651c0.4222-0.422195 0.69051-0.940991 0.81059-1.486709l0.73906 0.739054c0.86159 0.861593 0.86159 2.271483-1e-5 3.133077l-3.82936 3.829362-1.96753-1.967409z" fill="#c1134e"/>
    <path d="m125.48893 76.365281-2.59461 5.085493c-0.35127 0.688416 0.38421 1.423906 1.07263 1.07263l5.08549-2.594613z" fill="#707487"/>
    <path d="m123.56356 80.139086 0.14762-0.289202 3.48447-1.777759 1.85679 1.856788-1.80442 0.920587-3.28107 1.674029c-0.17207 0.08776-0.34722 0.107666-0.50749 0.07743-0.48082-0.09095-0.82865-0.63372-0.56526-1.150056z" fill="#676a77"/>
    <path d="m153.4728 46.462125-1.79032 1.790311 5.48297 5.482969 1.79031-1.790312z" fill="#999"/>
    <path d="m156.98823 49.977562-1.79031 1.790312 1.96753 1.967531 1.79031-1.790312z" fill="#868686"/>
   </g>
   <path d="m163.11314 107.21694c-0.31504 0.46606-0.98811 0.80409-1.58389 0.80409h-108.773715c-0.586234 0-1.260257-0.33191-1.582849-0.78703l-0.108004 0.22324c-0.40727 0.84347 0.754195 1.69085 1.690853 1.69085h108.773715c0.93666 0 2.06914-0.83422 1.69034-1.69085z" fill="#0c7fdb"/>
   <rect transform="rotate(45)" x="142.32153" y="-71.459839" width="1.1278282" height="19.549025" ry=".56391412" fill="#ffe494"/>
   <rect transform="rotate(45)" x="142.36584" y="-80.116859" width="1.1278282" height="3.6341136" ry=".44198674" fill="#f48aae"/>
   <rect transform="rotate(18.956886)" x="96.268394" y="34.66283" width="1.5037712" height="13.53394" rx="0" ry=".75188559" fill="#fff"/>
  </g>
  <g fill="#ffc107">
   <g transform="matrix(1.2684251,0,0,1.2684251,-267.18371,33.052636)">
    <rect x="235.91302" y="15.790036" width="1.5146903" height="5.6800885" ry=".75734514"/>
    <rect transform="rotate(90)" x="17.872736" y="-239.51042" width="1.5146903" height="5.6800885" ry=".75734514"/>
   </g>
   <g transform="matrix(2.6555179,0,0,2.6555179,-562.25469,1.5742795)">
    <rect x="235.91302" y="15.790036" width="1.5146903" height="5.6800885" ry=".75734514"/>
    <rect transform="rotate(90)" x="17.872736" y="-239.51042" width="1.5146903" height="5.6800885" ry=".75734514"/>
   </g>
   <g transform="matrix(1.2684251,0,0,1.2684251,-211.59816,12.611432)">
    <rect x="235.91302" y="15.790036" width="1.5146903" height="5.6800885" ry=".75734514"/>
    <rect transform="rotate(90)" x="17.872736" y="-239.51042" width="1.5146903" height="5.6800885" ry=".75734514"/>
   </g>
   <g transform="matrix(2.0692943,0,0,2.0692943,-441.62634,-1.8539241)">
    <rect x="235.91302" y="15.790036" width="1.5146903" height="5.6800885" ry=".75734514"/>
    <rect transform="rotate(90)" x="17.872736" y="-239.51042" width="1.5146903" height="5.6800885" ry=".75734514"/>
   </g>
   <g transform="matrix(1.428599,0,0,1.428599,-248.59676,32.827321)">
    <rect x="235.91302" y="15.790036" width="1.5146903" height="5.6800885" ry=".75734514"/>
    <rect transform="rotate(90)" x="17.872736" y="-239.51042" width="1.5146903" height="5.6800885" ry=".75734514"/>
   </g>
   <g transform="matrix(1.428599,0,0,1.428599,-265.42809,51.933154)">
    <rect x="235.91302" y="15.790036" width="1.5146903" height="5.6800885" ry=".75734514"/>
    <rect transform="rotate(90)" x="17.872736" y="-239.51042" width="1.5146903" height="5.6800885" ry=".75734514"/>
   </g>
   <g transform="matrix(1.9091205,0,0,1.9091205,-406.44735,42.981)">
    <rect x="235.91302" y="15.790036" width="1.5146903" height="5.6800885" ry=".75734514"/>
    <rect transform="rotate(90)" x="17.872736" y="-239.51042" width="1.5146903" height="5.6800885" ry=".75734514"/>
   </g>
   <g transform="matrix(1.1082513,0,0,1.1082513,-227.82296,70.638479)">
    <rect x="235.91302" y="15.790036" width="1.5146903" height="5.6800885" ry=".75734514"/>
    <rect transform="rotate(90)" x="17.872736" y="-239.51042" width="1.5146903" height="5.6800885" ry=".75734514"/>
   </g>
   <g transform="matrix(1.1082513,0,0,1.1082513,-204.16812,74.732586)">
    <rect x="235.91302" y="15.790036" width="1.5146903" height="5.6800885" ry=".75734514"/>
    <rect transform="rotate(90)" x="17.872736" y="-239.51042" width="1.5146903" height="5.6800885" ry=".75734514"/>
   </g>
   <g transform="matrix(1.1082513,0,0,1.1082513,-175.05447,72.458082)">
    <rect x="235.91302" y="15.790036" width="1.5146903" height="5.6800885" ry=".75734514"/>
    <rect transform="rotate(90)" x="17.872736" y="-239.51042" width="1.5146903" height="5.6800885" ry=".75734514"/>
   </g>
  </g>
 </g>
</svg>
