<?xml version="1.0" encoding="UTF-8"?>
<!-- Created with Inkscape (http://www.inkscape.org/) -->
<svg width="121.76656mm" height="144.26227mm" version="1.1" viewBox="0 0 121.76655 144.26227" xmlns="http://www.w3.org/2000/svg" xmlns:cc="http://creativecommons.org/ns#" xmlns:dc="http://purl.org/dc/elements/1.1/" xmlns:rdf="http://www.w3.org/1999/02/22-rdf-syntax-ns#">
 <metadata>
  <rdf:RDF>
   <cc:Work rdf:about="">
    <dc:format>image/svg+xml</dc:format>
    <dc:type rdf:resource="http://purl.org/dc/dcmitype/StillImage"/>
    <dc:title/>
   </cc:Work>
  </rdf:RDF>
 </metadata>
 <g transform="translate(-91.689349,-51.736616)">
  <rect transform="rotate(-90)" x="-174.21037" y="157.8708" width="18.310337" height="12.058025" ry="3.8424563" fill="#ffc107"/>
  <rect transform="rotate(-90)" x="-171.08421" y="157.8708" width="15.184183" height="3.4070489" ry="1.0857033" fill="#e2a900"/>
  <g transform="translate(2.2330899)">
   <rect x="138.44398" y="169.07454" width="46.445728" height="7.5920901" ry="2.4193244" fill="#ffc107"/>
   <path d="m140.3592 169.07443c-1.06109 0-1.91546 1.07919-1.91546 2.41949v2.75332c0 1.34031 0.85437 2.41949 1.91546 2.41949h6.5703v-7.5923z" fill="#e2a900"/>
  </g>
 </g>
 <path d="m59.220521 3.2404506a51.778346 51.778346 0 0 0 -36.61324 63.4152634 51.778346 51.778346 0 0 0 63.41563 36.612596z" fill="none" stroke="#ffc107" stroke-width="5.29166651"/>
 <circle transform="rotate(-15)" cx="59.848232" cy="69.643051" r="45.932652" fill="#48a8f5" stroke-width=".78984964"/>
 <path d="m73.212151 94.067174c-1.49099 0.39951-2.40571 1.85375-2.15778 3.34429a45.932649 45.932649 0 0 0 16.66787 -1.26395 45.932649 45.932649 0 0 0 15.786099 -7.74349c-0.61522-1.23909-2.02998-1.91076-3.42-1.5383z" fill="#d5f6ff" stroke-width=".78984964"/>
 <g transform="matrix(.76293616 -.20442813 .20442813 .76293616 -26.331493 -33.477264)" fill="#00c853">
  <rect x="80.963219" y="145.91254" width="34.905609" height="17.569183" ry="4.9652119"/>
  <rect x="100.20446" y="90.208168" width="10.682139" height="15.7588" ry="2.5145962"/>
  <rect x="67.727173" y="100.30802" width="26.057491" height="7.2439075" ry="1.437889"/>
  <rect x="69.679863" y="105.88105" width="22.434528" height="7.1470795" ry="2.195821"/>
  <rect transform="rotate(-25.122818)" x="31.485405" y="137.94731" width="2.5076308" height="5.581501" ry="1.2538154"/>
  <rect x="71.314636" y="112.18976" width="2.5076308" height="5.581501" ry="1.2538154"/>
  <rect x="65.462219" y="92.54245" width="30.910969" height="8.1337128" ry="1.5236851"/>
  <rect x="74.63118" y="111.13817" width="10.273196" height="12.052805" ry="1.9232391"/>
  <rect x="74.63118" y="120.60245" width="15.207565" height="3.8018913" ry="1.532069"/>
  <rect x="87.735573" y="119.46998" width="2.1031742" height="2.9120874" ry=".64713019"/>
  <rect x="85.470612" y="123.35277" width="5.0961528" height="3.7210004" ry="1.0515887"/>
  <rect x="87.169327" y="125.94128" width="5.0961528" height="3.7210004" ry="1.0515887"/>
  <rect x="86.414093" y="128.36801" width="17.068039" height="10.583055" ry="2.9908681"/>
  <rect x="83.448326" y="135.91812" width="28.522623" height="13.422412" ry="3.7932961"/>
  <rect transform="rotate(90)" x="158.43939" y="-109.58331" width="19.617371" height="17.423323" ry="4.9239898"/>
  <rect x="92.095459" y="172.24899" width="10.002276" height="14.777557" ry="2.3580217"/>
  <rect transform="rotate(90)" x="85.596687" y="-92.869217" width="10.682139" height="23.802341" ry="3.7980857"/>
  <path transform="scale(.26458333)" d="m535.22266 382.89258c-2.23536 0-4.03516 1.79979-4.03516 4.03515v17.2168c0 2.23536 1.7998 4.03516 4.03516 4.03516h13.48437c2.23536 0 4.0332-1.7998 4.0332-4.03516v-0.27344a219.79337 219.79337 0 0 0 -14.89062 -20.97851z"/>
  <rect x="135.40459" y="99.296303" width="3.0214138" height="5.1264229" ry=".81801182"/>
  <rect x="136.96861" y="105.99925" width="5.7025938" height="6.6904445" ry="1.0675793"/>
  <path transform="scale(.26458333)" d="m542.1582 432.7168c-7.01304 0-12.6582 5.64516-12.6582 12.6582v54.01562c0 7.01305 5.64516 12.65821 12.6582 12.65821h39.1211c1.70322 0 3.32404-0.33863 4.80468-0.94336a219.79337 219.79337 0 0 0 -18.2871 -78.38867z"/>
  <path transform="scale(.26458333)" d="m574.24805 493.51758c-7.01307 0-12.65821 6.66714-12.65821 14.94922v63.79101c0 8.28212 5.64514 14.94922 12.65821 14.94922h1.75a219.79337 219.79337 0 0 0 10.42187 -66.61133 219.79337 219.79337 0 0 0 -1.95117 -27.07812z"/>
 </g>
 <g transform="translate(-7.5537804)" fill="#f2f2f2">
  <g transform="matrix(1.5422134,0,0,1.33757,-20.360214,-9.7405973)" stroke-width=".47933733">
   <rect transform="rotate(-15)" x="31.974548" y="43.231987" width="13.63254" height="3.7002614" ry="1.8501307"/>
   <rect transform="rotate(-15)" x="30.243994" y="47.910225" width="9.1785622" height="2.6701269" ry="1.3350635"/>
   <rect transform="rotate(-15)" x="33.690197" y="45.835217" width="3.8657548" height="3.4545043" ry="1.0602276"/>
  </g>
  <g transform="translate(8.1347407,10.575163)" stroke-width=".78984964">
   <rect transform="rotate(-15)" x="27.913666" y="67.706192" width="16.472067" height="3.7436514" ry="1.8718257"/>
   <rect transform="rotate(-15)" x="31.265593" y="72.925819" width="20.779329" height="4.6923704" ry="2.3461852"/>
   <rect transform="rotate(-15)" x="34.653744" y="69.073509" width="6.2344398" height="6.2344398" ry="2.232326"/>
  </g>
  <g transform="translate(-1.2748827,5.6866996)" stroke-width=".78984964">
   <rect transform="rotate(-15)" x="77.129875" y="51.711784" width="21.828859" height="4.7419586" ry="2.3709793"/>
   <rect transform="rotate(-15)" x="80.752869" y="47.126839" width="11.730108" height="3.4940743" ry="1.7470372"/>
   <rect transform="rotate(-15)" x="83.716072" y="49.014862" width="2.8461573" height="4.6080642" ry="1.4230787"/>
  </g>
  <g stroke-width=".78984964">
   <rect transform="rotate(-15)" x="83.270126" y="87.543411" width="16.472067" height="5.2344956" ry="2.6172478"/>
   <rect transform="rotate(-15)" x="75.939835" y="94.639" width="19.966141" height="3.7436514" ry="1.8718257"/>
   <rect transform="rotate(-15)" x="88.5952" y="91.300636" width="4.879127" height="4.4725332" ry="1.4230794"/>
  </g>
 </g>
 <path d="m63.904225 7.2538793a38.961319 38.961319 0 0 0 -12.709801 6.0522357c7.72e-4 0.0029 8.48e-4 0.0059 0.0017 0.0088 0.452021 1.686961 2.174244 2.681286 3.861207 2.229266l21.080857-5.6486111c1.62724-0.4360196 2.605797-2.0538191 2.267642-3.6818766a38.961319 38.961319 0 0 0 -14.501901 1.0401894z" fill="#d5f6ff" stroke-width=".66997188"/>
 <path d="m63.945791 7.4126106a45.932649 45.932649 0 0 0 -32.47962 56.2557834 45.932649 45.932649 0 0 0 56.25607 32.47912 45.932649 45.932649 0 0 0 6.393859 -2.27397 45.932649 45.932649 0 0 1 -49.689869 -33.67779 45.932649 45.932649 0 0 1 26.08498 -53.9815964 45.932649 45.932649 0 0 0 -6.56542 1.198453z" fill="#2196f3" opacity=".356" stroke-width=".20898105"/>
 <path d="m75.329891 11.380965s34.508109 4.140973 37.268759 40.374489" fill="none" stroke="#fff" stroke-linecap="round" stroke-width="5.29166651"/>
 <g transform="matrix(.87144401 0 0 .87144401 -226.0406 -32.487919)">
  <g transform="matrix(.16640777 0 0 .16640777 251.71898 117.62371)" fill="#d5f6ff">
   <path d="m459.148 439.554-155.148-262.16v-145.394c0-4.418-3.578-8-8-8s-8 3.582-8 8h-64c0-4.418-3.578-8-8-8s-8 3.582-8 8v145.394l-155.148 262.16c-8.898 15.027-9.039 33.055-0.391 48.223s24.234 24.223 41.695 24.223h323.687c17.461 0 33.047-9.055 41.695-24.223 8.649-15.168 8.509-33.195-0.39-48.223z" fill="#d5f6ff"/>
  </g>
  <g transform="matrix(.16640777 0 0 .16640777 251.56193 117.30961)" fill="#e91e63">
   <path d="m431.617 455.851-44.937-75.926c-1.438-2.434-4.055-3.926-6.883-3.926h-247.594c-2.828 0-5.445 1.492-6.883 3.926l-44.93 75.926c-3.008 5.078-3.062 10.934-0.133 16.082 2.938 5.125 8 8.066 13.898 8.066h323.687c5.898 0 10.961-2.941 13.906-8.082 2.924-5.128 2.877-10.984-0.131-16.066z" fill="#e91e63"/>
  </g>
  <g fill="#616161">
   <g transform="matrix(.16640777 0 0 .16640777 251.56193 117.30961)">
    <g fill="#616161">
     <path d="m280 264h-48c-4.422 0-8-3.582-8-8s3.578-8 8-8h48c4.422 0 8 3.582 8 8s-3.578 8-8 8z" fill="#616161"/>
    </g>
   </g>
   <g transform="matrix(.16640777 0 0 .16640777 251.56193 117.30961)">
    <g fill="#616161">
     <path d="m280 304h-48c-4.422 0-8-3.582-8-8s3.578-8 8-8h48c4.422 0 8 3.582 8 8s-3.578 8-8 8z" fill="#616161"/>
    </g>
   </g>
   <g transform="matrix(.16640777 0 0 .16640777 251.56193 117.30961)">
    <g fill="#616161">
     <path d="m280 344h-48c-4.422 0-8-3.582-8-8s3.578-8 8-8h48c4.422 0 8 3.582 8 8s-3.578 8-8 8z" fill="#616161"/>
    </g>
   </g>
  </g>
  <g transform="matrix(.16640777 0 0 .16640777 251.56193 117.30961)">
   <circle cx="288" cy="432" r="16" fill="#fff"/>
  </g>
  <g transform="matrix(.16640777 0 0 .16640777 251.56193 117.30961)">
   <circle cx="344" cy="416" r="8" fill="#fff"/>
  </g>
  <g transform="matrix(.14286337 0 0 .14286337 234.91133 130.87118)">
   <circle cx="288" cy="432" r="16" fill="#fff"/>
  </g>
  <g transform="matrix(.09577456 0 0 .09577456 257.06191 143.98071)">
   <circle cx="288" cy="432" r="16" fill="#fff"/>
  </g>
  <g transform="matrix(.07693904 0 0 .07693904 265.95227 155.4327)">
   <circle cx="288" cy="432" r="16" fill="#fff"/>
  </g>
  <g transform="matrix(.165532 0 0 .16481058 251.90114 117.90704)" fill="#a8edff" opacity=".30800003">
   <path d="m256 32h-32c0-4.418-3.578-8-8-8s-8 3.582-8 8v145.394l-155.148 262.16c-8.898 15.027-9.039 33.055-0.391 48.223s24.234 24.223 41.695 24.223h161.844z" fill="#a8edff"/>
  </g>
  <g transform="matrix(.16640777 0 0 .16640777 251.56193 117.30961)" fill="#c0f2ff">
   <path d="m304 0h-96c-8.837 0-16 7.163-16 16s7.163 16 16 16h96c8.837 0 16-7.163 16-16s-7.164-16-16-16z" fill="#c0f2ff"/>
  </g>
  <rect x="286.14926" y="122.43459" width="15.972524" height="2.5616312" ry="0" fill="#a0ebff" opacity=".85500004"/>
 </g>
 <rect transform="matrix(.81496156 -.57951502 .48768304 .87302076 0 0)" x="-19.31246" y="107.9928" width="3.4432702" height="23.776403" ry="1.8492755" fill="#fff"/>
</svg>
