<svg xmlns="http://www.w3.org/2000/svg" viewBox="0 0 270.93 135.47">
  <g transform="translate(-1170.5 -164.28)">
    <path fill="#fff" stroke="#ffc107" stroke-linecap="round" stroke-linejoin="round" stroke-width="1.32" d="M1386.7 224.86a5.18 5.18 0 0 0-5.14 5.25v8.59h21.6c2.9 0 5.22 2.33 5.22 5.22v36.51h26.8a5.18 5.18 0 0 0 5.15-5.24l-9.91-22.54 9.91-22.54c1.17-2.65-2.3-5.25-5.14-5.25z"/>
    <path fill="#ffc107" d="M1386.28 224.76c-2.15-.1-4.7 3.24-4.7 5.7v8.24H1405.37c-.5-.4-1.05-.87-1.68-1.44-3.47-3.15-16.27-12.07-16.27-12.07a1.92 1.92 0 0 0-1.13-.43z"/>
    <g>
      <path fill="#fff" stroke="#ffc107" stroke-linecap="round" stroke-linejoin="round" stroke-width="1.32" d="M1176.74 224.86c-2.85 0-6.31 2.6-5.15 5.25l9.92 22.54-9.92 22.54c0 2.9 2.3 5.24 5.15 5.24h26.72v-36.5c0-2.9 2.33-5.23 5.22-5.23h21.69v-8.6c0-2.9-2.3-5.24-5.15-5.24z"/>
      <path fill="#ffc107" d="M1225.65 224.76c-.4.01-.78.15-1.13.43 0 0-12.8 8.92-16.28 12.07-.62.57-1.18 1.03-1.69 1.44h23.79v-8.23c0-2.47-2.55-5.82-4.7-5.71z"/>
    </g>
    <rect width="204.93" height="55.37" x="1203.46" y="238.7" fill="#fff" stroke="#ffc107" stroke-linecap="round" stroke-linejoin="round" stroke-width="1.32" ry="5.23"/>
  </g>
  <g fill="#ffc107" stroke-width=".26" aria-label="11 times table" font-family="Funhouse" font-size="19.4" font-weight="400" letter-spacing="0" style="line-height:1.25;-inkscape-font-specification:'Funhouse, Normal';font-variant-ligatures:normal;font-variant-caps:normal;font-variant-numeric:normal;font-feature-settings:normal;text-align:start" word-spacing="0">
    <path d="M72.67 108.88l-6.48-.28 1.1-8.95-2.24.9-.88-3.74 6.8-2.09zM80.78 108.88l-6.48-.28 1.1-8.95-2.24.9-.88-3.74 6.8-2.09zM93.74 99.78l.46 8.07-5.14 1.33.89-9.65-3.88-.33.3-3.5 11.12-.67.4 5.19zM102.78 95.82l.97 12.78-5.36 1.01.24-13.46zM119.38 95.74l.8 12.5-4.83.4-.26-6.39-.98 4.4-4.34.6-1.76-4.53.64 5.38-4.43.9.6-13.26 4.36-.57 2.4 7.58 2.92-7.36zM130.71 94.04l.25 5.02-5.9.63.08 1.15 3.87-.36.34 3.43-4.04.3.07.92 5.72-.43.85 4.3-11.28.4 1.15-13.67z" style="-inkscape-font-specification:'Funhouse, Normal';font-variant-ligatures:normal;font-variant-caps:normal;font-variant-numeric:normal;font-feature-settings:normal;text-align:start"/>
    <path d="M134.89 103.77q-3.42-.48-3.02-4.26.4-3.77 8.79-4.46l.8 4.28q-4.16-.09-4.47.99-.3 1.08 3.19 1.24 3.48.16 3.4 4.25-.07 4.08-9.17 4.35l-1.68-4.48q4.66.5 5.13-.46.46-.98-2.97-1.45zM156.6 99.78l.47 8.07-5.14 1.33.89-9.65-3.88-.33.3-3.5 11.12-.67.4 5.19zM163.26 107.11l-.66 1.9-3.73-2.26 4.68-11 3.56-.25 5.6 11.4-4.42 2.1-.98-2.65zm3.24-4.15l-1.06-3.43-1.25 3.8zM176.86 100.4q2.94-.55 2.88-1.67-.06-1.12-3-.35zm.45 5.62q4.3-.17 4.3-1.5.03-1.32-4.44-1.26zm-4.12 2.99l.35-12.27q6.78-2.76 9.32-.27 2.54 2.5-.65 5.02 4.83 1.5 3.12 4.87-1.7 3.36-12.14 2.65z" style="-inkscape-font-specification:'Funhouse, Normal';font-variant-ligatures:normal;font-variant-caps:normal;font-variant-numeric:normal;font-feature-settings:normal;text-align:start"/>
    <path d="M187.04 95.55l4.67.25-1.54 9.42 4.76-.74-1.05 5.05-7.5-.52zM205.44 94.04l.25 5.02-5.9.63.08 1.15 3.87-.36.34 3.43-4.04.3.07.92 5.72-.43.85 4.3-11.28.4 1.15-13.67z" style="-inkscape-font-specification:'Funhouse, Normal';font-variant-ligatures:normal;font-variant-caps:normal;font-variant-numeric:normal;font-feature-settings:normal;text-align:start"/>
  </g>
  <g>
    <g transform="matrix(0 .88688 -.88688 0 -110.6 659.77)">
      <rect width="7.84" height="18.82" x="-712.05" y="-356.04" fill="#e91e63" ry="3.92"/>
      <rect width="7.84" height="18.82" x="-701.07" y="-356.04" fill="#e91e63" ry="3.92"/>
      <rect width="2.21" height="6.35" x="-710.76" y="-353.53" fill="#facedd" ry="1.1"/>
      <rect width="2.21" height="6.35" x="-699.77" y="-353.53" fill="#facedd" ry="1.1"/>
    </g>
    <g transform="matrix(.97708 0 0 .97708 -258.7 793.2)">
      <g fill="#f57c00" transform="rotate(45 327.21 -723.68) scale(1.09493)">
        <rect width="7.84" height="23.53" x="303.23" y="-746.43" ry="3.92"/>
        <rect width="7.84" height="23.53" x="-738.58" y="-318.92" ry="3.92" transform="rotate(90)"/>
      </g>
      <rect width="2.21" height="6.35" x="-826.54" y="-267.47" fill="#ffd4a9" ry="1.1" transform="scale(-1 1) rotate(45)"/>
    </g>
    <g fill="#fff" stroke="#ffc107" stroke-width="1.06" font-family="Funhouse" font-size="42.33" font-weight="400" letter-spacing="0" word-spacing="0">
      <g style="line-height:1.25;-inkscape-font-specification:'Funhouse, Normal';font-variant-ligatures:normal;font-variant-caps:normal;font-variant-numeric:normal;font-feature-settings:normal;text-align:start">
        <path d="M84.96 52.13l-14.14-.6 2.38-19.54-4.88 1.97-1.93-8.15 14.87-4.57z" aria-label="1" style="-inkscape-font-specification:'Funhouse, Normal';font-variant-ligatures:normal;font-variant-caps:normal;font-variant-numeric:normal;font-feature-settings:normal;text-align:start"/>
      </g>
      <g style="line-height:1.25;-inkscape-font-specification:'Funhouse, Normal';font-variant-ligatures:normal;font-variant-caps:normal;font-variant-numeric:normal;font-feature-settings:normal;text-align:start">
        <path d="M104.22 52.13l-14.14-.6 2.38-19.54-4.88 1.97-1.92-8.15 14.86-4.57z" aria-label="1" style="-inkscape-font-specification:'Funhouse, Normal';font-variant-ligatures:normal;font-variant-caps:normal;font-variant-numeric:normal;font-feature-settings:normal;text-align:start"/>
      </g>
    </g>
    <g fill="#fff" stroke="#ffc107" stroke-width="1.06" font-family="Funhouse" font-size="42.33" font-weight="400" letter-spacing="0" word-spacing="0">
      <g style="line-height:1.25;-inkscape-font-specification:'Funhouse, Normal';font-variant-ligatures:normal;font-variant-caps:normal;font-variant-numeric:normal;font-feature-settings:normal;text-align:start">
        <path d="M160.5 52.13l-14.14-.6 2.38-19.54-4.88 1.97-1.92-8.15 14.86-4.57z" aria-label="1" style="-inkscape-font-specification:'Funhouse, Normal';font-variant-ligatures:normal;font-variant-caps:normal;font-variant-numeric:normal;font-feature-settings:normal;text-align:start"/>
      </g>
      <g style="line-height:1.25;-inkscape-font-specification:'Funhouse, Normal';font-variant-ligatures:normal;font-variant-caps:normal;font-variant-numeric:normal;font-feature-settings:normal;text-align:start">
        <path d="M179.76 52.13l-14.13-.6L168 31.99l-4.88 1.97-1.92-8.15 14.86-4.57z" aria-label="1" style="-inkscape-font-specification:'Funhouse, Normal';font-variant-ligatures:normal;font-variant-caps:normal;font-variant-numeric:normal;font-feature-settings:normal;text-align:start"/>
      </g>
    </g>
  </g>
</svg>
