<svg xmlns="http://www.w3.org/2000/svg" viewBox="0 0 270.93 135.47">
  <g transform="translate(-296.4)">
    <path fill="#fff" stroke="#ffc107" stroke-linecap="round" stroke-linejoin="round" stroke-width="1.32" d="M512.61 60.58a5.18 5.18 0 0 0-5.14 5.25v8.59h21.6c2.9 0 5.23 2.33 5.23 5.22v36.52h26.8a5.18 5.18 0 0 0 5.14-5.25l-9.91-22.54 9.91-22.54c1.17-2.65-2.3-5.25-5.14-5.25z"/>
    <path fill="#ffc107" d="M512.19 60.48c-2.15-.1-4.7 3.24-4.7 5.7v8.24h23.79c-.5-.4-1.06-.87-1.69-1.44-3.47-3.15-16.27-12.06-16.27-12.06a1.92 1.92 0 0 0-1.13-.44z"/>
    <g>
      <path fill="#fff" stroke="#ffc107" stroke-linecap="round" stroke-linejoin="round" stroke-width="1.32" d="M302.65 60.58c-2.85 0-6.31 2.6-5.15 5.25l9.92 22.54-9.92 22.54c0 2.9 2.3 5.25 5.15 5.25h26.72V79.64c0-2.9 2.33-5.22 5.22-5.22h21.69v-8.6c0-2.9-2.3-5.24-5.15-5.24z"/>
      <path fill="#ffc107" d="M351.56 60.48c-.4.02-.78.15-1.13.44 0 0-12.8 8.91-16.28 12.06-.62.57-1.18 1.03-1.69 1.44h23.79v-8.23c0-2.47-2.55-5.81-4.7-5.71z"/>
    </g>
    <rect width="204.93" height="55.37" x="329.37" y="74.42" fill="#fff" stroke="#ffc107" stroke-linecap="round" stroke-linejoin="round" stroke-width="1.32" ry="5.23"/>
  </g>
  <g fill="#ffc107" font-weight="400" letter-spacing="0" word-spacing="0">
    <g stroke-width=".39" font-size="21.17">
      <g aria-label="1 2-digit" font-family="Funhouse" style="line-height:1.25;-inkscape-font-specification:'Funhouse, Normal';font-variant-ligatures:normal;font-variant-caps:normal;font-variant-numeric:normal;font-feature-settings:normal;text-align:start">
        <path d="M44.74 100.39l-5.97-.26 1-8.44-2.06.85-.8-3.51 6.27-1.98zM66.55 94.68q-3.15.44-2.6 2.15l4.6-.35 1.04 5.12-10.97-1.16q-.14-7.7 3.07-7.84 3.21-.16 2.93-1.17-.27-1.02-4.1-.93l.73-4.04q7.73.66 8.1 4.2.36 3.56-2.8 4.02zM79.18 91.88l-.68 4.5-7.96-.82-.4-3.08zM80.16 100.51l-.56-12.5q11.91 0 11.91 6.26 0 6.24-11.35 6.24zm3.11-9.18l.58 4.32q3.78.02 3.78-2.15t-4.36-2.17zM96.01 88.09l.9 12.04-4.95.95.23-12.68zM111.33 100.39l-4.97 1.28.09-1.4q-.97.24-2.05.24-2.92 0-4.99-1.83-2.07-1.83-2.07-4.41 0-2.6 2.07-4.42 2.07-1.83 5-1.83 2.92 0 4.99 1.83 1.03.92 1.56 2.03l-4.2 1.08q-.2-.57-.72-1.03-.9-.79-2.14-.79-1.25 0-2.14.79-.9.78-.9 1.89 0 1.1.9 1.9.89.78 2.14.78t2.14-.79q.48-.43.74-.95l3.96-.17zM115.81 88.09l.9 12.04-4.95.95.23-12.68zM124.2 91.82l.43 7.6-4.73 1.25.8-9.08-3.56-.31.28-3.3 10.24-.63.37 4.88z" style="-inkscape-font-specification:'Funhouse, Normal';font-variant-ligatures:normal;font-variant-caps:normal;font-variant-numeric:normal;font-feature-settings:normal;text-align:start"/>
      </g>
      <g style="line-height:1.25;-inkscape-font-specification:'SC Gum Kids, Normal';font-variant-ligatures:normal;font-variant-caps:normal;font-variant-numeric:normal;font-feature-settings:normal;text-align:start">
        <path d="M50.73 90.5q-.35 0-.52.16l-.01.02q-.02.03-.02.12 0 .3.18.78.1.28.28.62.32-.27.54-.53.38-.47.38-.73l-.02-.1q-.04-.06-.13-.13-.26-.21-.67-.21zm-1.39 6.01q-.22.37-.23.76 0 .65.51 1.16.54.55 1.26.55.6-.01 1.15-.4-1.24-1.4-2.15-2.64-.34.27-.54.57zm1.54 5.16q-1.8 0-3.1-1.3-1.3-1.32-1.3-3.1 0-1.2.66-2.23.48-.76 1.28-1.35-.29-.54-.48-1.05-.4-1-.4-1.84 0-.62.22-1.15.24-.6.72-1.03.93-.82 2.25-.82.93 0 1.75.42.9.48 1.37 1.32.35.65.35 1.4 0 1.27-1.02 2.48-.46.54-1.09 1.05.42.56.92 1.16.3.38.65.77.46-.98.8-2.25l2.53.7q-.56 2.13-1.42 3.61.57.6 1.04 1.04l.08.07-1.8 1.98-.28-.28-.74-.74q-1.4 1.14-2.97 1.14z" aria-label="&amp;" font-family="SC Gum Kids" style="-inkscape-font-specification:'SC Gum Kids, Normal';font-variant-ligatures:normal;font-variant-caps:normal;font-variant-numeric:normal;font-feature-settings:normal;text-align:start"/>
      </g>
    </g>
    <g stroke-width=".23" aria-label="additions" font-family="Funhouse" font-size="18.28" style="line-height:1.25;-inkscape-font-specification:'Funhouse, Normal';font-variant-ligatures:normal;font-variant-caps:normal;font-variant-numeric:normal;font-feature-settings:normal;text-align:start">
      <path d="M138.16 98.8l-.61 1.78-3.44-2.12 4.31-10.37 3.28-.23 5.16 10.73-4.07 2-.9-2.51zm2.98-3.91l-.97-3.23-1.16 3.57zM147.87 100.58l-.56-12.5q11.9 0 11.9 6.26 0 6.24-11.34 6.24zm3.1-9.18l.59 4.32q3.78.02 3.78-2.15t-4.37-2.17zM160.23 100.58l-.56-12.5q11.9 0 11.9 6.26 0 6.24-11.34 6.24zm3.1-9.18l.59 4.32q3.78.02 3.78-2.15t-4.37-2.17zM176.08 88.16l.89 12.04-4.94.96.23-12.69zM184.47 91.9l.42 7.6-4.73 1.24.82-9.08-3.57-.31.27-3.3 10.24-.63.38 4.88zM192.8 88.16l.9 12.04-4.95.96.23-12.69zM201.24 100.58q-2.95 0-5.03-1.83t-2.08-4.41q0-2.6 2.08-4.42 2.08-1.83 5.03-1.83t5.02 1.83q2.09 1.83 2.09 4.42 0 2.58-2.09 4.41-2.07 1.83-5.02 1.83zm-.48-3.9q1.25 0 2.14-.78.9-.79.9-1.9 0-1.1-.9-1.89-.89-.78-2.14-.78-1.27 0-2.17.78-.89.79-.89 1.9 0 1.1.9 1.89.89.78 2.16.78zM213.17 94.34l.86 5.11-4.35 1.13-.89-11.71 4.38-.78 4.31 5.84.05-5.84 5.41-.57-1.92 13.06-3.46.52zM226.02 95.65q-3.15-.46-2.79-4 .37-3.56 8.1-4.21l.74 4.03q-3.84-.09-4.11.93-.28 1.02 2.93 1.17 3.21.15 3.14 4-.07 3.84-8.46 4.1l-1.54-4.22q4.3.47 4.72-.44.43-.92-2.73-1.36z" style="-inkscape-font-specification:'Funhouse, Normal';font-variant-ligatures:normal;font-variant-caps:normal;font-variant-numeric:normal;font-feature-settings:normal;text-align:start"/>
    </g>
  </g>
  <g fill="#ffc107" font-size="18.28" font-weight="400" letter-spacing="0" word-spacing="0">
    <g font-family="Funhouse">
      <path d="M73.13 116.41q-3.22-.45-2.85-4 .38-3.56 8.29-4.21l.75 4.03q-3.92-.09-4.2.93-.3 1.02 2.99 1.17 3.28.15 3.21 4-.07 3.85-8.64 4.1l-1.58-4.22q4.39.48 4.82-.43.44-.92-2.79-1.37z" style="line-height:1.25;-inkscape-font-specification:'Funhouse, Normal';font-variant-ligatures:normal;font-variant-caps:normal;font-variant-numeric:normal;font-feature-settings:normal;text-align:start"/>
      <path d="M82.9 109.48l4.76.92q-2.37 7.3.68 7.38 3.62-.03 2.1-7.55l4.35-1.38q2 12.39-6.45 12.5-8.54-.08-5.44-11.87z" style="line-height:1.25;-inkscape-font-specification:'Funhouse, Normal';font-variant-ligatures:normal;font-variant-caps:normal;font-variant-numeric:normal;font-feature-settings:normal;text-align:start"/>
      <path d="M99.35 113.23q2.77-.51 2.72-1.57-.06-1.05-2.83-.33zm.43 5.3q4.04-.16 4.05-1.4.02-1.26-4.18-1.2zm-3.88 2.82l.33-11.56q6.38-2.6 8.77-.25 2.4 2.35-.6 4.73 4.55 1.4 2.93 4.58-1.6 3.17-11.43 2.5z" style="line-height:1.25;-inkscape-font-specification:'Funhouse, Normal';font-variant-ligatures:normal;font-variant-caps:normal;font-variant-numeric:normal;font-feature-settings:normal;text-align:start"/>
      <path d="M115.08 112.65l.44 7.6-4.84 1.26.83-9.09-3.65-.31.29-3.3 10.47-.63.38 4.88zM123.84 111.8l.12 2.4q4.47 0 4.47-.89t-4.59-1.51zm.6 8.82l-4.97.7 1.03-13.33q11.5.86 11.88 4.6.4 3.75-3.95 5.19l3.57 1.93-3.66 3.24-4.19-5.17zM136.32 119.56l-.63 1.79-3.51-2.13 4.4-10.37 3.36-.23 5.28 10.74-4.17 1.99-.92-2.51zm3.05-3.9l-1-3.24-1.18 3.57zM156.92 119.52q-2.11 1.83-5.1 1.83-2.99 0-5.1-1.83-2.12-1.83-2.12-4.42t2.11-4.42q2.12-1.83 5.11-1.83t5.1 1.83q1.07.92 1.6 2.04l-4.28 1.08q-.22-.58-.75-1.04-.91-.79-2.19-.79-1.27 0-2.18.79-.92.79-.92 1.9 0 1.1.92 1.88.9.79 2.18.79 1.28 0 2.19-.79.49-.42.72-.96l4.3 1.9q-.52 1.12-1.59 2.04zM166.2 112.65l.44 7.6-4.83 1.26.83-9.09-3.65-.31.28-3.3 10.47-.63.38 4.88zM174.73 108.92l.91 12.04-5.05.96.23-12.69zM183.36 121.35q-3.02 0-5.15-1.83-2.12-1.83-2.12-4.42t2.12-4.42q2.13-1.83 5.15-1.83 3 0 5.13 1.83 2.14 1.83 2.14 4.42t-2.14 4.42q-2.12 1.83-5.13 1.83zm-.5-3.9q1.29 0 2.2-.79.92-.79.92-1.9 0-1.1-.92-1.88-.91-.79-2.2-.79-1.3 0-2.21.79-.91.78-.91 1.89 0 1.1.9 1.89.93.79 2.22.79zM195.55 115.1l.89 5.11-4.46 1.14-.9-11.72 4.47-.78 4.41 5.84.05-5.84 5.54-.57-1.97 13.07-3.54.51zM208.69 116.41q-3.22-.45-2.85-4 .38-3.56 8.28-4.21l.75 4.03q-3.91-.09-4.2.93-.28 1.02 3 1.17 3.28.15 3.21 4-.07 3.85-8.65 4.1l-1.58-4.22q4.4.48 4.83-.43.44-.92-2.8-1.37z" style="line-height:1.25;-inkscape-font-specification:'Funhouse, Normal';font-variant-ligatures:normal;font-variant-caps:normal;font-variant-numeric:normal;font-feature-settings:normal;text-align:start"/>
    </g>
    <g style="line-height:1.25;-inkscape-font-specification:'SC Gum Kids, Normal';font-variant-ligatures:normal;font-variant-caps:normal;font-variant-numeric:normal;font-feature-settings:normal;text-align:start">
      <path stroke-width=".34" d="M58.4 111.78q-.35 0-.53.16l-.01.02q-.02.03-.02.12 0 .3.18.78.1.28.29.62.33-.27.55-.53.4-.47.4-.73 0-.05-.03-.1-.04-.06-.13-.13-.27-.21-.69-.21zM57 117.79q-.24.37-.25.76 0 .64.53 1.16.55.55 1.29.55.6-.01 1.17-.4-1.26-1.4-2.2-2.64-.35.27-.54.57zm1.57 5.16q-1.84 0-3.17-1.31-1.33-1.31-1.34-3.09 0-1.2.68-2.23.5-.76 1.31-1.35-.3-.54-.5-1.05-.4-1-.4-1.84 0-.62.22-1.15.25-.6.74-1.03.96-.82 2.3-.82.95 0 1.79.42.93.48 1.4 1.32.36.65.36 1.4 0 1.27-1.05 2.48-.46.54-1.1 1.05.43.56.93 1.16l.66.77q.48-.98.82-2.25l2.6.7q-.58 2.13-1.46 3.6.59.6 1.06 1.05l.08.07-1.83 1.98-.3-.28-.75-.74q-1.42 1.14-3.04 1.14z" aria-label="&amp;" font-family="SC Gum Kids" style="-inkscape-font-specification:'SC Gum Kids, Normal';font-variant-ligatures:normal;font-variant-caps:normal;font-variant-numeric:normal;font-feature-settings:normal;text-align:start"/>
    </g>
  </g>
  <g>
    <g style="line-height:1.25;-inkscape-font-specification:'Funhouse, Normal';font-variant-ligatures:normal;font-variant-caps:normal;font-variant-numeric:normal;font-feature-settings:normal;text-align:start">
      <path fill="#fff" stroke="#ffc107" stroke-width="1.0558932" d="M169.38 18.18q5.72.8 5.06 7.09-.67 6.3-14.68 7.45l-1.33-7.15q6.95.16 7.45-1.65.5-1.8-5.31-2.07-5.82-.27-5.57-13.9l19.88-2.06-1.88 9.08-8.34-.62q-1 3.02 4.72 3.83z" aria-label="5" font-family="Funhouse" font-size="28.22" font-weight="400" letter-spacing="0" style="-inkscape-font-specification:'Funhouse, Normal';font-variant-ligatures:normal;font-variant-caps:normal;font-variant-numeric:normal;font-feature-settings:normal;text-align:start" word-spacing="0"/>
    </g>
    <g fill="#fff" stroke="#ffc107" stroke-width=".92" aria-label="60" font-family="Funhouse" font-size="28.22" font-weight="400" letter-spacing="0" style="line-height:1.25;-inkscape-font-specification:'Funhouse, Normal';font-variant-ligatures:normal;font-variant-caps:normal;font-variant-numeric:normal;font-feature-settings:normal;text-align:start" word-spacing="0">
      <path stroke-width="1.0558932" d="M83.26 30.3q-12.29-.14-7.39-21.6l9.08 1.6-2.88 5.7q12.58-2.6 13.04 5.92.45 8.5-11.85 8.38zm1.01-6.2q2.8 0 2.8-1.9t-2.8-1.9q-2.78 0-2.78 1.9t2.78 1.9zM109.23 30.43q-5.35 0-9.13-3.25-3.76-3.24-3.76-7.82 0-4.6 3.76-7.83 3.78-3.25 9.13-3.25 5.33 0 9.1 3.25 3.77 3.24 3.77 7.83 0 4.58-3.78 7.82-3.76 3.25-9.09 3.25zm-.89-6.91q2.28 0 3.9-1.4 1.62-1.39 1.62-3.35 0-1.96-1.63-3.35-1.6-1.4-3.89-1.4t-3.92 1.4q-1.61 1.39-1.61 3.35 0 1.96 1.61 3.35 1.63 1.4 3.92 1.4z" style="-inkscape-font-specification:'Funhouse, Normal';font-variant-ligatures:normal;font-variant-caps:normal;font-variant-numeric:normal;font-feature-settings:normal;text-align:start"/>
    </g>
    <g transform="matrix(0 .91414 -.91414 0 -128.47 661.6)">
      <rect width="7.84" height="18.82" x="-712.05" y="-356.04" fill="#e91e63" ry="3.92"/>
      <rect width="7.84" height="18.82" x="-701.07" y="-356.04" fill="#e91e63" ry="3.92"/>
      <rect width="2.21" height="6.35" x="-710.76" y="-353.53" fill="#facedd" ry="1.1"/>
      <rect width="2.21" height="6.35" x="-699.77" y="-353.53" fill="#facedd" ry="1.1"/>
    </g>
    <g transform="matrix(.90636 0 0 .90636 -173.51 719.82)">
      <g fill="#00c853" transform="translate(7.99 30.08) scale(1.09493)">
        <rect width="7.84" height="23.53" x="303.23" y="-746.43" ry="3.92"/>
        <rect width="7.84" height="23.53" x="-738.58" y="-318.92" ry="3.92" transform="rotate(90)"/>
      </g>
      <rect width="2.21" height="6.35" x="345.05" y="-785.14" fill="#c7ffde" ry="1.1"/>
    </g>
    <g>
      <g fill="#fff" stroke="#ffc107" stroke-width=".86" aria-label="47" font-family="Funhouse" font-size="28.22" font-weight="400" letter-spacing="0" style="line-height:1.25;-inkscape-font-specification:'Funhouse, Normal';font-variant-ligatures:normal;font-variant-caps:normal;font-variant-numeric:normal;font-feature-settings:normal;text-align:start" word-spacing="0">
        <path stroke-width="1.0583504" d="M88.26 39.2L79.6 56.04l9.68 1.27-1.37 8.14 10.02-1.24-.29-5.75 3.68.4 1.38-7.43-5.26-.14V38.75zm-.94 11.4l1.96-4.62 2.01.2-.83 4.71z" style="-inkscape-font-specification:'Funhouse, Normal';font-variant-ligatures:normal;font-variant-caps:normal;font-variant-numeric:normal;font-feature-settings:normal;text-align:start"/>
        <path stroke-width="1.0583504" d="M114.05 63.65l-11.26-4.73 7.65-11.1-8.14 1.07-2.27-7.82 21.86-1.76z" style="-inkscape-font-specification:'Funhouse, Normal';font-variant-ligatures:normal;font-variant-caps:normal;font-variant-numeric:normal;font-feature-settings:normal;text-align:start"/>
      </g>
      <g style="line-height:1.25;-inkscape-font-specification:'Funhouse, Normal';font-variant-ligatures:normal;font-variant-caps:normal;font-variant-numeric:normal;font-feature-settings:normal;text-align:start">
        <path fill="#fff" stroke="#ffc107" stroke-width="1.0583504" d="M168.78 51.85q5.41.54 4.4 6.2-1 5.67-16.66 7.1l-1.42-8.47q10.3.26 10.3-1.34t-4.06-.91l-1.12-5.92q5.17-.05 5.12-2.05-.05-2-9.16.2l.99-7.14q14.57-.97 15.79 4.68 1.23 5.63-4.18 7.65z" aria-label="3" font-family="Funhouse" font-size="28.22" font-weight="400" letter-spacing="0" style="-inkscape-font-specification:'Funhouse, Normal';font-variant-ligatures:normal;font-variant-caps:normal;font-variant-numeric:normal;font-feature-settings:normal;text-align:start" word-spacing="0"/>
      </g>
      <g transform="matrix(0 1.06253 -1.06253 0 -229.75 838.29)">
        <rect width="7.84" height="18.82" x="-743.81" y="-356.04" fill="#e91e63" ry="3.92"/>
        <rect width="2.21" height="6.35" x="-742.53" y="-353.53" fill="#facedd" ry="1.1"/>
      </g>
      <g transform="matrix(0 .91414 -.91414 0 -128.47 694.79)">
        <rect width="7.84" height="18.82" x="-712.05" y="-356.04" fill="#e91e63" ry="3.92"/>
        <rect width="7.84" height="18.82" x="-701.07" y="-356.04" fill="#e91e63" ry="3.92"/>
        <rect width="2.21" height="6.35" x="-710.76" y="-353.53" fill="#facedd" ry="1.1"/>
        <rect width="2.21" height="6.35" x="-699.77" y="-353.53" fill="#facedd" ry="1.1"/>
      </g>
    </g>
  </g>
</svg>
