<svg xmlns="http://www.w3.org/2000/svg" viewBox="0 0 270.93 135.47">
  <g transform="translate(-914.33)">
    <path fill="#fff" stroke="#ffc107" stroke-linecap="round" stroke-linejoin="round" stroke-width="1.32" d="M1130.54 60.58a5.18 5.18 0 0 0-5.15 5.25v8.59h21.6c2.9 0 5.23 2.33 5.23 5.22v36.52h26.8a5.18 5.18 0 0 0 5.15-5.25l-9.92-22.54 9.92-22.54c1.16-2.65-2.3-5.25-5.15-5.25z"/>
    <path fill="#ffc107" d="M1130.11 60.48c-2.15-.1-4.69 3.24-4.69 5.7v8.24h23.78c-.5-.4-1.06-.87-1.68-1.44-3.48-3.15-16.28-12.06-16.28-12.06a1.92 1.92 0 0 0-1.13-.44z"/>
    <g>
      <path fill="#fff" stroke="#ffc107" stroke-linecap="round" stroke-linejoin="round" stroke-width="1.32" d="M920.57 60.58c-2.85 0-6.31 2.6-5.14 5.25l9.91 22.54-9.91 22.54c0 2.9 2.3 5.25 5.14 5.25h26.72V79.64c0-2.9 2.33-5.22 5.23-5.22h21.68v-8.6c0-2.9-2.3-5.24-5.15-5.24z"/>
      <path fill="#ffc107" d="M969.48 60.48c-.4.02-.78.15-1.13.44 0 0-12.8 8.91-16.27 12.06-.63.57-1.19 1.03-1.7 1.44h23.79v-8.23c0-2.47-2.54-5.81-4.69-5.71z"/>
    </g>
    <rect width="204.93" height="55.37" x="947.29" y="74.42" fill="#fff" stroke="#ffc107" stroke-linecap="round" stroke-linejoin="round" stroke-width="1.32" ry="5.23"/>
  </g>
  <g fill="#ffc107" font-weight="400" letter-spacing="0" word-spacing="0">
    <g stroke-width=".39" font-size="21.17">
      <g aria-label="1 2-digit" font-family="Funhouse" style="line-height:1.25;-inkscape-font-specification:'Funhouse, Normal';font-variant-ligatures:normal;font-variant-caps:normal;font-variant-numeric:normal;font-feature-settings:normal;text-align:start">
        <path d="M97.7 100.39l-5.97-.26 1-8.44-2.06.85-.81-3.51 6.28-1.98zM119.51 94.68q-3.15.44-2.6 2.15l4.6-.35 1.04 5.12-10.97-1.16q-.14-7.7 3.07-7.84 3.21-.16 2.93-1.17-.28-1.02-4.1-.93l.72-4.04q7.74.66 8.1 4.2.37 3.56-2.79 4.02zM132.13 91.88l-.68 4.5-7.95-.82-.4-3.08zM133.12 100.51l-.56-12.5q11.9 0 11.9 6.26 0 6.24-11.34 6.24zm3.1-9.18l.6 4.32q3.77.02 3.77-2.15t-4.36-2.17zM148.97 88.09l.9 12.04-4.95.95.23-12.68zM164.28 100.39l-4.96 1.28.08-1.4q-.96.24-2.04.24-2.92 0-5-1.83-2.06-1.83-2.06-4.41 0-2.6 2.07-4.42 2.07-1.83 5-1.83 2.92 0 4.98 1.83 1.04.92 1.57 2.03l-4.2 1.08q-.2-.57-.73-1.03-.89-.79-2.13-.79-1.25 0-2.14.79-.9.78-.9 1.89 0 1.1.9 1.9.89.78 2.14.78 1.24 0 2.13-.79.48-.43.75-.95l3.96-.17zM168.77 88.09l.9 12.04-4.95.95.23-12.68zM177.16 91.82l.43 7.6-4.73 1.25.8-9.08-3.56-.31.28-3.3 10.24-.63.37 4.88z" style="-inkscape-font-specification:'Funhouse, Normal';font-variant-ligatures:normal;font-variant-caps:normal;font-variant-numeric:normal;font-feature-settings:normal;text-align:start"/>
      </g>
      <g style="line-height:1.25;-inkscape-font-specification:'SC Gum Kids, Normal';font-variant-ligatures:normal;font-variant-caps:normal;font-variant-numeric:normal;font-feature-settings:normal;text-align:start">
        <path d="M103.7 90.5q-.36 0-.53.16l-.01.02q-.02.03-.02.12 0 .3.18.78.1.28.27.62.33-.27.55-.53.38-.47.38-.73l-.02-.1q-.04-.06-.13-.13-.26-.21-.67-.21zm-1.4 6.01q-.22.37-.23.76 0 .65.51 1.16.54.55 1.26.55.6-.01 1.15-.4-1.24-1.4-2.15-2.64-.35.27-.54.57zm1.54 5.16q-1.8 0-3.1-1.3-1.3-1.32-1.3-3.1 0-1.2.65-2.23.5-.76 1.29-1.35-.3-.54-.48-1.05-.4-1-.4-1.84 0-.62.21-1.15.25-.6.73-1.03.93-.82 2.25-.82.93 0 1.75.42.9.48 1.37 1.32.35.65.35 1.4 0 1.27-1.03 2.48-.45.54-1.08 1.05.42.56.92 1.16.3.38.64.77.47-.98.8-2.25l2.54.7q-.56 2.13-1.42 3.61.57.6 1.04 1.04l.07.07-1.79 1.98-.28-.28-.75-.74q-1.38 1.14-2.96 1.14z" aria-label="&amp;" font-family="SC Gum Kids" style="-inkscape-font-specification:'SC Gum Kids, Normal';font-variant-ligatures:normal;font-variant-caps:normal;font-variant-numeric:normal;font-feature-settings:normal;text-align:start"/>
      </g>
    </g>
    <g font-family="Funhouse" font-size="18.28">
      <path d="M65 116.41q-3.23-.45-2.86-4 .38-3.56 8.29-4.21l.75 4.03q-3.92-.09-4.2.93-.3 1.02 3 1.17 3.28.15 3.2 4-.07 3.85-8.64 4.1l-1.58-4.22q4.39.48 4.83-.43.43-.92-2.8-1.37z" style="line-height:1.25;-inkscape-font-specification:'Funhouse, Normal';font-variant-ligatures:normal;font-variant-caps:normal;font-variant-numeric:normal;font-feature-settings:normal;text-align:start"/>
      <path d="M74.76 109.48l4.76.92q-2.37 7.3.68 7.38 3.62-.03 2.1-7.55l4.35-1.38q2 12.39-6.45 12.5-8.54-.08-5.44-11.87z" style="line-height:1.25;-inkscape-font-specification:'Funhouse, Normal';font-variant-ligatures:normal;font-variant-caps:normal;font-variant-numeric:normal;font-feature-settings:normal;text-align:start"/>
      <path d="M91.21 113.23q2.77-.51 2.72-1.57-.06-1.05-2.83-.33zm.43 5.3q4.04-.16 4.05-1.4.02-1.26-4.18-1.2zm-3.88 2.82l.33-11.56q6.38-2.6 8.77-.25 2.4 2.35-.6 4.73 4.55 1.4 2.93 4.58-1.6 3.17-11.43 2.5z" style="line-height:1.25;-inkscape-font-specification:'Funhouse, Normal';font-variant-ligatures:normal;font-variant-caps:normal;font-variant-numeric:normal;font-feature-settings:normal;text-align:start"/>
      <path d="M106.95 112.65l.43 7.6-4.83 1.26.83-9.09-3.65-.31.28-3.3 10.47-.63.38 4.88zM115.7 111.8l.13 2.4q4.46 0 4.46-.89t-4.59-1.51zm.6 8.82l-4.97.7 1.03-13.33q11.5.86 11.88 4.6.4 3.75-3.95 5.19l3.57 1.93-3.66 3.24-4.19-5.17zM128.18 119.56l-.63 1.79-3.51-2.13 4.4-10.37 3.36-.23 5.28 10.74-4.17 1.99-.92-2.51zm3.05-3.9l-1-3.24-1.18 3.57zM148.79 119.52q-2.12 1.83-5.1 1.83-3 0-5.11-1.83-2.12-1.83-2.12-4.42t2.12-4.42q2.11-1.83 5.1-1.83 3 0 5.1 1.83 1.07.92 1.6 2.04l-4.28 1.08q-.21-.58-.75-1.04-.91-.79-2.19-.79-1.27 0-2.18.79-.91.79-.91 1.9 0 1.1.9 1.88.92.79 2.2.79 1.27 0 2.18-.79.5-.42.72-.96l4.3 1.9q-.52 1.12-1.58 2.04zM158.07 112.65l.44 7.6-4.84 1.26.83-9.09-3.65-.31.28-3.3 10.47-.63.39 4.88zM166.6 108.92l.9 12.04-5.05.96.23-12.69zM175.22 121.35q-3.02 0-5.15-1.83-2.12-1.83-2.12-4.42t2.12-4.42q2.13-1.83 5.15-1.83 3 0 5.13 1.83 2.14 1.83 2.14 4.42t-2.14 4.42q-2.12 1.83-5.13 1.83zm-.5-3.9q1.29 0 2.2-.79.92-.79.92-1.9 0-1.1-.92-1.88-.91-.79-2.2-.79-1.3 0-2.21.79-.91.78-.91 1.89 0 1.1.9 1.89.93.79 2.22.79zM187.41 115.1l.89 5.11-4.46 1.14-.9-11.72 4.47-.78 4.41 5.84.06-5.84 5.53-.57-1.96 13.07-3.55.51zM200.55 116.41q-3.22-.45-2.85-4 .38-3.56 8.29-4.21l.75 4.03q-3.92-.09-4.2.93-.3 1.02 3 1.17 3.28.15 3.2 4-.07 3.85-8.64 4.1l-1.58-4.22q4.39.48 4.82-.43.44-.92-2.79-1.37z" style="line-height:1.25;-inkscape-font-specification:'Funhouse, Normal';font-variant-ligatures:normal;font-variant-caps:normal;font-variant-numeric:normal;font-feature-settings:normal;text-align:start"/>
    </g>
  </g>
  <g>
    <path fill="#fff" stroke="#ffc107" stroke-width="1.15" d="M165.14 48.16l-12.21-5.13 8.3-12.03-8.84 1.16-2.46-8.48 23.71-1.92z" font-family="Funhouse" font-size="28.22" font-weight="400" letter-spacing="0" style="line-height:1.25;-inkscape-font-specification:'Funhouse, Normal';font-variant-ligatures:normal;font-variant-caps:normal;font-variant-numeric:normal;font-feature-settings:normal;text-align:start" word-spacing="0"/>
    <g transform="matrix(0 1.15277 -1.15277 0 -263.44 888.6)">
      <rect width="7.84" height="18.82" x="-743.81" y="-356.04" fill="#e91e63" ry="3.92"/>
      <rect width="2.21" height="6.35" x="-742.53" y="-353.53" fill="#facedd" ry="1.1"/>
    </g>
    <g transform="matrix(0 .99177 -.99177 0 -153.57 732.9)">
      <rect width="7.84" height="18.82" x="-712.05" y="-356.04" fill="#e91e63" ry="3.92"/>
      <rect width="7.84" height="18.82" x="-701.07" y="-356.04" fill="#e91e63" ry="3.92"/>
      <rect width="2.21" height="6.35" x="-710.76" y="-353.53" fill="#facedd" ry="1.1"/>
      <rect width="2.21" height="6.35" x="-699.77" y="-353.53" fill="#facedd" ry="1.1"/>
    </g>
    <g fill="#fff" stroke="#ffc107" font-family="Funhouse" font-size="28.22" font-weight="400" letter-spacing="0" word-spacing="0">
      <path stroke-width="1.15" d="M102.5 21.63l-9.38 18.3 10.5 1.37-1.48 8.83L113 48.8l-.31-6.24 4 .43 1.48-8.06-5.7-.15V21.15zm-1 12.39l2.11-5.03 2.19.22-.9 5.12z" style="line-height:1.25;-inkscape-font-specification:'Funhouse, Normal';font-variant-ligatures:normal;font-variant-caps:normal;font-variant-numeric:normal;font-feature-settings:normal;text-align:start"/>
      <g style="line-height:1.25;-inkscape-font-specification:'Funhouse, Normal';font-variant-ligatures:normal;font-variant-caps:normal;font-variant-numeric:normal;font-feature-settings:normal;text-align:start">
        <path stroke-width="1.1482375999999999" d="M86.84 35.37q5.87.58 4.76 6.73-1.08 6.15-18.07 7.7L72 40.6q11.17.28 11.17-1.45 0-1.75-4.4-1l-1.21-6.42q5.6-.05 5.55-2.22-.05-2.18-9.93.22l1.06-7.75q15.8-1.05 17.13 5.08 1.35 6.1-4.52 8.3z" aria-label="3" style="-inkscape-font-specification:'Funhouse, Normal';font-variant-ligatures:normal;font-variant-caps:normal;font-variant-numeric:normal;font-feature-settings:normal;text-align:start"/>
      </g>
    </g>
  </g>
</svg>
