<svg xmlns="http://www.w3.org/2000/svg" viewBox="0 0 270.93 135.47">
  <g transform="translate(-285.45)">
    <path fill="#fff" stroke="#ffc107" stroke-linecap="round" stroke-linejoin="round" stroke-width="1.32" d="M501.66 60.58a5.18 5.18 0 0 0-5.15 5.25v8.59h21.6c2.9 0 5.23 2.33 5.23 5.22v36.52h26.8a5.18 5.18 0 0 0 5.14-5.25l-9.91-22.54 9.91-22.54c1.17-2.65-2.3-5.25-5.14-5.25z"/>
    <path fill="#ffc107" d="M501.23 60.48c-2.15-.1-4.7 3.24-4.7 5.7v8.24h23.79c-.5-.4-1.06-.87-1.69-1.44-3.47-3.15-16.27-12.06-16.27-12.06a1.92 1.92 0 0 0-1.13-.44z"/>
    <g>
      <path fill="#fff" stroke="#ffc107" stroke-linecap="round" stroke-linejoin="round" stroke-width="1.32" d="M291.69 60.58c-2.85 0-6.31 2.6-5.15 5.25l9.92 22.54-9.92 22.54c0 2.9 2.3 5.25 5.15 5.25h26.72V79.64c0-2.9 2.33-5.22 5.22-5.22h21.69v-8.6c0-2.9-2.3-5.24-5.15-5.24z"/>
      <path fill="#ffc107" d="M340.6 60.48c-.4.02-.78.15-1.13.44 0 0-12.8 8.91-16.28 12.06-.62.57-1.18 1.03-1.68 1.44h23.78v-8.23c0-2.47-2.54-5.81-4.69-5.71z"/>
    </g>
    <rect width="204.93" height="55.37" x="318.41" y="74.42" fill="#fff" stroke="#ffc107" stroke-linecap="round" stroke-linejoin="round" stroke-width="1.32" ry="5.23"/>
  </g>
  <g fill="#ffc107" stroke-width=".26" aria-label="3 times table" font-family="Funhouse" font-size="19.4" font-weight="400" letter-spacing="0" style="line-height:1.25;-inkscape-font-specification:'Funhouse, Normal';font-variant-ligatures:normal;font-variant-caps:normal;font-variant-numeric:normal;font-feature-settings:normal;text-align:start" word-spacing="0">
    <path d="M74.79 102.38q3.02.3 2.45 3.46-.56 3.17-9.3 3.96l-.8-4.72q5.75.14 5.75-.75 0-.9-2.26-.51L70 100.5q2.9-.03 2.86-1.15-.02-1.11-5.11.12l.55-4q8.14-.53 8.82 2.62.69 3.15-2.33 4.28zM90.76 99.78l.46 8.07-5.13 1.33.88-9.65-3.87-.33.3-3.5 11.11-.67.4 5.19zM99.8 95.82l.97 12.78-5.36 1.01.25-13.46zM116.4 95.74l.8 12.5-4.83.4-.26-6.39-.97 4.4-4.34.6-1.76-4.53.63 5.38-4.42.9.6-13.26 4.35-.57 2.4 7.58 2.93-7.36zM127.74 94.04l.24 5.02-5.89.63.08 1.15 3.86-.36.34 3.43-4.03.3.06.92 5.73-.43.85 4.3-11.29.4 1.15-13.67z" style="-inkscape-font-specification:'Funhouse, Normal';font-variant-ligatures:normal;font-variant-caps:normal;font-variant-numeric:normal;font-feature-settings:normal;text-align:start"/>
    <path d="M131.92 103.77q-3.42-.48-3.03-4.26.4-3.77 8.8-4.46l.8 4.28q-4.17-.09-4.47.99-.3 1.08 3.18 1.24 3.49.16 3.41 4.25-.07 4.08-9.18 4.35l-1.67-4.48q4.66.5 5.12-.46.46-.98-2.96-1.45zM153.63 99.78l.46 8.07-5.13 1.33.88-9.65-3.87-.33.3-3.5 11.11-.67.4 5.19zM160.29 107.11l-.66 1.9-3.74-2.26 4.68-11 3.57-.25 5.6 11.4-4.43 2.1-.97-2.65zm3.24-4.15l-1.06-3.43-1.25 3.8zM173.89 100.4q2.93-.55 2.88-1.67-.06-1.12-3-.35zm.45 5.62q4.3-.17 4.3-1.5.02-1.32-4.44-1.26zm-4.12 2.99l.35-12.27q6.77-2.76 9.31-.27 2.54 2.5-.64 5.02 4.83 1.5 3.11 4.87-1.7 3.36-12.13 2.65z" style="-inkscape-font-specification:'Funhouse, Normal';font-variant-ligatures:normal;font-variant-caps:normal;font-variant-numeric:normal;font-feature-settings:normal;text-align:start"/>
    <path d="M184.06 95.55l4.67.25-1.53 9.42 4.75-.74-1.05 5.05-7.5-.52zM202.47 94.04l.24 5.02-5.89.63.08 1.15 3.86-.36.34 3.43-4.03.3.06.92 5.73-.43.85 4.3-11.28.4 1.14-13.67z" style="-inkscape-font-specification:'Funhouse, Normal';font-variant-ligatures:normal;font-variant-caps:normal;font-variant-numeric:normal;font-feature-settings:normal;text-align:start"/>
  </g>
  <g>
    <g transform="matrix(0 .88688 -.88688 0 -121.64 658.89)">
      <rect width="7.84" height="18.82" x="-712.05" y="-356.04" fill="#e91e63" ry="3.92"/>
      <rect width="7.84" height="18.82" x="-701.07" y="-356.04" fill="#e91e63" ry="3.92"/>
      <rect width="2.21" height="6.35" x="-710.76" y="-353.53" fill="#facedd" ry="1.1"/>
      <rect width="2.21" height="6.35" x="-699.77" y="-353.53" fill="#facedd" ry="1.1"/>
    </g>
    <g transform="matrix(.97708 0 0 .97708 -262.16 792.31)">
      <g fill="#f57c00" transform="rotate(45 327.21 -723.68) scale(1.09493)">
        <rect width="7.84" height="23.53" x="303.23" y="-746.43" ry="3.92"/>
        <rect width="7.84" height="23.53" x="-738.58" y="-318.92" ry="3.92" transform="rotate(90)"/>
      </g>
      <rect width="2.21" height="6.35" x="-826.54" y="-267.47" fill="#ffd4a9" ry="1.1" transform="scale(-1 1) rotate(45)"/>
    </g>
    <g style="line-height:1.25;-inkscape-font-specification:'Funhouse, Normal';font-variant-ligatures:normal;font-variant-caps:normal;font-variant-numeric:normal;font-feature-settings:normal;text-align:start">
      <path fill="#fff" stroke="#ffc107" stroke-width="1.06" d="M94.12 36.28q6.6.66 5.35 7.57-1.22 6.9-20.3 8.64l-1.73-10.32q12.55.31 12.55-1.63 0-1.96-4.94-1.12l-1.37-7.21q6.3-.06 6.24-2.5-.06-2.44-11.16.25l1.2-8.7q17.76-1.18 19.24 5.7 1.51 6.86-5.08 9.32z" aria-label="3" font-family="Funhouse" font-size="42.33" font-weight="400" letter-spacing="0" style="-inkscape-font-specification:'Funhouse, Normal';font-variant-ligatures:normal;font-variant-caps:normal;font-variant-numeric:normal;font-feature-settings:normal;text-align:start" word-spacing="0"/>
    </g>
    <g style="line-height:1.25;-inkscape-font-specification:'Funhouse, Normal';font-variant-ligatures:normal;font-variant-caps:normal;font-variant-numeric:normal;font-feature-settings:normal;text-align:start">
      <path fill="#fff" stroke="#ffc107" stroke-width="1.06" d="M159.2 36.28q6.6.66 5.36 7.57-1.22 6.9-20.3 8.64l-1.74-10.32q12.55.31 12.55-1.63 0-1.96-4.94-1.12l-1.37-7.21q6.3-.06 6.25-2.5-.06-2.44-11.16.25l1.2-8.7q17.75-1.18 19.24 5.7 1.5 6.86-5.09 9.32z" aria-label="3" font-family="Funhouse" font-size="42.33" font-weight="400" letter-spacing="0" style="-inkscape-font-specification:'Funhouse, Normal';font-variant-ligatures:normal;font-variant-caps:normal;font-variant-numeric:normal;font-feature-settings:normal;text-align:start" word-spacing="0"/>
    </g>
  </g>
</svg>
