<svg xmlns="http://www.w3.org/2000/svg" viewBox="0 0 270.93 135.47">
  <g transform="translate(-874)">
    <path fill="#fff" stroke="#ffc107" stroke-linecap="round" stroke-linejoin="round" stroke-width="1.32" d="M1090.2 60.58a5.18 5.18 0 0 0-5.14 5.25v8.59h21.6c2.9 0 5.22 2.33 5.22 5.22v36.52h26.8a5.18 5.18 0 0 0 5.15-5.25l-9.91-22.54 9.91-22.54c1.17-2.65-2.3-5.25-5.15-5.25z"/>
    <path fill="#ffc107" d="M1089.77 60.48c-2.14-.1-4.69 3.24-4.69 5.7v8.24H1108.86c-.5-.4-1.06-.87-1.68-1.44-3.47-3.15-16.27-12.06-16.27-12.06a1.92 1.92 0 0 0-1.14-.44z"/>
    <g>
      <path fill="#fff" stroke="#ffc107" stroke-linecap="round" stroke-linejoin="round" stroke-width="1.32" d="M880.24 60.58c-2.85 0-6.32 2.6-5.15 5.25L885 88.37l-9.91 22.54c0 2.9 2.3 5.25 5.15 5.25h26.71V79.64c0-2.9 2.33-5.22 5.23-5.22h21.68v-8.6c0-2.9-2.3-5.24-5.14-5.24z"/>
      <path fill="#ffc107" d="M929.15 60.48c-.4.02-.79.15-1.14.44 0 0-12.8 8.91-16.27 12.06-.62.57-1.18 1.03-1.69 1.44h23.79v-8.23c0-2.47-2.55-5.81-4.7-5.71z"/>
    </g>
    <rect width="204.93" height="55.37" x="906.95" y="74.42" fill="#fff" stroke="#ffc107" stroke-linecap="round" stroke-linejoin="round" stroke-width="1.32" ry="5.23"/>
  </g>
  <g fill="#ffc107" stroke-width=".26" aria-label="5 times table" font-family="Funhouse" font-size="19.4" font-weight="400" letter-spacing="0" style="line-height:1.25;-inkscape-font-specification:'Funhouse, Normal';font-variant-ligatures:normal;font-variant-caps:normal;font-variant-numeric:normal;font-feature-settings:normal;text-align:start" word-spacing="0">
    <path d="M75.07 101.46q3.43.47 3.04 4.24-.4 3.77-8.8 4.46l-.8-4.28q4.17.1 4.47-.98.3-1.08-3.18-1.24-3.49-.17-3.34-8.33l11.91-1.23-1.13 5.43-4.99-.37q-.6 1.81 2.82 2.3zM91.45 99.78l.46 8.07-5.14 1.33.89-9.65-3.88-.33.3-3.5 11.12-.67.4 5.19zM100.5 95.82l.96 12.78-5.36 1.01.24-13.46zM117.1 95.74l.79 12.5-4.83.4-.26-6.39-.98 4.4-4.33.6-1.77-4.53.64 5.38-4.43.9.61-13.26 4.35-.57 2.4 7.58 2.92-7.36zM128.42 94.04l.25 5.02-5.9.63.08 1.15 3.87-.36.34 3.43-4.04.3.07.92 5.72-.43.85 4.3-11.28.4 1.15-13.67z" style="-inkscape-font-specification:'Funhouse, Normal';font-variant-ligatures:normal;font-variant-caps:normal;font-variant-numeric:normal;font-feature-settings:normal;text-align:start"/>
    <path d="M132.6 103.77q-3.42-.48-3.02-4.26.4-3.77 8.79-4.46l.8 4.28q-4.16-.09-4.47.99-.3 1.08 3.19 1.24 3.48.16 3.4 4.25-.07 4.08-9.17 4.35l-1.68-4.48q4.66.5 5.13-.46.46-.98-2.97-1.45zM154.32 99.78l.46 8.07-5.14 1.33.89-9.65-3.88-.33.3-3.5 11.12-.67.4 5.19zM160.98 107.11l-.67 1.9-3.73-2.26 4.68-11 3.56-.25 5.6 11.4L166 109l-.98-2.65zm3.24-4.15l-1.07-3.43-1.25 3.8zM174.57 100.4q2.94-.55 2.88-1.67-.06-1.12-3-.35zm.46 5.62q4.29-.17 4.3-1.5.02-1.32-4.45-1.26zm-4.13 2.99l.35-12.27q6.78-2.76 9.32-.27 2.54 2.5-.65 5.02 4.84 1.5 3.12 4.87-1.7 3.36-12.14 2.65z" style="-inkscape-font-specification:'Funhouse, Normal';font-variant-ligatures:normal;font-variant-caps:normal;font-variant-numeric:normal;font-feature-settings:normal;text-align:start"/>
    <path d="M184.75 95.55l4.67.25-1.54 9.42 4.76-.74-1.05 5.05-7.5-.52zM203.15 94.04l.25 5.02-5.9.63.08 1.15 3.87-.36.34 3.43-4.04.3.07.92 5.72-.43.85 4.3-11.28.4 1.15-13.67z" style="-inkscape-font-specification:'Funhouse, Normal';font-variant-ligatures:normal;font-variant-caps:normal;font-variant-numeric:normal;font-feature-settings:normal;text-align:start"/>
  </g>
  <g>
    <g style="line-height:1.25;-inkscape-font-specification:'Funhouse, Normal';font-variant-ligatures:normal;font-variant-caps:normal;font-variant-numeric:normal;font-feature-settings:normal;text-align:start">
      <path fill="#fff" stroke="#ffc107" stroke-width="1.06" d="M94.24 37.21q7.48 1.04 6.62 9.26-.87 8.23-19.19 9.74l-1.73-9.34q9.07.2 9.73-2.15.66-2.36-6.94-2.71-7.6-.35-7.28-18.17l25.98-2.69-2.45 11.87-10.9-.8q-1.3 3.94 6.16 5z" aria-label="5" font-family="Funhouse" font-size="42.33" font-weight="400" letter-spacing="0" style="-inkscape-font-specification:'Funhouse, Normal';font-variant-ligatures:normal;font-variant-caps:normal;font-variant-numeric:normal;font-feature-settings:normal;text-align:start" word-spacing="0"/>
    </g>
    <g transform="matrix(0 .88688 -.88688 0 -119.74 661.82)">
      <rect width="7.84" height="18.82" x="-712.05" y="-356.04" fill="#e91e63" ry="3.92"/>
      <rect width="7.84" height="18.82" x="-701.07" y="-356.04" fill="#e91e63" ry="3.92"/>
      <rect width="2.21" height="6.35" x="-710.76" y="-353.53" fill="#facedd" ry="1.1"/>
      <rect width="2.21" height="6.35" x="-699.77" y="-353.53" fill="#facedd" ry="1.1"/>
    </g>
    <g transform="matrix(.97708 0 0 .97708 -260.25 795.24)">
      <g fill="#f57c00" transform="rotate(45 327.21 -723.68) scale(1.09493)">
        <rect width="7.84" height="23.53" x="303.23" y="-746.43" ry="3.92"/>
        <rect width="7.84" height="23.53" x="-738.58" y="-318.92" ry="3.92" transform="rotate(90)"/>
      </g>
      <rect width="2.21" height="6.35" x="-826.54" y="-267.47" fill="#ffd4a9" ry="1.1" transform="scale(-1 1) rotate(45)"/>
    </g>
    <g style="line-height:1.25;-inkscape-font-specification:'Funhouse, Normal';font-variant-ligatures:normal;font-variant-caps:normal;font-variant-numeric:normal;font-feature-settings:normal;text-align:start">
      <path fill="#fff" stroke="#ffc107" stroke-width="1.06" d="M161.23 37.21q7.48 1.04 6.61 9.26-.87 8.23-19.18 9.74l-1.74-9.34q9.08.2 9.74-2.15.66-2.36-6.95-2.71-7.6-.35-7.27-18.17l25.98-2.69-2.46 11.87-10.9-.8q-1.3 3.94 6.17 5z" aria-label="5" font-family="Funhouse" font-size="42.33" font-weight="400" letter-spacing="0" style="-inkscape-font-specification:'Funhouse, Normal';font-variant-ligatures:normal;font-variant-caps:normal;font-variant-numeric:normal;font-feature-settings:normal;text-align:start" word-spacing="0"/>
    </g>
  </g>
</svg>
