<svg xmlns="http://www.w3.org/2000/svg" viewBox="0 0 270.93 135.47">
  <g transform="translate(-1170.5)">
    <path fill="#fff" stroke="#ffc107" stroke-linecap="round" stroke-linejoin="round" stroke-width="1.32" d="M1386.7 60.58a5.18 5.18 0 0 0-5.14 5.25v8.59h21.6c2.9 0 5.22 2.33 5.22 5.22v36.52h26.8a5.18 5.18 0 0 0 5.15-5.25l-9.91-22.54 9.91-22.54c1.17-2.65-2.3-5.25-5.14-5.25z"/>
    <path fill="#ffc107" d="M1386.28 60.48c-2.15-.1-4.7 3.24-4.7 5.7v8.24H1405.37c-.5-.4-1.05-.87-1.68-1.44-3.47-3.15-16.27-12.06-16.27-12.06a1.92 1.92 0 0 0-1.13-.44z"/>
    <g>
      <path fill="#fff" stroke="#ffc107" stroke-linecap="round" stroke-linejoin="round" stroke-width="1.32" d="M1176.74 60.58c-2.85 0-6.31 2.6-5.15 5.25l9.92 22.54-9.92 22.54c0 2.9 2.3 5.25 5.15 5.25h26.72V79.64c0-2.9 2.33-5.22 5.22-5.22h21.69v-8.6c0-2.9-2.3-5.24-5.15-5.24z"/>
      <path fill="#ffc107" d="M1225.65 60.48c-.4.02-.78.15-1.13.44 0 0-12.8 8.91-16.28 12.06-.62.57-1.18 1.03-1.69 1.44h23.79v-8.23c0-2.47-2.55-5.81-4.7-5.71z"/>
    </g>
    <rect width="204.93" height="55.37" x="1203.46" y="74.42" fill="#fff" stroke="#ffc107" stroke-linecap="round" stroke-linejoin="round" stroke-width="1.32" ry="5.23"/>
  </g>
  <g fill="#ffc107" stroke-width=".26" aria-label="6 times table" font-family="Funhouse" font-size="19.4" font-weight="400" letter-spacing="0" style="line-height:1.25;-inkscape-font-specification:'Funhouse, Normal';font-variant-ligatures:normal;font-variant-caps:normal;font-variant-numeric:normal;font-feature-settings:normal;text-align:start" word-spacing="0">
    <path d="M71.43 108.93Q64.06 108.85 67 96l5.44.96-1.72 3.42q7.53-1.57 7.8 3.54.28 5.1-7.1 5.02zm.6-3.71q1.68 0 1.68-1.14t-1.68-1.14q-1.67 0-1.67 1.14t1.67 1.14zM91.74 99.78l.46 8.07-5.13 1.33.88-9.65-3.88-.33.3-3.5 11.12-.67.4 5.19zM100.79 95.82l.96 12.78-5.36 1.01.25-13.46zM117.38 95.74l.8 12.5-4.83.4-.26-6.39-.97 4.4-4.34.6-1.76-4.53.63 5.38-4.42.9.6-13.26 4.35-.57 2.4 7.58 2.92-7.36zM128.72 94.04l.24 5.02-5.9.63.08 1.15 3.87-.36.34 3.43-4.03.3.06.92 5.72-.43.86 4.3-11.29.4 1.15-13.67z" style="-inkscape-font-specification:'Funhouse, Normal';font-variant-ligatures:normal;font-variant-caps:normal;font-variant-numeric:normal;font-feature-settings:normal;text-align:start"/>
    <path d="M132.9 103.77q-3.43-.48-3.03-4.26.4-3.77 8.8-4.46l.79 4.28q-4.16-.09-4.46.99-.3 1.08 3.18 1.24 3.49.16 3.41 4.25-.08 4.08-9.18 4.35l-1.68-4.48q4.66.5 5.13-.46.46-.98-2.97-1.45zM154.6 99.78l.47 8.07-5.13 1.33.88-9.65-3.88-.33.3-3.5 11.12-.67.4 5.19zM161.27 107.11l-.67 1.9-3.73-2.26 4.68-11 3.56-.25 5.6 11.4-4.42 2.1-.98-2.65zm3.24-4.15l-1.06-3.43-1.25 3.8zM174.86 100.4q2.94-.55 2.88-1.67-.05-1.12-3-.35zm.46 5.62q4.29-.17 4.3-1.5.02-1.32-4.44-1.26zm-4.12 2.99l.35-12.27q6.77-2.76 9.31-.27 2.54 2.5-.64 5.03 4.83 1.48 3.11 4.86-1.7 3.36-12.13 2.65z" style="-inkscape-font-specification:'Funhouse, Normal';font-variant-ligatures:normal;font-variant-caps:normal;font-variant-numeric:normal;font-feature-settings:normal;text-align:start"/>
    <path d="M185.04 95.55l4.67.25-1.54 9.42 4.76-.74-1.05 5.05-7.5-.52zM203.45 94.04l.24 5.02-5.9.63.09 1.15 3.86-.36.34 3.43-4.03.3.06.92 5.72-.43.86 4.3-11.29.4 1.15-13.67z" style="-inkscape-font-specification:'Funhouse, Normal';font-variant-ligatures:normal;font-variant-caps:normal;font-variant-numeric:normal;font-feature-settings:normal;text-align:start"/>
  </g>
  <g>
    <g transform="matrix(0 .88688 -.88688 0 -119.3 658.4)">
      <rect width="7.84" height="18.82" x="-712.05" y="-356.04" fill="#e91e63" ry="3.92"/>
      <rect width="7.84" height="18.82" x="-701.07" y="-356.04" fill="#e91e63" ry="3.92"/>
      <rect width="2.21" height="6.35" x="-710.76" y="-353.53" fill="#facedd" ry="1.1"/>
      <rect width="2.21" height="6.35" x="-699.77" y="-353.53" fill="#facedd" ry="1.1"/>
    </g>
    <g transform="matrix(.97708 0 0 .97708 -259.83 791.82)">
      <g fill="#f57c00" transform="rotate(45 327.21 -723.68) scale(1.09493)">
        <rect width="7.84" height="23.53" x="303.23" y="-746.43" ry="3.92"/>
        <rect width="7.84" height="23.53" x="-738.58" y="-318.92" ry="3.92" transform="rotate(90)"/>
      </g>
      <rect width="2.21" height="6.35" x="-826.54" y="-267.47" fill="#ffd4a9" ry="1.1" transform="scale(-1 1) rotate(45)"/>
    </g>
    <g style="line-height:1.25;-inkscape-font-specification:'Funhouse, Normal';font-variant-ligatures:normal;font-variant-caps:normal;font-variant-numeric:normal;font-feature-settings:normal;text-align:start">
      <path fill="#fff" stroke="#ffc107" stroke-width="1.06" d="M86.5 49.4q-16.07-.19-9.66-28.24l11.87 2.09-3.76 7.46q16.43-3.41 17.03 7.73.6 11.12-15.48 10.96zm1.32-8.1q3.66 0 3.66-2.49 0-2.48-3.66-2.48-3.64 0-3.64 2.48t3.64 2.48z" aria-label="6" font-family="Funhouse" font-size="42.33" font-weight="400" letter-spacing="0" style="-inkscape-font-specification:'Funhouse, Normal';font-variant-ligatures:normal;font-variant-caps:normal;font-variant-numeric:normal;font-feature-settings:normal;text-align:start" word-spacing="0"/>
    </g>
    <g style="line-height:1.25;-inkscape-font-specification:'Funhouse, Normal';font-variant-ligatures:normal;font-variant-caps:normal;font-variant-numeric:normal;font-feature-settings:normal;text-align:start">
      <path fill="#fff" stroke="#ffc107" stroke-width="1.06" d="M153.9 49.4q-16.05-.19-9.64-28.24l11.86 2.09-3.76 7.46q16.43-3.41 17.03 7.73.6 11.12-15.48 10.96zm1.33-8.1q3.66 0 3.66-2.49 0-2.48-3.66-2.48-3.64 0-3.64 2.48t3.64 2.48z" aria-label="6" font-family="Funhouse" font-size="42.33" font-weight="400" letter-spacing="0" style="-inkscape-font-specification:'Funhouse, Normal';font-variant-ligatures:normal;font-variant-caps:normal;font-variant-numeric:normal;font-feature-settings:normal;text-align:start" word-spacing="0"/>
    </g>
  </g>
</svg>
