<svg xmlns="http://www.w3.org/2000/svg" viewBox="0 0 270.93 135.47">
  <g transform="translate(0 -164.28)">
    <path fill="#fff" stroke="#ffc107" stroke-linecap="round" stroke-linejoin="round" stroke-width="1.32" d="M216.2 224.86a5.18 5.18 0 0 0-5.14 5.25v8.59h21.6c2.9 0 5.23 2.33 5.23 5.22v36.51h26.8a5.18 5.18 0 0 0 5.15-5.24l-9.92-22.54 9.92-22.54c1.16-2.65-2.3-5.25-5.15-5.25z"/>
    <path fill="#ffc107" d="M215.78 224.76c-2.15-.1-4.69 3.24-4.69 5.7v8.24h23.78c-.5-.4-1.06-.87-1.68-1.44-3.48-3.15-16.28-12.07-16.28-12.07a1.92 1.92 0 0 0-1.13-.43z"/>
    <g>
      <path fill="#fff" stroke="#ffc107" stroke-linecap="round" stroke-linejoin="round" stroke-width="1.32" d="M6.24 224.86c-2.85 0-6.3 2.6-5.14 5.25L11 252.65 1.1 275.19c0 2.9 2.3 5.24 5.14 5.24h26.72v-36.5c0-2.9 2.33-5.23 5.23-5.23h21.68v-8.6c0-2.9-2.3-5.24-5.15-5.24z"/>
      <path fill="#ffc107" d="M55.15 224.76c-.4.01-.78.15-1.13.43 0 0-12.8 8.92-16.27 12.07-.63.57-1.19 1.03-1.7 1.44h23.79v-8.23c0-2.47-2.54-5.82-4.69-5.71z"/>
    </g>
    <rect width="204.93" height="55.37" x="32.96" y="238.7" fill="#fff" stroke="#ffc107" stroke-linecap="round" stroke-linejoin="round" stroke-width="1.32" ry="5.23"/>
  </g>
  <g fill="#ffc107" stroke-width=".26" aria-label="7 times table" font-family="Funhouse" font-size="19.4" font-weight="400" letter-spacing="0" style="line-height:1.25;-inkscape-font-specification:'Funhouse, Normal';font-variant-ligatures:normal;font-variant-caps:normal;font-variant-numeric:normal;font-feature-settings:normal;text-align:start" word-spacing="0">
    <path d="M74.2 108.35l-6.3-2.64 4.28-6.2-4.55.6-1.27-4.37 12.22-.98zM91.54 99.78l.46 8.07-5.13 1.33.88-9.65-3.88-.33.3-3.5 11.12-.67.4 5.19zM100.58 95.82l.97 12.78-5.36 1.01.25-13.46zM117.18 95.74l.8 12.5-4.83.4-.26-6.39-.97 4.4-4.34.6-1.77-4.53.64 5.38-4.43.9.61-13.26 4.35-.57 2.4 7.58 2.92-7.36zM128.51 94.04l.25 5.02-5.9.63.08 1.15 3.87-.36.34 3.43-4.04.3.07.92 5.72-.43.86 4.3-11.29.4 1.15-13.67z" style="-inkscape-font-specification:'Funhouse, Normal';font-variant-ligatures:normal;font-variant-caps:normal;font-variant-numeric:normal;font-feature-settings:normal;text-align:start"/>
    <path d="M132.7 103.77q-3.43-.48-3.03-4.26.4-3.77 8.8-4.46l.79 4.28q-4.16-.09-4.46.99-.3 1.08 3.18 1.24 3.49.16 3.4 4.25-.07 4.08-9.17 4.35l-1.68-4.48q4.66.5 5.13-.46.46-.98-2.97-1.45zM154.4 99.78l.47 8.07-5.13 1.33.88-9.65-3.88-.33.3-3.5 11.12-.67.4 5.19zM161.07 107.11l-.67 1.9-3.73-2.26 4.68-11 3.56-.25 5.6 11.4-4.42 2.1-.98-2.65zm3.24-4.15l-1.06-3.43-1.25 3.8zM174.66 100.4q2.94-.55 2.88-1.67-.05-1.12-3-.35zm.46 5.62q4.29-.17 4.3-1.5.02-1.32-4.45-1.26zm-4.12 2.99l.35-12.27q6.77-2.76 9.3-.27 2.55 2.5-.64 5.02 4.84 1.5 3.12 4.87-1.7 3.36-12.13 2.65z" style="-inkscape-font-specification:'Funhouse, Normal';font-variant-ligatures:normal;font-variant-caps:normal;font-variant-numeric:normal;font-feature-settings:normal;text-align:start"/>
    <path d="M184.84 95.55l4.67.25-1.54 9.42 4.76-.74-1.05 5.05-7.5-.52zM203.25 94.04l.24 5.02-5.9.63.08 1.15 3.87-.36.34 3.43-4.03.3.06.92 5.72-.43.86 4.3-11.29.4 1.15-13.67z" style="-inkscape-font-specification:'Funhouse, Normal';font-variant-ligatures:normal;font-variant-caps:normal;font-variant-numeric:normal;font-feature-settings:normal;text-align:start"/>
  </g>
  <g>
    <g transform="matrix(0 .88688 -.88688 0 -119.3 659.19)">
      <rect width="7.84" height="18.82" x="-712.05" y="-356.04" fill="#e91e63" ry="3.92"/>
      <rect width="7.84" height="18.82" x="-701.07" y="-356.04" fill="#e91e63" ry="3.92"/>
      <rect width="2.21" height="6.35" x="-710.76" y="-353.53" fill="#facedd" ry="1.1"/>
      <rect width="2.21" height="6.35" x="-699.77" y="-353.53" fill="#facedd" ry="1.1"/>
    </g>
    <g transform="matrix(.97708 0 0 .97708 -259.81 792.61)">
      <g fill="#f57c00" transform="rotate(45 327.21 -723.68) scale(1.09493)">
        <rect width="7.84" height="23.53" x="303.23" y="-746.43" ry="3.92"/>
        <rect width="7.84" height="23.53" x="-738.58" y="-318.92" ry="3.92" transform="rotate(90)"/>
      </g>
      <rect width="2.21" height="6.35" x="-826.54" y="-267.47" fill="#ffd4a9" ry="1.1" transform="scale(-1 1) rotate(45)"/>
    </g>
    <g style="line-height:1.25;-inkscape-font-specification:'Funhouse, Normal';font-variant-ligatures:normal;font-variant-caps:normal;font-variant-numeric:normal;font-feature-settings:normal;text-align:start">
      <path fill="#fff" stroke="#ffc107" stroke-width="1.06" d="M92.25 50.8l-13.73-5.76 9.33-13.52-9.93 1.3-2.77-9.53 26.65-2.15z" aria-label="7" font-family="Funhouse" font-size="42.33" font-weight="400" letter-spacing="0" style="-inkscape-font-specification:'Funhouse, Normal';font-variant-ligatures:normal;font-variant-caps:normal;font-variant-numeric:normal;font-feature-settings:normal;text-align:start" word-spacing="0"/>
    </g>
    <g style="line-height:1.25;-inkscape-font-specification:'Funhouse, Normal';font-variant-ligatures:normal;font-variant-caps:normal;font-variant-numeric:normal;font-feature-settings:normal;text-align:start">
      <path fill="#fff" stroke="#ffc107" stroke-width="1.06" d="M159.68 50.8l-13.73-5.76 9.32-13.52-9.92 1.3-2.77-9.53 26.65-2.15z" aria-label="7" font-family="Funhouse" font-size="42.33" font-weight="400" letter-spacing="0" style="-inkscape-font-specification:'Funhouse, Normal';font-variant-ligatures:normal;font-variant-caps:normal;font-variant-numeric:normal;font-feature-settings:normal;text-align:start" word-spacing="0"/>
    </g>
  </g>
</svg>
