<svg xmlns="http://www.w3.org/2000/svg" viewBox="0 0 270.93 135.47">
  <g transform="translate(-285.45 -164.28)">
    <path fill="#fff" stroke="#ffc107" stroke-linecap="round" stroke-linejoin="round" stroke-width="1.32" d="M501.66 224.86a5.18 5.18 0 0 0-5.15 5.25v8.59h21.6c2.9 0 5.23 2.33 5.23 5.22v36.51h26.8a5.18 5.18 0 0 0 5.14-5.24l-9.91-22.54 9.91-22.54c1.17-2.65-2.3-5.25-5.14-5.25z"/>
    <path fill="#ffc107" d="M501.23 224.76c-2.15-.1-4.7 3.24-4.7 5.7v8.24h23.79c-.5-.4-1.06-.87-1.69-1.44-3.47-3.15-16.27-12.07-16.27-12.07a1.92 1.92 0 0 0-1.13-.43z"/>
    <g>
      <path fill="#fff" stroke="#ffc107" stroke-linecap="round" stroke-linejoin="round" stroke-width="1.32" d="M291.69 224.86c-2.85 0-6.31 2.6-5.15 5.25l9.92 22.54-9.92 22.54c0 2.9 2.3 5.24 5.15 5.24h26.72v-36.5c0-2.9 2.33-5.23 5.22-5.23h21.69v-8.6c0-2.9-2.3-5.24-5.15-5.24z"/>
      <path fill="#ffc107" d="M340.6 224.76c-.4.01-.78.15-1.13.43 0 0-12.8 8.92-16.28 12.07-.62.57-1.18 1.03-1.68 1.44h23.78v-8.23c0-2.47-2.54-5.82-4.69-5.71z"/>
    </g>
    <rect width="204.93" height="55.37" x="318.41" y="238.7" fill="#fff" stroke="#ffc107" stroke-linecap="round" stroke-linejoin="round" stroke-width="1.32" ry="5.23"/>
  </g>
  <g fill="#ffc107" stroke-width=".26" aria-label="8 times table" font-family="Funhouse" font-size="19.4" font-weight="400" letter-spacing="0" style="line-height:1.25;-inkscape-font-specification:'Funhouse, Normal';font-variant-ligatures:normal;font-variant-caps:normal;font-variant-numeric:normal;font-feature-settings:normal;text-align:start" word-spacing="0">
    <path d="M71.9 98.04q-.52 0-.9.3-.35.28-.35.7 0 .42.36.71.37.3.89.3.5 0 .87-.3t.37-.7q0-.43-.37-.72-.36-.3-.87-.3zm.19 4.87q-.79 0-1.35.32t-.56.79q0 .46.56.8.56.31 1.35.31.8 0 1.35-.32.56-.33.56-.8 0-.46-.56-.78t-1.35-.32zm3.47-1.55q.37.2.71.45 1.57 1.18 1.57 2.86 0 1.67-1.58 2.85-1.56 1.18-3.78 1.18-2.22 0-3.8-1.18-1.56-1.18-1.56-2.85 0-1.68 1.58-2.86.24-.18.5-.34-1-.99-1-2.34 0-1.5 1.2-2.53 1.22-1.05 2.93-1.05 1.7 0 2.92 1.05 1.21 1.04 1.21 2.53 0 1.28-.9 2.23zM90.78 99.78l.46 8.07-5.13 1.33.88-9.65-3.88-.33.3-3.5 11.12-.67.4 5.19zM99.83 95.82l.96 12.78-5.36 1.01.25-13.46zM116.43 95.74l.8 12.5-4.84.4-.26-6.39-.97 4.4-4.34.6-1.76-4.53.63 5.38-4.42.9.6-13.26 4.35-.57 2.4 7.58 2.93-7.36zM127.76 94.04l.24 5.02-5.89.63.08 1.15 3.86-.36.34 3.43-4.03.3.06.92 5.72-.43.86 4.3-11.29.4 1.15-13.67z" style="-inkscape-font-specification:'Funhouse, Normal';font-variant-ligatures:normal;font-variant-caps:normal;font-variant-numeric:normal;font-feature-settings:normal;text-align:start"/>
    <path d="M131.93 103.77q-3.42-.48-3.02-4.26.4-3.77 8.8-4.46l.79 4.28q-4.16-.09-4.46.99-.3 1.08 3.18 1.24 3.49.16 3.41 4.25-.07 4.08-9.18 4.35l-1.68-4.48q4.67.5 5.13-.46.46-.98-2.97-1.45zM153.65 99.78l.46 8.07-5.13 1.33.88-9.65-3.88-.33.3-3.5 11.12-.67.4 5.19zM160.3 107.11l-.65 1.9-3.74-2.26 4.68-11 3.57-.25 5.6 11.4-4.43 2.1-.98-2.65zm3.25-4.15l-1.06-3.43-1.25 3.8zM173.9 100.4q2.94-.55 2.88-1.67-.05-1.12-3-.35zm.46 5.62q4.3-.17 4.3-1.5.02-1.32-4.44-1.26zm-4.12 2.99l.35-12.27q6.77-2.76 9.31-.27 2.54 2.5-.64 5.02 4.83 1.5 3.11 4.87-1.7 3.36-12.13 2.65z" style="-inkscape-font-specification:'Funhouse, Normal';font-variant-ligatures:normal;font-variant-caps:normal;font-variant-numeric:normal;font-feature-settings:normal;text-align:start"/>
    <path d="M184.08 95.55l4.67.25-1.53 9.42 4.75-.74-1.05 5.05-7.5-.52zM202.49 94.04l.24 5.02-5.89.63.08 1.15 3.86-.36.34 3.43-4.03.3.06.92 5.73-.43.85 4.3-11.29.4 1.15-13.67z" style="-inkscape-font-specification:'Funhouse, Normal';font-variant-ligatures:normal;font-variant-caps:normal;font-variant-numeric:normal;font-feature-settings:normal;text-align:start"/>
  </g>
  <g>
    <g transform="matrix(0 .88688 -.88688 0 -121.11 658.59)">
      <rect width="7.84" height="18.82" x="-712.05" y="-356.04" fill="#e91e63" ry="3.92"/>
      <rect width="7.84" height="18.82" x="-701.07" y="-356.04" fill="#e91e63" ry="3.92"/>
      <rect width="2.21" height="6.35" x="-710.76" y="-353.53" fill="#facedd" ry="1.1"/>
      <rect width="2.21" height="6.35" x="-699.77" y="-353.53" fill="#facedd" ry="1.1"/>
    </g>
    <g transform="matrix(.97708 0 0 .97708 -261.63 792.01)">
      <g fill="#f57c00" transform="rotate(45 327.21 -723.68) scale(1.09493)">
        <rect width="7.84" height="23.53" x="303.23" y="-746.43" ry="3.92"/>
        <rect width="7.84" height="23.53" x="-738.58" y="-318.92" ry="3.92" transform="rotate(90)"/>
      </g>
      <rect width="2.21" height="6.35" x="-826.54" y="-267.47" fill="#ffd4a9" ry="1.1" transform="scale(-1 1) rotate(45)"/>
    </g>
    <g style="line-height:1.25;-inkscape-font-specification:'Funhouse, Normal';font-variant-ligatures:normal;font-variant-caps:normal;font-variant-numeric:normal;font-feature-settings:normal;text-align:start">
      <path fill="#fff" stroke="#ffc107" stroke-width="1.06" d="M87.23 26.52q-1.13 0-1.94.64-.79.64-.79 1.55 0 .9.79 1.55.8.64 1.94.64 1.12 0 1.9-.64.81-.64.81-1.55t-.8-1.55q-.8-.64-1.9-.64zm.42 10.62q-1.72 0-2.94.7t-1.22 1.72q0 1.01 1.22 1.74 1.22.7 2.94.7 1.73 0 2.95-.7 1.22-.73 1.22-1.74t-1.22-1.71q-1.22-.7-2.95-.7zm7.58-3.37q.8.44 1.55.97 3.41 2.59 3.41 6.25 0 3.64-3.43 6.22-3.4 2.58-8.25 2.58t-8.28-2.58q-3.41-2.58-3.41-6.22 0-3.66 3.43-6.25.53-.39 1.1-.74-2.2-2.15-2.2-5.1 0-3.25 2.65-5.52 2.64-2.3 6.38-2.3 3.72 0 6.37 2.3 2.65 2.27 2.65 5.51 0 2.8-1.97 4.88z" aria-label="8" font-family="Funhouse" font-size="42.33" font-weight="400" letter-spacing="0" style="-inkscape-font-specification:'Funhouse, Normal';font-variant-ligatures:normal;font-variant-caps:normal;font-variant-numeric:normal;font-feature-settings:normal;text-align:start" word-spacing="0"/>
    </g>
    <g style="line-height:1.25;-inkscape-font-specification:'Funhouse, Normal';font-variant-ligatures:normal;font-variant-caps:normal;font-variant-numeric:normal;font-feature-settings:normal;text-align:start">
      <path fill="#fff" stroke="#ffc107" stroke-width="1.06" d="M152.84 26.52q-1.14 0-1.94.64-.79.64-.79 1.55 0 .9.79 1.55.8.64 1.94.64 1.12 0 1.9-.64.8-.64.8-1.55t-.8-1.55q-.78-.64-1.9-.64zm.41 10.62q-1.71 0-2.93.7-1.22.7-1.22 1.72 0 1.01 1.22 1.74 1.22.7 2.93.7 1.74 0 2.96-.7 1.22-.73 1.22-1.74t-1.22-1.71q-1.22-.7-2.96-.7zm7.6-3.37q.8.44 1.54.97 3.41 2.59 3.41 6.25 0 3.64-3.43 6.22-3.41 2.58-8.25 2.58-4.86 0-8.29-2.58-3.4-2.58-3.4-6.22 0-3.66 3.42-6.25.54-.39 1.1-.74-2.2-2.15-2.2-5.1 0-3.25 2.65-5.52 2.65-2.3 6.4-2.3 3.71 0 6.36 2.3 2.64 2.27 2.64 5.51 0 2.8-1.96 4.88z" aria-label="8" font-family="Funhouse" font-size="42.33" font-weight="400" letter-spacing="0" style="-inkscape-font-specification:'Funhouse, Normal';font-variant-ligatures:normal;font-variant-caps:normal;font-variant-numeric:normal;font-feature-settings:normal;text-align:start" word-spacing="0"/>
    </g>
  </g>
</svg>
