<svg xmlns="http://www.w3.org/2000/svg" viewBox="0 0 270.93 135.47">
  <g transform="translate(-296.4 -503.92)">
    <path fill="#fff" stroke="#ffc107" stroke-linecap="round" stroke-linejoin="round" stroke-width="1.32" d="M512.61 564.5a5.18 5.18 0 0 0-5.14 5.25v8.58h21.6c2.9 0 5.23 2.34 5.23 5.23v36.51h26.8a5.18 5.18 0 0 0 5.14-5.24l-9.91-22.54 9.91-22.54c1.17-2.66-2.3-5.25-5.14-5.25z"/>
    <path fill="#ffc107" d="M512.19 564.4c-2.15-.1-4.7 3.24-4.7 5.7v8.23h23.79c-.5-.4-1.06-.87-1.69-1.43-3.47-3.15-16.27-12.07-16.27-12.07a1.92 1.92 0 0 0-1.13-.44z"/>
    <g>
      <path fill="#fff" stroke="#ffc107" stroke-linecap="round" stroke-linejoin="round" stroke-width="1.32" d="M302.65 564.5c-2.85 0-6.31 2.6-5.15 5.25l9.92 22.54-9.92 22.54c0 2.9 2.3 5.24 5.15 5.24h26.72v-36.51c0-2.9 2.33-5.23 5.22-5.23h21.69v-8.58c0-2.91-2.3-5.25-5.15-5.25z"/>
      <path fill="#ffc107" d="M351.56 564.4c-.4.01-.78.15-1.13.43 0 0-12.8 8.92-16.28 12.07-.62.56-1.18 1.03-1.69 1.43h23.79v-8.22c0-2.47-2.55-5.82-4.7-5.72z"/>
    </g>
    <rect width="204.93" height="55.37" x="329.37" y="578.33" fill="#fff" stroke="#ffc107" stroke-linecap="round" stroke-linejoin="round" stroke-width="1.32" ry="5.23"/>
  </g>
  <g fill="#ffc107" stroke-width=".26" font-family="Funhouse" font-weight="400" letter-spacing="0" word-spacing="0">
    <g aria-label="missing number" font-size="16.93" style="line-height:1.25;-inkscape-font-specification:'Funhouse, Normal';font-variant-ligatures:normal;font-variant-caps:normal;font-variant-numeric:normal;font-feature-settings:normal;text-align:start">
      <path d="M73.04 96.1l.7 10.9-4.22.36-.23-5.58-.85 3.84-3.79.52-1.53-3.96.55 4.7-3.86.8.53-11.58 3.8-.5 2.1 6.6 2.54-6.4zM78 96.16l.84 11.16-4.68.88.22-11.75zM82.24 103.1q-2.98-.42-2.64-3.71.35-3.3 7.68-3.9l.7 3.74q-3.64-.08-3.9.86-.27.94 2.78 1.09 3.04.14 2.97 3.7-.06 3.56-8.01 3.8l-1.46-3.9q4.06.43 4.47-.41.4-.85-2.59-1.27z" style="-inkscape-font-specification:'Funhouse, Normal';font-variant-ligatures:normal;font-variant-caps:normal;font-variant-numeric:normal;font-feature-settings:normal;text-align:start"/>
      <path d="M92.43 103.1q-2.99-.42-2.64-3.71.35-3.3 7.67-3.9l.7 3.74q-3.63-.08-3.9.86-.26.94 2.78 1.09 3.04.14 2.98 3.7-.07 3.56-8.01 3.8l-1.47-3.9q4.07.43 4.48-.41.4-.85-2.6-1.27zM104.33 96.16l.84 11.16-4.68.88.21-11.75zM109.72 101.89l.82 4.73-4.12 1.05-.84-10.85 4.14-.72 4.09 5.4.05-5.4 5.13-.53-1.82 12.1-3.29.48zM132.16 107.56l-4.7 1.19.07-1.3q-.91.22-1.93.22-2.77 0-4.73-1.7-1.96-1.69-1.96-4.08 0-2.4 1.96-4.1 1.96-1.7 4.73-1.7 2.77 0 4.73 1.7.98.86 1.48 1.89l-3.97 1q-.2-.53-.7-.96-.84-.73-2.02-.73-1.18 0-2.03.73-.84.73-.84 1.75 0 1.03.84 1.76.85.72 2.03.72 1.18 0 2.03-.72.45-.4.7-.88l3.75-.17zM140.91 101.89l.82 4.73-4.12 1.05-.84-10.85 4.14-.72 4.09 5.4.05-5.4 5.12-.53-1.82 12.1-3.28.48z" style="-inkscape-font-specification:'Funhouse, Normal';font-variant-ligatures:normal;font-variant-caps:normal;font-variant-numeric:normal;font-feature-settings:normal;text-align:start"/>
      <path d="M151.16 96.68l4.4.86q-2.2 6.75.63 6.83 3.36-.03 1.95-7l4.03-1.27q1.85 11.47-5.98 11.57-7.91-.07-5.03-11z" style="-inkscape-font-specification:'Funhouse, Normal';font-variant-ligatures:normal;font-variant-caps:normal;font-variant-numeric:normal;font-feature-settings:normal;text-align:start"/>
      <path d="M176.16 96.1l.7 10.9-4.22.36-.23-5.58-.85 3.84-3.78.52-1.54-3.96.55 4.7-3.86.8.53-11.58 3.8-.5 2.1 6.6 2.54-6.4zM180.48 100.16q2.57-.48 2.52-1.46-.05-.97-2.62-.3zm.4 4.91q3.75-.15 3.76-1.3.01-1.16-3.88-1.11zm-3.6 2.6l.31-10.7q5.91-2.4 8.13-.23 2.21 2.17-.56 4.38 4.21 1.3 2.72 4.24-1.5 2.93-10.6 2.31z" style="-inkscape-font-specification:'Funhouse, Normal';font-variant-ligatures:normal;font-variant-caps:normal;font-variant-numeric:normal;font-feature-settings:normal;text-align:start"/>
      <path d="M197.56 94.61l.21 4.38-5.14.56.07 1 3.37-.32.3 3-3.52.25.05.81 5-.38.74 3.76-9.85.34 1-11.93zM203.1 98.83l.11 2.23q4.14 0 4.14-.83 0-.82-4.25-1.4zm.55 8.17l-4.6.65.96-12.35q10.65.8 11 4.27.36 3.47-3.66 4.8l3.3 1.8-3.38 3-3.88-4.8z" style="-inkscape-font-specification:'Funhouse, Normal';font-variant-ligatures:normal;font-variant-caps:normal;font-variant-numeric:normal;font-feature-settings:normal;text-align:start"/>
    </g>
    <g aria-label="find the" font-size="16.93" style="line-height:1.25;-inkscape-font-specification:'Funhouse, Normal';font-variant-ligatures:normal;font-variant-caps:normal;font-variant-numeric:normal;font-feature-settings:normal;text-align:start">
      <path d="M105.26 77.69l-.7 4.8-4.03-.22.16.83 3.2.36-.43 3.44-2.21-.5.74 3.6-4.05.54-.9-10.86zM109.5 79.03l.84 11.15-4.68.89.22-11.75zM114.9 84.75l.82 4.74-4.13 1.05-.83-10.86 4.14-.72 4.08 5.41.05-5.4 5.13-.54-1.82 12.1-3.28.49zM125.11 90.54l-.53-11.58q11.28 0 11.28 5.8 0 5.78-10.75 5.78zm2.94-8.5l.56 4q3.58.01 3.58-2 0-2-4.14-2zM147.18 82.49l.4 7.04-4.48 1.16.77-8.42-3.38-.29.26-3.06 9.7-.58.36 4.53zM155.55 87.05l.3 2.8-3.17.55-1.44-9.16 3.52-1.5.4 3.96 3.17-.36.05-3.62 5.52.56-2.11 10.16-3.55-1.05.04-2.64zM172.54 77.48l.21 4.38-5.14.55.07 1 3.37-.31.3 3-3.53.25.06.8 5-.37.74 3.76-9.85.34 1-11.93z" style="-inkscape-font-specification:'Funhouse, Normal';font-variant-ligatures:normal;font-variant-caps:normal;font-variant-numeric:normal;font-feature-settings:normal;text-align:start"/>
    </g>
    <g aria-label="subtractions up to 20" font-size="15.38" style="line-height:1.25;-inkscape-font-specification:'Funhouse, Normal';font-variant-ligatures:normal;font-variant-caps:normal;font-variant-numeric:normal;font-feature-settings:normal;text-align:start">
      <path d="M39.22 121.05q-2.62-.4-2.32-3.49.3-3.08 6.75-3.65l.61 3.5q-3.19-.07-3.42.81-.23.89 2.44 1.02 2.68.13 2.62 3.47-.06 3.34-7.05 3.57l-1.28-3.67q3.57.41 3.93-.38.36-.8-2.28-1.18z" style="-inkscape-font-specification:'Funhouse, Normal';font-variant-ligatures:normal;font-variant-caps:normal;font-variant-numeric:normal;font-feature-settings:normal;text-align:start"/>
      <path d="M47.19 115.02l3.87.8q-1.93 6.34.56 6.41 2.95-.02 1.7-6.56l3.55-1.19q1.63 10.76-5.25 10.85-6.96-.07-4.43-10.3z" style="-inkscape-font-specification:'Funhouse, Normal';font-variant-ligatures:normal;font-variant-caps:normal;font-variant-numeric:normal;font-feature-settings:normal;text-align:start"/>
      <path d="M60.59 118.29q2.25-.45 2.21-1.37-.04-.91-2.3-.29zm.35 4.6q3.3-.14 3.3-1.22.02-1.09-3.41-1.04zm-3.16 2.44l.26-10.04q5.2-2.25 7.15-.21 1.95 2.04-.5 4.1 3.72 1.22 2.4 3.98-1.3 2.75-9.31 2.17z" style="-inkscape-font-specification:'Funhouse, Normal';font-variant-ligatures:normal;font-variant-caps:normal;font-variant-numeric:normal;font-feature-settings:normal;text-align:start"/>
      <path d="M72.65 117.78l.35 6.6-3.94 1.1.68-7.9-2.98-.27.24-2.87 8.53-.54.31 4.24zM79.78 117.04l.1 2.1q3.64 0 3.64-.78t-3.74-1.32zm.49 7.66l-4.05.6.84-11.56q9.37.74 9.68 4 .32 3.24-3.22 4.5l2.9 1.67-2.97 2.82-3.41-4.5zM89.95 123.78l-.51 1.55-2.87-1.84 3.6-9.01 2.73-.2 4.3 9.32-3.4 1.73-.75-2.18zm2.49-3.4l-.82-2.8-.96 3.1zM106.74 123.74q-1.72 1.6-4.16 1.6-2.44 0-4.16-1.6-1.72-1.59-1.72-3.83 0-2.25 1.72-3.84 1.72-1.59 4.16-1.59 2.44 0 4.16 1.59.87.8 1.3 1.77l-3.49.93q-.17-.5-.6-.9-.75-.68-1.8-.68-1.03 0-1.77.68-.74.69-.74 1.65t.74 1.64q.74.68 1.78.68t1.78-.68q.4-.37.59-.84l3.5 1.66q-.42.96-1.29 1.76zM114.3 117.78l.36 6.6-3.94 1.1.67-7.9-2.97-.27.23-2.87 8.53-.54.32 4.24zM121.25 114.54l.74 10.46-4.12.83.2-11.02zM128.28 125.33q-2.46 0-4.2-1.59-1.73-1.59-1.73-3.83 0-2.25 1.74-3.84 1.73-1.59 4.2-1.59 2.44 0 4.17 1.59 1.74 1.59 1.74 3.84 0 2.24-1.74 3.83-1.73 1.6-4.18 1.6zm-.4-3.39q1.04 0 1.78-.68.75-.68.75-1.64 0-.96-.75-1.64-.74-.69-1.79-.69t-1.8.69q-.74.68-.74 1.64 0 .96.74 1.64.75.68 1.8.68zM138.22 119.9l.72 4.45-3.63.98-.74-10.18 3.65-.67 3.59 5.07.04-5.07 4.51-.5-1.6 11.35-2.89.45zM148.92 121.05q-2.62-.4-2.32-3.49.3-3.08 6.75-3.65l.61 3.5q-3.2-.07-3.42.81-.24.89 2.44 1.02 2.67.13 2.62 3.47-.06 3.34-7.05 3.57l-1.29-3.67q3.58.41 3.94-.38.35-.8-2.28-1.18zM162.24 115.02l3.87.8q-1.93 6.34.56 6.41 2.95-.02 1.7-6.56l3.55-1.19q1.63 10.76-5.25 10.85-6.96-.07-4.43-10.3z" style="-inkscape-font-specification:'Funhouse, Normal';font-variant-ligatures:normal;font-variant-caps:normal;font-variant-numeric:normal;font-feature-settings:normal;text-align:start"/>
      <path d="M176.75 122.2l.6 2.33-3.8.8-.72-10.38q9.68-1.66 10.17 3.4 0 3.88-6.25 3.86zm-1-4.58l.41 1.51q3.93 0 3.7-1.1-.24-1.1-4.1-.41zM192.93 117.78l.36 6.6-3.94 1.1.67-7.9-2.97-.27.23-2.87 8.53-.54.32 4.24zM202.43 125.33q-2.46 0-4.2-1.59-1.73-1.59-1.73-3.83 0-2.25 1.74-3.84 1.73-1.59 4.2-1.59 2.44 0 4.17 1.59 1.74 1.59 1.74 3.84 0 2.24-1.74 3.83-1.73 1.6-4.18 1.6zm-.4-3.39q1.04 0 1.78-.68.75-.68.75-1.64 0-.96-.75-1.64-.74-.69-1.79-.69t-1.8.69q-.74.68-.74 1.64 0 .96.74 1.64.75.68 1.8.68zM219.14 120.26q-2.62.39-2.16 1.87l3.83-.3.86 4.45-9.14-1.01q-.11-6.68 2.56-6.81 2.68-.14 2.45-1.02-.24-.88-3.43-.8l.61-3.5q6.45.56 6.75 3.64.3 3.09-2.33 3.48zM228.06 125.33q-2.46 0-4.2-1.59-1.73-1.59-1.73-3.83 0-2.25 1.73-3.84 1.74-1.59 4.2-1.59 2.45 0 4.18 1.59 1.74 1.59 1.74 3.84 0 2.24-1.74 3.83-1.73 1.6-4.18 1.6zm-.4-3.39q1.04 0 1.78-.68.75-.68.75-1.64 0-.96-.75-1.64-.74-.69-1.79-.69t-1.8.69q-.74.68-.74 1.64 0 .96.74 1.64.75.68 1.8.68z" style="-inkscape-font-specification:'Funhouse, Normal';font-variant-ligatures:normal;font-variant-caps:normal;font-variant-numeric:normal;font-feature-settings:normal;text-align:start"/>
    </g>
  </g>
  <g>
    <g transform="matrix(0 .91414 -.91414 0 -138.49 662.77)">
      <rect width="7.84" height="18.82" x="-712.05" y="-356.04" fill="#e91e63" ry="3.92"/>
      <rect width="7.84" height="18.82" x="-701.07" y="-356.04" fill="#e91e63" ry="3.92"/>
      <rect width="2.21" height="6.35" x="-710.76" y="-353.53" fill="#facedd" ry="1.1"/>
      <rect width="2.21" height="6.35" x="-699.77" y="-353.53" fill="#facedd" ry="1.1"/>
    </g>
    <g style="line-height:1.25;-inkscape-font-specification:'Funhouse, Normal';font-variant-ligatures:normal;font-variant-caps:normal;font-variant-numeric:normal;font-feature-settings:normal;text-align:start">
      <path fill="#fff" stroke="#ffc107" stroke-width="1.0551084" d="M151.27 33.32q-1.48 0-2.53-1.03-1.04-1.06-1.04-2.53 0-1.48 1.04-2.52 1.05-1.05 2.53-1.05 1.48 0 2.51 1.05 1.05 1.04 1.05 2.52 0 1.47-1.05 2.53-1.03 1.03-2.51 1.03zm-4.6-15.47q8.16-.57 8.32-2.19.16-1.62-11.2.93l-1.6-6.88q20.46-5.61 21.55 3.81.84 7.25-9.09 9.79l.52 1.28-7.75 1.33z" aria-label="?" font-family="Funhouse" font-size="35.28" font-weight="400" letter-spacing="0" style="-inkscape-font-specification:'Funhouse, Normal';font-variant-ligatures:normal;font-variant-caps:normal;font-variant-numeric:normal;font-feature-settings:normal;text-align:start" word-spacing="0"/>
    </g>
    <g fill="#fff" stroke="#ffc107" stroke-width="1.06" aria-label="20" font-family="Funhouse" font-size="35.28" font-weight="400" letter-spacing="0" style="line-height:1.25;-inkscape-font-specification:'Funhouse, Normal';font-variant-ligatures:normal;font-variant-caps:normal;font-variant-numeric:normal;font-feature-settings:normal;text-align:start" word-spacing="0">
      <path d="M71.65 21.7q-6.22.87-5.13 4.16l9.08-.67 2.05 9.88-21.66-2.24Q55.72 18 62.06 17.7q6.34-.3 5.78-2.25-.55-1.97-8.1-1.8l1.44-7.78q15.26 1.26 15.98 8.11.73 6.86-5.5 7.74zM92.77 32.97q-5.82 0-9.94-3.53-4.1-3.53-4.1-8.53t4.1-8.52q4.12-3.53 9.94-3.53 5.8 0 9.9 3.53 4.12 3.53 4.12 8.52 0 5-4.12 8.53-4.1 3.53-9.9 3.53zm-.96-7.53q2.48 0 4.23-1.51 1.78-1.52 1.78-3.65 0-2.14-1.78-3.66-1.75-1.51-4.23-1.51-2.5 0-4.28 1.51-1.75 1.52-1.75 3.66 0 2.13 1.75 3.65 1.78 1.51 4.28 1.51z" style="-inkscape-font-specification:'Funhouse, Normal';font-variant-ligatures:normal;font-variant-caps:normal;font-variant-numeric:normal;font-feature-settings:normal;text-align:start"/>
    </g>
    <g style="line-height:1.25;-inkscape-font-specification:'Funhouse, Normal';font-variant-ligatures:normal;font-variant-caps:normal;font-variant-numeric:normal;font-feature-settings:normal;text-align:start">
      <path fill="#fff" stroke="#ffc107" stroke-width="1.06" d="M205.36 8.67q13.4.14 8.06 23.51l-9.88-1.74 3.13-6.21q-13.7 2.84-14.2-6.43-.5-9.28 12.9-9.13zm-1.1 6.74q-3.03 0-3.03 2.06 0 2.07 3.03 2.07 3.05 0 3.05-2.07 0-2.06-3.05-2.06z" aria-label="9" font-family="Funhouse" font-size="35.28" font-weight="400" letter-spacing="0" style="-inkscape-font-specification:'Funhouse, Normal';font-variant-ligatures:normal;font-variant-caps:normal;font-variant-numeric:normal;font-feature-settings:normal;text-align:start" word-spacing="0"/>
    </g>
    <g transform="matrix(0 1.06253 -1.06253 0 -243.86 805.57)">
      <rect width="7.84" height="18.82" x="-743.81" y="-356.04" fill="#e91e63" ry="3.92"/>
      <rect width="2.21" height="6.35" x="-742.53" y="-353.53" fill="#facedd" ry="1.1"/>
    </g>
    <g>
      <g transform="matrix(0 .91414 -.91414 0 -151.74 697.4)">
        <rect width="7.84" height="18.82" x="-712.05" y="-356.04" fill="#e91e63" ry="3.92"/>
        <rect width="7.84" height="18.82" x="-701.07" y="-356.04" fill="#e91e63" ry="3.92"/>
        <rect width="2.21" height="6.35" x="-710.76" y="-353.53" fill="#facedd" ry="1.1"/>
        <rect width="2.21" height="6.35" x="-699.77" y="-353.53" fill="#facedd" ry="1.1"/>
      </g>
      <g style="line-height:1.25;-inkscape-font-specification:'Funhouse, Normal';font-variant-ligatures:normal;font-variant-caps:normal;font-variant-numeric:normal;font-feature-settings:normal;text-align:start">
        <path fill="#fff" stroke="#ffc107" stroke-width="1.0551084" d="M79.63 67.95q-1.48 0-2.53-1.03-1.04-1.06-1.04-2.53 0-1.48 1.04-2.52 1.05-1.05 2.53-1.05 1.48 0 2.5 1.05 1.06 1.04 1.06 2.52 0 1.47-1.05 2.53-1.03 1.03-2.51 1.03zm-4.6-15.47q8.16-.57 8.32-2.19.16-1.62-11.2.93l-1.61-6.88Q91 38.73 92.1 48.15q.84 7.25-9.09 9.78l.52 1.29-7.75 1.33z" aria-label="?" font-family="Funhouse" font-size="35.28" font-weight="400" letter-spacing="0" style="-inkscape-font-specification:'Funhouse, Normal';font-variant-ligatures:normal;font-variant-caps:normal;font-variant-numeric:normal;font-feature-settings:normal;text-align:start" word-spacing="0"/>
      </g>
      <g style="line-height:1.25;-inkscape-font-specification:'Funhouse, Normal';font-variant-ligatures:normal;font-variant-caps:normal;font-variant-numeric:normal;font-feature-settings:normal;text-align:start">
        <path fill="#fff" stroke="#ffc107" stroke-width="1.06" d="M136.33 66.9q-13.4-.13-8.06-23.5l9.88 1.73-3.13 6.22q13.7-2.84 14.2 6.43.5 9.28-12.9 9.13zm1.1-6.73q3.03 0 3.03-2.07 0-2.06-3.03-2.06-3.05 0-3.05 2.06 0 2.07 3.05 2.07z" aria-label="9" font-family="Funhouse" font-size="35.28" font-weight="400" letter-spacing="0" style="-inkscape-font-specification:'Funhouse, Normal';font-variant-ligatures:normal;font-variant-caps:normal;font-variant-numeric:normal;font-feature-settings:normal;text-align:start" word-spacing="0"/>
      </g>
      <path fill="#fff" stroke="#ffc107" stroke-width="1.06" d="M189.7 48.34q-.95 0-1.62.54-.66.53-.66 1.29t.66 1.29q.67.53 1.62.53.93 0 1.58-.53.67-.53.67-1.3 0-.75-.67-1.28-.65-.54-1.58-.54zm.34 8.86q-1.43 0-2.45.58-1.01.59-1.01 1.43 0 .85 1.01 1.45 1.02.58 2.45.58 1.45 0 2.46-.58 1.02-.6 1.02-1.45 0-.84-1.02-1.43-1.01-.58-2.46-.58zm6.32-2.81q.67.36 1.3.8 2.84 2.16 2.84 5.21 0 3.03-2.86 5.19-2.85 2.15-6.88 2.15-4.04 0-6.9-2.15Q181 63.43 181 60.4q0-3.05 2.86-5.2.45-.33.92-.62-1.83-1.8-1.83-4.26 0-2.7 2.2-4.6 2.21-1.9 5.33-1.9 3.1 0 5.3 1.9 2.2 1.9 2.2 4.6 0 2.33-1.63 4.07z" font-family="Funhouse" font-size="35.28" font-weight="400" letter-spacing="0" style="line-height:1.25;-inkscape-font-specification:'Funhouse, Normal';font-variant-ligatures:normal;font-variant-caps:normal;font-variant-numeric:normal;font-feature-settings:normal;text-align:start" word-spacing="0"/>
      <g transform="matrix(0 1.06253 -1.06253 0 -258.85 840.05)">
        <rect width="7.84" height="18.82" x="-743.81" y="-356.04" fill="#e91e63" ry="3.92"/>
        <rect width="2.21" height="6.35" x="-742.53" y="-353.53" fill="#facedd" ry="1.1"/>
      </g>
    </g>
  </g>
</svg>
