<svg xmlns="http://www.w3.org/2000/svg" viewBox="0 0 270.93 135.47">
  <g transform="translate(-296.4 -503.92)">
    <path fill="#fff" stroke="#ffc107" stroke-linecap="round" stroke-linejoin="round" stroke-width="1.32" d="M512.61 564.5a5.18 5.18 0 0 0-5.14 5.25v8.58h21.6c2.9 0 5.23 2.34 5.23 5.23v36.51h26.8a5.18 5.18 0 0 0 5.14-5.24l-9.91-22.54 9.91-22.54c1.17-2.66-2.3-5.25-5.14-5.25z"/>
    <path fill="#ffc107" d="M512.19 564.4c-2.15-.1-4.7 3.24-4.7 5.7v8.23h23.79c-.5-.4-1.06-.87-1.69-1.43-3.47-3.15-16.27-12.07-16.27-12.07a1.92 1.92 0 0 0-1.13-.44z"/>
    <g>
      <path fill="#fff" stroke="#ffc107" stroke-linecap="round" stroke-linejoin="round" stroke-width="1.32" d="M302.65 564.5c-2.85 0-6.31 2.6-5.15 5.25l9.92 22.54-9.92 22.54c0 2.9 2.3 5.24 5.15 5.24h26.72v-36.51c0-2.9 2.33-5.23 5.22-5.23h21.69v-8.58c0-2.91-2.3-5.25-5.15-5.25z"/>
      <path fill="#ffc107" d="M351.56 564.4c-.4.01-.78.15-1.13.43 0 0-12.8 8.92-16.28 12.07-.62.56-1.18 1.03-1.69 1.43h23.79v-8.22c0-2.47-2.55-5.82-4.7-5.72z"/>
    </g>
    <rect width="204.93" height="55.37" x="329.37" y="578.33" fill="#fff" stroke="#ffc107" stroke-linecap="round" stroke-linejoin="round" stroke-width="1.32" ry="5.23"/>
  </g>
  <g fill="#ffc107" stroke-width=".26" font-family="Funhouse" font-size="16.93" font-weight="400" letter-spacing="0" word-spacing="0">
    <g aria-label="missing number" style="line-height:1.25;-inkscape-font-specification:'Funhouse, Normal';font-variant-ligatures:normal;font-variant-caps:normal;font-variant-numeric:normal;font-feature-settings:normal;text-align:start">
      <path d="M73.04 96.1l.7 10.9-4.22.36-.23-5.58-.85 3.84-3.79.52-1.53-3.96.55 4.7-3.86.8.53-11.58 3.8-.5 2.1 6.6 2.54-6.4zM78 96.16l.84 11.16-4.68.88.22-11.75zM82.24 103.1q-2.98-.42-2.64-3.71.35-3.3 7.68-3.9l.7 3.74q-3.64-.08-3.9.86-.27.94 2.78 1.09 3.04.14 2.97 3.7-.06 3.56-8.01 3.8l-1.46-3.9q4.06.43 4.47-.41.4-.85-2.59-1.27z" style="-inkscape-font-specification:'Funhouse, Normal';font-variant-ligatures:normal;font-variant-caps:normal;font-variant-numeric:normal;font-feature-settings:normal;text-align:start"/>
      <path d="M92.43 103.1q-2.99-.42-2.64-3.71.35-3.3 7.67-3.9l.7 3.74q-3.63-.08-3.9.86-.26.94 2.78 1.09 3.04.14 2.98 3.7-.07 3.56-8.01 3.8l-1.47-3.9q4.07.43 4.48-.41.4-.85-2.6-1.27zM104.33 96.16l.84 11.16-4.68.88.21-11.75zM109.72 101.89l.82 4.73-4.12 1.05-.84-10.85 4.14-.72 4.09 5.4.05-5.4 5.13-.53-1.82 12.1-3.29.48zM132.16 107.56l-4.7 1.19.07-1.3q-.91.22-1.93.22-2.77 0-4.73-1.7-1.96-1.69-1.96-4.08 0-2.4 1.96-4.1 1.96-1.7 4.73-1.7 2.77 0 4.73 1.7.98.86 1.48 1.89l-3.97 1q-.2-.53-.7-.96-.84-.73-2.02-.73-1.18 0-2.03.73-.84.73-.84 1.75 0 1.03.84 1.76.85.72 2.03.72 1.18 0 2.03-.72.45-.4.7-.88l3.75-.17zM140.91 101.89l.82 4.73-4.12 1.05-.84-10.85 4.14-.72 4.09 5.4.05-5.4 5.12-.53-1.82 12.1-3.28.48z" style="-inkscape-font-specification:'Funhouse, Normal';font-variant-ligatures:normal;font-variant-caps:normal;font-variant-numeric:normal;font-feature-settings:normal;text-align:start"/>
      <path d="M151.16 96.68l4.4.86q-2.2 6.75.63 6.83 3.36-.03 1.95-7l4.03-1.27q1.85 11.47-5.98 11.57-7.91-.07-5.03-11z" style="-inkscape-font-specification:'Funhouse, Normal';font-variant-ligatures:normal;font-variant-caps:normal;font-variant-numeric:normal;font-feature-settings:normal;text-align:start"/>
      <path d="M176.16 96.1l.7 10.9-4.22.36-.23-5.58-.85 3.84-3.78.52-1.54-3.96.55 4.7-3.86.8.53-11.58 3.8-.5 2.1 6.6 2.54-6.4zM180.48 100.16q2.57-.48 2.52-1.46-.05-.97-2.62-.3zm.4 4.91q3.75-.15 3.76-1.3.01-1.16-3.88-1.11zm-3.6 2.6l.31-10.7q5.91-2.4 8.13-.23 2.21 2.17-.56 4.38 4.21 1.3 2.72 4.24-1.5 2.93-10.6 2.31z" style="-inkscape-font-specification:'Funhouse, Normal';font-variant-ligatures:normal;font-variant-caps:normal;font-variant-numeric:normal;font-feature-settings:normal;text-align:start"/>
      <path d="M197.56 94.61l.21 4.38-5.14.56.07 1 3.37-.32.3 3-3.52.25.05.81 5-.38.74 3.76-9.85.34 1-11.93zM203.1 98.83l.11 2.23q4.14 0 4.14-.83 0-.82-4.25-1.4zm.55 8.17l-4.6.65.96-12.35q10.65.8 11 4.27.36 3.47-3.66 4.8l3.3 1.8-3.38 3-3.88-4.8z" style="-inkscape-font-specification:'Funhouse, Normal';font-variant-ligatures:normal;font-variant-caps:normal;font-variant-numeric:normal;font-feature-settings:normal;text-align:start"/>
    </g>
    <g aria-label="additions up to 20" style="line-height:1.25;-inkscape-font-specification:'Funhouse, Normal';font-variant-ligatures:normal;font-variant-caps:normal;font-variant-numeric:normal;font-feature-settings:normal;text-align:start">
      <path d="M47.38 124.06l-.58 1.66-3.26-1.97 4.09-9.6 3.1-.22 4.9 9.94-3.87 1.85-.85-2.32zm2.83-3.62l-.93-2.99-1.09 3.3zM56.58 125.72l-.53-11.58q11.27 0 11.27 5.8 0 5.78-10.74 5.78zm2.94-8.51l.55 4q3.58.02 3.58-1.99t-4.13-2.01zM68.28 125.72l-.53-11.58q11.28 0 11.28 5.8 0 5.78-10.75 5.78zm2.95-8.51l.55 4q3.58.02 3.58-1.99t-4.13-2.01zM83.3 114.2l.84 11.16-4.68.89.22-11.75zM91.24 117.67l.4 7.04-4.47 1.16.77-8.42-3.39-.29.27-3.06 9.7-.58.35 4.53zM99.14 114.2l.84 11.16-4.68.89.22-11.75zM107.14 125.72q-2.8 0-4.78-1.7-1.96-1.7-1.96-4.09 0-2.4 1.96-4.1 1.98-1.69 4.78-1.69 2.78 0 4.75 1.7 1.98 1.7 1.98 4.1 0 2.39-1.98 4.08-1.97 1.7-4.75 1.7zm-.47-3.61q1.2 0 2.04-.73.85-.73.85-1.76 0-1.02-.85-1.75t-2.04-.73q-1.2 0-2.05.73-.84.73-.84 1.75 0 1.03.84 1.76.85.73 2.05.73zM118.43 119.93l.82 4.74-4.13 1.05-.83-10.86 4.14-.72 4.08 5.41.05-5.4 5.13-.54-1.82 12.1-3.28.49zM130.6 121.15q-2.98-.43-2.64-3.72.35-3.29 7.68-3.9l.7 3.75q-3.64-.09-3.9.86-.27.94 2.77 1.08 3.05.14 2.98 3.7-.07 3.57-8.01 3.8l-1.46-3.9q4.06.43 4.47-.4.4-.86-2.59-1.27zM145.74 114.72l4.4.86q-2.2 6.76.64 6.83 3.35-.02 1.94-7l4.03-1.27q1.86 11.48-5.97 11.58-7.92-.08-5.04-11z" style="-inkscape-font-specification:'Funhouse, Normal';font-variant-ligatures:normal;font-variant-caps:normal;font-variant-numeric:normal;font-feature-settings:normal;text-align:start"/>
      <path d="M162.24 122.39l.67 2.47-4.31.86-.82-11.07q11.01-1.78 11.57 3.63 0 4.13-7.1 4.1zm-1.13-4.9l.46 1.61q4.47 0 4.2-1.17-.26-1.17-4.66-.44zM180.64 117.67l.4 7.04-4.48 1.16.77-8.42-3.38-.29.27-3.06 9.7-.58.35 4.53zM191.44 125.72q-2.8 0-4.77-1.7-1.97-1.7-1.97-4.09 0-2.4 1.97-4.1 1.97-1.69 4.77-1.69 2.78 0 4.75 1.7 1.98 1.7 1.98 4.1 0 2.39-1.98 4.08-1.97 1.7-4.75 1.7zm-.46-3.61q1.19 0 2.03-.73.85-.73.85-1.76 0-1.02-.85-1.75-.84-.73-2.03-.73-1.2 0-2.06.73-.84.73-.84 1.75 0 1.03.84 1.76.86.73 2.06.73zM210.44 120.31q-2.99.41-2.47 2l4.36-.33.99 4.75-10.4-1.08q-.13-7.12 2.91-7.27 3.05-.14 2.78-1.08-.26-.94-3.9-.86l.7-3.74q7.33.6 7.67 3.9.35 3.29-2.64 3.71zM220.58 125.72q-2.8 0-4.78-1.7-1.96-1.7-1.96-4.09 0-2.4 1.96-4.1 1.98-1.69 4.78-1.69 2.78 0 4.75 1.7 1.98 1.7 1.98 4.1 0 2.39-1.98 4.08-1.97 1.7-4.75 1.7zm-.47-3.61q1.2 0 2.04-.73.85-.73.85-1.76 0-1.02-.85-1.75t-2.04-.73q-1.2 0-2.05.73-.84.73-.84 1.75 0 1.03.84 1.76.85.73 2.05.73z" style="-inkscape-font-specification:'Funhouse, Normal';font-variant-ligatures:normal;font-variant-caps:normal;font-variant-numeric:normal;font-feature-settings:normal;text-align:start"/>
    </g>
    <g aria-label="find the" style="line-height:1.25;-inkscape-font-specification:'Funhouse, Normal';font-variant-ligatures:normal;font-variant-caps:normal;font-variant-numeric:normal;font-feature-settings:normal;text-align:start">
      <path d="M105.26 77.69l-.7 4.8-4.03-.22.16.83 3.2.36-.43 3.44-2.21-.5.74 3.6-4.05.54-.9-10.86zM109.5 79.03l.84 11.15-4.68.89.22-11.75zM114.9 84.75l.82 4.74-4.13 1.05-.83-10.86 4.14-.72 4.08 5.41.05-5.4 5.13-.54-1.82 12.1-3.28.49zM125.11 90.54l-.53-11.58q11.28 0 11.28 5.8 0 5.78-10.75 5.78zm2.94-8.5l.56 4q3.58.01 3.58-2 0-2-4.14-2zM147.18 82.49l.4 7.04-4.48 1.16.77-8.42-3.38-.29.26-3.06 9.7-.58.36 4.53zM155.55 87.05l.3 2.8-3.17.55-1.44-9.16 3.52-1.5.4 3.96 3.17-.36.05-3.62 5.52.56-2.11 10.16-3.55-1.05.04-2.64zM172.54 77.48l.21 4.38-5.14.55.07 1 3.37-.31.3 3-3.53.25.06.8 5-.37.74 3.76-9.85.34 1-11.93z" style="-inkscape-font-specification:'Funhouse, Normal';font-variant-ligatures:normal;font-variant-caps:normal;font-variant-numeric:normal;font-feature-settings:normal;text-align:start"/>
    </g>
  </g>
  <g>
    <g transform="matrix(.90636 0 0 .90636 -209.96 722.28)">
      <g fill="#00c853" transform="translate(7.99 30.08) scale(1.09493)">
        <rect width="7.84" height="23.53" x="303.23" y="-746.43" ry="3.92"/>
        <rect width="7.84" height="23.53" x="-738.58" y="-318.92" ry="3.92" transform="rotate(90)"/>
      </g>
      <rect width="2.21" height="6.35" x="345.05" y="-785.14" fill="#c7ffde" ry="1.1"/>
    </g>
    <g transform="matrix(0 .91414 -.91414 0 -160.82 662.77)">
      <rect width="7.84" height="18.82" x="-712.05" y="-356.04" fill="#e91e63" ry="3.92"/>
      <rect width="7.84" height="18.82" x="-701.07" y="-356.04" fill="#e91e63" ry="3.92"/>
      <rect width="2.21" height="6.35" x="-710.76" y="-353.53" fill="#facedd" ry="1.1"/>
      <rect width="2.21" height="6.35" x="-699.77" y="-353.53" fill="#facedd" ry="1.1"/>
    </g>
    <g style="line-height:1.25;-inkscape-font-specification:'Funhouse, Normal';font-variant-ligatures:normal;font-variant-caps:normal;font-variant-numeric:normal;font-feature-settings:normal;text-align:start">
      <path fill="#fff" stroke="#ffc107" stroke-width="1.0551084" d="M128.94 33.32q-1.48 0-2.53-1.03-1.04-1.06-1.04-2.53 0-1.48 1.04-2.52 1.05-1.05 2.53-1.05 1.48 0 2.51 1.05 1.05 1.04 1.05 2.52 0 1.47-1.05 2.53-1.03 1.03-2.51 1.03zm-4.6-15.47q8.16-.57 8.32-2.19.16-1.62-11.2.93l-1.61-6.88q20.47-5.61 21.56 3.81.84 7.25-9.09 9.79l.52 1.28-7.75 1.33z" aria-label="?" font-family="Funhouse" font-size="35.28" font-weight="400" letter-spacing="0" style="-inkscape-font-specification:'Funhouse, Normal';font-variant-ligatures:normal;font-variant-caps:normal;font-variant-numeric:normal;font-feature-settings:normal;text-align:start" word-spacing="0"/>
    </g>
    <g fill="#fff" stroke="#ffc107" stroke-width="1.06" aria-label="13" font-family="Funhouse" font-size="35.28" font-weight="400" letter-spacing="0" style="line-height:1.25;-inkscape-font-specification:'Funhouse, Normal';font-variant-ligatures:normal;font-variant-caps:normal;font-variant-numeric:normal;font-feature-settings:normal;text-align:start" word-spacing="0">
      <path d="M65.07 32.49l-11.78-.5 1.98-16.28-4.06 1.64-1.6-6.79 12.38-3.8zM79.84 20.67q5.49.55 4.46 6.3-1.02 5.76-16.92 7.2l-1.45-8.59q10.46.26 10.46-1.36 0-1.64-4.12-.93l-1.13-6.01q5.25-.05 5.2-2.09-.05-2.03-9.3.21l1-7.25q14.8-.98 16.03 4.75 1.26 5.72-4.23 7.77z" style="-inkscape-font-specification:'Funhouse, Normal';font-variant-ligatures:normal;font-variant-caps:normal;font-variant-numeric:normal;font-feature-settings:normal;text-align:start"/>
    </g>
    <g fill="#fff" stroke="#ffc107" stroke-width="1.06" aria-label="20" font-family="Funhouse" font-size="35.28" font-weight="400" letter-spacing="0" style="line-height:1.25;-inkscape-font-specification:'Funhouse, Normal';font-variant-ligatures:normal;font-variant-caps:normal;font-variant-numeric:normal;font-feature-settings:normal;text-align:start" word-spacing="0">
      <path d="M186.29 21.7q-6.22.87-5.13 4.16l9.07-.67 2.05 9.88-21.65-2.24q-.28-14.84 6.06-15.14 6.34-.3 5.8-2.25-.56-1.97-8.12-1.8l1.45-7.78q15.26 1.26 15.98 8.11.72 6.86-5.51 7.74zM207.4 32.97q-5.82 0-9.93-3.53-4.1-3.53-4.1-8.53t4.1-8.52q4.11-3.53 9.94-3.53 5.8 0 9.9 3.53 4.12 3.53 4.12 8.52 0 5-4.12 8.53-4.1 3.53-9.9 3.53zm-.96-7.53q2.48 0 4.24-1.51 1.77-1.52 1.77-3.65 0-2.14-1.77-3.66-1.76-1.51-4.24-1.51-2.5 0-4.27 1.51-1.76 1.52-1.76 3.66 0 2.13 1.76 3.65 1.77 1.51 4.27 1.51z" style="-inkscape-font-specification:'Funhouse, Normal';font-variant-ligatures:normal;font-variant-caps:normal;font-variant-numeric:normal;font-feature-settings:normal;text-align:start"/>
    </g>
    <g>
      <g transform="matrix(.90636 0 0 .90636 -209.96 756.91)">
        <g fill="#00c853" transform="translate(7.99 30.08) scale(1.09493)">
          <rect width="7.84" height="23.53" x="303.23" y="-746.43" ry="3.92"/>
          <rect width="7.84" height="23.53" x="-738.58" y="-318.92" ry="3.92" transform="rotate(90)"/>
        </g>
        <rect width="2.21" height="6.35" x="345.05" y="-785.14" fill="#c7ffde" ry="1.1"/>
      </g>
      <g transform="matrix(0 .91414 -.91414 0 -160.82 697.4)">
        <rect width="7.84" height="18.82" x="-712.05" y="-356.04" fill="#e91e63" ry="3.92"/>
        <rect width="7.84" height="18.82" x="-701.07" y="-356.04" fill="#e91e63" ry="3.92"/>
        <rect width="2.21" height="6.35" x="-710.76" y="-353.53" fill="#facedd" ry="1.1"/>
        <rect width="2.21" height="6.35" x="-699.77" y="-353.53" fill="#facedd" ry="1.1"/>
      </g>
      <g style="line-height:1.25;-inkscape-font-specification:'Funhouse, Normal';font-variant-ligatures:normal;font-variant-caps:normal;font-variant-numeric:normal;font-feature-settings:normal;text-align:start">
        <path fill="#fff" stroke="#ffc107" stroke-width="1.0551084" d="M72.19 67.95q-1.48 0-2.53-1.03-1.04-1.06-1.04-2.53 0-1.48 1.04-2.52 1.05-1.05 2.53-1.05 1.48 0 2.51 1.05 1.05 1.04 1.05 2.52 0 1.47-1.05 2.53-1.03 1.03-2.51 1.03zm-4.6-15.47q8.16-.57 8.32-2.19.16-1.62-11.2.93l-1.6-6.88q20.46-5.61 21.55 3.81.84 7.25-9.09 9.78l.52 1.29-7.75 1.33z" aria-label="?" font-family="Funhouse" font-size="35.28" font-weight="400" letter-spacing="0" style="-inkscape-font-specification:'Funhouse, Normal';font-variant-ligatures:normal;font-variant-caps:normal;font-variant-numeric:normal;font-feature-settings:normal;text-align:start" word-spacing="0"/>
      </g>
      <g style="line-height:1.25;-inkscape-font-specification:'Funhouse, Normal';font-variant-ligatures:normal;font-variant-caps:normal;font-variant-numeric:normal;font-feature-settings:normal;text-align:start">
        <path fill="#fff" stroke="#ffc107" stroke-width="1.06" d="M132.27 43.32q13.4.14 8.06 23.51l-9.89-1.74 3.14-6.22q-13.7 2.84-14.2-6.42-.5-9.29 12.89-9.13zm-1.1 6.73q-3.04 0-3.04 2.07t3.04 2.07q3.04 0 3.04-2.07t-3.04-2.07z" aria-label="9" font-family="Funhouse" font-size="35.28" font-weight="400" letter-spacing="0" style="-inkscape-font-specification:'Funhouse, Normal';font-variant-ligatures:normal;font-variant-caps:normal;font-variant-numeric:normal;font-feature-settings:normal;text-align:start" word-spacing="0"/>
      </g>
      <g fill="#fff" stroke="#ffc107" stroke-width="1.06" aria-label="18" font-family="Funhouse" font-size="35.28" font-weight="400" letter-spacing="0" style="line-height:1.25;-inkscape-font-specification:'Funhouse, Normal';font-variant-ligatures:normal;font-variant-caps:normal;font-variant-numeric:normal;font-feature-settings:normal;text-align:start" word-spacing="0">
        <path d="M185.7 68.05l-11.78-.5 1.98-16.28-4.07 1.64-1.6-6.79 12.38-3.8zM195.24 48.34q-.95 0-1.62.54-.65.53-.65 1.29t.65 1.29q.67.53 1.62.53.93 0 1.59-.53.67-.53.67-1.3 0-.75-.67-1.28-.66-.54-1.59-.54zm.35 8.86q-1.43 0-2.45.58-1.02.59-1.02 1.43 0 .85 1.02 1.45 1.02.58 2.45.58 1.44 0 2.46-.58 1.02-.6 1.02-1.45 0-.84-1.02-1.43-1.02-.58-2.46-.58zm6.32-2.81q.67.36 1.29.8 2.84 2.16 2.84 5.21 0 3.03-2.86 5.19-2.84 2.15-6.87 2.15-4.05 0-6.9-2.15-2.85-2.16-2.85-5.19 0-3.05 2.86-5.2.45-.33.91-.62-1.82-1.8-1.82-4.26 0-2.7 2.2-4.6 2.2-1.9 5.32-1.9 3.1 0 5.3 1.9 2.21 1.9 2.21 4.6 0 2.33-1.63 4.07z" style="-inkscape-font-specification:'Funhouse, Normal';font-variant-ligatures:normal;font-variant-caps:normal;font-variant-numeric:normal;font-feature-settings:normal;text-align:start"/>
      </g>
    </g>
  </g>
</svg>
