<svg xmlns="http://www.w3.org/2000/svg" viewBox="0 0 270.93 135.47">
  <g transform="translate(-1170.5)">
    <path fill="#fff" stroke="#ffc107" stroke-linecap="round" stroke-linejoin="round" stroke-width="1.32" d="M1386.7 60.58a5.18 5.18 0 0 0-5.14 5.25v8.59h21.6c2.9 0 5.22 2.33 5.22 5.22v36.52h26.8a5.18 5.18 0 0 0 5.15-5.25l-9.91-22.54 9.91-22.54c1.17-2.65-2.3-5.25-5.14-5.25z"/>
    <path fill="#ffc107" d="M1386.28 60.48c-2.15-.1-4.7 3.24-4.7 5.7v8.24H1405.37c-.5-.4-1.05-.87-1.68-1.44-3.47-3.15-16.27-12.06-16.27-12.06a1.92 1.92 0 0 0-1.13-.44z"/>
    <g>
      <path fill="#fff" stroke="#ffc107" stroke-linecap="round" stroke-linejoin="round" stroke-width="1.32" d="M1176.74 60.58c-2.85 0-6.31 2.6-5.15 5.25l9.92 22.54-9.92 22.54c0 2.9 2.3 5.25 5.15 5.25h26.72V79.64c0-2.9 2.33-5.22 5.22-5.22h21.69v-8.6c0-2.9-2.3-5.24-5.15-5.24z"/>
      <path fill="#ffc107" d="M1225.65 60.48c-.4.02-.78.15-1.13.44 0 0-12.8 8.91-16.28 12.06-.62.57-1.18 1.03-1.69 1.44h23.79v-8.23c0-2.47-2.55-5.81-4.7-5.71z"/>
    </g>
    <rect width="204.93" height="55.37" x="1203.46" y="74.42" fill="#fff" stroke="#ffc107" stroke-linecap="round" stroke-linejoin="round" stroke-width="1.32" ry="5.23"/>
  </g>
  <g fill="#ffc107" font-family="Funhouse" font-size="15.88" font-weight="400" letter-spacing="0" word-spacing="0">
    <path d="M85.45 119.64l.63 2.32-4.05.8-.77-10.37q10.33-1.67 10.85 3.4 0 3.87-6.66 3.85zm-1.06-4.59l.43 1.51q4.19 0 3.94-1.1-.25-1.1-4.37-.4zM93.02 111.76l3.82.2-1.25 7.7 3.89-.6-.86 4.13-6.13-.43z" style="line-height:1.25;-inkscape-font-specification:'Funhouse, Normal';font-variant-ligatures:normal;font-variant-caps:normal;font-variant-numeric:normal;font-feature-settings:normal;text-align:start"/>
    <path d="M100.61 112.45l4.13.81q-2.06 6.33.6 6.4 3.14-.02 1.81-6.55l3.79-1.2q1.73 10.76-5.6 10.85-7.43-.07-4.73-10.3z" style="line-height:1.25;-inkscape-font-specification:'Funhouse, Normal';font-variant-ligatures:normal;font-variant-caps:normal;font-variant-numeric:normal;font-feature-settings:normal;text-align:start"/>
    <path d="M114.45 118.48q-2.8-.4-2.48-3.48.33-3.09 7.2-3.65l.65 3.5q-3.4-.08-3.65.8-.25.89 2.6 1.02 2.86.13 2.8 3.47-.07 3.35-7.52 3.57l-1.37-3.67q3.81.41 4.2-.38.37-.8-2.43-1.18zM133.37 117.34q2.48.25 2.01 2.84-.46 2.58-7.61 3.24l-.65-3.87q4.7.11 4.7-.61 0-.74-1.85-.42l-.51-2.7q2.36-.03 2.34-.95-.02-.91-4.19.1l.45-3.27q6.66-.44 7.22 2.14.57 2.58-1.9 3.5zM147.88 110.72l-.66 4.5-3.77-.2.15.77 3 .34-.4 3.22-2.08-.46.7 3.36-3.8.51-.85-10.17zM149.9 121.21l-.54 1.55-3.05-1.84 3.83-9 2.91-.2 4.58 9.32-3.62 1.72-.8-2.17zm2.66-3.4l-.87-2.8-1.02 3.1zM167.8 121.18q-1.83 1.58-4.43 1.58-2.6 0-4.43-1.58-1.84-1.6-1.84-3.84 0-2.25 1.84-3.84 1.83-1.59 4.43-1.59 2.6 0 4.43 1.6.93.79 1.4 1.76l-3.73.94q-.18-.5-.65-.9-.79-.68-1.9-.68-1.1 0-1.9.68-.79.68-.79 1.64 0 .96.8 1.64.78.69 1.9.69 1.1 0 1.89-.69.43-.37.63-.83l3.73 1.65q-.45.97-1.38 1.77zM175.87 115.21l.38 6.6-4.2 1.1.72-7.9-3.17-.27.24-2.87 9.1-.54.33 4.24zM182.47 118.48q-2.8-.4-2.47-3.48.32-3.09 7.2-3.65l.64 3.5q-3.4-.08-3.65.8-.25.89 2.6 1.02 2.86.13 2.8 3.47-.07 3.35-7.52 3.57l-1.37-3.67q3.82.41 4.2-.38.38-.8-2.43-1.18z" style="line-height:1.25;-inkscape-font-specification:'Funhouse, Normal';font-variant-ligatures:normal;font-variant-caps:normal;font-variant-numeric:normal;font-feature-settings:normal;text-align:start"/>
    <g stroke-width=".26" aria-label="subtractions with" style="line-height:1.25;-inkscape-font-specification:'Funhouse, Normal';font-variant-ligatures:normal;font-variant-caps:normal;font-variant-numeric:normal;font-feature-settings:normal;text-align:start">
      <path d="M49.72 87.8q-2.8-.4-2.48-3.48.33-3.08 7.2-3.65l.65 3.5q-3.4-.07-3.65.81-.25.88 2.6 1.02 2.85.13 2.8 3.47-.07 3.34-7.52 3.56l-1.37-3.66q3.81.4 4.2-.38.37-.8-2.43-1.19z" style="-inkscape-font-specification:'Funhouse, Normal';font-variant-ligatures:normal;font-variant-caps:normal;font-variant-numeric:normal;font-feature-settings:normal;text-align:start"/>
      <path d="M58.2 81.78l4.13.8q-2.06 6.34.6 6.4 3.14-.01 1.82-6.55l3.78-1.2Q70.26 92 62.93 92.1q-7.42-.07-4.73-10.31z" style="-inkscape-font-specification:'Funhouse, Normal';font-variant-ligatures:normal;font-variant-caps:normal;font-variant-numeric:normal;font-feature-settings:normal;text-align:start"/>
      <path d="M72.49 85.04q2.4-.45 2.36-1.36-.05-.92-2.46-.29zm.37 4.6q3.51-.13 3.52-1.22.02-1.08-3.64-1.04zM69.5 92.1l.29-10.04q5.54-2.25 7.62-.22 2.07 2.04-.53 4.11 3.95 1.22 2.55 3.98-1.4 2.75-9.93 2.17z" style="-inkscape-font-specification:'Funhouse, Normal';font-variant-ligatures:normal;font-variant-caps:normal;font-variant-numeric:normal;font-feature-settings:normal;text-align:start"/>
      <path d="M85.34 84.54l.38 6.6-4.2 1.09.72-7.9-3.17-.26.25-2.87 9.09-.54.33 4.24zM92.94 83.8l.11 2.09q3.88 0 3.88-.78 0-.77-3.99-1.32zm.52 7.66l-4.31.6.9-11.57q9.98.75 10.31 4 .34 3.25-3.43 4.5l3.1 1.68-3.18 2.81-3.63-4.5zM103.78 90.54l-.54 1.55-3.06-1.85 3.83-9 2.92-.2 4.58 9.32-3.62 1.73-.8-2.18zm2.65-3.4l-.87-2.8-1.02 3.1zM121.68 90.5q-1.84 1.59-4.43 1.59-2.6 0-4.44-1.59-1.84-1.59-1.84-3.84 0-2.24 1.84-3.83 1.84-1.6 4.44-1.6 2.6 0 4.43 1.6.92.8 1.39 1.76l-3.72.94q-.19-.5-.65-.9-.8-.68-1.9-.68-1.11 0-1.9.68-.8.68-.8 1.65 0 .96.8 1.64.79.68 1.9.68 1.1 0 1.9-.68.42-.37.62-.84l3.74 1.65q-.46.97-1.38 1.77zM129.74 84.54l.38 6.6-4.2 1.09.72-7.9-3.17-.26.25-2.87 9.1-.54.32 4.24zM137.14 81.3l.8 10.46-4.4.83.2-11.02zM144.64 92.09q-2.62 0-4.47-1.59-1.85-1.59-1.85-3.84 0-2.24 1.85-3.83 1.85-1.6 4.47-1.6 2.61 0 4.46 1.6 1.85 1.59 1.85 3.83 0 2.25-1.85 3.84-1.85 1.59-4.46 1.59zm-.43-3.39q1.11 0 1.9-.68.8-.68.8-1.64 0-.97-.8-1.65-.79-.68-1.9-.68-1.13 0-1.93.68-.79.68-.79 1.65 0 .96.8 1.64.8.68 1.92.68zM155.23 86.66l.77 4.44-3.87.99-.79-10.18 3.89-.67 3.83 5.07.04-5.07 4.81-.5-1.7 11.35-3.08.45zM166.64 87.8q-2.8-.4-2.47-3.48.32-3.08 7.19-3.65l.65 3.5q-3.4-.07-3.65.81-.25.88 2.6 1.02 2.86.13 2.8 3.47-.07 3.34-7.52 3.56l-1.37-3.66q3.81.4 4.2-.38.37-.8-2.43-1.19zM187.36 86.66l-1.55 5.43-3.06.4-4.62-9.12 3.8-2.13 2.33 6.2 1.82-4.9 3.1.43 1.28 4.47 1.86-6.43 4.22 2.31L192 92.1l-3.47-.75zM200.52 81.3l.79 10.46-4.39.83.2-11.02zM207.97 84.54l.38 6.6-4.2 1.09.72-7.9-3.17-.26.25-2.87 9.09-.54.33 4.24zM215.81 88.82l.28 2.62-2.97.52-1.35-8.6 3.3-1.4.38 3.72 2.98-.34.04-3.39 5.17.52-1.97 9.53-3.33-.99.04-2.47z" style="-inkscape-font-specification:'Funhouse, Normal';font-variant-ligatures:normal;font-variant-caps:normal;font-variant-numeric:normal;font-feature-settings:normal;text-align:start"/>
    </g>
    <g stroke-width=".26" aria-label="minuends up to 20:" style="line-height:1.25;-inkscape-font-specification:'Funhouse, Normal';font-variant-ligatures:normal;font-variant-caps:normal;font-variant-numeric:normal;font-feature-settings:normal;text-align:start">
      <path d="M61.32 96.8l.65 10.22-3.95.34-.21-5.24-.8 3.6-3.55.5-1.44-3.72.52 4.4-3.62.75.5-10.85 3.55-.47 1.97 6.2 2.39-6.02zM65.97 96.86l.8 10.46-4.4.83.2-11.02zM71.03 102.23l.77 4.44-3.87.98-.78-10.18 3.88-.67 3.83 5.07.05-5.07 4.8-.5-1.7 11.35-3.08.45z" style="-inkscape-font-specification:'Funhouse, Normal';font-variant-ligatures:normal;font-variant-caps:normal;font-variant-numeric:normal;font-feature-settings:normal;text-align:start"/>
      <path d="M80.64 97.34l4.13.8q-2.06 6.34.59 6.41 3.15-.02 1.82-6.56l3.78-1.2q1.74 10.77-5.6 10.86-7.42-.07-4.72-10.3z" style="-inkscape-font-specification:'Funhouse, Normal';font-variant-ligatures:normal;font-variant-caps:normal;font-variant-numeric:normal;font-feature-settings:normal;text-align:start"/>
      <path d="M99.64 95.4l.2 4.11-4.82.52.07.94 3.16-.3.28 2.81-3.3.24.05.76 4.68-.36.7 3.53-9.23.32.94-11.19zM104.92 102.23l.77 4.44-3.87.98-.78-10.18 3.88-.67 3.83 5.07.05-5.07 4.8-.5-1.7 11.35-3.08.45zM114.5 107.65L114 96.8q10.57 0 10.57 5.43 0 5.42-10.07 5.42zm2.76-7.97l.52 3.75q3.35.01 3.35-1.87 0-1.88-3.87-1.88zM127.77 103.36q-2.8-.39-2.47-3.48.33-3.08 7.2-3.65l.65 3.5q-3.4-.07-3.65.81-.25.89 2.6 1.02t2.8 3.47q-.07 3.34-7.52 3.57l-1.37-3.67q3.81.41 4.2-.38.37-.8-2.44-1.19zM141.97 97.34l4.13.8q-2.06 6.34.59 6.41 3.15-.02 1.82-6.56l3.78-1.2q1.74 10.77-5.6 10.86-7.42-.07-4.72-10.3z" style="-inkscape-font-specification:'Funhouse, Normal';font-variant-ligatures:normal;font-variant-caps:normal;font-variant-numeric:normal;font-feature-settings:normal;text-align:start"/>
      <path d="M157.44 104.53l.63 2.32-4.05.8-.77-10.38q10.33-1.66 10.85 3.4 0 3.88-6.66 3.86zm-1.06-4.6l.43 1.52q4.19 0 3.94-1.1-.25-1.1-4.37-.41zM174.69 100.1l.38 6.6-4.2 1.1.72-7.9-3.17-.27.24-2.87 9.1-.54.33 4.24zM184.81 107.65q-2.62 0-4.47-1.59-1.85-1.59-1.85-3.83 0-2.25 1.85-3.84 1.85-1.6 4.47-1.6 2.61 0 4.46 1.6 1.85 1.59 1.85 3.84 0 2.24-1.85 3.83-1.85 1.6-4.46 1.6zm-.43-3.39q1.11 0 1.9-.68.8-.68.8-1.64 0-.96-.8-1.64-.79-.69-1.9-.69-1.13 0-1.93.69-.79.68-.79 1.64 0 .96.8 1.64.8.68 1.92.68zM202.62 102.58q-2.8.39-2.3 1.87l4.08-.3.92 4.45-9.74-1.01q-.13-6.68 2.73-6.81 2.85-.14 2.6-1.02t-3.65-.8l.65-3.5q6.87.56 7.2 3.64.32 3.09-2.49 3.48zM212.13 107.65q-2.62 0-4.48-1.59-1.84-1.59-1.84-3.83 0-2.25 1.84-3.84 1.86-1.6 4.48-1.6 2.6 0 4.45 1.6 1.86 1.59 1.86 3.84 0 2.24-1.86 3.83-1.84 1.6-4.45 1.6zm-.44-3.39q1.12 0 1.9-.68.8-.68.8-1.64 0-.96-.8-1.64-.78-.69-1.9-.69-1.12 0-1.92.69-.8.68-.8 1.64 0 .96.8 1.64.8.68 1.92.68zM220.38 106.1q-.64 0-1.1-.45-.45-.46-.45-1.1 0-.64.45-1.1.46-.45 1.1-.45.64 0 1.1.46.45.45.45 1.1 0 .63-.46 1.1-.45.44-1.09.44zm-.02-4.52q-.56 0-.96-.39-.38-.4-.38-.95 0-.55.38-.94.4-.4.96-.4.55 0 .94.4.4.4.4.94 0 .56-.4.95-.4.4-.94.4z" style="-inkscape-font-specification:'Funhouse, Normal';font-variant-ligatures:normal;font-variant-caps:normal;font-variant-numeric:normal;font-feature-settings:normal;text-align:start"/>
    </g>
  </g>
  <g>
    <g style="line-height:1.25;-inkscape-font-specification:'Funhouse, Normal';font-variant-ligatures:normal;font-variant-caps:normal;font-variant-numeric:normal;font-feature-settings:normal;text-align:start">
      <path fill="#fff" stroke="#ffc107" stroke-width="1.06" d="M95.61 11.5q-.95 0-1.62.53-.65.53-.65 1.3 0 .75.65 1.28.67.54 1.62.54.93 0 1.59-.54.67-.53.67-1.29t-.67-1.3q-.66-.52-1.59-.52zm.35 8.85q-1.43 0-2.45.58-1.02.6-1.02 1.43 0 .85 1.02 1.45 1.02.59 2.45.59 1.44 0 2.46-.59 1.01-.6 1.01-1.45 0-.84-1.01-1.43-1.02-.58-2.46-.58zm6.32-2.8q.67.35 1.29.8 2.84 2.15 2.84 5.2 0 3.03-2.86 5.19-2.84 2.15-6.87 2.15-4.05 0-6.9-2.15-2.85-2.16-2.85-5.19 0-3.05 2.86-5.2.45-.33.91-.62-1.82-1.79-1.82-4.25 0-2.7 2.2-4.6 2.2-1.91 5.32-1.91 3.1 0 5.3 1.9 2.21 1.9 2.21 4.6 0 2.33-1.63 4.07z" aria-label="8" font-family="Funhouse" font-size="35.28" font-weight="400" letter-spacing="0" style="-inkscape-font-specification:'Funhouse, Normal';font-variant-ligatures:normal;font-variant-caps:normal;font-variant-numeric:normal;font-feature-settings:normal;text-align:start" word-spacing="0"/>
    </g>
    <g style="line-height:1.25;-inkscape-font-specification:'Funhouse, Normal';font-variant-ligatures:normal;font-variant-caps:normal;font-variant-numeric:normal;font-feature-settings:normal;text-align:start">
      <path fill="#fff" stroke="#ffc107" stroke-width="1.06" d="M154.66 18.49q5.5.55 4.46 6.3-1.02 5.76-16.92 7.2l-1.45-8.6q10.46.27 10.46-1.35 0-1.64-4.12-.93l-1.13-6.01q5.25-.06 5.2-2.09-.05-2.03-9.3.2l1-7.24q14.8-.99 16.03 4.75 1.26 5.72-4.23 7.77z" aria-label="3" font-family="Funhouse" font-size="35.28" font-weight="400" letter-spacing="0" style="-inkscape-font-specification:'Funhouse, Normal';font-variant-ligatures:normal;font-variant-caps:normal;font-variant-numeric:normal;font-feature-settings:normal;text-align:start" word-spacing="0"/>
    </g>
    <g transform="matrix(0 .88688 -.88688 0 -131.31 642.08)">
      <rect width="7.84" height="18.82" x="-712.05" y="-356.04" fill="#e91e63" ry="3.92"/>
      <rect width="7.84" height="18.82" x="-701.07" y="-356.04" fill="#e91e63" ry="3.92"/>
      <rect width="2.21" height="6.35" x="-710.76" y="-353.53" fill="#facedd" ry="1.1"/>
      <rect width="2.21" height="6.35" x="-699.77" y="-353.53" fill="#facedd" ry="1.1"/>
    </g>
    <g transform="rotate(90 -5.46 100.5)">
      <rect width="6.96" height="16.69" x="-90.5" y="-37.14" fill="#e91e63" ry="3.48"/>
      <rect width="1.96" height="5.63" x="-89.35" y="-34.92" fill="#facedd" ry=".98"/>
    </g>
    <g>
      <g fill="#fff" stroke="#ffc107" stroke-width="1.06" aria-label="17" font-family="Funhouse" font-size="35.28" font-weight="400" letter-spacing="0" style="line-height:1.25;-inkscape-font-specification:'Funhouse, Normal';font-variant-ligatures:normal;font-variant-caps:normal;font-variant-numeric:normal;font-feature-settings:normal;text-align:start" word-spacing="0">
        <path d="M85.96 64.37l-11.78-.5 1.98-16.27-4.06 1.63-1.6-6.78 12.38-3.81zM99.49 63.43l-11.44-4.81 7.77-11.27-8.27 1.09-2.3-7.94 22.2-1.8z" style="-inkscape-font-specification:'Funhouse, Normal';font-variant-ligatures:normal;font-variant-caps:normal;font-variant-numeric:normal;font-feature-settings:normal;text-align:start"/>
      </g>
      <g fill="#fff" stroke="#ffc107" stroke-width="1.06" aria-label="14" font-family="Funhouse" font-size="35.28" font-weight="400" letter-spacing="0" style="line-height:1.25;-inkscape-font-specification:'Funhouse, Normal';font-variant-ligatures:normal;font-variant-caps:normal;font-variant-numeric:normal;font-feature-settings:normal;text-align:start" word-spacing="0">
        <path d="M152.26 64.08l-11.79-.5 1.98-16.28-4.06 1.64-1.6-6.79 12.38-3.8zM161.9 38.3l-8.78 17.11 9.83 1.3-1.4 8.26 10.19-1.25-.3-5.84 3.74.4 1.4-7.55-5.34-.14V37.84zm-.95 11.58l1.99-4.7 2.05.2-.85 4.8z" style="-inkscape-font-specification:'Funhouse, Normal';font-variant-ligatures:normal;font-variant-caps:normal;font-variant-numeric:normal;font-feature-settings:normal;text-align:start"/>
      </g>
      <g transform="matrix(0 .88688 -.88688 0 -114.78 674.59)">
        <rect width="7.84" height="18.82" x="-712.05" y="-356.04" fill="#e91e63" ry="3.92"/>
        <rect width="7.84" height="18.82" x="-701.07" y="-356.04" fill="#e91e63" ry="3.92"/>
        <rect width="2.21" height="6.35" x="-710.76" y="-353.53" fill="#facedd" ry="1.1"/>
        <rect width="2.21" height="6.35" x="-699.77" y="-353.53" fill="#facedd" ry="1.1"/>
      </g>
      <g transform="rotate(90 -22.54 115.93)">
        <rect width="6.96" height="16.69" x="-90.5" y="-37.14" fill="#e91e63" ry="3.48"/>
        <rect width="1.96" height="5.63" x="-89.35" y="-34.92" fill="#facedd" ry=".98"/>
      </g>
    </g>
  </g>
</svg>
