<svg xmlns="http://www.w3.org/2000/svg" viewBox="0 0 270.93 135.47">
  <g transform="translate(-569.48)">
    <path fill="#fff" stroke="#ffc107" stroke-linecap="round" stroke-linejoin="round" stroke-width="1.32" d="M785.69 60.58a5.18 5.18 0 0 0-5.15 5.25v8.59h21.6c2.9 0 5.23 2.33 5.23 5.22v36.52h26.8a5.18 5.18 0 0 0 5.14-5.25l-9.91-22.54 9.91-22.54c1.17-2.65-2.3-5.25-5.14-5.25z"/>
    <path fill="#ffc107" d="M785.26 60.48c-2.15-.1-4.7 3.24-4.7 5.7v8.24h23.79c-.5-.4-1.06-.87-1.69-1.44-3.47-3.15-16.27-12.06-16.27-12.06a1.92 1.92 0 0 0-1.13-.44z"/>
    <g>
      <path fill="#fff" stroke="#ffc107" stroke-linecap="round" stroke-linejoin="round" stroke-width="1.32" d="M575.72 60.58c-2.85 0-6.31 2.6-5.15 5.25l9.92 22.54-9.92 22.54c0 2.9 2.3 5.25 5.15 5.25h26.72V79.64c0-2.9 2.33-5.22 5.22-5.22h21.69v-8.6c0-2.9-2.3-5.24-5.15-5.24z"/>
      <path fill="#ffc107" d="M624.63 60.48c-.4.02-.78.15-1.13.44 0 0-12.8 8.91-16.27 12.06-.63.57-1.19 1.03-1.7 1.44h23.79v-8.23c0-2.47-2.54-5.81-4.69-5.71z"/>
    </g>
    <rect width="204.93" height="55.37" x="602.44" y="74.42" fill="#fff" stroke="#ffc107" stroke-linecap="round" stroke-linejoin="round" stroke-width="1.32" ry="5.23"/>
  </g>
  <g fill="#ffc107" stroke-width=".26" font-family="Funhouse" font-size="15.88" font-weight="400" letter-spacing="0" word-spacing="0">
    <g aria-label="plus 1 facts" style="line-height:1.25;-inkscape-font-specification:'Funhouse, Normal';font-variant-ligatures:normal;font-variant-caps:normal;font-variant-numeric:normal;font-feature-settings:normal;text-align:start">
      <path d="M86.92 119.64l.63 2.32-4.05.8-.77-10.37q10.33-1.67 10.85 3.4 0 3.87-6.66 3.85zm-1.06-4.59l.43 1.51q4.19 0 3.94-1.1-.25-1.1-4.37-.4zM94.5 111.76l3.81.2-1.25 7.7 3.89-.6-.86 4.13-6.13-.43z" style="-inkscape-font-specification:'Funhouse, Normal';font-variant-ligatures:normal;font-variant-caps:normal;font-variant-numeric:normal;font-feature-settings:normal;text-align:start"/>
      <path d="M102.08 112.45l4.13.81q-2.06 6.33.6 6.4 3.14-.02 1.81-6.55l3.79-1.2q1.73 10.76-5.6 10.85-7.43-.07-4.73-10.3z" style="-inkscape-font-specification:'Funhouse, Normal';font-variant-ligatures:normal;font-variant-caps:normal;font-variant-numeric:normal;font-feature-settings:normal;text-align:start"/>
      <path d="M115.92 118.48q-2.8-.4-2.47-3.48.32-3.09 7.19-3.65l.65 3.5q-3.4-.08-3.65.8-.25.89 2.6 1.02 2.86.13 2.8 3.47-.07 3.35-7.52 3.57l-1.37-3.67q3.81.41 4.2-.38.37-.8-2.43-1.18zM134.37 122.66l-5.3-.23.9-7.32-1.84.73-.72-3.05 5.58-1.71zM146.41 110.72l-.66 4.5-3.77-.2.15.77 3 .34-.4 3.22-2.08-.46.7 3.36-3.8.51-.85-10.17zM148.44 121.21l-.55 1.55-3.05-1.84 3.83-9 2.91-.2 4.58 9.32-3.62 1.72-.8-2.17zm2.65-3.4l-.87-2.8-1.02 3.1zM166.33 121.18q-1.83 1.58-4.43 1.58-2.6 0-4.43-1.58-1.84-1.6-1.84-3.84 0-2.25 1.84-3.84 1.83-1.59 4.43-1.59 2.6 0 4.43 1.6.93.79 1.4 1.76l-3.73.94q-.19-.5-.65-.9-.8-.68-1.9-.68-1.1 0-1.9.68-.79.68-.79 1.64 0 .96.8 1.64.78.69 1.89.69 1.1 0 1.9-.69.43-.37.63-.83l3.73 1.65q-.45.97-1.38 1.77zM174.4 115.21l.38 6.6-4.2 1.1.71-7.9-3.17-.27.25-2.87 9.1-.54.33 4.24zM181 118.48q-2.8-.4-2.47-3.48.32-3.09 7.19-3.65l.65 3.5q-3.4-.08-3.65.8-.25.89 2.6 1.02 2.86.13 2.8 3.47-.07 3.35-7.52 3.57l-1.37-3.67q3.82.41 4.2-.38.38-.8-2.43-1.18z" style="-inkscape-font-specification:'Funhouse, Normal';font-variant-ligatures:normal;font-variant-caps:normal;font-variant-numeric:normal;font-feature-settings:normal;text-align:start"/>
    </g>
    <g aria-label="subtractions with" style="line-height:1.25;-inkscape-font-specification:'Funhouse, Normal';font-variant-ligatures:normal;font-variant-caps:normal;font-variant-numeric:normal;font-feature-settings:normal;text-align:start">
      <path d="M49.72 87.8q-2.8-.4-2.48-3.48.33-3.08 7.2-3.65l.65 3.5q-3.4-.07-3.65.81-.25.88 2.6 1.02 2.85.13 2.8 3.47-.07 3.34-7.52 3.56l-1.37-3.66q3.81.4 4.2-.38.37-.8-2.43-1.19z" style="-inkscape-font-specification:'Funhouse, Normal';font-variant-ligatures:normal;font-variant-caps:normal;font-variant-numeric:normal;font-feature-settings:normal;text-align:start"/>
      <path d="M58.2 81.78l4.13.8q-2.06 6.34.6 6.4 3.14-.01 1.82-6.55l3.78-1.2Q70.26 92 62.93 92.1q-7.42-.07-4.73-10.31z" style="-inkscape-font-specification:'Funhouse, Normal';font-variant-ligatures:normal;font-variant-caps:normal;font-variant-numeric:normal;font-feature-settings:normal;text-align:start"/>
      <path d="M72.49 85.04q2.4-.45 2.36-1.36-.05-.92-2.46-.29zm.37 4.6q3.51-.13 3.52-1.22.02-1.08-3.64-1.04zM69.5 92.1l.29-10.04q5.54-2.25 7.62-.22 2.07 2.04-.53 4.11 3.95 1.22 2.55 3.98-1.4 2.75-9.93 2.17z" style="-inkscape-font-specification:'Funhouse, Normal';font-variant-ligatures:normal;font-variant-caps:normal;font-variant-numeric:normal;font-feature-settings:normal;text-align:start"/>
      <path d="M85.34 84.54l.38 6.6-4.2 1.09.72-7.9-3.17-.26.25-2.87 9.09-.54.33 4.24zM92.94 83.8l.11 2.09q3.88 0 3.88-.78 0-.77-3.99-1.32zm.52 7.66l-4.31.6.9-11.57q9.98.75 10.31 4 .34 3.25-3.43 4.5l3.1 1.68-3.18 2.81-3.63-4.5zM103.78 90.54l-.54 1.55-3.06-1.85 3.83-9 2.92-.2 4.58 9.32-3.62 1.73-.8-2.18zm2.65-3.4l-.87-2.8-1.02 3.1zM121.68 90.5q-1.84 1.59-4.43 1.59-2.6 0-4.44-1.59-1.84-1.59-1.84-3.84 0-2.24 1.84-3.83 1.84-1.6 4.44-1.6 2.6 0 4.43 1.6.92.8 1.39 1.76l-3.72.94q-.19-.5-.65-.9-.8-.68-1.9-.68-1.11 0-1.9.68-.8.68-.8 1.65 0 .96.8 1.64.79.68 1.9.68 1.1 0 1.9-.68.42-.37.62-.84l3.74 1.65q-.46.97-1.38 1.77zM129.74 84.54l.38 6.6-4.2 1.09.72-7.9-3.17-.26.25-2.87 9.1-.54.32 4.24zM137.14 81.3l.8 10.46-4.4.83.2-11.02zM144.64 92.09q-2.62 0-4.47-1.59-1.85-1.59-1.85-3.84 0-2.24 1.85-3.83 1.85-1.6 4.47-1.6 2.61 0 4.46 1.6 1.85 1.59 1.85 3.83 0 2.25-1.85 3.84-1.85 1.59-4.46 1.59zm-.43-3.39q1.11 0 1.9-.68.8-.68.8-1.64 0-.97-.8-1.65-.79-.68-1.9-.68-1.13 0-1.93.68-.79.68-.79 1.65 0 .96.8 1.64.8.68 1.92.68zM155.23 86.66l.77 4.44-3.87.99-.79-10.18 3.89-.67 3.83 5.07.04-5.07 4.81-.5-1.7 11.35-3.08.45zM166.64 87.8q-2.8-.4-2.47-3.48.32-3.08 7.19-3.65l.65 3.5q-3.4-.07-3.65.81-.25.88 2.6 1.02 2.86.13 2.8 3.47-.07 3.34-7.52 3.56l-1.37-3.66q3.81.4 4.2-.38.37-.8-2.43-1.19zM187.36 86.66l-1.55 5.43-3.06.4-4.62-9.12 3.8-2.13 2.33 6.2 1.82-4.9 3.1.43 1.28 4.47 1.86-6.43 4.22 2.31L192 92.1l-3.47-.75zM200.52 81.3l.79 10.46-4.39.83.2-11.02zM207.97 84.54l.38 6.6-4.2 1.09.72-7.9-3.17-.26.25-2.87 9.09-.54.33 4.24zM215.81 88.82l.28 2.62-2.97.52-1.35-8.6 3.3-1.4.38 3.72 2.98-.34.04-3.39 5.17.52-1.97 9.53-3.33-.99.04-2.47z" style="-inkscape-font-specification:'Funhouse, Normal';font-variant-ligatures:normal;font-variant-caps:normal;font-variant-numeric:normal;font-feature-settings:normal;text-align:start"/>
    </g>
    <g aria-label="minuends up to 20:" style="line-height:1.25;-inkscape-font-specification:'Funhouse, Normal';font-variant-ligatures:normal;font-variant-caps:normal;font-variant-numeric:normal;font-feature-settings:normal;text-align:start">
      <path d="M61.32 96.8l.65 10.22-3.95.34-.21-5.24-.8 3.6-3.55.5-1.44-3.72.52 4.4-3.62.75.5-10.85 3.55-.47 1.97 6.2 2.39-6.02zM65.97 96.86l.8 10.46-4.4.83.2-11.02zM71.03 102.23l.77 4.44-3.87.98-.78-10.18 3.88-.67 3.83 5.07.05-5.07 4.8-.5-1.7 11.35-3.08.45z" style="-inkscape-font-specification:'Funhouse, Normal';font-variant-ligatures:normal;font-variant-caps:normal;font-variant-numeric:normal;font-feature-settings:normal;text-align:start"/>
      <path d="M80.64 97.34l4.13.8q-2.06 6.34.59 6.41 3.15-.02 1.82-6.56l3.78-1.2q1.74 10.77-5.6 10.86-7.42-.07-4.72-10.3z" style="-inkscape-font-specification:'Funhouse, Normal';font-variant-ligatures:normal;font-variant-caps:normal;font-variant-numeric:normal;font-feature-settings:normal;text-align:start"/>
      <path d="M99.64 95.4l.2 4.11-4.82.52.07.94 3.16-.3.28 2.81-3.3.24.05.76 4.68-.36.7 3.53-9.23.32.94-11.19zM104.92 102.23l.77 4.44-3.87.98-.78-10.18 3.88-.67 3.83 5.07.05-5.07 4.8-.5-1.7 11.35-3.08.45zM114.5 107.65L114 96.8q10.57 0 10.57 5.43 0 5.42-10.07 5.42zm2.76-7.97l.52 3.75q3.35.01 3.35-1.87 0-1.88-3.87-1.88zM127.77 103.36q-2.8-.39-2.47-3.48.33-3.08 7.2-3.65l.65 3.5q-3.4-.07-3.65.81-.25.89 2.6 1.02t2.8 3.47q-.07 3.34-7.52 3.57l-1.37-3.67q3.81.41 4.2-.38.37-.8-2.44-1.19zM141.97 97.34l4.13.8q-2.06 6.34.59 6.41 3.15-.02 1.82-6.56l3.78-1.2q1.74 10.77-5.6 10.86-7.42-.07-4.72-10.3z" style="-inkscape-font-specification:'Funhouse, Normal';font-variant-ligatures:normal;font-variant-caps:normal;font-variant-numeric:normal;font-feature-settings:normal;text-align:start"/>
      <path d="M157.44 104.53l.63 2.32-4.05.8-.77-10.38q10.33-1.66 10.85 3.4 0 3.88-6.66 3.86zm-1.06-4.6l.43 1.52q4.19 0 3.94-1.1-.25-1.1-4.37-.41zM174.69 100.1l.38 6.6-4.2 1.1.72-7.9-3.17-.27.24-2.87 9.1-.54.33 4.24zM184.81 107.65q-2.62 0-4.47-1.59-1.85-1.59-1.85-3.83 0-2.25 1.85-3.84 1.85-1.6 4.47-1.6 2.61 0 4.46 1.6 1.85 1.59 1.85 3.84 0 2.24-1.85 3.83-1.85 1.6-4.46 1.6zm-.43-3.39q1.11 0 1.9-.68.8-.68.8-1.64 0-.96-.8-1.64-.79-.69-1.9-.69-1.13 0-1.93.69-.79.68-.79 1.64 0 .96.8 1.64.8.68 1.92.68zM202.62 102.58q-2.8.39-2.3 1.87l4.08-.3.92 4.45-9.74-1.01q-.13-6.68 2.73-6.81 2.85-.14 2.6-1.02t-3.65-.8l.65-3.5q6.87.56 7.2 3.64.32 3.09-2.49 3.48zM212.13 107.65q-2.62 0-4.48-1.59-1.84-1.59-1.84-3.83 0-2.25 1.84-3.84 1.86-1.6 4.48-1.6 2.6 0 4.45 1.6 1.86 1.59 1.86 3.84 0 2.24-1.86 3.83-1.84 1.6-4.45 1.6zm-.44-3.39q1.12 0 1.9-.68.8-.68.8-1.64 0-.96-.8-1.64-.78-.69-1.9-.69-1.12 0-1.92.69-.8.68-.8 1.64 0 .96.8 1.64.8.68 1.92.68zM220.38 106.1q-.64 0-1.1-.45-.45-.46-.45-1.1 0-.64.45-1.1.46-.45 1.1-.45.64 0 1.1.46.45.45.45 1.1 0 .63-.46 1.1-.45.44-1.09.44zm-.02-4.52q-.56 0-.96-.39-.38-.4-.38-.95 0-.55.38-.94.4-.4.96-.4.55 0 .94.4.4.4.4.94 0 .56-.4.95-.4.4-.94.4z" style="-inkscape-font-specification:'Funhouse, Normal';font-variant-ligatures:normal;font-variant-caps:normal;font-variant-numeric:normal;font-feature-settings:normal;text-align:start"/>
    </g>
  </g>
  <g>
    <g style="line-height:1.25;-inkscape-font-specification:'Funhouse, Normal';font-variant-ligatures:normal;font-variant-caps:normal;font-variant-numeric:normal;font-feature-settings:normal;text-align:start">
      <path fill="#fff" stroke="#ffc107" stroke-width="1.06" d="M95.75 30.59q-13.39-.16-8.05-23.53l9.9 1.74L94.45 15q13.7-2.84 14.2 6.45.49 9.26-12.91 9.13zm1.1-6.76q3.05 0 3.05-2.06 0-2.07-3.05-2.07-3.03 0-3.03 2.07 0 2.06 3.03 2.06z" aria-label="6" font-family="Funhouse" font-size="35.28" font-weight="400" letter-spacing="0" style="-inkscape-font-specification:'Funhouse, Normal';font-variant-ligatures:normal;font-variant-caps:normal;font-variant-numeric:normal;font-feature-settings:normal;text-align:start" word-spacing="0"/>
    </g>
    <g style="line-height:1.25;-inkscape-font-specification:'Funhouse, Normal';font-variant-ligatures:normal;font-variant-caps:normal;font-variant-numeric:normal;font-feature-settings:normal;text-align:start">
      <path fill="#fff" stroke="#ffc107" stroke-width="1.06" d="M158.47 31.72l-11.78-.5 1.98-16.28-4.07 1.64-1.6-6.79 12.39-3.8z" aria-label="1" font-family="Funhouse" font-size="35.28" font-weight="400" letter-spacing="0" style="-inkscape-font-specification:'Funhouse, Normal';font-variant-ligatures:normal;font-variant-caps:normal;font-variant-numeric:normal;font-feature-settings:normal;text-align:start" word-spacing="0"/>
    </g>
    <g transform="matrix(0 .88688 -.88688 0 -130.56 641.94)">
      <rect width="7.84" height="18.82" x="-712.05" y="-356.04" fill="#e91e63" ry="3.92"/>
      <rect width="7.84" height="18.82" x="-701.07" y="-356.04" fill="#e91e63" ry="3.92"/>
      <rect width="2.21" height="6.35" x="-710.76" y="-353.53" fill="#facedd" ry="1.1"/>
      <rect width="2.21" height="6.35" x="-699.77" y="-353.53" fill="#facedd" ry="1.1"/>
    </g>
    <g transform="rotate(90 -5 100.8)">
      <rect width="6.96" height="16.69" x="-90.5" y="-37.14" fill="#e91e63" ry="3.48"/>
      <rect width="1.96" height="5.63" x="-89.35" y="-34.92" fill="#facedd" ry=".98"/>
    </g>
    <g>
      <g fill="#fff" stroke="#ffc107" stroke-width="1.06" aria-label="20" font-family="Funhouse" font-size="35.28" font-weight="400" letter-spacing="0" style="line-height:1.25;-inkscape-font-specification:'Funhouse, Normal';font-variant-ligatures:normal;font-variant-caps:normal;font-variant-numeric:normal;font-feature-settings:normal;text-align:start" word-spacing="0">
        <path d="M79.27 51.62q-6.22.86-5.13 4.15l9.08-.67 2.04 9.89-21.65-2.24q-.27-14.85 6.07-15.15 6.33-.29 5.78-2.25-.55-1.97-8.11-1.8l1.45-7.78q15.26 1.26 15.98 8.11.73 6.86-5.51 7.74zM100.39 62.88q-5.82 0-9.94-3.53-4.1-3.53-4.1-8.52 0-5 4.1-8.53 4.12-3.53 9.94-3.53 5.8 0 9.9 3.53 4.12 3.53 4.12 8.53t-4.12 8.52q-4.1 3.53-9.9 3.53zm-.97-7.52q2.48 0 4.24-1.52 1.78-1.52 1.78-3.65 0-2.14-1.78-3.65-1.76-1.52-4.24-1.52-2.5 0-4.27 1.52-1.75 1.51-1.75 3.65 0 2.13 1.75 3.65 1.78 1.52 4.27 1.52z" style="-inkscape-font-specification:'Funhouse, Normal';font-variant-ligatures:normal;font-variant-caps:normal;font-variant-numeric:normal;font-feature-settings:normal;text-align:start"/>
      </g>
      <g fill="#fff" stroke="#ffc107" stroke-width="1.06" aria-label="19" font-family="Funhouse" font-size="35.28" font-weight="400" letter-spacing="0" style="line-height:1.25;-inkscape-font-specification:'Funhouse, Normal';font-variant-ligatures:normal;font-variant-caps:normal;font-variant-numeric:normal;font-feature-settings:normal;text-align:start" word-spacing="0">
        <path d="M160.1 63.25l-11.78-.5 1.99-16.27-4.07 1.63-1.6-6.79 12.38-3.8zM173.32 39.84q13.4.14 8.06 23.52l-9.89-1.74 3.14-6.22q-13.7 2.84-14.2-6.43-.5-9.28 12.89-9.13zm-1.1 6.74q-3.04 0-3.04 2.07 0 2.06 3.04 2.06 3.05 0 3.05-2.06 0-2.07-3.05-2.07z" style="-inkscape-font-specification:'Funhouse, Normal';font-variant-ligatures:normal;font-variant-caps:normal;font-variant-numeric:normal;font-feature-settings:normal;text-align:start"/>
      </g>
      <g transform="rotate(90 -17.94 119.48)">
        <rect width="6.96" height="16.69" x="-90.5" y="-37.14" fill="#e91e63" ry="3.48"/>
        <rect width="1.96" height="5.63" x="-89.35" y="-34.92" fill="#facedd" ry=".98"/>
      </g>
      <g transform="matrix(0 .88688 -.88688 0 -107.98 673.55)">
        <rect width="7.84" height="18.82" x="-712.05" y="-356.04" fill="#e91e63" ry="3.92"/>
        <rect width="7.84" height="18.82" x="-701.07" y="-356.04" fill="#e91e63" ry="3.92"/>
        <rect width="2.21" height="6.35" x="-710.76" y="-353.53" fill="#facedd" ry="1.1"/>
        <rect width="2.21" height="6.35" x="-699.77" y="-353.53" fill="#facedd" ry="1.1"/>
      </g>
    </g>
  </g>
</svg>
