<svg xmlns="http://www.w3.org/2000/svg" viewBox="0 0 270.93 135.47">
  <g transform="translate(-617.92 -801.17)">
    <path fill="#fff" stroke="#303f9f" stroke-linecap="round" stroke-linejoin="round" stroke-width="1.32" d="M834.13 861.76A5.18 5.18 0 0 0 829 867v8.6h21.6c2.9 0 5.22 2.32 5.22 5.22v36.51h26.8a5.18 5.18 0 0 0 5.15-5.24l-9.91-22.55 9.91-22.54c1.17-2.65-2.3-5.24-5.15-5.24z"/>
    <path fill="#303f9f" d="M833.7 861.65c-2.14-.1-4.69 3.25-4.69 5.71v8.23H852.8c-.5-.4-1.06-.87-1.68-1.43-3.47-3.15-16.27-12.07-16.27-12.07a1.92 1.92 0 0 0-1.14-.44z"/>
    <g>
      <path fill="#fff" stroke="#303f9f" stroke-linecap="round" stroke-linejoin="round" stroke-width="1.32" d="M624.17 861.76c-2.85 0-6.32 2.6-5.15 5.24l9.92 22.54-9.92 22.55c0 2.9 2.3 5.24 5.15 5.24h26.71v-36.51c0-2.9 2.33-5.23 5.23-5.23h21.68V867c0-2.9-2.3-5.24-5.14-5.24z"/>
      <path fill="#303f9f" d="M673.08 861.65c-.4.02-.78.16-1.14.44 0 0-12.8 8.92-16.27 12.07-.62.56-1.18 1.03-1.69 1.43h23.79v-8.23c0-2.46-2.55-5.8-4.7-5.7z"/>
    </g>
    <rect width="204.93" height="55.37" x="650.88" y="875.59" fill="#fff" stroke="#303f9f" stroke-linecap="round" stroke-linejoin="round" stroke-width="1.32" ry="5.23"/>
  </g>
  <g fill="#303f9f" stroke-width=".26" font-size="15.88" font-weight="400" letter-spacing="0" word-spacing="0">
    <g aria-label="multiplications by" font-family="Funhouse" style="line-height:1.25;-inkscape-font-specification:'Funhouse, Normal';font-variant-ligatures:normal;font-variant-caps:normal;font-variant-numeric:normal;font-feature-settings:normal;text-align:start">
      <path d="M65.04 96.04l.65 10.22-3.95.34-.21-5.24-.8 3.6-3.55.5-1.44-3.72.52 4.4-3.62.75.5-10.85 3.55-.47 1.97 6.2 2.39-6.02z" style="-inkscape-font-specification:'Funhouse, Normal';font-variant-ligatures:normal;font-variant-caps:normal;font-variant-numeric:normal;font-feature-settings:normal;text-align:start"/>
      <path d="M66.87 96.58l4.13.8q-2.06 6.34.59 6.41 3.15-.02 1.82-6.56l3.78-1.19q1.74 10.76-5.6 10.85-7.42-.07-4.72-10.3z" style="-inkscape-font-specification:'Funhouse, Normal';font-variant-ligatures:normal;font-variant-caps:normal;font-variant-numeric:normal;font-feature-settings:normal;text-align:start"/>
      <path d="M78.44 95.88l3.82.2-1.25 7.71 3.89-.6-.86 4.13-6.13-.43z" style="-inkscape-font-specification:'Funhouse, Normal';font-variant-ligatures:normal;font-variant-caps:normal;font-variant-numeric:normal;font-feature-settings:normal;text-align:start"/>
      <path d="M89.1 99.34l.39 6.6-4.2 1.1.72-7.9-3.17-.27.24-2.87 9.1-.54.33 4.24zM96.5 96.1l.8 10.46-4.39.83.2-11.02zM101.87 103.77l.63 2.32-4.05.8-.76-10.38q10.32-1.66 10.84 3.4 0 3.88-6.66 3.86zm-1.06-4.6l.44 1.52q4.18 0 3.93-1.1-.25-1.1-4.37-.41zM109.45 95.88l3.82.2-1.26 7.71 3.9-.6-.87 4.13-6.13-.43zM119.89 96.1l.79 10.46-4.39.83.2-11.02zM131.77 105.3q-1.84 1.6-4.43 1.6-2.6 0-4.44-1.6-1.83-1.59-1.83-3.83 0-2.25 1.83-3.84 1.84-1.59 4.44-1.59 2.6 0 4.43 1.59.92.8 1.39 1.77l-3.72.93q-.19-.5-.65-.9-.8-.68-1.9-.68-1.11 0-1.9.68-.8.69-.8 1.65t.8 1.64q.79.68 1.9.68 1.1 0 1.9-.68.42-.37.62-.84l3.74 1.66q-.46.96-1.38 1.76zM137.16 105.34l-.54 1.55-3.06-1.84 3.83-9.01 2.91-.2 4.59 9.32-3.62 1.73-.8-2.18zm2.65-3.4l-.87-2.8-1.02 3.1z" style="-inkscape-font-specification:'Funhouse, Normal';font-variant-ligatures:normal;font-variant-caps:normal;font-variant-numeric:normal;font-feature-settings:normal;text-align:start"/>
      <path d="M149.16 99.34l.38 6.6-4.2 1.1.72-7.9-3.17-.27.25-2.87 9.1-.54.33 4.24zM156.57 96.1l.79 10.46-4.39.83.2-11.02zM164.06 106.9q-2.62 0-4.47-1.6-1.84-1.59-1.84-3.83 0-2.25 1.84-3.84 1.85-1.59 4.47-1.59 2.62 0 4.46 1.59 1.85 1.59 1.85 3.84 0 2.24-1.85 3.83-1.84 1.6-4.46 1.6zm-.43-3.4q1.12 0 1.9-.68.8-.68.8-1.64 0-.96-.8-1.64-.78-.69-1.9-.69-1.12 0-1.92.69-.8.68-.8 1.64 0 .96.8 1.64.8.68 1.92.68zM174.65 101.47l.77 4.44-3.87.98-.78-10.18 3.88-.67 3.83 5.07.05-5.07 4.8-.5-1.7 11.35-3.08.45zM186.06 102.6q-2.8-.39-2.47-3.48.32-3.08 7.2-3.65l.64 3.5q-3.4-.07-3.65.81-.25.89 2.6 1.02 2.86.13 2.8 3.47-.06 3.34-7.51 3.57l-1.38-3.67q3.82.41 4.2-.38.38-.8-2.43-1.18zM200.56 99.85q2.4-.45 2.35-1.37-.04-.91-2.45-.29zm.37 4.6q3.51-.14 3.52-1.22.01-1.09-3.64-1.04zm-3.37 2.44l.28-10.04q5.55-2.25 7.62-.21 2.08 2.04-.52 4.1 3.95 1.22 2.55 3.98-1.4 2.75-9.93 2.17z" style="-inkscape-font-specification:'Funhouse, Normal';font-variant-ligatures:normal;font-variant-caps:normal;font-variant-numeric:normal;font-feature-settings:normal;text-align:start"/>
      <path d="M210.79 102.24l-3.65-3.68 3.08-2.52 2.12 3.1 1.76-3.86 4.11 1.41-4.32 5.55.33 4.36-3.77-.51z" style="-inkscape-font-specification:'Funhouse, Normal';font-variant-ligatures:normal;font-variant-caps:normal;font-variant-numeric:normal;font-feature-settings:normal;text-align:start"/>
    </g>
    <g aria-label="10, 100 1000" font-family="Funhouse" style="line-height:1.25;-inkscape-font-specification:'Funhouse, Normal';font-variant-ligatures:normal;font-variant-caps:normal;font-variant-numeric:normal;font-feature-settings:normal;text-align:start">
      <path d="M81.35 123.46l-5.3-.22.89-7.33-1.83.74-.72-3.06 5.57-1.71zM88.05 123.57q-2.62 0-4.47-1.59-1.85-1.59-1.85-3.84t1.85-3.83q1.85-1.6 4.47-1.6 2.61 0 4.46 1.6 1.85 1.58 1.85 3.83t-1.85 3.84q-1.85 1.59-4.46 1.59zm-.43-3.39q1.11 0 1.9-.68.8-.68.8-1.64 0-.97-.8-1.65-.79-.68-1.9-.68-1.13 0-1.92.68-.8.68-.8 1.65 0 .96.8 1.64.8.68 1.92.68zM96.94 120.98l.03 4.64-3.95.27 1.42-5.15zM108.26 123.46l-5.3-.22.89-7.33-1.83.74-.72-3.06 5.57-1.71zM114.97 123.57q-2.62 0-4.48-1.59-1.84-1.59-1.84-3.84t1.84-3.83q1.86-1.6 4.48-1.6 2.6 0 4.45 1.6 1.85 1.58 1.85 3.83t-1.85 3.84q-1.84 1.59-4.45 1.59zm-.44-3.39q1.12 0 1.9-.68.8-.68.8-1.64 0-.97-.8-1.65-.78-.68-1.9-.68-1.12 0-1.92.68-.8.68-.8 1.65 0 .96.8 1.64.8.68 1.92.68zM127.99 123.57q-2.62 0-4.47-1.59-1.85-1.59-1.85-3.84t1.85-3.83q1.85-1.6 4.47-1.6 2.61 0 4.45 1.6 1.86 1.58 1.86 3.83t-1.86 3.84q-1.84 1.59-4.45 1.59zm-.44-3.39q1.12 0 1.91-.68.8-.68.8-1.64 0-.97-.8-1.65-.79-.68-1.9-.68-1.13 0-1.93.68-.79.68-.79 1.65 0 .96.8 1.64.79.68 1.91.68zM157.4 123.46l-5.3-.22.9-7.33-1.84.74-.72-3.06 5.58-1.71zM164.11 123.57q-2.62 0-4.47-1.59-1.85-1.59-1.85-3.84t1.85-3.83q1.85-1.6 4.47-1.6 2.61 0 4.46 1.6 1.85 1.58 1.85 3.83t-1.85 3.84q-1.85 1.59-4.46 1.59zm-.43-3.39q1.11 0 1.9-.68.8-.68.8-1.64 0-.97-.8-1.65-.79-.68-1.9-.68-1.13 0-1.93.68-.79.68-.79 1.65 0 .96.8 1.64.8.68 1.92.68zM177.13 123.57q-2.62 0-4.47-1.59-1.85-1.59-1.85-3.84t1.85-3.83q1.85-1.6 4.47-1.6 2.61 0 4.46 1.6 1.85 1.58 1.85 3.83t-1.85 3.84q-1.85 1.59-4.46 1.59zm-.43-3.39q1.11 0 1.9-.68.8-.68.8-1.64 0-.97-.8-1.65-.79-.68-1.9-.68-1.13 0-1.92.68-.8.68-.8 1.65 0 .96.8 1.64.8.68 1.92.68zM190.15 123.57q-2.62 0-4.47-1.59-1.84-1.59-1.84-3.84t1.84-3.83q1.85-1.6 4.47-1.6 2.62 0 4.46 1.6 1.85 1.58 1.85 3.83t-1.85 3.84q-1.84 1.59-4.46 1.59zm-.43-3.39q1.12 0 1.9-.68.8-.68.8-1.64 0-.97-.8-1.65-.78-.68-1.9-.68-1.12 0-1.92.68-.8.68-.8 1.65 0 .96.8 1.64.8.68 1.92.68z" style="-inkscape-font-specification:'Funhouse, Normal';font-variant-ligatures:normal;font-variant-caps:normal;font-variant-numeric:normal;font-feature-settings:normal;text-align:start"/>
    </g>
    <g style="line-height:1.25;-inkscape-font-specification:'SC Gum Kids, Normal';font-variant-ligatures:normal;font-variant-caps:normal;font-variant-numeric:normal;font-feature-settings:normal;text-align:start">
      <path d="M141.54 115.2q-.31 0-.47.14v.02q-.02.03-.02.1-.01.26.15.68.1.25.25.54.29-.24.48-.46.34-.4.34-.64l-.01-.07q-.04-.06-.12-.12-.23-.19-.6-.19zm-1.24 5.23q-.2.32-.2.66 0 .56.45 1 .48.48 1.12.48.53-.01 1.02-.35-1.1-1.2-1.91-2.29-.3.24-.48.5zm1.37 4.48q-1.6 0-2.75-1.14-1.16-1.14-1.17-2.68 0-1.04.6-1.94.43-.66 1.13-1.17-.25-.47-.42-.91-.35-.87-.35-1.6 0-.54.18-1 .22-.52.65-.9.83-.7 2-.7.82 0 1.55.36.8.42 1.21 1.15.31.55.31 1.2 0 1.11-.9 2.16-.4.47-.96.91.37.5.8 1.01l.58.67q.41-.85.7-1.95l2.26.6q-.5 1.85-1.26 3.14.51.52.92.9l.07.06-1.59 1.72-.25-.24q-.33-.3-.66-.64-1.23.99-2.64.99z" aria-label="&amp;" font-family="SC Gum Kids" style="-inkscape-font-specification:'SC Gum Kids, Normal';font-variant-ligatures:normal;font-variant-caps:normal;font-variant-numeric:normal;font-feature-settings:normal;text-align:start"/>
    </g>
    <g>
      <g aria-label="2 3-digit number" font-family="Funhouse" style="line-height:1.25;-inkscape-font-specification:'Funhouse, Normal';font-variant-ligatures:normal;font-variant-caps:normal;font-variant-numeric:normal;font-feature-settings:normal;text-align:start">
        <path d="M62.24 85.49q-2.8.38-2.31 1.86l4.08-.3.92 4.45-9.74-1q-.12-6.69 2.73-6.82 2.85-.13 2.6-1.01-.25-.89-3.65-.81l.65-3.5q6.87.56 7.2 3.65.32 3.08-2.48 3.48zM87.43 85.13q2.47.25 2 2.84-.45 2.59-7.6 3.24l-.66-3.87q4.7.12 4.7-.61 0-.74-1.84-.42l-.52-2.7q2.37-.03 2.34-.94-.02-.92-4.18.09l.45-3.27q6.66-.44 7.22 2.14.56 2.58-1.91 3.5zM98.31 83.06l-.6 3.91-7.06-.72-.36-2.67zM99.19 90.56l-.5-10.86q10.57 0 10.57 5.43T99.2 90.56zm2.76-7.98l.52 3.75q3.35.02 3.35-1.87 0-1.88-3.87-1.88zM113.26 79.77l.8 10.45-4.4.83.2-11.01zM126.86 90.45l-4.41 1.11.08-1.22q-.86.22-1.82.22-2.6 0-4.43-1.6-1.84-1.58-1.84-3.83t1.84-3.84q1.84-1.59 4.43-1.59 2.6 0 4.44 1.6.92.8 1.38 1.76l-3.72.94q-.18-.5-.65-.9-.79-.68-1.9-.68-1.1 0-1.9.68-.79.68-.79 1.64 0 .96.8 1.65.79.68 1.9.68 1.1 0 1.9-.68.42-.38.65-.83l3.52-.15zM130.84 79.77l.8 10.45-4.4.83.2-11.01zM138.3 83l.37 6.61-4.2 1.09.72-7.9-3.17-.27.25-2.86 9.1-.55.33 4.24zM149.92 85.13l.77 4.44-3.87.99-.78-10.18 3.88-.68 3.83 5.07.05-5.07 4.8-.5-1.7 11.36-3.08.45z" style="-inkscape-font-specification:'Funhouse, Normal';font-variant-ligatures:normal;font-variant-caps:normal;font-variant-numeric:normal;font-feature-settings:normal;text-align:start"/>
        <path d="M159.52 80.25l4.14.8q-2.07 6.34.59 6.4 3.14-.02 1.82-6.55l3.78-1.2q1.74 10.76-5.6 10.86-7.42-.07-4.73-10.31z" style="-inkscape-font-specification:'Funhouse, Normal';font-variant-ligatures:normal;font-variant-caps:normal;font-variant-numeric:normal;font-feature-settings:normal;text-align:start"/>
        <path d="M182.97 79.7l.65 10.23-3.96.33-.2-5.23-.8 3.6-3.55.5-1.45-3.72.52 4.4-3.62.75.5-10.86 3.56-.47 1.97 6.2 2.38-6.01zM187.02 83.51q2.4-.45 2.36-1.36-.05-.92-2.46-.3zm.37 4.6q3.51-.14 3.52-1.22.02-1.09-3.64-1.04zm-3.37 2.45l.29-10.04q5.54-2.26 7.62-.22 2.07 2.04-.53 4.1 3.95 1.23 2.55 3.99-1.4 2.75-9.93 2.17z" style="-inkscape-font-specification:'Funhouse, Normal';font-variant-ligatures:normal;font-variant-caps:normal;font-variant-numeric:normal;font-feature-settings:normal;text-align:start"/>
        <path d="M203.03 78.3l.2 4.12-4.82.52.06.93 3.16-.29.28 2.8-3.3.25.05.76 4.68-.36.7 3.53-9.23.31.94-11.18zM208.22 82.26l.1 2.1q3.88 0 3.88-.78t-3.98-1.32zm.52 7.67l-4.32.6.9-11.57q9.98.74 10.32 4 .34 3.25-3.44 4.5l3.1 1.68-3.17 2.81-3.64-4.5z" style="-inkscape-font-specification:'Funhouse, Normal';font-variant-ligatures:normal;font-variant-caps:normal;font-variant-numeric:normal;font-feature-settings:normal;text-align:start"/>
      </g>
      <g style="line-height:1.25;-inkscape-font-specification:'SC Gum Kids, Normal';font-variant-ligatures:normal;font-variant-caps:normal;font-variant-numeric:normal;font-feature-settings:normal;text-align:start">
        <path d="M72.53 81.45q-.31 0-.47.14v.01q-.02.03-.02.11 0 .26.16.68.09.24.24.54.29-.24.48-.47.35-.4.35-.63l-.02-.08-.12-.12q-.23-.18-.6-.18zm-1.23 5.22q-.2.32-.21.66 0 .56.45 1 .49.48 1.12.48.53 0 1.02-.35-1.1-1.2-1.91-2.28-.3.23-.47.5zm1.36 4.48q-1.6 0-2.75-1.14-1.16-1.14-1.16-2.68 0-1.04.59-1.94.43-.66 1.13-1.17-.25-.47-.42-.91-.35-.87-.35-1.6 0-.54.19-1 .21-.52.64-.89.83-.71 2-.71.82 0 1.55.36.8.42 1.22 1.15.3.56.3 1.2 0 1.12-.9 2.16-.4.48-.96.92.37.49.81 1 .27.33.58.67.4-.85.7-1.95l2.26.6q-.5 1.86-1.27 3.14.51.52.93.9.04.05.07.06l-1.6 1.72-.25-.24-.66-.64q-1.23 1-2.63 1z" aria-label="&amp;" font-family="SC Gum Kids" style="-inkscape-font-specification:'SC Gum Kids, Normal';font-variant-ligatures:normal;font-variant-caps:normal;font-variant-numeric:normal;font-feature-settings:normal;text-align:start"/>
      </g>
    </g>
  </g>
  <g>
    <g transform="matrix(.87292 0 0 .87292 -207.38 692.9)">
      <g fill="#f57c00" transform="rotate(45 327.21 -723.68) scale(1.09493)">
        <rect width="7.84" height="23.53" x="303.23" y="-746.43" ry="3.92"/>
        <rect width="7.84" height="23.53" x="-738.58" y="-318.92" ry="3.92" transform="rotate(90)"/>
      </g>
      <rect width="2.21" height="6.35" x="-826.54" y="-267.47" fill="#ffd4a9" ry="1.1" transform="scale(-1 1) rotate(45)"/>
    </g>
    <g transform="rotate(90 -315 244) scale(.77141)">
      <rect width="7.84" height="18.82" x="-712.05" y="-356.04" fill="#e91e63" ry="3.92"/>
      <rect width="7.84" height="18.82" x="-701.07" y="-356.04" fill="#e91e63" ry="3.92"/>
      <rect width="2.21" height="6.35" x="-710.76" y="-353.53" fill="#facedd" ry="1.1"/>
      <rect width="2.21" height="6.35" x="-699.77" y="-353.53" fill="#facedd" ry="1.1"/>
    </g>
    <g fill="#fff" stroke="#303f9f" stroke-width="1.06" font-family="Funhouse" font-size="31.75" font-weight="400" letter-spacing="0" word-spacing="0">
      <g style="line-height:1.25;-inkscape-font-specification:'Funhouse, Normal';font-variant-ligatures:normal;font-variant-caps:normal;font-variant-numeric:normal;font-feature-settings:normal;text-align:start">
        <path stroke-width="1.0548375" d="M114.86 16.63q4.18.42 3.4 4.79-.78 4.37-12.85 5.47l-1.1-6.53q7.94.2 7.94-1.03 0-1.25-3.13-.71l-.86-4.57q3.99-.04 3.95-1.58-.04-1.54-7.07.16l.76-5.51q11.24-.75 12.18 3.61.96 4.34-3.22 5.9z" aria-label="3" style="-inkscape-font-specification:'Funhouse, Normal';font-variant-ligatures:normal;font-variant-caps:normal;font-variant-numeric:normal;font-feature-settings:normal;text-align:start"/>
      </g>
      <path d="M76.44 17.9q-4.72.65-3.9 3.15l6.9-.51 1.55 7.5-16.44-1.7q-.21-11.27 4.6-11.5 4.82-.22 4.4-1.7-.42-1.5-6.16-1.37l1.1-5.91q11.59.95 12.14 6.16.54 5.2-4.2 5.87zM92.48 26.45q-4.42 0-7.55-2.68-3.11-2.68-3.11-6.48 0-3.8 3.11-6.47 3.13-2.69 7.55-2.69 4.4 0 7.52 2.69 3.13 2.68 3.13 6.47 0 3.8-3.13 6.48-3.11 2.68-7.52 2.68zm-.73-5.72q1.88 0 3.21-1.15 1.35-1.15 1.35-2.77t-1.35-2.78q-1.33-1.15-3.21-1.15-1.9 0-3.25 1.15-1.33 1.16-1.33 2.78 0 1.62 1.33 2.77 1.35 1.15 3.25 1.15z" style="line-height:1.25;-inkscape-font-specification:'Funhouse, Normal';font-variant-ligatures:normal;font-variant-caps:normal;font-variant-numeric:normal;font-feature-settings:normal;text-align:start"/>
    </g>
    <g fill="#fff" stroke="#303f9f" stroke-width="1.06" font-family="Funhouse" font-size="31.75" font-weight="400" letter-spacing="0" word-spacing="0">
      <path d="M160.85 26.73l-8.95-.38L153.4 14l-3.08 1.24-1.22-5.15 9.4-2.9zM172.22 26.92q-4.42 0-7.55-2.69-3.11-2.68-3.11-6.47 0-3.8 3.11-6.48 3.13-2.68 7.55-2.68 4.41 0 7.52 2.68 3.13 2.68 3.13 6.48 0 3.8-3.13 6.47-3.1 2.69-7.52 2.69zm-.73-5.72q1.88 0 3.22-1.15 1.35-1.15 1.35-2.78 0-1.62-1.35-2.77-1.34-1.15-3.22-1.15-1.9 0-3.24 1.15-1.34 1.15-1.34 2.77 0 1.63 1.34 2.78t3.24 1.15z" style="line-height:1.25;-inkscape-font-specification:'Funhouse, Normal';font-variant-ligatures:normal;font-variant-caps:normal;font-variant-numeric:normal;font-feature-settings:normal;text-align:start"/>
    </g>
    <g>
      <g transform="rotate(90 -331.32 262.85) scale(.77141)">
        <rect width="7.84" height="18.82" x="-712.05" y="-356.04" fill="#e91e63" ry="3.92"/>
        <rect width="7.84" height="18.82" x="-701.07" y="-356.04" fill="#e91e63" ry="3.92"/>
        <rect width="2.21" height="6.35" x="-710.76" y="-353.53" fill="#facedd" ry="1.1"/>
        <rect width="2.21" height="6.35" x="-699.77" y="-353.53" fill="#facedd" ry="1.1"/>
      </g>
      <g fill="#fff" stroke="#303f9f" font-family="Funhouse" font-size="31.75" font-weight="400" letter-spacing="0" word-spacing="0">
        <g style="line-height:1.25;-inkscape-font-specification:'Funhouse, Normal';font-variant-ligatures:normal;font-variant-caps:normal;font-variant-numeric:normal;font-feature-settings:normal;text-align:start">
          <path stroke-width="1.0548375" d="M93.4 51.23q4.73.66 4.18 5.86-.55 5.21-12.14 6.17l-1.1-5.92q5.74.13 6.16-1.36.42-1.49-4.4-1.71-4.8-.22-4.6-11.5l16.44-1.7-1.55 7.5-6.9-.5q-.82 2.5 3.9 3.16z" aria-label="5" style="-inkscape-font-specification:'Funhouse, Normal';font-variant-ligatures:normal;font-variant-caps:normal;font-variant-numeric:normal;font-feature-settings:normal;text-align:start"/>
        </g>
        <path stroke-width="1.06" d="M70.07 62.1q-11.28-.14-6.78-19.83l8.33 1.47-2.64 5.24q11.54-2.4 11.96 5.42.42 7.81-10.87 7.7zm.93-5.7q2.57 0 2.57-1.74T71 52.92q-2.56 0-2.56 1.74 0 1.75 2.56 1.75z" style="line-height:1.25;-inkscape-font-specification:'Funhouse, Normal';font-variant-ligatures:normal;font-variant-caps:normal;font-variant-numeric:normal;font-feature-settings:normal;text-align:start"/>
      </g>
      <g transform="matrix(.87292 0 0 .87292 -227.8 728.07)">
        <g fill="#f57c00" transform="rotate(45 327.21 -723.68) scale(1.09493)">
          <rect width="7.84" height="23.53" x="303.23" y="-746.43" ry="3.92"/>
          <rect width="7.84" height="23.53" x="-738.58" y="-318.92" ry="3.92" transform="rotate(90)"/>
        </g>
        <rect width="2.21" height="6.35" x="-826.54" y="-267.47" fill="#ffd4a9" ry="1.1" transform="scale(-1 1) rotate(45)"/>
      </g>
      <g fill="#fff" stroke="#303f9f" stroke-width="1.06" font-family="Funhouse" font-size="31.75" font-weight="400" letter-spacing="0" word-spacing="0">
        <path d="M140.32 61.9l-8.95-.37 1.5-12.37-3.08 1.25-1.21-5.16 9.4-2.89zM151.7 62.1q-4.42 0-7.55-2.7-3.12-2.67-3.12-6.47 0-3.79 3.12-6.47 3.13-2.68 7.55-2.68 4.4 0 7.52 2.68 3.13 2.68 3.13 6.47 0 3.8-3.13 6.48-3.11 2.68-7.52 2.68zm-.74-5.73q1.89 0 3.22-1.15 1.35-1.15 1.35-2.77t-1.35-2.77q-1.33-1.16-3.22-1.16-1.9 0-3.24 1.16-1.33 1.15-1.33 2.77t1.33 2.77q1.35 1.15 3.24 1.15zM174.87 62.1q-4.42 0-7.55-2.7-3.11-2.67-3.11-6.47 0-3.79 3.11-6.47 3.13-2.68 7.55-2.68 4.4 0 7.52 2.68 3.13 2.68 3.13 6.47 0 3.8-3.13 6.48-3.11 2.68-7.52 2.68zm-.73-5.73q1.88 0 3.22-1.15 1.34-1.15 1.34-2.77t-1.34-2.77q-1.34-1.16-3.22-1.16-1.9 0-3.25 1.16-1.33 1.15-1.33 2.77t1.33 2.77q1.35 1.15 3.25 1.15z" style="line-height:1.25;-inkscape-font-specification:'Funhouse, Normal';font-variant-ligatures:normal;font-variant-caps:normal;font-variant-numeric:normal;font-feature-settings:normal;text-align:start"/>
      </g>
    </g>
  </g>
</svg>
