<svg xmlns="http://www.w3.org/2000/svg" viewBox="0 0 270.93 135.47">
  <g transform="translate(-617.92 -801.17)">
    <path fill="#fff" stroke="#303f9f" stroke-linecap="round" stroke-linejoin="round" stroke-width="1.32" d="M834.13 861.76A5.18 5.18 0 0 0 829 867v8.6h21.6c2.9 0 5.22 2.32 5.22 5.22v36.51h26.8a5.18 5.18 0 0 0 5.15-5.24l-9.91-22.55 9.91-22.54c1.17-2.65-2.3-5.24-5.15-5.24z"/>
    <path fill="#303f9f" d="M833.7 861.65c-2.14-.1-4.69 3.25-4.69 5.71v8.23H852.8c-.5-.4-1.06-.87-1.68-1.43-3.47-3.15-16.27-12.07-16.27-12.07a1.92 1.92 0 0 0-1.14-.44z"/>
    <g>
      <path fill="#fff" stroke="#303f9f" stroke-linecap="round" stroke-linejoin="round" stroke-width="1.32" d="M624.17 861.76c-2.85 0-6.32 2.6-5.15 5.24l9.92 22.54-9.92 22.55c0 2.9 2.3 5.24 5.15 5.24h26.71v-36.51c0-2.9 2.33-5.23 5.23-5.23h21.68V867c0-2.9-2.3-5.24-5.14-5.24z"/>
      <path fill="#303f9f" d="M673.08 861.65c-.4.02-.78.16-1.14.44 0 0-12.8 8.92-16.27 12.07-.62.56-1.18 1.03-1.69 1.43h23.79v-8.23c0-2.46-2.55-5.8-4.7-5.7z"/>
    </g>
    <rect width="204.93" height="55.37" x="650.88" y="875.59" fill="#fff" stroke="#303f9f" stroke-linecap="round" stroke-linejoin="round" stroke-width="1.32" ry="5.23"/>
  </g>
  <g fill="#303f9f" stroke-width=".26" font-size="15.88" font-weight="400" letter-spacing="0" word-spacing="0">
    <g font-family="Funhouse">
      <g aria-label="addition facts:" style="line-height:1.25;-inkscape-font-specification:'Funhouse, Normal';font-variant-ligatures:normal;font-variant-caps:normal;font-variant-numeric:normal;font-feature-settings:normal;text-align:start">
        <path d="M70.97 88.8l-.54 1.55-3.05-1.84 3.83-9 2.91-.2 4.58 9.32-3.62 1.72-.8-2.17zm2.66-3.4l-.87-2.8-1.03 3.1zM79.6 90.35l-.5-10.85q10.57 0 10.57 5.43 0 5.42-10.08 5.42zm2.75-7.97l.52 3.75q3.36.02 3.36-1.87 0-1.88-3.88-1.88zM90.57 90.35l-.5-10.85q10.58 0 10.58 5.43 0 5.42-10.08 5.42zm2.76-7.97l.52 3.75q3.36.02 3.36-1.87 0-1.88-3.88-1.88zM104.65 79.56l.79 10.46-4.39.83.2-11.01zM112.1 82.8l.38 6.6-4.2 1.1.72-7.9-3.17-.27.24-2.87 9.1-.54.33 4.24zM119.5 79.56l.79 10.46-4.39.83.2-11.01zM127 90.35q-2.63 0-4.48-1.58-1.84-1.6-1.84-3.84 0-2.25 1.84-3.84 1.85-1.59 4.47-1.59 2.62 0 4.46 1.6 1.85 1.58 1.85 3.83t-1.85 3.84q-1.84 1.58-4.46 1.58zm-.44-3.38q1.12 0 1.9-.69.8-.68.8-1.64 0-.96-.8-1.64-.78-.68-1.9-.68-1.12 0-1.92.68-.8.68-.8 1.64 0 .96.8 1.64.8.69 1.92.69zM137.58 84.93l.77 4.44-3.87.98-.78-10.17 3.88-.68 3.83 5.07.05-5.07 4.8-.5-1.7 11.35-3.08.45zM158.31 78.3l-.66 4.5-3.77-.2.15.78 3 .34-.41 3.22-2.07-.46.7 3.36-3.8.51-.85-10.17zM160.33 88.8l-.54 1.55-3.05-1.84 3.83-9 2.91-.2 4.58 9.32-3.62 1.72-.8-2.17zm2.65-3.4l-.86-2.8-1.03 3.1zM178.23 88.77q-1.84 1.58-4.43 1.58-2.6 0-4.44-1.58-1.83-1.6-1.83-3.84 0-2.25 1.83-3.84 1.84-1.59 4.44-1.59 2.6 0 4.43 1.6.92.79 1.39 1.76l-3.72.94q-.19-.5-.65-.9-.8-.68-1.9-.68-1.11 0-1.9.68-.8.68-.8 1.64 0 .96.8 1.64.79.69 1.9.69 1.1 0 1.9-.69.42-.37.63-.83L179.6 87q-.46.97-1.38 1.77zM186.3 82.8l.37 6.6-4.2 1.1.72-7.9-3.17-.27.25-2.87 9.1-.54.33 4.24zM192.9 86.07q-2.8-.4-2.48-3.48.33-3.09 7.2-3.65l.65 3.5q-3.4-.08-3.65.8-.25.89 2.6 1.02 2.86.13 2.8 3.47-.07 3.35-7.52 3.57l-1.37-3.67q3.81.41 4.2-.38.37-.8-2.43-1.18zM202 88.8q-.64 0-1.1-.45-.45-.45-.45-1.1 0-.64.45-1.09.46-.46 1.1-.46.65 0 1.1.46.46.45.46 1.1 0 .64-.46 1.1-.45.44-1.1.44zm-.02-4.51q-.56 0-.95-.4-.39-.39-.39-.95 0-.55.39-.93.4-.4.95-.4.55 0 .94.4.4.38.4.93 0 .56-.4.96-.39.39-.94.39z" style="-inkscape-font-specification:'Funhouse, Normal';font-variant-ligatures:normal;font-variant-caps:normal;font-variant-numeric:normal;font-feature-settings:normal;text-align:start"/>
      </g>
      <g aria-label="doubles plus" style="line-height:1.25;-inkscape-font-specification:'Funhouse, Normal';font-variant-ligatures:normal;font-variant-caps:normal;font-variant-numeric:normal;font-feature-settings:normal;text-align:start">
        <path d="M77.04 107.21l-.5-10.85q10.58 0 10.58 5.42 0 5.43-10.08 5.43zm2.76-7.98l.52 3.76q3.35.01 3.35-1.87 0-1.89-3.87-1.89zM93.84 107.21q-2.62 0-4.48-1.59-1.84-1.59-1.84-3.84 0-2.24 1.84-3.83 1.86-1.6 4.48-1.6 2.6 0 4.45 1.6 1.86 1.59 1.86 3.83 0 2.25-1.86 3.84-1.84 1.59-4.45 1.59zm-.44-3.39q1.12 0 1.91-.68.8-.68.8-1.64 0-.96-.8-1.65-.8-.68-1.9-.68-1.13 0-1.93.68-.79.69-.79 1.65t.79 1.64q.8.68 1.92.68z" style="-inkscape-font-specification:'Funhouse, Normal';font-variant-ligatures:normal;font-variant-caps:normal;font-variant-numeric:normal;font-feature-settings:normal;text-align:start"/>
        <path d="M101.5 96.9l4.13.8q-2.06 6.34.6 6.4 3.14-.01 1.82-6.55l3.78-1.2q1.73 10.77-5.6 10.86-7.42-.07-4.73-10.31z" style="-inkscape-font-specification:'Funhouse, Normal';font-variant-ligatures:normal;font-variant-caps:normal;font-variant-numeric:normal;font-feature-settings:normal;text-align:start"/>
        <path d="M115.79 100.16q2.4-.45 2.36-1.36-.05-.92-2.46-.29zm.37 4.6q3.51-.13 3.52-1.22.02-1.08-3.64-1.04zm-3.37 2.45l.29-10.04q5.54-2.25 7.62-.22 2.07 2.04-.53 4.11 3.95 1.22 2.55 3.98-1.4 2.75-9.93 2.17z" style="-inkscape-font-specification:'Funhouse, Normal';font-variant-ligatures:normal;font-variant-caps:normal;font-variant-numeric:normal;font-feature-settings:normal;text-align:start"/>
        <path d="M124.11 96.2l3.83.2-1.26 7.7 3.9-.6-.87 4.14-6.13-.43zM139.18 94.96l.2 4.11-4.82.52.06.94 3.16-.3.28 2.8-3.3.25.05.76 4.68-.36.7 3.53-9.23.32.94-11.19z" style="-inkscape-font-specification:'Funhouse, Normal';font-variant-ligatures:normal;font-variant-caps:normal;font-variant-numeric:normal;font-feature-settings:normal;text-align:start"/>
        <path d="M142.6 102.92q-2.8-.4-2.48-3.48.33-3.08 7.2-3.65l.65 3.5q-3.4-.07-3.66.81-.24.89 2.6 1.02 2.86.13 2.8 3.47-.06 3.34-7.51 3.57l-1.37-3.67q3.81.41 4.19-.38.38-.8-2.43-1.19zM158.27 104.09l.63 2.31-4.04.81-.77-10.38q10.32-1.67 10.84 3.4 0 3.88-6.66 3.86zm-1.06-4.6l.44 1.52q4.18 0 3.93-1.1-.24-1.1-4.37-.41zM165.85 96.2l3.82.2-1.26 7.7 3.9-.6-.87 4.14-6.13-.43z" style="-inkscape-font-specification:'Funhouse, Normal';font-variant-ligatures:normal;font-variant-caps:normal;font-variant-numeric:normal;font-feature-settings:normal;text-align:start"/>
        <path d="M173.44 96.9l4.13.8q-2.06 6.34.59 6.4 3.14-.01 1.82-6.55l3.78-1.2q1.74 10.77-5.6 10.86-7.42-.07-4.72-10.31z" style="-inkscape-font-specification:'Funhouse, Normal';font-variant-ligatures:normal;font-variant-caps:normal;font-variant-numeric:normal;font-feature-settings:normal;text-align:start"/>
        <path d="M187.27 102.92q-2.8-.4-2.47-3.48.33-3.08 7.2-3.65l.64 3.5q-3.4-.07-3.65.81-.24.89 2.6 1.02 2.86.13 2.8 3.47-.06 3.34-7.51 3.57l-1.37-3.67q3.8.41 4.19-.38.38-.8-2.43-1.19z" style="-inkscape-font-specification:'Funhouse, Normal';font-variant-ligatures:normal;font-variant-caps:normal;font-variant-numeric:normal;font-feature-settings:normal;text-align:start"/>
      </g>
    </g>
    <g aria-label="50, 500 5000" font-family="Funhouse" style="line-height:1.25;-inkscape-font-specification:'Funhouse, Normal';font-variant-ligatures:normal;font-variant-caps:normal;font-variant-numeric:normal;font-feature-settings:normal;text-align:start">
      <path d="M77.03 117.4q2.8.38 2.48 3.46-.33 3.09-7.2 3.65l-.65-3.5q3.4.08 3.65-.8.25-.89-2.6-1.02t-2.73-6.81l9.74-1.01-.92 4.45-4.08-.3q-.5 1.48 2.3 1.87zM86.53 123.57q-2.62 0-4.47-1.59-1.85-1.59-1.85-3.84t1.85-3.83q1.85-1.6 4.47-1.6 2.61 0 4.46 1.6 1.85 1.58 1.85 3.83t-1.85 3.84q-1.85 1.59-4.46 1.59zm-.43-3.39q1.11 0 1.9-.68.8-.68.8-1.64 0-.97-.8-1.65-.79-.68-1.9-.68-1.13 0-1.93.68-.79.68-.79 1.65 0 .96.8 1.64.8.68 1.92.68zM95.41 120.98l.04 4.64-3.95.27 1.42-5.15zM106.95 117.4q2.8.38 2.48 3.46-.33 3.09-7.2 3.65l-.65-3.5q3.4.08 3.65-.8.25-.89-2.6-1.02t-2.73-6.81l9.75-1.01-.93 4.45-4.08-.3q-.5 1.48 2.3 1.87zM116.45 123.57q-2.62 0-4.47-1.59-1.85-1.59-1.85-3.84t1.85-3.83q1.85-1.6 4.47-1.6 2.61 0 4.46 1.6 1.85 1.58 1.85 3.83t-1.85 3.84q-1.85 1.59-4.46 1.59zm-.43-3.39q1.11 0 1.9-.68.8-.68.8-1.64 0-.97-.8-1.65-.79-.68-1.9-.68-1.13 0-1.93.68-.79.68-.79 1.65 0 .96.8 1.64.8.68 1.92.68zM129.47 123.57q-2.62 0-4.47-1.59-1.84-1.59-1.84-3.84t1.84-3.83q1.85-1.6 4.47-1.6 2.62 0 4.46 1.6 1.85 1.58 1.85 3.83t-1.85 3.84q-1.84 1.59-4.46 1.59zm-.43-3.39q1.12 0 1.9-.68.8-.68.8-1.64 0-.97-.8-1.65-.78-.68-1.9-.68-1.12 0-1.92.68-.8.68-.8 1.65 0 .96.8 1.64.8.68 1.92.68zM159.1 117.4q2.8.38 2.48 3.46-.33 3.09-7.2 3.65l-.64-3.5q3.4.08 3.65-.8.24-.89-2.6-1.02-2.86-.13-2.74-6.81l9.75-1.01-.93 4.45-4.08-.3q-.49 1.48 2.31 1.87zM168.6 123.57q-2.62 0-4.47-1.59-1.84-1.59-1.84-3.84t1.84-3.83q1.85-1.6 4.47-1.6 2.62 0 4.46 1.6 1.85 1.58 1.85 3.83t-1.85 3.84q-1.84 1.59-4.46 1.59zm-.43-3.39q1.12 0 1.9-.68.8-.68.8-1.64 0-.97-.8-1.65-.78-.68-1.9-.68-1.13 0-1.92.68-.8.68-.8 1.65 0 .96.8 1.64.8.68 1.92.68zM181.63 123.57q-2.62 0-4.48-1.59-1.84-1.59-1.84-3.84t1.84-3.83q1.86-1.6 4.48-1.6 2.6 0 4.45 1.6 1.86 1.58 1.86 3.83t-1.86 3.84q-1.84 1.59-4.45 1.59zm-.44-3.39q1.12 0 1.9-.68.8-.68.8-1.64 0-.97-.8-1.65-.78-.68-1.9-.68-1.12 0-1.92.68-.8.68-.8 1.65 0 .96.8 1.64.8.68 1.92.68zM194.65 123.57q-2.62 0-4.47-1.59-1.85-1.59-1.85-3.84t1.85-3.83q1.85-1.6 4.47-1.6 2.61 0 4.45 1.6 1.86 1.58 1.86 3.83t-1.86 3.84q-1.84 1.59-4.45 1.59zm-.44-3.39q1.12 0 1.91-.68.8-.68.8-1.64 0-.97-.8-1.65-.79-.68-1.9-.68-1.13 0-1.93.68-.79.68-.79 1.65 0 .96.8 1.64.79.68 1.91.68z" style="-inkscape-font-specification:'Funhouse, Normal';font-variant-ligatures:normal;font-variant-caps:normal;font-variant-numeric:normal;font-feature-settings:normal;text-align:start"/>
    </g>
    <g style="line-height:1.25;-inkscape-font-specification:'SC Gum Kids, Normal';font-variant-ligatures:normal;font-variant-caps:normal;font-variant-numeric:normal;font-feature-settings:normal;text-align:start">
      <path d="M143.56 114.95q-.3 0-.46.14v.01q-.02.04-.02.11-.01.26.15.68.1.24.25.54.29-.24.48-.47.34-.4.34-.63l-.01-.08-.12-.11q-.23-.2-.6-.2zm-1.23 5.22q-.2.32-.2.66 0 .56.45 1.01.48.47 1.12.47.52 0 1.02-.35-1.1-1.2-1.91-2.28-.3.23-.48.5zm1.37 4.48q-1.6 0-2.76-1.14-1.15-1.14-1.16-2.68 0-1.04.6-1.94.43-.65 1.13-1.17-.26-.47-.43-.91-.34-.87-.34-1.6 0-.54.18-1 .22-.52.64-.89.83-.71 2-.71.83 0 1.55.36.81.42 1.22 1.15.31.56.31 1.2 0 1.12-.9 2.16-.4.48-.97.92.38.49.82 1l.57.67q.41-.85.7-1.95l2.26.6q-.5 1.86-1.26 3.14.51.52.92.91l.07.05-1.59 1.73-.25-.24-.66-.65q-1.23 1-2.64 1z" aria-label="&amp;" font-family="SC Gum Kids" style="-inkscape-font-specification:'SC Gum Kids, Normal';font-variant-ligatures:normal;font-variant-caps:normal;font-variant-numeric:normal;font-feature-settings:normal;text-align:start"/>
    </g>
  </g>
  <g>
    <g fill="#fff" stroke="#303f9f" stroke-width="1.03" font-family="Funhouse" font-size="28.22" font-weight="400" letter-spacing="0" word-spacing="0">
      <path d="M22.86 20.8q-4.82.67-3.98 3.22l7.04-.52 1.6 7.67-16.8-1.74q-.22-11.52 4.7-11.75 4.92-.22 4.49-1.75-.43-1.52-6.3-1.39l1.13-6.04q11.84.98 12.4 6.3.56 5.32-4.28 6zM39.25 29.54q-4.52 0-7.71-2.74-3.18-2.74-3.18-6.62 0-3.87 3.18-6.61 3.2-2.74 7.71-2.74 4.5 0 7.69 2.74 3.2 2.74 3.2 6.61 0 3.88-3.2 6.62-3.18 2.74-7.69 2.74zm-.75-5.84q1.93 0 3.3-1.18 1.37-1.17 1.37-2.83 0-1.66-1.38-2.84-1.36-1.17-3.29-1.17t-3.31 1.17q-1.37 1.18-1.37 2.84t1.37 2.83q1.38 1.18 3.31 1.18zM61.71 29.54q-4.52 0-7.71-2.74-3.18-2.74-3.18-6.62 0-3.87 3.18-6.61 3.2-2.74 7.71-2.74 4.5 0 7.69 2.74 3.2 2.74 3.2 6.61 0 3.88-3.2 6.62-3.18 2.74-7.69 2.74zm-.75-5.84q1.93 0 3.29-1.18 1.38-1.17 1.38-2.83 0-1.66-1.38-2.84-1.36-1.17-3.29-1.17-1.94 0-3.31 1.17-1.37 1.18-1.37 2.84t1.37 2.83q1.37 1.18 3.31 1.18z" style="line-height:1.25;-inkscape-font-specification:'Funhouse, Normal';font-variant-ligatures:normal;font-variant-caps:normal;font-variant-numeric:normal;font-feature-settings:normal;text-align:start"/>
    </g>
    <g fill="#fff" stroke="#303f9f" stroke-width="1.03" font-family="Funhouse" font-size="28.22" font-weight="400" letter-spacing="0" word-spacing="0">
      <path d="M193.37 21.57q4.83.67 4.27 5.99-.56 5.32-12.4 6.3l-1.13-6.05q5.87.14 6.3-1.39.43-1.52-4.5-1.75-4.91-.23-4.7-11.75l16.8-1.74-1.58 7.68-7.05-.53q-.84 2.56 3.99 3.24zM209.75 32.22q-4.51 0-7.7-2.74-3.2-2.74-3.2-6.61 0-3.88 3.2-6.62 3.19-2.74 7.7-2.74 4.5 0 7.7 2.74 3.19 2.74 3.19 6.62 0 3.87-3.2 6.61-3.18 2.74-7.69 2.74zm-.74-5.84q1.92 0 3.28-1.17 1.38-1.18 1.38-2.84t-1.38-2.83q-1.36-1.18-3.28-1.18-1.94 0-3.32 1.18-1.36 1.17-1.36 2.83 0 1.66 1.36 2.84 1.38 1.17 3.32 1.17zM232.21 32.22q-4.52 0-7.71-2.74-3.18-2.74-3.18-6.61 0-3.88 3.18-6.62 3.2-2.74 7.71-2.74 4.5 0 7.69 2.74 3.2 2.74 3.2 6.62 0 3.87-3.2 6.61-3.18 2.74-7.69 2.74zm-.75-5.84q1.93 0 3.3-1.17 1.37-1.18 1.37-2.84t-1.38-2.83q-1.36-1.18-3.29-1.18t-3.31 1.18q-1.36 1.17-1.36 2.83 0 1.66 1.36 2.84 1.38 1.17 3.31 1.17z" style="line-height:1.25;-inkscape-font-specification:'Funhouse, Normal';font-variant-ligatures:normal;font-variant-caps:normal;font-variant-numeric:normal;font-feature-settings:normal;text-align:start"/>
    </g>
    <g fill="#00c853">
      <path d="M84.27 12.74c1.74 0 3.14 1.4 3.14 3.13v12.54a3.13 3.13 0 1 1-6.27 0V15.87c0-1.73 1.4-3.13 3.13-3.13z"/>
      <path d="M93.68 22.14c0 1.74-1.4 3.14-3.14 3.14H78a3.13 3.13 0 1 1 0-6.27h12.54c1.74 0 3.14 1.4 3.14 3.13z"/>
    </g>
    <path fill="#c7ffde" d="M87.03 20.96c0 .45.36.8.8.8h3.03a.8.8 0 1 0 0-1.6h-3.02a.8.8 0 0 0-.81.8z"/>
    <path fill="#e91e63" d="M260.74 17.66a3.2 3.2 0 0 1-3.2 3.2h-8.97a3.2 3.2 0 1 1 0-6.4h8.97a3.2 3.2 0 0 1 3.2 3.2zM260.74 26.63a3.2 3.2 0 0 1-3.2 3.2h-8.97a3.2 3.2 0 1 1 0-6.4h8.97a3.2 3.2 0 0 1 3.2 3.2z"/>
    <path fill="#facedd" d="M258.7 16.41c0 .5-.4.9-.9.9h-3.39a.9.9 0 1 1 0-1.8h3.39c.5 0 .9.4.9.9zM258.7 25.4c0 .5-.4.9-.9.9h-3.39a.9.9 0 1 1 0-1.81h3.39c.5 0 .9.4.9.9z"/>
    <g fill="#fff" stroke="#303f9f" stroke-width="1.03" font-family="Funhouse" font-size="28.22" font-weight="400" letter-spacing="0" word-spacing="0">
      <path d="M108.11 20.8q-4.82.67-3.98 3.22l7.05-.52 1.59 7.67-16.8-1.74q-.22-11.52 4.7-11.75 4.92-.22 4.49-1.75-.43-1.52-6.3-1.39L100 8.5q11.84.98 12.4 6.3.56 5.32-4.28 6zM124.5 29.54q-4.52 0-7.71-2.74-3.18-2.74-3.18-6.62 0-3.87 3.18-6.61 3.2-2.74 7.71-2.74 4.5 0 7.69 2.74 3.2 2.74 3.2 6.61 0 3.88-3.2 6.62-3.18 2.74-7.69 2.74zm-.75-5.84q1.93 0 3.3-1.18 1.37-1.17 1.37-2.83 0-1.66-1.38-2.84-1.36-1.17-3.29-1.17t-3.31 1.17q-1.36 1.18-1.36 2.84t1.36 2.83q1.38 1.18 3.31 1.18zM146.96 29.54q-4.52 0-7.71-2.74-3.18-2.74-3.18-6.62 0-3.87 3.18-6.61 3.2-2.74 7.71-2.74 4.5 0 7.69 2.74 3.2 2.74 3.2 6.61 0 3.88-3.2 6.62-3.18 2.74-7.69 2.74zm-.75-5.84q1.93 0 3.3-1.18 1.37-1.17 1.37-2.83 0-1.66-1.38-2.84-1.36-1.17-3.29-1.17-1.94 0-3.31 1.17-1.37 1.18-1.37 2.84t1.37 2.83q1.37 1.18 3.31 1.18z" style="line-height:1.25;-inkscape-font-specification:'Funhouse, Normal';font-variant-ligatures:normal;font-variant-caps:normal;font-variant-numeric:normal;font-feature-settings:normal;text-align:start"/>
    </g>
    <g>
      <g fill="#00c853">
        <path d="M169.52 12.74c1.74 0 3.14 1.4 3.14 3.13v12.54a3.13 3.13 0 1 1-6.27 0V15.87c0-1.73 1.4-3.13 3.13-3.13z"/>
        <path d="M178.93 22.14c0 1.74-1.4 3.14-3.14 3.14h-12.54a3.13 3.13 0 1 1 0-6.27h12.54c1.74 0 3.14 1.4 3.14 3.13z"/>
      </g>
      <path fill="#c7ffde" d="M172.28 20.96c0 .45.36.8.8.8h3.03a.8.8 0 1 0 0-1.6h-3.02a.8.8 0 0 0-.8.8z"/>
    </g>
    <g>
      <g fill="#00c853">
        <path d="M91.9 37.2c1.73 0 3.13 1.4 3.13 3.14v12.54a3.13 3.13 0 1 1-6.27 0V40.34c0-1.74 1.4-3.14 3.13-3.14z"/>
        <path d="M101.3 46.6c0 1.75-1.4 3.14-3.14 3.14H85.62a3.13 3.13 0 1 1 0-6.27h12.54c1.74 0 3.14 1.4 3.14 3.14z"/>
      </g>
      <path fill="#c7ffde" d="M94.65 45.43c0 .44.36.8.8.8h3.03a.8.8 0 1 0 0-1.61h-3.02a.8.8 0 0 0-.8.8z"/>
      <path fill="#e91e63" d="M233.9 44.6a3.2 3.2 0 0 1-3.2 3.2h-8.97a3.2 3.2 0 1 1 0-6.4h8.97a3.2 3.2 0 0 1 3.2 3.2zM233.9 53.57a3.2 3.2 0 0 1-3.2 3.2h-8.97a3.2 3.2 0 1 1 0-6.4h8.97a3.2 3.2 0 0 1 3.2 3.2z"/>
      <path fill="#facedd" d="M231.85 43.35c0 .5-.4.9-.9.9h-3.38a.9.9 0 1 1 0-1.8h3.38c.5 0 .9.4.9.9zM231.85 52.33c0 .5-.4.9-.9.9h-3.38a.9.9 0 1 1 0-1.8h3.38c.5 0 .9.4.9.9z"/>
      <g fill="#fff" stroke="#303f9f" stroke-width="1.03" font-family="Funhouse" font-size="28.22" font-weight="400" letter-spacing="0" word-spacing="0">
        <path d="M44.97 56.72q-10.38-.12-6.24-18.26l7.67 1.35-2.43 4.82q10.63-2.2 11.02 5 .38 7.2-10.02 7.09zm.86-5.24q2.37 0 2.37-1.6 0-1.61-2.37-1.61-2.35 0-2.35 1.6t2.35 1.6zM66.92 56.82q-4.51 0-7.7-2.74-3.19-2.74-3.19-6.61 0-3.88 3.18-6.62 3.2-2.74 7.71-2.74t7.7 2.74q3.19 2.74 3.19 6.62 0 3.87-3.2 6.61-3.18 2.74-7.69 2.74zm-.74-5.84q1.92 0 3.28-1.17 1.38-1.18 1.38-2.84t-1.38-2.83q-1.36-1.18-3.28-1.18-1.94 0-3.32 1.18-1.36 1.17-1.36 2.83 0 1.66 1.36 2.84 1.38 1.17 3.32 1.17z" style="line-height:1.25;-inkscape-font-specification:'Funhouse, Normal';font-variant-ligatures:normal;font-variant-caps:normal;font-variant-numeric:normal;font-feature-settings:normal;text-align:start"/>
      </g>
      <g fill="#fff" stroke="#303f9f" stroke-width="1.03" font-family="Funhouse" font-size="28.22" font-weight="400" letter-spacing="0" word-spacing="0">
        <path d="M186.58 46.03q4.83.67 4.27 6-.56 5.31-12.4 6.29l-1.13-6.04q5.87.13 6.3-1.4.43-1.52-4.5-1.74-4.91-.23-4.7-11.75l16.8-1.74-1.58 7.67-7.05-.52q-.84 2.55 3.99 3.23zM202.96 56.69q-4.51 0-7.7-2.74-3.2-2.74-3.2-6.62t3.2-6.62q3.19-2.74 7.7-2.74 4.5 0 7.7 2.74 3.19 2.74 3.19 6.62t-3.2 6.62q-3.18 2.74-7.69 2.74zm-.74-5.84q1.92 0 3.28-1.18 1.38-1.18 1.38-2.83 0-1.66-1.38-2.84-1.36-1.17-3.28-1.17-1.94 0-3.32 1.17-1.36 1.18-1.36 2.84 0 1.65 1.36 2.83 1.38 1.18 3.32 1.18z" style="line-height:1.25;-inkscape-font-specification:'Funhouse, Normal';font-variant-ligatures:normal;font-variant-caps:normal;font-variant-numeric:normal;font-feature-settings:normal;text-align:start"/>
      </g>
      <g>
        <g fill="#00c853">
          <path d="M160.33 37.2c1.73 0 3.13 1.4 3.13 3.14v12.54a3.13 3.13 0 1 1-6.27 0V40.34c0-1.74 1.4-3.14 3.14-3.14z"/>
          <path d="M169.73 46.6c0 1.75-1.4 3.14-3.13 3.14h-12.54a3.13 3.13 0 1 1 0-6.27h12.54c1.73 0 3.13 1.4 3.13 3.14z"/>
        </g>
        <path fill="#c7ffde" d="M163.09 45.43c0 .44.36.8.8.8h3.02a.8.8 0 1 0 0-1.61h-3.02a.8.8 0 0 0-.8.8z"/>
      </g>
      <g fill="#fff" stroke="#303f9f" stroke-width="1.03" font-family="Funhouse" font-size="28.22" font-weight="400" letter-spacing="0" word-spacing="0">
        <path d="M113.4 56.72q-10.38-.12-6.23-18.26l7.67 1.35-2.43 4.82q10.62-2.2 11.01 5 .39 7.2-10.01 7.09zm.86-5.24q2.37 0 2.37-1.6 0-1.61-2.37-1.61-2.35 0-2.35 1.6t2.35 1.6zM135.36 56.82q-4.52 0-7.71-2.74-3.19-2.74-3.19-6.61 0-3.88 3.19-6.62 3.2-2.74 7.71-2.74 4.5 0 7.69 2.74 3.2 2.74 3.2 6.62 0 3.87-3.2 6.61-3.19 2.74-7.69 2.74zm-.75-5.84q1.93 0 3.29-1.17 1.38-1.18 1.38-2.84t-1.38-2.83q-1.36-1.18-3.29-1.18-1.94 0-3.31 1.18-1.37 1.17-1.37 2.83 0 1.66 1.37 2.84 1.37 1.17 3.31 1.17z" style="line-height:1.25;-inkscape-font-specification:'Funhouse, Normal';font-variant-ligatures:normal;font-variant-caps:normal;font-variant-numeric:normal;font-feature-settings:normal;text-align:start"/>
      </g>
    </g>
  </g>
</svg>
