<svg xmlns="http://www.w3.org/2000/svg" viewBox="0 0 270.93 135.47">
  <g fill="#fff" stroke="#303f9f" stroke-width="1.03" font-family="Funhouse" font-size="28.22" font-weight="400" letter-spacing="0" word-spacing="0">
    <path d="M79.26 36.22l-6.82 13.3 7.64 1-1.09 6.41 7.9-.97-.22-4.54 2.9.31 1.08-5.85-4.14-.11v-9.9zm-.74 9l1.54-3.65 1.6.16-.66 3.72zM102.21 56.42q-4.52 0-7.71-2.74-3.18-2.74-3.18-6.61 0-3.88 3.18-6.62 3.2-2.74 7.71-2.74 4.5 0 7.69 2.74 3.2 2.74 3.2 6.62 0 3.87-3.2 6.61-3.18 2.74-7.69 2.74zm-.75-5.84q1.93 0 3.3-1.18 1.37-1.17 1.37-2.83 0-1.66-1.38-2.83-1.36-1.18-3.29-1.18t-3.31 1.18q-1.36 1.17-1.36 2.83 0 1.66 1.36 2.83 1.38 1.18 3.31 1.18z" style="line-height:1.25;-inkscape-font-specification:'Funhouse, Normal';font-variant-ligatures:normal;font-variant-caps:normal;font-variant-numeric:normal;font-feature-settings:normal;text-align:start"/>
  </g>
  <g fill="#fff" stroke="#303f9f" stroke-width="1.03" font-family="Funhouse" font-size="28.22" font-weight="400" letter-spacing="0" word-spacing="0">
    <path d="M152.4 46.09q4.26.42 3.46 4.89-.8 4.46-13.13 5.59l-1.12-6.67q8.11.2 8.11-1.06 0-1.27-3.2-.72l-.88-4.67q4.08-.04 4.04-1.61-.04-1.58-7.22.16l.78-5.63q11.48-.76 12.44 3.69.98 4.44-3.29 6.03zM168.22 55.44q-4.52 0-7.71-2.74-3.18-2.74-3.18-6.61 0-3.88 3.18-6.62 3.2-2.74 7.71-2.74 4.5 0 7.69 2.74 3.2 2.74 3.2 6.62 0 3.87-3.2 6.61-3.18 2.74-7.69 2.74zm-.75-5.84q1.93 0 3.3-1.17 1.37-1.18 1.37-2.84t-1.38-2.83q-1.36-1.18-3.29-1.18-1.94 0-3.31 1.18-1.37 1.17-1.37 2.83 0 1.66 1.37 2.84 1.37 1.17 3.31 1.17z" style="line-height:1.25;-inkscape-font-specification:'Funhouse, Normal';font-variant-ligatures:normal;font-variant-caps:normal;font-variant-numeric:normal;font-feature-settings:normal;text-align:start"/>
  </g>
  <g fill="#00c853">
    <path d="M127.3 37.03c1.74 0 3.14 1.4 3.14 3.13V52.7a3.13 3.13 0 1 1-6.27 0V40.16c0-1.74 1.4-3.13 3.13-3.13z"/>
    <path d="M136.7 46.43c0 1.74-1.4 3.14-3.13 3.14h-12.54a3.13 3.13 0 1 1 0-6.27h12.54c1.74 0 3.14 1.4 3.14 3.13z"/>
  </g>
  <path fill="#c7ffde" d="M130.06 45.25c0 .44.36.8.8.8h3.03a.8.8 0 1 0 0-1.6h-3.02a.8.8 0 0 0-.81.8z"/>
  <g transform="rotate(90 -299.2 -276.38)">
    <rect width="6.41" height="15.37" x="15.92" y="-774.87" fill="#e91e63" ry="3.2"/>
    <rect width="6.41" height="15.37" x="24.89" y="-774.87" fill="#e91e63" ry="3.2"/>
    <rect width="1.8" height="5.19" x="16.97" y="-772.82" fill="#facedd" ry=".9"/>
    <rect width="1.8" height="5.19" x="25.96" y="-772.82" fill="#facedd" ry=".9"/>
  </g>
  <g>
    <g fill="#fff" stroke="#303f9f" stroke-width="1.03" font-family="Funhouse" font-size="28.22" font-weight="400" letter-spacing="0" word-spacing="0">
      <path d="M58.74 26.9q-10.39-.12-6.24-18.26L60.17 10l-2.43 4.83q10.62-2.2 11.01 5 .39 7.2-10.01 7.08zm.85-5.24q2.37 0 2.37-1.6t-2.37-1.6q-2.35 0-2.35 1.6t2.35 1.6zM80.69 27.01q-4.52 0-7.71-2.74-3.19-2.74-3.19-6.62 0-3.87 3.19-6.61t7.7-2.74q4.51 0 7.7 2.74 3.19 2.74 3.19 6.61 0 3.88-3.2 6.62-3.18 2.74-7.68 2.74zm-.75-5.84q1.93 0 3.29-1.18 1.38-1.17 1.38-2.83 0-1.66-1.38-2.84-1.36-1.17-3.29-1.17-1.94 0-3.32 1.17-1.36 1.18-1.36 2.84t1.36 2.83q1.38 1.18 3.32 1.18zM103.15 27.01q-4.52 0-7.72-2.74-3.18-2.74-3.18-6.62 0-3.87 3.18-6.61 3.2-2.74 7.72-2.74 4.5 0 7.68 2.74 3.2 2.74 3.2 6.61 0 3.88-3.2 6.62-3.18 2.74-7.68 2.74zm-.75-5.84q1.92 0 3.29-1.18 1.37-1.17 1.37-2.83 0-1.66-1.37-2.84-1.37-1.17-3.3-1.17-1.93 0-3.3 1.17-1.37 1.18-1.37 2.84t1.36 2.83q1.38 1.18 3.32 1.18z" style="line-height:1.25;-inkscape-font-specification:'Funhouse, Normal';font-variant-ligatures:normal;font-variant-caps:normal;font-variant-numeric:normal;font-feature-settings:normal;text-align:start"/>
    </g>
    <g fill="#fff" stroke="#303f9f" stroke-width="1.03" font-family="Funhouse" font-size="28.22" font-weight="400" letter-spacing="0" word-spacing="0">
      <path d="M151.69 16.72q4.84.67 4.28 5.99-.56 5.32-12.4 6.3l-1.13-6.05q5.87.14 6.3-1.39.42-1.52-4.5-1.75-4.92-.23-4.7-11.75l16.8-1.74-1.59 7.68-7.04-.52q-.85 2.55 3.98 3.23zM168.08 27.38q-4.52 0-7.71-2.75-3.19-2.74-3.19-6.61 0-3.88 3.19-6.62t7.7-2.74q4.51 0 7.7 2.74 3.19 2.74 3.19 6.62 0 3.87-3.2 6.61-3.18 2.75-7.68 2.75zm-.75-5.85q1.93 0 3.29-1.17 1.38-1.18 1.38-2.84 0-1.65-1.38-2.83-1.36-1.18-3.29-1.18-1.94 0-3.32 1.18-1.36 1.18-1.36 2.83 0 1.66 1.36 2.84 1.38 1.17 3.32 1.17zM190.54 27.38q-4.52 0-7.72-2.75-3.18-2.74-3.18-6.61 0-3.88 3.18-6.62 3.2-2.74 7.72-2.74 4.5 0 7.68 2.74 3.2 2.74 3.2 6.62 0 3.87-3.2 6.61-3.18 2.75-7.68 2.75zm-.75-5.85q1.92 0 3.29-1.17 1.37-1.18 1.37-2.84 0-1.65-1.37-2.83-1.37-1.18-3.3-1.18-1.93 0-3.3 1.18-1.37 1.18-1.37 2.83 0 1.66 1.36 2.84 1.38 1.17 3.32 1.17z" style="line-height:1.25;-inkscape-font-specification:'Funhouse, Normal';font-variant-ligatures:normal;font-variant-caps:normal;font-variant-numeric:normal;font-feature-settings:normal;text-align:start"/>
    </g>
    <path fill="#e91e63" d="M220.14 13.17a3.2 3.2 0 0 1-3.2 3.2h-8.97a3.2 3.2 0 1 1 0-6.4h8.96a3.2 3.2 0 0 1 3.2 3.2zM220.14 22.14a3.2 3.2 0 0 1-3.2 3.2h-8.97a3.2 3.2 0 1 1 0-6.4h8.96a3.2 3.2 0 0 1 3.2 3.2z"/>
    <path fill="#facedd" d="M218.1 11.92c0 .5-.41.9-.91.9h-3.38a.9.9 0 1 1 0-1.8h3.38c.5 0 .9.4.9.9zM218.1 20.9c0 .5-.41.9-.91.9h-3.38a.9.9 0 1 1 0-1.8h3.38c.5 0 .9.4.9.9z"/>
    <g>
      <g fill="#00c853">
        <path d="M126.78 8.25c1.74 0 3.13 1.4 3.13 3.13v12.54a3.13 3.13 0 1 1-6.27 0V11.38c0-1.73 1.4-3.13 3.14-3.13z"/>
        <path d="M136.18 17.65c0 1.74-1.4 3.14-3.13 3.14H120.5a3.13 3.13 0 1 1 0-6.27h12.54c1.74 0 3.13 1.4 3.13 3.13z"/>
      </g>
      <path fill="#c7ffde" d="M129.54 16.47c0 .45.36.8.8.8h3.03a.8.8 0 1 0 0-1.6h-3.03a.8.8 0 0 0-.8.8z"/>
    </g>
  </g>
  <g>
    <path fill="#fff" stroke="#303f9f" stroke-linecap="round" stroke-linejoin="round" stroke-width="1.32" d="M216.2 60.58a5.18 5.18 0 0 0-5.14 5.25v8.59h21.6c2.9 0 5.23 2.33 5.23 5.22v36.52h26.8a5.18 5.18 0 0 0 5.15-5.25l-9.92-22.54 9.92-22.54c1.16-2.65-2.3-5.25-5.15-5.25z"/>
    <path fill="#303f9f" d="M215.78 60.48c-2.15-.1-4.69 3.24-4.69 5.7v8.24h23.78c-.5-.4-1.06-.87-1.68-1.44-3.48-3.15-16.28-12.06-16.28-12.06a1.92 1.92 0 0 0-1.13-.44z"/>
    <g>
      <path fill="#fff" stroke="#303f9f" stroke-linecap="round" stroke-linejoin="round" stroke-width="1.32" d="M6.24 60.58c-2.85 0-6.3 2.6-5.14 5.25L11 88.37 1.1 110.91c0 2.9 2.3 5.25 5.14 5.25h26.72V79.64c0-2.9 2.33-5.22 5.23-5.22h21.68v-8.6c0-2.9-2.3-5.24-5.15-5.24z"/>
      <path fill="#303f9f" d="M55.15 60.48c-.4.02-.78.15-1.13.44 0 0-12.8 8.91-16.27 12.06-.63.57-1.19 1.03-1.7 1.44h23.79v-8.23c0-2.47-2.54-5.81-4.69-5.71z"/>
    </g>
    <g transform="translate(-1170.5 -164.28)">
      <rect width="204.93" height="55.37" x="1203.46" y="238.7" fill="#fff" stroke="#303f9f" stroke-linecap="round" stroke-linejoin="round" stroke-width="1.32" ry="5.23"/>
      <g fill="#303f9f" stroke-width=".26" font-family="Funhouse" font-size="19.4" font-weight="400" letter-spacing="0" word-spacing="0">
        <g aria-label="addition facts:" style="line-height:1.25;-inkscape-font-specification:'Funhouse, Normal';font-variant-ligatures:normal;font-variant-caps:normal;font-variant-numeric:normal;font-feature-settings:normal;text-align:start">
          <path d="M1227.14 260.78l-.67 1.9-3.73-2.26 4.68-11.01 3.56-.25 5.6 11.4-4.42 2.11-.98-2.66zm3.24-4.15l-1.06-3.43-1.25 3.79zM1237.67 262.67l-.6-13.26q12.92 0 12.92 6.63t-12.32 6.63zm3.38-9.75l.63 4.59q4.1.02 4.1-2.28t-4.73-2.3zM1251.09 262.67l-.6-13.26q12.91 0 12.91 6.63t-12.31 6.63zm3.37-9.75l.64 4.59q4.1.02 4.1-2.28t-4.74-2.3zM1268.3 249.48l.96 12.78-5.36 1.02.24-13.46zM1277.4 253.44l.46 8.08-5.13 1.32.88-9.64-3.88-.33.3-3.5 11.12-.67.4 5.18zM1286.45 249.48l.96 12.78-5.36 1.02.25-13.46zM1295.6 262.67q-3.2 0-5.46-1.94-2.25-1.94-2.25-4.69 0-2.75 2.25-4.69 2.26-1.94 5.47-1.94 3.19 0 5.44 1.94 2.27 1.94 2.27 4.69 0 2.75-2.27 4.69-2.25 1.94-5.44 1.94zm-.52-4.14q1.36 0 2.33-.83.97-.84.97-2.01t-.97-2q-.97-.84-2.33-.84-1.38 0-2.35.83-.97.84-.97 2.01t.97 2q.97.84 2.35.84zM1308.55 256.04l.94 5.43-4.73 1.2-.96-12.44 4.75-.82 4.68 6.2.06-6.2 5.87-.6-2.09 13.86-3.76.55zM1333.88 247.95l-.8 5.5-4.62-.25.2.95 3.66.41-.5 3.94-2.53-.56.85 4.1-4.64.63-1.05-12.44zM1336.35 260.78l-.66 1.9-3.73-2.26 4.68-11.01 3.56-.25 5.6 11.4-4.42 2.11-.98-2.66zm3.24-4.15l-1.06-3.43-1.25 3.79zM1358.23 260.73q-2.25 1.94-5.42 1.94t-5.42-1.94q-2.24-1.94-2.24-4.69 0-2.75 2.24-4.69 2.25-1.94 5.42-1.94t5.42 1.94q1.13.98 1.7 2.16l-4.55 1.15q-.23-.6-.8-1.1-.96-.84-2.32-.84-1.35 0-2.32.84-.97.83-.97 2 0 1.18.97 2.02.97.83 2.32.83 1.36 0 2.32-.83.52-.46.77-1.03l4.57 2.02q-.56 1.18-1.69 2.16zM1368.08 253.44l.47 8.08-5.14 1.32.88-9.64-3.87-.33.3-3.5 11.11-.67.41 5.18zM1376.15 257.43q-3.42-.48-3.02-4.25.4-3.77 8.8-4.46l.79 4.28q-4.16-.1-4.46.98-.3 1.08 3.18 1.25 3.49.16 3.41 4.24-.07 4.08-9.18 4.36l-1.68-4.48q4.67.5 5.13-.47.46-.97-2.97-1.45zM1387.29 260.78q-.79 0-1.35-.55-.55-.56-.55-1.35 0-.78.55-1.33.56-.56 1.35-.56.78 0 1.33.56.56.55.56 1.33 0 .79-.56 1.35-.55.55-1.33.55zm-.03-5.53q-.68 0-1.17-.47-.47-.48-.47-1.16 0-.68.47-1.15.49-.48 1.17-.48.67 0 1.14.48.49.47.49 1.15 0 .68-.49 1.16-.47.47-1.14.47z" style="-inkscape-font-specification:'Funhouse, Normal';font-variant-ligatures:normal;font-variant-caps:normal;font-variant-numeric:normal;font-feature-settings:normal;text-align:start"/>
        </g>
        <g aria-label="near doubles" style="line-height:1.25;-inkscape-font-specification:'Funhouse, Normal';font-variant-ligatures:normal;font-variant-caps:normal;font-variant-numeric:normal;font-feature-settings:normal;text-align:start">
          <path d="M1235.75 276.47l.94 5.43-4.73 1.2-.95-12.44 4.74-.82 4.68 6.2.06-6.2 5.87-.6-2.08 13.86-3.76.55zM1256.06 268.13l.24 5.03-5.89.63.08 1.15 3.86-.36.34 3.43-4.03.3.06.92 5.72-.44.86 4.31-11.29.4 1.15-13.68zM1262.16 281.2l-.67 1.9-3.73-2.25 4.68-11.01 3.56-.25 5.6 11.4-4.42 2.11-.98-2.66zm3.24-4.14l-1.06-3.43-1.25 3.79zM1276.73 272.97l.13 2.55q4.74 0 4.74-.94 0-.95-4.87-1.61zm.63 9.37l-5.27.74 1.1-14.15q12.2.91 12.6 4.89.42 3.97-4.2 5.5l3.8 2.05-3.89 3.44-4.44-5.5zM1292.1 283.1l-.61-13.26q12.92 0 12.92 6.63t-12.31 6.63zm3.37-9.74l.63 4.58q4.1.02 4.1-2.28t-4.73-2.3zM1312.63 283.1q-3.2 0-5.47-1.94-2.26-1.94-2.26-4.69 0-2.75 2.26-4.69 2.26-1.94 5.47-1.94 3.19 0 5.44 1.94 2.27 1.94 2.27 4.7 0 2.74-2.27 4.68-2.25 1.94-5.44 1.94zm-.53-4.14q1.36 0 2.33-.83t.97-2q0-1.18-.97-2.02-.97-.83-2.33-.83-1.38 0-2.35.83-.97.84-.97 2.01 0 1.18.97 2.01.97.83 2.35.83z" style="-inkscape-font-specification:'Funhouse, Normal';font-variant-ligatures:normal;font-variant-caps:normal;font-variant-numeric:normal;font-feature-settings:normal;text-align:start"/>
          <path d="M1322 270.5l5.05.99q-2.52 7.74.72 7.82 3.84-.02 2.22-8.01l4.63-1.46q2.12 13.15-6.85 13.26-9.07-.08-5.77-12.6z" style="-inkscape-font-specification:'Funhouse, Normal';font-variant-ligatures:normal;font-variant-caps:normal;font-variant-numeric:normal;font-feature-settings:normal;text-align:start"/>
          <path d="M1339.46 274.5q2.93-.56 2.88-1.68-.06-1.11-3-.35zm.45 5.62q4.3-.17 4.3-1.5.02-1.32-4.44-1.27zm-4.12 2.98l.35-12.26q6.77-2.76 9.31-.27 2.54 2.5-.64 5.02 4.83 1.49 3.12 4.86-1.7 3.36-12.14 2.65z" style="-inkscape-font-specification:'Funhouse, Normal';font-variant-ligatures:normal;font-variant-caps:normal;font-variant-numeric:normal;font-feature-settings:normal;text-align:start"/>
          <path d="M1349.63 269.65l4.67.25-1.53 9.41 4.75-.73-1.05 5.05-7.5-.53zM1368.04 268.13l.25 5.03-5.9.63.08 1.15 3.86-.36.35 3.43-4.04.3.07.92 5.72-.44.85 4.31-11.28.4 1.14-13.68z" style="-inkscape-font-specification:'Funhouse, Normal';font-variant-ligatures:normal;font-variant-caps:normal;font-variant-numeric:normal;font-feature-settings:normal;text-align:start"/>
          <path d="M1372.22 277.86q-3.42-.48-3.02-4.25.4-3.77 8.79-4.46l.8 4.28q-4.17-.1-4.47.99-.3 1.08 3.18 1.24 3.49.16 3.41 4.24-.07 4.09-9.18 4.36l-1.67-4.48q4.66.5 5.12-.47.47-.97-2.96-1.45z" style="-inkscape-font-specification:'Funhouse, Normal';font-variant-ligatures:normal;font-variant-caps:normal;font-variant-numeric:normal;font-feature-settings:normal;text-align:start"/>
        </g>
      </g>
    </g>
  </g>
</svg>
