<svg xmlns="http://www.w3.org/2000/svg" viewBox="0 0 270.93 135.47">
  <g transform="translate(0 -300.11)">
    <path fill="#fff" stroke="#303f9f" stroke-linecap="round" stroke-linejoin="round" stroke-width="1.32" d="M216.2 360.7a5.18 5.18 0 0 0-5.14 5.24v8.59h21.6c2.9 0 5.23 2.33 5.23 5.22v36.52h26.8a5.18 5.18 0 0 0 5.15-5.25l-9.92-22.54 9.92-22.54c1.16-2.65-2.3-5.25-5.15-5.25z"/>
    <path fill="#303f9f" d="M215.78 360.59c-2.15-.1-4.69 3.24-4.69 5.7v8.24h23.78c-.5-.4-1.06-.87-1.68-1.44-3.48-3.15-16.28-12.06-16.28-12.06a1.92 1.92 0 0 0-1.13-.44z"/>
    <g>
      <path fill="#fff" stroke="#303f9f" stroke-linecap="round" stroke-linejoin="round" stroke-width="1.32" d="M6.24 360.7c-2.85 0-6.3 2.59-5.14 5.24L11 388.48 1.1 411.02c0 2.9 2.3 5.25 5.14 5.25h26.72v-36.52c0-2.9 2.33-5.22 5.23-5.22h21.68v-8.6c0-2.9-2.3-5.24-5.15-5.24z"/>
      <path fill="#303f9f" d="M55.15 360.59c-.4.02-.78.15-1.13.44 0 0-12.8 8.91-16.27 12.06-.63.57-1.19 1.03-1.7 1.44h23.79v-8.23c0-2.47-2.54-5.81-4.69-5.71z"/>
    </g>
    <rect width="204.93" height="55.37" x="32.96" y="374.53" fill="#fff" stroke="#303f9f" stroke-linecap="round" stroke-linejoin="round" stroke-width="1.32" ry="5.23"/>
  </g>
  <g fill="#303f9f" stroke-width=".26" font-family="Funhouse" font-size="19.4" font-weight="400" letter-spacing="0" word-spacing="0">
    <g aria-label="decimal additions" style="line-height:1.25;-inkscape-font-specification:'Funhouse, Normal';font-variant-ligatures:normal;font-variant-caps:normal;font-variant-numeric:normal;font-feature-settings:normal;text-align:start">
      <path d="M48.16 99.41l-.54-13.26q11.4 0 11.4 6.63T48.17 99.4zm2.98-9.75l.56 4.59q3.62.02 3.62-2.29 0-2.3-4.18-2.3zM68.33 84.44l.21 5.02-5.2.64.07 1.14 3.41-.36.3 3.43-3.56.3.06.92 5.05-.43.75 4.31-9.96.39 1.02-13.67zM80.8 97.47q-1.97 1.94-4.77 1.94t-4.79-1.94q-1.98-1.94-1.98-4.7 0-2.74 1.98-4.68 1.99-1.94 4.79-1.94t4.78 1.94q1 .97 1.5 2.16l-4.02 1.14q-.2-.6-.7-1.1-.85-.83-2.05-.83-1.2 0-2.05.84-.85.83-.85 2 0 1.18.85 2.01.86.84 2.05.84 1.2 0 2.05-.84.46-.45.68-1.02l4.03 2.02q-.5 1.18-1.5 2.16zM86.62 86.22L87.47 99l-4.73 1.02.22-13.47zM101.27 86.15l.7 12.5-4.26.4-.23-6.4-.86 4.4-3.83.6-1.56-4.53.56 5.38-3.9.91.54-13.26 3.83-.58 2.13 7.58 2.57-7.35zM106.28 97.52l-.58 1.89-3.3-2.26 4.13-11 3.15-.25 4.94 11.4-3.9 2.11-.87-2.66zm2.86-4.15l-.93-3.43-1.1 3.79zM115.62 85.96l4.12.24-1.35 9.42 4.2-.74-.93 5.05-6.61-.52zM131.13 97.52l-.58 1.89-3.3-2.26 4.13-11 3.15-.25 4.94 11.4-3.9 2.11-.87-2.66zm2.86-4.15l-.93-3.43-1.1 3.79zM140.43 99.41l-.54-13.26q11.4 0 11.4 6.63t-10.86 6.63zm2.98-9.75l.56 4.59q3.62.02 3.62-2.29 0-2.3-4.18-2.3zM152.27 99.41l-.54-13.26q11.4 0 11.4 6.63t-10.86 6.63zm2.97-9.75l.56 4.59q3.62.02 3.62-2.29 0-2.3-4.18-2.3zM167.45 86.22L168.3 99l-4.73 1.02.22-13.47zM175.49 90.18l.4 8.07-4.53 1.33.78-9.64-3.42-.34.27-3.5 9.8-.66.37 5.18zM183.47 86.22l.85 12.78-4.73 1.02.22-13.47zM191.56 99.41q-2.83 0-4.83-1.94-1.99-1.94-1.99-4.7 0-2.74 2-4.68 1.99-1.94 4.82-1.94 2.81 0 4.8 1.94 2 1.94 2 4.69 0 2.75-2 4.69-1.99 1.94-4.8 1.94zm-.47-4.14q1.2 0 2.05-.83.87-.84.87-2.01 0-1.18-.87-2.01-.85-.83-2.05-.83-1.22 0-2.08.83-.85.83-.85 2 0 1.18.85 2.02.86.83 2.08.83zM202.98 92.78l.82 5.43-4.17 1.2-.84-12.44 4.19-.82 4.13 6.2.05-6.2 5.18-.61-1.84 13.87-3.32.55zM215.28 94.17q-3.01-.48-2.66-4.25.35-3.77 7.76-4.47l.7 4.29q-3.67-.1-3.94.98t2.8 1.24q3.09.16 3.02 4.25-.07 4.08-8.1 4.36l-1.48-4.49q4.11.5 4.52-.46.41-.98-2.62-1.45z" style="-inkscape-font-specification:'Funhouse, Normal';font-variant-ligatures:normal;font-variant-caps:normal;font-variant-numeric:normal;font-feature-settings:normal;text-align:start"/>
    </g>
    <g aria-label="up to thousandths" style="line-height:1.25;-inkscape-font-specification:'Funhouse, Normal';font-variant-ligatures:normal;font-variant-caps:normal;font-variant-numeric:normal;font-feature-settings:normal;text-align:start">
      <path d="M39.45 106l4.46 1q-2.23 7.73.63 7.82 3.4-.03 1.97-8.02l4.08-1.46q1.87 13.15-6.05 13.27-8-.09-5.09-12.6z" style="-inkscape-font-specification:'Funhouse, Normal';font-variant-ligatures:normal;font-variant-caps:normal;font-variant-numeric:normal;font-feature-settings:normal;text-align:start"/>
      <path d="M56.14 114.79l.68 2.83-4.37.99-.83-12.69q11.14-2.04 11.7 4.16 0 4.74-7.18 4.7zm-1.15-5.61l.47 1.85q4.52 0 4.25-1.35-.27-1.34-4.72-.5zM74.74 109.38l.41 8.07-4.53 1.33.78-9.65-3.42-.33.26-3.5 9.81-.67.36 5.18zM85.66 118.6q-2.83 0-4.82-1.94-2-1.94-2-4.69 0-2.74 2-4.69 2-1.94 4.82-1.94 2.82 0 4.8 1.94 2 1.95 2 4.7 0 2.74-2 4.68-1.98 1.95-4.8 1.95zm-.47-4.13q1.2 0 2.06-.84.86-.83.86-2 0-1.18-.86-2.01-.85-.84-2.06-.84t-2.07.84q-.85.83-.85 2 0 1.18.85 2.01.86.84 2.07.84zM103.9 109.38l.41 8.07-4.53 1.33.78-9.65-3.42-.33.27-3.5 9.8-.67.36 5.18zM112.36 114.6l.3 3.21-3.2.63-1.45-10.5 3.56-1.72.4 4.55 3.21-.42.05-4.14 5.58.64-2.13 11.64-3.59-1.2.04-3.02zM128.03 118.6q-2.82 0-4.82-1.94-2-1.94-2-4.69 0-2.74 2-4.69 2-1.94 4.82-1.94 2.82 0 4.81 1.94 2 1.95 2 4.7 0 2.74-2 4.68-1.99 1.95-4.8 1.95zm-.47-4.13q1.2 0 2.06-.84.86-.83.86-2 0-1.18-.86-2.01-.85-.84-2.06-.84-1.2 0-2.07.84-.85.83-.85 2 0 1.18.85 2.01.86.84 2.07.84z" style="-inkscape-font-specification:'Funhouse, Normal';font-variant-ligatures:normal;font-variant-caps:normal;font-variant-numeric:normal;font-feature-settings:normal;text-align:start"/>
      <path d="M136.3 106l4.46 1q-2.23 7.73.63 7.82 3.4-.03 1.97-8.02l4.08-1.46q1.87 13.15-6.05 13.27-8-.09-5.09-12.6z" style="-inkscape-font-specification:'Funhouse, Normal';font-variant-ligatures:normal;font-variant-caps:normal;font-variant-numeric:normal;font-feature-settings:normal;text-align:start"/>
      <path d="M151.23 113.37q-3.02-.49-2.67-4.26.35-3.77 7.76-4.46l.7 4.28q-3.67-.1-3.94.99-.27 1.08 2.81 1.24 3.08.16 3.01 4.24-.07 4.09-8.1 4.36l-1.48-4.48q4.11.5 4.52-.46.41-.98-2.61-1.45zM163.26 116.71l-.59 1.9-3.3-2.26 4.14-11 3.14-.25 4.94 11.4-3.9 2.1-.86-2.66zm2.86-4.15l-.94-3.43-1.1 3.8zM176.2 111.97l.84 5.43-4.18 1.2-.84-12.43 4.19-.83 4.13 6.2.05-6.2 5.18-.6-1.84 13.87-3.32.55zM186.53 118.6l-.53-13.26q11.4 0 11.4 6.63 0 6.64-10.87 6.64zm2.98-9.74l.56 4.58q3.62.02 3.62-2.28t-4.18-2.3zM204.17 109.38l.4 8.07-4.53 1.33.78-9.65-3.42-.33.27-3.5 9.8-.67.37 5.18zM212.63 114.6l.3 3.21-3.2.63-1.46-10.5 3.56-1.72.4 4.55 3.21-.42.05-4.14 5.58.64-2.13 11.64-3.59-1.2.04-3.02zM224.5 113.37q-3.02-.49-2.67-4.26.35-3.77 7.76-4.46l.7 4.28q-3.67-.1-3.93.99-.27 1.08 2.8 1.24 3.08.16 3.01 4.24-.06 4.09-8.1 4.36l-1.48-4.48q4.12.5 4.53-.46.4-.98-2.62-1.45z" style="-inkscape-font-specification:'Funhouse, Normal';font-variant-ligatures:normal;font-variant-caps:normal;font-variant-numeric:normal;font-feature-settings:normal;text-align:start"/>
    </g>
  </g>
  <g>
    <g fill="#fff" stroke="#303f9f" stroke-width=".97" aria-label="2.83" font-family="Funhouse" font-size="28.22" font-weight="400" letter-spacing="0" style="line-height:1.25;-inkscape-font-specification:'Funhouse, Normal';font-variant-ligatures:normal;font-variant-caps:normal;font-variant-numeric:normal;font-feature-settings:normal;text-align:start" word-spacing="0">
      <path stroke-width="1.0630133" d="M45.17 35.25q-5.45.75-4.5 3.64l7.96-.6 1.8 8.68L31.43 45Q31.2 32 36.76 31.73q5.55-.26 5.07-1.98-.48-1.72-7.11-1.57l1.27-6.83q13.38 1.1 14.01 7.12.64 6-4.83 6.78zM54.4 45.12q-1.26 0-2.15-.87-.87-.9-.87-2.15t.87-2.13q.9-.89 2.15-.89t2.13.9q.89.87.89 2.12 0 1.26-.9 2.15-.87.87-2.12.87zM65.81 27.64q-.83 0-1.42.46-.57.47-.57 1.14 0 .66.57 1.13.6.47 1.42.47t1.4-.47q.58-.47.58-1.13 0-.67-.59-1.14-.57-.46-1.39-.46zm.3 7.76q-1.25 0-2.14.51-.89.52-.89 1.26t.9 1.26q.88.52 2.14.52 1.26 0 2.15-.52.9-.52.9-1.26t-.9-1.26q-.89-.51-2.15-.51zm5.55-2.46q.59.31 1.13.7 2.5 1.9 2.5 4.57 0 2.66-2.51 4.54-2.5 1.9-6.03 1.9-3.55 0-6.06-1.9-2.49-1.88-2.49-4.54 0-2.68 2.5-4.56.4-.29.8-.55-1.6-1.57-1.6-3.73 0-2.37 1.94-4.03 1.93-1.67 4.67-1.67 2.72 0 4.65 1.67 1.93 1.66 1.93 4.03 0 2.04-1.43 3.57zM88.2 34.55q4.83.49 3.92 5.53-.9 5.04-14.83 6.31l-1.27-7.53q9.17.22 9.17-1.2 0-1.43-3.61-.81l-1-5.27q4.6-.05 4.56-1.83-.04-1.78-8.15.18l.87-6.36q12.98-.86 14.06 4.17 1.1 5.02-3.71 6.81z" style="-inkscape-font-specification:'Funhouse, Normal';font-variant-ligatures:normal;font-variant-caps:normal;font-variant-numeric:normal;font-feature-settings:normal;text-align:start"/>
    </g>
    <g transform="matrix(.90636 0 0 .90636 -202.27 736)">
      <g fill="#00c853" transform="translate(7.99 30.08) scale(1.09493)">
        <rect width="7.84" height="23.53" x="303.23" y="-746.43" ry="3.92"/>
        <rect width="7.84" height="23.53" x="-738.58" y="-318.92" ry="3.92" transform="rotate(90)"/>
      </g>
      <rect width="2.21" height="6.35" x="345.05" y="-785.14" fill="#c7ffde" ry="1.1"/>
    </g>
    <g transform="matrix(0 .91414 -.91414 0 -85.44 676.48)">
      <rect width="7.84" height="18.82" x="-712.05" y="-356.04" fill="#e91e63" ry="3.92"/>
      <rect width="7.84" height="18.82" x="-701.07" y="-356.04" fill="#e91e63" ry="3.92"/>
      <rect width="2.21" height="6.35" x="-710.76" y="-353.53" fill="#facedd" ry="1.1"/>
      <rect width="2.21" height="6.35" x="-699.77" y="-353.53" fill="#facedd" ry="1.1"/>
    </g>
    <g fill="#fff" stroke="#303f9f" stroke-width="1.06" font-family="Funhouse" font-size="28.22" font-weight="400" letter-spacing="0" word-spacing="0">
      <path d="M139.25 45.3q-4.95 0-8.45-3-3.5-3-3.5-7.25t3.5-7.25q3.5-3 8.45-3 4.93 0 8.42 3 3.5 3 3.5 7.25t-3.5 7.25q-3.49 3-8.42 3zm-.82-6.4q2.1 0 3.6-1.29 1.51-1.29 1.51-3.1 0-1.82-1.5-3.1-1.5-1.3-3.61-1.3-2.13 0-3.64 1.3-1.49 1.28-1.49 3.1 0 1.81 1.5 3.1 1.5 1.3 3.63 1.3zM153.44 45.3q-1.21 0-2.08-.84-.85-.87-.85-2.09 0-1.21.85-2.06.87-.86 2.08-.86 1.22 0 2.07.86.86.85.86 2.06 0 1.22-.86 2.09-.85.84-2.07.84zM167.67 45.3q-4.95 0-8.45-3-3.5-3-3.5-7.25t3.5-7.25q3.5-3 8.45-3 4.93 0 8.42 3 3.5 3 3.5 7.25t-3.5 7.25q-3.49 3-8.42 3zm-.82-6.4q2.1 0 3.6-1.29 1.51-1.29 1.51-3.1 0-1.82-1.5-3.1-1.5-1.3-3.61-1.3-2.13 0-3.64 1.3-1.49 1.28-1.49 3.1 0 1.81 1.5 3.1 1.5 1.3 3.63 1.3zM216.9 45.1l-10.01-.43 1.68-13.84-3.46 1.4-1.36-5.78 10.53-3.24zM192.08 45.3q-4.96 0-8.46-3-3.48-3-3.48-7.25t3.48-7.25q3.5-3 8.46-3 4.93 0 8.42 3 3.5 3 3.5 7.25t-3.5 7.25q-3.49 3-8.42 3zm-.82-6.4q2.1 0 3.6-1.29t1.5-3.1q0-1.82-1.5-3.1-1.5-1.3-3.6-1.3-2.13 0-3.64 1.3-1.5 1.28-1.5 3.1 0 1.81 1.5 3.1 1.51 1.3 3.64 1.3z" style="line-height:1.25;-inkscape-font-specification:'Funhouse, Normal';font-variant-ligatures:normal;font-variant-caps:normal;font-variant-numeric:normal;font-feature-settings:normal;text-align:start"/>
    </g>
  </g>
</svg>
