<svg xmlns="http://www.w3.org/2000/svg" viewBox="0 0 270.93 135.47">
  <g transform="translate(-617.92 -300.11)">
    <path fill="#fff" stroke="#303f9f" stroke-linecap="round" stroke-linejoin="round" stroke-width="1.32" d="M834.13 360.7a5.18 5.18 0 0 0-5.14 5.24v8.59h21.6c2.9 0 5.22 2.33 5.22 5.22v36.52h26.8a5.18 5.18 0 0 0 5.15-5.25l-9.91-22.54 9.91-22.54c1.17-2.65-2.3-5.25-5.15-5.25z"/>
    <path fill="#303f9f" d="M833.7 360.59c-2.14-.1-4.69 3.24-4.69 5.7v8.24H852.8c-.5-.4-1.06-.87-1.68-1.44-3.47-3.15-16.27-12.06-16.27-12.06a1.92 1.92 0 0 0-1.14-.44z"/>
    <g>
      <path fill="#fff" stroke="#303f9f" stroke-linecap="round" stroke-linejoin="round" stroke-width="1.32" d="M624.17 360.7c-2.85 0-6.32 2.59-5.15 5.24l9.92 22.54-9.92 22.54c0 2.9 2.3 5.25 5.15 5.25h26.71v-36.52c0-2.9 2.33-5.22 5.23-5.22h21.68v-8.6c0-2.9-2.3-5.24-5.14-5.24z"/>
      <path fill="#303f9f" d="M673.08 360.59c-.4.02-.78.15-1.14.44 0 0-12.8 8.91-16.27 12.06-.62.57-1.18 1.03-1.69 1.44h23.79v-8.23c0-2.47-2.55-5.81-4.7-5.71z"/>
    </g>
    <rect width="204.93" height="55.37" x="650.88" y="374.53" fill="#fff" stroke="#303f9f" stroke-linecap="round" stroke-linejoin="round" stroke-width="1.32" ry="5.23"/>
  </g>
  <g fill="#303f9f" stroke-width=".26" font-size="15.88" font-weight="400" letter-spacing="0" word-spacing="0">
    <g aria-label="decimal" font-family="Funhouse" style="line-height:1.25;-inkscape-font-specification:'Funhouse, Normal';font-variant-ligatures:normal;font-variant-caps:normal;font-variant-numeric:normal;font-feature-settings:normal;text-align:start">
      <path d="M101.07 90.56l-.5-10.86q10.58 0 10.58 5.43t-10.08 5.43zm2.76-7.98l.52 3.75q3.36.02 3.36-1.87 0-1.88-3.88-1.88zM119.77 78.3l.2 4.12-4.82.52.06.93 3.17-.29.28 2.8-3.3.25.05.76 4.68-.36.7 3.53-9.24.31.94-11.18zM131.34 88.97q-1.83 1.59-4.43 1.59-2.6 0-4.43-1.6-1.84-1.58-1.84-3.83t1.84-3.84q1.83-1.59 4.43-1.59 2.6 0 4.43 1.6.93.8 1.4 1.76L129 84q-.19-.5-.65-.9-.8-.68-1.9-.68-1.1 0-1.9.68-.79.68-.79 1.64 0 .96.8 1.65.78.68 1.9.68 1.1 0 1.89-.68.43-.38.63-.84l3.73 1.65q-.45.97-1.38 1.77zM136.73 79.77l.8 10.45-4.4.83.2-11.01zM150.31 79.7l.65 10.23-3.95.33-.2-5.23-.8 3.6-3.56.5-1.44-3.72.52 4.4-3.62.75.5-10.86 3.55-.47 1.97 6.2 2.39-6.01zM154.96 89l-.54 1.56-3.05-1.85 3.83-9 2.91-.2 4.58 9.32-3.62 1.73-.8-2.18zm2.65-3.39l-.86-2.8-1.03 3.1zM163.62 79.55l3.82.2-1.25 7.7 3.89-.6-.86 4.13-6.13-.42z" style="-inkscape-font-specification:'Funhouse, Normal';font-variant-ligatures:normal;font-variant-caps:normal;font-variant-numeric:normal;font-feature-settings:normal;text-align:start"/>
    </g>
    <g aria-label="multiplications by" font-family="Funhouse" style="line-height:1.25;-inkscape-font-specification:'Funhouse, Normal';font-variant-ligatures:normal;font-variant-caps:normal;font-variant-numeric:normal;font-feature-settings:normal;text-align:start">
      <path d="M65.04 96.04l.65 10.22-3.95.34-.21-5.24-.8 3.6-3.55.5-1.44-3.72.52 4.4-3.62.75.5-10.85 3.55-.47 1.97 6.2 2.39-6.02z" style="-inkscape-font-specification:'Funhouse, Normal';font-variant-ligatures:normal;font-variant-caps:normal;font-variant-numeric:normal;font-feature-settings:normal;text-align:start"/>
      <path d="M66.87 96.58l4.13.8q-2.06 6.34.59 6.41 3.15-.02 1.82-6.56l3.78-1.19q1.74 10.76-5.6 10.85-7.42-.07-4.72-10.3z" style="-inkscape-font-specification:'Funhouse, Normal';font-variant-ligatures:normal;font-variant-caps:normal;font-variant-numeric:normal;font-feature-settings:normal;text-align:start"/>
      <path d="M78.44 95.88l3.82.2-1.25 7.71 3.89-.6-.86 4.13-6.13-.43z" style="-inkscape-font-specification:'Funhouse, Normal';font-variant-ligatures:normal;font-variant-caps:normal;font-variant-numeric:normal;font-feature-settings:normal;text-align:start"/>
      <path d="M89.1 99.34l.39 6.6-4.2 1.1.72-7.9-3.17-.27.24-2.87 9.1-.54.33 4.24zM96.5 96.1l.8 10.46-4.39.83.2-11.02zM101.87 103.77l.63 2.32-4.05.8-.76-10.38q10.32-1.66 10.84 3.4 0 3.88-6.66 3.86zm-1.06-4.6l.44 1.52q4.18 0 3.93-1.1-.25-1.1-4.37-.41zM109.45 95.88l3.82.2-1.26 7.71 3.9-.6-.87 4.13-6.13-.43zM119.89 96.1l.79 10.46-4.39.83.2-11.02zM131.77 105.3q-1.84 1.6-4.43 1.6-2.6 0-4.44-1.6-1.83-1.59-1.83-3.83 0-2.25 1.83-3.84 1.84-1.59 4.44-1.59 2.6 0 4.43 1.59.92.8 1.39 1.77l-3.72.93q-.19-.5-.65-.9-.8-.68-1.9-.68-1.11 0-1.9.68-.8.69-.8 1.65t.8 1.64q.79.68 1.9.68 1.1 0 1.9-.68.42-.37.62-.84l3.74 1.66q-.46.96-1.38 1.76zM137.16 105.34l-.54 1.55-3.06-1.84 3.83-9.01 2.91-.2 4.59 9.32-3.62 1.73-.8-2.18zm2.65-3.4l-.87-2.8-1.02 3.1z" style="-inkscape-font-specification:'Funhouse, Normal';font-variant-ligatures:normal;font-variant-caps:normal;font-variant-numeric:normal;font-feature-settings:normal;text-align:start"/>
      <path d="M149.16 99.34l.38 6.6-4.2 1.1.72-7.9-3.17-.27.25-2.87 9.1-.54.33 4.24zM156.57 96.1l.79 10.46-4.39.83.2-11.02zM164.06 106.9q-2.62 0-4.47-1.6-1.84-1.59-1.84-3.83 0-2.25 1.84-3.84 1.85-1.59 4.47-1.59 2.62 0 4.46 1.59 1.85 1.59 1.85 3.84 0 2.24-1.85 3.83-1.84 1.6-4.46 1.6zm-.43-3.4q1.12 0 1.9-.68.8-.68.8-1.64 0-.96-.8-1.64-.78-.69-1.9-.69-1.12 0-1.92.69-.8.68-.8 1.64 0 .96.8 1.64.8.68 1.92.68zM174.65 101.47l.77 4.44-3.87.98-.78-10.18 3.88-.67 3.83 5.07.05-5.07 4.8-.5-1.7 11.35-3.08.45zM186.06 102.6q-2.8-.39-2.47-3.48.32-3.08 7.2-3.65l.64 3.5q-3.4-.07-3.65.81-.25.89 2.6 1.02 2.86.13 2.8 3.47-.06 3.34-7.51 3.57l-1.38-3.67q3.82.41 4.2-.38.38-.8-2.43-1.18zM200.56 99.85q2.4-.45 2.35-1.37-.04-.91-2.45-.29zm.37 4.6q3.51-.14 3.52-1.22.01-1.09-3.64-1.04zm-3.37 2.44l.28-10.04q5.55-2.25 7.62-.21 2.08 2.04-.52 4.1 3.95 1.22 2.55 3.98-1.4 2.75-9.93 2.17z" style="-inkscape-font-specification:'Funhouse, Normal';font-variant-ligatures:normal;font-variant-caps:normal;font-variant-numeric:normal;font-feature-settings:normal;text-align:start"/>
      <path d="M210.79 102.24l-3.65-3.68 3.08-2.52 2.12 3.1 1.76-3.86 4.11 1.41-4.32 5.55.33 4.36-3.77-.51z" style="-inkscape-font-specification:'Funhouse, Normal';font-variant-ligatures:normal;font-variant-caps:normal;font-variant-numeric:normal;font-feature-settings:normal;text-align:start"/>
    </g>
    <g aria-label="10, 100 1000" font-family="Funhouse" style="line-height:1.25;-inkscape-font-specification:'Funhouse, Normal';font-variant-ligatures:normal;font-variant-caps:normal;font-variant-numeric:normal;font-feature-settings:normal;text-align:start">
      <path d="M81.35 123.46l-5.3-.22.89-7.33-1.83.74-.72-3.06 5.57-1.71zM88.05 123.57q-2.62 0-4.47-1.6-1.85-1.58-1.85-3.83t1.85-3.83q1.85-1.6 4.47-1.6 2.61 0 4.46 1.6 1.85 1.58 1.85 3.83t-1.85 3.84q-1.85 1.59-4.46 1.59zm-.43-3.39q1.11 0 1.9-.68.8-.68.8-1.64 0-.97-.8-1.65-.79-.68-1.9-.68-1.13 0-1.92.68-.8.68-.8 1.65 0 .96.8 1.64.8.68 1.92.68zM96.94 120.98l.03 4.64-3.95.27 1.42-5.15zM108.26 123.46l-5.3-.22.89-7.33-1.83.74-.72-3.06 5.57-1.71zM114.97 123.57q-2.62 0-4.48-1.6-1.84-1.58-1.84-3.83t1.84-3.83q1.86-1.6 4.48-1.6 2.6 0 4.45 1.6 1.86 1.58 1.86 3.83t-1.86 3.84q-1.84 1.59-4.45 1.59zm-.44-3.39q1.12 0 1.9-.68.8-.68.8-1.64 0-.97-.8-1.65-.78-.68-1.9-.68-1.12 0-1.92.68-.8.68-.8 1.65 0 .96.8 1.64.8.68 1.92.68zM127.99 123.57q-2.62 0-4.47-1.6-1.85-1.58-1.85-3.83t1.85-3.83q1.85-1.6 4.47-1.6 2.61 0 4.45 1.6 1.86 1.58 1.86 3.83t-1.86 3.84q-1.84 1.59-4.45 1.59zm-.44-3.39q1.12 0 1.91-.68.8-.68.8-1.64 0-.97-.8-1.65-.79-.68-1.9-.68-1.13 0-1.93.68-.79.68-.79 1.65 0 .96.8 1.64.79.68 1.91.68zM157.4 123.46l-5.3-.22.9-7.33-1.84.74-.72-3.06 5.58-1.71zM164.11 123.57q-2.62 0-4.47-1.6-1.85-1.58-1.85-3.83t1.85-3.83q1.85-1.6 4.47-1.6 2.61 0 4.46 1.6 1.85 1.58 1.85 3.83t-1.85 3.84q-1.85 1.59-4.46 1.59zm-.43-3.39q1.11 0 1.9-.68.8-.68.8-1.64 0-.97-.8-1.65-.79-.68-1.9-.68-1.13 0-1.93.68-.79.68-.79 1.65 0 .96.8 1.64.8.68 1.92.68zM177.13 123.57q-2.62 0-4.47-1.6-1.85-1.58-1.85-3.83t1.85-3.83q1.85-1.6 4.47-1.6 2.61 0 4.46 1.6 1.85 1.58 1.85 3.83t-1.85 3.84q-1.85 1.59-4.46 1.59zm-.43-3.39q1.11 0 1.9-.68.8-.68.8-1.64 0-.97-.8-1.65-.79-.68-1.9-.68-1.13 0-1.92.68-.8.68-.8 1.65 0 .96.8 1.64.8.68 1.92.68zM190.15 123.57q-2.62 0-4.47-1.6-1.84-1.58-1.84-3.83t1.84-3.83q1.85-1.6 4.47-1.6 2.62 0 4.46 1.6 1.85 1.58 1.85 3.83t-1.85 3.84q-1.84 1.59-4.46 1.59zm-.43-3.39q1.12 0 1.9-.68.8-.68.8-1.64 0-.97-.8-1.65-.78-.68-1.9-.68-1.12 0-1.92.68-.8.68-.8 1.65 0 .96.8 1.64.8.68 1.92.68z" style="-inkscape-font-specification:'Funhouse, Normal';font-variant-ligatures:normal;font-variant-caps:normal;font-variant-numeric:normal;font-feature-settings:normal;text-align:start"/>
    </g>
    <g style="line-height:1.25;-inkscape-font-specification:'SC Gum Kids, Normal';font-variant-ligatures:normal;font-variant-caps:normal;font-variant-numeric:normal;font-feature-settings:normal;text-align:start">
      <path d="M141.66 116.19q-.31 0-.47.14v.01q-.03.04-.03.11 0 .26.16.68.1.25.25.54.28-.24.48-.47.34-.4.34-.63l-.02-.08-.11-.11q-.24-.2-.6-.2zm-1.24 5.22q-.2.32-.2.66 0 .56.45 1.01.48.47 1.12.47.52 0 1.02-.35-1.1-1.2-1.91-2.28-.3.23-.48.5zm1.37 4.48q-1.6 0-2.75-1.14-1.16-1.13-1.17-2.68 0-1.04.6-1.94.43-.65 1.13-1.17-.25-.47-.42-.91-.35-.87-.35-1.6 0-.54.18-1 .22-.52.65-.89.83-.71 2-.71.82 0 1.55.36.8.42 1.21 1.15.31.56.31 1.2 0 1.12-.9 2.16-.4.48-.97.92.38.49.82 1l.57.67q.41-.85.7-1.95l2.26.6q-.5 1.86-1.26 3.14.51.52.92.91l.07.05-1.59 1.73-.25-.24q-.33-.31-.66-.65-1.23 1-2.64 1z" aria-label="&amp;" font-family="SC Gum Kids" style="-inkscape-font-specification:'SC Gum Kids, Normal';font-variant-ligatures:normal;font-variant-caps:normal;font-variant-numeric:normal;font-feature-settings:normal;text-align:start"/>
    </g>
  </g>
  <g>
    <g fill="#fff" stroke="#303f9f" stroke-width="1.06" aria-label=".09" font-family="Funhouse" font-size="31.75" font-weight="400" letter-spacing="0" style="line-height:1.25;-inkscape-font-specification:'Funhouse, Normal';font-variant-ligatures:normal;font-variant-caps:normal;font-variant-numeric:normal;font-feature-settings:normal;text-align:start" word-spacing="0">
      <path stroke-width=".9510638" d="M44.31 26.14q-4.7 0-8.03-2.85-3.3-2.86-3.3-6.89 0-4.03 3.3-6.88 3.33-2.86 8.03-2.86 4.69 0 8 2.86 3.32 2.85 3.32 6.88 0 4.03-3.32 6.89-3.31 2.85-8 2.85zm-.78-6.08q2 0 3.42-1.23 1.44-1.22 1.44-2.94 0-1.73-1.44-2.95-1.42-1.23-3.42-1.23-2.02 0-3.45 1.23-1.42 1.22-1.42 2.95 0 1.72 1.42 2.94 1.43 1.23 3.45 1.23zM57.79 26.14q-1.16 0-1.98-.81-.8-.82-.8-1.97 0-1.16.8-1.97.82-.82 1.98-.82 1.15 0 1.96.82.82.81.82 1.97 0 1.15-.82 1.97-.8.8-1.96.8zM71.3 26.14q-4.7 0-8.03-2.85-3.31-2.86-3.31-6.89 0-4.03 3.31-6.88 3.32-2.86 8.03-2.86 4.68 0 8 2.86 3.32 2.85 3.32 6.88 0 4.03-3.33 6.89-3.3 2.85-8 2.85zm-.78-6.08q2 0 3.42-1.23 1.43-1.22 1.43-2.94 0-1.73-1.43-2.95-1.42-1.23-3.42-1.23-2.02 0-3.45 1.23-1.42 1.22-1.42 2.95 0 1.72 1.42 2.94 1.43 1.23 3.45 1.23zM94.14 7.04q10.82.11 6.5 18.99l-7.98-1.4 2.53-5.03q-11.06 2.3-11.46-5.19-.4-7.5 10.4-7.37zm-.9 5.44q-2.44 0-2.44 1.67t2.45 1.67q2.46 0 2.46-1.67t-2.46-1.67z" style="-inkscape-font-specification:'Funhouse, Normal';font-variant-ligatures:normal;font-variant-caps:normal;font-variant-numeric:normal;font-feature-settings:normal;text-align:start"/>
    </g>
    <g fill="#fff" stroke="#303f9f" stroke-width="1.06" aria-label="1000" font-family="Funhouse" font-size="31.75" font-weight="400" letter-spacing="0" style="line-height:1.25;-inkscape-font-specification:'Funhouse, Normal';font-variant-ligatures:normal;font-variant-caps:normal;font-variant-numeric:normal;font-feature-settings:normal;text-align:start" word-spacing="0">
      <path stroke-width=".9510638" d="M146.5 26.7l-9.52-.41 1.6-13.14-3.28 1.32-1.3-5.48 10-3.08zM158.53 26.89q-4.7 0-8.03-2.85-3.3-2.85-3.3-6.89 0-4.03 3.3-6.88 3.33-2.86 8.03-2.86 4.69 0 8 2.86 3.32 2.85 3.32 6.88 0 4.04-3.32 6.89-3.31 2.85-8 2.85zm-.78-6.08q2 0 3.42-1.22 1.44-1.23 1.44-2.95 0-1.73-1.44-2.95-1.42-1.23-3.42-1.23-2.02 0-3.45 1.23-1.42 1.22-1.42 2.95 0 1.72 1.42 2.95 1.43 1.22 3.45 1.22zM181.9 26.89q-4.7 0-8.03-2.85-3.3-2.85-3.3-6.89 0-4.03 3.3-6.88 3.33-2.86 8.03-2.86 4.69 0 8 2.86 3.32 2.85 3.32 6.88 0 4.04-3.32 6.89-3.31 2.85-8 2.85zm-.78-6.08q2 0 3.42-1.22 1.43-1.23 1.43-2.95 0-1.73-1.43-2.95-1.42-1.23-3.42-1.23-2.02 0-3.45 1.23-1.42 1.22-1.42 2.95 0 1.72 1.42 2.95 1.43 1.22 3.45 1.22zM205.27 26.89q-4.7 0-8.03-2.85-3.31-2.85-3.31-6.89 0-4.03 3.31-6.88 3.33-2.86 8.03-2.86 4.68 0 8 2.86 3.32 2.85 3.32 6.88 0 4.04-3.33 6.89-3.3 2.85-8 2.85zm-.78-6.08q2 0 3.42-1.22 1.43-1.23 1.43-2.95 0-1.73-1.43-2.95-1.42-1.23-3.42-1.23-2.02 0-3.45 1.23-1.42 1.22-1.42 2.95 0 1.72 1.42 2.95 1.43 1.22 3.45 1.22z" style="-inkscape-font-specification:'Funhouse, Normal';font-variant-ligatures:normal;font-variant-caps:normal;font-variant-numeric:normal;font-feature-settings:normal;text-align:start"/>
    </g>
    <g transform="rotate(90 -296.52 260.79) scale(.76982)">
      <rect width="7.84" height="18.82" x="-712.05" y="-356.04" fill="#e91e63" ry="3.92"/>
      <rect width="7.84" height="18.82" x="-701.07" y="-356.04" fill="#e91e63" ry="3.92"/>
      <rect width="2.21" height="6.35" x="-710.76" y="-353.53" fill="#facedd" ry="1.1"/>
      <rect width="2.21" height="6.35" x="-699.77" y="-353.53" fill="#facedd" ry="1.1"/>
    </g>
    <g transform="matrix(.84812 0 0 .84812 -213.44 673.12)">
      <g fill="#f57c00" transform="rotate(45 327.21 -723.68) scale(1.09493)">
        <rect width="7.84" height="23.53" x="303.23" y="-746.43" ry="3.92"/>
        <rect width="7.84" height="23.53" x="-738.58" y="-318.92" ry="3.92" transform="rotate(90)"/>
      </g>
      <rect width="2.21" height="6.35" x="-826.54" y="-267.47" fill="#ffd4a9" ry="1.1" transform="scale(-1 1) rotate(45)"/>
    </g>
    <g>
      <g fill="#fff" stroke="#303f9f" stroke-width="1.06" aria-label=".9" font-family="Funhouse" font-size="31.75" font-weight="400" letter-spacing="0" style="line-height:1.25;-inkscape-font-specification:'Funhouse, Normal';font-variant-ligatures:normal;font-variant-caps:normal;font-variant-numeric:normal;font-feature-settings:normal;text-align:start" word-spacing="0">
        <path stroke-width=".9510638" d="M69.65 56.25q-4.7 0-8.02-2.85-3.31-2.85-3.31-6.89 0-4.03 3.3-6.88 3.33-2.85 8.03-2.85 4.69 0 8 2.85 3.32 2.85 3.32 6.88 0 4.04-3.32 6.89-3.31 2.85-8 2.85zm-.78-6.08q2 0 3.43-1.22 1.43-1.23 1.43-2.95 0-1.73-1.43-2.95-1.42-1.22-3.43-1.22-2.01 0-3.45 1.22-1.41 1.22-1.41 2.95 0 1.72 1.41 2.95 1.44 1.22 3.45 1.22zM85.63 56.25q-1.15 0-1.97-.8-.8-.83-.8-1.98 0-1.16.8-1.96.82-.82 1.97-.82 1.16 0 1.97.82.82.8.82 1.96 0 1.15-.82 1.97-.81.81-1.97.81z" style="-inkscape-font-specification:'Funhouse, Normal';font-variant-ligatures:normal;font-variant-caps:normal;font-variant-numeric:normal;font-feature-settings:normal;text-align:start"/>
        <path stroke-width=".9510638" d="M93.66 37.15q10.82.11 6.51 18.99l-7.98-1.4 2.53-5.03q-11.06 2.3-11.46-5.19-.4-7.5 10.4-7.37zm-.89 5.44q-2.45 0-2.45 1.67t2.45 1.67q2.46 0 2.46-1.67t-2.46-1.67z" style="-inkscape-font-specification:'Funhouse, Normal';font-variant-ligatures:normal;font-variant-caps:normal;font-variant-numeric:normal;font-feature-settings:normal;text-align:start"/>
      </g>
      <g fill="#fff" stroke="#303f9f" stroke-width="1.06" aria-label="100" font-family="Funhouse" font-size="31.75" font-weight="400" letter-spacing="0" style="line-height:1.25;-inkscape-font-specification:'Funhouse, Normal';font-variant-ligatures:normal;font-variant-caps:normal;font-variant-numeric:normal;font-feature-settings:normal;text-align:start" word-spacing="0">
        <path stroke-width=".9510638" d="M146.6 56.8l-9.52-.4 1.6-13.14-3.29 1.32-1.29-5.48 10-3.07zM158.62 57q-4.7 0-8.02-2.85-3.31-2.85-3.31-6.89 0-4.03 3.3-6.88 3.33-2.85 8.03-2.85 4.7 0 8 2.85 3.33 2.85 3.33 6.88 0 4.04-3.33 6.89-3.3 2.85-8 2.85zm-.78-6.08q2 0 3.43-1.22 1.43-1.23 1.43-2.95 0-1.72-1.43-2.95-1.42-1.22-3.43-1.22-2.01 0-3.44 1.22-1.42 1.23-1.42 2.95 0 1.72 1.42 2.95 1.43 1.22 3.44 1.22zM182 57q-4.71 0-8.03-2.85-3.31-2.85-3.31-6.89 0-4.03 3.3-6.88 3.33-2.85 8.03-2.85 4.69 0 8 2.85 3.32 2.85 3.32 6.88 0 4.04-3.32 6.89-3.31 2.85-8 2.85zm-.79-6.08q2 0 3.42-1.22 1.44-1.23 1.44-2.95 0-1.72-1.44-2.95-1.41-1.22-3.42-1.22t-3.45 1.22q-1.42 1.23-1.42 2.95 0 1.72 1.42 2.95 1.44 1.22 3.45 1.22z" style="-inkscape-font-specification:'Funhouse, Normal';font-variant-ligatures:normal;font-variant-caps:normal;font-variant-numeric:normal;font-feature-settings:normal;text-align:start"/>
      </g>
      <g transform="matrix(.84812 0 0 .84812 -213.63 703.23)">
        <g fill="#f57c00" transform="rotate(45 327.21 -723.68) scale(1.09493)">
          <rect width="7.84" height="23.53" x="303.23" y="-746.43" ry="3.92"/>
          <rect width="7.84" height="23.53" x="-738.58" y="-318.92" ry="3.92" transform="rotate(90)"/>
        </g>
        <rect width="2.21" height="6.35" x="-826.54" y="-267.47" fill="#ffd4a9" ry="1.1" transform="scale(-1 1) rotate(45)"/>
      </g>
      <g transform="rotate(90 -323.07 264.35) scale(.76982)">
        <rect width="7.84" height="18.82" x="-712.05" y="-356.04" fill="#e91e63" ry="3.92"/>
        <rect width="7.84" height="18.82" x="-701.07" y="-356.04" fill="#e91e63" ry="3.92"/>
        <rect width="2.21" height="6.35" x="-710.76" y="-353.53" fill="#facedd" ry="1.1"/>
        <rect width="2.21" height="6.35" x="-699.77" y="-353.53" fill="#facedd" ry="1.1"/>
      </g>
    </g>
  </g>
</svg>
