<svg xmlns="http://www.w3.org/2000/svg" viewBox="0 0 270.93 135.47">
  <g transform="translate(0 -801.17)">
    <path fill="#fff" stroke="#303f9f" stroke-linecap="round" stroke-linejoin="round" stroke-width="1.32" d="M216.2 861.76a5.18 5.18 0 0 0-5.14 5.24v8.6h21.6c2.9 0 5.23 2.32 5.23 5.22v36.51h26.8a5.18 5.18 0 0 0 5.15-5.24l-9.92-22.55 9.92-22.54c1.16-2.65-2.3-5.24-5.15-5.24z"/>
    <path fill="#303f9f" d="M215.78 861.65c-2.15-.1-4.69 3.25-4.69 5.71v8.23h23.78c-.5-.4-1.06-.87-1.68-1.43-3.48-3.15-16.28-12.07-16.28-12.07a1.92 1.92 0 0 0-1.13-.44z"/>
    <g>
      <path fill="#fff" stroke="#303f9f" stroke-linecap="round" stroke-linejoin="round" stroke-width="1.32" d="M6.24 861.76c-2.85 0-6.3 2.6-5.14 5.24L11 889.54 1.1 912.1c0 2.9 2.3 5.24 5.14 5.24h26.72v-36.51c0-2.9 2.33-5.23 5.23-5.23h21.68V867c0-2.9-2.3-5.24-5.15-5.24z"/>
      <path fill="#303f9f" d="M55.15 861.65c-.4.02-.78.16-1.13.44 0 0-12.8 8.92-16.27 12.07-.63.56-1.19 1.03-1.7 1.43h23.79v-8.23c0-2.46-2.54-5.8-4.69-5.7z"/>
    </g>
    <rect width="204.93" height="55.37" x="32.96" y="875.59" fill="#fff" stroke="#303f9f" stroke-linecap="round" stroke-linejoin="round" stroke-width="1.32" ry="5.23"/>
  </g>
  <g fill="#303f9f" stroke-width=".26" font-family="Funhouse" font-size="15.88" font-weight="400" letter-spacing="0" word-spacing="0">
    <g aria-label="find the missing" style="line-height:1.25;-inkscape-font-specification:'Funhouse, Normal';font-variant-ligatures:normal;font-variant-caps:normal;font-variant-numeric:normal;font-feature-settings:normal;text-align:start">
      <path d="M71.17 79.2l-.66 4.5-3.78-.2.16.77 3 .34-.41 3.23-2.07-.47.7 3.36-3.8.52-.86-10.18zM75.14 80.46l.8 10.45-4.4.83.2-11.01zM80.2 85.82l.77 4.44-3.87.99-.78-10.18 3.88-.68 3.83 5.07.05-5.07 4.8-.5-1.7 11.36-3.08.45zM89.78 91.25l-.5-10.86q10.57 0 10.57 5.43t-10.07 5.43zm2.76-7.98l.52 3.75q3.35.02 3.35-1.87 0-1.88-3.87-1.88zM110.47 83.7l.38 6.6-4.2 1.09.71-7.9-3.17-.27.25-2.86 9.1-.55.33 4.24zM118.31 87.97l.28 2.62-2.97.52-1.35-8.58 3.3-1.42.38 3.73 2.97-.35.05-3.38 5.17.52-1.98 9.52-3.32-.98.04-2.47zM134.24 79l.2 4.1-4.82.53.06.93 3.16-.29.28 2.8-3.3.25.06.76 4.68-.36.7 3.53-9.24.31.94-11.18zM151.97 80.4l.66 10.22-3.96.33-.2-5.23-.8 3.6-3.56.5-1.44-3.72.52 4.4-3.62.75.5-10.86 3.56-.47 1.97 6.2 2.38-6.01zM156.63 80.46l.79 10.45-4.4.83.21-11.01zM160.6 86.96q-2.8-.4-2.47-3.48.32-3.09 7.2-3.65l.64 3.5q-3.4-.08-3.65.8-.25.9 2.6 1.02 2.86.14 2.8 3.48-.06 3.34-7.51 3.56l-1.38-3.66q3.82.4 4.2-.38.38-.8-2.43-1.2z" style="-inkscape-font-specification:'Funhouse, Normal';font-variant-ligatures:normal;font-variant-caps:normal;font-variant-numeric:normal;font-feature-settings:normal;text-align:start"/>
      <path d="M170.15 86.96q-2.8-.4-2.47-3.48.32-3.09 7.2-3.65l.64 3.5q-3.4-.08-3.65.8-.25.9 2.6 1.02 2.86.14 2.8 3.48-.06 3.34-7.51 3.56l-1.38-3.66q3.82.4 4.2-.38.38-.8-2.43-1.2zM181.3 80.46l.8 10.45-4.39.83.2-11.01zM186.37 85.82l.77 4.44-3.87.99-.79-10.18 3.89-.68 3.83 5.07.04-5.07 4.81-.5-1.7 11.36-3.08.45zM207.4 91.14l-4.41 1.11.07-1.22q-.86.22-1.8.22-2.6 0-4.44-1.6-1.84-1.58-1.84-3.83t1.84-3.84q1.83-1.59 4.43-1.59 2.6 0 4.43 1.6.93.8 1.4 1.76l-3.73.94q-.18-.5-.65-.9-.79-.68-1.9-.68-1.1 0-1.9.68-.79.68-.79 1.64 0 .96.8 1.65.78.68 1.9.68 1.1 0 1.89-.68.43-.38.66-.83l3.52-.15z" style="-inkscape-font-specification:'Funhouse, Normal';font-variant-ligatures:normal;font-variant-caps:normal;font-variant-numeric:normal;font-feature-settings:normal;text-align:start"/>
    </g>
    <g aria-label="number: long" style="line-height:1.25;-inkscape-font-specification:'Funhouse, Normal';font-variant-ligatures:normal;font-variant-caps:normal;font-variant-numeric:normal;font-feature-settings:normal;text-align:start">
      <path d="M77.77 102.16l.77 4.44-3.87.98-.78-10.18 3.88-.67 3.83 5.07.05-5.07 4.8-.5-1.7 11.35-3.08.45z" style="-inkscape-font-specification:'Funhouse, Normal';font-variant-ligatures:normal;font-variant-caps:normal;font-variant-numeric:normal;font-feature-settings:normal;text-align:start"/>
      <path d="M87.37 97.27l4.14.8q-2.07 6.34.58 6.41 3.15-.02 1.83-6.56l3.78-1.19q1.74 10.76-5.6 10.85-7.42-.07-4.73-10.3z" style="-inkscape-font-specification:'Funhouse, Normal';font-variant-ligatures:normal;font-variant-caps:normal;font-variant-numeric:normal;font-feature-settings:normal;text-align:start"/>
      <path d="M110.81 96.73l.66 10.22-3.96.34-.2-5.24-.8 3.6-3.56.5-1.44-3.72.52 4.4-3.62.75.5-10.85 3.56-.47 1.96 6.2 2.4-6.02zM114.87 100.54q2.4-.45 2.35-1.37-.04-.91-2.45-.29zm.37 4.6q3.51-.14 3.52-1.22.02-1.09-3.64-1.04zm-3.37 2.44l.29-10.04q5.54-2.25 7.62-.21 2.07 2.04-.53 4.1 3.95 1.22 2.55 3.98-1.4 2.75-9.93 2.17z" style="-inkscape-font-specification:'Funhouse, Normal';font-variant-ligatures:normal;font-variant-caps:normal;font-variant-numeric:normal;font-feature-settings:normal;text-align:start"/>
      <path d="M130.88 95.33l.2 4.11-4.82.52.06.94 3.16-.3.28 2.81-3.3.24.05.76 4.68-.36.7 3.53-9.23.32.94-11.19zM136.07 99.29l.1 2.09q3.88 0 3.88-.77 0-.78-3.98-1.32zm.52 7.66l-4.32.6.9-11.56q9.98.74 10.32 4 .34 3.24-3.44 4.5l3.1 1.67-3.17 2.82-3.64-4.5zM145.76 106.03q-.65 0-1.1-.45-.45-.46-.45-1.1 0-.64.45-1.1.45-.45 1.1-.45.64 0 1.1.46.45.45.45 1.1 0 .63-.46 1.1-.45.44-1.1.44zm-.03-4.52q-.55 0-.95-.39-.39-.4-.39-.95 0-.55.4-.94.39-.4.94-.4.56 0 .94.4.4.4.4.94 0 .56-.4.95-.38.4-.94.4zM152.18 96.57l3.83.2-1.26 7.71 3.9-.6-.87 4.13-6.13-.43zM165.35 107.58q-2.62 0-4.48-1.59-1.84-1.59-1.84-3.83 0-2.25 1.84-3.84 1.86-1.59 4.48-1.59 2.6 0 4.45 1.59 1.86 1.59 1.86 3.84 0 2.24-1.86 3.83-1.84 1.6-4.45 1.6zm-.44-3.39q1.12 0 1.9-.68.8-.68.8-1.64 0-.96-.8-1.64-.78-.69-1.9-.69-1.12 0-1.92.69-.8.68-.8 1.64 0 .96.8 1.64.8.68 1.92.68zM175.93 102.16l.77 4.44-3.87.98-.78-10.18 3.88-.67 3.83 5.07.05-5.07 4.8-.5-1.7 11.35-3.08.45zM196.96 107.47l-4.4 1.12.07-1.23q-.86.22-1.81.22-2.6 0-4.44-1.59-1.83-1.59-1.83-3.83 0-2.25 1.83-3.84 1.84-1.59 4.44-1.59 2.6 0 4.43 1.59.92.8 1.39 1.77l-3.72.93q-.19-.5-.65-.9-.8-.68-1.9-.68-1.11 0-1.9.68-.8.69-.8 1.65t.8 1.64q.79.68 1.9.68 1.1 0 1.9-.68.42-.37.66-.82l3.51-.16z" style="-inkscape-font-specification:'Funhouse, Normal';font-variant-ligatures:normal;font-variant-caps:normal;font-variant-numeric:normal;font-feature-settings:normal;text-align:start"/>
    </g>
    <g aria-label="multiplications" style="line-height:1.25;-inkscape-font-specification:'Funhouse, Normal';font-variant-ligatures:normal;font-variant-caps:normal;font-variant-numeric:normal;font-feature-settings:normal;text-align:start">
      <path d="M77.56 113.4l.65 10.23-3.96.33-.2-5.23-.8 3.6-3.55.5-1.45-3.72.52 4.4-3.62.75.5-10.85 3.56-.48 1.97 6.2 2.38-6.01z" style="-inkscape-font-specification:'Funhouse, Normal';font-variant-ligatures:normal;font-variant-caps:normal;font-variant-numeric:normal;font-feature-settings:normal;text-align:start"/>
      <path d="M79.39 113.95l4.13.8q-2.06 6.34.59 6.4 3.14-.02 1.82-6.55l3.78-1.2q1.74 10.77-5.6 10.86-7.42-.07-4.72-10.31z" style="-inkscape-font-specification:'Funhouse, Normal';font-variant-ligatures:normal;font-variant-caps:normal;font-variant-numeric:normal;font-feature-settings:normal;text-align:start"/>
      <path d="M90.96 113.25l3.82.2-1.26 7.7 3.9-.6-.87 4.13-6.13-.42z" style="-inkscape-font-specification:'Funhouse, Normal';font-variant-ligatures:normal;font-variant-caps:normal;font-variant-numeric:normal;font-feature-settings:normal;text-align:start"/>
      <path d="M101.62 116.7l.38 6.61-4.2 1.09.72-7.9-3.17-.26.25-2.87 9.1-.54.33 4.24zM109.03 113.47l.79 10.46-4.39.82.2-11.01zM114.4 121.13l.62 2.32-4.05.8-.76-10.37q10.32-1.67 10.84 3.4 0 3.88-6.66 3.85zm-1.07-4.58l.43 1.5q4.19 0 3.94-1.1-.25-1.1-4.37-.4zM121.96 113.25l3.83.2-1.26 7.7 3.9-.6-.87 4.13-6.13-.42zM132.4 113.47l.8 10.46-4.4.82.21-11.01zM144.29 122.67q-1.84 1.59-4.44 1.59-2.6 0-4.43-1.6-1.84-1.58-1.84-3.83t1.84-3.83q1.84-1.6 4.43-1.6 2.6 0 4.44 1.6.92.8 1.39 1.76l-3.72.94q-.2-.5-.66-.9-.79-.68-1.9-.68-1.1 0-1.9.68-.78.68-.78 1.64 0 .97.79 1.65.79.68 1.9.68 1.1 0 1.9-.68.42-.37.62-.84l3.74 1.65q-.46.97-1.38 1.77zM149.68 122.7l-.55 1.56-3.05-1.85 3.83-9 2.91-.2 4.58 9.32-3.62 1.73-.8-2.18zm2.65-3.39l-.87-2.8-1.02 3.1z" style="-inkscape-font-specification:'Funhouse, Normal';font-variant-ligatures:normal;font-variant-caps:normal;font-variant-numeric:normal;font-feature-settings:normal;text-align:start"/>
      <path d="M161.68 116.7l.38 6.61-4.2 1.09.72-7.9-3.17-.26.25-2.87 9.1-.54.33 4.24zM169.09 113.47l.79 10.46-4.4.82.21-11.01zM176.58 124.26q-2.62 0-4.47-1.6-1.85-1.58-1.85-3.83t1.85-3.83q1.85-1.6 4.47-1.6 2.61 0 4.46 1.6 1.85 1.58 1.85 3.83t-1.85 3.84q-1.85 1.59-4.46 1.59zm-.43-3.39q1.11 0 1.9-.68.8-.68.8-1.64 0-.97-.8-1.65-.79-.68-1.9-.68-1.13 0-1.93.68-.79.68-.79 1.65 0 .96.8 1.64.8.68 1.92.68zM187.17 118.83l.77 4.44-3.87.99-.78-10.18 3.88-.67 3.83 5.07.05-5.07 4.8-.5-1.7 11.35-3.08.45zM198.58 119.97q-2.8-.4-2.47-3.48.32-3.08 7.19-3.65l.65 3.5q-3.4-.07-3.65.81-.25.88 2.6 1.02 2.86.13 2.8 3.47-.07 3.34-7.52 3.56l-1.37-3.66q3.82.4 4.2-.38.38-.8-2.43-1.19z" style="-inkscape-font-specification:'Funhouse, Normal';font-variant-ligatures:normal;font-variant-caps:normal;font-variant-numeric:normal;font-feature-settings:normal;text-align:start"/>
    </g>
  </g>
  <g>
    <g style="line-height:1.25;-inkscape-font-specification:'Funhouse, Normal';font-variant-ligatures:normal;font-variant-caps:normal;font-variant-numeric:normal;font-feature-settings:normal;text-align:start">
      <path fill="#fff" stroke="#303f9f" stroke-width=".8945022" d="M61.19 16.55q4.17.41 3.38 4.78-.77 4.37-12.84 5.47l-1.1-6.53q7.94.2 7.94-1.03 0-1.24-3.13-.7l-.86-4.57q3.99-.04 3.95-1.58-.04-1.55-7.07.15l.76-5.5q11.24-.75 12.18 3.6.96 4.35-3.21 5.9z" aria-label="3" font-family="Funhouse" font-size="31.75" font-weight="400" letter-spacing="0" style="-inkscape-font-specification:'Funhouse, Normal';font-variant-ligatures:normal;font-variant-caps:normal;font-variant-numeric:normal;font-feature-settings:normal;text-align:start" word-spacing="0"/>
    </g>
    <g style="line-height:1.25;-inkscape-font-specification:'Funhouse, Normal';font-variant-ligatures:normal;font-variant-caps:normal;font-variant-numeric:normal;font-feature-settings:normal;text-align:start">
      <path fill="#fff" stroke="#303f9f" stroke-width=".8945022" d="M109.16 17.8q-4.72.66-3.9 3.16l6.9-.51 1.55 7.5-16.44-1.7q-.2-11.27 4.6-11.5 4.82-.21 4.4-1.7-.42-1.5-6.16-1.37l1.1-5.91q11.59.95 12.14 6.16.55 5.2-4.19 5.88z" aria-label="2" font-family="Funhouse" font-size="31.75" font-weight="400" letter-spacing="0" style="-inkscape-font-specification:'Funhouse, Normal';font-variant-ligatures:normal;font-variant-caps:normal;font-variant-numeric:normal;font-feature-settings:normal;text-align:start" word-spacing="0"/>
    </g>
    <g fill="#fff" stroke="#303f9f" stroke-width="1.06" aria-label="12" font-family="Funhouse" font-size="31.75" font-weight="400" letter-spacing="0" style="line-height:1.25;-inkscape-font-specification:'Funhouse, Normal';font-variant-ligatures:normal;font-variant-caps:normal;font-variant-numeric:normal;font-feature-settings:normal;text-align:start" word-spacing="0">
      <path stroke-width=".8945022" d="M202.88 26.18l-8.94-.38 1.5-12.36-3.09 1.24-1.21-5.16 9.4-2.89zM215.64 17.8q-4.72.66-3.9 3.16l6.9-.51 1.55 7.5-16.44-1.7q-.21-11.27 4.6-11.5 4.82-.21 4.4-1.7-.42-1.5-6.16-1.37l1.1-5.91q11.59.95 12.14 6.16.55 5.2-4.2 5.88z" style="-inkscape-font-specification:'Funhouse, Normal';font-variant-ligatures:normal;font-variant-caps:normal;font-variant-numeric:normal;font-feature-settings:normal;text-align:start"/>
    </g>
    <g style="line-height:1.25;-inkscape-font-specification:'Funhouse, Normal';font-variant-ligatures:normal;font-variant-caps:normal;font-variant-numeric:normal;font-feature-settings:normal;text-align:start">
      <path fill="#fff" stroke="#303f9f" stroke-width=".8945022" d="M152.95 26.3q-1.09 0-1.86-.76-.76-.77-.76-1.86 0-1.08.76-1.84.77-.77 1.86-.77t1.85.77q.77.76.77 1.84 0 1.09-.77 1.86-.76.76-1.85.76zm-3.37-11.36q5.99-.41 6.1-1.6.12-1.2-8.22.68l-1.18-5.05q15.03-4.13 15.83 2.8.61 5.32-6.67 7.18l.38.94-5.7.98z" aria-label="?" font-family="Funhouse" font-size="31.75" font-weight="400" letter-spacing="0" style="-inkscape-font-specification:'Funhouse, Normal';font-variant-ligatures:normal;font-variant-caps:normal;font-variant-numeric:normal;font-feature-settings:normal;text-align:start" word-spacing="0"/>
    </g>
    <g transform="matrix(.87292 0 0 .87292 -260.1 692.79)">
      <g fill="#f57c00" transform="rotate(45 327.21 -723.68) scale(1.09493)">
        <rect width="7.84" height="23.53" x="303.23" y="-746.43" ry="3.92"/>
        <rect width="7.84" height="23.53" x="-738.58" y="-318.92" ry="3.92" transform="rotate(90)"/>
      </g>
      <rect width="2.21" height="6.35" x="-826.54" y="-267.47" fill="#ffd4a9" ry="1.1" transform="scale(-1 1) rotate(45)"/>
    </g>
    <g transform="rotate(90 -324.82 234.07) scale(.77141)">
      <rect width="7.84" height="18.82" x="-712.05" y="-356.04" fill="#e91e63" ry="3.92"/>
      <rect width="7.84" height="18.82" x="-701.07" y="-356.04" fill="#e91e63" ry="3.92"/>
      <rect width="2.21" height="6.35" x="-710.76" y="-353.53" fill="#facedd" ry="1.1"/>
      <rect width="2.21" height="6.35" x="-699.77" y="-353.53" fill="#facedd" ry="1.1"/>
    </g>
    <g transform="matrix(.87292 0 0 .87292 -211.08 692.79)">
      <g fill="#f57c00" transform="rotate(45 327.21 -723.68) scale(1.09493)">
        <rect width="7.84" height="23.53" x="303.23" y="-746.43" ry="3.92"/>
        <rect width="7.84" height="23.53" x="-738.58" y="-318.92" ry="3.92" transform="rotate(90)"/>
      </g>
      <rect width="2.21" height="6.35" x="-826.54" y="-267.47" fill="#ffd4a9" ry="1.1" transform="scale(-1 1) rotate(45)"/>
    </g>
    <g>
      <g fill="#fff" stroke="#303f9f" stroke-width="1.06" aria-label="20" font-family="Funhouse" font-size="31.75" font-weight="400" letter-spacing="0" style="line-height:1.25;-inkscape-font-specification:'Funhouse, Normal';font-variant-ligatures:normal;font-variant-caps:normal;font-variant-numeric:normal;font-feature-settings:normal;text-align:start" word-spacing="0">
        <path stroke-width=".8945022" d="M62.49 48.06q-4.73.65-3.9 3.15l6.9-.5 1.55 7.5-16.45-1.7q-.2-11.28 4.61-11.5 4.81-.22 4.4-1.71-.42-1.5-6.17-1.36l1.1-5.92q11.6.96 12.14 6.17.55 5.2-4.18 5.87zM78.53 56.62q-4.43 0-7.55-2.69-3.12-2.68-3.12-6.47 0-3.8 3.12-6.48 3.12-2.68 7.55-2.68 4.4 0 7.52 2.68 3.12 2.68 3.12 6.48 0 3.8-3.12 6.47-3.12 2.69-7.52 2.69zm-.74-5.72q1.89 0 3.22-1.15 1.35-1.15 1.35-2.78 0-1.62-1.35-2.77-1.33-1.15-3.22-1.15-1.9 0-3.24 1.15-1.34 1.15-1.34 2.77 0 1.63 1.34 2.78 1.35 1.15 3.24 1.15z" style="-inkscape-font-specification:'Funhouse, Normal';font-variant-ligatures:normal;font-variant-caps:normal;font-variant-numeric:normal;font-feature-settings:normal;text-align:start"/>
      </g>
      <g style="line-height:1.25;-inkscape-font-specification:'Funhouse, Normal';font-variant-ligatures:normal;font-variant-caps:normal;font-variant-numeric:normal;font-feature-settings:normal;text-align:start">
        <path fill="#fff" stroke="#303f9f" stroke-width=".8945022" d="M126.08 46.19q4.74.65 4.19 5.86-.55 5.2-12.14 6.16l-1.1-5.91q5.74.13 6.16-1.36.42-1.5-4.4-1.72-4.8-.22-4.6-11.5l16.45-1.7-1.56 7.51-6.9-.5q-.82 2.5 3.9 3.16z" aria-label="5" font-family="Funhouse" font-size="31.75" font-weight="400" letter-spacing="0" style="-inkscape-font-specification:'Funhouse, Normal';font-variant-ligatures:normal;font-variant-caps:normal;font-variant-numeric:normal;font-feature-settings:normal;text-align:start" word-spacing="0"/>
      </g>
      <g style="line-height:1.25;-inkscape-font-specification:'Funhouse, Normal';font-variant-ligatures:normal;font-variant-caps:normal;font-variant-numeric:normal;font-feature-settings:normal;text-align:start">
        <path fill="#fff" stroke="#303f9f" stroke-width=".8945022" d="M215.6 48.06q-4.73.65-3.9 3.15l6.9-.5 1.55 7.5-16.44-1.7q-.21-11.28 4.6-11.5 4.82-.22 4.4-1.71-.42-1.5-6.17-1.36l1.1-5.92q11.6.96 12.14 6.17.55 5.2-4.18 5.87z" aria-label="2" font-family="Funhouse" font-size="31.75" font-weight="400" letter-spacing="0" style="-inkscape-font-specification:'Funhouse, Normal';font-variant-ligatures:normal;font-variant-caps:normal;font-variant-numeric:normal;font-feature-settings:normal;text-align:start" word-spacing="0"/>
      </g>
      <g style="line-height:1.25;-inkscape-font-specification:'Funhouse, Normal';font-variant-ligatures:normal;font-variant-caps:normal;font-variant-numeric:normal;font-feature-settings:normal;text-align:start">
        <path fill="#fff" stroke="#303f9f" stroke-width=".8945022" d="M165.9 56.55q-1.09 0-1.86-.76-.76-.77-.76-1.85 0-1.09.76-1.85.77-.77 1.86-.77t1.84.77q.78.76.78 1.85 0 1.08-.78 1.85-.75.76-1.84.76zm-3.38-11.35q6-.42 6.11-1.61.12-1.2-8.22.68l-1.18-5.05q15.03-4.12 15.83 2.8.61 5.32-6.67 7.18l.37.94-5.69.98z" aria-label="?" font-family="Funhouse" font-size="31.75" font-weight="400" letter-spacing="0" style="-inkscape-font-specification:'Funhouse, Normal';font-variant-ligatures:normal;font-variant-caps:normal;font-variant-numeric:normal;font-feature-settings:normal;text-align:start" word-spacing="0"/>
      </g>
      <g transform="rotate(90 -377.43 211.71) scale(.77141)">
        <rect width="7.84" height="18.82" x="-712.05" y="-356.04" fill="#e91e63" ry="3.92"/>
        <rect width="7.84" height="18.82" x="-701.07" y="-356.04" fill="#e91e63" ry="3.92"/>
        <rect width="2.21" height="6.35" x="-710.76" y="-353.53" fill="#facedd" ry="1.1"/>
        <rect width="2.21" height="6.35" x="-699.77" y="-353.53" fill="#facedd" ry="1.1"/>
      </g>
      <g transform="matrix(.87292 0 0 .87292 -196.14 723.04)">
        <g fill="#f57c00" transform="rotate(45 327.21 -723.68) scale(1.09493)">
          <rect width="7.84" height="23.53" x="303.23" y="-746.43" ry="3.92"/>
          <rect width="7.84" height="23.53" x="-738.58" y="-318.92" ry="3.92" transform="rotate(90)"/>
        </g>
        <rect width="2.21" height="6.35" x="-826.54" y="-267.47" fill="#ffd4a9" ry="1.1" transform="scale(-1 1) rotate(45)"/>
      </g>
      <g transform="matrix(.87292 0 0 .87292 -151.67 723.04)">
        <g fill="#f57c00" transform="rotate(45 327.21 -723.68) scale(1.09493)">
          <rect width="7.84" height="23.53" x="303.23" y="-746.43" ry="3.92"/>
          <rect width="7.84" height="23.53" x="-738.58" y="-318.92" ry="3.92" transform="rotate(90)"/>
        </g>
        <rect width="2.21" height="6.35" x="-826.54" y="-267.47" fill="#ffd4a9" ry="1.1" transform="scale(-1 1) rotate(45)"/>
      </g>
    </g>
  </g>
</svg>
