<svg xmlns="http://www.w3.org/2000/svg" viewBox="0 0 270.93 135.47">
  <g transform="translate(-1170.5 -160.13)">
    <path fill="#fff" stroke="#9c27b0" stroke-linecap="round" stroke-linejoin="round" stroke-width="1.32" d="M1386.7 220.71a5.18 5.18 0 0 0-5.14 5.25v8.58h21.6c2.9 0 5.22 2.34 5.22 5.23v36.51h26.8a5.18 5.18 0 0 0 5.15-5.24l-9.91-22.54 9.91-22.54c1.17-2.66-2.3-5.25-5.14-5.25z"/>
    <path fill="#9c27b0" d="M1386.28 220.6c-2.15-.1-4.7 3.25-4.7 5.72v8.22H1405.37c-.5-.4-1.05-.87-1.68-1.43-3.47-3.15-16.27-12.07-16.27-12.07a1.92 1.92 0 0 0-1.13-.44z"/>
    <g>
      <path fill="#fff" stroke="#9c27b0" stroke-linecap="round" stroke-linejoin="round" stroke-width="1.32" d="M1176.74 220.71c-2.85 0-6.31 2.6-5.15 5.25l9.92 22.54-9.92 22.54c0 2.9 2.3 5.24 5.15 5.24h26.72v-36.51c0-2.9 2.33-5.23 5.22-5.23h21.69v-8.58c0-2.91-2.3-5.25-5.15-5.25z"/>
      <path fill="#9c27b0" d="M1225.65 220.6c-.4.02-.78.16-1.13.44 0 0-12.8 8.92-16.28 12.07-.62.56-1.18 1.03-1.69 1.43h23.79v-8.22c0-2.47-2.55-5.82-4.7-5.72z"/>
    </g>
    <rect width="204.93" height="55.37" x="1203.46" y="234.54" fill="#fff" stroke="#9c27b0" stroke-linecap="round" stroke-linejoin="round" stroke-width="1.32" ry="5.23"/>
  </g>
  <g fill="#9c27b0" stroke-width=".26" aria-label="11 division table" font-family="Funhouse" font-size="19.4" font-weight="400" letter-spacing="0" style="line-height:1.25;-inkscape-font-specification:'Funhouse, Normal';font-variant-ligatures:normal;font-variant-caps:normal;font-variant-numeric:normal;font-feature-settings:normal;text-align:start" word-spacing="0">
    <path d="M56.8 108.88l-6.48-.28 1.09-8.95-2.24.9-.88-3.74 6.81-2.09zM64.9 108.88l-6.47-.28 1.08-8.95-2.23.9-.88-3.74 6.81-2.09zM70.8 109l-.6-13.26q12.91 0 12.91 6.64 0 6.63-12.31 6.63zm3.37-9.74l.64 4.58q4.1.02 4.1-2.28t-4.74-2.3zM88 95.82l.97 12.78-5.36 1.01.24-13.46zM94.4 109l-4.96-9.85 4.01-3.4 2.84 7.57 1.86-6.7 5.3 1.5-5.18 10.42zM108.32 95.82l.96 12.78-5.36 1.01.25-13.46zM113.18 103.77q-3.42-.48-3.03-4.26.4-3.77 8.8-4.46l.8 4.28q-4.17-.09-4.47.99-.3 1.08 3.18 1.24 3.49.16 3.41 4.25-.07 4.08-9.18 4.35l-1.67-4.48q4.66.5 5.12-.46.47-.98-2.96-1.45zM126.8 95.82l.98 12.78-5.37 1.01.25-13.46zM135.97 109q-3.2 0-5.47-1.93-2.25-1.95-2.25-4.7 0-2.74 2.25-4.68 2.27-1.95 5.47-1.95 3.2 0 5.45 1.95 2.26 1.94 2.26 4.69 0 2.74-2.26 4.69-2.26 1.94-5.45 1.94zm-.53-4.13q1.36 0 2.33-.84.98-.83.98-2 0-1.18-.98-2.01-.97-.84-2.33-.84-1.37 0-2.35.84-.97.83-.97 2 0 1.18.97 2.01.98.84 2.35.84zM148.91 102.38l.94 5.42-4.73 1.2-.95-12.43 4.74-.83 4.68 6.2.06-6.2 5.87-.6-2.08 13.87-3.76.55zM172.48 99.78l.47 8.07-5.14 1.33.88-9.65-3.87-.33.3-3.5 11.11-.67.41 5.19zM179.14 107.11l-.66 1.9-3.73-2.26 4.68-11 3.56-.25 5.6 11.4-4.43 2.1-.97-2.65zm3.24-4.15l-1.06-3.43-1.25 3.8zM192.74 100.4q2.94-.55 2.88-1.67-.06-1.12-3-.35zm.45 5.62q4.3-.17 4.3-1.5.02-1.32-4.44-1.26zm-4.12 2.99l.35-12.27q6.78-2.76 9.32-.27 2.53 2.5-.65 5.03 4.83 1.48 3.12 4.86-1.7 3.36-12.14 2.65z" style="-inkscape-font-specification:'Funhouse, Normal';font-variant-ligatures:normal;font-variant-caps:normal;font-variant-numeric:normal;font-feature-settings:normal;text-align:start"/>
    <path d="M202.91 95.55l4.67.25-1.53 9.42 4.76-.74-1.06 5.05-7.49-.52zM221.32 94.04l.25 5.02-5.9.63.08 1.15 3.87-.36.34 3.43-4.04.3.07.92 5.72-.43.85 4.3-11.28.4 1.15-13.67z" style="-inkscape-font-specification:'Funhouse, Normal';font-variant-ligatures:normal;font-variant-caps:normal;font-variant-numeric:normal;font-feature-settings:normal;text-align:start"/>
  </g>
  <g>
    <g transform="translate(-293.6 825.67) scale(1.06286)">
      <rect width="7.84" height="18.82" x="-746.85" y="-400.34" fill="#9c27b0" ry="3.92" transform="rotate(90)"/>
      <rect width="2.21" height="6.35" x="-745.57" y="-397.83" fill="#eeccf4" ry="1.1" transform="rotate(90)"/>
      <circle cx="390.93" cy="-751.91" r="3.56" fill="#9c27b0"/>
      <circle cx="390.93" cy="-733.95" r="3.56" fill="#9c27b0"/>
      <ellipse cx="754.53" cy="-390.09" fill="#eeccf4" rx=".76" ry="1.42" transform="rotate(-35.13)"/>
      <ellipse cx="744.11" cy="-375.27" fill="#eeccf4" rx=".76" ry="1.42" transform="rotate(-35.13)"/>
    </g>
    <g transform="matrix(0 .88688 -.88688 0 -110.63 659.77)">
      <rect width="7.84" height="18.82" x="-712.05" y="-356.04" fill="#e91e63" ry="3.92"/>
      <rect width="7.84" height="18.82" x="-701.07" y="-356.04" fill="#e91e63" ry="3.92"/>
      <rect width="2.21" height="6.35" x="-710.76" y="-353.53" fill="#facedd" ry="1.1"/>
      <rect width="2.21" height="6.35" x="-699.77" y="-353.53" fill="#facedd" ry="1.1"/>
    </g>
    <g fill="#fff" stroke="#9c27b0" stroke-width="1.06" font-family="Funhouse" font-size="42.33" font-weight="400" letter-spacing="0" word-spacing="0">
      <g style="line-height:1.25;-inkscape-font-specification:'Funhouse, Normal';font-variant-ligatures:normal;font-variant-caps:normal;font-variant-numeric:normal;font-feature-settings:normal;text-align:start">
        <path d="M84.92 52.13l-14.14-.6 2.37-19.54-4.87 1.97-1.93-8.15 14.87-4.57z" aria-label="1" style="-inkscape-font-specification:'Funhouse, Normal';font-variant-ligatures:normal;font-variant-caps:normal;font-variant-numeric:normal;font-feature-settings:normal;text-align:start"/>
      </g>
      <g style="line-height:1.25;-inkscape-font-specification:'Funhouse, Normal';font-variant-ligatures:normal;font-variant-caps:normal;font-variant-numeric:normal;font-feature-settings:normal;text-align:start">
        <path d="M104.18 52.13l-14.14-.6 2.38-19.54-4.88 1.97-1.92-8.15 14.86-4.57z" aria-label="1" style="-inkscape-font-specification:'Funhouse, Normal';font-variant-ligatures:normal;font-variant-caps:normal;font-variant-numeric:normal;font-feature-settings:normal;text-align:start"/>
      </g>
    </g>
    <g fill="#fff" stroke="#9c27b0" stroke-width="1.06" font-family="Funhouse" font-size="42.33" font-weight="400" letter-spacing="0" word-spacing="0">
      <g style="line-height:1.25;-inkscape-font-specification:'Funhouse, Normal';font-variant-ligatures:normal;font-variant-caps:normal;font-variant-numeric:normal;font-feature-settings:normal;text-align:start">
        <path d="M160.46 52.13l-14.14-.6 2.38-19.54-4.88 1.97-1.92-8.15 14.86-4.57z" aria-label="1" style="-inkscape-font-specification:'Funhouse, Normal';font-variant-ligatures:normal;font-variant-caps:normal;font-variant-numeric:normal;font-feature-settings:normal;text-align:start"/>
      </g>
      <g style="line-height:1.25;-inkscape-font-specification:'Funhouse, Normal';font-variant-ligatures:normal;font-variant-caps:normal;font-variant-numeric:normal;font-feature-settings:normal;text-align:start">
        <path d="M179.72 52.13l-14.14-.6 2.38-19.54-4.88 1.97-1.92-8.15 14.86-4.57z" aria-label="1" style="-inkscape-font-specification:'Funhouse, Normal';font-variant-ligatures:normal;font-variant-caps:normal;font-variant-numeric:normal;font-feature-settings:normal;text-align:start"/>
      </g>
    </g>
  </g>
</svg>
