<svg xmlns="http://www.w3.org/2000/svg" viewBox="0 0 270.93 135.47">
  <g transform="translate(-1170.5)">
    <path fill="#fff" stroke="#9c27b0" stroke-linecap="round" stroke-linejoin="round" stroke-width="1.32" d="M1386.7 60.58a5.18 5.18 0 0 0-5.14 5.25v8.59h21.6c2.9 0 5.22 2.33 5.22 5.22v36.52h26.8a5.18 5.18 0 0 0 5.15-5.25l-9.91-22.54 9.91-22.54c1.17-2.65-2.3-5.25-5.14-5.25z"/>
    <path fill="#9c27b0" d="M1386.28 60.48c-2.15-.1-4.7 3.24-4.7 5.7v8.24H1405.37c-.5-.4-1.05-.87-1.68-1.44-3.47-3.15-16.27-12.06-16.27-12.06a1.92 1.92 0 0 0-1.13-.44z"/>
    <g>
      <path fill="#fff" stroke="#9c27b0" stroke-linecap="round" stroke-linejoin="round" stroke-width="1.32" d="M1176.74 60.58c-2.85 0-6.31 2.6-5.15 5.25l9.92 22.54-9.92 22.54c0 2.9 2.3 5.25 5.15 5.25h26.72V79.64c0-2.9 2.33-5.22 5.22-5.22h21.69v-8.6c0-2.9-2.3-5.24-5.15-5.24z"/>
      <path fill="#9c27b0" d="M1225.65 60.48c-.4.02-.78.15-1.13.44 0 0-12.8 8.91-16.28 12.06-.62.57-1.18 1.03-1.69 1.44h23.79v-8.23c0-2.47-2.55-5.81-4.7-5.71z"/>
    </g>
    <rect width="204.93" height="55.37" x="1203.46" y="74.42" fill="#fff" stroke="#9c27b0" stroke-linecap="round" stroke-linejoin="round" stroke-width="1.32" ry="5.23"/>
  </g>
  <g fill="#9c27b0" stroke-width=".26" aria-label="6 division table" font-family="Funhouse" font-size="19.4" font-weight="400" letter-spacing="0" style="line-height:1.25;-inkscape-font-specification:'Funhouse, Normal';font-variant-ligatures:normal;font-variant-caps:normal;font-variant-numeric:normal;font-feature-settings:normal;text-align:start" word-spacing="0">
    <path d="M55.55 108.93q-7.36-.08-4.43-12.94l5.44.96-1.72 3.42q7.53-1.57 7.8 3.54.28 5.1-7.1 5.02zm.6-3.71q1.68 0 1.68-1.14t-1.68-1.14q-1.66 0-1.66 1.14t1.66 1.14zM68.8 109l-.6-13.26q12.92 0 12.92 6.64 0 6.63-12.32 6.63zm3.37-9.74l.64 4.58q4.1.02 4.1-2.28t-4.74-2.3zM86 95.82l.97 12.78-5.36 1.01.25-13.46zM92.4 109l-4.95-9.85 4-3.4 2.85 7.57 1.85-6.7 5.3 1.5-5.17 10.42zM106.32 95.82l.96 12.78-5.36 1.01.25-13.46zM111.18 103.77q-3.42-.48-3.02-4.26.4-3.77 8.79-4.46l.8 4.28q-4.17-.09-4.47.99-.3 1.08 3.18 1.24 3.5.16 3.42 4.25-.08 4.08-9.18 4.35l-1.68-4.48q4.66.5 5.12-.46.47-.98-2.96-1.45zM124.81 95.82l.97 12.78-5.36 1.01.24-13.46zM133.97 109q-3.2 0-5.46-1.93-2.26-1.95-2.26-4.7 0-2.74 2.26-4.68 2.26-1.95 5.46-1.95t5.45 1.95q2.26 1.94 2.26 4.69 0 2.74-2.26 4.69-2.25 1.94-5.45 1.94zm-.53-4.13q1.37 0 2.33-.84.98-.83.98-2 0-1.18-.98-2.01-.96-.84-2.33-.84t-2.35.84q-.96.83-.96 2 0 1.18.96 2.01.98.84 2.35.84zM146.91 102.38l.94 5.42-4.73 1.2-.95-12.43 4.74-.83 4.68 6.2.06-6.2 5.88-.6-2.09 13.87-3.76.55zM170.49 99.78l.46 8.07-5.13 1.33.88-9.65-3.88-.33.3-3.5 11.12-.67.4 5.19zM177.15 107.11l-.67 1.9-3.73-2.26 4.68-11 3.56-.25 5.6 11.4-4.42 2.1-.98-2.65zm3.24-4.15l-1.06-3.43-1.26 3.8zM190.74 100.4q2.94-.55 2.88-1.67-.06-1.12-3-.35zm.46 5.62q4.29-.17 4.3-1.5.02-1.32-4.45-1.26zm-4.13 2.99l.36-12.27q6.77-2.76 9.3-.27 2.55 2.5-.64 5.03 4.84 1.48 3.12 4.86-1.7 3.36-12.14 2.65z" style="-inkscape-font-specification:'Funhouse, Normal';font-variant-ligatures:normal;font-variant-caps:normal;font-variant-numeric:normal;font-feature-settings:normal;text-align:start"/>
    <path d="M200.92 95.55l4.67.25-1.54 9.42 4.76-.74-1.05 5.05-7.5-.52zM219.32 94.04l.25 5.02-5.9.63.08 1.15 3.87-.36.34 3.43-4.04.3.07.92 5.72-.43.86 4.3-11.29.4 1.15-13.67z" style="-inkscape-font-specification:'Funhouse, Normal';font-variant-ligatures:normal;font-variant-caps:normal;font-variant-numeric:normal;font-feature-settings:normal;text-align:start"/>
  </g>
  <g>
    <g transform="translate(-293.6 828.3) scale(1.06286)">
      <rect width="7.84" height="18.82" x="-746.85" y="-400.34" fill="#9c27b0" ry="3.92" transform="rotate(90)"/>
      <rect width="2.21" height="6.35" x="-745.57" y="-397.83" fill="#eeccf4" ry="1.1" transform="rotate(90)"/>
      <circle cx="390.93" cy="-751.91" r="3.56" fill="#9c27b0"/>
      <circle cx="390.93" cy="-733.95" r="3.56" fill="#9c27b0"/>
      <ellipse cx="754.53" cy="-390.09" fill="#eeccf4" rx=".76" ry="1.42" transform="rotate(-35.13)"/>
      <ellipse cx="744.11" cy="-375.27" fill="#eeccf4" rx=".76" ry="1.42" transform="rotate(-35.13)"/>
    </g>
    <g transform="matrix(0 .88688 -.88688 0 -119.35 658.4)">
      <rect width="7.84" height="18.82" x="-712.05" y="-356.04" fill="#e91e63" ry="3.92"/>
      <rect width="7.84" height="18.82" x="-701.07" y="-356.04" fill="#e91e63" ry="3.92"/>
      <rect width="2.21" height="6.35" x="-710.76" y="-353.53" fill="#facedd" ry="1.1"/>
      <rect width="2.21" height="6.35" x="-699.77" y="-353.53" fill="#facedd" ry="1.1"/>
    </g>
    <g style="line-height:1.25;-inkscape-font-specification:'Funhouse, Normal';font-variant-ligatures:normal;font-variant-caps:normal;font-variant-numeric:normal;font-feature-settings:normal;text-align:start">
      <path fill="#fff" stroke="#9c27b0" stroke-width="1.06" d="M86.45 49.4Q70.4 49.2 76.8 21.16l11.87 2.09-3.77 7.46q16.44-3.41 17.04 7.73.6 11.12-15.49 10.96zm1.33-8.1q3.66 0 3.66-2.49 0-2.48-3.66-2.48-3.64 0-3.64 2.48t3.64 2.48z" aria-label="6" font-family="Funhouse" font-size="42.33" font-weight="400" letter-spacing="0" style="-inkscape-font-specification:'Funhouse, Normal';font-variant-ligatures:normal;font-variant-caps:normal;font-variant-numeric:normal;font-feature-settings:normal;text-align:start" word-spacing="0"/>
    </g>
    <g style="line-height:1.25;-inkscape-font-specification:'Funhouse, Normal';font-variant-ligatures:normal;font-variant-caps:normal;font-variant-numeric:normal;font-feature-settings:normal;text-align:start">
      <path fill="#fff" stroke="#9c27b0" stroke-width="1.06" d="M153.87 49.4q-16.06-.19-9.66-28.24l11.87 2.09-3.76 7.46q16.43-3.41 17.03 7.73.6 11.12-15.48 10.96zm1.32-8.1q3.66 0 3.66-2.49 0-2.48-3.66-2.48-3.64 0-3.64 2.48t3.64 2.48z" aria-label="6" font-family="Funhouse" font-size="42.33" font-weight="400" letter-spacing="0" style="-inkscape-font-specification:'Funhouse, Normal';font-variant-ligatures:normal;font-variant-caps:normal;font-variant-numeric:normal;font-feature-settings:normal;text-align:start" word-spacing="0"/>
    </g>
  </g>
</svg>
