<svg xmlns="http://www.w3.org/2000/svg" viewBox="0 0 270.93 135.47">
  <g transform="translate(-285.45 -160.13)">
    <path fill="#fff" stroke="#9c27b0" stroke-linecap="round" stroke-linejoin="round" stroke-width="1.32" d="M501.66 220.71a5.18 5.18 0 0 0-5.15 5.25v8.58h21.6c2.9 0 5.23 2.34 5.23 5.23v36.51h26.8a5.18 5.18 0 0 0 5.14-5.24l-9.91-22.54 9.91-22.54c1.17-2.66-2.3-5.25-5.14-5.25z"/>
    <path fill="#9c27b0" d="M501.23 220.6c-2.15-.1-4.7 3.25-4.7 5.72v8.22h23.79c-.5-.4-1.06-.87-1.69-1.43-3.47-3.15-16.27-12.07-16.27-12.07a1.92 1.92 0 0 0-1.13-.44z"/>
    <g>
      <path fill="#fff" stroke="#9c27b0" stroke-linecap="round" stroke-linejoin="round" stroke-width="1.32" d="M291.69 220.71c-2.85 0-6.31 2.6-5.15 5.25l9.92 22.54-9.92 22.54c0 2.9 2.3 5.24 5.15 5.24h26.72v-36.51c0-2.9 2.33-5.23 5.22-5.23h21.69v-8.58c0-2.91-2.3-5.25-5.15-5.25z"/>
      <path fill="#9c27b0" d="M340.6 220.6c-.4.02-.78.16-1.13.44 0 0-12.8 8.92-16.28 12.07-.62.56-1.18 1.03-1.68 1.43h23.78v-8.22c0-2.47-2.54-5.82-4.69-5.72z"/>
    </g>
    <rect width="204.93" height="55.37" x="318.41" y="234.54" fill="#fff" stroke="#9c27b0" stroke-linecap="round" stroke-linejoin="round" stroke-width="1.32" ry="5.23"/>
  </g>
  <g fill="#9c27b0" stroke-width=".26" aria-label="8 division table" font-family="Funhouse" font-size="19.4" font-weight="400" letter-spacing="0" style="line-height:1.25;-inkscape-font-specification:'Funhouse, Normal';font-variant-ligatures:normal;font-variant-caps:normal;font-variant-numeric:normal;font-feature-settings:normal;text-align:start" word-spacing="0">
    <path d="M56.02 98.04q-.52 0-.9.3-.35.28-.35.7 0 .42.36.71.37.3.89.3.51 0 .87-.3.37-.3.37-.7 0-.43-.37-.72-.36-.3-.87-.3zm.19 4.87q-.79 0-1.35.32t-.56.79q0 .46.56.8.56.31 1.35.31.8 0 1.35-.32.56-.33.56-.8 0-.46-.56-.78t-1.35-.32zm3.48-1.55q.36.2.7.45 1.57 1.18 1.57 2.86 0 1.67-1.57 2.85-1.57 1.18-3.78 1.18-2.23 0-3.8-1.18-1.57-1.18-1.57-2.85 0-1.68 1.58-2.86.24-.18.5-.34-1-.99-1-2.34 0-1.5 1.2-2.53 1.22-1.05 2.93-1.05 1.71 0 2.92 1.05 1.22 1.04 1.22 2.53 0 1.28-.9 2.23zM67.84 109l-.6-13.26q12.92 0 12.92 6.64 0 6.63-12.32 6.63zm3.38-9.74l.63 4.58q4.1.02 4.1-2.28t-4.73-2.3zM85.05 95.82L86 108.6l-5.36 1.01.25-13.46zM91.44 109l-4.95-9.85 4-3.4 2.85 7.57 1.85-6.7 5.3 1.5-5.17 10.42zM105.36 95.82l.97 12.78-5.37 1.01.25-13.46zM110.22 103.77q-3.42-.48-3.02-4.26.4-3.77 8.79-4.46l.8 4.28q-4.16-.09-4.47.99-.3 1.08 3.19 1.24 3.48.16 3.4 4.25-.07 4.08-9.17 4.35l-1.68-4.48q4.66.5 5.13-.46.46-.98-2.97-1.45zM123.85 95.82l.97 12.78-5.36 1.01.24-13.46zM133.01 109q-3.2 0-5.46-1.93-2.26-1.95-2.26-4.7 0-2.74 2.26-4.68 2.26-1.95 5.46-1.95t5.45 1.95q2.27 1.94 2.27 4.69 0 2.74-2.27 4.69-2.25 1.94-5.45 1.94zm-.53-4.13q1.37 0 2.33-.84.98-.83.98-2 0-1.18-.98-2.01-.96-.84-2.33-.84t-2.35.84q-.96.83-.96 2 0 1.18.96 2.01.98.84 2.35.84zM145.96 102.38l.93 5.42-4.72 1.2-.96-12.43 4.75-.83 4.68 6.2.05-6.2 5.88-.6-2.09 13.87-3.76.55zM169.53 99.78l.46 8.07-5.13 1.33.88-9.65-3.88-.33.3-3.5 11.12-.67.4 5.19zM176.19 107.11l-.67 1.9-3.73-2.26 4.68-11 3.56-.25 5.6 11.4-4.42 2.1-.98-2.65zm3.24-4.15l-1.06-3.43-1.25 3.8zM189.78 100.4q2.94-.55 2.88-1.67-.05-1.12-3-.35zm.46 5.62q4.29-.17 4.3-1.5.02-1.32-4.44-1.26zm-4.12 2.99l.35-12.27q6.77-2.76 9.3-.27 2.55 2.5-.63 5.03 4.83 1.48 3.11 4.86-1.7 3.36-12.13 2.65z" style="-inkscape-font-specification:'Funhouse, Normal';font-variant-ligatures:normal;font-variant-caps:normal;font-variant-numeric:normal;font-feature-settings:normal;text-align:start"/>
    <path d="M199.96 95.55l4.67.25-1.54 9.42 4.76-.74-1.05 5.05-7.5-.52zM218.37 94.04l.24 5.02-5.9.63.08 1.15 3.87-.36.34 3.43-4.03.3.06.92 5.72-.43.86 4.3-11.29.4 1.15-13.67z" style="-inkscape-font-specification:'Funhouse, Normal';font-variant-ligatures:normal;font-variant-caps:normal;font-variant-numeric:normal;font-feature-settings:normal;text-align:start"/>
  </g>
  <g>
    <g transform="translate(-295.93 825.67) scale(1.06286)">
      <rect width="7.84" height="18.82" x="-746.85" y="-400.34" fill="#9c27b0" ry="3.92" transform="rotate(90)"/>
      <rect width="2.21" height="6.35" x="-745.57" y="-397.83" fill="#eeccf4" ry="1.1" transform="rotate(90)"/>
      <circle cx="390.93" cy="-751.91" r="3.56" fill="#9c27b0"/>
      <circle cx="390.93" cy="-733.95" r="3.56" fill="#9c27b0"/>
      <ellipse cx="754.53" cy="-390.09" fill="#eeccf4" rx=".76" ry="1.42" transform="rotate(-35.13)"/>
      <ellipse cx="744.11" cy="-375.27" fill="#eeccf4" rx=".76" ry="1.42" transform="rotate(-35.13)"/>
    </g>
    <g transform="matrix(0 .88688 -.88688 0 -121.16 658.59)">
      <rect width="7.84" height="18.82" x="-712.05" y="-356.04" fill="#e91e63" ry="3.92"/>
      <rect width="7.84" height="18.82" x="-701.07" y="-356.04" fill="#e91e63" ry="3.92"/>
      <rect width="2.21" height="6.35" x="-710.76" y="-353.53" fill="#facedd" ry="1.1"/>
      <rect width="2.21" height="6.35" x="-699.77" y="-353.53" fill="#facedd" ry="1.1"/>
    </g>
    <g style="line-height:1.25;-inkscape-font-specification:'Funhouse, Normal';font-variant-ligatures:normal;font-variant-caps:normal;font-variant-numeric:normal;font-feature-settings:normal;text-align:start">
      <path fill="#fff" stroke="#9c27b0" stroke-width="1.06" d="M87.2 26.52q-1.15 0-1.95.64-.79.64-.79 1.55 0 .9.79 1.55.8.64 1.94.64 1.12 0 1.9-.64.81-.64.81-1.55t-.8-1.55q-.8-.64-1.9-.64zm.4 10.62q-1.71 0-2.93.7-1.22.7-1.22 1.72 0 1.01 1.22 1.74 1.22.7 2.94.7 1.73 0 2.95-.7 1.22-.73 1.22-1.74t-1.22-1.71q-1.22-.7-2.95-.7zm7.6-3.37q.8.44 1.54.97 3.41 2.59 3.41 6.25 0 3.64-3.43 6.22-3.41 2.58-8.25 2.58-4.85 0-8.29-2.58-3.4-2.58-3.4-6.22 0-3.66 3.43-6.25.53-.39 1.1-.74-2.2-2.15-2.2-5.1 0-3.25 2.65-5.52 2.64-2.3 6.38-2.3 3.72 0 6.37 2.3 2.65 2.27 2.65 5.51 0 2.8-1.97 4.88z" aria-label="8" font-family="Funhouse" font-size="42.33" font-weight="400" letter-spacing="0" style="-inkscape-font-specification:'Funhouse, Normal';font-variant-ligatures:normal;font-variant-caps:normal;font-variant-numeric:normal;font-feature-settings:normal;text-align:start" word-spacing="0"/>
    </g>
    <g style="line-height:1.25;-inkscape-font-specification:'Funhouse, Normal';font-variant-ligatures:normal;font-variant-caps:normal;font-variant-numeric:normal;font-feature-settings:normal;text-align:start">
      <path fill="#fff" stroke="#9c27b0" stroke-width="1.06" d="M152.8 26.52q-1.14 0-1.94.64-.79.64-.79 1.55 0 .9.79 1.55.8.64 1.94.64 1.12 0 1.9-.64.8-.64.8-1.55t-.8-1.55q-.78-.64-1.9-.64zm.41 10.62q-1.71 0-2.93.7-1.22.7-1.22 1.72 0 1.01 1.22 1.74 1.22.7 2.93.7 1.74 0 2.96-.7 1.22-.73 1.22-1.74t-1.22-1.71q-1.22-.7-2.96-.7zm7.59-3.37q.8.44 1.55.97 3.41 2.59 3.41 6.25 0 3.64-3.43 6.22-3.41 2.58-8.25 2.58-4.86 0-8.29-2.58-3.4-2.58-3.4-6.22 0-3.66 3.42-6.25.54-.39 1.1-.74-2.2-2.15-2.2-5.1 0-3.25 2.65-5.52 2.65-2.3 6.39-2.3 3.72 0 6.37 2.3 2.64 2.27 2.64 5.51 0 2.8-1.96 4.88z" aria-label="8" font-family="Funhouse" font-size="42.33" font-weight="400" letter-spacing="0" style="-inkscape-font-specification:'Funhouse, Normal';font-variant-ligatures:normal;font-variant-caps:normal;font-variant-numeric:normal;font-feature-settings:normal;text-align:start" word-spacing="0"/>
    </g>
  </g>
</svg>
