<svg xmlns="http://www.w3.org/2000/svg" viewBox="0 0 270.93 135.47">
  <g transform="translate(0 -652.23)">
    <path fill="#fff" stroke="#9c27b0" stroke-linecap="round" stroke-linejoin="round" stroke-width="1.32" d="M216.2 712.82a5.18 5.18 0 0 0-5.14 5.24v8.59h21.6c2.9 0 5.23 2.33 5.23 5.22v36.52h26.8a5.18 5.18 0 0 0 5.15-5.25l-9.92-22.54 9.92-22.54c1.16-2.65-2.3-5.24-5.15-5.24z"/>
    <path fill="#9c27b0" d="M215.78 712.7c-2.15-.1-4.69 3.26-4.69 5.72v8.23h23.78c-.5-.4-1.06-.87-1.68-1.44-3.48-3.15-16.28-12.06-16.28-12.06a1.92 1.92 0 0 0-1.13-.44z"/>
    <g>
      <path fill="#fff" stroke="#9c27b0" stroke-linecap="round" stroke-linejoin="round" stroke-width="1.32" d="M6.24 712.82c-2.85 0-6.3 2.59-5.14 5.24L11 740.6 1.1 763.14c0 2.9 2.3 5.25 5.14 5.25h26.72v-36.52c0-2.89 2.33-5.22 5.23-5.22h21.68v-8.59c0-2.9-2.3-5.24-5.15-5.24z"/>
      <path fill="#9c27b0" d="M55.15 712.7c-.4.03-.78.16-1.13.45 0 0-12.8 8.91-16.27 12.06-.63.57-1.19 1.03-1.7 1.44h23.79v-8.23c0-2.46-2.54-5.81-4.69-5.71z"/>
    </g>
    <rect width="204.93" height="55.37" x="32.96" y="726.65" fill="#fff" stroke="#9c27b0" stroke-linecap="round" stroke-linejoin="round" stroke-width="1.32" ry="5.23"/>
  </g>
  <g fill="#9c27b0" stroke-width=".26" font-family="Funhouse" font-size="15.88" font-weight="400" letter-spacing="0" word-spacing="0">
    <g aria-label="missing number" style="line-height:1.25;-inkscape-font-specification:'Funhouse, Normal';font-variant-ligatures:normal;font-variant-caps:normal;font-variant-numeric:normal;font-feature-settings:normal;text-align:start">
      <path d="M76.94 78.87l.65 10.22-3.95.34-.21-5.23-.8 3.6-3.55.49-1.44-3.71.52 4.4-3.62.74.5-10.85 3.55-.47 1.97 6.2 2.39-6.02zM81.59 78.93l.79 10.46-4.39.83.2-11.02zM85.57 85.44q-2.8-.4-2.48-3.48.33-3.09 7.2-3.66l.65 3.5q-3.4-.07-3.65.81-.25.89 2.6 1.02t2.8 3.47q-.07 3.34-7.52 3.57L83.8 87q3.81.41 4.2-.38.37-.8-2.43-1.18z" style="-inkscape-font-specification:'Funhouse, Normal';font-variant-ligatures:normal;font-variant-caps:normal;font-variant-numeric:normal;font-feature-settings:normal;text-align:start"/>
      <path d="M95.12 85.44q-2.8-.4-2.48-3.48.33-3.09 7.2-3.66l.65 3.5q-3.4-.07-3.65.81-.25.89 2.6 1.02t2.8 3.47q-.07 3.34-7.52 3.57L93.35 87q3.81.41 4.2-.38.37-.8-2.43-1.18zM106.27 78.93l.79 10.46-4.39.83.2-11.02zM111.33 84.3l.77 4.44-3.87.98-.78-10.17 3.88-.68 3.83 5.07.05-5.07 4.8-.5-1.7 11.35-3.08.45zM132.36 89.61l-4.41 1.12.08-1.22q-.86.21-1.82.21-2.6 0-4.43-1.59-1.84-1.59-1.84-3.83 0-2.25 1.84-3.84 1.84-1.59 4.43-1.59 2.6 0 4.44 1.59.92.8 1.39 1.77l-3.73.94q-.18-.5-.65-.9-.79-.69-1.9-.69-1.1 0-1.9.69-.79.68-.79 1.64 0 .96.8 1.64.79.68 1.9.68 1.1 0 1.9-.68.42-.37.65-.82l3.52-.15zM140.57 84.3l.77 4.44-3.87.98-.78-10.17 3.88-.68 3.83 5.07.05-5.07 4.8-.5-1.7 11.35-3.08.45z" style="-inkscape-font-specification:'Funhouse, Normal';font-variant-ligatures:normal;font-variant-caps:normal;font-variant-numeric:normal;font-feature-settings:normal;text-align:start"/>
      <path d="M150.17 79.41l4.14.81q-2.07 6.33.58 6.4 3.15-.02 1.83-6.56l3.78-1.19q1.74 10.76-5.6 10.85-7.42-.07-4.73-10.3z" style="-inkscape-font-specification:'Funhouse, Normal';font-variant-ligatures:normal;font-variant-caps:normal;font-variant-numeric:normal;font-feature-settings:normal;text-align:start"/>
      <path d="M173.61 78.87l.66 10.22-3.96.34-.2-5.23-.8 3.6-3.56.49-1.44-3.71.52 4.4-3.62.74.5-10.85 3.56-.47 1.96 6.2 2.4-6.02zM177.67 82.68q2.4-.45 2.35-1.37-.04-.91-2.45-.28zm.37 4.6q3.51-.14 3.52-1.22.02-1.09-3.64-1.04zm-3.37 2.44l.29-10.04q5.54-2.25 7.61-.21 2.08 2.04-.52 4.1 3.95 1.22 2.55 3.98-1.4 2.75-9.93 2.17z" style="-inkscape-font-specification:'Funhouse, Normal';font-variant-ligatures:normal;font-variant-caps:normal;font-variant-numeric:normal;font-feature-settings:normal;text-align:start"/>
      <path d="M193.68 77.48l.2 4.1-4.82.52.06.94 3.16-.3.28 2.81-3.3.24.05.76 4.68-.35.7 3.52-9.23.32.94-11.18zM198.87 81.43l.1 2.1q3.88 0 3.88-.78t-3.98-1.32zm.52 7.66l-4.32.61.9-11.57q9.98.74 10.32 4 .34 3.24-3.44 4.5l3.1 1.67-3.17 2.82-3.64-4.5z" style="-inkscape-font-specification:'Funhouse, Normal';font-variant-ligatures:normal;font-variant-caps:normal;font-variant-numeric:normal;font-feature-settings:normal;text-align:start"/>
    </g>
    <g aria-label="2, 5, 10 11" style="line-height:1.25;-inkscape-font-specification:'Funhouse, Normal';font-variant-ligatures:normal;font-variant-caps:normal;font-variant-numeric:normal;font-feature-settings:normal;text-align:start">
      <path d="M99.58 119.33q-2.8.39-2.3 1.87l4.08-.3.92 4.45-9.74-1.01q-.13-6.68 2.72-6.81 2.86-.14 2.6-1.02-.24-.88-3.64-.8l.65-3.5q6.87.56 7.2 3.64.32 3.09-2.49 3.48zM106.68 121.81l.04 4.65-3.95.27 1.42-5.16zM118.22 118.22q2.8.4 2.48 3.48-.33 3.08-7.2 3.65l-.65-3.5q3.4.07 3.65-.81.25-.89-2.6-1.02t-2.73-6.81l9.74-1-.92 4.44-4.08-.3q-.5 1.48 2.3 1.87zM124.04 121.81l.04 4.65-3.95.27 1.42-5.16zM135.37 124.3l-5.3-.23.89-7.33-1.83.74-.72-3.05 5.57-1.72zM142.07 124.4q-2.62 0-4.47-1.59-1.84-1.59-1.84-3.83 0-2.25 1.84-3.84 1.85-1.59 4.47-1.59 2.62 0 4.46 1.59 1.85 1.59 1.85 3.84 0 2.24-1.85 3.83-1.84 1.6-4.46 1.6zm-.43-3.39q1.12 0 1.9-.68.8-.68.8-1.64 0-.96-.8-1.64-.78-.69-1.9-.69-1.12 0-1.92.69-.8.68-.8 1.64 0 .96.8 1.64.8.68 1.92.68zM171.5 124.3l-5.31-.23.9-7.33-1.84.74-.72-3.05 5.57-1.72zM178.13 124.3l-5.3-.23.89-7.33-1.83.74-.72-3.05 5.57-1.72z" style="-inkscape-font-specification:'Funhouse, Normal';font-variant-ligatures:normal;font-variant-caps:normal;font-variant-numeric:normal;font-feature-settings:normal;text-align:start"/>
    </g>
    <g style="line-height:1.25;-inkscape-font-specification:'Funhouse, Normal';font-variant-ligatures:normal;font-variant-caps:normal;font-variant-numeric:normal;font-feature-settings:normal;text-align:start">
      <path d="M156.01 115.78q-.3 0-.46.14v.02q-.02.03-.02.1-.01.26.15.68.1.25.25.54.29-.24.48-.46.34-.4.34-.64l-.01-.08-.12-.11q-.23-.19-.6-.19zm-1.23 5.23q-.2.31-.2.66 0 .55.45 1 .48.48 1.12.48.52-.01 1.02-.35-1.1-1.21-1.91-2.29-.3.23-.48.5zm1.37 4.48q-1.6 0-2.75-1.14-1.16-1.14-1.17-2.68 0-1.04.6-1.94.43-.66 1.13-1.17-.25-.48-.43-.92-.34-.87-.34-1.6 0-.54.18-1 .22-.51.65-.89.82-.7 2-.7.82 0 1.55.36.8.41 1.21 1.14.31.56.31 1.21 0 1.11-.9 2.16-.4.47-.97.91.38.49.82 1l.57.68q.41-.86.7-1.96l2.26.6q-.5 1.86-1.26 3.15.51.52.92.9l.07.06-1.59 1.72-.25-.24q-.33-.31-.66-.65-1.23 1-2.64 1z" aria-label="&amp;" font-family="SC Gum Kids" style="-inkscape-font-specification:'SC Gum Kids, Normal';font-variant-ligatures:normal;font-variant-caps:normal;font-variant-numeric:normal;font-feature-settings:normal;text-align:start"/>
    </g>
    <g aria-label="division tables" style="line-height:1.25;-inkscape-font-specification:'Funhouse, Normal';font-variant-ligatures:normal;font-variant-caps:normal;font-variant-numeric:normal;font-feature-settings:normal;text-align:start">
      <path d="M68.83 108.27l-.5-10.86q10.57 0 10.57 5.43t-10.07 5.43zm2.76-7.98l.52 3.75q3.35.02 3.35-1.87 0-1.88-3.87-1.88zM82.9 97.48l.8 10.45-4.4.83.2-11.01zM88.14 108.27l-4.06-8.07 3.28-2.79 2.33 6.2 1.52-5.48 4.33 1.22-4.23 8.54zM99.52 97.48l.8 10.45-4.4.83.2-11.01zM103.5 103.98q-2.8-.4-2.47-3.48.32-3.09 7.2-3.65l.64 3.5q-3.4-.08-3.65.8-.25.9 2.6 1.02 2.86.13 2.8 3.48-.07 3.34-7.52 3.56l-1.37-3.67q3.82.42 4.2-.38.38-.8-2.43-1.18zM114.65 97.48l.8 10.45-4.4.83.2-11.01zM122.15 108.27q-2.62 0-4.47-1.6-1.85-1.58-1.85-3.83t1.85-3.84q1.85-1.59 4.47-1.59 2.61 0 4.46 1.6 1.85 1.58 1.85 3.83t-1.85 3.84q-1.85 1.59-4.46 1.59zm-.43-3.4q1.11 0 1.9-.67.8-.69.8-1.65t-.8-1.64q-.79-.68-1.9-.68-1.13 0-1.93.68-.79.68-.79 1.64 0 .96.8 1.65.8.68 1.92.68zM132.74 102.84l.77 4.44-3.87.99-.78-10.18 3.88-.68 3.83 5.07.04-5.07 4.81-.5-1.7 11.36-3.08.44zM152.02 100.72l.38 6.6-4.2 1.08.72-7.89-3.17-.27.25-2.87 9.1-.54.33 4.24zM157.47 106.71l-.54 1.56-3.05-1.85 3.83-9 2.91-.2 4.58 9.32-3.62 1.73-.8-2.18zm2.65-3.39l-.86-2.8-1.03 3.1zM168.6 101.22q2.4-.45 2.35-1.37-.04-.91-2.45-.28zm.37 4.6q3.51-.14 3.52-1.22.01-1.09-3.64-1.04zm-3.37 2.45l.28-10.04q5.55-2.26 7.62-.22 2.08 2.04-.52 4.1 3.95 1.23 2.55 3.98-1.4 2.76-9.93 2.18z" style="-inkscape-font-specification:'Funhouse, Normal';font-variant-ligatures:normal;font-variant-caps:normal;font-variant-numeric:normal;font-feature-settings:normal;text-align:start"/>
      <path d="M176.92 97.26l3.82.2-1.25 7.7 3.89-.6-.86 4.13-6.13-.42zM191.98 96.02l.2 4.1-4.82.53.07.93 3.16-.3.28 2.81-3.3.25.05.75 4.68-.35.7 3.53-9.23.31.93-11.18z" style="-inkscape-font-specification:'Funhouse, Normal';font-variant-ligatures:normal;font-variant-caps:normal;font-variant-numeric:normal;font-feature-settings:normal;text-align:start"/>
      <path d="M195.4 103.98q-2.8-.4-2.47-3.48.32-3.09 7.2-3.65l.64 3.5q-3.4-.08-3.65.8-.25.9 2.6 1.02 2.86.13 2.8 3.48-.06 3.34-7.51 3.56l-1.38-3.67q3.82.42 4.2-.38.38-.8-2.43-1.18z" style="-inkscape-font-specification:'Funhouse, Normal';font-variant-ligatures:normal;font-variant-caps:normal;font-variant-numeric:normal;font-feature-settings:normal;text-align:start"/>
    </g>
  </g>
  <g>
    <g fill="#fff" stroke="#9c27b0" stroke-width="1.06" aria-label="88" font-family="Funhouse" font-size="35.28" font-weight="400" letter-spacing="0" style="line-height:1.25;-inkscape-font-specification:'Funhouse, Normal';font-variant-ligatures:normal;font-variant-caps:normal;font-variant-numeric:normal;font-feature-settings:normal;text-align:start" word-spacing="0">
      <path stroke-width="1.0400402" d="M69 12.9q-.93 0-1.6.53-.63.52-.63 1.27 0 .74.64 1.26.66.53 1.59.53.9 0 1.55-.53.66-.52.66-1.26 0-.75-.66-1.27-.64-.53-1.55-.53zm.33 8.7q-1.4 0-2.4.57t-1 1.4q0 .83 1 1.42 1 .57 2.4.57 1.42 0 2.42-.57 1-.6 1-1.42 0-.83-1-1.4-1-.58-2.42-.58zm6.2-2.76q.67.35 1.27.79 2.8 2.11 2.8 5.1 0 2.98-2.81 5.1-2.8 2.1-6.75 2.1-3.97 0-6.77-2.1-2.8-2.12-2.8-5.1 0-2.99 2.81-5.1.44-.32.9-.6-1.8-1.77-1.8-4.18 0-2.66 2.17-4.52 2.16-1.87 5.22-1.87 3.05 0 5.2 1.87 2.17 1.86 2.17 4.52 0 2.28-1.6 3.99zM88.94 12.9q-.93 0-1.59.53-.64.52-.64 1.27 0 .74.64 1.26.66.53 1.59.53.91 0 1.55-.53.66-.52.66-1.26 0-.75-.66-1.27-.64-.53-1.55-.53zm.34 8.7q-1.4 0-2.4.57t-1 1.4q0 .83 1 1.42 1 .57 2.4.57 1.42 0 2.41-.57 1-.6 1-1.42 0-.83-1-1.4-1-.58-2.41-.58zm6.2-2.76q.66.35 1.27.79 2.79 2.11 2.79 5.1 0 2.98-2.8 5.1-2.8 2.1-6.75 2.1-3.97 0-6.78-2.1-2.79-2.12-2.79-5.1 0-2.99 2.8-5.1.45-.32.9-.6-1.79-1.77-1.79-4.18 0-2.66 2.16-4.52 2.17-1.87 5.23-1.87 3.04 0 5.2 1.87 2.17 1.86 2.17 4.52 0 2.28-1.61 3.99z" style="-inkscape-font-specification:'Funhouse, Normal';font-variant-ligatures:normal;font-variant-caps:normal;font-variant-numeric:normal;font-feature-settings:normal;text-align:start"/>
    </g>
    <g style="line-height:1.25;-inkscape-font-specification:'Funhouse, Normal';font-variant-ligatures:normal;font-variant-caps:normal;font-variant-numeric:normal;font-feature-settings:normal;text-align:start">
      <path fill="#fff" stroke="#9c27b0" stroke-width="1.0400402" d="M145.41 32.39q-1.4 0-2.4-.98-.98-1-.98-2.4t.98-2.39q1-1 2.4-1t2.39 1q1 .99 1 2.39 0 1.4-1 2.4-.98.98-2.39.98zm-4.36-14.67q7.74-.54 7.9-2.08.15-1.54-10.63.88l-1.53-6.53q19.42-5.32 20.45 3.62.8 6.88-8.61 9.28l.49 1.22-7.36 1.26z" aria-label="?" font-family="Funhouse" font-size="35.28" font-weight="400" letter-spacing="0" style="-inkscape-font-specification:'Funhouse, Normal';font-variant-ligatures:normal;font-variant-caps:normal;font-variant-numeric:normal;font-feature-settings:normal;text-align:start" word-spacing="0"/>
    </g>
    <g transform="rotate(90 -393.49 256.92) scale(.89692)">
      <rect width="7.84" height="18.82" x="-712.05" y="-356.04" fill="#e91e63" ry="3.92"/>
      <rect width="7.84" height="18.82" x="-701.07" y="-356.04" fill="#e91e63" ry="3.92"/>
      <rect width="2.21" height="6.35" x="-710.76" y="-353.53" fill="#facedd" ry="1.1"/>
      <rect width="2.21" height="6.35" x="-699.77" y="-353.53" fill="#facedd" ry="1.1"/>
    </g>
    <path fill="#fff" stroke="#9c27b0" stroke-width="1.04" d="M199.86 12.9q-.93 0-1.59.53-.64.52-.64 1.27 0 .74.64 1.26.66.53 1.59.53.91 0 1.55-.53.66-.52.66-1.26 0-.75-.66-1.27-.64-.53-1.55-.53zm.34 8.7q-1.4 0-2.4.57t-1 1.4q0 .83 1 1.42 1 .57 2.4.57 1.42 0 2.41-.57 1-.6 1-1.42 0-.83-1-1.4-1-.58-2.41-.58zm6.2-2.76q.66.35 1.27.79 2.79 2.11 2.79 5.1 0 2.98-2.81 5.1-2.79 2.1-6.74 2.1-3.98 0-6.78-2.1-2.79-2.12-2.79-5.1 0-2.99 2.8-5.1.45-.32.9-.6-1.79-1.77-1.79-4.18 0-2.66 2.16-4.52 2.17-1.87 5.23-1.87 3.04 0 5.2 1.87Q208 12.2 208 14.85q0 2.28-1.6 3.99z" font-family="Funhouse" font-size="35.28" font-weight="400" letter-spacing="0" style="line-height:1.25;-inkscape-font-specification:'Funhouse, Normal';font-variant-ligatures:normal;font-variant-caps:normal;font-variant-numeric:normal;font-feature-settings:normal;text-align:start" word-spacing="0"/>
    <g transform="translate(-297.39 809.83) scale(1.06286)">
      <rect width="7.84" height="18.82" x="-746.85" y="-400.34" fill="#9c27b0" ry="3.92" transform="rotate(90)"/>
      <rect width="2.21" height="6.35" x="-745.57" y="-397.83" fill="#eeccf4" ry="1.1" transform="rotate(90)"/>
      <circle cx="390.93" cy="-751.91" r="3.56" fill="#9c27b0"/>
      <circle cx="390.93" cy="-733.95" r="3.56" fill="#9c27b0"/>
      <ellipse cx="754.53" cy="-390.09" fill="#eeccf4" rx=".76" ry="1.42" transform="rotate(-35.13)"/>
      <ellipse cx="744.11" cy="-375.27" fill="#eeccf4" rx=".76" ry="1.42" transform="rotate(-35.13)"/>
    </g>
    <g>
      <g style="line-height:1.25;-inkscape-font-specification:'Funhouse, Normal';font-variant-ligatures:normal;font-variant-caps:normal;font-variant-numeric:normal;font-feature-settings:normal;text-align:start">
        <path fill="#fff" stroke="#9c27b0" stroke-width="1.0400402" d="M142.88 54.18q6.11.85 5.4 7.58-.7 6.72-15.68 7.96l-1.42-7.64q7.42.17 7.96-1.76t-5.68-2.21q-6.22-.3-5.95-14.86l21.25-2.2-2.01 9.7-8.91-.66q-1.06 3.23 5.04 4.1z" aria-label="5" font-family="Funhouse" font-size="35.28" font-weight="400" letter-spacing="0" style="-inkscape-font-specification:'Funhouse, Normal';font-variant-ligatures:normal;font-variant-caps:normal;font-variant-numeric:normal;font-feature-settings:normal;text-align:start" word-spacing="0"/>
      </g>
      <g style="line-height:1.25;-inkscape-font-specification:'Funhouse, Normal';font-variant-ligatures:normal;font-variant-caps:normal;font-variant-numeric:normal;font-feature-settings:normal;text-align:start">
        <path fill="#fff" stroke="#9c27b0" stroke-width="1.0400402" d="M78.65 67.56q-1.4 0-2.4-.98-.98-1-.98-2.4t.98-2.38q1-1 2.4-1t2.38 1q1 .98 1 2.38t-1 2.4q-.98.98-2.38.98zm-4.36-14.67q7.74-.54 7.89-2.08.15-1.54-10.63.88l-1.52-6.52q19.42-5.33 20.45 3.61.8 6.88-8.62 9.28l.49 1.22L75 60.55z" aria-label="?" font-family="Funhouse" font-size="35.28" font-weight="400" letter-spacing="0" style="-inkscape-font-specification:'Funhouse, Normal';font-variant-ligatures:normal;font-variant-caps:normal;font-variant-numeric:normal;font-feature-settings:normal;text-align:start" word-spacing="0"/>
      </g>
      <g transform="rotate(90 -415.33 270.25) scale(.89692)">
        <rect width="7.84" height="18.82" x="-712.05" y="-356.04" fill="#e91e63" ry="3.92"/>
        <rect width="7.84" height="18.82" x="-701.07" y="-356.04" fill="#e91e63" ry="3.92"/>
        <rect width="2.21" height="6.35" x="-710.76" y="-353.53" fill="#facedd" ry="1.1"/>
        <rect width="2.21" height="6.35" x="-699.77" y="-353.53" fill="#facedd" ry="1.1"/>
      </g>
      <g transform="translate(-306.48 845) scale(1.06286)">
        <rect width="7.84" height="18.82" x="-746.85" y="-400.34" fill="#9c27b0" ry="3.92" transform="rotate(90)"/>
        <rect width="2.21" height="6.35" x="-745.57" y="-397.83" fill="#eeccf4" ry="1.1" transform="rotate(90)"/>
        <circle cx="390.93" cy="-751.91" r="3.56" fill="#9c27b0"/>
        <circle cx="390.93" cy="-733.95" r="3.56" fill="#9c27b0"/>
        <ellipse cx="754.53" cy="-390.09" fill="#eeccf4" rx=".76" ry="1.42" transform="rotate(-35.13)"/>
        <ellipse cx="744.11" cy="-375.27" fill="#eeccf4" rx=".76" ry="1.42" transform="rotate(-35.13)"/>
      </g>
      <path fill="#fff" stroke="#9c27b0" stroke-width="1.04" d="M196.47 54.94q5.39.54 4.38 6.18-1 5.65-16.6 7.07l-1.42-8.44q10.26.26 10.26-1.33 0-1.6-4.04-.91l-1.12-5.9q5.16-.05 5.1-2.05-.04-2-9.12.2l.98-7.11q14.52-.96 15.74 4.66 1.23 5.62-4.16 7.63z" font-family="Funhouse" font-size="35.28" font-weight="400" letter-spacing="0" style="line-height:1.25;-inkscape-font-specification:'Funhouse, Normal';font-variant-ligatures:normal;font-variant-caps:normal;font-variant-numeric:normal;font-feature-settings:normal;text-align:start" word-spacing="0"/>
    </g>
  </g>
</svg>
