<svg xmlns="http://www.w3.org/2000/svg" viewBox="0 0 270.93 135.47">
  <g transform="translate(-2.88 -169.27)">
    <path fill="#fff" stroke="#9c27b0" stroke-linecap="round" stroke-linejoin="round" stroke-width="1.32" d="M219.09 229.86a5.18 5.18 0 0 0-5.15 5.24v8.6h21.6c2.9 0 5.23 2.32 5.23 5.22v36.5h26.8a5.18 5.18 0 0 0 5.14-5.24l-9.91-22.54 9.91-22.54c1.17-2.65-2.29-5.24-5.14-5.24z"/>
    <path fill="#9c27b0" d="M218.66 229.75c-2.15-.1-4.7 3.25-4.7 5.71v8.23h23.79c-.5-.4-1.06-.87-1.69-1.44-3.47-3.14-16.27-12.06-16.27-12.06a1.92 1.92 0 0 0-1.13-.44z"/>
    <path fill="#fff" stroke="#9c27b0" stroke-linecap="round" stroke-linejoin="round" stroke-width="1.32" d="M9.12 229.86c-2.85 0-6.31 2.6-5.15 5.24l9.92 22.54-9.92 22.54c0 2.91 2.3 5.25 5.15 5.25h26.72v-36.51c0-2.9 2.33-5.23 5.22-5.23h21.69v-8.59c0-2.9-2.3-5.24-5.15-5.24z"/>
    <path fill="#9c27b0" d="M58.03 229.75c-.4.02-.78.16-1.13.44 0 0-12.8 8.92-16.27 12.06-.63.57-1.19 1.04-1.7 1.44h23.79v-8.23c0-2.46-2.54-5.81-4.69-5.71z"/>
    <rect width="204.93" height="55.37" x="35.84" y="243.69" fill="#fff" stroke="#9c27b0" stroke-linecap="round" stroke-linejoin="round" stroke-width="1.32" ry="5.23"/>
  </g>
  <g fill="#9c27b0" font-family="Funhouse" font-size="21.17" font-weight="400" letter-spacing="0" word-spacing="0">
    <g stroke-width=".39" aria-label="Mixed" style="line-height:1.25;-inkscape-font-specification:'Funhouse, Normal';font-variant-ligatures:normal;font-variant-caps:normal;font-variant-numeric:normal;font-feature-settings:normal;text-align:start">
      <path d="M119.74 84.96l.83 13.01-5.03.43-.27-6.66-1.01 4.58-4.52.63-1.83-4.73.66 5.6-4.6.95.62-13.8 4.53-.6 2.5 7.88 3.04-7.65zM125.66 85.04l1 13.3-5.58 1.06.26-14.01zM131.43 91.87l-4.12-4.53 3.9-2.38 2.4 3.6 2.46-3.6 4.7 2.8-4.86 4.14 4.64 5.13-4.4 1.74-2.57-3.57-2.34 3.57-4.08-1.52zM151.74 83.19l.26 5.23-6.14.66.08 1.2 4.03-.38.35 3.57-4.2.3.07.97 5.96-.45.88 4.48-11.74.4 1.19-14.23zM154.15 98.77l-.63-13.8q13.45 0 13.45 6.9t-12.82 6.9zm3.51-10.15l.66 4.78q4.27.02 4.27-2.38t-4.93-2.4z" style="-inkscape-font-specification:'Funhouse, Normal';font-variant-ligatures:normal;font-variant-caps:normal;font-variant-numeric:normal;font-feature-settings:normal;text-align:start"/>
    </g>
    <g stroke-width=".26" aria-label="times tables" style="line-height:1.25;-inkscape-font-specification:'Funhouse, Normal';font-variant-ligatures:normal;font-variant-caps:normal;font-variant-numeric:normal;font-feature-settings:normal;text-align:start">
      <path d="M76.6 111.33l.47 8.13-5.17 1.34.9-9.71-3.91-.34.3-3.53 11.2-.66.4 5.21zM85.72 107.35l.97 12.87-5.4 1.02.25-13.56zM102.43 107.27l.8 12.58-4.87.41-.25-6.44-.99 4.43-4.36.61-1.78-4.57.64 5.42-4.45.92.6-13.36 4.38-.58 2.43 7.63 2.94-7.4zM113.84 105.55l.24 5.06-5.93.64.08 1.15 3.89-.36.34 3.45-4.06.3.07.93 5.76-.43.86 4.34-11.36.39 1.15-13.77z" style="-inkscape-font-specification:'Funhouse, Normal';font-variant-ligatures:normal;font-variant-caps:normal;font-variant-numeric:normal;font-feature-settings:normal;text-align:start"/>
      <path d="M118.04 115.35q-3.44-.49-3.04-4.28.4-3.8 8.85-4.5l.8 4.32q-4.18-.1-4.49.99-.3 1.09 3.2 1.25 3.52.16 3.44 4.27-.08 4.11-9.24 4.39l-1.7-4.51q4.7.5 5.17-.47.47-.98-2.99-1.46zM139.9 111.33l.47 8.13-5.17 1.34.9-9.71-3.91-.34.3-3.53 11.2-.66.4 5.21zM146.61 118.72l-.67 1.9-3.75-2.27 4.7-11.08 3.6-.25 5.63 11.48-4.45 2.13-.98-2.69zm3.26-4.18l-1.06-3.45-1.26 3.81zM160.3 111.95q2.96-.55 2.9-1.67-.06-1.13-3.02-.36zm.46 5.67q4.32-.17 4.33-1.5.02-1.34-4.48-1.28zm-4.15 3l.35-12.35q6.82-2.77 9.38-.26 2.55 2.5-.65 5.05 4.86 1.5 3.14 4.9-1.72 3.38-12.22 2.67z" style="-inkscape-font-specification:'Funhouse, Normal';font-variant-ligatures:normal;font-variant-caps:normal;font-variant-numeric:normal;font-feature-settings:normal;text-align:start"/>
      <path d="M170.54 107.08l4.7.25-1.54 9.48 4.8-.74-1.07 5.08-7.54-.52zM189.08 105.55l.25 5.06-5.94.64.08 1.15 3.9-.36.34 3.45-4.07.3.07.93 5.76-.43.86 4.34-11.36.39 1.15-13.77z" style="-inkscape-font-specification:'Funhouse, Normal';font-variant-ligatures:normal;font-variant-caps:normal;font-variant-numeric:normal;font-feature-settings:normal;text-align:start"/>
      <path d="M193.29 115.35q-3.45-.49-3.05-4.28.4-3.8 8.85-4.5l.8 4.32q-4.18-.1-4.49.99-.3 1.09 3.2 1.25 3.52.16 3.44 4.27-.07 4.11-9.24 4.39l-1.69-4.51q4.7.5 5.16-.47.47-.98-2.98-1.46z" style="-inkscape-font-specification:'Funhouse, Normal';font-variant-ligatures:normal;font-variant-caps:normal;font-variant-numeric:normal;font-feature-settings:normal;text-align:start"/>
    </g>
  </g>
  <g>
    <g style="line-height:1.25;-inkscape-font-specification:'Funhouse, Normal';font-variant-ligatures:normal;font-variant-caps:normal;font-variant-numeric:normal;font-feature-settings:normal;text-align:start">
      <path fill="#fff" stroke="#9c27b0" stroke-width="1.13" d="M-54.38-706.04l-8.79 17.12 9.84 1.29-1.4 8.27 10.19-1.26-.3-5.84 3.74.4 1.4-7.55-5.34-.14v-12.74zm-.95 11.59l1.98-4.7 2.05.2-.84 4.8z" aria-label="4" font-family="Funhouse" font-size="35.28" font-weight="400" letter-spacing="0" style="-inkscape-font-specification:'Funhouse, Normal';font-variant-ligatures:normal;font-variant-caps:normal;font-variant-numeric:normal;font-feature-settings:normal;text-align:start" transform="matrix(1.0031 0 0 .86809 145.99 620.92)" word-spacing="0"/>
    </g>
    <g style="line-height:1.25;-inkscape-font-specification:'Funhouse, Normal';font-variant-ligatures:normal;font-variant-caps:normal;font-variant-numeric:normal;font-feature-settings:normal;text-align:start">
      <path fill="#fff" stroke="#9c27b0" stroke-width="1.06" d="M154.92 5.82q13.4.14 8.07 23.52l-9.9-1.74 3.14-6.22q-13.7 2.84-14.19-6.43-.5-9.28 12.88-9.13zm-1.1 6.74q-3.03 0-3.03 2.07 0 2.06 3.03 2.06 3.05 0 3.05-2.06 0-2.07-3.05-2.07z" aria-label="9" font-family="Funhouse" font-size="35.28" font-weight="400" letter-spacing="0" style="-inkscape-font-specification:'Funhouse, Normal';font-variant-ligatures:normal;font-variant-caps:normal;font-variant-numeric:normal;font-feature-settings:normal;text-align:start" word-spacing="0"/>
    </g>
    <g transform="translate(-266.6 791.9)">
      <g fill="#f57c00" transform="rotate(45 327.21 -723.68) scale(1.09493)">
        <rect width="7.84" height="23.53" x="303.23" y="-746.43" ry="3.92"/>
        <rect width="7.84" height="23.53" x="-738.58" y="-318.92" ry="3.92" transform="rotate(90)"/>
      </g>
      <rect width="2.21" height="6.35" x="-826.54" y="-267.47" fill="#ffd4a9" ry="1.1" transform="scale(-1 1) rotate(45)"/>
    </g>
    <g transform="matrix(0 .91414 -.91414 0 -136.23 659.91)">
      <rect width="7.84" height="18.82" x="-712.05" y="-356.04" fill="#e91e63" ry="3.92"/>
      <rect width="7.84" height="18.82" x="-701.07" y="-356.04" fill="#e91e63" ry="3.92"/>
      <rect width="2.21" height="6.35" x="-710.76" y="-353.53" fill="#facedd" ry="1.1"/>
      <rect width="2.21" height="6.35" x="-699.77" y="-353.53" fill="#facedd" ry="1.1"/>
    </g>
    <g>
      <g style="line-height:1.25;-inkscape-font-specification:'Funhouse, Normal';font-variant-ligatures:normal;font-variant-caps:normal;font-variant-numeric:normal;font-feature-settings:normal;text-align:start">
        <path fill="#fff" stroke="#9c27b0" stroke-width="1.11" d="M5.87-639.94l-11.43-4.8 7.76-11.27-8.26 1.08-2.31-7.94 22.2-1.79z" aria-label="7" font-family="Funhouse" font-size="35.28" font-weight="400" letter-spacing="0" style="-inkscape-font-specification:'Funhouse, Normal';font-variant-ligatures:normal;font-variant-caps:normal;font-variant-numeric:normal;font-feature-settings:normal;text-align:start" transform="matrix(.95169 0 0 .9483 150.94 669.2)" word-spacing="0"/>
      </g>
      <g style="line-height:1.25;-inkscape-font-specification:'Funhouse, Normal';font-variant-ligatures:normal;font-variant-caps:normal;font-variant-numeric:normal;font-feature-settings:normal;text-align:start">
        <path fill="#fff" stroke="#9c27b0" stroke-width="1.02" d="M-52.54-640.53q-13.39-.16-8.05-23.53l9.89 1.74-3.14 6.21q13.7-2.84 14.2 6.45.5 9.26-12.9 9.13zm1.1-6.76q3.05 0 3.05-2.06 0-2.07-3.05-2.07-3.03 0-3.03 2.07 0 2.06 3.03 2.06z" aria-label="6" font-family="Funhouse" font-size="35.28" font-weight="400" letter-spacing="0" style="-inkscape-font-specification:'Funhouse, Normal';font-variant-ligatures:normal;font-variant-caps:normal;font-variant-numeric:normal;font-feature-settings:normal;text-align:start" transform="matrix(1.08507 0 0 .99782 149.53 700.8)" word-spacing="0"/>
      </g>
      <g transform="matrix(0 .91414 -.91414 0 -136.23 691.25)">
        <rect width="7.84" height="18.82" x="-712.05" y="-356.04" fill="#e91e63" ry="3.92"/>
        <rect width="7.84" height="18.82" x="-701.07" y="-356.04" fill="#e91e63" ry="3.92"/>
        <rect width="2.21" height="6.35" x="-710.76" y="-353.53" fill="#facedd" ry="1.1"/>
        <rect width="2.21" height="6.35" x="-699.77" y="-353.53" fill="#facedd" ry="1.1"/>
      </g>
      <g transform="translate(-266 824.45)">
        <g fill="#f57c00" transform="rotate(45 327.21 -723.68) scale(1.09493)">
          <rect width="7.84" height="23.53" x="303.23" y="-746.43" ry="3.92"/>
          <rect width="7.84" height="23.53" x="-738.58" y="-318.92" ry="3.92" transform="rotate(90)"/>
        </g>
        <rect width="2.21" height="6.35" x="-826.54" y="-267.47" fill="#ffd4a9" ry="1.1" transform="scale(-1 1) rotate(45)"/>
      </g>
    </g>
  </g>
</svg>
