<svg xmlns="http://www.w3.org/2000/svg" viewBox="0 0 270.93 135.47">
  <g transform="translate(-2.88 -169.27)">
    <path fill="#fff" stroke="#9c27b0" stroke-linecap="round" stroke-linejoin="round" stroke-width="1.32" d="M219.09 229.86a5.18 5.18 0 0 0-5.15 5.24v8.6h21.6c2.9 0 5.23 2.32 5.23 5.22v36.5h26.8a5.18 5.18 0 0 0 5.14-5.24l-9.91-22.54 9.91-22.54c1.17-2.65-2.29-5.24-5.14-5.24z"/>
    <path fill="#9c27b0" d="M218.66 229.75c-2.15-.1-4.7 3.25-4.7 5.71v8.23h23.79c-.5-.4-1.06-.87-1.69-1.44-3.47-3.14-16.27-12.06-16.27-12.06a1.92 1.92 0 0 0-1.13-.44z"/>
    <path fill="#fff" stroke="#9c27b0" stroke-linecap="round" stroke-linejoin="round" stroke-width="1.32" d="M9.12 229.86c-2.85 0-6.31 2.6-5.15 5.24l9.92 22.54-9.92 22.54c0 2.91 2.3 5.25 5.15 5.25h26.72v-36.51c0-2.9 2.33-5.23 5.22-5.23h21.69v-8.59c0-2.9-2.3-5.24-5.15-5.24z"/>
    <path fill="#9c27b0" d="M58.03 229.75c-.4.02-.78.16-1.13.44 0 0-12.8 8.92-16.27 12.06-.63.57-1.19 1.04-1.7 1.44h23.79v-8.23c0-2.46-2.54-5.81-4.69-5.71z"/>
    <rect width="204.93" height="55.37" x="35.84" y="243.69" fill="#fff" stroke="#9c27b0" stroke-linecap="round" stroke-linejoin="round" stroke-width="1.32" ry="5.23"/>
  </g>
  <g fill="#9c27b0" font-family="Funhouse" font-weight="400" letter-spacing="0" word-spacing="0">
    <g stroke-width=".39" aria-label="Mixed" font-size="21.17" style="line-height:1.25;-inkscape-font-specification:'Funhouse, Normal';font-variant-ligatures:normal;font-variant-caps:normal;font-variant-numeric:normal;font-feature-settings:normal;text-align:start">
      <path d="M119.74 84.96l.83 13.01-5.03.43-.27-6.66-1.01 4.58-4.52.63-1.83-4.73.66 5.6-4.6.95.62-13.8 4.53-.6 2.5 7.88 3.04-7.65zM125.66 85.04l1 13.3-5.58 1.06.26-14.01zM131.43 91.87l-4.12-4.53 3.9-2.38 2.4 3.6 2.46-3.6 4.7 2.8-4.86 4.14 4.64 5.13-4.4 1.74-2.57-3.57-2.34 3.57-4.08-1.52zM151.74 83.19l.26 5.23-6.14.66.08 1.2 4.03-.38.35 3.57-4.2.3.07.97 5.96-.45.88 4.48-11.74.4 1.19-14.23zM154.15 98.77l-.63-13.8q13.45 0 13.45 6.9t-12.82 6.9zm3.51-10.15l.66 4.78q4.27.02 4.27-2.38t-4.93-2.4z" style="-inkscape-font-specification:'Funhouse, Normal';font-variant-ligatures:normal;font-variant-caps:normal;font-variant-numeric:normal;font-feature-settings:normal;text-align:start"/>
    </g>
    <g font-size="21.17">
      <path d="M155.58 111.47l.46 8.12-5.17 1.34.89-9.71-3.9-.34.3-3.53 11.2-.66.4 5.21zM162.28 118.85l-.67 1.9-3.75-2.26 4.7-11.09 3.6-.25 5.63 11.48-4.45 2.13-.99-2.68zm3.26-4.18l-1.06-3.45-1.26 3.81zM175.97 112.09q2.96-.56 2.9-1.68-.06-1.13-3.02-.36zm.46 5.66q4.32-.17 4.33-1.5.02-1.34-4.48-1.28zm-4.15 3l.35-12.35q6.82-2.77 9.38-.26 2.55 2.5-.65 5.05 4.86 1.5 3.14 4.9-1.72 3.38-12.22 2.67z" style="line-height:1.25;-inkscape-font-specification:'Funhouse, Normal';font-variant-ligatures:normal;font-variant-caps:normal;font-variant-numeric:normal;font-feature-settings:normal;text-align:start"/>
      <path d="M186.21 107.21l4.7.25-1.54 9.48 4.79-.74-1.06 5.08-7.54-.52zM204.75 105.68l.25 5.06-5.94.64.08 1.15 3.9-.36.33 3.45-4.06.3.07.93 5.76-.43.86 4.34-11.36.39 1.15-13.77z" style="line-height:1.25;-inkscape-font-specification:'Funhouse, Normal';font-variant-ligatures:normal;font-variant-caps:normal;font-variant-numeric:normal;font-feature-settings:normal;text-align:start"/>
      <path d="M208.95 115.48q-3.44-.49-3.04-4.28.4-3.8 8.85-4.5l.8 4.32q-4.18-.1-4.49.99-.3 1.09 3.2 1.25 3.52.16 3.44 4.27-.08 4.11-9.24 4.39l-1.69-4.51q4.7.5 5.16-.47.47-.98-2.99-1.46z" style="line-height:1.25;-inkscape-font-specification:'Funhouse, Normal';font-variant-ligatures:normal;font-variant-caps:normal;font-variant-numeric:normal;font-feature-settings:normal;text-align:start"/>
    </g>
    <g stroke-width=".26" aria-label="division" font-size="19.4" style="line-height:1.25;-inkscape-font-specification:'Funhouse, Normal';font-variant-ligatures:normal;font-variant-caps:normal;font-variant-numeric:normal;font-feature-settings:normal;text-align:start">
      <path d="M53.83 120.2l-.61-13.26q12.92 0 12.92 6.63t-12.31 6.63zm3.37-9.75l.63 4.59q4.1.02 4.1-2.28t-4.73-2.3zM71.03 107.01L72 119.8l-5.36 1.02.24-13.46zM77.43 120.2l-4.96-9.85 4-3.41 2.85 7.58 1.86-6.7 5.3 1.49-5.18 10.43zM91.34 107.01l.97 12.78-5.36 1.02.24-13.46zM96.2 114.96q-3.42-.48-3.02-4.25.4-3.77 8.8-4.46l.79 4.28q-4.16-.1-4.46.98-.3 1.08 3.18 1.25 3.49.16 3.41 4.24-.07 4.08-9.18 4.36l-1.68-4.48q4.66.5 5.13-.47.46-.97-2.97-1.45zM109.84 107.01l.96 12.78-5.36 1.02.25-13.46zM119 120.2q-3.2 0-5.47-1.94-2.25-1.94-2.25-4.69 0-2.75 2.25-4.69 2.27-1.94 5.47-1.94 3.2 0 5.45 1.94 2.26 1.94 2.26 4.69 0 2.75-2.26 4.69-2.26 1.94-5.45 1.94zm-.53-4.14q1.36 0 2.33-.83.97-.84.97-2.01 0-1.18-.97-2-.97-.84-2.33-.84-1.38 0-2.35.83-.97.83-.97 2.01 0 1.17.97 2 .97.84 2.35.84zM131.94 113.57l.94 5.43-4.73 1.2-.96-12.44 4.75-.82 4.68 6.2.06-6.2 5.87-.6-2.08 13.86-3.76.55z" style="-inkscape-font-specification:'Funhouse, Normal';font-variant-ligatures:normal;font-variant-caps:normal;font-variant-numeric:normal;font-feature-settings:normal;text-align:start"/>
    </g>
  </g>
  <g>
    <g fill="#fff" stroke="#9c27b0" stroke-width="1.06" aria-label="66" font-family="Funhouse" font-size="31.75" font-weight="400" letter-spacing="0" style="line-height:1.25;-inkscape-font-specification:'Funhouse, Normal';font-variant-ligatures:normal;font-variant-caps:normal;font-variant-numeric:normal;font-feature-settings:normal;text-align:start" word-spacing="0">
      <path d="M86.8 61.68q-12.04-.14-7.24-21.17l8.9 1.56-2.82 5.6q12.32-2.56 12.77 5.8.45 8.34-11.6 8.21zm1-6.08q2.74 0 2.74-1.86t-2.75-1.86q-2.72 0-2.72 1.86t2.72 1.86z" style="-inkscape-font-specification:'Funhouse, Normal';font-variant-ligatures:normal;font-variant-caps:normal;font-variant-numeric:normal;font-feature-settings:normal;text-align:start"/>
      <path d="M108.38 61.68q-12.04-.14-7.24-21.17l8.9 1.56-2.82 5.6q12.32-2.56 12.77 5.8.45 8.34-11.6 8.21zm1-6.08q2.74 0 2.74-1.86t-2.75-1.86q-2.72 0-2.72 1.86t2.72 1.86z" style="-inkscape-font-specification:'Funhouse, Normal';font-variant-ligatures:normal;font-variant-caps:normal;font-variant-numeric:normal;font-feature-settings:normal;text-align:start"/>
    </g>
    <g style="line-height:1.25;-inkscape-font-specification:'Funhouse, Normal';font-variant-ligatures:normal;font-variant-caps:normal;font-variant-numeric:normal;font-feature-settings:normal;text-align:start">
      <path fill="#fff" stroke="#9c27b0" stroke-width="1.06" d="M159.64 61.7q-12.05-.14-7.24-21.18l8.9 1.56-2.82 5.6q12.32-2.56 12.77 5.8.45 8.34-11.61 8.22zm1-6.08q2.73 0 2.73-1.86t-2.74-1.86q-2.73 0-2.73 1.86t2.73 1.86z" aria-label="6" font-family="Funhouse" font-size="31.75" font-weight="400" letter-spacing="0" style="-inkscape-font-specification:'Funhouse, Normal';font-variant-ligatures:normal;font-variant-caps:normal;font-variant-numeric:normal;font-feature-settings:normal;text-align:start" word-spacing="0"/>
    </g>
    <g transform="rotate(90 -374.16 268.62) scale(.84205)">
      <rect width="7.84" height="18.82" x="-712.05" y="-356.04" fill="#e91e63" ry="3.92"/>
      <rect width="7.84" height="18.82" x="-701.07" y="-356.04" fill="#e91e63" ry="3.92"/>
      <rect width="2.21" height="6.35" x="-710.76" y="-353.53" fill="#facedd" ry="1.1"/>
      <rect width="2.21" height="6.35" x="-699.77" y="-353.53" fill="#facedd" ry="1.1"/>
    </g>
    <g transform="matrix(.9766 0 0 .9766 -247.23 776.68)">
      <rect width="7.84" height="18.82" x="-746.85" y="-400.34" fill="#9c27b0" ry="3.92" transform="rotate(90)"/>
      <rect width="2.21" height="6.35" x="-745.57" y="-397.83" fill="#eeccf4" ry="1.1" transform="rotate(90)"/>
      <circle cx="390.93" cy="-751.91" r="3.56" fill="#9c27b0"/>
      <circle cx="390.93" cy="-733.95" r="3.56" fill="#9c27b0"/>
      <ellipse cx="754.53" cy="-390.09" fill="#eeccf4" rx=".76" ry="1.42" transform="rotate(-35.13)"/>
      <ellipse cx="744.11" cy="-375.27" fill="#eeccf4" rx=".76" ry="1.42" transform="rotate(-35.13)"/>
    </g>
    <g>
      <g fill="#fff" stroke="#9c27b0" stroke-width="1.06" aria-label="27" font-family="Funhouse" font-size="31.75" font-weight="400" letter-spacing="0" style="line-height:1.25;-inkscape-font-specification:'Funhouse, Normal';font-variant-ligatures:normal;font-variant-caps:normal;font-variant-numeric:normal;font-feature-settings:normal;text-align:start" word-spacing="0">
        <path d="M91.3 20.12q-5.6.78-4.61 3.74l8.17-.6 1.84 8.9-19.49-2.02q-.24-13.37 5.46-13.63 5.7-.26 5.2-2.03-.49-1.77-7.3-1.61l1.31-7.01q13.74 1.13 14.39 7.3.65 6.17-4.96 6.96zM109.38 29.19l-10.3-4.33 7-10.13-7.44.97-2.08-7.14 19.98-1.62z" style="-inkscape-font-specification:'Funhouse, Normal';font-variant-ligatures:normal;font-variant-caps:normal;font-variant-numeric:normal;font-feature-settings:normal;text-align:start"/>
      </g>
      <g style="line-height:1.25;-inkscape-font-specification:'Funhouse, Normal';font-variant-ligatures:normal;font-variant-caps:normal;font-variant-numeric:normal;font-feature-settings:normal;text-align:start">
        <path fill="#fff" stroke="#9c27b0" stroke-width="1.06" d="M162.52 8.43q12.06.12 7.26 21.16l-8.9-1.57 2.82-5.6q-12.32 2.56-12.77-5.78-.45-8.35 11.6-8.21zm-.99 6.06q-2.73 0-2.73 1.86t2.73 1.86q2.75 0 2.75-1.86t-2.75-1.86z" aria-label="9" font-family="Funhouse" font-size="31.75" font-weight="400" letter-spacing="0" style="-inkscape-font-specification:'Funhouse, Normal';font-variant-ligatures:normal;font-variant-caps:normal;font-variant-numeric:normal;font-feature-settings:normal;text-align:start" word-spacing="0"/>
      </g>
      <g transform="rotate(90 -358.1 252.55) scale(.84205)">
        <rect width="7.84" height="18.82" x="-712.05" y="-356.04" fill="#e91e63" ry="3.92"/>
        <rect width="7.84" height="18.82" x="-701.07" y="-356.04" fill="#e91e63" ry="3.92"/>
        <rect width="2.21" height="6.35" x="-710.76" y="-353.53" fill="#facedd" ry="1.1"/>
        <rect width="2.21" height="6.35" x="-699.77" y="-353.53" fill="#facedd" ry="1.1"/>
      </g>
      <g transform="matrix(.9766 0 0 .9766 -247.23 744.54)">
        <rect width="7.84" height="18.82" x="-746.85" y="-400.34" fill="#9c27b0" ry="3.92" transform="rotate(90)"/>
        <rect width="2.21" height="6.35" x="-745.57" y="-397.83" fill="#eeccf4" ry="1.1" transform="rotate(90)"/>
        <circle cx="390.93" cy="-751.91" r="3.56" fill="#9c27b0"/>
        <circle cx="390.93" cy="-733.95" r="3.56" fill="#9c27b0"/>
        <ellipse cx="754.53" cy="-390.09" fill="#eeccf4" rx=".76" ry="1.42" transform="rotate(-35.13)"/>
        <ellipse cx="744.11" cy="-375.27" fill="#eeccf4" rx=".76" ry="1.42" transform="rotate(-35.13)"/>
      </g>
    </g>
  </g>
</svg>
