<svg xmlns="http://www.w3.org/2000/svg" viewBox="0 0 135.47 135.47">
  <defs>
    <filter id="b" width="1.22" height="1.66" x="-.11" y="-.33" color-interpolation-filters="sRGB">
      <feGaussianBlur stdDeviation=".8"/>
    </filter>
    <linearGradient id="a" x1="161.32" x2="237.58" y1="47.82" y2="47.82" gradientTransform="translate(-496.1 338.98) scale(1.14445)" gradientUnits="userSpaceOnUse">
      <stop offset="0" stop-color="#303f9f"/>
      <stop offset="1" stop-color="#9c27b0"/>
    </linearGradient>
  </defs>
  <path fill="#00c853" d="M44.9 70.97L19 69.87l4.36-35.8-8.95 3.6-3.52-14.92 27.24-8.38z" aria-label="1" style="font-feature-settings:normal;font-variant-caps:normal;font-variant-ligatures:normal;font-variant-numeric:normal"/>
  <path fill="url(#a)" d="M-223.9 393.7a43.8 43.8 0 0 1-43.5 43.8 43.8 43.8 0 0 1-44.07-43.24 43.8 43.8 0 0 1 42.95-44.34 43.8 43.8 0 0 1 44.61 42.67" transform="rotate(-120 -189.8 136.87) scale(1.01779)"/>
  <g transform="rotate(13.76 253.62 -422.1) scale(1.76158)">
    <rect width="4.79" height="12.2" x="100.14" y="67.33" fill="#ffcead" ry="1.78"/>
    <rect width="9.57" height="9.42" x="97.75" y="59.61" fill="#ffc096" rx="0" ry="3.21"/>
    <rect width="2.62" height="13.8" x="105.88" y="36.38" fill="#ffc096" ry="1.31" transform="rotate(8.28)"/>
    <rect width="2.62" height="10.68" x="108.17" y="35.65" fill="#ffbb8d" ry="1.31" transform="rotate(8.28)"/>
  </g>
  <g transform="rotate(13.76 363.3 -610.43) scale(1.76158)">
    <rect width="5.74" height="1.73" x="126.79" y="81.9" fill="#fc0" ry=".32"/>
    <rect width="6.35" height="10.15" x="126.46" y="82.93" fill="#00c853" ry=".99"/>
    <path fill="#9c27b0" d="M126.46 83.9v1.72h6.4V83.9zm.85.3c.1 0 .19.08.19.18v.7a.18.18 0 1 1-.37 0v-.7c0-.1.08-.18.18-.18zm.67 0c.1 0 .19.08.19.18v.7a.18.18 0 1 1-.37 0v-.7c0-.1.08-.18.18-.18zm.67 0c.1 0 .19.08.19.18v.7a.18.18 0 1 1-.37 0v-.7c0-.1.08-.18.18-.18zm.67 0c.1 0 .19.08.19.18v.7a.18.18 0 1 1-.37 0v-.7c0-.1.08-.18.18-.18zm.67 0c.1 0 .19.08.19.18v.7c0 .1-.08.19-.19.19a.18.18 0 0 1-.18-.19v-.7c0-.1.08-.18.18-.18zm.67 0c.1 0 .19.08.19.18v.7c0 .1-.08.19-.19.19a.18.18 0 0 1-.18-.19v-.7c0-.1.08-.18.18-.18zm.67 0c.1 0 .19.08.19.18v.7c0 .1-.08.19-.19.19a.18.18 0 0 1-.18-.19v-.7c0-.1.08-.18.18-.18zm.67 0c.1 0 .19.08.19.18v.7a.18.18 0 1 1-.37 0v-.7c0-.1.08-.18.18-.18z"/>
  </g>
  <g transform="rotate(-4.25 -499.2 355.05) scale(1.33362)">
    <rect width="36.64" height="46.27" x="54.98" y="60.39" fill="#fff" stroke="#b3b3b3" stroke-linecap="round" stroke-linejoin="round" stroke-width=".26" ry="2.93"/>
    <rect width="32.55" height="41.1" x="57.03" y="62.44" fill="#e6e6e6" ry="2.61"/>
    <g fill="#2196f3" stroke-width=".14" aria-label="EK Code">
      <path d="M64.24 71.67l.07 1.42-1.68.18.02.33 1.1-.1.1.97-1.15.09.02.26 1.63-.12.24 1.22-3.2.11.32-3.88zM65.7 73.54l.87-1.63 1.65.24-1.54 1.89 1.43.89-1.24 1-1.07-1.35.19 1.1-1.27.24v-3.77l.86.1zM73.45 75.37q-.64.55-1.54.55t-1.54-.55q-.64-.55-.64-1.33t.64-1.34q.63-.55 1.54-.55.9 0 1.54.55.32.28.48.62l-1.3.32q-.06-.17-.22-.3-.28-.25-.66-.25-.39 0-.66.24t-.27.57.27.57q.27.24.66.24.38 0 .66-.24.15-.13.22-.29l1.3.58q-.16.33-.48.6zM76.26 75.92q-.9 0-1.55-.55-.64-.55-.64-1.33t.64-1.34q.64-.55 1.55-.55.9 0 1.55.55.64.56.64 1.34t-.64 1.33q-.64.55-1.55.55zm-.15-1.18q.39 0 .66-.23.28-.24.28-.57t-.28-.57q-.27-.24-.66-.24-.4 0-.67.24-.27.23-.27.57t.27.57q.28.23.67.23zM78.76 75.92l-.17-3.77q3.67 0 3.67 1.89t-3.5 1.88zm.96-2.77l.18 1.3q1.17 0 1.17-.64 0-.66-1.35-.66zM85.25 71.67l.07 1.42-1.67.18.02.33 1.1-.1.1.97-1.15.09.02.26 1.62-.12.25 1.22-3.21.11.33-3.88z" style="font-feature-settings:normal;font-variant-caps:normal;font-variant-ligatures:normal;font-variant-numeric:normal"/>
    </g>
    <g transform="translate(-3.3 48.07)">
      <rect width="20.72" height="7.01" x="66.43" y="29.83" fill="#fff" stroke="#2196f3" stroke-linecap="round" stroke-linejoin="round" stroke-width=".79" ry=".92"/>
      <g fill="#616161" stroke-width=".11" aria-label="95624" style="font-feature-settings:normal;font-variant-caps:normal;font-variant-ligatures:normal;font-variant-numeric:normal">
        <path d="M70.33 35.21q-.07-.01-.13-.08-.05-.07-.05-.18.23-.1.46-.29.23-.18.42-.43.18-.25.29-.55.1-.3.1-.63-.14.01-.31.05t-.38.07l-.41.05q-.21.01-.42-.01-.2-.02-.4-.1-.17-.08-.32-.23-.11-.15-.07-.32.05-.17.19-.35.15-.17.36-.33.22-.15.45-.26.24-.1.47-.15.22-.05.39 0 .35.1.55.3.2.21.28.48.09.27.07.59-.02.31-.12.64-.1.31-.25.61-.16.3-.35.54-.2.24-.4.4-.21.15-.42.18zm-.78-2.48q.08.07.2.1.14.03.3.04l.36-.01.37-.06.36-.1.31-.1q.04-.15 0-.28-.02-.14-.1-.25-.09-.1-.22-.17t-.3-.08q-.14 0-.3.03-.17.03-.33.09t-.29.14q-.13.08-.23.19-.1.1-.13.21-.04.12 0 .25zM72.17 35.07l.02-.12.07-.11q.04-.05.09-.08.05-.03.1-.03v.1h.35q.2-.01.44-.05.23-.03.47-.09.23-.06.41-.16.19-.1.3-.26.12-.16.12-.38-.07-.22-.21-.33-.14-.12-.33-.15-.18-.04-.4-.01l-.43.06-.42.08q-.2.04-.35.04h-.18l-.07-.05q-.03-.03-.03-.1v-.03-.03l.03-.21.03-.33.03-.39.04-.38.04-.33.02-.21q.02-.08.07-.1h.12q.1 0 .14.04.03.04.03.11l-.01.16-.01.17q.3 0 .53-.03l.44-.08.37-.1.33-.1q.16-.06.32-.08.16-.03.33-.03l.05.09q.03.04 0 .1-.04.06-.16.14-.12.07-.39.16-.26.08-.7.18-.43.1-1.09.22l-.1.84.42-.06q.23-.05.48-.08.26-.03.5-.02.25 0 .44.08.2.08.33.25.14.16.17.45 0 .26-.13.47-.12.21-.33.37-.21.16-.47.27-.26.12-.54.2l-.53.1q-.26.03-.46.03-.16 0-.22-.03t-.07-.17zM75.16 33.6q0-.22.08-.47.08-.25.22-.5.13-.24.32-.46.19-.23.4-.4.22-.16.45-.26.24-.1.47-.1.08 0 .13.07t.04.2q-.33.07-.63.26-.3.18-.53.46-.22.26-.36.6-.13.32-.13.66 0 .08.05.24.04.16.1.3.07.16.17.28.1.1.2.1.09-.06.2-.18l.26-.25.31-.28q.17-.14.36-.25t.4-.18q.2-.07.42-.07.1 0 .18.05.07.04.12.12.06.07.08.17.03.1.03.18-.05.36-.22.62-.17.26-.41.43t-.55.25q-.3.08-.6.06-.3-.02-.6-.13-.28-.11-.5-.32-.21-.2-.34-.5-.13-.3-.12-.7zm2.79.14q-.12 0-.25.06-.14.06-.28.16l-.29.23-.26.24-.22.22-.15.16q.21.03.48 0 .27-.04.52-.16.25-.1.43-.29.19-.18.2-.43 0-.2-.18-.2zM78.84 34.95q.14-.12.32-.32l.38-.44.37-.5q.19-.27.34-.53.15-.26.25-.5t.13-.44q.03-.2-.04-.33t-.26-.17q-.24 0-.44.1l-.36.24-.34.24q-.17.1-.38.1 0-.13.1-.27.09-.13.24-.25.14-.12.34-.22.19-.1.39-.15.2-.06.39-.06.2-.01.35.04.16.06.26.18.1.13.12.34 0 .2-.07.45-.06.24-.18.5-.11.26-.26.52l-.3.5-.32.44-.28.35q.25.02.48 0 .22-.04.43-.1l.42-.09q.22-.05.47-.05.07 0 .12.04.07.03.07.11 0 .09-.06.15t-.14.1q-.08.05-.19.07l-.19.04-.15.02h-.08l-.25.06-.42.07-.47.05q-.25.03-.44 0-.2 0-.3-.08-.1-.06-.05-.2zM83.45 33.53h-.42l-.37.04-.36.02q-.2.02-.42.02-.08 0-.1-.07-.03-.06-.03-.16l.44-.57.4-.55.39-.46q.18-.2.33-.3.15-.1.27-.09.12.02.2.2.08.16.1.52.04.35.03.93l.57-.02V33.33q-.01.05-.04.05l-.43.03q-.03.07-.05.2l-.02.32-.01.35v.94l-.1.01-.15.03h-.13q-.06 0-.08-.06zm-1.11-.3q.26 0 .54-.03l.57-.07v-1.2z" style="font-feature-settings:normal;font-variant-caps:normal;font-variant-ligatures:normal;font-variant-numeric:normal"/>
      </g>
    </g>
    <rect width="17.1" height="5.8" x="29.93" y="47.49" fill="none" stroke="#e91e63" stroke-linecap="round" stroke-linejoin="round" stroke-width=".86" filter="url(#b)" ry="1.15" transform="matrix(.93015 0 0 1.0195 37.7 42.6)"/>
    <g transform="translate(35.02 43.58)">
      <rect width="15.79" height="5.35" x="30.58" y="47.72" fill="#e91e63" ry="1.06"/>
      <g fill="#fff" stroke-width=".1" aria-label="START" style="font-feature-settings:normal;font-variant-caps:normal;font-variant-ligatures:normal;font-variant-numeric:normal">
        <path d="M34.35 51.04q0-.15-.1-.22-.1-.08-.35-.17-.52-.17-.77-.36-.24-.19-.24-.54 0-.35.29-.57.29-.21.73-.21.48 0 .77.22.28.22.27.63h-.62q0-.19-.1-.28-.11-.09-.33-.09-.17 0-.27.09t-.1.21q0 .12.1.2.1.07.39.18.48.14.72.35.25.2.25.56 0 .36-.29.57-.28.2-.75.2t-.8-.22q-.32-.22-.31-.7h.63q0 .24.11.34.12.1.37.1.2 0 .3-.08.1-.08.1-.2zM37.26 49.5h-.73v2.27h-.64V49.5h-.72v-.49h2.09zM38.77 51.24h-.83l-.16.53h-.67l.9-2.76h.69l.9 2.76h-.67zm-.68-.5h.53l-.26-.85h-.01zM40.44 50.72v1.05h-.64v-2.76h.96q.48 0 .77.22.28.22.28.61 0 .21-.12.37-.1.15-.33.25.25.07.36.24.12.17.12.42v.17q0 .11.03.25t.11.2v.03h-.66q-.08-.05-.1-.2l-.02-.28v-.17q0-.2-.1-.3-.11-.1-.31-.1zm0-.5h.33q.2 0 .3-.09.1-.09.1-.25 0-.17-.11-.27-.1-.1-.3-.1h-.32zM44.12 49.5h-.73v2.27h-.65V49.5h-.71v-.49h2.09z" style="font-feature-settings:normal;font-variant-caps:normal;font-variant-ligatures:normal;font-variant-numeric:normal"/>
      </g>
    </g>
    <g fill="#fff">
      <path d="M73.36 62.44L57.03 78.78v9.1l25.43-25.44zM68.41 62.44L57.03 73.83v3.43l14.8-14.82z" opacity=".6"/>
    </g>
    <path fill="#fff" stroke="#b3b3b3" stroke-linecap="round" stroke-linejoin="round" stroke-width=".26" d="M74.33 105.1a1.03 1.03 0 0 1-1.02 1.03 1.03 1.03 0 0 1-1.04-1.02 1.03 1.03 0 0 1 1.01-1.05 1.03 1.03 0 0 1 1.05 1"/>
  </g>
  <g fill="#ffcead" transform="rotate(13.55 270.12 -471.88) scale(1.76158)">
    <rect width="8.65" height="2.78" x="103.28" y="60.18" ry="1.39"/>
    <rect width="9.26" height="4.32" x="60.18" y="-107.6" ry="2.16" transform="rotate(90)"/>
  </g>
  <g transform="scale(1.56643) rotate(-30 98.71 124.63)">
    <g transform="rotate(24.16 95.2 105.5) scale(1.12458)">
      <rect width="3.08" height="7.49" x="4.53" y="79.92" fill="#ffbe92" ry="1.53" transform="matrix(.64479 -.76436 .7539 .65698 0 0)"/>
      <g fill="#ffcead" transform="rotate(-24.43 37.81 197.41)">
        <rect width="4.79" height="12.82" x="127.27" y="77.64" ry="1.87"/>
        <path d="M125.78 64.6c-.73 0-1.31.6-1.31 1.32v7.9l.01.18-.01.27v2.58c0 1.98 1.6 3.57 3.58 3.57h3.22c1.98 0 3.58-1.6 3.58-3.57v-.43V71.18c0-.87-.58-1.56-1.3-1.56-.57 0-1.05.42-1.23 1.02-.13-.71-.65-1.25-1.29-1.25-.65 0-1.19.57-1.3 1.3h-.01v-.2c0-.73-.59-1.32-1.31-1.32s-1.32.6-1.32 1.33v-4.58a1.3 1.3 0 0 0-1.3-1.31z"/>
      </g>
    </g>
    <rect width="6.46" height="1.94" x="98.61" y="60.34" fill="#fc0" ry=".35" transform="rotate(-.27)"/>
    <rect width="7.18" height="10.29" x="98.12" y="61.35" fill="#00c853" ry=".6" transform="matrix(1 -.00336 .00681 .99998 0 0)"/>
    <path fill="#9c27b0" d="M98.54 62.12l.01 1.93 7.19-.03-.01-1.94zm.96.33c.11 0 .2.1.2.21l.01.79a.2.2 0 1 1-.41 0v-.79c0-.11.08-.2.2-.2zm.75 0c.12 0 .21.1.21.2v.8a.2.2 0 1 1-.41 0v-.8c0-.1.09-.2.2-.2zm.76 0c.11 0 .2.09.2.2l.01.79a.2.2 0 1 1-.42 0v-.78c0-.12.1-.21.2-.21zm.75 0c.12 0 .2.08.2.2l.01.79a.2.2 0 1 1-.41 0v-.79c0-.11.08-.2.2-.2zm.75-.01c.12 0 .21.1.21.2v.8c0 .1-.09.2-.2.2a.2.2 0 0 1-.21-.2v-.8c0-.1.09-.2.2-.2zm.76 0c.11 0 .2.09.2.2l.01.79c0 .11-.1.2-.2.2a.2.2 0 0 1-.22-.2v-.79c0-.11.1-.2.2-.2zm.75 0c.12 0 .2.08.2.2l.01.78c0 .12-.09.21-.2.21a.2.2 0 0 1-.21-.2v-.79c0-.11.08-.2.2-.2zm.75-.01c.12 0 .21.09.21.2v.8a.2.2 0 1 1-.41 0v-.8c0-.1.09-.2.2-.2z"/>
  </g>
  <text x="97.92" y="-217.78" stroke-width=".26" font-family="sans-serif" font-size="10.58" letter-spacing="0" style="line-height:1.25" transform="translate(-395 41.4)" word-spacing="0"/>
</svg>
