<svg xmlns="http://www.w3.org/2000/svg" viewBox="0 0 66.15 66.15">
  <g transform="translate(17.86 17.86) scale(.32857)">
    <path fill="#e91e63" d="M89.87 3.76c-1.36.06-49.16-13.24-57.89 42.56l4.89 9.77.1.1.1.1 9.86 4.86c53.98-7.5 42.88-56.04 42.94-57.4z"/>
    <g fill="#fff" stroke-width=".19" aria-label="EK" style="font-feature-settings:normal;font-variant-caps:normal;font-variant-ligatures:normal;font-variant-numeric:normal">
      <path d="M50.18 29.25l4.7 4.23-4.7 5.79 1.1.94 3.13-3.74 3.37 2.74-3.34 3.83.89.77 4.72-5.46 4.62 3.07-9.74 10.34-11.2-13.13zM60.68 30.51l-2.4-7.78 5.95-4.4 1.07 10.7 7.33-1.69-.77 6.95-7.63-.84 4.07 2.85-3.22 4.7-11.85-11.75 3-2.38z" style="font-feature-settings:normal;font-variant-caps:normal;font-variant-ligatures:normal;font-variant-numeric:normal"/>
    </g>
    <g transform="scale(.18207 .1805) rotate(45 513.1 -297.79)">
      <rect width="74.74" height="222.28" x="686.26" y="400.38" fill="#fd5" opacity=".59" ry="37.05"/>
      <rect width="47.56" height="164.04" x="699.85" y="429.5" fill="#ff7f2a" opacity=".72" ry="27.34"/>
      <rect width="16.5" height="105.8" x="715.38" y="458.62" fill="#e91e63" opacity=".86" ry="11.16"/>
    </g>
    <g transform="matrix(.08193 .08122 -.08193 .08122 18.01 -20.62)">
      <rect width="74.74" height="222.28" x="686.26" y="400.38" fill="#fd5" opacity=".59" ry="37.05"/>
      <rect width="47.56" height="164.04" x="699.85" y="429.5" fill="#ff7f2a" opacity=".72" ry="27.34"/>
      <rect width="16.5" height="105.8" x="715.38" y="458.62" fill="#e91e63" opacity=".86" ry="11.16"/>
    </g>
    <g transform="matrix(.08193 .08122 -.08193 .08122 -4.36 -42.8)">
      <rect width="74.74" height="222.28" x="686.26" y="400.38" fill="#fd5" opacity=".59" ry="37.05"/>
      <rect width="47.56" height="164.04" x="699.85" y="429.5" fill="#ff7f2a" opacity=".72" ry="27.34"/>
      <rect width="16.5" height="105.8" x="715.38" y="458.62" fill="#e91e63" opacity=".86" ry="11.16"/>
    </g>
    <path fill="none" stroke="#ef5a8c" stroke-linecap="round" stroke-width="1.96" d="M60.02 10.5S47.59 13.28 42.37 28"/>
    <path fill="#d21455" d="M86.52 21.26C84.32 33.68 77.03 48.28 55.98 55l3.41 3.38c21.05-6.72 28.33-21.32 30.54-33.74z"/>
    <path fill="#2196f3" d="M87.18 27.62c-5.31.57-23.04-17.05-22.44-22.3.6-5.26 20.59-7.42 25.3-2.74 4.7 4.68 2.45 24.46-2.86 25.04z"/>
    <path fill="#138ff2" d="M90.04 2.58a6.5 6.5 0 0 0-2.1-1.31c2.87 6.76.56 22.46-4.17 22.97-2.34.26-7.1-3.03-11.63-7.23 5.34 5.65 12.1 10.93 15.04 10.6 5.31-.57 7.57-20.35 2.86-25.03z"/>
    <path fill="#e6e6e6" d="M68.58 1.64C66.39 2.71 64.88 4 64.63 5.4 63.6 11.1 81.34 28.74 87.1 27.73c1.42-.25 2.73-1.74 3.82-3.91-5.85.66-22.97-16.35-22.33-22.18z"/>
    <path fill="#dadada" d="M90.91 23.82c-1.6.18-4.06-.97-6.76-2.86l-3.42 4.32c2.57 1.72 4.87 2.71 6.36 2.45 1.42-.25 2.73-1.74 3.82-3.91z"/>
    <path fill="#666" d="M33.14 49.04l10.88 10.78c.89.88.82 1.88.45 2.73l-2.08 4.77c-.37.84-1.87.42-2.76-.46l-13.6-13.48c-.89-.88-1.3-2.36-.45-2.73l4.8-2.07c.86-.37 1.87-.43 2.76.46z"/>
    <g fill="#555" transform="scale(.37244 .36923) rotate(45 13.78 311.88)">
      <path d="M-17.7 139.5l3.09 14.4h4.94c1.47 0 3.04-2.04 2.64-4.36l-2.14-5.68c-.4-2.33-1.18-4.37-2.64-4.37zM-65.98 136.52l-3.94 10.56h7.88c3.14 0 5.66-1.94 5.66-4.36v-2.35c0-2.42-2.52-4.36-5.66-4.36z"/>
      <rect width="49.82" height="7.32" x="-63.54" y="133.89" ry="3.02"/>
    </g>
    <path fill="#d21455" d="M40.03 34.77a6.38 6.38 0 0 0-1.03-.82 6.76 6.76 0 0 1-1.06 8.5l-6.75 6.69 1.86 1.84 6.74-6.69c2.73-2.7 2.83-6.94.24-9.52z"/>
    <rect width="30.98" height="3.73" x="50.32" y="9.62" fill="#c5c5c5" ry="1.12" transform="scale(1.00432 .99566) rotate(45)"/>
    <path fill="#2196f3" d="M38.69 33.16c-2.6-2.58-6.88-2.47-9.6.23l-6.75 6.69 9.37 9.28 6.75-6.69c2.72-2.7 2.82-6.94.23-9.51zM59.97 54.25c-2.6-2.57-6.88-2.47-9.6.23l-6.75 6.69 9.37 9.28 6.74-6.68c2.73-2.7 2.83-6.95.24-9.52z"/>
    <rect width="1.74" height="9.29" x="75.51" y="1.47" fill="#6fbbf7" ry=".87" transform="scale(1.00432 .99566) rotate(45)"/>
    <rect width="1.74" height="9.29" x="45.45" y="1.62" fill="#6fbbf7" ry=".87" transform="scale(1.00432 .99566) rotate(45)"/>
    <path fill="#b6b6b6" d="M33.17 46.42c-.18-.17-.68.04-1.12.48L31 47.95c-.44.44-.65.93-.48 1.1l2.24 2.22 2.65-2.63z"/>
    <path fill="#138ff2" d="M38.69 33.16a6.38 6.38 0 0 0-1.02-.83 6.76 6.76 0 0 1-1.07 8.5l-6.75 6.7 1.86 1.83 6.75-6.69c2.72-2.7 2.82-6.94.23-9.51z"/>
    <rect width="15.43" height="4.11" x="43.07" y="11.98" fill="#e6e6e6" ry="1.62" transform="scale(1.00432 .99566) rotate(45)"/>
    <g stroke-width=".37">
      <path fill="#d6d6d6" d="M29.82 46.44l-2.92 2.89 2 1.97c.67.67 1.73.7 2.37.08l.62-.62c.63-.63.6-1.68-.08-2.35z"/>
      <path fill="#138ff2" d="M59.97 54.25a6.38 6.38 0 0 0-1.03-.83 6.76 6.76 0 0 1-1.07 8.5l-6.74 6.7 1.86 1.83 6.74-6.68c2.73-2.7 2.83-6.95.24-9.52z"/>
      <path fill="#555" d="M44.48 62.6l-1.74 3.78-2.08-2.06c-.82-.81-.98-1.98-.34-2.61l.62-.62c.64-.63 1.81-.48 2.64.34z"/>
    </g>
    <rect width="15.43" height="4.11" x="73.03" y="11.98" fill="#e6e6e6" ry="1.62" transform="scale(1.00432 .99566) rotate(45)"/>
    <path fill="#d6d6d6" d="M51 67.43l-2.92 2.89 2.05 2.03c.7.7 1.78.75 2.41.12l.62-.61c.64-.64.59-1.7-.12-2.4z"/>
    <path fill="none" stroke="#6fbbf7" stroke-linecap="round" stroke-width="1.96" d="M74.3 4.11S80 2 84.83 3.81"/>
  </g>
  <g fill="#ffc107">
    <g transform="matrix(.58579 0 0 .58579 -18.21 46.5)">
      <rect width="2.25" height="6.75" x="62.47" y="-54.03" ry="1.12"/>
      <rect width="2.25" height="6.75" x="-51.78" y="-66.97" ry="1.12" transform="rotate(90)"/>
    </g>
    <g transform="matrix(.50813 0 0 .50813 26.1 68.5)">
      <rect width="2.25" height="6.75" x="62.47" y="-54.03" ry="1.12"/>
      <rect width="2.25" height="6.75" x="-51.78" y="-66.97" ry="1.12" transform="rotate(90)"/>
    </g>
    <g transform="matrix(.40457 0 0 .40457 -18.7 28.79)">
      <rect width="2.25" height="6.75" x="62.47" y="-54.03" ry="1.12"/>
      <rect width="2.25" height="6.75" x="-51.78" y="-66.97" ry="1.12" transform="rotate(90)"/>
    </g>
    <g transform="matrix(.40457 0 0 .40457 14 34.08)">
      <rect width="2.25" height="6.75" x="62.47" y="-54.03" ry="1.12"/>
      <rect width="2.25" height="6.75" x="-51.78" y="-66.97" ry="1.12" transform="rotate(90)"/>
    </g>
    <g transform="matrix(.48224 0 0 .48224 -20.82 61.65)">
      <rect width="2.25" height="6.75" x="62.47" y="-54.03" ry="1.12"/>
      <rect width="2.25" height="6.75" x="-51.78" y="-66.97" ry="1.12" transform="rotate(90)"/>
    </g>
    <g transform="matrix(.3528 0 0 .3528 33.2 40.66)">
      <rect width="2.25" height="6.75" x="62.47" y="-54.03" ry="1.12"/>
      <rect width="2.25" height="6.75" x="-51.78" y="-66.97" ry="1.12" transform="rotate(90)"/>
    </g>
    <g transform="matrix(.3528 0 0 .3528 6.3 22.2)">
      <rect width="2.25" height="6.75" x="62.47" y="-54.03" ry="1.12"/>
      <rect width="2.25" height="6.75" x="-51.78" y="-66.97" ry="1.12" transform="rotate(90)"/>
    </g>
    <g transform="matrix(.3528 0 0 .3528 36.8 79.14)">
      <rect width="2.25" height="6.75" x="62.47" y="-54.03" ry="1.12"/>
      <rect width="2.25" height="6.75" x="-51.78" y="-66.97" ry="1.12" transform="rotate(90)"/>
    </g>
    <g transform="translate(42.82 22.45) scale(.27513)">
      <rect width="2.25" height="6.75" x="62.47" y="-54.03" ry="1.12"/>
      <rect width="2.25" height="6.75" x="-51.78" y="-66.97" ry="1.12" transform="rotate(90)"/>
    </g>
    <g transform="translate(-12.88 74.48) scale(.27513)">
      <rect width="2.25" height="6.75" x="62.47" y="-54.03" ry="1.12"/>
      <rect width="2.25" height="6.75" x="-51.78" y="-66.97" ry="1.12" transform="rotate(90)"/>
    </g>
  </g>
  <g fill="#2196f3">
    <circle cx="18.43" cy="27.81" r=".79"/>
    <circle cx="47.77" cy="38.64" r=".44"/>
    <circle cx="50.18" cy="3.27" r=".44"/>
    <circle cx="33.62" cy="16.28" r=".44"/>
  </g>
  <g transform="matrix(.08787 0 0 .08787 30.7 27.07)">
    <g fill="#2196f3">
      <path d="M-188.06 276.05l1.12 22.83-26.78 2.88.34 5.21 17.57-1.63 1.55 15.58-18.34 1.34.3 4.22 26-1.98 3.88 19.6-51.28 1.76 5.2-62.14z" style="font-feature-settings:normal;font-variant-caps:normal;font-variant-ligatures:normal;font-variant-numeric:normal"/>
      <path d="M-179.1 286.82l22.95 4.48q-11.45 35.18 3.28 35.57 17.48-.13 10.12-36.43l21.01-6.64q9.65 59.78-31.13 60.3-41.22-.4-26.23-57.28z" style="font-feature-settings:normal;font-variant-caps:normal;font-variant-ligatures:normal;font-variant-numeric:normal"/>
      <path d="M-114.8 282.94l21.22 1.12-6.97 42.8 21.62-3.35-4.78 22.95-34.07-2.37zM-31.13 276.05l1.12 22.83-26.79 2.88.35 5.21 17.57-1.63 1.55 15.58-18.35 1.34.3 4.22 26.01-1.98 3.88 19.6-51.3 1.76 5.22-62.14zM-2.28 298.01l.6 11.63q21.53 0 21.53-4.3T-2.28 298zm2.88 42.6l-23.98 3.35 5-64.3q55.46 4.14 57.31 22.23 1.9 18.04-19.08 24.98l17.23 9.34-17.66 15.63-20.2-24.97zM102.4 305.98l13.87-26.05 26.4 3.87-24.72 30.15 22.96 14.3-19.77 15.84-17.23-21.53 3.02 17.66-20.24 3.87V283.8l13.74 1.51zM164.9 284.15l4.39 58.1-24.38 4.6 1.12-61.2zM174.2 344.1l-2.76-60.3q58.74 0 58.74 30.15 0 30.14-55.99 30.14zm15.33-44.32l2.88 20.84q18.65.09 18.65-10.38 0-10.46-21.53-10.46zM247.96 320.28q-15.54-2.2-13.73-19.34 1.8-17.14 39.96-20.28l3.62 19.46q-18.9-.43-20.29 4.48-1.38 4.91 14.47 5.64 15.85.74 15.5 19.3-.34 18.56-41.72 19.8l-7.63-20.36q21.2 2.28 23.3-2.11 2.11-4.44-13.48-6.6z" style="font-feature-settings:normal;font-variant-caps:normal;font-variant-ligatures:normal;font-variant-numeric:normal"/>
    </g>
    <circle cx="62.89" cy="313.95" r="11.26" fill="#e91e63"/>
  </g>
  <circle cx="20.12" cy="63.5" r=".44" fill="#2196f3"/>
</svg>
