<svg xmlns="http://www.w3.org/2000/svg" viewBox="0 0 82.25 61.3">
  <defs>
    <linearGradient id="a" x1="161.32" x2="237.58" y1="47.82" y2="47.82" gradientTransform="matrix(-.39721 -.688 .688 -.39721 87.37 186.7)" gradientUnits="userSpaceOnUse">
      <stop offset="0" stop-color="#303f9f"/>
      <stop offset="1" stop-color="#9c27b0"/>
    </linearGradient>
  </defs>
  <text x="-122.12" y="-119.97" stroke-width=".26" font-family="sans-serif" font-size="10.58" letter-spacing="0" style="line-height:1.25" word-spacing="0"/>
  <text x="-380.48" y="-399.19" stroke-width=".26" font-family="sans-serif" font-size="10.58" letter-spacing="0" style="line-height:1.25" word-spacing="0"/>
  <path fill="url(#a)" d="M25.8 4.07a30.4 30.4 0 0 1 41.42 10.96 30.4 30.4 0 0 1-10.7 41.5A30.4 30.4 0 0 1 14.96 46.1 30.4 30.4 0 0 1 25.13 4.47"/>
  <g transform="matrix(.69566 0 0 .69566 -88.18 -82.76)">
    <rect width="23.94" height="4.87" x="140.96" y="125.38" fill="#ffdc73" ry="2.43"/>
    <rect width="16.13" height="3.28" x="144.52" y="126.18" fill="#ff9e3b" ry="1.64"/>
    <rect width="10.48" height="1.51" x="147.7" y="127.06" fill="#e91e63" ry=".76"/>
    <rect width="29.42" height="4.87" x="126.75" y="133.55" fill="#ffdc73" ry="2.43"/>
    <rect width="19.81" height="3.28" x="131.12" y="134.34" fill="#ff9e3b" ry="1.64"/>
    <rect width="12.88" height="1.51" x="135.02" y="135.22" fill="#e91e63" ry=".76"/>
    <rect width="15.64" height="4.87" x="143.97" y="141.63" fill="#ffdc73" rx="2.47" ry="2.43"/>
    <rect width="10.98" height="3.19" x="146.29" y="142.42" fill="#ff9e3b" rx="1.94" ry="1.59"/>
    <rect width="6.85" height="1.51" x="148.36" y="143.3" fill="#e91e63" rx=".88" ry=".76"/>
    <rect width="23.94" height="4.87" x="131.17" y="149.34" fill="#ffc107" ry="2.43"/>
    <rect width="16.13" height="3.28" x="134.72" y="150.14" fill="#f57c00" ry="1.64"/>
    <rect width="10.48" height="1.51" x="137.9" y="151.02" fill="#e91e63" ry=".76"/>
    <rect width="23.94" height="4.87" x="131.17" y="149.34" fill="#ffdc73" ry="2.43"/>
    <rect width="16.13" height="3.28" x="134.72" y="150.14" fill="#ff9e3b" ry="1.64"/>
    <rect width="10.48" height="1.51" x="137.9" y="151.02" fill="#e91e63" ry=".76"/>
    <rect width="7.61" height="4.87" x="156.9" y="149.34" fill="#ffdc73" rx="2.21" ry="2.43"/>
    <rect width="4.68" height="3.28" x="158.36" y="150.14" fill="#ff9e3b" rx="1.59" ry="1.64"/>
    <rect width="2.54" height="1.51" x="159.44" y="151.02" fill="#e91e63" rx=".88" ry=".66"/>
    <path fill="#2196f3" d="M193.52 150.27q-5.27 4.56-12.73 4.56t-12.73-4.56q-5.28-4.56-5.28-11.02t5.28-11.02q5.27-4.56 12.73-4.56t12.73 4.56q2.65 2.3 3.99 5.08l-10.69 2.7q-.53-1.43-1.87-2.59-2.27-1.96-5.45-1.96t-5.45 1.96q-2.27 1.96-2.27 4.72t2.27 4.72q2.27 1.96 5.45 1.96t5.45-1.96q1.23-1.07 1.8-2.4l10.74 4.74q-1.32 2.78-3.97 5.07z" style="font-feature-settings:normal;font-variant-caps:normal;font-variant-ligatures:normal;font-variant-numeric:normal"/>
    <path fill="none" stroke="#8cc9f9" stroke-linecap="round" stroke-linejoin="round" stroke-width="2.65" d="M180.24 126.77s6.7-.93 11.2 4.67"/>
    <path fill="#0c84e4" d="M180.8 123.67c-4.98 0-9.22 1.52-12.74 4.56-3.52 3.05-5.28 6.72-5.28 11.02s1.76 7.98 5.28 11.02c3.52 3.04 7.76 4.56 12.73 4.56.42 0 .83-.01 1.24-.03a18.56 18.56 0 0 1-11.49-4.53c-3.51-3.04-5.27-6.71-5.27-11.02 0-4.3 1.76-7.97 5.27-11.02a18.56 18.56 0 0 1 11.5-4.52c-.42-.02-.83-.04-1.25-.04z" style="font-feature-settings:normal;font-variant-caps:normal;font-variant-ligatures:normal;font-variant-numeric:normal"/>
  </g>
  <g transform="matrix(.68766 0 0 .68766 -124.67 54.69)">
    <rect width="12.95" height="9.69" x="-44.74" y="-249.13" fill="#d01454" ry="1.67" transform="rotate(90)"/>
    <rect width="12.95" height="9.69" x="-44.74" y="291.22" fill="#0c80dd" ry="1.67" transform="matrix(0 1 1 0 0 0)"/>
    <path fill="#9c27b0" d="M298.7-44.74v12.95h-1.68v-12.95z"/>
    <rect width="20.49" height="23.53" x="-48.34" y="-270.18" fill="#e91e63" ry="5.04" transform="rotate(90)"/>
    <rect width="6.16" height="13.65" x="74.05" y="-247.03" fill="#e91e63" ry="2.92" transform="matrix(.55197 .83386 -.88528 .46507 0 0)"/>
    <path fill="#00c853" d="M242-44.74v12.95h1.8v-12.95z"/>
    <rect width="20.49" height="23.53" x="-48.34" y="270.18" fill="#2196f3" ry="5.04" transform="matrix(0 1 1 0 0 0)"/>
    <rect width="6.16" height="13.65" x="-178.54" y="205.85" fill="#2196f3" ry="2.92" transform="matrix(-.55197 .83386 .88528 .46507 0 0)"/>
    <g fill="#ffc107">
      <path d="M270.75-50.5c-.4-.25 1-5.73 1.6-6.3s3.3 1.11 3.09 1.93c-.21.82-4.3 4.62-4.7 4.37zM269.6-50.5c.4-.25-1-5.73-1.6-6.3s-3.3 1.11-3.09 1.93c.21.82 4.3 4.62 4.7 4.37z"/>
    </g>
    <rect width="3.14" height="10.46" x="264.98" y="-46.06" fill="#f9c1d4" ry="1.57"/>
    <rect width="3.14" height="10.46" x="272.73" y="-46.06" fill="#bde0fb" ry="1.57"/>
    <g fill="#ffc107">
      <path d="M270.75-26.06c-.4.25 1 5.74 1.6 6.3s3.3-1.11 3.09-1.93c-.21-.82-4.3-4.62-4.7-4.37zM269.6-26.06c.4.25-1 5.74-1.6 6.3s-3.3-1.11-3.09-1.93c.21-.82 4.3-4.62 4.7-4.37z"/>
    </g>
    <rect width="5.06" height="1.63" x="240.55" y="-43.68" fill="#f9c6d7" opacity=".67" ry=".81"/>
    <rect width="5.06" height="1.63" x="294.75" y="-43.68" fill="#bde0fb" opacity=".67" ry=".81"/>
    <g fill="none" stroke-linecap="round" stroke-linejoin="round" stroke-width=".55">
      <path stroke="#bf134d" d="M261.4-48.3h-4.14M256.54-48.98l1.29 1.71"/>
      <path stroke="#0b71c2" d="M279-48.3h4.14M283.87-48.98l-1.3 1.71"/>
    </g>
  </g>
  <path fill="#8899a6" d="M41.73 32.12a1.3 1.3 0 0 0-1.77.48L29.9 50.02a1.3 1.3 0 1 0 2.25 1.3L42.2 33.9a1.3 1.3 0 0 0-.47-1.78z"/>
  <path fill="#292f33" d="M56.45 42.18a9.12 9.12 0 0 0-2.67-2.37l-.9-.24-2.8-1.13-.53-.4-.44-.15a24.51 24.51 0 0 1-3.85-1.48l-.89.24-3.05-2.52-6.17 10.68 3.37 1.95-.08 1.44.04.03c1.3.67 2.7 1.14 4.06 1.58l.18.05.57-.15 3.29 1.36.38.53a7.89 7.89 0 0 1 2.28 2.03.65.65 0 0 0 1.08-.07l6.16-10.67a.63.63 0 0 0-.03-.7z"/>
  <g fill="#e1e8ed">
    <path d="M45.25 36.4l-.41-.2a7.88 7.88 0 0 1-2.44-2.13.65.65 0 0 0-1.08.07l-1.95 3.37s1.53 1.63 3.62 2.83l2.27-3.93zM42.98 40.34l-2.27 3.93c1.69.98 4.26 1.71 4.26 1.71l2.27-3.93s-2.43-.66-4.26-1.71zM53.78 39.81l-.16-.1a20.87 20.87 0 0 0-4.07-1.66l-2.31 4s1.54.14 4.26 1.71l2.28-3.95z"/>
    <path d="M35.15 44.81c-.13.23-.11.5.04.71a8.96 8.96 0 0 0 2.36 2.18l.89.5 2.27-3.93c-2.34-1.35-3.61-2.83-3.61-2.83zM42.72 49.87c1.46.47 2.85.92 4.09 1.64l.15.1 2.26-3.92c-2.53-1.46-4.26-1.71-4.26-1.71l-2.24 3.88zM49.22 47.7c1.51.86 2.53 1.87 3.06 2.48l2.3-3.97a12.5 12.5 0 0 0-3.08-2.45z"/>
  </g>
  <g>
    <path fill="#8899a6" d="M23.96 32.12a1.3 1.3 0 0 1 1.77.48l10.05 17.42a1.3 1.3 0 1 1-2.24 1.3L23.48 33.9a1.3 1.3 0 0 1 .48-1.78z"/>
    <path fill="#292f33" d="M9.23 42.18a9.12 9.12 0 0 1 2.67-2.37l.9-.24 2.81-1.13.52-.4.45-.15c1.37-.43 2.67-.87 3.85-1.48l.89.24 3.05-2.52 6.16 10.68-3.37 1.95.09 1.44-.04.03c-1.3.67-2.7 1.14-4.06 1.58l-.18.05-.58-.15-3.28 1.36-.38.53a7.89 7.89 0 0 0-2.28 2.03.65.65 0 0 1-1.08-.07L9.2 42.9a.63.63 0 0 1 .03-.7z"/>
    <g fill="#e1e8ed">
      <path d="M20.43 36.4l.42-.2a7.88 7.88 0 0 0 2.43-2.13.65.65 0 0 1 1.08.07l1.95 3.37s-1.52 1.63-3.61 2.83l-2.27-3.93zM22.7 40.34l2.28 3.93c-1.7.98-4.26 1.71-4.26 1.71l-2.28-3.93s2.44-.66 4.26-1.71z"/>
      <path d="M11.91 39.81l.15-.1a20.87 20.87 0 0 1 4.07-1.66l2.32 4s-1.54.14-4.26 1.71l-2.28-3.95zM30.53 44.81c.13.23.12.5-.04.71a8.96 8.96 0 0 1-2.36 2.18l-.88.5-2.27-3.93c2.34-1.35 3.6-2.83 3.6-2.83zM22.96 49.87c-1.46.47-2.84.92-4.08 1.64l-.15.1-2.27-3.92c2.53-1.46 4.26-1.71 4.26-1.71l2.25 3.88z"/>
      <path d="M16.46 47.7c-1.5.86-2.53 1.87-3.06 2.48l-2.29-3.97a12.5 12.5 0 0 1 3.08-2.45z"/>
    </g>
  </g>
  <g transform="matrix(.47401 0 0 .47401 -33.89 2.1)">
    <path fill="#e91e63" d="M159.47 77.74c-.72.03-26.09-7.03-30.72 22.59l2.59 5.18.05.06.06.05 5.23 2.58c28.65-3.98 22.76-29.75 22.8-30.46z"/>
    <g stroke-width=".1" transform="scale(1.00432 .99566) rotate(45)">
      <rect width="7.19" height="21.39" x="163.8" y="-12.9" fill="#ffdc73" ry="3.56"/>
      <rect width="4.58" height="15.78" x="165.1" y="-10.1" fill="#ff9e3b" ry="2.63"/>
      <rect width="1.59" height="10.18" x="166.6" y="-7.29" fill="#e91e63" ry="1.07"/>
    </g>
    <g stroke-width=".06" transform="scale(1.00432 .99566) rotate(45)">
      <rect width="4.58" height="13.61" x="173.46" y="-14.89" fill="#ffdc73" ry="2.27"/>
      <rect width="2.91" height="10.04" x="174.29" y="-13.11" fill="#ff9e3b" ry="1.67"/>
      <rect width="1.01" height="6.48" x="175.25" y="-11.33" fill="#e91e63" ry=".68"/>
    </g>
    <g stroke-width=".06" transform="scale(1.00432 .99566) rotate(45)">
      <rect width="4.58" height="13.61" x="156.75" y="-14.89" fill="#ffdc73" ry="2.27"/>
      <rect width="2.91" height="10.04" x="157.58" y="-13.11" fill="#ff9e3b" ry="1.67"/>
      <rect width="1.01" height="6.48" x="158.53" y="-11.33" fill="#e91e63" ry=".68"/>
    </g>
    <path fill="none" stroke="#ef5a8c" stroke-linecap="round" stroke-width="2.12" d="M144.44 81.31s-6.6 1.48-9.36 9.29"/>
    <path fill="#d21455" d="M157.69 87.03c-1.17 6.59-5.03 14.34-16.2 17.9l1.8 1.8c11.17-3.57 15.04-11.32 16.21-17.91z"/>
    <path fill="#2196f3" d="M158.04 90.4c-2.82.3-12.22-9.05-11.9-11.84.31-2.79 10.92-3.93 13.42-1.45 2.5 2.49 1.3 12.99-1.52 13.29z"/>
    <path fill="#138ff2" d="M159.56 77.11c-.28-.27-.66-.5-1.11-.7 1.52 3.6.3 11.93-2.21 12.2-1.25.13-3.77-1.61-6.18-3.84 2.83 3 6.42 5.8 7.98 5.63 2.82-.3 4.02-10.8 1.52-13.29z"/>
    <path fill="#e6e6e6" d="M148.17 76.61c-1.16.57-1.96 1.25-2.1 2-.54 3.02 8.87 12.38 11.93 11.85.75-.13 1.44-.92 2.02-2.08-3.1.36-12.19-8.68-11.85-11.77z"/>
    <path fill="#dadada" d="M160.02 88.38c-.85.1-2.15-.51-3.59-1.51l-1.8 2.29c1.35.91 2.58 1.44 3.37 1.3.75-.13 1.44-.92 2.02-2.08z"/>
    <path fill="#666" d="M129.36 101.77l5.77 5.72c.48.47.44 1 .25 1.45l-1.11 2.53c-.2.45-1 .23-1.46-.24l-7.22-7.16c-.47-.46-.7-1.25-.24-1.45l2.55-1.1c.45-.19.99-.22 1.46.25z"/>
    <g fill="#555" transform="scale(.19767 .19597) rotate(45 -170.05 1187.7)">
      <path d="M-17.7 139.5l3.09 14.4h4.94c1.47 0 3.04-2.04 2.64-4.36l-2.14-5.68c-.4-2.33-1.18-4.37-2.64-4.37zM-65.98 136.52l-3.94 10.56h7.88c3.14 0 5.66-1.94 5.66-4.36v-2.35c0-2.42-2.52-4.36-5.66-4.36z"/>
      <rect width="49.82" height="7.32" x="-63.54" y="133.89" ry="3.02"/>
    </g>
    <path fill="#d21455" d="M133.02 94.2a3.39 3.39 0 0 0-.55-.44c.9 1.37.7 3.26-.56 4.51l-3.58 3.55.98.98 3.58-3.55a3.55 3.55 0 0 0 .13-5.05z"/>
    <rect width="16.44" height="1.98" x="159.2" y="-19.8" fill="#c5c5c5" ry=".59" transform="scale(1.00432 .99566) rotate(45)"/>
    <path fill="#2196f3" d="M132.3 93.34a3.62 3.62 0 0 0-5.09.12l-3.58 3.55 4.97 4.93 3.58-3.55a3.55 3.55 0 0 0 .13-5.05zM143.6 104.53a3.62 3.62 0 0 0-5.1.13l-3.58 3.55 4.97 4.93 3.58-3.55a3.55 3.55 0 0 0 .13-5.06z"/>
    <rect width=".92" height="4.93" x="172.56" y="-24.12" fill="#6fbbf7" ry=".46" transform="scale(1.00432 .99566) rotate(45)"/>
    <rect width=".92" height="4.93" x="156.61" y="-24.05" fill="#6fbbf7" ry=".46" transform="scale(1.00432 .99566) rotate(45)"/>
    <path fill="#b6b6b6" d="M129.38 100.38c-.1-.09-.36.02-.6.25l-.56.56c-.23.23-.34.5-.25.59l1.19 1.18 1.4-1.4z"/>
    <path fill="#138ff2" d="M132.3 93.34a3.39 3.39 0 0 0-.54-.44c.9 1.37.7 3.26-.56 4.52l-3.58 3.54.98.98 3.58-3.55a3.55 3.55 0 0 0 .13-5.05z"/>
    <rect width="8.19" height="2.18" x="155.35" y="-18.54" fill="#e6e6e6" ry=".86" transform="scale(1.00432 .99566) rotate(45)"/>
    <g stroke-width=".37">
      <path fill="#d6d6d6" d="M127.6 100.39l-1.55 1.53 1.06 1.05c.36.36.92.38 1.26.04l.33-.33c.33-.33.32-.89-.05-1.25z"/>
      <path fill="#138ff2" d="M143.6 104.53a3.39 3.39 0 0 0-.54-.43c.9 1.36.7 3.25-.57 4.51l-3.58 3.55.98.98 3.58-3.55a3.55 3.55 0 0 0 .13-5.06z"/>
      <path fill="#555" d="M135.38 108.97l-.92 2-1.1-1.09c-.44-.43-.52-1.05-.19-1.39l.33-.32c.34-.34.96-.26 1.4.18z"/>
    </g>
    <rect width="8.19" height="2.18" x="171.25" y="-18.54" fill="#e6e6e6" ry=".86" transform="scale(1.00432 .99566) rotate(45)"/>
    <path fill="#d6d6d6" d="M138.84 111.53l-1.55 1.53 1.09 1.08c.37.37.94.4 1.28.06l.33-.32c.34-.34.3-.9-.06-1.27z"/>
    <path fill="none" stroke="#6fbbf7" stroke-linecap="round" stroke-width="1.32" d="M151.82 78.13s3.03-1.12 5.6-.16"/>
    <circle cx="145.97" cy="90.68" r="4.44" fill="#f1f9fb" stroke="#cbcbcb" stroke-linecap="round" stroke-linejoin="round" stroke-width="1.31"/>
    <path fill="#80e5ff" fill-opacity=".95" d="M145.1 86.32a4.44 4.44 0 0 0-2.14 1.1v6.52a4.44 4.44 0 0 0 2.15 1.1zM145.97 86.23a4.44 4.44 0 0 0-.35.02v8.85a4.44 4.44 0 0 0 .35.02 4.44 4.44 0 0 0 .77-.07V86.3a4.44 4.44 0 0 0-.77-.08z" opacity=".36"/>
    <circle cx="145.97" cy="90.68" r="4.44" fill="none" stroke="#cbcbcb" stroke-linecap="round" stroke-linejoin="round" stroke-width="1.31"/>
  </g>
</svg>
