<svg xmlns="http://www.w3.org/2000/svg" viewBox="0 0 67.94 74.39">
  <defs>
    <linearGradient id="a" x1="161.32" x2="237.58" y1="47.82" y2="47.82" gradientTransform="matrix(.79443 0 0 .79443 -174.65 -213.92)" gradientUnits="userSpaceOnUse">
      <stop offset="0" stop-color="#00c853"/>
      <stop offset="1" stop-color="#2196f3"/>
    </linearGradient>
  </defs>
  <path fill="url(#a)" d="M14.3-175.94a30.4 30.4 0 0 1-30.2 30.4 30.4 30.4 0 0 1-30.6-30 30.4 30.4 0 0 1 29.82-30.79A30.4 30.4 0 0 1 14.3-176.7" transform="scale(.86508) rotate(81.96 -107.19 -40.9)"/>
  <path fill="#8899a6" d="M46.69 5.54a1.85 1.85 0 0 0-2.54.68l-14.4 24.93a1.85 1.85 0 1 0 3.22 1.86l14.4-24.93c.51-.88.2-2.03-.68-2.54z"/>
  <path fill="#292f33" d="M67.76 19.94c-1-1.35-2.27-2.46-3.82-3.4l-1.29-.33-4.02-1.63-.74-.57-.64-.2a35.08 35.08 0 0 1-5.51-2.14l-1.27.34-4.37-3.6-8.83 15.29 4.83 2.79-.13 2.06.07.04a37.3 37.3 0 0 0 5.8 2.26l.26.08.82-.22 4.7 1.96.55.75c1.33.81 2.4 1.76 3.27 2.9.18.25.48.4.8.37.3-.02.59-.2.74-.46l8.82-15.28a.9.9 0 0 0-.04-1.01z"/>
  <g fill="#e1e8ed">
    <path d="M51.73 11.67l-.6-.3a11.28 11.28 0 0 1-3.48-3.04.93.93 0 0 0-1.55.1l-2.78 4.82s2.18 2.33 5.17 4.05l3.25-5.63zM48.48 17.3l-3.25 5.63c2.41 1.4 6.1 2.45 6.1 2.45l3.25-5.63s-3.49-.94-6.1-2.45zM63.93 16.54l-.22-.14a29.87 29.87 0 0 0-5.83-2.38l-3.3 5.73s2.2.2 6.09 2.45l3.27-5.65z"/>
    <path d="M37.27 23.7a.94.94 0 0 0 .06 1.02c.9 1.22 2.03 2.23 3.38 3.11l1.27.73 3.25-5.63c-3.35-1.93-5.17-4.05-5.17-4.05l-2.79 4.82zM48.11 30.94c2.1.67 4.07 1.32 5.84 2.34l.22.15 3.24-5.61c-3.62-2.1-6.1-2.45-6.1-2.45l-3.2 5.56zM57.42 27.83a17.8 17.8 0 0 1 4.38 3.55l3.27-5.67a17.9 17.9 0 0 0-4.4-3.52z"/>
  </g>
  <g>
    <path fill="#8899a6" d="M21.25 5.54c.89-.51 2.02-.2 2.53.68l14.4 24.93a1.85 1.85 0 1 1-3.21 1.86L20.57 8.08a1.85 1.85 0 0 1 .68-2.54z"/>
    <path fill="#292f33" d="M.18 19.94c1-1.35 2.26-2.46 3.82-3.4l1.28-.33 4.03-1.63.74-.57.64-.2a35.08 35.08 0 0 0 5.51-2.14l1.27.34 4.37-3.6 8.82 15.29-4.82 2.79.12 2.06-.06.04a37.3 37.3 0 0 1-5.8 2.26l-.27.08-.82-.22-4.7 1.96-.54.75c-1.34.81-2.41 1.76-3.27 2.9a.93.93 0 0 1-1.55-.1L.15 20.96a.9.9 0 0 1 .04-1.01z"/>
    <g fill="#e1e8ed">
      <path d="M16.2 11.67l.6-.3a11.28 11.28 0 0 0 3.49-3.04.93.93 0 0 1 1.55.1l2.78 4.82s-2.18 2.33-5.17 4.05l-3.25-5.63zM19.46 17.3l3.25 5.63c-2.42 1.4-6.1 2.45-6.1 2.45l-3.25-5.63s3.48-.94 6.1-2.45z"/>
      <path d="M4 16.54c.09-.04.15-.1.23-.14a29.87 29.87 0 0 1 5.82-2.38l3.31 5.73s-2.2.2-6.1 2.45L4 16.55zM30.66 23.7c.19.32.16.72-.06 1.02a12.83 12.83 0 0 1-3.37 3.11l-1.27.73-3.25-5.63c3.35-1.93 5.17-4.05 5.17-4.05l2.78 4.82zM19.83 30.94c-2.1.67-4.08 1.32-5.85 2.34l-.22.15-3.24-5.61c3.62-2.1 6.1-2.45 6.1-2.45l3.21 5.56z"/>
      <path d="M10.52 27.83a17.8 17.8 0 0 0-4.38 3.55l-3.27-5.67a17.9 17.9 0 0 1 4.4-3.52z"/>
    </g>
  </g>
  <g transform="translate(-61.54 -37.43) scale(.67845)">
    <path fill="#e91e63" d="M159.47 77.74c-.72.03-26.09-7.03-30.72 22.59l2.59 5.18.05.06.06.05 5.23 2.58c28.65-3.98 22.76-29.75 22.8-30.46z"/>
    <g stroke-width=".1" transform="scale(1.00432 .99566) rotate(45)">
      <rect width="7.19" height="21.39" x="163.8" y="-12.9" fill="#ffdc73" ry="3.56"/>
      <rect width="4.58" height="15.78" x="165.1" y="-10.1" fill="#ff9e3b" ry="2.63"/>
      <rect width="1.59" height="10.18" x="166.6" y="-7.29" fill="#e91e63" ry="1.07"/>
    </g>
    <g stroke-width=".06" transform="scale(1.00432 .99566) rotate(45)">
      <rect width="4.58" height="13.61" x="173.46" y="-14.89" fill="#ffdc73" ry="2.27"/>
      <rect width="2.91" height="10.04" x="174.29" y="-13.11" fill="#ff9e3b" ry="1.67"/>
      <rect width="1.01" height="6.48" x="175.25" y="-11.33" fill="#e91e63" ry=".68"/>
    </g>
    <g stroke-width=".06" transform="scale(1.00432 .99566) rotate(45)">
      <rect width="4.58" height="13.61" x="156.75" y="-14.89" fill="#ffdc73" ry="2.27"/>
      <rect width="2.91" height="10.04" x="157.58" y="-13.11" fill="#ff9e3b" ry="1.67"/>
      <rect width="1.01" height="6.48" x="158.53" y="-11.33" fill="#e91e63" ry=".68"/>
    </g>
    <path fill="none" stroke="#ef5a8c" stroke-linecap="round" stroke-width="2.12" d="M144.44 81.31s-6.6 1.48-9.36 9.29"/>
    <path fill="#d21455" d="M157.69 87.03c-1.17 6.59-5.03 14.34-16.2 17.9l1.8 1.8c11.17-3.57 15.04-11.32 16.21-17.91z"/>
    <path fill="#2196f3" d="M158.04 90.4c-2.82.3-12.22-9.05-11.9-11.84.31-2.79 10.92-3.93 13.42-1.45 2.5 2.49 1.3 12.99-1.52 13.29z"/>
    <path fill="#138ff2" d="M159.56 77.11c-.28-.27-.66-.5-1.11-.7 1.52 3.6.3 11.93-2.21 12.2-1.25.13-3.77-1.61-6.18-3.84 2.83 3 6.42 5.8 7.98 5.63 2.82-.3 4.02-10.8 1.52-13.29z"/>
    <path fill="#e6e6e6" d="M148.17 76.61c-1.16.57-1.96 1.25-2.1 2-.54 3.02 8.87 12.38 11.93 11.85.75-.13 1.44-.92 2.02-2.08-3.1.36-12.19-8.68-11.85-11.77z"/>
    <path fill="#dadada" d="M160.02 88.38c-.85.1-2.15-.51-3.59-1.51l-1.8 2.29c1.35.91 2.58 1.44 3.37 1.3.75-.13 1.44-.92 2.02-2.08z"/>
    <path fill="#666" d="M129.36 101.77l5.77 5.72c.48.47.44 1 .25 1.45l-1.11 2.53c-.2.45-1 .23-1.46-.24l-7.22-7.16c-.47-.46-.7-1.25-.24-1.45l2.55-1.1c.45-.19.99-.22 1.46.25z"/>
    <g fill="#555" transform="scale(.19767 .19597) rotate(45 -170.05 1187.7)">
      <path d="M-17.7 139.5l3.09 14.4h4.94c1.47 0 3.04-2.04 2.64-4.36l-2.14-5.68c-.4-2.33-1.18-4.37-2.64-4.37zM-65.98 136.52l-3.94 10.56h7.88c3.14 0 5.66-1.94 5.66-4.36v-2.35c0-2.42-2.52-4.36-5.66-4.36z"/>
      <rect width="49.82" height="7.32" x="-63.54" y="133.89" ry="3.02"/>
    </g>
    <path fill="#d21455" d="M133.02 94.2a3.39 3.39 0 0 0-.55-.44c.9 1.37.7 3.26-.56 4.51l-3.58 3.55.98.98 3.58-3.55a3.55 3.55 0 0 0 .13-5.05z"/>
    <rect width="16.44" height="1.98" x="159.2" y="-19.8" fill="#c5c5c5" ry=".59" transform="scale(1.00432 .99566) rotate(45)"/>
    <path fill="#2196f3" d="M132.3 93.34a3.62 3.62 0 0 0-5.09.12l-3.58 3.55 4.97 4.93 3.58-3.55a3.55 3.55 0 0 0 .13-5.05zM143.6 104.53a3.62 3.62 0 0 0-5.1.13l-3.58 3.55 4.97 4.93 3.58-3.55a3.55 3.55 0 0 0 .13-5.06z"/>
    <rect width=".92" height="4.93" x="172.56" y="-24.12" fill="#6fbbf7" ry=".46" transform="scale(1.00432 .99566) rotate(45)"/>
    <rect width=".92" height="4.93" x="156.61" y="-24.05" fill="#6fbbf7" ry=".46" transform="scale(1.00432 .99566) rotate(45)"/>
    <path fill="#b6b6b6" d="M129.38 100.38c-.1-.09-.36.02-.6.25l-.56.56c-.23.23-.34.5-.25.59l1.19 1.18 1.4-1.4z"/>
    <path fill="#138ff2" d="M132.3 93.34a3.39 3.39 0 0 0-.54-.44c.9 1.37.7 3.26-.56 4.52l-3.58 3.54.98.98 3.58-3.55a3.55 3.55 0 0 0 .13-5.05z"/>
    <rect width="8.19" height="2.18" x="155.35" y="-18.54" fill="#e6e6e6" ry=".86" transform="scale(1.00432 .99566) rotate(45)"/>
    <g stroke-width=".37">
      <path fill="#d6d6d6" d="M127.6 100.39l-1.55 1.53 1.06 1.05c.36.36.92.38 1.26.04l.33-.33c.33-.33.32-.89-.05-1.25z"/>
      <path fill="#138ff2" d="M143.6 104.53a3.39 3.39 0 0 0-.54-.43c.9 1.36.7 3.25-.57 4.51l-3.58 3.55.98.98 3.58-3.55a3.55 3.55 0 0 0 .13-5.06z"/>
      <path fill="#555" d="M135.38 108.97l-.92 2-1.1-1.09c-.44-.43-.52-1.05-.19-1.39l.33-.32c.34-.34.96-.26 1.4.18z"/>
    </g>
    <rect width="8.19" height="2.18" x="171.25" y="-18.54" fill="#e6e6e6" ry=".86" transform="scale(1.00432 .99566) rotate(45)"/>
    <path fill="#d6d6d6" d="M138.84 111.53l-1.55 1.53 1.09 1.08c.37.37.94.4 1.28.06l.33-.32c.34-.34.3-.9-.06-1.27z"/>
    <path fill="none" stroke="#6fbbf7" stroke-linecap="round" stroke-width="1.32" d="M151.82 78.13s3.03-1.12 5.6-.16"/>
    <circle cx="145.97" cy="90.68" r="4.44" fill="#f1f9fb" stroke="#cbcbcb" stroke-linecap="round" stroke-linejoin="round" stroke-width="1.31"/>
    <path fill="#80e5ff" fill-opacity=".95" d="M145.1 86.32a4.44 4.44 0 0 0-2.14 1.1v6.52a4.44 4.44 0 0 0 2.15 1.1zM145.97 86.23a4.44 4.44 0 0 0-.35.02v8.85a4.44 4.44 0 0 0 .35.02 4.44 4.44 0 0 0 .77-.07V86.3a4.44 4.44 0 0 0-.77-.08z" opacity=".36"/>
    <circle cx="145.97" cy="90.68" r="4.44" fill="none" stroke="#cbcbcb" stroke-linecap="round" stroke-linejoin="round" stroke-width="1.31"/>
  </g>
  <g fill="#2196f3" stroke-width=".26">
    <g aria-label="rocket" style="font-feature-settings:normal;font-variant-caps:normal;font-variant-ligatures:normal;font-variant-numeric:normal">
      <path d="M16.93 58.48l.06 1.21q2.24 0 2.24-.45t-2.3-.76zm.3 4.43l-2.5.34.53-6.67q5.75.43 5.95 2.3.2 1.88-1.98 2.6l1.78.97-1.83 1.62-2.1-2.59zM25.27 63.27q-1.52 0-2.58-.92-1.07-.91-1.07-2.21t1.07-2.21q1.06-.92 2.58-.92 1.5 0 2.57.92 1.06.91 1.06 2.2t-1.06 2.22q-1.07.92-2.57.92zM25 61.3q.65 0 1.1-.39.46-.4.46-.95 0-.55-.46-.94-.45-.4-1.1-.4-.64 0-1.1.4-.46.39-.46.94 0 .56.46.95.46.4 1.1.4zM35.3 62.35q-1.05.92-2.55.92-1.5 0-2.56-.92-1.06-.91-1.06-2.21t1.06-2.21q1.06-.92 2.56-.92t2.56.92q.53.46.8 1.02l-2.15.54q-.1-.29-.38-.52-.45-.4-1.1-.4-.63 0-1.09.4-.45.4-.45.95 0 .55.45.94.46.4 1.1.4.64 0 1.1-.4.24-.21.36-.48l2.15.95q-.26.56-.8 1.02zM37.97 59.31l1.44-2.7 2.74.4-2.57 3.13 2.39 1.48-2.06 1.65-1.78-2.24.3 1.84-2.1.4V57l1.43.16zM47.12 56.2l.12 2.37-2.78.3.03.54 1.83-.17.16 1.62-1.9.14.02.44 2.7-.2.4 2.03-5.32.18.54-6.45zM51.24 58.91l.22 3.81-2.43.63.42-4.55-1.83-.16.14-1.65 5.25-.32.2 2.45z" style="font-feature-settings:normal;font-variant-caps:normal;font-variant-ligatures:normal;font-variant-numeric:normal"/>
    </g>
    <g aria-label="race" style="font-feature-settings:normal;font-variant-caps:normal;font-variant-ligatures:normal;font-variant-numeric:normal">
      <path d="M23.6 68.8l.06 1.21q2.24 0 2.24-.44 0-.45-2.3-.76zm.3 4.43l-2.5.35.53-6.68q5.76.43 5.95 2.3.2 1.88-1.98 2.6l1.79.97-1.84 1.62-2.1-2.59zM29.85 72.7l-.31.89-1.76-1.06 2.2-5.2 1.68-.12 2.65 5.38-2.1 1-.45-1.26zm1.53-1.96l-.5-1.62-.6 1.79zM40.17 72.67q-1.06.92-2.56.92t-2.55-.92Q34 71.76 34 70.47q0-1.3 1.06-2.22t2.55-.92q1.5 0 2.56.92.53.46.8 1.02l-2.14.54q-.11-.29-.38-.52-.46-.4-1.1-.4t-1.09.4-.46.95.46.94q.46.4 1.1.4t1.1-.4q.24-.21.35-.48l2.16.95q-.27.56-.8 1.02zM45.94 66.53l.12 2.37-2.78.3.03.54 1.83-.17.16 1.61-1.9.14.03.44 2.7-.2.4 2.03-5.33.18.55-6.45z" style="font-feature-settings:normal;font-variant-caps:normal;font-variant-ligatures:normal;font-variant-numeric:normal"/>
    </g>
  </g>
</svg>
