<svg xmlns="http://www.w3.org/2000/svg" viewBox="0 0 1028.1 60.77">
  <path fill="none" stroke="#e91e63" stroke-linecap="round" stroke-width="5.32" d="M391.05 58.1s120.38-35.66 200.63-7.5"/>
  <g fill="#616161" stroke-width=".83" aria-label="Real-time multi-player educational games for classrooms" font-family="Architects Daughter" font-size="33.02" font-weight="400" letter-spacing="0" style="line-height:1.25;-inkscape-font-specification:'Architects Daughter, Normal';font-variant-ligatures:normal;font-variant-caps:normal;font-variant-numeric:normal;font-feature-settings:normal;text-align:start" word-spacing="0">
    <path d="M3.64 27.06q0 .32-.25.48-.23.17-.55.23-.3.07-.58.07h-.42q-.84 0-1.2-1-.35-1-.45-2.78-.06-1.77.04-4.22.1-2.45.16-5.36.1-2.9.03-6.16Q.39 5.07 0 1.65.39.97.8.9q.46-.07.84.19.4.26.71.68.33.42.52.7 1-.96 2.77-1.44Q7.42.52 9.48.39q2.1-.13 4.26.13 2.16.23 3.93.74 1.78.52 2.94 1.3 1.2.77 1.29 1.73.13.97-1.03 2.1-1.17 1.13-4.1 2.35-.45.2-1.39.55l-2.13.74q-1.19.39-2.48.84-1.26.45-2.42.9-1.16.42-2.03.81-.87.36-1.22.61 0 .16.16.4.16.18.77.64.61.41 1.84 1.16l3.35 2 5.32 3.12L24.32 25l.38.29q.26.16.45.38.23.23.4.49.15.22.15.51 0 .42-.32.65-.32.2-.77.29-.45.1-.94.1h-.8q-.59.06-1.88-.62-1.25-.67-2.93-1.77-1.64-1.1-3.58-2.45-1.93-1.39-3.84-2.71-1.9-1.35-3.64-2.52-1.74-1.16-3-1.83zM3.42 5q-.3.45-.39 1.23-.06.74.03 1.55.13.8.36 1.51.26.71.58 1.03.35.13 1.35-.06 1.04-.2 2.42-.58 1.39-.42 2.94-1 1.58-.58 3-1.2 1.45-.64 2.58-1.28 1.12-.68 1.64-1.26.52-.58.23-1.03-.3-.46-1.71-.71-.58-.16-1.65-.23-1.06-.1-2.38-.1-1.3 0-2.71.13-1.42.1-2.68.36-1.26.22-2.22.64-.97.42-1.4 1zM27.35 22.55q-.3-2.62.45-5.2.74-2.6 2.29-4.64 1.58-2.06 3.8-3.29 2.23-1.26 4.9-1.2 1.1-.03 2.52.5 1.42.5 2.61 1.44 1.2.9 1.9 2.13.75 1.2.5 2.55.02.68-.69 1.13-.7.42-1.9.67-1.16.26-2.74.4-1.55.09-3.29.15l-3.48.13q-1.78.03-3.36.16-.9 2.49-.55 4.1.4 1.58 1.58 2.42 1.23.84 3 1 1.81.13 3.75-.26 1.93-.39 3.8-1.23 1.87-.87 3.23-2.06.19 0 .48.13.32.13.61.35.3.2.49.45.22.23.22.42-.8 1.4-2.45 2.49-1.64 1.1-3.7 1.77-2.07.68-4.33.84-2.22.16-4.2-.32-1.96-.49-3.44-1.71-1.49-1.23-2-3.32zm15.41-8.61q-.16-1.23-.96-1.84-.81-.62-1.9-.78-1.1-.19-2.33.04-1.22.22-2.29.67-1.03.45-1.74 1.07-.68.61-.71 1.22zM64.7 21.16q-.94 1.45-2.17 2.64-1.22 1.16-2.7 2-1.46.81-3.2 1.2-1.7.38-3.61.22-.68 0-1.45-.16-.78-.16-1.45-.51-.65-.36-1.07-.94-.42-.58-.42-1.45-.35-1.8.16-3.74.55-1.97 1.65-3.8 1.13-1.88 2.7-3.5 1.62-1.64 3.43-2.76 1.8-1.17 3.67-1.68 1.9-.55 3.65-.23 1.32 0 2.03.87.74.87 1.1 2.36.38 1.45.45 3.38.1 1.9.1 4 .03 2.07.09 4.16.06 2.07.35 3.84-.03.07-.32.39-.26.32-.68.51-.41.2-.96.07-.52-.1-1.03-.9-.2-.33-.26-1.13-.03-.84-.03-1.78.03-.93.03-1.8.03-.87-.07-1.26zm-2.04-9.8q-1.26-.1-2.61.38-1.36.49-2.65 1.39-1.25.87-2.38 2.06-1.13 1.16-1.97 2.45-.84 1.26-1.32 2.52-.45 1.26-.42 2.32.06 1.03.68 1.78.64.7 2 .93 1.87.03 3.58-.93 1.7-1 3.1-2.49 1.38-1.48 2.31-3.22.97-1.78 1.3-3.32.35-1.55 0-2.62-.36-1.1-1.62-1.25zM69.63 1.39q.22-.52.61-.77.42-.3.84-.36.42-.1.77.07.39.13.62.48l.74 25.86q0 .58-.36.84-.35.26-.8.3-.46 0-.94-.2-.48-.2-.74-.58zM75.34 18.1q0-.55.45-.75.48-.22.96-.29 1.84-.25 3.58-.54 1.78-.33 3.68-.52.8 0 1.35.29.59.26.75.64.19.36-.04.78-.22.39-.96.61l-7.74.8-.62-.02q-.35-.04-.67-.13-.3-.13-.52-.33-.22-.19-.22-.54zM87.82 14.16q-.78-.2-1-.64-.26-.46-.17-.9.1-.5.42-.85.33-.35.68-.38h6.03l-.13-10.06q.13-.4.55-.65.42-.26.9-.29.49-.06.97.13.49.16.78.64l.29 10.07 5.7-.13q.58.32.78.8.22.46.2.9-.04.43-.27.78-.19.32-.45.39l-5.96.13q-.04 2 .03 3.6l.2 3.1q.12 1.49.19 3.1.1 1.58.1 3.55-.94.64-1.91.61-.97-.03-1.32-.8l-.36-13.1zM108.4 8.9q.28 3.97.5 8.45.23 4.45.4 9-.17.65-.68.94-.49.29-1.07.32-.58 0-1.1-.2-.48-.19-.6-.51v-18zm-3.75-5.48q0-.74.42-1.06.42-.32 1-.36.58-.06 1.16.1t.84.39q.29 1.06-.1 1.54-.39.49-1.03.55-.61.04-1.29-.29-.68-.32-1-.87zM111 27.19q-.03-.87 0-2.2.07-1.32.1-2.86.06-1.58.1-3.32.06-1.75.06-3.46.03-1.7-.03-3.29-.07-1.6-.23-2.9 0-.35.23-.58.26-.22.61-.35.39-.13.8-.16.43-.07.78-.07.26 0 .32.61.07.62.07 1.42 0 .78-.03 1.58 0 .78.1 1.13.48-1 1.54-1.9 1.07-.9 2.39-1.52 1.32-.6 2.77-.83 1.45-.26 2.74.06 1.3.29 2.23 1.23.97.93 1.29 2.67 1-.97 2.32-1.84 1.35-.87 2.8-1.45 1.49-.61 2.97-.84 1.49-.25 2.74.04 1.3.29 2.2 1.19.93.87 1.32 2.55l.61 15.44q0 .07-.55.2-.51.1-1.16.13-.64.03-1.2-.03-.54-.1-.54-.42-.06-1.17-.03-2.71.06-1.58.1-3.23l.1-3.32q.02-1.68-.04-3.06-.03-1.39-.23-2.36-.19-.97-.54-1.29-1.1-.35-2.33-.35-1.22 0-2.41.51-1.2.52-2.3 1.62-1.06 1.1-1.86 2.96-.81 1.84-1.26 4.55-.45 2.68-.36 6.39-.16.54-.77.7-.58.17-1.23.1-.64-.06-1.13-.29-.45-.26-.35-.51.32-1.68.45-3.49.16-1.8.16-3.54 0-1.78-.13-3.36-.13-1.58-.35-2.8-.23-1.23-.58-1.97-.32-.74-.74-.84-1.87-.16-3.2.52-1.32.64-2.25 1.87-.9 1.22-1.49 2.87-.55 1.64-.84 3.48-.25 1.8-.35 3.7-.06 1.91 0 3.62l-1.16.45q-.61.23-1.23.23-.35 0-.55-.13-.19-.13-.45-.55zM142.93 22.55q-.29-2.62.45-5.2.74-2.6 2.3-4.64 1.57-2.06 3.8-3.29 2.22-1.26 4.9-1.2 1.1-.03 2.51.5 1.42.5 2.62 1.44 1.19.9 1.9 2.13.74 1.2.48 2.55.04.68-.67 1.13-.71.42-1.9.67-1.17.26-2.75.4-1.55.09-3.29.15l-3.48.13q-1.77.03-3.35.16-.9 2.49-.55 4.1.38 1.58 1.58 2.42 1.22.84 3 1 1.8.13 3.74-.26 1.93-.39 3.8-1.23 1.87-.87 3.23-2.06.2 0 .48.13.32.13.61.35.3.2.49.45.22.23.22.42-.8 1.4-2.45 2.49-1.64 1.1-3.7 1.77-2.07.68-4.33.84-2.22.16-4.19-.32-1.97-.49-3.45-1.71-1.48-1.23-2-3.32zm15.42-8.61q-.17-1.23-.97-1.84-.8-.62-1.9-.78-1.1-.19-2.33.04-1.22.22-2.29.67-1.03.45-1.74 1.07-.67.61-.7 1.22zM180.92 27.19q-.03-.87 0-2.2.07-1.32.1-2.86.06-1.58.1-3.32.06-1.75.06-3.46.03-1.7-.03-3.29-.07-1.6-.23-2.9 0-.35.23-.58.25-.22.6-.35.4-.13.82-.16.41-.07.77-.07.26 0 .32.61.07.62.07 1.42 0 .78-.04 1.58 0 .78.1 1.13.48-1 1.55-1.9 1.06-.9 2.39-1.52 1.32-.6 2.77-.83 1.45-.26 2.74.06 1.29.29 2.23 1.23.96.93 1.29 2.67 1-.97 2.32-1.84 1.35-.87 2.8-1.45 1.49-.61 2.97-.84 1.48-.25 2.74.04 1.3.29 2.2 1.19.93.87 1.32 2.55l.6 15.44q0 .07-.54.2-.52.1-1.16.13-.65.03-1.2-.03-.54-.1-.54-.42-.07-1.17-.03-2.71.06-1.58.1-3.23.06-1.68.09-3.32.03-1.68-.03-3.06-.04-1.39-.23-2.36-.2-.97-.55-1.29-1.1-.35-2.32-.35-1.22 0-2.42.51-1.2.52-2.29 1.62-1.06 1.1-1.87 2.96-.8 1.84-1.26 4.55-.45 2.68-.35 6.39-.16.54-.77.7-.58.17-1.23.1-.64-.06-1.13-.29-.45-.26-.35-.51.32-1.68.45-3.49.16-1.8.16-3.54 0-1.78-.13-3.36-.13-1.58-.35-2.8-.23-1.23-.58-1.97-.33-.74-.75-.84-1.87-.16-3.19.52-1.32.64-2.26 1.87-.9 1.22-1.48 2.87-.55 1.64-.84 3.48-.26 1.8-.35 3.7-.07 1.91 0 3.62l-1.16.45q-.62.23-1.23.23-.35 0-.55-.13-.2-.13-.45-.55zM212.69 22.55q-.13-.84-.16-2.07-.04-1.26.03-2.64.1-1.42.26-2.87.19-1.49.45-2.74.26-1.3.58-2.26.32-1 .7-1.48 1-.55 1.68-.13.68.38.58 1.32-.1.84-.45 2.2-.35 1.31-.7 3-.33 1.67-.49 3.57-.13 1.87.23 3.77.29 1.16 1.16 1.81.9.61 2.13.8 1.22.17 2.6-.03 1.43-.22 2.75-.7 1.32-.52 2.42-1.23 1.1-.74 1.7-1.58.07-1.2.04-2.68 0-1.51-.07-3.16l-.06-3.39q0-1.74.06-3.45.62-.74 1.46-.58.87.13 1.32.81l.93 18.58q-.29.29-.67.51-.36.23-.75.3-.38.09-.74-.04-.35-.1-.61-.48l-.52-3.07q-.51.45-1.8 1.13-1.3.65-2.97 1.2-1.64.51-3.48.77-1.84.22-3.42-.16-1.58-.39-2.74-1.55-1.16-1.2-1.45-3.48zM233 1.39q.23-.52.62-.77.42-.3.84-.36.41-.1.77.07.39.13.61.48l.74 25.86q0 .58-.35.84-.36.26-.8.3-.46 0-.94-.2-.49-.2-.74-.58zM238.36 14.16q-.78-.2-1-.64-.26-.46-.16-.9.1-.5.42-.85.32-.35.67-.38h6.03l-.13-10.06q.13-.4.55-.65.42-.26.9-.29.49-.06.97.13.49.16.78.64l.29 10.07 5.7-.13q.59.32.78.8.23.46.2.9-.04.43-.26.78-.2.32-.46.39l-5.96.13q-.03 2 .03 3.6l.2 3.1q.12 1.49.19 3.1.1 1.58.1 3.55-.94.64-1.9.61-.98-.03-1.33-.8l-.36-13.1zM258.93 8.9q.3 3.97.52 8.45.22 4.45.39 9-.17.65-.68.94-.49.29-1.07.32-.58 0-1.1-.2-.48-.19-.6-.51v-18zm-3.74-5.48q0-.74.42-1.06.42-.32 1-.36.58-.06 1.16.1t.84.39q.29 1.06-.1 1.54-.38.49-1.03.55-.61.04-1.29-.29-.68-.32-1-.87zM261.67 18.1q0-.55.46-.75.48-.22.96-.29 1.84-.25 3.58-.54 1.78-.33 3.68-.52.8 0 1.35.29.58.26.75.64.19.36-.04.78-.22.39-.96.61l-7.74.8-.62-.02q-.35-.04-.67-.13-.3-.13-.52-.33-.23-.19-.23-.54zM273.74 9.23q.12-.13.51-.3.42-.15.87-.12.49 0 .9.29.42.29.59 1 4.41-1.52 7.57-1.68 3.16-.16 5.16.61 2.04.75 2.94 2.26.9 1.48.77 3.35-.13 1.84-1.25 3.84-1.13 2-3.17 3.78-2.03 1.74-4.96 3.06-2.9 1.29-6.61 1.74.03.45.03 1.48v5.13l.06 2.8.07 2.43q.03 1.06.1 1.54.1.75-.13 1.23t-.68.74q-.45.3-1.07.36-.6.1-1.29.03zm11.6 1.64q-1.25.03-2.8.32-1.52.26-2.84.94-1.29.68-2.16 1.84-.84 1.16-.74 2.9l.06 7.48q3.55-.45 6.13-1.61 2.58-1.2 4.23-2.7 1.64-1.53 2.32-3.17.7-1.64.45-2.97-.23-1.35-1.39-2.19-1.16-.87-3.25-.84zM294.6 1.39q.23-.52.61-.77.42-.3.84-.36.42-.1.78.07.38.13.6.48l.75 25.86q0 .58-.35.84-.36.26-.81.3-.45 0-.94-.2-.48-.2-.74-.58zM316.05 21.16q-.94 1.45-2.16 2.64-1.23 1.16-2.71 2-1.45.81-3.2 1.2-1.7.38-3.6.22-.68 0-1.46-.16-.77-.16-1.45-.51-.65-.36-1.06-.94-.42-.58-.42-1.45-.36-1.8.16-3.74.55-1.97 1.64-3.8 1.13-1.88 2.71-3.5 1.61-1.64 3.42-2.76 1.8-1.17 3.68-1.68 1.9-.55 3.64-.23 1.32 0 2.03.87.74.87 1.1 2.36.39 1.45.45 3.38.1 1.9.1 4 .03 2.07.1 4.16.06 2.07.35 3.84-.03.07-.32.39-.26.32-.68.51-.42.2-.97.07-.51-.1-1.03-.9-.2-.33-.26-1.13-.03-.84-.03-1.78.03-.93.03-1.8.03-.87-.06-1.26zm-2.03-9.8q-1.26-.1-2.62.38-1.35.49-2.64 1.39-1.26.87-2.39 2.06-1.13 1.16-1.97 2.45-.83 1.26-1.32 2.52-.45 1.26-.42 2.32.07 1.03.68 1.78.65.7 2 .93 1.87.03 3.58-.93 1.7-1 3.1-2.49 1.38-1.48 2.32-3.22.97-1.78 1.29-3.32.35-1.55 0-2.62-.36-1.1-1.61-1.25zM320.43 11.07q-.1-.42.07-.81.2-.39.51-.71.33-.32.74-.55.42-.22.78-.29l10.8 15.7 6.9-15.92q.07-.17.46-.2.38-.06.8.07.45.1.78.45.35.35.29 1l-12.32 32.7q-.33.68-.9.87-.59.2-1.14.06-.54-.13-.9-.51-.35-.36-.26-.78l5-13.9zM341.98 22.55q-.3-2.62.45-5.2.74-2.6 2.29-4.64 1.58-2.06 3.8-3.29 2.23-1.26 4.9-1.2 1.1-.03 2.52.5 1.42.5 2.61 1.44 1.2.9 1.9 2.13.75 1.2.49 2.55.03.68-.68 1.13-.7.42-1.9.67-1.16.26-2.74.4-1.55.09-3.3.15l-3.48.13q-1.77.03-3.35.16-.9 2.49-.55 4.1.39 1.58 1.58 2.42 1.23.84 3 1 1.8.13 3.74-.26 1.94-.39 3.8-1.23 1.88-.87 3.23-2.06.2 0 .49.13.32.13.61.35.29.2.48.45.23.23.23.42-.8 1.4-2.45 2.49-1.65 1.1-3.71 1.77-2.06.68-4.32.84-2.23.16-4.2-.32-1.96-.49-3.45-1.71-1.48-1.23-2-3.32zm15.41-8.61q-.16-1.23-.97-1.84-.8-.62-1.9-.78-1.1-.19-2.32.04-1.23.22-2.3.67-1.02.45-1.73 1.07-.68.61-.71 1.22zM363.36 8.65q.06-.62.51-.75.45-.16.97-.1.84.1 1.26.88.42.74.58 1.68.16.93.16 1.83 0 .87.03 1.26.9-.77 2-1.77 1.13-1 2.71-1.8 1.61-.85 3.84-1.27 2.26-.45 5.42-.06.77.2 1.13.74.38.55.38 1.16.03.58-.32 1.1-.32.48-.94.55-.77-.58-2.06-.68-1.29-.1-2.84.23-1.51.32-3.1 1.03-1.57.7-2.93 1.77-1.32 1.07-2.29 2.45-.93 1.39-1.16 3.03V27q-.06.16-.51.48-.46.3-1.04.42-.55.16-1.13 0-.54-.16-.83-.9v-1.42-2.94l.06-3.77q.03-2.06.03-4.03.03-1.97.03-3.61.04-1.65.04-2.58zM400.35 22.55q-.3-2.62.45-5.2.74-2.6 2.29-4.64 1.58-2.06 3.8-3.29 2.23-1.26 4.9-1.2 1.1-.03 2.52.5 1.42.5 2.61 1.44 1.2.9 1.9 2.13.75 1.2.49 2.55.03.68-.68 1.13-.7.42-1.9.67-1.16.26-2.74.4-1.55.09-3.29.15l-3.48.13q-1.78.03-3.36.16-.9 2.49-.55 4.1.4 1.58 1.58 2.42 1.23.84 3 1 1.81.13 3.74-.26 1.94-.39 3.81-1.23 1.87-.87 3.23-2.06.19 0 .48.13.32.13.61.35.3.2.49.45.22.23.22.42-.8 1.4-2.45 2.49-1.64 1.1-3.7 1.77-2.07.68-4.33.84-2.23.16-4.2-.32-1.96-.49-3.44-1.71-1.49-1.23-2-3.32zm15.41-8.61q-.16-1.23-.96-1.84-.81-.62-1.9-.78-1.1-.19-2.33.04-1.22.22-2.29.67-1.03.45-1.74 1.07-.68.61-.71 1.22zM437.3 23.38q-1.48 1.13-3.12 2.04-1.65.9-3.26 1.48-1.61.55-3.16.74-1.52.16-2.8-.16-1.26-.32-2.23-1.2-.97-.9-1.42-2.48-.45-2.1.06-3.96.52-1.87 1.71-3.42 1.2-1.55 2.9-2.68 1.72-1.16 3.65-1.8 1.94-.65 3.97-.71 2.06-.07 3.93.54V9.94q.03-1.16.03-2.39l.07-2.35q.03-1.13.1-1.84.19-1.65.77-2.52.58-.9 2.03-.61.06 2.51.03 4.61-.03 2.07-.1 3.97l-.12 3.7q-.07 1.81-.07 3.88 0 2.03.07 4.41.1 2.4.32 5.36 0 .93-.36 1.32-.32.39-1.12.39-.78 0-1.2-.49-.38-.51-.55-1.19-.12-.7-.12-1.48v-1.33zm-13.18-1.25q.06 1.48.83 2.13.81.6 2.23.35.68 0 2.06-.35 1.42-.4 2.9-.97 1.52-.61 2.84-1.32 1.33-.75 1.87-1.49v-5.35q-.83-.9-2.12-1.13-1.3-.26-2.75.03-1.45.3-2.9 1.07-1.42.74-2.55 1.83-1.12 1.07-1.8 2.42-.68 1.33-.61 2.78zM442.7 22.55q-.14-.84-.17-2.07-.03-1.26.03-2.64.1-1.42.26-2.87.2-1.49.45-2.74.26-1.3.58-2.26.32-1 .71-1.48 1-.55 1.68-.13.68.38.58 1.32-.1.84-.45 2.2-.36 1.31-.71 3-.32 1.67-.49 3.57-.12 1.87.23 3.77.29 1.16 1.16 1.81.9.61 2.13.8 1.23.17 2.61-.03 1.42-.22 2.74-.7 1.33-.52 2.42-1.23 1.1-.74 1.71-1.58.07-1.2.03-2.68 0-1.51-.06-3.16l-.07-3.39q0-1.74.07-3.45.61-.74 1.45-.58.87.13 1.32.81l.94 18.58q-.3.29-.68.51-.35.23-.74.3-.39.09-.74-.04-.36-.1-.62-.48l-.51-3.07q-.52.45-1.8 1.13-1.3.65-2.97 1.2-1.65.51-3.49.77-1.84.22-3.42-.16-1.58-.39-2.74-1.55-1.16-1.2-1.45-3.48zM463.04 21.48q-.16-1.68.77-3.64.97-2 2.58-3.84 1.65-1.87 3.75-3.32 2.12-1.49 4.28-2.13 2.2-.68 4.2-.26 2.03.42 3.51 2.32 0 .42-.22.75-.2.32-.52.6-.29.3-.64.52-.36.23-.65.46-.55-1.17-1.45-1.62-.9-.45-2-.35-1.1.06-2.32.61-1.23.52-2.42 1.36-1.2.8-2.26 1.83-1.06 1-1.87 2.1-.77 1.06-1.2 2.13-.41 1.03-.31 1.87 0 1.42.54 2.29.55.87 1.42 1.35.9.49 2.03.65 1.17.16 2.36.16 2.45-.06 4.38-.58 1.97-.55 3.4-1.13 1.41-.61 2.35-1.06.93-.46 1.35-.36.26 0 .52.03.29.04.48.2.23.13.29.42.1.25 0 .74-.1.61-.84 1.2-.74.54-1.9 1.02-1.16.49-2.58.9-1.42.4-2.84.68-1.42.26-2.7.4-1.27.12-2.1.06-1.42 0-3.07-.33-1.64-.32-3.06-1.06-1.39-.74-2.32-1.94-.94-1.22-.94-3.03zM503.1 21.16q-.94 1.45-2.17 2.64-1.22 1.16-2.7 2-1.46.81-3.2 1.2-1.7.38-3.61.22-.68 0-1.45-.16-.77-.16-1.45-.51-.65-.36-1.07-.94-.42-.58-.42-1.45-.35-1.8.17-3.74.54-1.97 1.64-3.8 1.13-1.88 2.7-3.5 1.62-1.64 3.43-2.76 1.8-1.17 3.67-1.68 1.9-.55 3.65-.23 1.32 0 2.03.87.74.87 1.1 2.36.38 1.45.45 3.38.1 1.9.1 4 .03 2.07.1 4.16.06 2.07.35 3.84-.04.07-.33.39-.25.32-.67.51-.42.2-.97.07-.52-.1-1.03-.9-.2-.33-.26-1.13-.03-.84-.03-1.78.03-.93.03-1.8.03-.87-.07-1.26zm-2.04-9.8q-1.25-.1-2.6.38-1.36.49-2.65 1.39-1.26.87-2.39 2.06-1.13 1.16-1.97 2.45-.84 1.26-1.32 2.52-.45 1.26-.42 2.32.07 1.03.68 1.78.64.7 2 .93 1.87.03 3.58-.93 1.7-1 3.1-2.49 1.38-1.48 2.32-3.22.96-1.78 1.29-3.32.35-1.55 0-2.62-.36-1.1-1.62-1.25zM508.03 14.16q-.77-.2-1-.64-.26-.46-.16-.9.1-.5.42-.85.32-.35.67-.38H514l-.13-10.06q.13-.4.54-.65.42-.26.9-.29.5-.06.97.13.49.16.78.64l.29 10.07 5.7-.13q.59.32.78.8.23.46.2.9-.04.43-.26.78-.2.32-.45.39l-5.97.13q-.03 2 .03 3.6l.2 3.1q.12 1.49.19 3.1.1 1.58.1 3.55-.94.64-1.9.61-.97-.03-1.33-.8l-.35-13.1zM528.6 8.9q.3 3.97.52 8.45.23 4.45.39 9-.16.65-.68.94-.48.29-1.06.32-.58 0-1.1-.2-.48-.19-.61-.51v-18zm-3.74-5.48q0-.74.42-1.06.42-.32 1-.36.58-.06 1.16.1t.84.39q.3 1.06-.1 1.54-.38.49-1.03.55-.61.04-1.29-.29-.67-.32-1-.87zM530.83 20.2q0-2.65.93-4.78.94-2.16 2.46-3.71 1.51-1.55 3.38-2.45 1.87-.9 3.78-1.1 2.12-.29 4 .39 1.86.64 3.22 2 1.35 1.32 2.1 3.22.77 1.9.67 4.13-.29 2.65-1.38 4.55-1.1 1.87-2.81 3.1-1.68 1.19-3.9 1.77-2.2.55-4.71.55-3.8 0-5.77-1.78-1.97-1.77-1.97-5.9zm2.77.96q.13 1.93 1.26 2.93 1.16.97 2.8 1.17 1.68.19 3.59-.3 1.93-.51 3.58-1.54 1.64-1.07 2.77-2.55 1.13-1.52 1.2-3.32.02-.84-.23-1.94-.26-1.13-.97-2.16-.68-1.03-1.9-1.84-1.2-.8-3.07-1.03-.67.03-1.64.26-.97.2-2.03.68-1.04.48-2.07 1.29-1 .8-1.77 1.96-.78 1.16-1.23 2.75-.42 1.58-.29 3.64zM555.37 27.48q-.1.26-.45.39t-.84.13q-.45 0-.9-.13t-.74-.45l-.07-18.32q1.2-.71 1.78-.55.6.16.87.84.25.64.32 1.61.06.94.2 1.8 3.31-2.41 5.73-3.44 2.42-1.07 4.07-1.07 1.67 0 2.67.9 1.04.9 1.62 2.46.58 1.51.8 3.51.23 1.97.3 4.13.06 2.13.06 4.29.03 2.16.19 4.03-.42.39-1.06.42-.65.06-1.2-.03-.55-.07-.84-.2-.29-.13 0-.1-.1-.83-.12-2.09-.04-1.29-.04-2.74v-3.03q0-1.58-.03-3t-.16-2.58q-.1-1.16-.32-1.87-.26-.62-.97-.87-.68-.3-1.68-.23-1 .03-2.19.39-1.16.32-2.39.9-1.19.58-2.35 1.42-1.13.8-2 1.8l-.26 11.68zM588.62 21.16q-.93 1.45-2.16 2.64-1.23 1.16-2.7 2-1.46.81-3.2 1.2-1.71.38-3.61.22-.68 0-1.45-.16-.78-.16-1.46-.51-.64-.36-1.06-.94-.42-.58-.42-1.45-.35-1.8.16-3.74.55-1.97 1.65-3.8 1.13-1.88 2.7-3.5 1.62-1.64 3.42-2.76 1.81-1.17 3.68-1.68 1.9-.55 3.64-.23 1.33 0 2.04.87.74.87 1.1 2.36.38 1.45.44 3.38.1 1.9.1 4 .03 2.07.1 4.16.06 2.07.35 3.84-.03.07-.32.39-.26.32-.68.51-.42.2-.96.07-.52-.1-1.04-.9-.19-.33-.25-1.13-.04-.84-.04-1.78.04-.93.04-1.8.03-.87-.07-1.26zm-2.03-9.8q-1.26-.1-2.61.38-1.36.49-2.65 1.39-1.26.87-2.38 2.06-1.13 1.16-1.97 2.45-.84 1.26-1.32 2.52-.45 1.26-.42 2.32.06 1.03.67 1.78.65.7 2 .93 1.87.03 3.58-.93 1.71-1 3.1-2.49 1.39-1.48 2.32-3.22.97-1.78 1.3-3.32.35-1.55 0-2.62-.36-1.1-1.62-1.25zM593.56 1.39q.22-.52.6-.77.43-.3.85-.36.42-.1.77.07.39.13.61.48l.74 25.86q0 .58-.35.84t-.8.3q-.46 0-.94-.2-.49-.2-.74-.58zM626.2 40.5q1.9-.35 3.06-1.6 1.19-1.23 1.87-3 .67-1.74.9-3.8.26-2.04.29-4.07.03-2-.07-3.77-.1-1.78-.12-2.97-1.17 1.06-2.68 2.26-1.48 1.16-3.26 2.1-1.74.93-3.77 1.48-2 .54-4.23.38-1.19 0-1.93-.58t-.74-1.8q.06-1.4.67-3.1.62-1.74 1.62-3.52 1-1.8 2.32-3.51 1.32-1.71 2.8-3.06 1.52-1.4 3.1-2.26 1.58-.9 3.13-1.03 1.55-.16 2.97.6 1.41.75 2.54 2.65.78 6.1.94 10.68.16 4.55-.16 7.84-.32 3.32-1.03 5.51-.71 2.22-1.68 3.61-.97 1.42-2.13 2.16-1.16.74-2.35 1.1-1.17.39-2.33.51-1.12.17-2.1.4-1.48.06-2.64.02-1.16 0-1.9-.25-.74-.23-1.06-.78-.3-.55-.04-1.55zm3-28.73q-.94 0-1.98.49-1 .48-2 1.29-1 .8-1.96 1.87-.94 1.03-1.74 2.16-.78 1.13-1.4 2.26-.6 1.13-.96 2.13-.32.96-.35 1.7-.04.75.35 1.1.58.45 1.8.32 1.23-.16 2.72-.8 1.48-.68 3-1.74 1.54-1.1 2.74-2.52 1.22-1.42 1.87-3.1.67-1.67.42-3.51 0-.48-.23-.8-.2-.33-.55-.52-.35-.2-.8-.26-.46-.07-.94-.07zM653.25 21.16q-.94 1.45-2.16 2.64-1.23 1.16-2.71 2-1.45.81-3.2 1.2-1.7.38-3.6.22-.68 0-1.46-.16-.77-.16-1.45-.51-.64-.36-1.06-.94-.42-.58-.42-1.45-.36-1.8.16-3.74.55-1.97 1.64-3.8 1.13-1.88 2.71-3.5 1.62-1.64 3.42-2.76 1.8-1.17 3.68-1.68 1.9-.55 3.64-.23 1.33 0 2.03.87.75.87 1.1 2.36.39 1.45.45 3.38.1 1.9.1 4 .03 2.07.1 4.16.06 2.07.35 3.84-.03.07-.32.39-.26.32-.68.51-.42.2-.97.07-.51-.1-1.03-.9-.2-.33-.26-1.13-.03-.84-.03-1.78.03-.93.03-1.8.04-.87-.06-1.26zm-2.03-9.8q-1.26-.1-2.61.38-1.36.49-2.65 1.39-1.26.87-2.39 2.06-1.12 1.16-1.96 2.45-.84 1.26-1.33 2.52-.45 1.26-.41 2.32.06 1.03.67 1.78.65.7 2 .93 1.87.03 3.58-.93 1.71-1 3.1-2.49 1.38-1.48 2.32-3.22.97-1.78 1.29-3.32.35-1.55 0-2.62-.35-1.1-1.61-1.25zM658.4 27.19q-.02-.87 0-2.2.07-1.32.1-2.86.07-1.58.1-3.32.07-1.75.07-3.46.03-1.7-.03-3.29-.07-1.6-.23-2.9 0-.35.23-.58.25-.22.6-.35.4-.13.81-.16.42-.07.78-.07.26 0 .32.61.07.62.07 1.42 0 .78-.04 1.58 0 .78.1 1.13.48-1 1.55-1.9 1.06-.9 2.38-1.52 1.33-.6 2.78-.83 1.45-.26 2.74.06 1.29.29 2.22 1.23.97.93 1.3 2.67 1-.97 2.32-1.84 1.35-.87 2.8-1.45 1.49-.61 2.97-.84 1.48-.25 2.74.04 1.29.29 2.2 1.19.93.87 1.32 2.55l.6 15.44q0 .07-.54.2-.52.1-1.16.13-.65.03-1.2-.03-.54-.1-.54-.42-.07-1.17-.04-2.71.07-1.58.1-3.23.07-1.68.1-3.32.03-1.68-.03-3.06-.04-1.39-.23-2.36-.2-.97-.55-1.29-1.1-.35-2.32-.35-1.23 0-2.42.51-1.2.52-2.29 1.62-1.06 1.1-1.87 2.96-.8 1.84-1.26 4.55-.45 2.68-.35 6.39-.16.54-.78.7-.58.17-1.22.1-.65-.06-1.13-.29-.45-.26-.35-.51.32-1.68.45-3.49.16-1.8.16-3.54 0-1.78-.13-3.36-.13-1.58-.36-2.8-.22-1.23-.58-1.97-.32-.74-.74-.84-1.87-.16-3.19.52-1.32.64-2.26 1.87-.9 1.22-1.48 2.87-.55 1.64-.84 3.48-.26 1.8-.35 3.7-.07 1.91 0 3.62l-1.17.45q-.6.23-1.22.23-.36 0-.55-.13-.2-.13-.45-.55zM690.34 22.55q-.3-2.62.45-5.2.74-2.6 2.29-4.64 1.58-2.06 3.8-3.29 2.23-1.26 4.9-1.2 1.1-.03 2.52.5 1.42.5 2.61 1.44 1.2.9 1.9 2.13.75 1.2.49 2.55.03.68-.68 1.13-.7.42-1.9.67-1.16.26-2.74.4-1.55.09-3.3.15l-3.47.13q-1.78.03-3.36.16-.9 2.49-.55 4.1.39 1.58 1.58 2.42 1.23.84 3 1 1.8.13 3.74-.26 1.94-.39 3.8-1.23 1.88-.87 3.23-2.06.2 0 .49.13.32.13.61.35.3.2.48.45.23.23.23.42-.8 1.4-2.45 2.49-1.65 1.1-3.7 1.77-2.07.68-4.33.84-2.23.16-4.2-.32-1.96-.49-3.44-1.71-1.49-1.23-2-3.32zm15.41-8.61q-.16-1.23-.97-1.84-.8-.62-1.9-.78-1.1-.19-2.32.04-1.23.22-2.29.67-1.03.45-1.74 1.07-.68.61-.71 1.22zM713.2 25.58q2.9-.23 5.26-.8 2.38-.59 4-1.33 1.64-.77 2.45-1.61.8-.87.58-1.71-.26-.9-2.58-.78-2.3.13-6.8 1.04-1.33-.1-2.33-.62-.97-.51-1.55-1.22-.58-.74-.74-1.55-.16-.8.1-1.42 0-1.06.61-2.06.65-1.04 1.71-1.87 1.1-.88 2.52-1.55 1.45-.71 3.1-1.1 1.64-.42 3.38-.51 1.74-.1 3.45.22.84.39 1.35.9.55.49.75 1 .19.49 0 .94-.2.45-.81.77-1.32-.58-2.8-.84-1.46-.29-2.9-.22-1.46.06-2.81.45-1.33.35-2.36 1.03-1 .65-1.64 1.61-.65.97-.68 2.2 0 .67.52.9.54.2 1.25.2.74-.04 1.52-.17.8-.16 1.29-.16 3.2-.45 5.26-.26 2.1.2 3.19.84 1.1.65 1.29 1.61.2.97-.39 2.1-.55 1.1-1.8 2.23-1.26 1.12-3.07 2.06-1.8.94-4.1 1.58-2.25.61-4.83.74-.61.23-1.03-.06-.4-.3-.58-.78-.2-.48-.17-1 .07-.54.4-.8zM747.52 19.9q-.26 0-.55-.22-.26-.26-.49-.62-.22-.38-.38-.84-.13-.45-.13-.83l6.6-.94q-.57-3.77-.6-6.45-.04-2.68.29-4.48.35-1.84 1.03-2.9.68-1.1 1.48-1.65.84-.58 1.77-.74.94-.2 1.81-.23 1.07-.03 2.23.23t2.29.77q1.12.49 2.12 1.2 1 .67 1.78 1.48.77.8 1.22 1.68.46.84.46 1.67 0 .1-.17.3l-.35.41-.39.4q-.16.18-.2.25-.7-.94-1.7-2-1-1.1-2.2-2-1.19-.9-2.5-1.48-1.33-.62-2.65-.62-1.2.33-1.94 1.23-.74.87-1.13 2.1-.38 1.22-.48 2.67-.07 1.42.06 2.8.13 1.4.42 2.62.33 1.23.71 2.06 1.74 0 3.23-.16 1.51-.16 3-.35 1.48-.23 3.03-.42 1.58-.2 3.45-.23.1 0 .13.26.06.23.06.61v.84q.03.45.1.87l-12.35 1.45.74 8.94-3.3-.13q0-2.13-.22-4.16-.19-2.07-.54-4.16zM770.64 20.2q0-2.65.93-4.78.94-2.16 2.45-3.71 1.52-1.55 3.4-2.45 1.86-.9 3.76-1.1 2.13-.29 4 .39 1.87.64 3.23 2 1.35 1.32 2.1 3.22.77 1.9.67 4.13-.29 2.65-1.39 4.55-1.1 1.87-2.8 3.1-1.68 1.19-3.9 1.77-2.2.55-4.71.55-3.8 0-5.77-1.78-1.97-1.77-1.97-5.9zm2.77.96q.13 1.93 1.26 2.93 1.16.97 2.8 1.17 1.68.19 3.58-.3 1.94-.51 3.58-1.54 1.65-1.07 2.78-2.55 1.13-1.52 1.2-3.32.02-.84-.23-1.94-.26-1.13-.97-2.16-.68-1.03-1.9-1.84-1.2-.8-3.07-1.03-.68.03-1.64.26-.97.2-2.03.68-1.04.48-2.07 1.29-1 .8-1.77 1.96-.78 1.16-1.23 2.75-.42 1.58-.29 3.64zM792.66 8.65q.07-.62.52-.75.45-.16.97-.1.84.1 1.26.88.42.74.58 1.68.16.93.16 1.83 0 .87.03 1.26.9-.77 2-1.77 1.13-1 2.7-1.8 1.62-.85 3.85-1.27 2.25-.45 5.41-.06.78.2 1.13.74.39.55.39 1.16.03.58-.32 1.1-.33.48-.94.55-.77-.58-2.06-.68-1.3-.1-2.84.23-1.52.32-3.1 1.03-1.58.7-2.93 1.77-1.32 1.07-2.29 2.45-.94 1.39-1.16 3.03V27q-.07.16-.52.48-.45.3-1.03.42-.55.16-1.13 0-.55-.16-.84-.9v-1.42-2.94l.07-3.77q.03-2.06.03-4.03.03-1.97.03-3.61.03-1.65.03-2.58zM829.65 21.48q-.16-1.68.78-3.64.97-2 2.58-3.84 1.64-1.87 3.74-3.32 2.13-1.49 4.29-2.13 2.2-.68 4.2-.26 2.02.42 3.5 2.32 0 .42-.22.75-.2.32-.51.6-.3.3-.65.52-.35.23-.64.46-.55-1.17-1.46-1.62-.9-.45-2-.35-1.1.06-2.32.61-1.22.52-2.42 1.36-1.19.8-2.25 1.83-1.07 1-1.87 2.1-.78 1.06-1.2 2.13-.42 1.03-.32 1.87 0 1.42.55 2.29.55.87 1.42 1.35.9.49 2.03.65 1.16.16 2.35.16 2.45-.06 4.39-.58 1.97-.55 3.39-1.13 1.41-.61 2.35-1.06.93-.46 1.35-.36.26 0 .52.03.29.04.48.2.23.13.3.42.1.25 0 .74-.1.61-.84 1.2-.75.54-1.9 1.02-1.17.49-2.59.9-1.42.4-2.84.68-1.41.26-2.7.4-1.26.12-2.1.06-1.42 0-3.06-.33-1.65-.32-3.07-1.06-1.38-.74-2.32-1.94-.94-1.22-.94-3.03zM853.62 1.39q.22-.52.6-.77.43-.3.85-.36.42-.1.77.07.39.13.61.48l.75 25.86q0 .58-.36.84-.35.26-.8.3-.46 0-.94-.2-.48-.2-.74-.58zM875.06 21.16q-.93 1.45-2.16 2.64-1.22 1.16-2.7 2-1.46.81-3.2 1.2-1.7.38-3.61.22-.68 0-1.45-.16-.78-.16-1.45-.51-.65-.36-1.07-.94-.42-.58-.42-1.45-.35-1.8.16-3.74.55-1.97 1.65-3.8 1.13-1.88 2.7-3.5 1.62-1.64 3.43-2.76 1.8-1.17 3.67-1.68 1.9-.55 3.65-.23 1.32 0 2.03.87.74.87 1.1 2.36.38 1.45.45 3.38.1 1.9.1 4 .02 2.07.09 4.16.06 2.07.35 3.84-.03.07-.32.39-.26.32-.68.51-.41.2-.96.07-.52-.1-1.03-.9-.2-.33-.26-1.13-.04-.84-.04-1.78.04-.93.04-1.8.03-.87-.07-1.26zm-2.03-9.8q-1.26-.1-2.61.38-1.36.49-2.65 1.39-1.25.87-2.38 2.06-1.13 1.16-1.97 2.45-.84 1.26-1.32 2.52-.45 1.26-.42 2.32.06 1.03.68 1.78.64.7 2 .93 1.87.03 3.58-.93 1.7-1 3.1-2.49 1.38-1.48 2.31-3.22.97-1.78 1.3-3.32.35-1.55 0-2.62-.36-1.1-1.62-1.25zM881.6 25.58q2.91-.23 5.27-.8 2.38-.59 4-1.33 1.64-.77 2.45-1.61.8-.87.58-1.71-.26-.9-2.58-.78-2.3.13-6.8 1.04-1.33-.1-2.33-.62-.97-.51-1.55-1.22-.58-.74-.74-1.55-.16-.8.1-1.42 0-1.06.6-2.06.65-1.04 1.72-1.87 1.1-.88 2.51-1.55 1.46-.71 3.1-1.1 1.64-.42 3.39-.51 1.74-.1 3.45.22.84.39 1.35.9.55.49.74 1 .2.49 0 .94-.19.45-.8.77-1.33-.58-2.8-.84-1.46-.29-2.91-.22-1.45.06-2.8.45-1.33.35-2.36 1.03-1 .65-1.65 1.61-.64.97-.67 2.2 0 .67.51.9.55.2 1.26.2.74-.04 1.52-.17.8-.16 1.29-.16 3.19-.45 5.25-.26 2.1.2 3.2.84 1.1.65 1.29 1.61.19.97-.4 2.1-.54 1.1-1.8 2.23-1.25 1.12-3.06 2.06-1.8.94-4.1 1.58-2.25.61-4.83.74-.62.23-1.04-.06-.38-.3-.58-.78-.19-.48-.16-1 .07-.54.39-.8zM900.25 25.58q2.9-.23 5.26-.8 2.38-.59 4-1.33 1.64-.77 2.45-1.61.8-.87.58-1.71-.26-.9-2.58-.78-2.3.13-6.8 1.04-1.33-.1-2.33-.62-.97-.51-1.55-1.22-.58-.74-.74-1.55-.16-.8.1-1.42 0-1.06.61-2.06.64-1.04 1.7-1.87 1.1-.88 2.52-1.55 1.46-.71 3.1-1.1 1.65-.42 3.39-.51 1.74-.1 3.45.22.84.39 1.35.9.55.49.74 1 .2.49 0 .94-.19.45-.8.77-1.32-.58-2.8-.84-1.46-.29-2.91-.22-1.45.06-2.8.45-1.33.35-2.36 1.03-1 .65-1.65 1.61-.64.97-.67 2.2 0 .67.51.9.55.2 1.26.2.74-.04 1.52-.17.8-.16 1.29-.16 3.19-.45 5.25-.26 2.1.2 3.2.84 1.1.65 1.29 1.61.19.97-.4 2.1-.54 1.1-1.8 2.23-1.25 1.12-3.06 2.06-1.8.94-4.1 1.58-2.25.61-4.83.74-.62.23-1.04-.06-.38-.3-.58-.78-.19-.48-.16-1 .07-.54.39-.8zM917.4 8.65q.07-.62.52-.75.45-.16.97-.1.84.1 1.26.88.42.74.58 1.68.16.93.16 1.83 0 .87.03 1.26.9-.77 2-1.77 1.13-1 2.71-1.8 1.61-.85 3.84-1.27 2.26-.45 5.42-.06.77.2 1.12.74.4.55.4 1.16.02.58-.33 1.1-.32.48-.94.55-.77-.58-2.06-.68-1.29-.1-2.84.23-1.51.32-3.1 1.03-1.57.7-2.93 1.77-1.32 1.07-2.29 2.45-.93 1.39-1.16 3.03V27q-.06.16-.52.48-.45.3-1.03.42-.55.16-1.13 0-.54-.16-.83-.9v-1.42-2.94l.06-3.77q.03-2.06.03-4.03.03-1.97.03-3.61.04-1.65.04-2.58zM935.11 20.2q0-2.65.94-4.78.93-2.16 2.45-3.71 1.51-1.55 3.38-2.45 1.87-.9 3.78-1.1 2.13-.29 4 .39 1.87.64 3.22 2 1.36 1.32 2.1 3.22.77 1.9.67 4.13-.29 2.65-1.38 4.55-1.1 1.87-2.8 3.1-1.68 1.19-3.91 1.77-2.2.55-4.7.55-3.81 0-5.78-1.78-1.97-1.77-1.97-5.9zm2.77.96q.13 1.93 1.26 2.93 1.16.97 2.8 1.17 1.69.19 3.59-.3 1.93-.51 3.58-1.54 1.64-1.07 2.77-2.55 1.13-1.52 1.2-3.32.03-.84-.23-1.94-.26-1.13-.97-2.16-.68-1.03-1.9-1.84-1.2-.8-3.07-1.03-.67.03-1.64.26-.97.2-2.03.68-1.03.48-2.07 1.29-1 .8-1.77 1.96t-1.22 2.75q-.42 1.58-.3 3.64zM956.85 20.2q0-2.65.93-4.78.94-2.16 2.45-3.71 1.52-1.55 3.39-2.45 1.87-.9 3.77-1.1 2.13-.29 4 .39 1.87.64 3.23 2 1.35 1.32 2.1 3.22.77 1.9.67 4.13-.29 2.65-1.39 4.55-1.1 1.87-2.8 3.1-1.68 1.19-3.9 1.77-2.2.55-4.71.55-3.8 0-5.78-1.78-1.96-1.77-1.96-5.9zm2.77.96q.13 1.93 1.26 2.93 1.16.97 2.8 1.17 1.68.19 3.58-.3 1.94-.51 3.58-1.54 1.65-1.07 2.78-2.55 1.13-1.52 1.2-3.32.02-.84-.23-1.94-.26-1.13-.97-2.16-.68-1.03-1.9-1.84-1.2-.8-3.07-1.03-.68.03-1.64.26-.97.2-2.04.68-1.03.48-2.06 1.29-1 .8-1.77 1.96-.78 1.16-1.23 2.75-.42 1.58-.29 3.64zM978.97 27.19q-.03-.87 0-2.2.07-1.32.1-2.86.06-1.58.1-3.32.06-1.75.06-3.46.03-1.7-.03-3.29-.07-1.6-.23-2.9 0-.35.23-.58.25-.22.61-.35.39-.13.8-.16.43-.07.78-.07.26 0 .32.61.07.62.07 1.42 0 .78-.04 1.58 0 .78.1 1.13.49-1 1.55-1.9 1.06-.9 2.39-1.52 1.32-.6 2.77-.83 1.45-.26 2.74.06 1.3.29 2.23 1.23.96.93 1.29 2.67 1-.97 2.32-1.84 1.35-.87 2.8-1.45 1.49-.61 2.97-.84 1.48-.25 2.74.04 1.3.29 2.2 1.19.93.87 1.32 2.55l.61 15.44q0 .07-.55.2-.51.1-1.16.13-.64.03-1.2-.03-.54-.1-.54-.42-.07-1.17-.03-2.71.06-1.58.1-3.23l.1-3.32q.02-1.68-.04-3.06-.03-1.39-.23-2.36-.19-.97-.55-1.29-1.1-.35-2.32-.35-1.22 0-2.42.51-1.19.52-2.29 1.62-1.06 1.1-1.87 2.96-.8 1.84-1.25 4.55-.46 2.68-.36 6.39-.16.54-.77.7-.58.17-1.23.1-.64-.06-1.13-.29-.45-.26-.35-.51.32-1.68.45-3.49.16-1.8.16-3.54 0-1.78-.13-3.36-.13-1.58-.35-2.8-.23-1.23-.58-1.97-.33-.74-.74-.84-1.88-.16-3.2.52-1.32.64-2.25 1.87-.9 1.22-1.49 2.87-.55 1.64-.84 3.48-.25 1.8-.35 3.7-.07 1.91 0 3.62l-1.16.45q-.62.23-1.23.23-.35 0-.55-.13-.19-.13-.45-.55zM1012.48 25.58q2.9-.23 5.26-.8 2.38-.59 4-1.33 1.64-.77 2.45-1.61.8-.87.58-1.71-.26-.9-2.58-.78-2.3.13-6.8 1.04-1.33-.1-2.33-.62-.97-.51-1.55-1.22-.58-.74-.74-1.55-.16-.8.1-1.42 0-1.06.6-2.06.65-1.04 1.72-1.87 1.1-.88 2.51-1.55 1.45-.71 3.1-1.1 1.64-.42 3.39-.51 1.74-.1 3.45.22.84.39 1.35.9.55.49.74 1 .2.49 0 .94-.2.45-.8.77-1.33-.58-2.8-.84-1.46-.29-2.91-.22-1.45.06-2.8.45-1.33.35-2.36 1.03-1 .65-1.65 1.61-.64.97-.67 2.2 0 .67.51.9.55.2 1.26.2.74-.04 1.52-.17.8-.16 1.29-.16 3.19-.45 5.25-.26 2.1.2 3.2.84 1.1.65 1.29 1.61.19.97-.4 2.1-.54 1.1-1.8 2.23-1.26 1.12-3.06 2.06t-4.1 1.58q-2.25.61-4.83.74-.62.23-1.04-.06-.38-.3-.58-.78-.2-.48-.16-1 .07-.54.39-.8z" style="-inkscape-font-specification:'Architects Daughter, Normal';font-variant-ligatures:normal;font-variant-caps:normal;font-variant-numeric:normal;font-feature-settings:normal;text-align:start"/>
  </g>
</svg>
