<svg xmlns="http://www.w3.org/2000/svg" viewBox="0 0 61.04 74.39">
  <defs>
    <linearGradient id="a" x1="161.32" x2="237.58" y1="47.82" y2="47.82" gradientTransform="matrix(.79443 0 0 .79443 -21.56 -274.2)" gradientUnits="userSpaceOnUse">
      <stop offset="0" stop-color="#ffc107"/>
      <stop offset="1" stop-color="#e91e63"/>
    </linearGradient>
  </defs>
  <path fill="url(#a)" d="M167.4-236.2a30.4 30.4 0 0 1-30.2 30.4 30.4 30.4 0 0 1-30.6-30.02 30.4 30.4 0 0 1 29.82-30.78 30.4 30.4 0 0 1 30.97 29.62" transform="matrix(.53788 .67752 -.67752 .53788 -203.2 60.53)"/>
  <g transform="translate(-237.77 65.43) scale(.99302)">
    <rect width="12.95" height="9.69" x="-44.74" y="-249.13" fill="#d01454" ry="1.67" transform="rotate(90)"/>
    <rect width="12.95" height="9.69" x="-44.74" y="291.22" fill="#0c80dd" ry="1.67" transform="matrix(0 1 1 0 0 0)"/>
    <path fill="#9c27b0" d="M298.7-44.74v12.95h-1.68v-12.95z"/>
    <rect width="20.49" height="23.53" x="-48.34" y="-270.18" fill="#e91e63" ry="5.04" transform="rotate(90)"/>
    <rect width="6.16" height="13.65" x="74.05" y="-247.03" fill="#e91e63" ry="2.92" transform="matrix(.55197 .83386 -.88528 .46507 0 0)"/>
    <path fill="#00c853" d="M242-44.74v12.95h1.8v-12.95z"/>
    <rect width="20.49" height="23.53" x="-48.34" y="270.18" fill="#2196f3" ry="5.04" transform="matrix(0 1 1 0 0 0)"/>
    <rect width="6.16" height="13.65" x="-178.54" y="205.85" fill="#2196f3" ry="2.92" transform="matrix(-.55197 .83386 .88528 .46507 0 0)"/>
    <g fill="#ffc107">
      <path d="M270.75-50.5c-.4-.25 1-5.73 1.6-6.3s3.3 1.11 3.09 1.93c-.21.82-4.3 4.62-4.7 4.37zM269.6-50.5c.4-.25-1-5.73-1.6-6.3s-3.3 1.11-3.09 1.93c.21.82 4.3 4.62 4.7 4.37z"/>
    </g>
    <rect width="3.14" height="10.46" x="264.98" y="-46.06" fill="#f9c1d4" ry="1.57"/>
    <rect width="3.14" height="10.46" x="272.73" y="-46.06" fill="#bde0fb" ry="1.57"/>
    <g fill="#ffc107">
      <path d="M270.75-26.06c-.4.25 1 5.74 1.6 6.3s3.3-1.11 3.09-1.93c-.21-.82-4.3-4.62-4.7-4.37zM269.6-26.06c.4.25-1 5.74-1.6 6.3s-3.3-1.11-3.09-1.93c.21-.82 4.3-4.62 4.7-4.37z"/>
    </g>
    <rect width="5.06" height="1.63" x="240.55" y="-43.68" fill="#f9c6d7" opacity=".67" ry=".81"/>
    <rect width="5.06" height="1.63" x="294.75" y="-43.68" fill="#bde0fb" opacity=".67" ry=".81"/>
    <g fill="none" stroke-linecap="round" stroke-linejoin="round" stroke-width=".55">
      <path stroke="#bf134d" d="M261.4-48.3h-4.14M256.54-48.98l1.29 1.71"/>
      <path stroke="#0b71c2" d="M279-48.3h4.14M283.87-48.98l-1.3 1.71"/>
    </g>
  </g>
  <g fill="#2196f3" stroke-width=".26">
    <g aria-label="space" style="font-feature-settings:normal;font-variant-caps:normal;font-variant-ligatures:normal;font-variant-numeric:normal">
      <path d="M16.86 61.2q-1.61-.22-1.43-2 .2-1.78 4.15-2.1l.38 2.01q-1.96-.04-2.1.47-.15.5 1.5.58 1.64.08 1.6 2-.03 1.93-4.33 2.06l-.79-2.11q2.2.23 2.42-.22.22-.46-1.4-.69zM23.63 61.88L24 63.2l-2.33.47-.44-5.99q5.95-.96 6.25 1.96 0 2.24-3.84 2.23zm-.61-2.65l.25.87q2.41 0 2.27-.63-.14-.64-2.52-.24z" style="font-feature-settings:normal;font-variant-caps:normal;font-variant-ligatures:normal;font-variant-numeric:normal"/>
      <path d="M28.94 62.78l-.3.9-1.77-1.07 2.2-5.2 1.69-.1 2.64 5.37-2.09 1-.46-1.26zm1.53-1.96l-.5-1.61-.59 1.78zM39.27 62.76q-1.06.92-2.56.92t-2.56-.92q-1.06-.92-1.06-2.21 0-1.3 1.06-2.22 1.06-.91 2.56-.91t2.56.91q.53.47.8 1.02l-2.15.55q-.1-.3-.38-.52-.45-.4-1.1-.4-.63 0-1.09.4-.45.39-.45.94 0 .56.45.95.46.4 1.1.4.64 0 1.1-.4.24-.21.36-.48l2.15.95q-.26.56-.8 1.02zM45.04 56.61l.11 2.37-2.78.3.04.54 1.82-.17.16 1.62-1.9.14.03.44 2.7-.2.4 2.03-5.32.18.54-6.45z" style="font-feature-settings:normal;font-variant-caps:normal;font-variant-ligatures:normal;font-variant-numeric:normal"/>
    </g>
    <g aria-label="battle" style="font-feature-settings:normal;font-variant-caps:normal;font-variant-ligatures:normal;font-variant-numeric:normal">
      <path d="M15.92 70.08q1.38-.25 1.36-.78-.03-.53-1.42-.17zm.21 2.66q2.03-.08 2.03-.7 0-.63-2.1-.6zm-1.94 1.4l.16-5.78q3.2-1.3 4.4-.13t-.3 2.37q2.27.7 1.46 2.3-.8 1.58-5.72 1.25zM22.34 73.25l-.31.9-1.76-1.07 2.2-5.19 1.69-.12 2.64 5.38-2.1 1-.45-1.26zm1.53-1.95l-.5-1.62-.6 1.79z" style="font-feature-settings:normal;font-variant-caps:normal;font-variant-ligatures:normal;font-variant-numeric:normal"/>
      <path d="M29.26 69.8l.22 3.8-2.42.63.42-4.55-1.83-.16.14-1.65 5.24-.32.2 2.45zM35.08 69.8l.22 3.8-2.43.63.42-4.55-1.83-.16.14-1.65 5.25-.32.19 2.45zM37.58 67.8l2.2.12-.72 4.44 2.24-.35-.5 2.38-3.53-.24zM46.27 67.09l.11 2.36-2.78.3.04.55 1.82-.17.16 1.61-1.9.14.03.44 2.7-.2.4 2.03-5.32.18.54-6.45z" style="font-feature-settings:normal;font-variant-caps:normal;font-variant-ligatures:normal;font-variant-numeric:normal"/>
    </g>
  </g>
</svg>
