<?xml version="1.0" encoding="UTF-8"?>
<!-- Created with Inkscape (http://www.inkscape.org/) -->
<svg width="2102.4924" height="760.73096" version="1.1" viewBox="0 0 556.28445 201.27673" xmlns="http://www.w3.org/2000/svg" xmlns:cc="http://creativecommons.org/ns#" xmlns:dc="http://purl.org/dc/elements/1.1/" xmlns:rdf="http://www.w3.org/1999/02/22-rdf-syntax-ns#">
 <metadata>
  <rdf:RDF>
   <cc:Work rdf:about="">
    <dc:format>image/svg+xml</dc:format>
    <dc:type rdf:resource="http://purl.org/dc/dcmitype/StillImage"/>
    <dc:title/>
   </cc:Work>
  </rdf:RDF>
 </metadata>
 <g transform="scale(.31173952)">
  <g transform="translate(-4.0657082 .35131339)" fill="#ffc107">
   <g transform="translate(327.57252,-74.97219)">
    <rect x="339.20435" y="147.53168" width="9.5550518" height="33.442684" ry="3.9016461"/>
    <rect x="339.20435" y="147.53168" width="9.5550518" height="33.442684" ry="4.7775259"/>
    <rect transform="rotate(90)" x="159.47549" y="-360.70322" width="9.5550518" height="33.442684" ry="4.7775259"/>
   </g>
   <g transform="matrix(.5102041 0 0 .5102041 1136.2419 211.59439)">
    <rect x="339.20435" y="147.53168" width="9.5550518" height="33.442684" ry="3.9016461"/>
    <rect x="339.20435" y="147.53168" width="9.5550518" height="33.442684" ry="4.7775259"/>
    <rect transform="rotate(90)" x="159.47549" y="-360.70322" width="9.5550518" height="33.442684" ry="4.7775259"/>
   </g>
   <g transform="matrix(.5102041 0 0 .5102041 1016.1213 39.60345)">
    <rect x="339.20435" y="147.53168" width="9.5550518" height="33.442684" ry="3.9016461"/>
    <rect x="339.20435" y="147.53168" width="9.5550518" height="33.442684" ry="4.7775259"/>
    <rect transform="rotate(90)" x="159.47549" y="-360.70322" width="9.5550518" height="33.442684" ry="4.7775259"/>
   </g>
   <g transform="matrix(.6734694 0 0 .6734694 460.36824 203.88767)">
    <rect x="339.20435" y="147.53168" width="9.5550518" height="33.442684" ry="3.9016461"/>
    <rect x="339.20435" y="147.53168" width="9.5550518" height="33.442684" ry="4.7775259"/>
    <rect transform="rotate(90)" x="159.47549" y="-360.70322" width="9.5550518" height="33.442684" ry="4.7775259"/>
   </g>
   <g transform="matrix(1,0,0,-1.0816326,1019.6313,338.60514)">
    <rect x="339.20435" y="147.53168" width="9.5550518" height="33.442684" ry="3.9016461"/>
    <rect x="339.20435" y="147.53168" width="9.5550518" height="33.442684" ry="4.7775259"/>
    <rect transform="rotate(90)" x="159.47549" y="-360.70322" width="9.5550518" height="33.442684" ry="4.7775259"/>
   </g>
   <g transform="matrix(1,0,0,-1.0816326,117.59557,786.71562)">
    <rect x="339.20435" y="147.53168" width="9.5550518" height="33.442684" ry="3.9016461"/>
    <rect x="339.20435" y="147.53168" width="9.5550518" height="33.442684" ry="4.7775259"/>
    <rect transform="rotate(90)" x="159.47549" y="-360.70322" width="9.5550518" height="33.442684" ry="4.7775259"/>
   </g>
   <g transform="matrix(.59183675 0 0 -.64014992 662.56661 571.8686)">
    <rect x="339.20435" y="147.53168" width="9.5550518" height="33.442684" ry="3.9016461"/>
    <rect x="339.20435" y="147.53168" width="9.5550518" height="33.442684" ry="4.7775259"/>
    <rect transform="rotate(90)" x="159.47549" y="-360.70322" width="9.5550518" height="33.442684" ry="4.7775259"/>
   </g>
   <g transform="matrix(.59183675 0 0 -.64014992 814.68517 739.74787)">
    <rect x="339.20435" y="147.53168" width="9.5550518" height="33.442684" ry="3.9016461"/>
    <rect x="339.20435" y="147.53168" width="9.5550518" height="33.442684" ry="4.7775259"/>
    <rect transform="rotate(90)" x="159.47549" y="-360.70322" width="9.5550518" height="33.442684" ry="4.7775259"/>
   </g>
   <g transform="matrix(.59183675 0 0 -.64014992 779.19498 120.03448)">
    <rect x="339.20435" y="147.53168" width="9.5550518" height="33.442684" ry="3.9016461"/>
    <rect x="339.20435" y="147.53168" width="9.5550518" height="33.442684" ry="4.7775259"/>
    <rect transform="rotate(90)" x="159.47549" y="-360.70322" width="9.5550518" height="33.442684" ry="4.7775259"/>
   </g>
   <g transform="matrix(.6734694 0 0 .6734694 192.82678 55.101858)">
    <rect x="339.20435" y="147.53168" width="9.5550518" height="33.442684" ry="3.9016461"/>
    <rect x="339.20435" y="147.53168" width="9.5550518" height="33.442684" ry="4.7775259"/>
    <rect transform="rotate(90)" x="159.47549" y="-360.70322" width="9.5550518" height="33.442684" ry="4.7775259"/>
   </g>
   <g transform="matrix(.59183675 0 0 -.64014992 1263.7726 536.36176)">
    <rect x="339.20435" y="147.53168" width="9.5550518" height="33.442684" ry="3.9016461"/>
    <rect x="339.20435" y="147.53168" width="9.5550518" height="33.442684" ry="4.7775259"/>
    <rect transform="rotate(90)" x="159.47549" y="-360.70322" width="9.5550518" height="33.442684" ry="4.7775259"/>
   </g>
   <g transform="matrix(.5102041 0 0 .5102041 1398.3567 -75.62258)">
    <rect x="339.20435" y="147.53168" width="9.5550518" height="33.442684" ry="3.9016461"/>
    <rect x="339.20435" y="147.53168" width="9.5550518" height="33.442684" ry="4.7775259"/>
    <rect transform="rotate(90)" x="159.47549" y="-360.70322" width="9.5550518" height="33.442684" ry="4.7775259"/>
   </g>
   <g transform="matrix(.5102041 0 0 .5102041 1319.1529 10.938293)">
    <rect x="339.20435" y="147.53168" width="9.5550518" height="33.442684" ry="3.9016461"/>
    <rect x="339.20435" y="147.53168" width="9.5550518" height="33.442684" ry="4.7775259"/>
    <rect transform="rotate(90)" x="159.47549" y="-360.70322" width="9.5550518" height="33.442684" ry="4.7775259"/>
   </g>
   <g transform="matrix(.5102041 0 0 .5102041 1287.5637 528.09875)">
    <rect x="339.20435" y="147.53168" width="9.5550518" height="33.442684" ry="3.9016461"/>
    <rect x="339.20435" y="147.53168" width="9.5550518" height="33.442684" ry="4.7775259"/>
    <rect transform="rotate(90)" x="159.47549" y="-360.70322" width="9.5550518" height="33.442684" ry="4.7775259"/>
   </g>
  </g>
  <g transform="translate(-4.0657082 .35131339)" fill="#2196f3">
   <circle cx="544.6087" cy="228.85284" r="5.4600296"/>
   <circle cx="1217.5574" cy="35.021782" r="5.4600296"/>
   <circle cx="735.70972" cy="608.32495" r="5.4600296"/>
   <circle cx="1497.3839" cy="301.19824" r="5.4600296"/>
   <circle cx="1104.2617" cy="313.48331" r="5.4600296"/>
   <circle cx="833.9903" cy="148.31741" r="5.4600296"/>
   <circle cx="490.00836" cy="33.656784" r="5.4600296"/>
  </g>
  <g transform="translate(-4.0657082 .35131339)" fill="#ffc107">
   <g transform="matrix(-1,0,0,-1.0816326,2115.779,765.48109)">
    <rect x="339.20435" y="147.53168" width="9.5550518" height="33.442684" ry="3.9016461"/>
    <rect x="339.20435" y="147.53168" width="9.5550518" height="33.442684" ry="4.7775259"/>
    <rect transform="rotate(90)" x="159.47549" y="-360.70322" width="9.5550518" height="33.442684" ry="4.7775259"/>
   </g>
   <g transform="matrix(-.59183675 0 0 -.64014992 1844.9265 494.65212)">
    <rect x="339.20435" y="147.53168" width="9.5550518" height="33.442684" ry="3.9016461"/>
    <rect x="339.20435" y="147.53168" width="9.5550518" height="33.442684" ry="4.7775259"/>
    <rect transform="rotate(90)" x="159.47549" y="-360.70322" width="9.5550518" height="33.442684" ry="4.7775259"/>
   </g>
   <g transform="matrix(-.6734694 0 0 .6734694 2005.8004 55.101858)">
    <rect x="339.20435" y="147.53168" width="9.5550518" height="33.442684" ry="3.9016461"/>
    <rect x="339.20435" y="147.53168" width="9.5550518" height="33.442684" ry="4.7775259"/>
    <rect transform="rotate(90)" x="159.47549" y="-360.70322" width="9.5550518" height="33.442684" ry="4.7775259"/>
   </g>
  </g>
  <circle transform="scale(-1,1)" cx="-1649.9529" cy="229.20416" r="5.4600296" fill="#2196f3"/>
  <circle transform="scale(-1,1)" cx="-1704.5532" cy="34.008099" r="5.4600296" fill="#2196f3"/>
  <g transform="translate(-4.0657082 .35131339)" fill="#ffc107">
   <g transform="matrix(.5102041 0 0 .5102041 163.50993 242.48098)">
    <rect x="339.20435" y="147.53168" width="9.5550518" height="33.442684" ry="3.9016461"/>
    <rect x="339.20435" y="147.53168" width="9.5550518" height="33.442684" ry="4.7775259"/>
    <rect transform="rotate(90)" x="159.47549" y="-360.70322" width="9.5550518" height="33.442684" ry="4.7775259"/>
   </g>
   <g transform="matrix(.5102041 0 0 .5102041 -128.41744 118.75034)">
    <rect x="339.20435" y="147.53168" width="9.5550518" height="33.442684" ry="3.9016461"/>
    <rect x="339.20435" y="147.53168" width="9.5550518" height="33.442684" ry="4.7775259"/>
    <rect transform="rotate(90)" x="159.47549" y="-360.70322" width="9.5550518" height="33.442684" ry="4.7775259"/>
   </g>
   <g transform="matrix(1,0,0,-1.0816326,-113.32494,338.60514)">
    <rect x="339.20435" y="147.53168" width="9.5550518" height="33.442684" ry="3.9016461"/>
    <rect x="339.20435" y="147.53168" width="9.5550518" height="33.442684" ry="4.7775259"/>
    <rect transform="rotate(90)" x="159.47549" y="-360.70322" width="9.5550518" height="33.442684" ry="4.7775259"/>
   </g>
   <g transform="matrix(.5102041 0 0 .5102041 153.43655 -73.69217)">
    <rect x="339.20435" y="147.53168" width="9.5550518" height="33.442684" ry="3.9016461"/>
    <rect x="339.20435" y="147.53168" width="9.5550518" height="33.442684" ry="4.7775259"/>
    <rect transform="rotate(90)" x="159.47549" y="-360.70322" width="9.5550518" height="33.442684" ry="4.7775259"/>
   </g>
   <g transform="matrix(.5102041 0 0 .5102041 -84.07474 479.13585)">
    <rect x="339.20435" y="147.53168" width="9.5550518" height="33.442684" ry="3.9016461"/>
    <rect x="339.20435" y="147.53168" width="9.5550518" height="33.442684" ry="4.7775259"/>
    <rect transform="rotate(90)" x="159.47549" y="-360.70322" width="9.5550518" height="33.442684" ry="4.7775259"/>
   </g>
  </g>
  <circle cx="80.535469" cy="35.373096" r="5.4600296" fill="#2196f3"/>
  <g transform="translate(-4.0657082 .35131339)" fill="#ffc107">
   <rect x="186.2942" y="427.46143" width="9.5550518" height="33.442684" ry="3.9016461"/>
   <rect x="186.2942" y="427.46143" width="9.5550518" height="33.442684" ry="4.7775259"/>
   <rect transform="rotate(90)" x="439.40524" y="-207.79308" width="9.5550518" height="33.442684" ry="4.7775259"/>
  </g>
  <circle cx="349.44189" cy="503.57068" r="5.4600296" fill="#2196f3"/>
  <circle cx="5.4600296" cy="388.91003" r="5.4600296" fill="#2196f3"/>
 </g>
</svg>
