<svg xmlns="http://www.w3.org/2000/svg" viewBox="0 0 60.8 63.29">
  <defs>
    <linearGradient id="a" x1="161.32" x2="237.58" y1="47.82" y2="47.82" gradientTransform="matrix(.79443 0 0 .79443 -122.26 36.94)" gradientUnits="userSpaceOnUse">
      <stop offset="0" stop-color="#ffc107"/>
      <stop offset="1" stop-color="#e91e63"/>
    </linearGradient>
  </defs>
  <path fill="url(#a)" d="M66.7 74.93a30.4 30.4 0 0 1-30.21 30.4A30.4 30.4 0 0 1 5.89 75.3a30.4 30.4 0 0 1 29.82-30.78 30.4 30.4 0 0 1 30.97 29.62" transform="rotate(-113.45 19.55 55.85)"/>
  <path fill="#00c853" d="M24.22 12.94A6.6 6.6 0 1 1 20.71.22a6.6 6.6 0 0 1 3.51 12.72zM21.27 2.3a4.46 4.46 0 1 0 2.4 8.59 4.46 4.46 0 0 0-2.4-8.59z"/>
  <path fill="#009a40" d="M20.7.24a6.6 6.6 0 1 0 3.91 12.58A6.6 6.6 0 0 1 21.1.14l-.4.1z"/>
  <g stroke-width=".35">
    <path fill="#fdc000" d="M28.1 13.2l-7.08 1.96-.74-2.67A2.19 2.19 0 0 1 21.8 9.8l2.88-.8a2.19 2.19 0 0 1 2.68 1.52z"/>
    <path fill="#ff9a00" d="M42.57 17.46l-3.61-2 1.9-3.44 3.62 2z"/>
    <path fill="#fdc000" d="M40.5 12.39l3.86 2.14c.8.45 1.82.16 2.27-.65l.02-.05c.45-.8.16-1.82-.64-2.27l-3.87-2.14a1.67 1.67 0 0 0-2.27.65l-.02.05c-.45.8-.16 1.82.64 2.27z"/>
    <path fill="#2196f3" d="M51.42 28.59A22.03 22.03 0 1 1 8.97 40.37a22.03 22.03 0 0 1 42.45-11.78z"/>
    <path fill="#fff" d="M45.72 30.17a16.11 16.11 0 1 1-31.05 8.62 16.11 16.11 0 0 1 31.05-8.62z"/>
  </g>
  <path fill="#e91e63" d="M32.27 33.93c.21 1.8-3.38 2.8-4.13 1.15-.75-1.66-2.17-13.73-1.63-13.88.54-.15 5.55 10.92 5.76 12.73z"/>
  <path fill="#00c853" d="M33.82 33.47a3.77 3.77 0 1 1-7.25 2.02 3.77 3.77 0 0 1 7.25-2.02z"/>
  <path fill="none" stroke="#cee8fc" stroke-linecap="round" stroke-linejoin="round" stroke-width="2.0299317" d="M31.15 14.98s10.21-.44 16.21 10.42"/>
  <g transform="rotate(-15.51 99.15 683.9) scale(.38373)">
    <ellipse cx="417.57" cy="360.83" fill="#b9ffd6" rx="2.75" ry="4.49" transform="rotate(-30.33)"/>
    <path fill="#e9e9e9" d="M537.76 61.43a41.98 41.98 0 1 0 2.08 83.91 41.98 41.98 0 0 1 0-83.86c-.69-.03-1.38-.05-2.08-.05z"/>
    <rect width="7.39" height="3.93" x="537.78" y="37.46" fill="#fff1c5" ry="1.96"/>
    <rect width="7.39" height="3.93" x="459.66" y="-371.87" fill="#fff1c5" ry="1.96" transform="rotate(44.23)"/>
  </g>
  <text x="97.92" y="-217.78" stroke-width=".26" font-family="sans-serif" font-size="10.58" letter-spacing="0" style="line-height:1.25" transform="translate(-23.9 96)" word-spacing="0"/>
</svg>
