<svg xmlns="http://www.w3.org/2000/svg" viewBox="0 0 270.93 135.47">
  <g transform="translate(-296.4 -151.17)">
    <path fill="#fff" stroke="#ef5350" stroke-linecap="round" stroke-linejoin="round" stroke-width="1.32" d="M512.61 211.75a5.18 5.18 0 0 0-5.14 5.25v8.58h21.6c2.9 0 5.23 2.34 5.23 5.23v36.51h26.8a5.18 5.18 0 0 0 5.14-5.24l-9.91-22.54 9.91-22.54c1.17-2.66-2.3-5.25-5.14-5.25z"/>
    <path fill="#ef5350" d="M512.19 211.64c-2.15-.1-4.7 3.25-4.7 5.72v8.22h23.79c-.5-.4-1.06-.87-1.69-1.43-3.47-3.15-16.27-12.07-16.27-12.07a1.92 1.92 0 0 0-1.13-.44z"/>
    <g>
      <path fill="#fff" stroke="#ef5350" stroke-linecap="round" stroke-linejoin="round" stroke-width="1.32" d="M302.65 211.75c-2.85 0-6.31 2.6-5.15 5.25l9.92 22.54-9.92 22.54c0 2.9 2.3 5.24 5.15 5.24h26.72v-36.51c0-2.9 2.33-5.23 5.22-5.23h21.69V217c0-2.91-2.3-5.25-5.15-5.25z"/>
      <path fill="#ef5350" d="M351.56 211.64c-.4.02-.78.16-1.13.44 0 0-12.8 8.92-16.28 12.07a36.7 36.7 0 0 1-1.69 1.43h23.79v-8.22c0-2.47-2.55-5.82-4.7-5.72z"/>
    </g>
    <rect width="204.93" height="55.37" x="329.37" y="225.58" fill="#fff" stroke="#ef5350" stroke-linecap="round" stroke-linejoin="round" stroke-width="1.32" ry="5.23"/>
  </g>
  <g fill="#ef5350" stroke-width=".26" font-size="19.4" font-weight="400" letter-spacing="0" word-spacing="0">
    <g aria-label="2-digit divisions" font-family="Funhouse" style="line-height:1.25;-inkscape-font-specification:'Funhouse, Normal';font-variant-ligatures:normal;font-variant-caps:normal;font-variant-numeric:normal;font-feature-settings:normal;text-align:start">
      <path d="M53.04 92.34q-3.42.48-2.83 2.29l5-.37 1.12 5.43-11.9-1.23q-.16-8.16 3.33-8.33 3.49-.16 3.18-1.24-.3-1.08-4.46-.98l.8-4.28q8.4.69 8.79 4.46.4 3.77-3.03 4.25zM66.74 89.38L66 94.16l-8.63-.88-.44-3.27zM67.8 98.54l-.6-13.27q12.92 0 12.92 6.64 0 6.63-12.31 6.63zm3.38-9.75l.63 4.58q4.1.02 4.1-2.28t-4.73-2.3zM85.01 85.35l.97 12.78-5.36 1.01.24-13.46zM101.63 98.4l-5.4 1.37.1-1.5q-1.05.27-2.21.27-3.18 0-5.42-1.94-2.25-1.95-2.25-4.7 0-2.74 2.25-4.68 2.24-1.95 5.42-1.95 3.17 0 5.42 1.95 1.12.97 1.7 2.16l-4.56 1.14q-.22-.6-.8-1.1-.96-.83-2.31-.83-1.36 0-2.32.83-.97.84-.97 2.01 0 1.18.97 2.01.96.83 2.32.83 1.35 0 2.32-.83.52-.45.8-1l4.3-.2zM106.5 85.35l.97 12.78-5.37 1.01.25-13.46zM115.6 89.31l.47 8.07-5.14 1.33.88-9.65-3.87-.33.3-3.5 11.12-.67.4 5.19zM125.67 98.54l-.6-13.27q12.92 0 12.92 6.64 0 6.63-12.32 6.63zm3.38-9.75l.63 4.58q4.1.02 4.1-2.28t-4.73-2.3zM142.88 85.35l.97 12.78-5.37 1.01.25-13.46zM149.27 98.54l-4.95-9.85 4-3.42 2.85 7.58 1.86-6.7 5.3 1.5-5.18 10.42zM163.2 85.35l.96 12.78-5.36 1.01.24-13.46zM168.05 93.3q-3.42-.48-3.02-4.25.4-3.78 8.8-4.47l.79 4.29q-4.16-.1-4.47.98-.3 1.08 3.19 1.24 3.48.16 3.4 4.25-.07 4.08-9.17 4.35l-1.68-4.48q4.66.5 5.13-.46.46-.98-2.97-1.45zM181.68 85.35l.97 12.78-5.36 1.01.24-13.46zM190.85 98.54q-3.2 0-5.47-1.94-2.26-1.95-2.26-4.7 0-2.74 2.26-4.68 2.26-1.95 5.47-1.95 3.19 0 5.44 1.95 2.27 1.94 2.27 4.69 0 2.74-2.27 4.69-2.25 1.94-5.44 1.94zm-.53-4.14q1.36 0 2.33-.84.97-.83.97-2 0-1.18-.97-2.01-.97-.84-2.33-.84-1.38 0-2.35.84-.97.83-.97 2 0 1.18.97 2.01.97.84 2.35.84zM203.79 91.9l.94 5.43-4.73 1.2-.96-12.43 4.75-.83 4.68 6.2.05-6.2 5.88-.6-2.09 13.87-3.76.55zM217.73 93.3q-3.42-.48-3.02-4.25.4-3.78 8.8-4.47l.79 4.29q-4.16-.1-4.46.98-.3 1.08 3.18 1.24 3.49.16 3.41 4.25-.08 4.08-9.18 4.35l-1.68-4.48q4.66.5 5.13-.46.46-.98-2.97-1.45z" style="-inkscape-font-specification:'Funhouse, Normal';font-variant-ligatures:normal;font-variant-caps:normal;font-variant-numeric:normal;font-feature-settings:normal;text-align:start"/>
    </g>
    <g aria-label="by 5, 6, 10 11" font-family="Funhouse" style="line-height:1.25;-inkscape-font-specification:'Funhouse, Normal';font-variant-ligatures:normal;font-variant-caps:normal;font-variant-numeric:normal;font-feature-settings:normal;text-align:start">
      <path d="M71.02 109.12q2.94-.55 2.88-1.66-.06-1.12-3-.36zm.46 5.63q4.29-.17 4.3-1.5.02-1.32-4.45-1.27zm-4.13 2.98l.36-12.26q6.77-2.76 9.3-.27 2.55 2.5-.64 5.02 4.84 1.49 3.12 4.86-1.7 3.36-12.14 2.65z" style="-inkscape-font-specification:'Funhouse, Normal';font-variant-ligatures:normal;font-variant-caps:normal;font-variant-numeric:normal;font-feature-settings:normal;text-align:start"/>
      <path d="M83.53 112.05l-4.47-4.5 3.78-3.08 2.58 3.79 2.15-4.72 5.03 1.73-5.28 6.78.4 5.32-4.61-.62zM106.66 110.18q3.43.48 3.03 4.25-.4 3.77-8.79 4.46l-.8-4.28q4.17.1 4.47-.99.3-1.08-3.18-1.24-3.5-.16-3.34-8.33l11.9-1.23-1.12 5.44-5-.37q-.59 1.81 2.83 2.3zM113.79 114.57l.04 5.67-4.83.34 1.74-6.3zM126.48 117.66q-7.36-.09-4.42-12.94l5.44.95-1.73 3.42q7.53-1.56 7.8 3.55.28 5.1-7.09 5.02zm.6-3.72q1.69 0 1.69-1.13 0-1.14-1.68-1.14-1.67 0-1.67 1.14 0 1.13 1.67 1.13z" style="-inkscape-font-specification:'Funhouse, Normal';font-variant-ligatures:normal;font-variant-caps:normal;font-variant-numeric:normal;font-feature-settings:normal;text-align:start"/>
      <path d="M137.4 114.57l.04 5.67-4.83.34 1.74-6.3zM151.24 117.6l-6.48-.27 1.09-8.96-2.24.9-.88-3.73 6.81-2.1zM159.43 117.73q-3.2 0-5.46-1.94t-2.26-4.69q0-2.74 2.26-4.69 2.26-1.94 5.46-1.94t5.45 1.94q2.26 1.95 2.26 4.7 0 2.74-2.26 4.68-2.25 1.94-5.45 1.94zm-.53-4.14q1.37 0 2.33-.83.98-.83.98-2 0-1.18-.98-2.02-.96-.83-2.33-.83t-2.35.83q-.96.84-.96 2.01 0 1.18.96 2.01.98.83 2.35.83zM195.39 117.6l-6.48-.27 1.09-8.96-2.24.9-.88-3.73 6.81-2.1zM203.5 117.6l-6.48-.27 1.09-8.96-2.24.9-.88-3.73 6.81-2.1z" style="-inkscape-font-specification:'Funhouse, Normal';font-variant-ligatures:normal;font-variant-caps:normal;font-variant-numeric:normal;font-feature-settings:normal;text-align:start"/>
    </g>
    <g style="line-height:1.25;-inkscape-font-specification:'SC Gum Kids, Normal';font-variant-ligatures:normal;font-variant-caps:normal;font-variant-numeric:normal;font-feature-settings:normal;text-align:start">
      <path d="M176.79 107.2q-.38 0-.57.17v.02q-.03.04-.03.13 0 .31.2.83.1.3.3.66.35-.3.58-.57.42-.5.42-.78l-.02-.1-.14-.13q-.29-.23-.73-.23zm-1.5 6.38q-.25.4-.26.81 0 .68.56 1.23.58.58 1.36.58.64 0 1.25-.43-1.34-1.47-2.34-2.8-.37.3-.58.61zm1.66 5.48q-1.95 0-3.36-1.4-1.41-1.38-1.42-3.27 0-1.27.72-2.37.53-.8 1.39-1.43-.31-.58-.52-1.12-.43-1.06-.43-1.95 0-.66.23-1.22.26-.64.79-1.09 1-.87 2.44-.87 1 0 1.9.44.98.51 1.48 1.4.38.69.38 1.48 0 1.36-1.1 2.64-.5.58-1.18 1.12.45.6 1 1.23.32.4.7.81.5-1.04.86-2.39l2.75.74q-.6 2.27-1.54 3.84.62.63 1.13 1.1.05.06.08.07l-1.94 2.1q.02.04-.31-.29-.4-.37-.8-.78-1.52 1.21-3.23 1.21z" aria-label="&amp;" font-family="SC Gum Kids" style="-inkscape-font-specification:'SC Gum Kids, Normal';font-variant-ligatures:normal;font-variant-caps:normal;font-variant-numeric:normal;font-feature-settings:normal;text-align:start"/>
    </g>
  </g>
  <g>
    <g style="line-height:1.25;-inkscape-font-specification:'Funhouse, Normal';font-variant-ligatures:normal;font-variant-caps:normal;font-variant-numeric:normal;font-feature-settings:normal;text-align:start">
      <path fill="#fff" stroke="#ef5350" stroke-width="1.06" d="M165.34 16.54q5.61.77 4.96 6.94-.65 6.17-14.39 7.3l-1.3-7q6.8.15 7.3-1.62.5-1.76-5.2-2.03-5.71-.26-5.46-13.62l19.48-2.02-1.84 8.9-8.17-.6q-.98 2.96 4.62 3.75z" aria-label="5" font-family="Funhouse" font-size="31.75" font-weight="400" letter-spacing="0" style="-inkscape-font-specification:'Funhouse, Normal';font-variant-ligatures:normal;font-variant-caps:normal;font-variant-numeric:normal;font-feature-settings:normal;text-align:start" word-spacing="0"/>
    </g>
    <g transform="rotate(90 -357.45 251.81) scale(.84205)">
      <rect width="7.84" height="18.82" x="-712.05" y="-356.04" fill="#e91e63" ry="3.92"/>
      <rect width="7.84" height="18.82" x="-701.07" y="-356.04" fill="#e91e63" ry="3.92"/>
      <rect width="2.21" height="6.35" x="-710.76" y="-353.53" fill="#facedd" ry="1.1"/>
      <rect width="2.21" height="6.35" x="-699.77" y="-353.53" fill="#facedd" ry="1.1"/>
    </g>
    <g fill="#fff" stroke="#ef5350" stroke-width="1.06" font-family="Funhouse" font-size="31.75" font-weight="400" letter-spacing="0" word-spacing="0">
      <path d="M107.53 28.47q-5.24 0-8.94-3.18-3.7-3.17-3.7-7.67t3.7-7.67q3.7-3.18 8.94-3.18 5.23 0 8.92 3.18 3.7 3.17 3.7 7.67t-3.7 7.67q-3.7 3.18-8.92 3.18zm-.87-6.77q2.24 0 3.82-1.37 1.6-1.36 1.6-3.28 0-1.93-1.6-3.3-1.58-1.35-3.82-1.35-2.25 0-3.84 1.36-1.58 1.36-1.58 3.29 0 1.92 1.58 3.28 1.6 1.37 3.84 1.37zM89.89 17.22q4.94.5 4.01 5.68-.91 5.17-15.22 6.48l-1.3-7.74q9.4.23 9.4-1.22 0-1.48-3.7-.84l-1.02-5.41q4.73-.05 4.68-1.88-.05-1.83-8.37.19l.9-6.53q13.31-.88 14.43 4.28 1.13 5.15-3.81 7z" style="line-height:1.25;-inkscape-font-specification:'Funhouse, Normal';font-variant-ligatures:normal;font-variant-caps:normal;font-variant-numeric:normal;font-feature-settings:normal;text-align:start"/>
    </g>
    <g transform="matrix(.9766 0 0 .9766 -247.32 743.15)">
      <rect width="7.84" height="18.82" x="-746.85" y="-400.34" fill="#9c27b0" ry="3.92" transform="rotate(90)"/>
      <rect width="2.21" height="6.35" x="-745.57" y="-397.83" fill="#eeccf4" ry="1.1" transform="rotate(90)"/>
      <circle cx="390.93" cy="-751.91" r="3.56" fill="#9c27b0"/>
      <circle cx="390.93" cy="-733.95" r="3.56" fill="#9c27b0"/>
      <ellipse cx="754.53" cy="-390.09" fill="#eeccf4" rx=".76" ry="1.42" transform="rotate(-35.13)"/>
      <ellipse cx="744.11" cy="-375.27" fill="#eeccf4" rx=".76" ry="1.42" transform="rotate(-35.13)"/>
    </g>
    <g>
      <g transform="rotate(90 -373.52 267.88) scale(.84205)">
        <rect width="7.84" height="18.82" x="-712.05" y="-356.04" fill="#e91e63" ry="3.92"/>
        <rect width="7.84" height="18.82" x="-701.07" y="-356.04" fill="#e91e63" ry="3.92"/>
        <rect width="2.21" height="6.35" x="-710.76" y="-353.53" fill="#facedd" ry="1.1"/>
        <rect width="2.21" height="6.35" x="-699.77" y="-353.53" fill="#facedd" ry="1.1"/>
      </g>
      <g transform="matrix(.9766 0 0 .9766 -247.32 775.3)">
        <rect width="7.84" height="18.82" x="-746.85" y="-400.34" fill="#9c27b0" ry="3.92" transform="rotate(90)"/>
        <rect width="2.21" height="6.35" x="-745.57" y="-397.83" fill="#eeccf4" ry="1.1" transform="rotate(90)"/>
        <circle cx="390.93" cy="-751.91" r="3.56" fill="#9c27b0"/>
        <circle cx="390.93" cy="-733.95" r="3.56" fill="#9c27b0"/>
        <ellipse cx="754.53" cy="-390.09" fill="#eeccf4" rx=".76" ry="1.42" transform="rotate(-35.13)"/>
        <ellipse cx="744.11" cy="-375.27" fill="#eeccf4" rx=".76" ry="1.42" transform="rotate(-35.13)"/>
      </g>
      <g fill="#fff" stroke="#ef5350" stroke-width="1.06" font-family="Funhouse" font-size="31.75" font-weight="400" letter-spacing="0" word-spacing="0">
        <path d="M90.2 60.33L79.9 56l7-10.14-7.45.98-2.08-7.15 19.99-1.6zM111.08 60.33L100.78 56l7-10.14-7.44.98-2.08-7.15 19.98-1.6z" style="line-height:1.25;-inkscape-font-specification:'Funhouse, Normal';font-variant-ligatures:normal;font-variant-caps:normal;font-variant-numeric:normal;font-feature-settings:normal;text-align:start"/>
      </g>
      <g fill="#fff" stroke="#ef5350" stroke-width="1.06" font-family="Funhouse" font-size="35.28" font-weight="400" letter-spacing="0" word-spacing="0">
        <path d="M160.54 60.17l-9.92-.42 1.67-13.7-3.42 1.37-1.35-5.72 10.43-3.2zM174.62 60.17l-9.92-.42 1.66-13.7-3.42 1.37-1.35-5.72 10.43-3.2z" style="line-height:1.25;-inkscape-font-specification:'Funhouse, Normal';font-variant-ligatures:normal;font-variant-caps:normal;font-variant-numeric:normal;font-feature-settings:normal;text-align:start"/>
      </g>
    </g>
  </g>
</svg>
