<svg xmlns="http://www.w3.org/2000/svg" viewBox="0 0 270.93 135.47">
  <g transform="translate(-296.4 -652.23)">
    <path fill="#fff" stroke="#ef5350" stroke-linecap="round" stroke-linejoin="round" stroke-width="1.32" d="M512.61 712.82a5.18 5.18 0 0 0-5.14 5.24v8.59h21.6c2.9 0 5.23 2.33 5.23 5.22v36.52h26.8a5.18 5.18 0 0 0 5.14-5.25l-9.91-22.54 9.91-22.54c1.17-2.65-2.3-5.24-5.14-5.24z"/>
    <path fill="#ef5350" d="M512.19 712.7c-2.15-.1-4.7 3.26-4.7 5.72v8.23h23.79c-.5-.4-1.06-.87-1.69-1.44-3.47-3.15-16.27-12.06-16.27-12.06a1.92 1.92 0 0 0-1.13-.44z"/>
    <g>
      <path fill="#fff" stroke="#ef5350" stroke-linecap="round" stroke-linejoin="round" stroke-width="1.32" d="M302.65 712.82c-2.85 0-6.31 2.59-5.15 5.24l9.92 22.54-9.92 22.54c0 2.9 2.3 5.25 5.15 5.25h26.72v-36.52c0-2.89 2.33-5.22 5.22-5.22h21.69v-8.59c0-2.9-2.3-5.24-5.15-5.24z"/>
      <path fill="#ef5350" d="M351.56 712.7c-.4.03-.78.16-1.13.45 0 0-12.8 8.91-16.28 12.06a36.7 36.7 0 0 1-1.69 1.44h23.79v-8.23c0-2.46-2.55-5.81-4.7-5.71z"/>
    </g>
    <rect width="204.93" height="55.37" x="329.37" y="726.65" fill="#fff" stroke="#ef5350" stroke-linecap="round" stroke-linejoin="round" stroke-width="1.32" ry="5.23"/>
  </g>
  <g fill="#ef5350" font-size="19.4" font-weight="400" letter-spacing="0" word-spacing="0">
    <g stroke-width=".26" aria-label="2-digit divisions" font-family="Funhouse" style="line-height:1.25;-inkscape-font-specification:'Funhouse, Normal';font-variant-ligatures:normal;font-variant-caps:normal;font-variant-numeric:normal;font-feature-settings:normal;text-align:start">
      <path d="M53.04 91.03q-3.42.48-2.83 2.29l5-.37 1.12 5.43-11.9-1.23q-.16-8.16 3.33-8.32 3.49-.17 3.18-1.25-.3-1.08-4.46-.98l.8-4.28q8.4.69 8.79 4.46.4 3.77-3.03 4.25zM66.74 88.07L66 92.85l-8.63-.88-.44-3.27zM67.8 97.23l-.6-13.27q12.92 0 12.92 6.64 0 6.63-12.31 6.63zm3.38-9.75l.63 4.59q4.1.01 4.1-2.29t-4.73-2.3zM85.01 84.04l.97 12.78-5.36 1.01.24-13.46zM101.63 97.1l-5.4 1.36.1-1.5q-1.05.27-2.21.27-3.18 0-5.42-1.94-2.25-1.95-2.25-4.7 0-2.74 2.25-4.68 2.24-1.95 5.42-1.95 3.17 0 5.42 1.95 1.12.97 1.7 2.16l-4.56 1.14q-.22-.6-.8-1.1-.96-.83-2.31-.83-1.36 0-2.32.83-.97.84-.97 2.01 0 1.18.97 2.01.96.84 2.32.84 1.35 0 2.32-.84.52-.45.8-1l4.3-.2zM106.5 84.04l.97 12.78-5.37 1.01.25-13.46zM115.6 88l.47 8.07-5.14 1.33.88-9.65-3.87-.33.3-3.5 11.11-.67.41 5.19zM125.67 97.23l-.6-13.27q12.92 0 12.92 6.64 0 6.63-12.32 6.63zm3.38-9.75l.63 4.59q4.1.01 4.1-2.29t-4.73-2.3zM142.88 84.04l.97 12.78-5.37 1.01.25-13.46zM149.27 97.23l-4.95-9.85 4-3.42 2.85 7.58 1.86-6.7 5.3 1.5-5.18 10.42zM163.2 84.04l.96 12.78-5.36 1.01.24-13.46zM168.05 91.99q-3.42-.48-3.02-4.25.4-3.78 8.8-4.47l.79 4.29q-4.16-.1-4.47.98-.3 1.08 3.19 1.24 3.48.16 3.4 4.25-.07 4.08-9.17 4.35l-1.68-4.48q4.66.5 5.13-.46.46-.98-2.97-1.45zM181.68 84.04l.97 12.78-5.36 1.01.24-13.46zM190.85 97.23q-3.2 0-5.47-1.94-2.26-1.95-2.26-4.7 0-2.74 2.26-4.68 2.26-1.95 5.47-1.95 3.19 0 5.44 1.95 2.27 1.94 2.27 4.69 0 2.74-2.27 4.69-2.25 1.94-5.44 1.94zm-.53-4.14q1.36 0 2.33-.84.97-.83.97-2 0-1.18-.97-2.01-.97-.84-2.33-.84-1.38 0-2.35.84-.97.83-.97 2 0 1.18.97 2.01.97.84 2.35.84zM203.79 90.6l.94 5.43-4.73 1.2-.96-12.44 4.75-.83 4.68 6.2.05-6.2 5.88-.6-2.09 13.87-3.76.55zM217.73 91.99q-3.42-.48-3.02-4.25.4-3.78 8.8-4.47l.79 4.29q-4.16-.1-4.46.98-.3 1.08 3.18 1.24 3.49.16 3.41 4.25-.08 4.08-9.18 4.35l-1.68-4.48q4.66.5 5.13-.46.46-.98-2.97-1.45z" style="-inkscape-font-specification:'Funhouse, Normal';font-variant-ligatures:normal;font-variant-caps:normal;font-variant-numeric:normal;font-feature-settings:normal;text-align:start"/>
    </g>
    <path d="M90.25 110.43q2.94-.55 2.88-1.67-.05-1.11-3-.35zm.46 5.63q4.29-.17 4.3-1.5.02-1.32-4.44-1.27zm-4.12 2.98l.35-12.26q6.77-2.76 9.31-.27 2.54 2.5-.64 5.02 4.83 1.49 3.11 4.86-1.7 3.36-12.13 2.65z" font-family="Funhouse" style="line-height:1.25;-inkscape-font-specification:'Funhouse, Normal';font-variant-ligatures:normal;font-variant-caps:normal;font-variant-numeric:normal;font-feature-settings:normal;text-align:start"/>
    <path d="M102.76 113.36l-4.46-4.5 3.77-3.08 2.58 3.79 2.15-4.72 5.03 1.73-5.28 6.78.4 5.32-4.6-.62zM125.9 112.85q-3.43.47-2.83 2.28l5-.37 1.12 5.44-11.9-1.23q-.16-8.17 3.33-8.33 3.48-.16 3.18-1.24-.3-1.08-4.46-.99l.8-4.28q8.39.7 8.79 4.46.4 3.77-3.04 4.26zM134.57 115.88l.05 5.67-4.83.34 1.73-6.3zM147.55 112.41q3.02.3 2.46 3.47-.56 3.16-9.3 3.96l-.8-4.73q5.75.14 5.75-.75 0-.9-2.27-.5l-.62-3.31q2.89-.03 2.86-1.15-.03-1.12-5.12.11l.55-3.99q8.14-.54 8.82 2.62.7 3.14-2.33 4.27zM176.2 104.73l-4.84 9.42 5.41.7-.77 4.55 5.6-.69-.16-3.2 2.06.2.76-4.14-2.93-.08v-7zm-.53 6.37l1.09-2.58 1.13.11-.47 2.64z" font-family="Funhouse" style="line-height:1.25;-inkscape-font-specification:'Funhouse, Normal';font-variant-ligatures:normal;font-variant-caps:normal;font-variant-numeric:normal;font-feature-settings:normal;text-align:start"/>
    <g style="line-height:1.25;-inkscape-font-specification:'SC Gum Kids, Normal';font-variant-ligatures:normal;font-variant-caps:normal;font-variant-numeric:normal;font-feature-settings:normal;text-align:start">
      <path stroke-width=".26" d="M159.88 107.44q-.38 0-.57.17v.02q-.02.04-.02.14-.01.3.19.82.1.3.3.66.35-.3.59-.57.41-.49.41-.77l-.02-.1q-.04-.06-.14-.14-.28-.23-.73-.23zm-1.5 6.39q-.25.39-.26.8 0 .69.56 1.24.59.57 1.36.57.65 0 1.25-.42-1.34-1.48-2.34-2.8-.37.29-.57.6zm1.66 5.47q-1.95 0-3.36-1.39-1.41-1.4-1.42-3.28 0-1.27.72-2.36.53-.81 1.4-1.44-.32-.57-.53-1.11-.43-1.06-.43-1.95 0-.67.23-1.23.27-.63.79-1.09 1.01-.87 2.44-.87 1 0 1.9.45.98.5 1.48 1.4.38.68.38 1.48 0 1.35-1.1 2.63-.5.58-1.18 1.12.46.6 1 1.23l.7.82q.5-1.05.86-2.4l2.76.75q-.61 2.26-1.55 3.83.63.64 1.13 1.11l.08.07-1.94 2.1-.31-.3q-.4-.37-.8-.78-1.51 1.21-3.23 1.21z" aria-label="&amp;" font-family="SC Gum Kids" style="-inkscape-font-specification:'SC Gum Kids, Normal';font-variant-ligatures:normal;font-variant-caps:normal;font-variant-numeric:normal;font-feature-settings:normal;text-align:start"/>
    </g>
  </g>
  <g>
    <g transform="translate(-277.74 823.91) scale(1.06286)">
      <rect width="7.84" height="18.82" x="-746.85" y="-400.34" fill="#9c27b0" ry="3.92" transform="rotate(90)"/>
      <rect width="2.21" height="6.35" x="-745.57" y="-397.83" fill="#eeccf4" ry="1.1" transform="rotate(90)"/>
      <circle cx="390.93" cy="-751.91" r="3.56" fill="#9c27b0"/>
      <circle cx="390.93" cy="-733.95" r="3.56" fill="#9c27b0"/>
      <ellipse cx="754.53" cy="-390.09" fill="#eeccf4" rx=".76" ry="1.42" transform="rotate(-35.13)"/>
      <ellipse cx="744.11" cy="-375.27" fill="#eeccf4" rx=".76" ry="1.42" transform="rotate(-35.13)"/>
    </g>
    <g fill="#fff" stroke="#ef5350" stroke-width="1.06" aria-label="40" font-family="Funhouse" font-size="35.28" font-weight="400" letter-spacing="0" style="line-height:1.25;-inkscape-font-specification:'Funhouse, Normal';font-variant-ligatures:normal;font-variant-caps:normal;font-variant-numeric:normal;font-feature-settings:normal;text-align:start" word-spacing="0">
      <path d="M76.63 21.16l-8.79 17.12 9.84 1.3-1.4 8.26 10.18-1.25-.3-5.84 3.75.4 1.4-7.55-5.35-.14V20.71zm-.95 11.6l1.98-4.7 2.05.2-.85 4.79zM106.2 47.19q-5.82 0-9.94-3.53-4.1-3.53-4.1-8.53t4.1-8.53q4.12-3.53 9.94-3.53 5.8 0 9.9 3.53 4.12 3.54 4.12 8.53 0 5-4.11 8.53-4.1 3.53-9.9 3.53zm-.96-7.53q2.48 0 4.23-1.51 1.78-1.52 1.78-3.66 0-2.13-1.78-3.65-1.75-1.51-4.23-1.51-2.5 0-4.28 1.51-1.75 1.52-1.75 3.65 0 2.14 1.75 3.66 1.78 1.51 4.28 1.51z" style="-inkscape-font-specification:'Funhouse, Normal';font-variant-ligatures:normal;font-variant-caps:normal;font-variant-numeric:normal;font-feature-settings:normal;text-align:start"/>
    </g>
    <g style="line-height:1.25;-inkscape-font-specification:'Funhouse, Normal';font-variant-ligatures:normal;font-variant-caps:normal;font-variant-numeric:normal;font-feature-settings:normal;text-align:start">
      <path fill="#fff" stroke="#ef5350" stroke-width="1.06" d="M164.38 21.16l-8.78 17.12 9.83 1.3-1.4 8.26 10.19-1.25-.3-5.84 3.74.4 1.4-7.55-5.34-.14V20.71zm-.95 11.6l1.98-4.7 2.05.2-.84 4.79z" aria-label="4" font-family="Funhouse" font-size="35.28" font-weight="400" letter-spacing="0" style="-inkscape-font-specification:'Funhouse, Normal';font-variant-ligatures:normal;font-variant-caps:normal;font-variant-numeric:normal;font-feature-settings:normal;text-align:start" word-spacing="0"/>
    </g>
    <g transform="matrix(0 .91414 -.91414 0 -121.56 676.61)">
      <rect width="7.84" height="18.82" x="-712.05" y="-356.04" fill="#e91e63" ry="3.92"/>
      <rect width="7.84" height="18.82" x="-701.07" y="-356.04" fill="#e91e63" ry="3.92"/>
      <rect width="2.21" height="6.35" x="-710.76" y="-353.53" fill="#facedd" ry="1.1"/>
      <rect width="2.21" height="6.35" x="-699.77" y="-353.53" fill="#facedd" ry="1.1"/>
    </g>
  </g>
</svg>
