<svg xmlns="http://www.w3.org/2000/svg" viewBox="0 0 270.93 135.47">
  <g fill="#00c853">
    <path d="M129.29 35.31a3.22 3.22 0 0 1 3.23 3.23v12.93a3.22 3.22 0 1 1-6.46 0V38.54a3.22 3.22 0 0 1 3.23-3.23z"/>
    <path d="M138.98 45a3.22 3.22 0 0 1-3.23 3.24h-12.92a3.22 3.22 0 1 1 0-6.47h12.92a3.22 3.22 0 0 1 3.23 3.23z"/>
  </g>
  <path fill="#c7ffde" d="M132.13 43.78c0 .47.37.84.83.84h3.12a.83.83 0 1 0 0-1.67h-3.12a.83.83 0 0 0-.83.83z"/>
  <path fill="#e91e63" d="M207.2 42.93a3.3 3.3 0 0 1-3.31 3.3h-9.24a3.3 3.3 0 1 1 0-6.6h9.24a3.3 3.3 0 0 1 3.3 3.3zM207.2 52.18a3.3 3.3 0 0 1-3.31 3.3h-9.24a3.3 3.3 0 1 1 0-6.6h9.24a3.3 3.3 0 0 1 3.3 3.3z"/>
  <path fill="#facedd" d="M205.08 41.64c0 .52-.41.93-.93.93h-3.48a.93.93 0 1 1 0-1.86h3.48c.52 0 .93.42.93.93zM205.08 50.9c0 .52-.41.93-.93.93h-3.48a.93.93 0 1 1 0-1.86h3.48c.52 0 .93.42.93.93z"/>
  <g fill="#fff" stroke="#ef5350" stroke-width="1.06" aria-label="10" font-family="Funhouse" font-size="28.22" font-weight="400" letter-spacing="0" style="line-height:1.25;-inkscape-font-specification:'Funhouse, Normal';font-variant-ligatures:normal;font-variant-caps:normal;font-variant-numeric:normal;font-feature-settings:normal;text-align:start" word-spacing="0">
    <path d="M88.26 55.34l-9.42-.4 1.58-13.02-3.25 1.3-1.28-5.42 9.9-3.05zM100.18 55.53q-4.66 0-7.95-2.82-3.28-2.83-3.28-6.82 0-4 3.28-6.82 3.3-2.83 7.95-2.83 4.64 0 7.92 2.83 3.3 2.82 3.3 6.82t-3.3 6.82q-3.28 2.82-7.92 2.82zm-.77-6.02q1.98 0 3.39-1.21 1.42-1.21 1.42-2.92t-1.42-2.92q-1.4-1.22-3.4-1.22-1.99 0-3.4 1.22-1.41 1.2-1.41 2.92 0 1.7 1.4 2.92 1.42 1.21 3.42 1.21z" style="-inkscape-font-specification:'Funhouse, Normal';font-variant-ligatures:normal;font-variant-caps:normal;font-variant-numeric:normal;font-feature-settings:normal;text-align:start"/>
  </g>
  <g fill="#fff" stroke="#ef5350" stroke-width="1.06" aria-label="90" font-family="Funhouse" font-size="28.22" font-weight="400" letter-spacing="0" style="line-height:1.25;-inkscape-font-specification:'Funhouse, Normal';font-variant-ligatures:normal;font-variant-caps:normal;font-variant-numeric:normal;font-feature-settings:normal;text-align:start" word-spacing="0">
    <path d="M155.77 36.47q10.72.12 6.45 18.82l-7.91-1.4 2.5-4.97q-10.95 2.27-11.35-5.14-.4-7.43 10.3-7.3zm-.89 5.4q-2.42 0-2.42 1.65t2.42 1.65q2.44 0 2.44-1.65 0-1.66-2.44-1.66z" style="-inkscape-font-specification:'Funhouse, Normal';font-variant-ligatures:normal;font-variant-caps:normal;font-variant-numeric:normal;font-feature-settings:normal;text-align:start"/>
    <path d="M175.91 55.4q-4.65 0-7.95-2.83-3.28-2.82-3.28-6.82t3.28-6.82q3.3-2.83 7.95-2.83t7.93 2.83q3.29 2.82 3.29 6.82t-3.3 6.82q-3.27 2.83-7.92 2.83zm-.77-6.03q1.99 0 3.4-1.2 1.41-1.22 1.41-2.93 0-1.71-1.42-2.92-1.4-1.21-3.39-1.21-2 0-3.42 1.2-1.4 1.22-1.4 2.93 0 1.7 1.4 2.92 1.42 1.21 3.42 1.21z" style="-inkscape-font-specification:'Funhouse, Normal';font-variant-ligatures:normal;font-variant-caps:normal;font-variant-numeric:normal;font-feature-settings:normal;text-align:start"/>
  </g>
  <g fill="#fff" stroke="#ef5350" stroke-width="1.06" aria-label="700" font-family="Funhouse" font-size="28.22" font-weight="400" letter-spacing="0" style="line-height:1.25;-inkscape-font-specification:'Funhouse, Normal';font-variant-ligatures:normal;font-variant-caps:normal;font-variant-numeric:normal;font-feature-settings:normal;text-align:start" word-spacing="0">
    <path d="M61.04 24.16l-9.15-3.84 6.22-9.01-6.62.86-1.84-6.35L67.4 4.4zM77.03 25.11q-4.66 0-7.95-2.82-3.28-2.83-3.28-6.82 0-4 3.28-6.82 3.3-2.83 7.95-2.83 4.64 0 7.92 2.83 3.3 2.82 3.3 6.82t-3.3 6.82q-3.28 2.82-7.92 2.82zm-.77-6.02q1.98 0 3.39-1.21 1.42-1.21 1.42-2.92t-1.42-2.92q-1.4-1.22-3.4-1.22-1.99 0-3.4 1.22-1.41 1.2-1.41 2.92 0 1.7 1.4 2.92 1.42 1.21 3.42 1.21zM100.18 25.11q-4.66 0-7.95-2.82-3.28-2.83-3.28-6.82 0-4 3.28-6.82 3.3-2.83 7.95-2.83 4.64 0 7.92 2.83 3.3 2.82 3.3 6.82t-3.3 6.82q-3.28 2.82-7.92 2.82zm-.77-6.02q1.98 0 3.39-1.21 1.42-1.21 1.42-2.92t-1.42-2.92q-1.4-1.22-3.4-1.22-1.99 0-3.4 1.22-1.41 1.2-1.41 2.92 0 1.7 1.4 2.92 1.42 1.21 3.42 1.21z" style="-inkscape-font-specification:'Funhouse, Normal';font-variant-ligatures:normal;font-variant-caps:normal;font-variant-numeric:normal;font-feature-settings:normal;text-align:start"/>
  </g>
  <g fill="#fff" stroke="#ef5350" stroke-width="1.06" aria-label="900" font-family="Funhouse" font-size="28.22" font-weight="400" letter-spacing="0" style="line-height:1.25;-inkscape-font-specification:'Funhouse, Normal';font-variant-ligatures:normal;font-variant-caps:normal;font-variant-numeric:normal;font-feature-settings:normal;text-align:start" word-spacing="0">
    <path d="M155.77 8.96q10.72.1 6.45 18.8l-7.91-1.38 2.5-4.98q-10.95 2.28-11.35-5.14-.4-7.42 10.3-7.3zm-.89 5.39q-2.42 0-2.42 1.65t2.42 1.65q2.44 0 2.44-1.65t-2.44-1.65z" style="-inkscape-font-specification:'Funhouse, Normal';font-variant-ligatures:normal;font-variant-caps:normal;font-variant-numeric:normal;font-feature-settings:normal;text-align:start"/>
    <path d="M175.91 27.88q-4.65 0-7.95-2.83-3.28-2.82-3.28-6.82t3.28-6.82q3.3-2.82 7.95-2.82t7.93 2.82q3.29 2.83 3.29 6.82 0 4-3.3 6.82-3.27 2.83-7.92 2.83zm-.77-6.02q1.99 0 3.4-1.22 1.41-1.2 1.41-2.92 0-1.7-1.42-2.92-1.4-1.21-3.39-1.21-2 0-3.42 1.21-1.4 1.21-1.4 2.92t1.4 2.92q1.42 1.22 3.42 1.22zM199.06 27.88q-4.65 0-7.95-2.83-3.28-2.82-3.28-6.82t3.28-6.82q3.3-2.82 7.95-2.82T207 11.4q3.3 2.83 3.3 6.82 0 4-3.3 6.82-3.28 2.83-7.93 2.83zm-.77-6.02q1.99 0 3.4-1.22 1.41-1.2 1.41-2.92 0-1.7-1.42-2.92-1.4-1.21-3.39-1.21-2 0-3.42 1.21-1.4 1.21-1.4 2.92t1.4 2.92q1.42 1.22 3.42 1.22z" style="-inkscape-font-specification:'Funhouse, Normal';font-variant-ligatures:normal;font-variant-caps:normal;font-variant-numeric:normal;font-feature-settings:normal;text-align:start"/>
  </g>
  <g>
    <g fill="#00c853">
      <path d="M129.29 7.8a3.22 3.22 0 0 1 3.23 3.23v12.92a3.22 3.22 0 1 1-6.46 0V11.03a3.22 3.22 0 0 1 3.23-3.24z"/>
      <path d="M138.98 17.49a3.22 3.22 0 0 1-3.23 3.23h-12.92a3.22 3.22 0 1 1 0-6.46h12.92a3.22 3.22 0 0 1 3.23 3.23z"/>
    </g>
    <path fill="#c7ffde" d="M132.13 16.27c0 .46.37.83.83.83h3.12a.83.83 0 1 0 0-1.66h-3.12a.83.83 0 0 0-.83.83z"/>
  </g>
  <g>
    <path fill="#e91e63" d="M229.07 12.87a3.3 3.3 0 0 1-3.3 3.3h-9.24a3.3 3.3 0 1 1 0-6.6h9.24a3.3 3.3 0 0 1 3.3 3.3zM229.07 22.11a3.3 3.3 0 0 1-3.3 3.3h-9.24a3.3 3.3 0 1 1 0-6.6h9.24a3.3 3.3 0 0 1 3.3 3.3z"/>
    <path fill="#facedd" d="M226.96 11.58c0 .51-.41.93-.93.93h-3.48a.93.93 0 1 1 0-1.86h3.48c.52 0 .93.41.93.93zM226.96 20.84c0 .51-.41.93-.93.93h-3.48a.93.93 0 1 1 0-1.86h3.48c.52 0 .93.41.93.93z"/>
  </g>
  <g transform="translate(-296.4 -151.17)">
    <path fill="#fff" stroke="#ef5350" stroke-linecap="round" stroke-linejoin="round" stroke-width="1.32" d="M512.61 211.75a5.18 5.18 0 0 0-5.14 5.25v8.58h21.6c2.9 0 5.23 2.34 5.23 5.23v36.51h26.8a5.18 5.18 0 0 0 5.14-5.24l-9.91-22.54 9.91-22.54c1.17-2.66-2.3-5.25-5.14-5.25z"/>
    <path fill="#ef5350" d="M512.19 211.64c-2.15-.1-4.7 3.25-4.7 5.72v8.22h23.79c-.5-.4-1.06-.87-1.69-1.43-3.47-3.15-16.27-12.07-16.27-12.07a1.92 1.92 0 0 0-1.13-.44z"/>
    <g>
      <path fill="#fff" stroke="#ef5350" stroke-linecap="round" stroke-linejoin="round" stroke-width="1.32" d="M302.65 211.75c-2.85 0-6.31 2.6-5.15 5.25l9.92 22.54-9.92 22.54c0 2.9 2.3 5.24 5.15 5.24h26.72v-36.51c0-2.9 2.33-5.23 5.22-5.23h21.69V217c0-2.91-2.3-5.25-5.15-5.25z"/>
      <path fill="#ef5350" d="M351.56 211.64c-.4.02-.78.16-1.13.44 0 0-12.8 8.92-16.28 12.07a36.7 36.7 0 0 1-1.69 1.43h23.79v-8.22c0-2.47-2.55-5.82-4.7-5.72z"/>
    </g>
    <rect width="204.93" height="55.37" x="329.37" y="225.58" fill="#fff" stroke="#ef5350" stroke-linecap="round" stroke-linejoin="round" stroke-width="1.32" ry="5.23"/>
  </g>
  <g fill="#ef5350" stroke-width=".26" font-size="15.88" font-weight="400" letter-spacing="0" word-spacing="0">
    <g aria-label="addition facts" font-family="Funhouse" style="line-height:1.25;-inkscape-font-specification:'Funhouse, Normal';font-variant-ligatures:normal;font-variant-caps:normal;font-variant-numeric:normal;font-feature-settings:normal;text-align:start">
      <path d="M72.75 94.12l-.55 1.55-3.05-1.84 3.83-9.01 2.91-.2 4.58 9.32-3.62 1.73-.8-2.18zm2.65-3.4l-.87-2.8-1.03 3.1zM81.36 95.67l-.5-10.85q10.58 0 10.58 5.43 0 5.42-10.08 5.42zm2.76-7.97l.52 3.75q3.36.01 3.36-1.87 0-1.88-3.88-1.88zM92.34 95.67l-.5-10.85q10.58 0 10.58 5.43 0 5.42-10.08 5.42zm2.76-7.97l.52 3.75q3.36.01 3.36-1.87 0-1.88-3.88-1.88zM106.42 84.88l.79 10.46-4.39.83.2-11.02zM113.87 88.12l.38 6.6-4.2 1.1.72-7.9-3.17-.27.24-2.87 9.1-.54.33 4.24zM121.27 84.88l.79 10.46-4.39.83.2-11.02zM128.76 95.67q-2.62 0-4.47-1.59-1.84-1.59-1.84-3.83 0-2.25 1.84-3.84 1.85-1.59 4.47-1.59 2.62 0 4.46 1.59 1.85 1.59 1.85 3.84 0 2.24-1.85 3.83-1.84 1.6-4.46 1.6zm-.43-3.39q1.12 0 1.9-.68.8-.68.8-1.64 0-.96-.8-1.64-.78-.69-1.9-.69-1.12 0-1.92.69-.8.68-.8 1.64 0 .96.8 1.64.8.68 1.92.68zM139.35 90.25l.77 4.44-3.87.98-.78-10.18 3.88-.67 3.83 5.07.05-5.07 4.8-.5-1.7 11.35-3.08.45zM160.08 83.63l-.66 4.5-3.77-.21.15.78 3 .34-.4 3.22-2.08-.46.7 3.36-3.8.51-.85-10.18zM162.1 94.12l-.54 1.55-3.05-1.84 3.83-9.01 2.91-.2 4.58 9.32-3.62 1.73-.8-2.18zm2.65-3.4l-.86-2.8-1.03 3.1zM180 94.08q-1.84 1.6-4.43 1.6-2.6 0-4.44-1.6-1.83-1.59-1.83-3.83 0-2.25 1.83-3.84 1.84-1.59 4.44-1.59 2.6 0 4.43 1.59.92.8 1.39 1.77l-3.72.93q-.19-.5-.65-.9-.8-.68-1.9-.68-1.11 0-1.9.68-.8.69-.8 1.65t.8 1.64q.79.68 1.9.68 1.1 0 1.9-.68.42-.37.63-.84l3.73 1.66q-.46.96-1.38 1.76zM188.06 88.12l.38 6.6-4.2 1.1.72-7.9-3.17-.27.25-2.87 9.1-.54.33 4.24zM194.67 91.39q-2.8-.4-2.47-3.49.32-3.08 7.19-3.65l.65 3.5q-3.4-.07-3.65.81-.25.89 2.6 1.02 2.86.13 2.8 3.47-.07 3.34-7.52 3.57l-1.37-3.67q3.81.41 4.2-.38.37-.8-2.43-1.18z" style="-inkscape-font-specification:'Funhouse, Normal';font-variant-ligatures:normal;font-variant-caps:normal;font-variant-numeric:normal;font-feature-settings:normal;text-align:start"/>
    </g>
    <g style="line-height:1.25;-inkscape-font-specification:'SC Gum Kids, Normal';font-variant-ligatures:normal;font-variant-caps:normal;font-variant-numeric:normal;font-feature-settings:normal;text-align:start">
      <path d="M175.62 109.89q-.31 0-.47.14v.01q-.02.03-.02.11-.01.26.15.68.1.24.25.54.29-.24.48-.47.34-.4.34-.63l-.01-.08-.12-.12q-.23-.18-.6-.18zm-1.24 5.22q-.2.32-.2.66 0 .56.45 1 .48.48 1.12.48.52 0 1.02-.35-1.1-1.2-1.91-2.28-.3.23-.48.5zm1.37 4.48q-1.6 0-2.75-1.14-1.16-1.14-1.17-2.68 0-1.04.6-1.94.43-.66 1.13-1.17-.25-.47-.42-.91-.35-.87-.35-1.6 0-.54.18-1 .22-.52.65-.9.83-.7 2-.7.82 0 1.55.36.8.42 1.21 1.15.31.56.31 1.2 0 1.12-.9 2.16-.4.47-.96.92.37.49.8 1l.58.67q.41-.85.7-1.95l2.26.6q-.5 1.85-1.26 3.14.51.52.92.9l.07.06-1.59 1.72-.25-.24q-.33-.3-.66-.64-1.23 1-2.64 1z" aria-label="&amp;" font-family="SC Gum Kids" style="-inkscape-font-specification:'SC Gum Kids, Normal';font-variant-ligatures:normal;font-variant-caps:normal;font-variant-numeric:normal;font-feature-settings:normal;text-align:start"/>
    </g>
    <g aria-label="plus 9, 90, 900 9000" font-family="Funhouse" style="line-height:1.25;-inkscape-font-specification:'Funhouse, Normal';font-variant-ligatures:normal;font-variant-caps:normal;font-variant-numeric:normal;font-feature-settings:normal;text-align:start">
      <path d="M43.67 115.13l.63 2.31-4.05.81-.77-10.38q10.33-1.66 10.85 3.4 0 3.88-6.66 3.86zm-1.06-4.6l.43 1.52q4.19 0 3.94-1.1-.25-1.1-4.37-.41zM51.24 107.24l3.82.2-1.25 7.71 3.89-.6-.86 4.13-6.13-.43z" style="-inkscape-font-specification:'Funhouse, Normal';font-variant-ligatures:normal;font-variant-caps:normal;font-variant-numeric:normal;font-feature-settings:normal;text-align:start"/>
      <path d="M58.83 107.94l4.13.8q-2.06 6.34.6 6.41 3.14-.02 1.81-6.56l3.79-1.2q1.73 10.77-5.6 10.86-7.43-.07-4.73-10.3z" style="-inkscape-font-specification:'Funhouse, Normal';font-variant-ligatures:normal;font-variant-caps:normal;font-variant-numeric:normal;font-feature-settings:normal;text-align:start"/>
      <path d="M72.67 113.96q-2.8-.4-2.47-3.48.32-3.08 7.19-3.65l.65 3.5q-3.4-.07-3.65.81-.25.89 2.6 1.02 2.86.13 2.8 3.47-.07 3.34-7.52 3.57l-1.37-3.67q3.81.41 4.2-.38.37-.8-2.43-1.19zM90.19 107.6q6.03.07 3.62 10.59l-4.45-.78 1.42-2.8q-6.17 1.28-6.4-2.9-.22-4.17 5.8-4.1zm-.5 3.04q-1.36 0-1.36.93t1.36.93q1.37 0 1.37-.93t-1.37-.93zM97.88 115.66l.03 4.65-3.95.27 1.42-5.16zM108.26 107.6q6.03.07 3.63 10.59l-4.45-.78 1.41-2.8q-6.16 1.28-6.39-2.9-.22-4.17 5.8-4.1zm-.5 3.04q-1.36 0-1.36.93t1.37.93q1.37 0 1.37-.93t-1.37-.93z" style="-inkscape-font-specification:'Funhouse, Normal';font-variant-ligatures:normal;font-variant-caps:normal;font-variant-numeric:normal;font-feature-settings:normal;text-align:start"/>
      <path d="M119.6 118.25q-2.62 0-4.48-1.59-1.84-1.59-1.84-3.83 0-2.25 1.84-3.84 1.86-1.6 4.48-1.6 2.6 0 4.45 1.6 1.86 1.59 1.86 3.84 0 2.24-1.86 3.83-1.84 1.6-4.45 1.6zm-.44-3.39q1.12 0 1.9-.68.8-.68.8-1.64 0-.96-.8-1.65-.78-.68-1.9-.68-1.12 0-1.92.68-.8.69-.8 1.65t.8 1.64q.8.68 1.92.68zM128.48 115.66l.04 4.65-3.96.27 1.42-5.16zM138.87 107.6q6.03.07 3.62 10.59l-4.45-.78 1.41-2.8q-6.16 1.28-6.38-2.9-.23-4.17 5.8-4.1zm-.5 3.04q-1.36 0-1.36.93t1.36.93q1.37 0 1.37-.93t-1.37-.93z" style="-inkscape-font-specification:'Funhouse, Normal';font-variant-ligatures:normal;font-variant-caps:normal;font-variant-numeric:normal;font-feature-settings:normal;text-align:start"/>
      <path d="M150.2 118.25q-2.62 0-4.47-1.59-1.85-1.59-1.85-3.83 0-2.25 1.85-3.84 1.85-1.6 4.47-1.6 2.61 0 4.46 1.6 1.85 1.59 1.85 3.84 0 2.24-1.85 3.83-1.85 1.6-4.46 1.6zm-.44-3.39q1.12 0 1.91-.68.8-.68.8-1.64 0-.96-.8-1.65-.79-.68-1.9-.68-1.13 0-1.93.68-.79.69-.79 1.65t.8 1.64q.79.68 1.91.68zM163.22 118.25q-2.62 0-4.47-1.59-1.85-1.59-1.85-3.83 0-2.25 1.85-3.84 1.85-1.6 4.47-1.6 2.61 0 4.46 1.6 1.85 1.59 1.85 3.84 0 2.24-1.85 3.83-1.85 1.6-4.46 1.6zm-.43-3.39q1.11 0 1.9-.68.8-.68.8-1.64 0-.96-.8-1.65-.79-.68-1.9-.68-1.13 0-1.93.68-.79.69-.79 1.65t.8 1.64q.8.68 1.92.68zM187.76 107.6q6.03.07 3.63 10.59l-4.45-.78 1.41-2.8q-6.16 1.28-6.39-2.9-.22-4.17 5.8-4.1zm-.5 3.04q-1.36 0-1.36.93t1.37.93q1.37 0 1.37-.93t-1.37-.93z" style="-inkscape-font-specification:'Funhouse, Normal';font-variant-ligatures:normal;font-variant-caps:normal;font-variant-numeric:normal;font-feature-settings:normal;text-align:start"/>
      <path d="M199.1 118.25q-2.63 0-4.48-1.59-1.84-1.59-1.84-3.83 0-2.25 1.84-3.84 1.85-1.6 4.47-1.6 2.62 0 4.46 1.6 1.85 1.59 1.85 3.84 0 2.24-1.85 3.83-1.84 1.6-4.46 1.6zm-.44-3.39q1.12 0 1.9-.68.8-.68.8-1.64 0-.96-.8-1.65-.78-.68-1.9-.68-1.12 0-1.92.68-.8.69-.8 1.65t.8 1.64q.8.68 1.92.68zM212.12 118.25q-2.62 0-4.48-1.59-1.84-1.59-1.84-3.83 0-2.25 1.84-3.84 1.86-1.6 4.48-1.6 2.6 0 4.45 1.6 1.86 1.59 1.86 3.84 0 2.24-1.86 3.83-1.84 1.6-4.45 1.6zm-.44-3.39q1.12 0 1.91-.68.8-.68.8-1.64 0-.96-.8-1.65-.8-.68-1.9-.68-1.13 0-1.93.68-.79.69-.79 1.65t.8 1.64q.79.68 1.91.68zM225.14 118.25q-2.62 0-4.47-1.59-1.85-1.59-1.85-3.83 0-2.25 1.85-3.84 1.85-1.6 4.47-1.6 2.61 0 4.46 1.6 1.85 1.59 1.85 3.84 0 2.24-1.85 3.83-1.85 1.6-4.46 1.6zm-.43-3.39q1.11 0 1.9-.68.8-.68.8-1.64 0-.96-.8-1.65-.79-.68-1.9-.68-1.13 0-1.93.68-.79.69-.79 1.65t.8 1.64q.8.68 1.92.68z" style="-inkscape-font-specification:'Funhouse, Normal';font-variant-ligatures:normal;font-variant-caps:normal;font-variant-numeric:normal;font-feature-settings:normal;text-align:start"/>
    </g>
  </g>
</svg>
