<svg xmlns="http://www.w3.org/2000/svg" viewBox="0 0 270.93 135.47">
  <g transform="translate(-296.4 -151.17)">
    <path fill="#fff" stroke="#ef5350" stroke-linecap="round" stroke-linejoin="round" stroke-width="1.32" d="M512.61 211.75a5.18 5.18 0 0 0-5.14 5.25v8.58h21.6c2.9 0 5.23 2.34 5.23 5.23v36.51h26.8a5.18 5.18 0 0 0 5.14-5.24l-9.91-22.54 9.91-22.54c1.17-2.66-2.3-5.25-5.14-5.25z"/>
    <path fill="#ef5350" d="M512.19 211.64c-2.15-.1-4.7 3.25-4.7 5.72v8.22h23.79c-.5-.4-1.06-.87-1.69-1.43-3.47-3.15-16.27-12.07-16.27-12.07a1.92 1.92 0 0 0-1.13-.44z"/>
    <g>
      <path fill="#fff" stroke="#ef5350" stroke-linecap="round" stroke-linejoin="round" stroke-width="1.32" d="M302.65 211.75c-2.85 0-6.31 2.6-5.15 5.25l9.92 22.54-9.92 22.54c0 2.9 2.3 5.24 5.15 5.24h26.72v-36.51c0-2.9 2.33-5.23 5.22-5.23h21.69V217c0-2.91-2.3-5.25-5.15-5.25z"/>
      <path fill="#ef5350" d="M351.56 211.64c-.4.02-.78.16-1.13.44 0 0-12.8 8.92-16.28 12.07a36.7 36.7 0 0 1-1.69 1.43h23.79v-8.22c0-2.47-2.55-5.82-4.7-5.72z"/>
    </g>
    <rect width="204.93" height="55.37" x="329.37" y="225.58" fill="#fff" stroke="#ef5350" stroke-linecap="round" stroke-linejoin="round" stroke-width="1.32" ry="5.23"/>
  </g>
  <g fill="#ef5350" stroke-width=".26" font-family="Funhouse" font-size="19.4" font-weight="400" letter-spacing="0" word-spacing="0">
    <g aria-label="addition facts" style="line-height:1.25;-inkscape-font-specification:'Funhouse, Normal';font-variant-ligatures:normal;font-variant-caps:normal;font-variant-numeric:normal;font-feature-settings:normal;text-align:start">
      <path d="M58.8 96.45l-.66 1.9-3.73-2.26 4.68-11 3.56-.25 5.6 11.4-4.42 2.1-.98-2.65zm3.25-4.15l-1.06-3.43-1.25 3.8zM69.34 98.35l-.6-13.26q12.92 0 12.92 6.63t-12.32 6.63zm3.37-9.75l.64 4.59q4.1.01 4.1-2.29t-4.74-2.3zM82.76 98.35l-.6-13.26q12.91 0 12.91 6.63t-12.31 6.63zm3.37-9.75l.63 4.59q4.1.01 4.1-2.29t-4.73-2.3zM99.96 85.16l.97 12.78-5.36 1.02.24-13.47zM109.07 89.12l.46 8.07-5.13 1.33.88-9.65-3.88-.33.3-3.5 11.12-.67.4 5.19zM118.11 85.16l.97 12.78-5.36 1.02.24-13.47zM127.28 98.35q-3.2 0-5.47-1.94-2.26-1.95-2.26-4.7 0-2.74 2.26-4.68 2.26-1.94 5.47-1.94 3.19 0 5.44 1.94 2.27 1.94 2.27 4.69 0 2.74-2.27 4.69-2.25 1.94-5.44 1.94zm-.53-4.14q1.36 0 2.33-.84.97-.83.97-2 0-1.18-.97-2.01-.97-.84-2.33-.84-1.38 0-2.35.84-.97.83-.97 2 0 1.18.97 2.01.97.84 2.35.84zM140.22 91.72l.94 5.43-4.73 1.2-.96-12.44 4.75-.82 4.68 6.2.05-6.2 5.88-.61-2.09 13.87-3.76.55zM165.55 83.63l-.8 5.5-4.62-.26.2.95 3.66.42-.5 3.94-2.53-.57.85 4.11-4.64.63-1.05-12.44zM168.02 96.45l-.66 1.9-3.73-2.26 4.68-11 3.56-.25 5.6 11.4-4.43 2.1-.97-2.65zm3.24-4.15l-1.06-3.43-1.25 3.8zM189.9 96.4q-2.25 1.95-5.42 1.95t-5.42-1.94q-2.24-1.95-2.24-4.7 0-2.74 2.24-4.68 2.25-1.94 5.42-1.94t5.42 1.94q1.13.97 1.7 2.16l-4.55 1.14q-.23-.6-.8-1.1-.97-.83-2.32-.83-1.35 0-2.32.83-.97.84-.97 2.01 0 1.18.97 2.01.97.84 2.32.84 1.35 0 2.32-.84.52-.45.77-1.02l4.57 2.02q-.56 1.18-1.7 2.16zM199.75 89.12l.47 8.07-5.14 1.33.88-9.65-3.87-.33.3-3.5 11.11-.67.41 5.19zM207.82 93.11q-3.42-.48-3.02-4.25.4-3.77 8.8-4.47l.79 4.29q-4.16-.1-4.46.98-.3 1.08 3.18 1.24 3.49.16 3.41 4.25-.08 4.08-9.18 4.35l-1.68-4.48q4.66.5 5.13-.46.46-.98-2.97-1.45z" style="-inkscape-font-specification:'Funhouse, Normal';font-variant-ligatures:normal;font-variant-caps:normal;font-variant-numeric:normal;font-feature-settings:normal;text-align:start"/>
    </g>
    <g aria-label="doubles" style="line-height:1.25;-inkscape-font-specification:'Funhouse, Normal';font-variant-ligatures:normal;font-variant-caps:normal;font-variant-numeric:normal;font-feature-settings:normal;text-align:start">
      <path d="M91.36 119.42l-.6-13.26q12.92 0 12.92 6.63t-12.32 6.63zm3.37-9.75l.64 4.59q4.1.02 4.1-2.29 0-2.3-4.74-2.3zM111.89 119.42q-3.2 0-5.47-1.94-2.25-1.94-2.25-4.7 0-2.74 2.25-4.68 2.27-1.94 5.47-1.94 3.2 0 5.45 1.94 2.26 1.94 2.26 4.69 0 2.75-2.26 4.69-2.26 1.94-5.45 1.94zm-.53-4.14q1.36 0 2.33-.83.98-.84.98-2.01 0-1.18-.98-2.01-.97-.83-2.33-.83-1.37 0-2.35.83-.97.83-.97 2 0 1.18.97 2.02.98.83 2.35.83z" style="-inkscape-font-specification:'Funhouse, Normal';font-variant-ligatures:normal;font-variant-caps:normal;font-variant-numeric:normal;font-feature-settings:normal;text-align:start"/>
      <path d="M121.26 106.82l5.05.99q-2.52 7.74.72 7.82 3.85-.03 2.23-8.01l4.62-1.46q2.12 13.15-6.85 13.26-9.07-.08-5.77-12.6z" style="-inkscape-font-specification:'Funhouse, Normal';font-variant-ligatures:normal;font-variant-caps:normal;font-variant-numeric:normal;font-feature-settings:normal;text-align:start"/>
      <path d="M138.72 110.8q2.94-.54 2.88-1.66-.06-1.12-3-.35zm.45 5.64q4.3-.17 4.3-1.5.03-1.33-4.44-1.27zm-4.12 2.98l.35-12.27q6.78-2.76 9.32-.26 2.54 2.49-.65 5.02 4.83 1.49 3.12 4.86-1.7 3.36-12.14 2.65z" style="-inkscape-font-specification:'Funhouse, Normal';font-variant-ligatures:normal;font-variant-caps:normal;font-variant-numeric:normal;font-feature-settings:normal;text-align:start"/>
      <path d="M148.9 105.97l4.67.24-1.54 9.42 4.76-.74-1.05 5.05-7.5-.52zM167.3 104.45l.25 5.02-5.9.64.08 1.14 3.87-.36.34 3.43-4.04.3.07.93 5.72-.44.85 4.31-11.28.39 1.15-13.67z" style="-inkscape-font-specification:'Funhouse, Normal';font-variant-ligatures:normal;font-variant-caps:normal;font-variant-numeric:normal;font-feature-settings:normal;text-align:start"/>
      <path d="M171.48 114.18q-3.42-.48-3.02-4.25.4-3.77 8.8-4.46l.79 4.28q-4.16-.1-4.47.98-.3 1.08 3.19 1.24 3.48.17 3.4 4.25-.07 4.08-9.17 4.36l-1.68-4.48q4.66.5 5.13-.47.46-.97-2.97-1.45z" style="-inkscape-font-specification:'Funhouse, Normal';font-variant-ligatures:normal;font-variant-caps:normal;font-variant-numeric:normal;font-feature-settings:normal;text-align:start"/>
    </g>
  </g>
  <g fill="#fff" stroke="#ef5350" stroke-width="1.06" aria-label="600" font-family="Funhouse" font-size="28.22" font-weight="400" letter-spacing="0" style="line-height:1.25;-inkscape-font-specification:'Funhouse, Normal';font-variant-ligatures:normal;font-variant-caps:normal;font-variant-numeric:normal;font-feature-settings:normal;text-align:start" word-spacing="0">
    <path d="M152.71 27.77q-10.7-.12-6.43-18.82l7.9 1.39-2.5 4.97q10.95-2.27 11.35 5.16.4 7.41-10.32 7.3zm.88-5.4q2.44 0 2.44-1.66 0-1.65-2.44-1.65-2.42 0-2.42 1.65 0 1.66 2.42 1.66zM175.34 27.88q-4.66 0-7.95-2.83-3.28-2.82-3.28-6.82t3.28-6.82q3.3-2.82 7.95-2.82 4.64 0 7.92 2.82 3.3 2.83 3.3 6.82 0 4-3.3 6.82-3.28 2.83-7.92 2.83zm-.77-6.02q1.98 0 3.39-1.22 1.42-1.2 1.42-2.92 0-1.7-1.42-2.92-1.4-1.21-3.4-1.21-1.99 0-3.4 1.21-1.42 1.21-1.42 2.92t1.41 2.92q1.42 1.22 3.42 1.22zM198.5 27.88q-4.67 0-7.96-2.83-3.28-2.82-3.28-6.82t3.28-6.82q3.3-2.82 7.95-2.82 4.64 0 7.92 2.82 3.3 2.83 3.3 6.82 0 4-3.3 6.82-3.28 2.83-7.92 2.83zm-.78-6.02q1.98 0 3.39-1.22 1.42-1.2 1.42-2.92 0-1.7-1.42-2.92-1.4-1.21-3.4-1.21-1.99 0-3.4 1.21t-1.41 2.92q0 1.71 1.4 2.92 1.42 1.22 3.42 1.22z" style="-inkscape-font-specification:'Funhouse, Normal';font-variant-ligatures:normal;font-variant-caps:normal;font-variant-numeric:normal;font-feature-settings:normal;text-align:start"/>
  </g>
  <g>
    <g fill="#00c853">
      <path d="M129.29 35.31a3.22 3.22 0 0 1 3.23 3.23v12.93a3.22 3.22 0 1 1-6.46 0V38.54a3.22 3.22 0 0 1 3.23-3.23z"/>
      <path d="M138.98 45a3.22 3.22 0 0 1-3.23 3.24h-12.92a3.22 3.22 0 1 1 0-6.47h12.92a3.22 3.22 0 0 1 3.23 3.23z"/>
    </g>
    <path fill="#c7ffde" d="M132.13 43.78c0 .47.37.84.83.84h3.12a.83.83 0 1 0 0-1.67h-3.12a.83.83 0 0 0-.83.83z"/>
    <path fill="#e91e63" d="M208.37 42.93a3.3 3.3 0 0 1-3.3 3.3h-9.25a3.3 3.3 0 1 1 0-6.6h9.25a3.3 3.3 0 0 1 3.3 3.3zM208.37 52.18a3.3 3.3 0 0 1-3.3 3.3h-9.25a3.3 3.3 0 1 1 0-6.6h9.25a3.3 3.3 0 0 1 3.3 3.3z"/>
    <path fill="#facedd" d="M206.26 41.64c0 .52-.41.93-.93.93h-3.49a.93.93 0 1 1 0-1.86h3.49c.52 0 .93.42.93.93zM206.26 50.9c0 .52-.41.93-.93.93h-3.49a.93.93 0 1 1 0-1.86h3.49c.52 0 .93.42.93.93z"/>
    <g fill="#fff" stroke="#ef5350" stroke-width="1.06" aria-label="40" font-family="Funhouse" font-size="28.22" font-weight="400" letter-spacing="0" style="line-height:1.25;-inkscape-font-specification:'Funhouse, Normal';font-variant-ligatures:normal;font-variant-caps:normal;font-variant-numeric:normal;font-feature-settings:normal;text-align:start" word-spacing="0">
      <path d="M79.69 34.71l-7.03 13.7 7.87 1.03-1.12 6.62 8.15-1-.24-4.68 3 .32 1.11-6.04-4.27-.1v-10.2zM78.93 44l1.59-3.77 1.64.17-.68 3.83zM103.35 55.53q-4.66 0-7.95-2.82-3.28-2.83-3.28-6.82 0-4 3.28-6.82 3.3-2.83 7.95-2.83t7.93 2.83q3.29 2.82 3.29 6.82t-3.3 6.82q-3.27 2.82-7.92 2.82zm-.77-6.02q1.98 0 3.39-1.21 1.42-1.21 1.42-2.92t-1.42-2.92q-1.4-1.22-3.39-1.22-2 0-3.42 1.22-1.4 1.2-1.4 2.92 0 1.7 1.4 2.92 1.42 1.21 3.42 1.21z" style="-inkscape-font-specification:'Funhouse, Normal';font-variant-ligatures:normal;font-variant-caps:normal;font-variant-numeric:normal;font-feature-settings:normal;text-align:start"/>
    </g>
    <g fill="#fff" stroke="#ef5350" stroke-width="1.06" aria-label="40" font-family="Funhouse" font-size="28.22" font-weight="400" letter-spacing="0" style="line-height:1.25;-inkscape-font-specification:'Funhouse, Normal';font-variant-ligatures:normal;font-variant-caps:normal;font-variant-numeric:normal;font-feature-settings:normal;text-align:start" word-spacing="0">
      <path d="M152.09 34.57l-7.03 13.7 7.87 1.03-1.12 6.62 8.15-1-.24-4.68 3 .32 1.1-6.04-4.26-.1v-10.2zm-.76 9.28l1.58-3.76 1.64.16-.67 3.83zM175.75 55.4q-4.66 0-7.95-2.83-3.28-2.82-3.28-6.82t3.28-6.82q3.29-2.83 7.95-2.83 4.64 0 7.92 2.83 3.3 2.82 3.3 6.82t-3.3 6.82q-3.28 2.83-7.92 2.83zm-.77-6.03q1.98 0 3.39-1.2 1.42-1.22 1.42-2.93 0-1.71-1.42-2.92-1.41-1.21-3.4-1.21-2 0-3.41 1.2-1.4 1.22-1.4 2.93 0 1.7 1.4 2.92 1.42 1.21 3.42 1.21z" style="-inkscape-font-specification:'Funhouse, Normal';font-variant-ligatures:normal;font-variant-caps:normal;font-variant-numeric:normal;font-feature-settings:normal;text-align:start"/>
    </g>
    <g fill="#fff" stroke="#ef5350" stroke-width="1.06" aria-label="600" font-family="Funhouse" font-size="28.22" font-weight="400" letter-spacing="0" style="line-height:1.25;-inkscape-font-specification:'Funhouse, Normal';font-variant-ligatures:normal;font-variant-caps:normal;font-variant-numeric:normal;font-feature-settings:normal;text-align:start" word-spacing="0">
      <path d="M56.53 25q-10.71-.12-6.44-18.82L58 7.58l-2.5 4.97q10.95-2.28 11.35 5.15.4 7.41-10.32 7.3zm.88-5.4q2.44 0 2.44-1.65 0-1.66-2.44-1.66-2.43 0-2.43 1.66 0 1.65 2.43 1.65zM79.15 25.11q-4.65 0-7.95-2.82-3.28-2.83-3.28-6.82 0-4 3.28-6.82 3.3-2.83 7.95-2.83t7.93 2.83q3.29 2.82 3.29 6.82t-3.3 6.82q-3.27 2.82-7.92 2.82zm-.77-6.02q1.99 0 3.4-1.21t1.41-2.92q0-1.71-1.42-2.92-1.4-1.22-3.39-1.22-2 0-3.42 1.22-1.4 1.2-1.4 2.92 0 1.7 1.4 2.92 1.42 1.21 3.42 1.21zM102.3 25.11q-4.65 0-7.95-2.82-3.28-2.83-3.28-6.82 0-4 3.28-6.82 3.3-2.83 7.95-2.83t7.93 2.83q3.3 2.82 3.3 6.82t-3.3 6.82q-3.28 2.82-7.93 2.82zm-.77-6.02q1.99 0 3.4-1.21t1.41-2.92q0-1.71-1.42-2.92-1.4-1.22-3.39-1.22-2 0-3.42 1.22-1.4 1.2-1.4 2.92 0 1.7 1.4 2.92 1.42 1.21 3.42 1.21z" style="-inkscape-font-specification:'Funhouse, Normal';font-variant-ligatures:normal;font-variant-caps:normal;font-variant-numeric:normal;font-feature-settings:normal;text-align:start"/>
    </g>
    <g>
      <g fill="#00c853">
        <path d="M129.29 7.8a3.22 3.22 0 0 1 3.23 3.23v12.92a3.22 3.22 0 1 1-6.46 0V11.03a3.22 3.22 0 0 1 3.23-3.24z"/>
        <path d="M138.98 17.49a3.22 3.22 0 0 1-3.23 3.23h-12.92a3.22 3.22 0 1 1 0-6.46h12.92a3.22 3.22 0 0 1 3.23 3.23z"/>
      </g>
      <path fill="#c7ffde" d="M132.13 16.27c0 .46.37.83.83.83h3.12a.83.83 0 1 0 0-1.66h-3.12a.83.83 0 0 0-.83.83z"/>
    </g>
    <g>
      <path fill="#e91e63" d="M230.25 12.87a3.3 3.3 0 0 1-3.3 3.3h-9.25a3.3 3.3 0 1 1 0-6.6h9.25a3.3 3.3 0 0 1 3.3 3.3zM230.25 22.11a3.3 3.3 0 0 1-3.3 3.3h-9.25a3.3 3.3 0 1 1 0-6.6h9.25a3.3 3.3 0 0 1 3.3 3.3z"/>
      <path fill="#facedd" d="M228.14 11.58c0 .51-.41.93-.93.93h-3.49a.93.93 0 1 1 0-1.86h3.5c.5 0 .92.41.92.93zM228.14 20.84c0 .51-.41.93-.93.93h-3.49a.93.93 0 1 1 0-1.86h3.5c.5 0 .92.41.92.93z"/>
    </g>
  </g>
</svg>
