<svg xmlns="http://www.w3.org/2000/svg" viewBox="0 0 270.93 135.47">
  <g transform="translate(-914.33 -151.17)">
    <path fill="#fff" stroke="#ef5350" stroke-linecap="round" stroke-linejoin="round" stroke-width="1.32" d="M1130.54 211.75a5.18 5.18 0 0 0-5.15 5.25v8.58h21.6c2.9 0 5.23 2.34 5.23 5.23v36.51h26.8a5.18 5.18 0 0 0 5.15-5.24l-9.92-22.54 9.92-22.54c1.16-2.66-2.3-5.25-5.15-5.25z"/>
    <path fill="#ef5350" d="M1130.11 211.64c-2.15-.1-4.69 3.25-4.69 5.72v8.22h23.78c-.5-.4-1.06-.87-1.68-1.43-3.48-3.15-16.28-12.07-16.28-12.07a1.92 1.92 0 0 0-1.13-.44z"/>
    <g>
      <path fill="#fff" stroke="#ef5350" stroke-linecap="round" stroke-linejoin="round" stroke-width="1.32" d="M920.57 211.75c-2.85 0-6.31 2.6-5.14 5.25l9.91 22.54-9.91 22.54c0 2.9 2.3 5.24 5.14 5.24h26.72v-36.51c0-2.9 2.33-5.23 5.23-5.23h21.68V217c0-2.91-2.3-5.25-5.15-5.25z"/>
      <path fill="#ef5350" d="M969.48 211.64c-.4.02-.78.16-1.13.44 0 0-12.8 8.92-16.27 12.07a36.7 36.7 0 0 1-1.7 1.43h23.79v-8.22c0-2.47-2.54-5.82-4.69-5.72z"/>
    </g>
    <rect width="204.93" height="55.37" x="947.29" y="225.58" fill="#fff" stroke="#ef5350" stroke-linecap="round" stroke-linejoin="round" stroke-width="1.32" ry="5.23"/>
  </g>
  <g fill="#ef5350" stroke-width=".26" font-size="19.4" font-weight="400" letter-spacing="0" word-spacing="0">
    <g aria-label="divisions by" font-family="Funhouse" style="line-height:1.25;-inkscape-font-specification:'Funhouse, Normal';font-variant-ligatures:normal;font-variant-caps:normal;font-variant-numeric:normal;font-feature-settings:normal;text-align:start">
      <path d="M70.05 96.93l-.6-13.27q12.92 0 12.92 6.64 0 6.63-12.32 6.63zm3.37-9.75l.64 4.58q4.1.02 4.1-2.28t-4.74-2.3zM87.25 83.74l.97 12.78-5.36 1.01.25-13.46zM93.65 96.93l-4.96-9.86 4.01-3.4 2.84 7.57 1.86-6.7 5.3 1.5-5.18 10.42zM107.57 83.74l.96 12.78-5.36 1.01.25-13.46zM112.43 91.69q-3.42-.48-3.03-4.26.4-3.77 8.8-4.46l.8 4.28q-4.17-.09-4.47.99-.3 1.08 3.18 1.24 3.49.16 3.41 4.25-.07 4.08-9.18 4.35l-1.67-4.48q4.66.5 5.12-.46.47-.98-2.96-1.45zM126.06 83.74l.97 12.78-5.37 1.01.25-13.46zM135.22 96.93q-3.2 0-5.46-1.94-2.26-1.95-2.26-4.7 0-2.74 2.26-4.68 2.26-1.95 5.46-1.95t5.45 1.95q2.26 1.94 2.26 4.69 0 2.74-2.26 4.69-2.26 1.94-5.45 1.94zm-.53-4.14q1.37 0 2.33-.84.98-.83.98-2 0-1.18-.98-2.01-.96-.84-2.33-.84t-2.35.84q-.96.83-.96 2 0 1.18.96 2.01.98.84 2.35.84zM148.16 90.3l.94 5.42-4.73 1.2-.95-12.43 4.74-.83 4.68 6.2.06-6.2 5.87-.6-2.08 13.87-3.76.55zM162.1 91.69q-3.41-.48-3.01-4.26.4-3.77 8.79-4.46l.8 4.28q-4.16-.09-4.47.99-.3 1.08 3.19 1.24 3.48.16 3.4 4.25-.07 4.08-9.17 4.35l-1.68-4.48q4.66.5 5.12-.46.47-.98-2.96-1.45zM179.83 88.32q2.93-.55 2.88-1.67-.06-1.12-3-.35zm.45 5.62q4.3-.17 4.3-1.5.02-1.32-4.44-1.26zm-4.12 2.99l.35-12.27q6.77-2.76 9.31-.27 2.54 2.5-.64 5.02 4.83 1.5 3.12 4.86-1.71 3.37-12.14 2.66z" style="-inkscape-font-specification:'Funhouse, Normal';font-variant-ligatures:normal;font-variant-caps:normal;font-variant-numeric:normal;font-feature-settings:normal;text-align:start"/>
      <path d="M192.33 91.24l-4.46-4.5 3.77-3.08 2.59 3.8 2.15-4.72 5.03 1.72-5.29 6.78.4 5.33-4.6-.63z" style="-inkscape-font-specification:'Funhouse, Normal';font-variant-ligatures:normal;font-variant-caps:normal;font-variant-numeric:normal;font-feature-settings:normal;text-align:start"/>
    </g>
    <g aria-label="2, 3, 4 5" font-family="Funhouse" style="line-height:1.25;-inkscape-font-specification:'Funhouse, Normal';font-variant-ligatures:normal;font-variant-caps:normal;font-variant-numeric:normal;font-feature-settings:normal;text-align:start">
      <path d="M100.51 112.43q-3.42.47-2.82 2.28l5-.37 1.12 5.44-11.91-1.23q-.15-8.17 3.33-8.33 3.5-.16 3.19-1.24-.3-1.08-4.46-.98l.8-4.29q8.39.7 8.78 4.47.4 3.77-3.03 4.25zM109.19 115.46l.05 5.68-4.83.33 1.73-6.3zM122.17 112q3.02.3 2.45 3.46-.56 3.16-9.3 3.96l-.8-4.73q5.75.15 5.75-.75t-2.26-.5l-.62-3.31q2.88-.03 2.86-1.15-.03-1.12-5.12.11l.55-3.98q8.14-.54 8.82 2.61.7 3.15-2.33 4.27zM128.93 115.46l.05 5.68-4.83.33 1.73-6.3zM139.1 104.31l-4.83 9.42 5.4.7-.76 4.55 5.6-.69-.16-3.2 2.05.21.77-4.15-2.94-.08v-7zm-.52 6.38l1.09-2.6 1.13.12-.47 2.64zM175.66 111.07q3.43.48 3.03 4.25-.4 3.77-8.79 4.46l-.8-4.28q4.16.1 4.47-.99.3-1.08-3.19-1.24-3.48-.16-3.33-8.33l11.9-1.23-1.12 5.44-5-.37q-.59 1.81 2.83 2.3z" style="-inkscape-font-specification:'Funhouse, Normal';font-variant-ligatures:normal;font-variant-caps:normal;font-variant-numeric:normal;font-feature-settings:normal;text-align:start"/>
    </g>
    <g style="line-height:1.25;-inkscape-font-specification:'SC Gum Kids, Normal';font-variant-ligatures:normal;font-variant-caps:normal;font-variant-numeric:normal;font-feature-settings:normal;text-align:start">
      <path d="M156.68 109.6q-.38 0-.57.18v.02q-.03.03-.03.13 0 .31.2.82.1.3.3.67.34-.3.58-.57.42-.5.42-.78l-.02-.1-.14-.14q-.29-.22-.73-.22zm-1.5 6.4q-.25.38-.26.8 0 .68.56 1.23.58.58 1.36.58.64-.01 1.25-.43-1.34-1.48-2.34-2.8-.37.29-.58.61zm1.66 5.47q-1.95 0-3.36-1.4-1.41-1.39-1.42-3.27 0-1.27.72-2.37.53-.8 1.39-1.43-.31-.58-.52-1.12-.43-1.06-.43-1.95 0-.67.23-1.22.26-.64.78-1.1 1.02-.87 2.45-.87 1 0 1.9.45.98.51 1.48 1.4.38.68.38 1.48 0 1.35-1.1 2.63-.5.58-1.18 1.12.45.6 1 1.23.32.4.7.82.5-1.04.86-2.39l2.75.74q-.6 2.26-1.54 3.84.62.63 1.13 1.1l.08.07-1.94 2.1-.31-.29-.81-.79q-1.5 1.22-3.22 1.22z" aria-label="&amp;" font-family="SC Gum Kids" style="-inkscape-font-specification:'SC Gum Kids, Normal';font-variant-ligatures:normal;font-variant-caps:normal;font-variant-numeric:normal;font-feature-settings:normal;text-align:start"/>
    </g>
  </g>
  <g>
    <g fill="#fff" stroke="#ef5350" stroke-width="1.06" aria-label="70" font-family="Funhouse" font-size="31.75" font-weight="400" letter-spacing="0" style="line-height:1.25;-inkscape-font-specification:'Funhouse, Normal';font-variant-ligatures:normal;font-variant-caps:normal;font-variant-numeric:normal;font-feature-settings:normal;text-align:start" word-spacing="0">
      <path d="M90.2 60.33L79.9 56l7-10.14-7.45.98-2.08-7.15 19.99-1.6zM108.18 61.4q-5.24 0-8.95-3.18-3.69-3.18-3.69-7.67 0-4.5 3.7-7.68 3.7-3.18 8.94-3.18 5.22 0 8.91 3.18 3.7 3.18 3.7 7.68t-3.7 7.67q-3.69 3.18-8.91 3.18zm-.87-6.78q2.23 0 3.81-1.36 1.6-1.36 1.6-3.29 0-1.92-1.6-3.28-1.58-1.37-3.8-1.37-2.26 0-3.85 1.37-1.59 1.36-1.59 3.28 0 1.93 1.59 3.29 1.6 1.36 3.84 1.36z" style="-inkscape-font-specification:'Funhouse, Normal';font-variant-ligatures:normal;font-variant-caps:normal;font-variant-numeric:normal;font-feature-settings:normal;text-align:start"/>
    </g>
    <g style="line-height:1.25;-inkscape-font-specification:'Funhouse, Normal';font-variant-ligatures:normal;font-variant-caps:normal;font-variant-numeric:normal;font-feature-settings:normal;text-align:start">
      <path fill="#fff" stroke="#ef5350" stroke-width="1.06" d="M165.34 48.64q5.61.77 4.96 6.94-.65 6.18-14.39 7.3l-1.3-7q6.8.15 7.3-1.61.5-1.77-5.2-2.03-5.71-.27-5.46-13.63l19.48-2.02-1.84 8.9-8.17-.6q-.98 2.96 4.62 3.75z" aria-label="5" font-family="Funhouse" font-size="31.75" font-weight="400" letter-spacing="0" style="-inkscape-font-specification:'Funhouse, Normal';font-variant-ligatures:normal;font-variant-caps:normal;font-variant-numeric:normal;font-feature-settings:normal;text-align:start" word-spacing="0"/>
    </g>
    <g transform="rotate(90 -373.52 267.88) scale(.84205)">
      <rect width="7.84" height="18.82" x="-712.05" y="-356.04" fill="#e91e63" ry="3.92"/>
      <rect width="7.84" height="18.82" x="-701.07" y="-356.04" fill="#e91e63" ry="3.92"/>
      <rect width="2.21" height="6.35" x="-710.76" y="-353.53" fill="#facedd" ry="1.1"/>
      <rect width="2.21" height="6.35" x="-699.77" y="-353.53" fill="#facedd" ry="1.1"/>
    </g>
    <g transform="matrix(.9766 0 0 .9766 -247.32 775.3)">
      <rect width="7.84" height="18.82" x="-746.85" y="-400.34" fill="#9c27b0" ry="3.92" transform="rotate(90)"/>
      <rect width="2.21" height="6.35" x="-745.57" y="-397.83" fill="#eeccf4" ry="1.1" transform="rotate(90)"/>
      <circle cx="390.93" cy="-751.91" r="3.56" fill="#9c27b0"/>
      <circle cx="390.93" cy="-733.95" r="3.56" fill="#9c27b0"/>
      <ellipse cx="754.53" cy="-390.09" fill="#eeccf4" rx=".76" ry="1.42" transform="rotate(-35.13)"/>
      <ellipse cx="744.11" cy="-375.27" fill="#eeccf4" rx=".76" ry="1.42" transform="rotate(-35.13)"/>
    </g>
    <g>
      <g transform="rotate(90 -357.45 251.81) scale(.84205)">
        <rect width="7.84" height="18.82" x="-712.05" y="-356.04" fill="#e91e63" ry="3.92"/>
        <rect width="7.84" height="18.82" x="-701.07" y="-356.04" fill="#e91e63" ry="3.92"/>
        <rect width="2.21" height="6.35" x="-710.76" y="-353.53" fill="#facedd" ry="1.1"/>
        <rect width="2.21" height="6.35" x="-699.77" y="-353.53" fill="#facedd" ry="1.1"/>
      </g>
      <g fill="#fff" stroke="#ef5350" stroke-width="1.06" aria-label="39" font-family="Funhouse" font-size="31.75" font-weight="400" letter-spacing="0" style="line-height:1.25;-inkscape-font-specification:'Funhouse, Normal';font-variant-ligatures:normal;font-variant-caps:normal;font-variant-numeric:normal;font-feature-settings:normal;text-align:start" word-spacing="0">
        <path d="M89.89 17.22q4.94.5 4.01 5.68-.91 5.17-15.22 6.48l-1.3-7.74q9.4.23 9.4-1.22 0-1.48-3.7-.84l-1.02-5.41q4.72-.05 4.68-1.88-.05-1.83-8.37.19l.9-6.53q13.31-.88 14.43 4.28 1.13 5.15-3.81 7zM107.65 6.79q12.06.12 7.26 21.16l-8.9-1.57 2.82-5.6Q96.51 23.36 96.06 15q-.45-8.35 11.6-8.21zm-.99 6.06q-2.73 0-2.73 1.86t2.73 1.86q2.74 0 2.74-1.86t-2.74-1.86z" style="-inkscape-font-specification:'Funhouse, Normal';font-variant-ligatures:normal;font-variant-caps:normal;font-variant-numeric:normal;font-feature-settings:normal;text-align:start"/>
      </g>
      <g style="line-height:1.25;-inkscape-font-specification:'Funhouse, Normal';font-variant-ligatures:normal;font-variant-caps:normal;font-variant-numeric:normal;font-feature-settings:normal;text-align:start">
        <path fill="#fff" stroke="#ef5350" stroke-width="1.06" d="M165.16 17.22q4.94.5 4.01 5.68-.91 5.17-15.22 6.48l-1.3-7.74q9.4.23 9.4-1.22 0-1.48-3.7-.84l-1.02-5.41q4.73-.05 4.68-1.88-.04-1.83-8.37.19l.9-6.53q13.32-.88 14.43 4.28 1.13 5.15-3.81 7z" aria-label="3" font-family="Funhouse" font-size="31.75" font-weight="400" letter-spacing="0" style="-inkscape-font-specification:'Funhouse, Normal';font-variant-ligatures:normal;font-variant-caps:normal;font-variant-numeric:normal;font-feature-settings:normal;text-align:start" word-spacing="0"/>
      </g>
      <g transform="matrix(.9766 0 0 .9766 -247.32 743.15)">
        <rect width="7.84" height="18.82" x="-746.85" y="-400.34" fill="#9c27b0" ry="3.92" transform="rotate(90)"/>
        <rect width="2.21" height="6.35" x="-745.57" y="-397.83" fill="#eeccf4" ry="1.1" transform="rotate(90)"/>
        <circle cx="390.93" cy="-751.91" r="3.56" fill="#9c27b0"/>
        <circle cx="390.93" cy="-733.95" r="3.56" fill="#9c27b0"/>
        <ellipse cx="754.53" cy="-390.09" fill="#eeccf4" rx=".76" ry="1.42" transform="rotate(-35.13)"/>
        <ellipse cx="744.11" cy="-375.27" fill="#eeccf4" rx=".76" ry="1.42" transform="rotate(-35.13)"/>
      </g>
    </g>
  </g>
</svg>
