<svg xmlns="http://www.w3.org/2000/svg" viewBox="0 0 270.93 135.47">
  <g transform="translate(-296.4 -151.17)">
    <path fill="#fff" stroke="#ef5350" stroke-linecap="round" stroke-linejoin="round" stroke-width="1.32" d="M512.61 211.75a5.18 5.18 0 0 0-5.14 5.25v8.58h21.6c2.9 0 5.23 2.34 5.23 5.23v36.51h26.8a5.18 5.18 0 0 0 5.14-5.24l-9.91-22.54 9.91-22.54c1.17-2.66-2.3-5.25-5.14-5.25z"/>
    <path fill="#ef5350" d="M512.19 211.64c-2.15-.1-4.7 3.25-4.7 5.72v8.22h23.79c-.5-.4-1.06-.87-1.69-1.43-3.47-3.15-16.27-12.07-16.27-12.07a1.92 1.92 0 0 0-1.13-.44z"/>
    <g>
      <path fill="#fff" stroke="#ef5350" stroke-linecap="round" stroke-linejoin="round" stroke-width="1.32" d="M302.65 211.75c-2.85 0-6.31 2.6-5.15 5.25l9.92 22.54-9.92 22.54c0 2.9 2.3 5.24 5.15 5.24h26.72v-36.51c0-2.9 2.33-5.23 5.22-5.23h21.69V217c0-2.91-2.3-5.25-5.15-5.25z"/>
      <path fill="#ef5350" d="M351.56 211.64c-.4.02-.78.16-1.13.44 0 0-12.8 8.92-16.28 12.07a36.7 36.7 0 0 1-1.69 1.43h23.79v-8.22c0-2.47-2.55-5.82-4.7-5.72z"/>
    </g>
    <rect width="204.93" height="55.37" x="329.37" y="225.58" fill="#fff" stroke="#ef5350" stroke-linecap="round" stroke-linejoin="round" stroke-width="1.32" ry="5.23"/>
  </g>
  <g fill="#ef5350" stroke-width=".26" font-family="Funhouse" font-size="15.88" font-weight="400" letter-spacing="0" word-spacing="0">
    <g aria-label="find the factor" style="line-height:1.25;-inkscape-font-specification:'Funhouse, Normal';font-variant-ligatures:normal;font-variant-caps:normal;font-variant-numeric:normal;font-feature-settings:normal;text-align:start">
      <path d="M72.94 77.68l-.65 4.5-3.78-.2.16.77 3 .34-.42 3.22-2.06-.46.7 3.36-3.8.51-.86-10.17zM76.92 78.93l.8 10.46-4.4.83.2-11.02zM81.98 84.3l.77 4.44-3.87.98-.78-10.17 3.88-.68 3.83 5.07.05-5.07 4.8-.5-1.7 11.35-3.08.45zM91.56 89.72l-.5-10.85q10.57 0 10.57 5.43 0 5.42-10.07 5.42zm2.76-7.97l.51 3.75q3.36.01 3.36-1.87 0-1.88-3.87-1.88zM112.24 82.17l.38 6.6-4.2 1.1.72-7.9-3.17-.27.25-2.87 9.1-.54.33 4.24zM120.09 86.45l.28 2.62-2.97.52-1.35-8.59 3.3-1.4.37 3.71 2.98-.34.05-3.39 5.17.52-1.98 9.53-3.32-.98.03-2.48zM136.02 77.48l.2 4.1-4.82.52.06.94 3.16-.3.28 2.81-3.3.24.05.76 4.69-.35.7 3.52-9.24.32.94-11.18zM149.06 77.68l-.65 4.5-3.78-.2.16.77 3 .34-.42 3.22-2.07-.46.7 3.36-3.8.51-.85-10.17zM151.09 88.17l-.55 1.55-3.05-1.84 3.83-9 2.91-.21 4.59 9.32-3.62 1.73-.8-2.18zm2.65-3.4l-.87-2.8-1.02 3.1zM168.99 88.13q-1.84 1.6-4.44 1.6-2.6 0-4.43-1.6-1.84-1.59-1.84-3.83 0-2.25 1.84-3.84 1.83-1.59 4.43-1.59 2.6 0 4.44 1.59.92.8 1.38 1.77l-3.72.94q-.18-.5-.65-.9-.79-.69-1.9-.69-1.1 0-1.9.69-.79.68-.79 1.64 0 .96.8 1.64.78.68 1.9.68 1.1 0 1.9-.68.42-.37.62-.83l3.74 1.65q-.46.97-1.38 1.76zM177.05 82.17l.38 6.6-4.2 1.1.72-7.9-3.17-.27.24-2.87 9.1-.54.33 4.24zM187.17 89.72q-2.62 0-4.47-1.59-1.85-1.59-1.85-3.83 0-2.25 1.85-3.84 1.85-1.59 4.47-1.59 2.61 0 4.46 1.59t1.85 3.84q0 2.24-1.85 3.83-1.85 1.6-4.46 1.6zm-.43-3.38q1.11 0 1.9-.69.8-.68.8-1.64 0-.96-.8-1.64-.79-.69-1.9-.69-1.13 0-1.93.69-.79.68-.79 1.64 0 .96.8 1.64.8.69 1.92.69zM197.67 81.43l.11 2.1q3.88 0 3.88-.78t-3.99-1.32zm.52 7.66l-4.31.61.9-11.57q9.98.74 10.31 4 .34 3.24-3.43 4.5l3.1 1.67-3.18 2.82-3.64-4.5z" style="-inkscape-font-specification:'Funhouse, Normal';font-variant-ligatures:normal;font-variant-caps:normal;font-variant-numeric:normal;font-feature-settings:normal;text-align:start"/>
    </g>
    <g aria-label="to complete" style="line-height:1.25;-inkscape-font-specification:'Funhouse, Normal';font-variant-ligatures:normal;font-variant-caps:normal;font-variant-numeric:normal;font-feature-settings:normal;text-align:start">
      <path d="M85.44 100.91l.38 6.6-4.2 1.1.72-7.9-3.17-.27.25-2.87 9.09-.54.33 4.24zM95.56 108.46q-2.62 0-4.47-1.59-1.84-1.59-1.84-3.83 0-2.25 1.84-3.84 1.85-1.6 4.47-1.6 2.62 0 4.46 1.6 1.85 1.59 1.85 3.84 0 2.24-1.85 3.83-1.84 1.6-4.46 1.6zm-.43-3.39q1.12 0 1.9-.68.8-.68.8-1.64 0-.96-.8-1.64-.78-.69-1.9-.69-1.12 0-1.92.69-.8.68-.8 1.64 0 .96.8 1.64.8.68 1.92.68zM116.91 106.87q-1.84 1.6-4.43 1.6-2.6 0-4.44-1.6-1.83-1.59-1.83-3.83 0-2.25 1.83-3.84 1.84-1.6 4.44-1.6 2.6 0 4.43 1.6.92.8 1.39 1.77l-3.72.93q-.19-.5-.65-.9-.8-.68-1.9-.68-1.11 0-1.9.68-.8.69-.8 1.65t.8 1.64q.79.68 1.9.68 1.1 0 1.9-.68.42-.37.62-.84l3.74 1.65q-.46.97-1.38 1.77zM125.02 108.46q-2.62 0-4.47-1.59-1.85-1.59-1.85-3.83 0-2.25 1.85-3.84 1.85-1.6 4.47-1.6 2.61 0 4.46 1.6 1.85 1.59 1.85 3.84 0 2.24-1.85 3.83-1.85 1.6-4.46 1.6zm-.44-3.39q1.12 0 1.91-.68.8-.68.8-1.64 0-.96-.8-1.64-.79-.69-1.9-.69-1.13 0-1.93.69-.79.68-.79 1.64 0 .96.8 1.64.8.68 1.91.68zM144.13 97.6l.65 10.23-3.96.34-.2-5.24-.8 3.6-3.55.5-1.45-3.72.52 4.4-3.62.75.5-10.85 3.56-.47 1.97 6.2 2.38-6.02zM149.37 105.34l.62 2.32-4.04.8-.77-10.38q10.33-1.66 10.84 3.4 0 3.88-6.65 3.86zm-1.07-4.6l.44 1.52q4.18 0 3.94-1.1-.25-1.1-4.38-.41zM156.94 97.45l3.82.2-1.25 7.71 3.89-.6-.86 4.13-6.14-.43zM172 96.21l.2 4.11-4.82.52.06.94 3.17-.3.27 2.81-3.3.24.06.76 4.68-.36.7 3.53-9.24.32.94-11.19zM179.14 100.91l.38 6.6-4.2 1.1.72-7.9-3.17-.27.25-2.87 9.09-.54.33 4.24zM190.67 96.21l.2 4.11-4.82.52.06.94 3.16-.3.28 2.81-3.3.24.05.76 4.68-.36.7 3.53-9.23.32.94-11.19z" style="-inkscape-font-specification:'Funhouse, Normal';font-variant-ligatures:normal;font-variant-caps:normal;font-variant-numeric:normal;font-feature-settings:normal;text-align:start"/>
    </g>
    <g aria-label="the multiplication" style="line-height:1.25;-inkscape-font-specification:'Funhouse, Normal';font-variant-ligatures:normal;font-variant-caps:normal;font-variant-numeric:normal;font-feature-settings:normal;text-align:start">
      <path d="M58.66 118.68l.38 6.6-4.2 1.1.72-7.9-3.17-.27.25-2.87 9.09-.54.33 4.24zM66.5 122.96l.28 2.62-2.97.52-1.35-8.59 3.3-1.41.38 3.72 2.98-.34.04-3.39 5.17.52-1.97 9.53-3.33-.99.04-2.47zM82.43 113.98l.2 4.11-4.82.52.06.94 3.17-.3.28 2.81-3.3.24.05.76 4.68-.36.7 3.53-9.23.32.93-11.19zM100.17 115.38l.65 10.22-3.95.34-.21-5.24-.8 3.6-3.55.5-1.44-3.72.52 4.4-3.62.75.5-10.85 3.55-.47 1.97 6.2 2.39-6.02z" style="-inkscape-font-specification:'Funhouse, Normal';font-variant-ligatures:normal;font-variant-caps:normal;font-variant-numeric:normal;font-feature-settings:normal;text-align:start"/>
      <path d="M102 115.92l4.13.8q-2.06 6.34.59 6.41 3.14-.02 1.82-6.56l3.78-1.2q1.74 10.77-5.6 10.86-7.42-.07-4.72-10.3z" style="-inkscape-font-specification:'Funhouse, Normal';font-variant-ligatures:normal;font-variant-caps:normal;font-variant-numeric:normal;font-feature-settings:normal;text-align:start"/>
      <path d="M113.57 115.22l3.82.2-1.25 7.71 3.89-.6-.86 4.13-6.13-.43z" style="-inkscape-font-specification:'Funhouse, Normal';font-variant-ligatures:normal;font-variant-caps:normal;font-variant-numeric:normal;font-feature-settings:normal;text-align:start"/>
      <path d="M124.24 118.68l.38 6.6-4.2 1.1.72-7.9-3.17-.27.24-2.87 9.1-.54.33 4.24zM131.64 115.44l.79 10.46-4.39.83.2-11.02zM137 123.1l.63 2.32-4.05.81-.76-10.38q10.32-1.66 10.84 3.4 0 3.88-6.66 3.86zm-1.06-4.58l.43 1.51q4.2 0 3.94-1.1-.25-1.1-4.37-.41zM144.58 115.22l3.82.2-1.26 7.71 3.9-.6-.87 4.13-6.13-.43zM155.02 115.44l.79 10.46-4.39.83.2-11.02zM166.9 124.64q-1.84 1.6-4.43 1.6-2.6 0-4.44-1.6-1.83-1.59-1.83-3.83 0-2.25 1.83-3.84 1.84-1.6 4.44-1.6 2.6 0 4.43 1.6.92.8 1.39 1.77l-3.72.93q-.19-.5-.65-.9-.8-.68-1.9-.68-1.11 0-1.9.68-.8.69-.8 1.65t.8 1.64q.79.68 1.9.68 1.1 0 1.9-.68.42-.37.62-.84l3.74 1.65q-.46.97-1.38 1.77zM172.29 124.68l-.55 1.55-3.05-1.84 3.83-9.01 2.91-.2 4.59 9.32-3.62 1.73-.8-2.18zm2.65-3.4l-.87-2.8-1.02 3.1z" style="-inkscape-font-specification:'Funhouse, Normal';font-variant-ligatures:normal;font-variant-caps:normal;font-variant-numeric:normal;font-feature-settings:normal;text-align:start"/>
      <path d="M184.3 118.68l.37 6.6-4.2 1.1.72-7.9-3.17-.27.25-2.87 9.1-.54.33 4.24zM191.7 115.44l.79 10.46-4.39.83.2-11.02zM199.2 126.23q-2.63 0-4.48-1.59-1.84-1.59-1.84-3.83 0-2.25 1.84-3.84 1.85-1.6 4.47-1.6 2.61 0 4.46 1.6 1.85 1.59 1.85 3.84 0 2.24-1.85 3.83-1.85 1.6-4.46 1.6zm-.44-3.39q1.11 0 1.9-.68.8-.68.8-1.64 0-.96-.8-1.65-.79-.68-1.9-.68-1.13 0-1.92.68-.8.69-.8 1.65t.8 1.64q.8.68 1.92.68zM209.78 120.8l.77 4.45-3.87.98-.78-10.18 3.88-.67 3.83 5.07.05-5.07 4.8-.5-1.7 11.35-3.08.45z" style="-inkscape-font-specification:'Funhouse, Normal';font-variant-ligatures:normal;font-variant-caps:normal;font-variant-numeric:normal;font-feature-settings:normal;text-align:start"/>
    </g>
  </g>
  <g>
    <g transform="rotate(90 -374.94 237.26) scale(.84205)">
      <rect width="7.84" height="18.82" x="-712.05" y="-356.04" fill="#e91e63" ry="3.92"/>
      <rect width="7.84" height="18.82" x="-701.07" y="-356.04" fill="#e91e63" ry="3.92"/>
      <rect width="2.21" height="6.35" x="-710.76" y="-353.53" fill="#facedd" ry="1.1"/>
      <rect width="2.21" height="6.35" x="-699.77" y="-353.53" fill="#facedd" ry="1.1"/>
    </g>
    <g fill="#fff" stroke="#ef5350" stroke-width="1.26" aria-label="12" font-family="Funhouse" font-size="35.28" font-weight="400" letter-spacing="0" style="line-height:1.25;-inkscape-font-specification:'Funhouse, Normal';font-variant-ligatures:normal;font-variant-caps:normal;font-variant-numeric:normal;font-feature-settings:normal;text-align:start" word-spacing="0">
      <path stroke-width="1.060983" d="M180.5 28.77l-9.93-.42 1.67-13.7-3.42 1.37-1.35-5.71 10.43-3.2zM194.64 19.5q-5.24.72-4.33 3.49l7.65-.57 1.72 8.33-18.23-1.89q-.23-12.5 5.1-12.75 5.34-.25 4.88-1.9-.46-1.65-6.83-1.5l1.22-6.56q12.85 1.06 13.46 6.83.6 5.77-4.64 6.51z" style="-inkscape-font-specification:'Funhouse, Normal';font-variant-ligatures:normal;font-variant-caps:normal;font-variant-numeric:normal;font-feature-settings:normal;text-align:start"/>
    </g>
    <g transform="matrix(.95285 0 0 .95285 -266.77 758.29)">
      <g fill="#f57c00" transform="rotate(45 327.21 -723.68) scale(1.09493)">
        <rect width="7.84" height="23.53" x="303.23" y="-746.43" ry="3.92"/>
        <rect width="7.84" height="23.53" x="-738.58" y="-318.92" ry="3.92" transform="rotate(90)"/>
      </g>
      <rect width="2.21" height="6.35" x="-826.54" y="-267.47" fill="#ffd4a9" ry="1.1" transform="scale(-1 1) rotate(45)"/>
    </g>
    <g style="line-height:1.25;-inkscape-font-specification:'Funhouse, Normal';font-variant-ligatures:normal;font-variant-caps:normal;font-variant-numeric:normal;font-feature-settings:normal;text-align:start">
      <path fill="#fff" stroke="#ef5350" stroke-width="1.0576635" d="M84.46 17.85q5.24.52 4.25 6-.97 5.49-16.11 6.87l-1.38-8.2q9.96.25 9.96-1.29 0-1.56-3.92-.89l-1.09-5.72q5.01-.05 4.96-1.99-.05-1.94-8.86.2l.95-6.91q14.1-.94 15.28 4.53 1.2 5.45-4.04 7.4z" aria-label="3" font-family="Funhouse" font-size="35.28" font-weight="400" letter-spacing="0" style="-inkscape-font-specification:'Funhouse, Normal';font-variant-ligatures:normal;font-variant-caps:normal;font-variant-numeric:normal;font-feature-settings:normal;text-align:start" word-spacing="0"/>
    </g>
    <g style="line-height:1.25;-inkscape-font-specification:'Funhouse, Normal';font-variant-ligatures:normal;font-variant-caps:normal;font-variant-numeric:normal;font-feature-settings:normal;text-align:start">
      <path fill="#fff" stroke="#ef5350" stroke-width="1.0576635" d="M130.57 29.94q-1.37 0-2.34-.95-.95-.97-.95-2.33 0-1.37.95-2.32.97-.97 2.34-.97 1.36 0 2.31.97.97.95.97 2.32 0 1.36-.97 2.33-.95.95-2.31.95zm-4.24-14.25q7.52-.52 7.67-2.02.14-1.5-10.33.86l-1.48-6.34q18.86-5.17 19.86 3.51.78 6.68-8.37 9.01l.48 1.19-7.14 1.23z" aria-label="?" font-family="Funhouse" font-size="35.28" font-weight="400" letter-spacing="0" style="-inkscape-font-specification:'Funhouse, Normal';font-variant-ligatures:normal;font-variant-caps:normal;font-variant-numeric:normal;font-feature-settings:normal;text-align:start" word-spacing="0"/>
    </g>
    <g>
      <g transform="rotate(90 -409.45 235.78) scale(.84205)">
        <rect width="7.84" height="18.82" x="-712.05" y="-356.04" fill="#e91e63" ry="3.92"/>
        <rect width="7.84" height="18.82" x="-701.07" y="-356.04" fill="#e91e63" ry="3.92"/>
        <rect width="2.21" height="6.35" x="-710.76" y="-353.53" fill="#facedd" ry="1.1"/>
        <rect width="2.21" height="6.35" x="-699.77" y="-353.53" fill="#facedd" ry="1.1"/>
      </g>
      <g transform="matrix(.95285 0 0 .95285 -205.39 791.3)">
        <g fill="#f57c00" transform="rotate(45 327.21 -723.68) scale(1.09493)">
          <rect width="7.84" height="23.53" x="303.23" y="-746.43" ry="3.92"/>
          <rect width="7.84" height="23.53" x="-738.58" y="-318.92" ry="3.92" transform="rotate(90)"/>
        </g>
        <rect width="2.21" height="6.35" x="-826.54" y="-267.47" fill="#ffd4a9" ry="1.1" transform="scale(-1 1) rotate(45)"/>
      </g>
      <g style="line-height:1.25;-inkscape-font-specification:'Funhouse, Normal';font-variant-ligatures:normal;font-variant-caps:normal;font-variant-numeric:normal;font-feature-settings:normal;text-align:start">
        <path fill="#fff" stroke="#ef5350" stroke-width="1.0576635" d="M139.84 62.96q-1.36 0-2.33-.95-.95-.97-.95-2.34 0-1.36.95-2.31.97-.97 2.33-.97t2.32.97q.96.95.96 2.31 0 1.37-.96 2.34-.96.95-2.32.95zm-4.23-14.25q7.51-.52 7.66-2.02.15-1.5-10.32.86l-1.48-6.34q18.86-5.17 19.86 3.51.77 6.68-8.37 9.01l.48 1.18-7.14 1.24z" aria-label="?" font-family="Funhouse" font-size="35.28" font-weight="400" letter-spacing="0" style="-inkscape-font-specification:'Funhouse, Normal';font-variant-ligatures:normal;font-variant-caps:normal;font-variant-numeric:normal;font-feature-settings:normal;text-align:start" word-spacing="0"/>
      </g>
      <g style="line-height:1.25;-inkscape-font-specification:'Funhouse, Normal';font-variant-ligatures:normal;font-variant-caps:normal;font-variant-numeric:normal;font-feature-settings:normal;text-align:start">
        <path fill="#fff" stroke="#ef5350" stroke-width="1.059311" d="M196.36 62.45l-10.53-4.43 7.15-10.38-7.61 1-2.13-7.31 20.45-1.65z" aria-label="7" font-family="Funhouse" font-size="35.28" font-weight="400" letter-spacing="0" style="-inkscape-font-specification:'Funhouse, Normal';font-variant-ligatures:normal;font-variant-caps:normal;font-variant-numeric:normal;font-feature-settings:normal;text-align:start" word-spacing="0"/>
      </g>
      <g fill="#fff" stroke="#ef5350" stroke-width="1.15" aria-label="35" font-family="Funhouse" font-size="35.28" font-weight="400" letter-spacing="0" style="line-height:1.25;-inkscape-font-specification:'Funhouse, Normal';font-variant-ligatures:normal;font-variant-caps:normal;font-variant-numeric:normal;font-feature-settings:normal;text-align:start" word-spacing="0">
        <path stroke-width="1.059311" d="M79.94 51.55q5.06.5 4.1 5.8-.93 5.3-15.58 6.64l-1.33-7.92q9.63.24 9.63-1.26t-3.79-.85l-1.05-5.54q4.84-.05 4.8-1.92-.05-1.87-8.57.2l.92-6.69q13.63-.9 14.77 4.38 1.16 5.27-3.9 7.16zM100.47 50q5.74.8 5.08 7.12-.67 6.31-14.73 7.47l-1.33-7.17q6.96.16 7.47-1.65.5-1.81-5.33-2.08-5.84-.27-5.59-13.95L106 37.68l-1.89 9.1-8.36-.61q-1 3.03 4.73 3.84z" style="-inkscape-font-specification:'Funhouse, Normal';font-variant-ligatures:normal;font-variant-caps:normal;font-variant-numeric:normal;font-feature-settings:normal;text-align:start"/>
      </g>
    </g>
  </g>
</svg>
