<svg xmlns="http://www.w3.org/2000/svg" viewBox="0 0 270.93 135.47">
  <g transform="translate(-914.33 -652.23)">
    <path fill="#fff" stroke="#ef5350" stroke-linecap="round" stroke-linejoin="round" stroke-width="1.32" d="M1130.54 712.82a5.18 5.18 0 0 0-5.15 5.24v8.59h21.6c2.9 0 5.23 2.33 5.23 5.22v36.52h26.8a5.18 5.18 0 0 0 5.15-5.25l-9.92-22.54 9.92-22.54c1.16-2.65-2.3-5.24-5.15-5.24z"/>
    <path fill="#ef5350" d="M1130.11 712.7c-2.15-.1-4.69 3.26-4.69 5.72v8.23h23.78c-.5-.4-1.06-.87-1.68-1.44-3.48-3.15-16.28-12.06-16.28-12.06a1.92 1.92 0 0 0-1.13-.44z"/>
    <g>
      <path fill="#fff" stroke="#ef5350" stroke-linecap="round" stroke-linejoin="round" stroke-width="1.32" d="M920.57 712.82c-2.85 0-6.31 2.59-5.14 5.24l9.91 22.54-9.91 22.54c0 2.9 2.3 5.25 5.14 5.25h26.72v-36.52c0-2.89 2.33-5.22 5.23-5.22h21.68v-8.59c0-2.9-2.3-5.24-5.15-5.24z"/>
      <path fill="#ef5350" d="M969.48 712.7c-.4.03-.78.16-1.13.45 0 0-12.8 8.91-16.27 12.06a36.7 36.7 0 0 1-1.7 1.44h23.79v-8.23c0-2.46-2.54-5.81-4.69-5.71z"/>
    </g>
    <rect width="204.93" height="55.37" x="947.29" y="726.65" fill="#fff" stroke="#ef5350" stroke-linecap="round" stroke-linejoin="round" stroke-width="1.32" ry="5.23"/>
  </g>
  <g fill="#ef5350" stroke-width=".26" font-size="15.88" font-weight="400" letter-spacing="0" word-spacing="0">
    <g aria-label="multiplications by" font-family="Funhouse" style="line-height:1.25;-inkscape-font-specification:'Funhouse, Normal';font-variant-ligatures:normal;font-variant-caps:normal;font-variant-numeric:normal;font-feature-settings:normal;text-align:start">
      <path d="M65.04 80.08l.65 10.22-3.95.33-.21-5.23-.8 3.6-3.55.5-1.44-3.72.52 4.4-3.62.75.5-10.85 3.55-.48 1.97 6.2 2.39-6.01z" style="-inkscape-font-specification:'Funhouse, Normal';font-variant-ligatures:normal;font-variant-caps:normal;font-variant-numeric:normal;font-feature-settings:normal;text-align:start"/>
      <path d="M66.87 80.62l4.13.8q-2.06 6.34.59 6.4 3.15-.02 1.82-6.55l3.78-1.2q1.74 10.77-5.6 10.86-7.42-.07-4.72-10.31z" style="-inkscape-font-specification:'Funhouse, Normal';font-variant-ligatures:normal;font-variant-caps:normal;font-variant-numeric:normal;font-feature-settings:normal;text-align:start"/>
      <path d="M78.44 79.92l3.82.2-1.25 7.7 3.89-.6-.86 4.13-6.13-.42z" style="-inkscape-font-specification:'Funhouse, Normal';font-variant-ligatures:normal;font-variant-caps:normal;font-variant-numeric:normal;font-feature-settings:normal;text-align:start"/>
      <path d="M89.1 83.38l.39 6.6-4.2 1.09.72-7.9-3.17-.26.24-2.87 9.1-.55.33 4.24zM96.5 80.14l.8 10.45-4.39.83.2-11.01zM101.87 87.8l.63 2.32-4.05.8-.76-10.37q10.32-1.67 10.84 3.4 0 3.88-6.66 3.85zm-1.06-4.58l.44 1.5q4.18 0 3.93-1.1-.25-1.1-4.37-.4zM109.45 79.92l3.82.2-1.26 7.7 3.9-.6-.87 4.13-6.13-.42zM119.89 80.14l.79 10.45-4.39.83.2-11.01zM131.77 89.34q-1.84 1.59-4.43 1.59-2.6 0-4.44-1.6-1.83-1.58-1.83-3.83t1.83-3.83q1.84-1.6 4.44-1.6 2.6 0 4.43 1.6.92.8 1.39 1.76l-3.72.94q-.19-.5-.65-.9-.8-.68-1.9-.68-1.11 0-1.9.68-.8.68-.8 1.64 0 .97.8 1.65.79.68 1.9.68 1.1 0 1.9-.68.42-.37.62-.84l3.74 1.65q-.46.97-1.38 1.77zM137.16 89.38l-.54 1.55-3.06-1.85 3.83-9 2.91-.2 4.59 9.32-3.62 1.73-.8-2.18zm2.65-3.4l-.87-2.8-1.02 3.1z" style="-inkscape-font-specification:'Funhouse, Normal';font-variant-ligatures:normal;font-variant-caps:normal;font-variant-numeric:normal;font-feature-settings:normal;text-align:start"/>
      <path d="M149.16 83.38l.38 6.6-4.2 1.09.72-7.9-3.17-.26.25-2.87 9.1-.55.33 4.24zM156.57 80.14l.79 10.45-4.39.83.2-11.01zM164.06 90.93q-2.62 0-4.47-1.6-1.84-1.58-1.84-3.83t1.84-3.83q1.85-1.6 4.47-1.6 2.62 0 4.46 1.6 1.85 1.58 1.85 3.83t-1.85 3.84q-1.84 1.59-4.46 1.59zm-.43-3.39q1.12 0 1.9-.68.8-.68.8-1.64 0-.97-.8-1.65-.78-.68-1.9-.68-1.12 0-1.92.68-.8.68-.8 1.65 0 .96.8 1.64.8.68 1.92.68zM174.65 85.5l.77 4.44-3.87.99-.78-10.18 3.88-.67 3.83 5.07.05-5.07 4.8-.5-1.7 11.35-3.08.45zM186.06 86.64q-2.8-.4-2.47-3.48.32-3.08 7.2-3.65l.64 3.5q-3.4-.07-3.65.81-.25.88 2.6 1.02 2.86.13 2.8 3.47-.06 3.34-7.51 3.56l-1.38-3.66q3.82.4 4.2-.38.38-.8-2.43-1.19zM200.56 83.88q2.4-.45 2.35-1.36-.04-.92-2.45-.29zm.37 4.6q3.51-.13 3.52-1.22.01-1.08-3.64-1.04zm-3.37 2.45l.28-10.04q5.55-2.26 7.62-.22 2.08 2.04-.52 4.11 3.95 1.22 2.55 3.98-1.4 2.75-9.93 2.17z" style="-inkscape-font-specification:'Funhouse, Normal';font-variant-ligatures:normal;font-variant-caps:normal;font-variant-numeric:normal;font-feature-settings:normal;text-align:start"/>
      <path d="M210.79 86.28l-3.65-3.68 3.08-2.52 2.12 3.1 1.76-3.86 4.11 1.4-4.32 5.56.33 4.35-3.77-.5z" style="-inkscape-font-specification:'Funhouse, Normal';font-variant-ligatures:normal;font-variant-caps:normal;font-variant-numeric:normal;font-feature-settings:normal;text-align:start"/>
    </g>
    <g aria-label="tens, hundreds" font-family="Funhouse" style="line-height:1.25;-inkscape-font-specification:'Funhouse, Normal';font-variant-ligatures:normal;font-variant-caps:normal;font-variant-numeric:normal;font-feature-settings:normal;text-align:start">
      <path d="M72.04 99.71l.38 6.6-4.2 1.1.72-7.9-3.17-.27.24-2.87 9.1-.54.33 4.24zM83.56 95.02l.2 4.1-4.82.52.07.94 3.16-.3.28 2.81-3.3.24.05.76 4.68-.35.7 3.52-9.23.32.93-11.18zM88.84 101.84l.77 4.44-3.87.98-.78-10.17 3.88-.68 3.83 5.07.05-5.07 4.8-.5-1.7 11.35-3.08.45zM100.25 102.98q-2.8-.4-2.47-3.48.33-3.09 7.2-3.65l.64 3.5q-3.4-.08-3.65.8-.24.89 2.6 1.02 2.86.13 2.8 3.47-.06 3.34-7.51 3.57l-1.37-3.67q3.8.41 4.19-.38.38-.8-2.43-1.18z" style="-inkscape-font-specification:'Funhouse, Normal';font-variant-ligatures:normal;font-variant-caps:normal;font-variant-numeric:normal;font-feature-settings:normal;text-align:start"/>
      <path d="M110.7 104.67l.04 4.65-3.95.27 1.42-5.16zM119.1 104l.28 2.61-2.97.52-1.34-8.59 3.3-1.4.37 3.71 2.98-.34.04-3.39 5.17.52-1.97 9.53-3.33-.98.04-2.48zM128.06 96.95l4.13.81q-2.06 6.33.59 6.4 3.14-.02 1.82-6.55l3.78-1.2q1.74 10.76-5.6 10.85-7.42-.07-4.72-10.3zM143.23 101.84l.76 4.44-3.86.98-.79-10.17 3.89-.68 3.83 5.07.04-5.07 4.8-.5-1.7 11.35-3.07.45zM152.8 107.26l-.5-10.85q10.58 0 10.58 5.43 0 5.42-10.08 5.42zm2.76-7.97l.52 3.75q3.35.01 3.35-1.87 0-1.88-3.87-1.88zM167.08 98.97l.1 2.1q3.88 0 3.88-.78t-3.98-1.32zm.52 7.67l-4.32.6.9-11.57q9.98.74 10.32 4 .34 3.25-3.44 4.5l3.1 1.68-3.18 2.8-3.63-4.49zM183 95.02l.2 4.1-4.82.52.06.94 3.16-.3.28 2.81-3.3.24.05.76 4.69-.35.7 3.52-9.24.32.94-11.18zM184.9 107.26l-.5-10.85q10.57 0 10.57 5.43 0 5.42-10.08 5.42zm2.75-7.97l.52 3.75q3.36.01 3.36-1.87 0-1.88-3.88-1.88zM198.17 102.98q-2.8-.4-2.47-3.48.32-3.09 7.19-3.65l.65 3.5q-3.4-.08-3.65.8-.25.89 2.6 1.02 2.86.13 2.8 3.47-.07 3.34-7.52 3.57l-1.37-3.67q3.82.41 4.2-.38.37-.8-2.43-1.18z" style="-inkscape-font-specification:'Funhouse, Normal';font-variant-ligatures:normal;font-variant-caps:normal;font-variant-numeric:normal;font-feature-settings:normal;text-align:start"/>
    </g>
    <g aria-label="thousands" font-family="Funhouse" style="line-height:1.25;-inkscape-font-specification:'Funhouse, Normal';font-variant-ligatures:normal;font-variant-caps:normal;font-variant-numeric:normal;font-feature-settings:normal;text-align:start">
      <path d="M97.5 116.4l.38 6.6-4.2 1.08.72-7.9-3.17-.26.25-2.87 9.09-.54.33 4.24zM105.34 120.67l.28 2.62-2.97.52-1.35-8.59 3.3-1.41.38 3.72 2.97-.34.05-3.39 5.17.52-1.97 9.53-3.33-.99.04-2.47zM119.87 123.94q-2.62 0-4.47-1.59-1.85-1.59-1.85-3.84 0-2.24 1.85-3.83 1.85-1.6 4.47-1.6 2.61 0 4.46 1.6 1.85 1.59 1.85 3.83 0 2.25-1.85 3.84-1.85 1.6-4.46 1.6zm-.44-3.39q1.12 0 1.91-.68.8-.68.8-1.64 0-.96-.8-1.65-.79-.68-1.9-.68-1.13 0-1.93.68-.79.69-.79 1.65t.8 1.64q.8.68 1.91.68z" style="-inkscape-font-specification:'Funhouse, Normal';font-variant-ligatures:normal;font-variant-caps:normal;font-variant-numeric:normal;font-feature-settings:normal;text-align:start"/>
      <path d="M127.54 113.63l4.13.8q-2.07 6.34.59 6.41 3.14-.02 1.82-6.56l3.78-1.2q1.74 10.77-5.6 10.86-7.42-.07-4.72-10.3z" style="-inkscape-font-specification:'Funhouse, Normal';font-variant-ligatures:normal;font-variant-caps:normal;font-variant-numeric:normal;font-feature-settings:normal;text-align:start"/>
      <path d="M141.37 119.65q-2.8-.4-2.47-3.48.32-3.08 7.2-3.65l.64 3.5q-3.4-.07-3.65.81-.25.89 2.6 1.02 2.86.13 2.8 3.47-.06 3.34-7.51 3.57l-1.38-3.67q3.82.41 4.2-.38.38-.8-2.43-1.19zM152.53 122.39l-.55 1.55-3.05-1.84 3.83-9.01 2.91-.2 4.58 9.32-3.62 1.73-.8-2.18zm2.65-3.4l-.87-2.8-1.02 3.1zM164.53 118.51l.77 4.45-3.87.98-.78-10.18 3.88-.67 3.83 5.07.05-5.07 4.8-.5-1.7 11.35-3.08.45zM174.1 123.94l-.49-10.85q10.57 0 10.57 5.42 0 5.43-10.07 5.43zm2.77-7.98l.51 3.76q3.36.01 3.36-1.87 0-1.89-3.87-1.89zM187.38 119.65q-2.8-.4-2.47-3.48.33-3.08 7.2-3.65l.65 3.5q-3.4-.07-3.66.81-.24.89 2.6 1.02 2.86.13 2.8 3.47-.06 3.34-7.51 3.57l-1.37-3.67q3.81.41 4.19-.38.38-.8-2.43-1.19z" style="-inkscape-font-specification:'Funhouse, Normal';font-variant-ligatures:normal;font-variant-caps:normal;font-variant-numeric:normal;font-feature-settings:normal;text-align:start"/>
    </g>
    <g style="line-height:1.25;-inkscape-font-specification:'SC Gum Kids, Normal';font-variant-ligatures:normal;font-variant-caps:normal;font-variant-numeric:normal;font-feature-settings:normal;text-align:start">
      <path d="M80.33 115.18q-.3 0-.46.14l-.01.02q-.02.03-.02.1 0 .26.16.68.1.25.25.54.28-.24.48-.46.34-.4.34-.64l-.02-.08-.11-.11q-.24-.19-.6-.19zm-1.23 5.23q-.2.31-.2.65 0 .56.45 1.01.48.48 1.12.48.52-.01 1.02-.35-1.1-1.21-1.92-2.29-.3.23-.47.5zm1.37 4.48q-1.6 0-2.76-1.14-1.15-1.14-1.16-2.69 0-1.03.59-1.93.43-.66 1.14-1.17-.26-.48-.43-.92-.35-.87-.35-1.6 0-.54.19-1 .22-.51.64-.89.83-.7 2-.7.83 0 1.55.35.81.42 1.22 1.15.31.56.31 1.21 0 1.11-.9 2.16-.4.47-.97.91.37.49.82 1l.57.68q.41-.86.7-1.96l2.26.6q-.5 1.86-1.26 3.15.5.52.92.9l.07.06-1.59 1.72-.25-.24q-.33-.31-.66-.65-1.24 1-2.64 1z" aria-label="&amp;" font-family="SC Gum Kids" style="-inkscape-font-specification:'SC Gum Kids, Normal';font-variant-ligatures:normal;font-variant-caps:normal;font-variant-numeric:normal;font-feature-settings:normal;text-align:start"/>
    </g>
  </g>
  <g>
    <g style="line-height:1.25;-inkscape-font-specification:'Funhouse, Normal';font-variant-ligatures:normal;font-variant-caps:normal;font-variant-numeric:normal;font-feature-settings:normal;text-align:start">
      <path fill="#fff" stroke="#ef5350" stroke-width="1.06" d="M65.43 21.7q-5.6.77-4.62 3.73l8.17-.6 1.84 8.9-19.49-2.02q-.24-13.36 5.46-13.63 5.7-.26 5.2-2.03-.49-1.76-7.3-1.6L56 7.42q13.74 1.13 14.39 7.3.65 6.18-4.96 6.97z" aria-label="2" font-family="Funhouse" font-size="31.75" font-weight="400" letter-spacing="0" style="-inkscape-font-specification:'Funhouse, Normal';font-variant-ligatures:normal;font-variant-caps:normal;font-variant-numeric:normal;font-feature-settings:normal;text-align:start" word-spacing="0"/>
    </g>
    <g fill="#fff" stroke="#ef5350" stroke-width="1.06" aria-label="5000" font-family="Funhouse" font-size="31.75" font-weight="400" letter-spacing="0" style="line-height:1.25;-inkscape-font-specification:'Funhouse, Normal';font-variant-ligatures:normal;font-variant-caps:normal;font-variant-numeric:normal;font-feature-settings:normal;text-align:start" word-spacing="0">
      <path d="M115.6 19.51q5.61.78 4.96 6.95-.65 6.17-14.38 7.3l-1.3-7q6.8.15 7.3-1.62t-5.21-2.03q-5.7-.26-5.46-13.63L121 7.47l-1.85 8.9-8.17-.6q-.97 2.95 4.62 3.74zM134.6 31.87q-5.23 0-8.94-3.18-3.69-3.18-3.69-7.67 0-4.5 3.7-7.68 3.7-3.18 8.94-3.18 5.22 0 8.91 3.18 3.7 3.18 3.7 7.68t-3.7 7.67q-3.69 3.18-8.91 3.18zm-.86-6.78q2.23 0 3.81-1.36 1.6-1.36 1.6-3.29 0-1.92-1.6-3.28-1.58-1.37-3.81-1.37-2.25 0-3.84 1.37-1.59 1.36-1.59 3.28 0 1.93 1.59 3.29 1.6 1.36 3.84 1.36zM160.65 31.87q-5.24 0-8.94-3.18-3.7-3.18-3.7-7.67 0-4.5 3.7-7.68 3.7-3.18 8.94-3.18 5.23 0 8.92 3.18 3.7 3.18 3.7 7.68t-3.7 7.67q-3.7 3.18-8.92 3.18zm-.86-6.78q2.23 0 3.8-1.36 1.6-1.36 1.6-3.29 0-1.92-1.6-3.28-1.57-1.37-3.8-1.37-2.25 0-3.85 1.37-1.58 1.36-1.58 3.28 0 1.93 1.58 3.29 1.6 1.36 3.85 1.36zM186.7 31.87q-5.24 0-8.95-3.18-3.69-3.18-3.69-7.67 0-4.5 3.7-7.68 3.7-3.18 8.94-3.18 5.22 0 8.91 3.18 3.7 3.18 3.7 7.68t-3.7 7.67q-3.69 3.18-8.91 3.18zm-.87-6.78q2.23 0 3.81-1.36 1.6-1.36 1.6-3.29 0-1.92-1.6-3.28-1.58-1.37-3.81-1.37-2.25 0-3.84 1.37-1.59 1.36-1.59 3.28 0 1.93 1.59 3.29 1.6 1.36 3.84 1.36z" style="-inkscape-font-specification:'Funhouse, Normal';font-variant-ligatures:normal;font-variant-caps:normal;font-variant-numeric:normal;font-feature-settings:normal;text-align:start"/>
    </g>
    <g transform="matrix(.87292 0 0 .87292 -254.84 696.52)">
      <g fill="#f57c00" transform="rotate(45 327.21 -723.68) scale(1.09493)">
        <rect width="7.84" height="23.53" x="303.23" y="-746.43" ry="3.92"/>
        <rect width="7.84" height="23.53" x="-738.58" y="-318.92" ry="3.92" transform="rotate(90)"/>
      </g>
      <rect width="2.21" height="6.35" x="-826.54" y="-267.47" fill="#ffd4a9" ry="1.1" transform="scale(-1 1) rotate(45)"/>
    </g>
    <g transform="rotate(90 -308.6 254.01) scale(.77141)">
      <rect width="7.84" height="18.82" x="-712.05" y="-356.04" fill="#e91e63" ry="3.92"/>
      <rect width="7.84" height="18.82" x="-701.07" y="-356.04" fill="#e91e63" ry="3.92"/>
      <rect width="2.21" height="6.35" x="-710.76" y="-353.53" fill="#facedd" ry="1.1"/>
      <rect width="2.21" height="6.35" x="-699.77" y="-353.53" fill="#facedd" ry="1.1"/>
    </g>
    <g>
      <g fill="#fff" stroke="#ef5350" stroke-width="1.06" aria-label="600" font-family="Funhouse" font-size="31.75" font-weight="400" letter-spacing="0" style="line-height:1.25;-inkscape-font-specification:'Funhouse, Normal';font-variant-ligatures:normal;font-variant-caps:normal;font-variant-numeric:normal;font-feature-settings:normal;text-align:start" word-spacing="0">
        <path d="M124.1 67.99q-12.04-.14-7.23-21.18l8.9 1.57-2.82 5.6q12.32-2.56 12.77 5.8.45 8.33-11.61 8.2zm1-6.08q2.75 0 2.75-1.86t-2.75-1.86q-2.73 0-2.73 1.86t2.73 1.86zM149.57 68.11q-5.24 0-8.95-3.18-3.69-3.17-3.69-7.67t3.69-7.67q3.7-3.18 8.95-3.18 5.22 0 8.9 3.18 3.71 3.17 3.71 7.67t-3.7 7.67q-3.69 3.18-8.91 3.18zm-.87-6.77q2.23 0 3.81-1.37 1.6-1.36 1.6-3.28 0-1.93-1.6-3.29-1.58-1.36-3.81-1.36-2.25 0-3.85 1.36-1.58 1.36-1.58 3.29 0 1.92 1.58 3.28 1.6 1.37 3.85 1.37zM175.61 68.11q-5.24 0-8.95-3.18-3.68-3.17-3.68-7.67t3.68-7.67q3.71-3.18 8.95-3.18 5.22 0 8.91 3.18 3.7 3.17 3.7 7.67t-3.7 7.67q-3.69 3.18-8.91 3.18zm-.87-6.77q2.23 0 3.82-1.37 1.6-1.36 1.6-3.28 0-1.93-1.6-3.29-1.59-1.36-3.82-1.36-2.25 0-3.84 1.36-1.58 1.36-1.58 3.29 0 1.92 1.58 3.28 1.6 1.37 3.84 1.37z" style="-inkscape-font-specification:'Funhouse, Normal';font-variant-ligatures:normal;font-variant-caps:normal;font-variant-numeric:normal;font-feature-settings:normal;text-align:start"/>
      </g>
      <g style="line-height:1.25;-inkscape-font-specification:'Funhouse, Normal';font-variant-ligatures:normal;font-variant-caps:normal;font-variant-numeric:normal;font-feature-settings:normal;text-align:start">
        <path fill="#fff" stroke="#ef5350" stroke-width="1.06" d="M69.57 45.43l-7.91 15.4L70.51 62l-1.25 7.44 9.16-1.13-.27-5.26 3.37.36 1.25-6.79-4.8-.12V45.02zm-.86 10.43l1.79-4.23 1.84.18-.76 4.31z" aria-label="4" font-family="Funhouse" font-size="31.75" font-weight="400" letter-spacing="0" style="-inkscape-font-specification:'Funhouse, Normal';font-variant-ligatures:normal;font-variant-caps:normal;font-variant-numeric:normal;font-feature-settings:normal;text-align:start" word-spacing="0"/>
      </g>
      <g transform="matrix(.87292 0 0 .87292 -241.89 733.19)">
        <g fill="#f57c00" transform="rotate(45 327.21 -723.68) scale(1.09493)">
          <rect width="7.84" height="23.53" x="303.23" y="-746.43" ry="3.92"/>
          <rect width="7.84" height="23.53" x="-738.58" y="-318.92" ry="3.92" transform="rotate(90)"/>
        </g>
        <rect width="2.21" height="6.35" x="-826.54" y="-267.47" fill="#ffd4a9" ry="1.1" transform="scale(-1 1) rotate(45)"/>
      </g>
      <g transform="rotate(90 -331.96 267.32) scale(.77141)">
        <rect width="7.84" height="18.82" x="-712.05" y="-356.04" fill="#e91e63" ry="3.92"/>
        <rect width="7.84" height="18.82" x="-701.07" y="-356.04" fill="#e91e63" ry="3.92"/>
        <rect width="2.21" height="6.35" x="-710.76" y="-353.53" fill="#facedd" ry="1.1"/>
        <rect width="2.21" height="6.35" x="-699.77" y="-353.53" fill="#facedd" ry="1.1"/>
      </g>
    </g>
  </g>
</svg>
