<svg xmlns="http://www.w3.org/2000/svg" viewBox="0 0 147.1 131.8">
  <g fill="#fff" stroke="#9c27b0" stroke-width="1.32" aria-label="draw" font-family="Funhouse" font-size="35.28" font-weight="400" letter-spacing="0" style="line-height:1.25;-inkscape-font-specification:'Funhouse, Normal';font-variant-ligatures:normal;font-variant-caps:normal;font-variant-numeric:normal;font-feature-settings:normal;text-align:start" word-spacing="0">
    <path d="M20.2 26.48L19.1 2.36q23.5 0 23.5 12.06T20.2 26.48zm6.13-17.73l1.16 8.34q7.46.03 7.46-4.15 0-4.19-8.62-4.19zM51.93 8.05l.24 4.65q8.61 0 8.61-1.72 0-1.73-8.85-2.93zm1.15 17.03l-9.6 1.35 2-25.72q22.2 1.65 22.93 8.89.76 7.21-7.63 9.99l6.9 3.74-7.07 6.25-8.08-10zM76.01 23.03l-1.2 3.45-6.8-4.1 8.52-20.02L83 1.91l10.18 20.73-8.04 3.84-1.77-4.84zm5.9-7.54l-1.94-6.24-2.27 6.9zM107.6 14.42l-3.44 12.06-6.8.9L87.1 7.1l8.44-4.74 5.17 13.78 4.05-10.88 6.89.94 2.84 9.94 4.14-14.28L128 7l-10.06 19.48-7.7-1.66z" style="-inkscape-font-specification:'Funhouse, Normal';font-variant-ligatures:normal;font-variant-caps:normal;font-variant-numeric:normal;font-feature-settings:normal;text-align:start"/>
  </g>
  <g transform="translate(11.57 -74.55)">
    <rect width="36.25" height="65.21" x="150.05" y="-.83" fill="#fca" ry="6.38" transform="scale(.99469 1.00529) rotate(45)"/>
    <rect width="47.55" height="36.98" x="144.45" y="-1.53" fill="#2196f3" ry="2.53" transform="scale(.99796 1.00203) rotate(45)"/>
    <rect width="5.64" height="23.02" x="-187.93" y="6.21" fill="#cce7fc" ry="2.82" transform="scale(-1 1) rotate(-45)"/>
    <rect width="38.36" height="66.7" x="61.42" y="-160.63" fill="#e9c6af" ry="9.36" transform="rotate(135)"/>
    <rect width="16.67" height="30.3" x="117.4" y="-106.92" fill="#e9c6af" ry="8.34" transform="rotate(102.64)"/>
    <g transform="translate(-309.52 -158.23)">
      <rect width="16.21" height="32.46" x="-16.92" y="-517.2" fill="#e9c6af" ry="8.1" transform="rotate(135)"/>
      <rect width="16.21" height="35.46" x="-28.05" y="-521.21" fill="#e9c6af" ry="8.1" transform="rotate(135)"/>
      <rect width="16.21" height="35.46" x="-40.51" y="-526.08" fill="#e9c6af" ry="8.1" transform="rotate(135)"/>
      <rect width="16.21" height="35.46" x="-53.33" y="-527.51" fill="#e9c6af" ry="8.1" transform="rotate(135)"/>
      <rect width="52.62" height="46.91" x="-53.33" y="-507.04" fill="#e9c6af" ry="8.95" transform="rotate(135)"/>
      <g transform="translate(117.24 158.72)">
        <rect width="47.55" height="36.98" x="-79.97" y="222.19" fill="#e91e63" ry="2.53" transform="scale(-.99796 1.00203) rotate(45)"/>
        <rect width="5.64" height="23.02" x="69.91" y="227.82" fill="#fbd5e2" ry="2.82" transform="rotate(-45)"/>
      </g>
    </g>
    <g fill="#fca" transform="translate(.96 .41)">
      <rect width="16.67" height="30.3" x="135.03" y="57.55" ry="8.34" transform="rotate(40.56)"/>
      <rect width="16.67" height="30.3" x="119.87" y="-114.42" ry="8.34" transform="rotate(100.56)"/>
    </g>
    <rect width="16.21" height="19.26" x="168.46" y="92.63" fill="#ffb17d" ry="8.1" transform="rotate(45)"/>
    <rect width="16.21" height="23.96" x="157.89" y="91.69" fill="#ffbf94" ry="8.1" transform="rotate(45)"/>
    <rect width="16.21" height="32.41" x="145.91" y="91.93" fill="#ffc49d" ry="7.41" transform="rotate(45)"/>
    <rect width="16.21" height="31.94" x="133.93" y="87.93" fill="#fca" ry="8.1" transform="rotate(45)"/>
    <g fill="#fca" transform="translate(.96 .41)">
      <rect width="16.67" height="30.3" x="135.03" y="57.55" ry="8.34" transform="rotate(40.56)"/>
      <rect width="16.67" height="30.3" x="119.87" y="-114.42" ry="8.34" transform="rotate(100.56)"/>
    </g>
    <rect width="16.21" height="31.94" x="131.15" y="90.72" fill="#fca" ry="8.1" transform="rotate(45)"/>
    <rect width="16.21" height="31.94" x="133.93" y="87.93" fill="#fca" ry="8.1" transform="rotate(45)"/>
    <rect width="16.21" height="31.94" x="131.15" y="90.72" fill="#fca" ry="8.1" transform="rotate(45)"/>
  </g>
</svg>
