<svg xmlns="http://www.w3.org/2000/svg" viewBox="0 0 87.31 87.31">
  <g transform="translate(-461.37 888.56)">
    <circle cx="505.02" cy="-829.24" r="26.51" fill="#bdbdbd"/>
    <path fill="#008738" d="M498.57-871.52l15.62 15.05h-17.77l-15.62-15.05z"/>
    <path fill="#bdbdbd" d="M517.63-848.44h-25.22v-11.04h25.22v11.04zm-22.35-2.87h19.49v-5.3h-19.5z"/>
    <path fill="#00c853" d="M512.04-871.52l-15.62 15.05h17.77l15.77-15.05z"/>
    <path fill="#9e9e9e" d="M505.02-809.18a20.12 20.12 0 0 1-20.06-20.06 20.12 20.12 0 0 1 20.06-20.06 20.12 20.12 0 0 1 20.07 20.06 20.12 20.12 0 0 1-20.07 20.06z"/>
    <path fill="#fff" stroke="#5b5b5b" stroke-width=".41" d="M509.54-828.08q-5.8.8-4.8 3.87l8.48-.63 1.9 9.23-20.2-2.09q-.25-13.85 5.66-14.13 5.92-.27 5.4-2.1-.51-1.84-7.57-1.68l1.35-7.26q14.24 1.17 14.92 7.57t-5.14 7.22z" aria-label="2" style="font-feature-settings:normal;font-variant-caps:normal;font-variant-ligatures:normal;font-variant-numeric:normal"/>
    <path fill="#888" d="M505.02-849.3c-.42 0-.84.01-1.26.04a20.13 20.13 0 0 1 18.81 20.02 20.13 20.13 0 0 1-18.8 20.02 20.12 20.12 0 0 0 21.32-20.02 20.12 20.12 0 0 0-20.07-20.06z"/>
    <path fill="#b1b1b1" d="M505.02-855.75a26.51 26.51 0 0 0-26.51 26.51 26.51 26.51 0 0 0 26.51 26.51 26.51 26.51 0 0 0 1.47-.05 26.51 26.51 0 0 1-25.47-26.46 26.51 26.51 0 0 1 25.04-26.46 26.51 26.51 0 0 0-1.04-.05z"/>
    <path fill="none" stroke="#efefef" stroke-linecap="round" stroke-linejoin="round" stroke-width="2.06" d="M517.68-848.52s9 3.84 10.32 15.75" opacity=".8"/>
    <g>
      <path fill="#888" d="M505.02-849.3c-.42 0-.84.01-1.26.04a20.13 20.13 0 0 1 18.81 20.02 20.13 20.13 0 0 1-18.8 20.02 20.12 20.12 0 0 0 21.32-20.02 20.12 20.12 0 0 0-20.07-20.06z"/>
      <path fill="#b1b1b1" d="M505.02-855.75a26.51 26.51 0 0 0-26.51 26.51 26.51 26.51 0 0 0 26.51 26.51 26.51 26.51 0 0 0 1.47-.05 26.51 26.51 0 0 1-25.47-26.46 26.51 26.51 0 0 1 25.04-26.46 26.51 26.51 0 0 0-1.04-.05z"/>
      <path fill="none" stroke="#efefef" stroke-linecap="round" stroke-linejoin="round" stroke-width="2.0579685999999997" d="M517.68-848.52s9 3.84 10.32 15.75" opacity=".8"/>
    </g>
    <rect width="11.68" height="2.43" x="512.59" y="-869.91" fill="#d0ffe4" opacity=".81" ry="1.22"/>
  </g>
</svg>
