<svg xmlns="http://www.w3.org/2000/svg" viewBox="0 0 87.31 87.31">
  <g transform="translate(-687.18 888.56)">
    <path fill="#008738" d="M706.63-871.5h17.76l15.62 15.04h-17.77z"/>
    <path fill="#f9a825" d="M743.45-848.44h-25.22v-11.03h25.22v11.03zm-22.35-2.87h19.48v-5.3H721.1z"/>
    <path fill="#00c853" d="M755.77-871.5h-17.91l-15.62 15.04h17.77z"/>
    <circle cx="730.84" cy="-829.24" r="26.5" fill="#f9a825"/>
    <path fill="#dc8a06" d="M730.84-809.19a20.12 20.12 0 0 1-20.06-20.05c0-11.03 9.03-20.06 20.06-20.06s20.06 9.03 20.06 20.06a20.12 20.12 0 0 1-20.06 20.05z"/>
    <path fill="#fff" stroke="#9a6104" stroke-width=".41" d="M735.25-829.64q5.22.52 4.23 5.99-.96 5.46-16.07 6.84l-1.37-8.17q9.93.25 9.93-1.3t-3.9-.87l-1.09-5.72q5-.04 4.94-1.98-.05-1.93-8.83.2l.95-6.89q14.05-.93 15.23 4.52 1.2 5.43-4.02 7.38z" aria-label="3" style="font-feature-settings:normal;font-variant-caps:normal;font-variant-ligatures:normal;font-variant-numeric:normal"/>
    <path fill="#c37a05" d="M730.84-849.3c-.42 0-.84.02-1.26.04 10.45.66 18.8 9.4 18.8 20.02 0 10.6-8.35 19.36-18.8 20.01a20.12 20.12 0 0 0 21.31-20.02 20.12 20.12 0 0 0-20.05-20.05z"/>
    <path fill="#f59a07" d="M730.84-855.75a26.5 26.5 0 0 0-26.5 26.5 26.5 26.5 0 0 0 26.5 26.5 26.5 26.5 0 0 0 1.47-.04 26.5 26.5 0 0 1-25.46-26.45 26.5 26.5 0 0 1 25.03-26.45 26.5 26.5 0 0 0-1.04-.06z"/>
    <path fill="none" stroke="#fef0d8" stroke-linecap="round" stroke-linejoin="round" stroke-width="2.06" d="M743.49-848.52s9 3.84 10.32 15.75" opacity=".8"/>
    <rect width="11.67" height="2.43" x="738.76" y="-870.05" fill="#d0ffe4" opacity=".81" ry="1.22"/>
  </g>
</svg>
