<svg xmlns="http://www.w3.org/2000/svg" viewBox="0 0 64.88 64.88">
  <g transform="translate(1.23 -.33)">
    <rect width="26.97" height="28.4" x="17.72" y="36.63" fill="#00c853" ry="4.49"/>
    <path d="M19.6 37.47a4.47 4.47 0 0 0-1.88 3.64v7.75H44.7v-7.75c0-1.5-.74-2.83-1.87-3.64z"/>
    <rect width="40.04" height="57.83" x=".33" y="-60.13" fill="#e91e63" ry="20.02" transform="rotate(90)"/>
    <path fill="#ce1453" d="M2.45 17.92a19.98 19.98 0 0 0 19.87 22.45H40.1a19.98 19.98 0 0 0 19.86-22.45A19.97 19.97 0 0 1 40.11 35.5H22.3A19.97 19.97 0 0 1 2.46 17.9z" opacity=".44"/>
    <path fill="#b7144b" d="M2.4 22.39c.22 2.25.83 4.4 1.73 6.36.45.1.92.16 1.4.16H56.9c.47 0 .94-.06 1.39-.16.9-1.97 1.5-4.1 1.73-6.36a6 6 0 0 1-4.6 2.15H7a6 6 0 0 1-4.61-2.15z"/>
  </g>
  <g transform="translate(33.3 -.54) scale(1.45712)">
    <g transform="translate(-.76 1.3)">
      <circle cx="-1.91" cy="9.55" r="1.82"/>
      <circle cx="2.25" cy="9.55" r="1.82"/>
    </g>
    <g fill="#fff">
      <rect width="41.47" height="9.84" x="-21.32" y="7.15" opacity=".5" ry="4.92"/>
      <path d="M-13.88 7.15l-5.21 9.04c.64.42 1.4.7 2.2.77l5.67-9.8zM-10.32 7.15L-16 17h6.67l5.68-9.84z" opacity=".69"/>
    </g>
    <rect width="41.47" height="9.84" x="-21.32" y="7.15" fill="none" stroke="#2196f3" stroke-linecap="round" stroke-linejoin="round" stroke-width="2.65" ry="4.13"/>
  </g>
  <path fill="none" stroke="#c8e5fc" stroke-linecap="round" stroke-linejoin="round" stroke-width="1.93" d="M41.86 9.96h15.42"/>
  <path d="M18.95 57.86v7.02h26.98v-7.02z"/>
</svg>
