<svg xmlns="http://www.w3.org/2000/svg" viewBox="0 0 64.88 64.88">
  <g transform="matrix(1.38846 0 0 1.38846 -68.48 1.88)">
    <rect width="27.48" height="44.66" x="58.95" y=".37" fill="#00c853" ry="12.75"/>
    <g fill="#df5" transform="translate(-.1 8.76)">
      <circle cx="62.3" cy="15.77" r="2.62" opacity=".77"/>
      <circle cx="67.33" cy="14.19" r="1.72" opacity=".77"/>
      <circle cx="63.54" cy="20.18" r=".96" opacity=".77"/>
      <circle cx="67.05" cy="18.73" r="1.72" opacity=".77"/>
    </g>
    <g fill="#df5" transform="scale(-1)">
      <circle cx="-82.24" cy="-36.88" r="2.62" opacity=".77"/>
      <circle cx="-77.21" cy="-38.46" r="1.72" opacity=".77"/>
      <circle cx="-81" cy="-32.47" r=".96" opacity=".77"/>
      <circle cx="-77.49" cy="-33.92" r="1.72" opacity=".77"/>
    </g>
    <ellipse cx="61.74" cy="5.6" fill="#b7144b" rx="7.51" ry="6.62"/>
    <ellipse cx="61.74" cy="5.6" fill="#820e35" rx="4.69" ry="4.13"/>
    <ellipse cx="61.74" cy="5.6" fill="#fff" rx="3.49" ry="3.08"/>
    <ellipse cx="63.33" cy="5.6" rx="1.4" ry="1.24"/>
    <ellipse cx="-83.63" cy="5.6" fill="#b7144b" rx="7.51" ry="6.62" transform="scale(-1 1)"/>
    <ellipse cx="-83.63" cy="5.6" fill="#820e35" rx="4.69" ry="4.13" transform="scale(-1 1)"/>
    <ellipse cx="-83.63" cy="5.6" fill="#fff" rx="3.49" ry="3.08" transform="scale(-1 1)"/>
    <ellipse cx="-82.04" cy="5.6" rx="1.4" ry="1.24" transform="scale(-1 1)"/>
    <path d="M63.7 12.53a9 9 0 0 0-.02.35 9 9 0 0 0 9 9 9 9 0 0 0 9-9 9 9 0 0 0 0-.35z"/>
    <path fill="#e91e63" d="M72.68 15.91A9 9 0 0 0 66 18.9a9 9 0 0 0 6.68 2.98 9 9 0 0 0 6.69-2.98 9 9 0 0 0-6.69-2.99z"/>
    <g fill="#df5" transform="rotate(-67.33)">
      <circle cx="23.89" cy="69.05" r="1.2" opacity=".77"/>
      <circle cx="26.2" cy="68.32" r=".79" opacity=".77"/>
      <circle cx="26.07" cy="70.41" r=".79" opacity=".77"/>
    </g>
    <g>
      <path fill="#00893a" d="M69.19 6.42a7.51 6.62 0 0 1-7.45 5.8 7.51 6.62 0 0 1-2.72-.47 13 13 0 0 0-.07 1.37v.25a7.51 6.62 0 0 0 2.79.47 7.51 6.62 0 0 0 1.98-.24 9 9 0 0 1-.04-.72 9 9 0 0 1 .02-.35h2.52a7.51 6.62 0 0 0 3.03-5.3 7.51 6.62 0 0 0-.06-.81zM76.18 6.42a7.51 6.62 0 0 0-.06.8 7.51 6.62 0 0 0 3.03 5.31h2.53a9 9 0 0 1 0 .35 9 9 0 0 1-.03.73 7.51 6.62 0 0 0 1.98.23 7.51 6.62 0 0 0 2.8-.48v-.24a13 13 0 0 0-.08-1.37 7.51 6.62 0 0 1-2.72.46 7.51 6.62 0 0 1-7.45-5.79z" opacity=".64"/>
      <path fill="#00a043" d="M58.95 29.62v2.67c0 7.06 5.68 12.75 12.74 12.75h1.99c7.06 0 12.74-5.69 12.74-12.75v-2.67c0 7.07-5.68 12.75-12.74 12.75h-1.99a12.72 12.72 0 0 1-12.74-12.75z" opacity=".62"/>
    </g>
    <path fill="none" stroke="#f6a4c0" stroke-linecap="round" stroke-linejoin="round" stroke-width="1.32" d="M73.42 17.23s2.28-.22 3.38 1.91"/>
    <path fill="#6b0c2c" d="M83.63 1.47a4.69 4.13 0 0 0-4.69 4.13 4.69 4.13 0 0 0 4.69 4.13 4.69 4.13 0 0 0 .12 0 4.69 4.13 0 0 1-4.51-4.13 4.69 4.13 0 0 1 4.56-4.13 4.69 4.13 0 0 0-.17 0zM61.74 1.47a4.69 4.13 0 0 1 4.69 4.13 4.69 4.13 0 0 1-4.7 4.13 4.69 4.13 0 0 1-.11 0 4.69 4.13 0 0 0 4.51-4.13 4.69 4.13 0 0 0-4.56-4.13 4.69 4.13 0 0 1 .17 0z"/>
    <path fill="none" stroke="#f6adc6" stroke-linecap="round" stroke-linejoin="round" stroke-width="1.32" d="M84.03.24s4.37-.1 5.46 4.51M61.26.24s-4.37-.1-5.46 4.51"/>
  </g>
</svg>
