<svg xmlns="http://www.w3.org/2000/svg" viewBox="0 0 64.88 65.56">
  <g transform="matrix(.914 0 0 .914 -244.15 -28.16)">
    <g fill="#2196f3">
      <rect width="39.69" height="39.69" x="282.77" y="62.85" ry="6.27"/>
      <rect width="14.13" height="39.39" x="286.65" y="30.81" ry="7.06"/>
      <rect width="14.13" height="39.39" x="304.45" y="30.81" ry="7.06"/>
    </g>
    <rect width="7.81" height="28.81" x="307.61" y="36.17" fill="#a7d5fa" ry="4.23"/>
    <rect width="7.81" height="28.81" x="289.81" y="36.17" fill="#a7d5fa" ry="4.23"/>
    <g transform="translate(2.94)">
      <circle cx="294.43" cy="75.64" r="5.02" fill="#a7d5fa"/>
      <circle cx="295.87" cy="75.64" r="2.87" fill="#fff"/>
      <circle cx="296.87" cy="75.64" r="1.15"/>
      <g transform="matrix(-1 0 0 1 599.35 0)">
        <circle cx="294.43" cy="75.64" r="5.02" fill="#a7d5fa"/>
        <circle cx="295.87" cy="75.64" r="2.87" fill="#fff"/>
        <circle cx="296.87" cy="75.64" r="1.15"/>
      </g>
    </g>
    <path d="M293.63 81.94a9 7.84 0 0 0-.02.3 9 7.84 0 0 0 9 7.84 9 7.84 0 0 0 9-7.84 9 7.84 0 0 0 0-.3z"/>
    <path fill="#e91e63" d="M302.61 84.89a9 7.84 0 0 0-6.68 2.6 9 7.84 0 0 0 6.68 2.6 9 7.84 0 0 0 6.69-2.6 9 7.84 0 0 0-6.69-2.6z"/>
    <rect width="43.77" height="12.92" x="280.73" y="68.68" fill="#9c27b0" opacity=".57" ry="1.65"/>
    <path fill="#fff" d="M296.26 68.68L288.8 81.6h9.44l7.38-12.77.07-.15zM290.9 68.68l-7 12.12c-.15.26-.22.53-.23.8h3.74l7.45-12.92z" opacity=".32"/>
    <rect width="47.48" height="4.37" x="278.87" y="66.27" fill="#9c27b0" ry="1.65"/>
    <rect width="15.02" height="1.37" x="310" y="67.15" fill="#da90e6" ry=".68"/>
    <path fill="none" stroke="#e2f1fd" stroke-linecap="round" stroke-linejoin="round" stroke-width="2.12" d="M293.4 33s4.73-.52 5.47 4.74M311.26 33s4.73-.52 5.47 4.74"/>
    <g>
      <path fill="#0b79d0" d="M282.77 81.59v2.76h11.18a9 7.84 0 0 1-.34-2.1 9 7.84 0 0 1 .02-.31h17.98a9 7.84 0 0 1 0 .3 9 7.84 0 0 1-.32 2.11h11.17v-2.76z" opacity=".57"/>
      <path fill="#106eb8" d="M289.48 87.24a1.65 1.65 0 0 1-1.58 1.15h-5.21v1h5.21a1.65 1.65 0 0 0 1.58-2.15zM289.48 91.26a1.65 1.65 0 0 1-1.58 1.15h-5.13v1h5.13a1.65 1.65 0 0 0 1.58-2.15z"/>
      <rect width="8.61" height="3.3" x="280.94" y="85.25" fill="#042947" ry="1.65"/>
      <rect width="8.61" height="3.3" x="280.94" y="89.27" fill="#042947" ry="1.65"/>
      <path fill="#106eb8" d="M315.67 87.24c.2.67.83 1.15 1.57 1.15h5.22v1h-5.22a1.65 1.65 0 0 1-1.57-2.15zM315.75 91.26c.21.67.84 1.15 1.58 1.15h5.13v1h-5.13a1.65 1.65 0 0 1-1.58-2.15z"/>
    </g>
    <g fill="#042947" transform="translate(-.25)">
      <rect width="8.61" height="3.3" x="315.82" y="85.25" ry="1.65"/>
      <rect width="8.61" height="3.3" x="315.82" y="89.27" ry="1.65"/>
    </g>
    <path fill="none" stroke="#f6a8c3" stroke-linecap="round" stroke-linejoin="round" stroke-width="1.32" d="M303.22 86.18s2.02-.1 3.53 1.51"/>
    <g>
      <path fill="#1485df" d="M282.77 93.58v2.69c0 3.47 2.8 6.27 6.27 6.27h27.15c3.47 0 6.27-2.8 6.27-6.27v-2.7c0 3.48-2.8 6.28-6.27 6.28h-27.15a6.26 6.26 0 0 1-6.27-6.27z" opacity=".8"/>
      <path fill="#8cc8f8" d="M293.71 36.17c-2.16 0-3.9 1.88-3.9 4.22v20.36c0 2.34 1.74 4.23 3.9 4.23.23 0 .45-.03.66-.06a4.13 4.13 0 0 1-3.25-4.17V40.4c0-2.1 1.4-3.82 3.25-4.16a3.65 3.65 0 0 0-.66-.06zM311.51 36.17c-2.16 0-3.9 1.88-3.9 4.22v20.36c0 2.34 1.74 4.23 3.9 4.23.23 0 .45-.03.66-.06a4.13 4.13 0 0 1-3.24-4.17V40.4c0-2.1 1.4-3.82 3.24-4.16a3.65 3.65 0 0 0-.66-.06z"/>
    </g>
  </g>
</svg>
