<svg xmlns="http://www.w3.org/2000/svg" viewBox="0 0 64.88 65.44">
  <g transform="matrix(1.23237 0 0 1.23237 -421.53 -60.92)">
    <g fill="#fc0">
      <rect width="39.69" height="39.69" x="348.53" y="62.85" ry="6.27"/>
      <circle cx="358.9" cy="58.24" r="8.81"/>
      <circle cx="377.85" cy="58.24" r="8.81"/>
    </g>
    <circle cx="377.85" cy="58.24" r="4.49" fill="#f55"/>
    <circle cx="358.9" cy="58.24" r="4.49" fill="#f55"/>
    <rect width="30.57" height="9.64" x="353.09" y="68.05" fill="#f55" ry="4.82"/>
    <circle cx="364.86" cy="72.86" r="3.18" fill="#fff"/>
    <circle cx="365.38" cy="72.86" r="1.66"/>
    <circle cx="371.89" cy="72.86" r="3.18" fill="#fff"/>
    <circle cx="371.39" cy="72.86" r="1.66"/>
    <path d="M378 81.8h-19.25v1.02a9.6 9.6 0 0 0 9.62 9.62 9.6 9.6 0 0 0 9.62-9.62z"/>
    <path fill="#fff" d="M361.63 81.8v1.03c0 1 .8 1.8 1.8 1.8h9.89c1 0 1.8-.8 1.8-1.8V81.8z"/>
    <path fill="#f55" d="M368.37 86.74c-2.84 0-5.44.8-7.48 2.13a9.59 9.59 0 0 0 7.48 3.57 9.59 9.59 0 0 0 7.49-3.57 13.7 13.7 0 0 0-7.49-2.13z"/>
    <path fill="#ff3e3e" d="M377.85 62.73a4.49 4.49 0 0 1-4.5-4.49 4.49 4.49 0 0 1 .04-.47 4.49 4.49 0 0 0 4.46 3.99 4.49 4.49 0 0 0 4.45-4.01 4.49 4.49 0 0 1 .03.5 4.49 4.49 0 0 1-4.48 4.48zM358.9 62.73a4.49 4.49 0 0 1-4.48-4.49 4.49 4.49 0 0 1 .03-.47 4.49 4.49 0 0 0 4.45 3.99 4.49 4.49 0 0 0 4.46-4.01 4.49 4.49 0 0 1 .03.5 4.49 4.49 0 0 1-4.49 4.48z"/>
    <path fill="none" stroke="#fff6d3" stroke-linecap="round" stroke-linejoin="round" stroke-width="2.12" d="M359.87 51.68s4.12.16 5.25 4.76M378.93 51.68s4.12.16 5.25 4.76" opacity=".8"/>
    <path fill="#ddb100" d="M353.15 73.43a4.8 4.8 0 0 0 4.76 5.55h20.93a4.8 4.8 0 0 0 4.76-5.55 4.8 4.8 0 0 1-4.76 4.1h-20.93a4.8 4.8 0 0 1-4.76-4.1z"/>
    <path fill="#ff3e3e" d="M353.11 72.38l-.02.48a4.8 4.8 0 0 0 4.82 4.82h20.93a4.8 4.8 0 0 0 4.8-5.3 4.8 4.8 0 0 1-4.8 4.33h-20.93a4.8 4.8 0 0 1-4.8-4.33z"/>
    <g fill="#ddb100">
      <path d="M362.19 78.98c.77.96 1.93 2.08 2.93 2.83h1.62c-1-.75-2.16-1.87-2.94-2.83zM380.03 81.03a1.24 1.24 0 0 0 1.14 1.72h7.05v-.97h-7.05c-.51 0-.95-.3-1.14-.75zM380.03 84.26a1.24 1.24 0 0 0 1.14 1.72h7.05v-.97h-7.05c-.51 0-.95-.3-1.14-.75zM356.72 81.03c-.19.44-.63.75-1.14.75h-7.05v.97h7.05a1.23 1.23 0 0 0 1.14-1.72zM356.72 84.26c-.19.45-.63.75-1.14.75h-7.05v.97h7.05a1.23 1.23 0 0 0 1.14-1.72z"/>
    </g>
    <rect width="12.88" height="2.47" x="379.93" y="79.31" ry="1.24"/>
    <rect width="12.88" height="2.47" x="379.93" y="82.54" ry="1.24"/>
    <g transform="matrix(.89138 0 0 1 39.4 0)">
      <rect width="14.45" height="2.47" x="341.65" y="79.31" ry="1.24"/>
      <rect width="14.45" height="2.47" x="341.65" y="82.54" ry="1.24"/>
    </g>
    <g>
      <path fill="#ccc" d="M361.63 81.8v1.21h13.48l.01-.18V81.8z" opacity=".8"/>
      <path d="M368.37 82.64c-1.4 0-6.08-4.72-5.38-5.42.7-.7 10.07-.7 10.76 0 .7.7-3.98 5.42-5.38 5.42z"/>
      <rect width="6.46" height="1.05" x="365.14" y="77.44" fill="#666" opacity=".8" ry=".53"/>
      <path fill="#ddb100" d="M348.53 92.57v3.7c0 3.47 2.8 6.27 6.27 6.27h27.15c3.47 0 6.27-2.8 6.27-6.27v-3.7c0 3.48-2.8 6.28-6.27 6.28H354.8a6.26 6.26 0 0 1-6.27-6.28z" opacity=".37"/>
    </g>
    <g fill="#666">
      <rect width="4.74" height=".7" x="387.32" y="79.74" ry=".35"/>
      <rect width="3.02" height=".7" x="389.04" y="82.96" ry=".35"/>
      <rect width="4.74" height=".7" x="-349.55" y="79.74" ry=".35" transform="scale(-1 1)"/>
      <rect width="3.02" height=".7" x="-347.83" y="82.96" ry=".35" transform="scale(-1 1)"/>
    </g>
    <path fill="#ff3e3e" d="M368.37 75.95c-2.51 0-5.03.18-5.38.53-.12.12-.07.37.08.68 1.1-.63 9.5-.63 10.6 0 .16-.31.2-.56.08-.68-.35-.35-2.86-.53-5.38-.53z"/>
    <path fill="none" stroke="#ffc7c7" stroke-linecap="round" stroke-linejoin="round" stroke-width="1.32" d="M369.13 87.94s2.26-.22 4.05 1.3"/>
  </g>
</svg>
