<svg xmlns="http://www.w3.org/2000/svg" viewBox="0 0 64.88 64.95">
  <g transform="translate(-144.7 -74.16)">
    <circle cx="176.95" cy="111.9" r="27.22" fill="#f60"/>
    <g transform="matrix(1.3716 0 0 1.3716 -642.98 23.93)">
      <rect width="2.47" height="4.85" x="595.02" y="55.45" ry="1.12"/>
      <rect width="2.47" height="4.85" x="598.09" y="55.45" ry="1.12"/>
    </g>
    <path fill="#d95700" d="M204.08 109.77a27.22 27.22 0 0 1-27.13 25.37 27.22 27.22 0 0 1-27.12-25.1 27.22 27.22 0 0 0-.1 1.86 27.22 27.22 0 0 0 27.22 27.21 27.22 27.22 0 0 0 27.22-27.21 27.22 27.22 0 0 0-.1-2.13z" opacity=".46"/>
    <path fill="#f60" d="M162.57 76.7c2.2 1.77 6 20.35 4.35 21.35-1.64 1-16.42-10.88-16.98-13.65-.57-2.78 10.42-9.48 12.63-7.7z"/>
    <path fill="#7fff2a" d="M160.56 81.54c-1.73.07-5.78 2.7-5.54 3.88.17.83 2.98 3.36 5.3 5.05a27.22 27.22 0 0 1 2.86-1.94c-.45-2.8-1.38-6.32-2.03-6.85-.14-.1-.34-.15-.59-.14z"/>
    <path fill="#55d600" d="M160.56 81.54c-1.73.07-5.78 2.7-5.54 3.88.17.83 2.98 3.36 5.3 5.05a27.22 27.22 0 0 1 .6-.42c-2.18-1.67-4.58-3.86-4.73-4.63-.22-1.05 2.98-3.26 4.9-3.77a.93.93 0 0 0-.53-.1z"/>
    <path fill="#f60" d="M191.34 76.7c-2.21 1.77-6 20.35-4.36 21.35 1.64 1 16.42-10.88 16.99-13.65.56-2.78-10.42-9.48-12.63-7.7z"/>
    <path fill="#7fff2a" d="M193.34 81.54c1.73.07 5.79 2.7 5.54 3.88-.17.83-2.98 3.36-5.29 5.05a27.22 27.22 0 0 0-2.87-1.94c.46-2.8 1.39-6.32 2.04-6.85.13-.1.33-.15.58-.14z"/>
    <path fill="#55d600" d="M193.34 81.54c1.73.07 5.79 2.7 5.54 3.88-.17.83-2.98 3.36-5.29 5.05a27.22 27.22 0 0 0-.6-.42c2.18-1.67 4.57-3.86 4.73-4.63.21-1.05-2.99-3.26-4.91-3.77a.93.93 0 0 1 .53-.1z"/>
    <path fill="#7fff2a" d="M176.95 84.25a28.88 28.88 0 0 0-10.15 1.9 3.9 7.91 58.31 0 1-4.37 4.3 3.9 7.91 58.31 0 1-5.49 1.97 28.88 28.88 0 0 0-5.17 6.7h50.4a28.88 28.88 0 0 0-5.26-6.82 7.91 3.9 33.71 0 1-5.42-2.16 7.91 3.9 33.71 0 1-3.85-3.8 28.88 28.88 0 0 0-10.69-2.09z"/>
    <path fill="#dd5800" d="M156.48 106.95v2.41c0 .78.62 1.4 1.4 1.4h5.75a13.38 14.31 0 0 1-.05-1.26 13.38 14.31 0 0 1 .01-.4h26.73a13.38 14.31 0 0 1 0 .4 13.38 14.31 0 0 1-.05 1.26h5.91c.78 0 1.4-.62 1.4-1.4v-2.41c0 .78-.62 1.4-1.4 1.4h-38.3a1.4 1.4 0 0 1-1.4-1.4z" opacity=".58"/>
    <path fill="#7fff2a" d="M161.97 74.16c-4.3.16-14.37 6.71-13.77 9.64.31 1.54 4.25 5.38 8.6 8.98l.34-.36c1.67-.13 3.65-.84 5.48-1.97a12.5 12.5 0 0 0 4.37-4.3l.43-.14c-1.2-5.42-2.8-10.53-4-11.5-.33-.26-.83-.37-1.45-.35zM192.32 74.16c4.31.16 14.38 6.71 13.78 9.64-.31 1.54-4.25 5.38-8.6 8.98l-.34-.36a12.88 12.88 0 0 1-5.48-1.97 12.5 12.5 0 0 1-4.37-4.3l-.43-.14c1.2-5.42 2.8-10.53 4-11.5.33-.26.83-.37 1.44-.35z" opacity=".37"/>
    <path fill="none" stroke="#51cb00" stroke-linecap="round" stroke-linejoin="round" stroke-width="1.45" d="M197.34 92.62s-6.85-.67-9.94-6.37"/>
    <path fill="#e2ffce" d="M161.97 74.16c-1.55.06-3.85.96-6.13 2.2-1.23 3.8-2.28 8.9-1.6 14.23.83.73 1.68 1.47 2.55 2.2l.35-.37c.98-.08 2.08-.36 3.18-.8-.65-4.57-.77-11.35 2.53-17.37-.25-.07-.55-.1-.88-.09z" opacity=".45"/>
    <path fill="none" stroke="#51cb00" stroke-linecap="round" stroke-linejoin="round" stroke-width="1.45" d="M156.96 92.62s6.85-.67 9.94-6.37"/>
    <path fill="#e2ffce" d="M195.15 74.83c2.99 5.87 2.86 12.37 2.22 16.78.36.15.72.27 1.07.38a69.74 69.74 0 0 0 5.22-4.83c0-2.9-.43-5.64-1.02-8.05a29.63 29.63 0 0 0-7.5-4.28z" opacity=".45"/>
    <path d="M163.6 109.1a13.38 14.31 0 0 0-.02.4 13.38 14.31 0 0 0 13.37 14.31 13.38 14.31 0 0 0 13.38-14.3 13.38 14.31 0 0 0-.02-.42z"/>
    <g>
      <path fill="#fff" d="M175.51 109.1v4.65c0 .85.68 1.53 1.53 1.53h6.64c.84 0 1.53-.68 1.53-1.53v-4.66z"/>
      <path fill="#ccc" d="M175.51 109.1v2.21h9.7v-2.22z"/>
    </g>
    <path fill="#e91e63" d="M176.95 117.72a13.38 14.31 0 0 0-8.24 3.04 13.38 14.31 0 0 0 8.24 3.05 13.38 14.31 0 0 0 8.23-3.05 13.38 14.31 0 0 0-8.23-3.04z"/>
    <path fill="none" stroke="#f59bba" stroke-linecap="round" stroke-linejoin="round" stroke-width="1.32" d="M176.34 119.31s3.53-.2 5.4 1.77"/>
    <g>
      <path fill="#c44e00" d="M152.76 99.47a27.22 27.22 0 0 0-.57 1.18h4.29v-1.18zm44.82 0v1.18h4.12a27.22 27.22 0 0 0-.54-1.18z" opacity=".48"/>
      <rect width="41.1" height="10.32" x="156.48" y="98.03" fill="#7fff2a" opacity=".39" ry="1.4"/>
      <path fill="#d4ffb7" d="M168.76 98.03l-5.96 10.32h9.36l5.96-10.32zM163.53 98.03l-5.95 10.29.3.03h3.47l5.96-10.32z" opacity=".39"/>
      <rect width="53.06" height="3.28" x="150.5" y="96.19" fill="#51cb00" ry="1.4"/>
      <rect width="13.67" height="1.06" x="188.65" y="96.86" fill="#adff76" ry=".53"/>
    </g>
  </g>
</svg>
