<svg xmlns="http://www.w3.org/2000/svg" viewBox="0 0 64.88 64.88">
  <g transform="matrix(1.0323 0 0 1.0323 -251.09 -45.7)">
    <g fill="#c1134e" transform="matrix(.625 0 0 -.625 79.87 93.03)">
      <rect width="2.46" height="6.56" x="310.43" y="63.56" ry="1.11"/>
      <rect width="2.46" height="6.56" x="65.61" y="-314.95" ry="1.11" transform="rotate(90)"/>
    </g>
    <path fill="#00c853" d="M268.43 56.49c.06 1.46-6.95 3.26-8.06 2.06s-1.48-10.98-.44-11.25 8.44 7.72 8.5 9.19z"/>
    <g fill="#fc0">
      <path d="M265.24 52l-5.34 5.35c.14.57.3 1.01.47 1.2.2.22.6.33 1.1.38l5.22-5.22a44.6 44.6 0 0 0-1.45-1.7zM262.63 49.28l-3.28 3.29c.04 1 .11 2 .22 2.92l4.62-4.63a45.2 45.2 0 0 0-1.56-1.58zM260.05 47.3h-.12c-.37.1-.56 1.4-.6 3.1l2.15-2.16a4.32 4.32 0 0 0-1.43-.94zM267.63 54.95l-3.78 3.78c2.21-.41 4.61-1.39 4.58-2.24a4.07 4.07 0 0 0-.8-1.54z"/>
    </g>
    <path fill="#00c853" d="M280.88 56.49c-.05 1.46 6.96 3.26 8.06 2.06s1.49-10.98.44-11.25-8.44 7.72-8.5 9.19z"/>
    <g fill="#fc0">
      <path d="M284.07 52l5.35 5.35c-.14.57-.3 1.01-.48 1.2-.2.22-.59.33-1.1.38l-5.21-5.22c.43-.55.93-1.13 1.44-1.7zM286.68 49.28l3.29 3.29c-.04 1-.12 2-.23 2.92l-4.62-4.63a45.2 45.2 0 0 1 1.56-1.58zM289.26 47.3h.12c.37.1.56 1.4.6 3.1l-2.15-2.16c.63-.53 1.15-.9 1.43-.94zM281.68 54.95l3.79 3.78c-2.22-.41-4.62-1.39-4.59-2.24.01-.3.32-.85.8-1.54z"/>
    </g>
    <rect width="39.69" height="53.83" x="254.81" y="52.95" fill="#e91e63" ry="17.33"/>
    <g transform="translate(-27.15 -7.4) scale(1.09836)">
      <rect width="2.74" height="5.48" x="271.68" y="65.59" ry="1.37"/>
      <rect width="2.74" height="5.48" x="275.13" y="65.59" ry="1.37"/>
    </g>
    <g fill="#e91e63" transform="translate(-.52)">
      <rect width="4.36" height="10.96" x="273" y="44.59" ry="2.18"/>
      <rect width="4.36" height="10.96" x="230.96" y="-165.8" ry="2.18" transform="rotate(45)"/>
      <rect width="4.36" height="10.96" x="-158.2" y="223.36" ry="2.18" transform="scale(-1 1) rotate(45)"/>
    </g>
    <path d="M261.51 73.72v2.92c0 6.36 5.12 11.48 11.48 11.48h3.33c6.36 0 11.48-5.12 11.48-11.48v-2.92z"/>
    <g fill="#fff">
      <path d="M267.96 79.55c-.47 0-2.06-4.78-1.82-5.5s3.4-.7 3.64 0-1.34 5.5-1.82 5.5z"/>
      <path d="M271.3 79.55c-.46 0-2.05-4.78-1.81-5.5s3.4-.7 3.64 0-1.35 5.5-1.82 5.5z"/>
      <path d="M274.66 79.55c-.48 0-2.06-4.78-1.82-5.5s3.4-.7 3.64 0-1.35 5.5-1.82 5.5z"/>
      <path d="M278 79.55c-.47 0-2.05-4.78-1.82-5.5s3.41-.7 3.65 0-1.35 5.5-1.83 5.5z"/>
      <path d="M281.35 79.55c-.47 0-2.06-4.78-1.82-5.5s3.4-.7 3.64 0-1.34 5.5-1.82 5.5z"/>
    </g>
    <path fill="#00c853" d="M273 81.94c-3.05 0-5.8 1.17-7.85 3.09a11.44 11.44 0 0 0 7.84 3.09h3.33c3.04 0 5.8-1.18 7.85-3.1a11.44 11.44 0 0 0-7.85-3.08z"/>
    <path fill="none" stroke="#8bffbb" stroke-linecap="round" stroke-linejoin="round" stroke-width="1.32" d="M275.4 83.3s4.36-.1 5.8 2.02"/>
    <g fill="#ccc">
      <path d="M267.96 73.52c-.85 0-1.7.18-1.82.54-.11.34.2 1.61.6 2.85h2.45c.4-1.24.7-2.51.6-2.85-.13-.36-.98-.54-1.83-.54z" opacity=".59"/>
      <path d="M271.31 73.52c-.85 0-1.7.18-1.82.54-.12.34.2 1.61.6 2.85h2.45c.4-1.24.7-2.51.6-2.85-.13-.36-.98-.54-1.83-.54z" opacity=".59"/>
      <path d="M274.66 73.52c-.85 0-1.7.18-1.82.54-.12.34.19 1.61.59 2.85h2.45c.4-1.24.71-2.51.6-2.85-.12-.36-.97-.54-1.82-.54z" opacity=".59"/>
      <path d="M278 73.52c-.85 0-1.7.18-1.82.54-.11.34.2 1.61.6 2.85h2.45c.4-1.24.71-2.51.6-2.85-.12-.36-.97-.54-1.83-.54z" opacity=".59"/>
      <path d="M281.35 73.52c-.85 0-1.7.18-1.82.54-.11.34.2 1.61.6 2.85h2.45c.4-1.24.7-2.51.6-2.85-.12-.36-.98-.54-1.83-.54z" opacity=".59"/>
    </g>
    <rect width="32" height="4.24" x="258.66" y="71.22" fill="#00c853" rx="1.64" ry="2.12"/>
    <g fill="#fc0">
      <path d="M271.69 71.22l-1.5 4.24h1.6l1.5-4.24zM274.62 71.22l-1.5 4.24h1.6l1.5-4.24zM277.56 71.22l-1.5 4.24h1.6l1.5-4.24zM280.5 71.22l-1.5 4.24h1.6l1.5-4.24zM283.44 71.22l-1.5 4.24h1.6l1.5-4.24zM286.37 71.22l-1.5 4.24h1.6l1.5-4.24zM268.75 71.22l-1.5 4.24h1.6l1.5-4.24zM265.81 71.22l-1.5 4.24h1.6l1.5-4.24zM262.88 71.22l-1.5 4.24h1.6l1.5-4.24z"/>
    </g>
    <g fill="#c1134e">
      <g transform="matrix(.625 0 0 .625 63.4 50.36)">
        <rect width="2.46" height="6.56" x="310.43" y="63.56" ry="1.11"/>
        <rect width="2.46" height="6.56" x="65.61" y="-314.95" ry="1.11" transform="rotate(90)"/>
      </g>
      <g transform="matrix(.625 0 0 .625 90.74 58.3)">
        <rect width="2.46" height="6.56" x="310.43" y="63.56" ry="1.11"/>
        <rect width="2.46" height="6.56" x="65.61" y="-314.95" ry="1.11" transform="rotate(90)"/>
      </g>
      <g transform="matrix(.625 0 0 .625 79.87 58.3)">
        <rect width="2.46" height="6.56" x="310.43" y="63.56" ry="1.11"/>
        <rect width="2.46" height="6.56" x="65.61" y="-314.95" ry="1.11" transform="rotate(90)"/>
      </g>
      <g transform="matrix(.625 0 0 .625 69 58.3)">
        <rect width="2.46" height="6.56" x="310.43" y="63.56" ry="1.11"/>
        <rect width="2.46" height="6.56" x="65.61" y="-314.95" ry="1.11" transform="rotate(90)"/>
      </g>
      <g transform="matrix(.625 0 0 .625 96.76 50.36)">
        <rect width="2.46" height="6.56" x="310.43" y="63.56" ry="1.11"/>
        <rect width="2.46" height="6.56" x="65.61" y="-314.95" ry="1.11" transform="rotate(90)"/>
      </g>
      <g transform="matrix(.625 0 0 .625 85.64 50.36)">
        <rect width="2.46" height="6.56" x="310.43" y="63.56" ry="1.11"/>
        <rect width="2.46" height="6.56" x="65.61" y="-314.95" ry="1.11" transform="rotate(90)"/>
      </g>
      <g transform="matrix(.625 0 0 .625 74.52 50.36)">
        <rect width="2.46" height="6.56" x="310.43" y="63.56" ry="1.11"/>
        <rect width="2.46" height="6.56" x="65.61" y="-314.95" ry="1.11" transform="rotate(90)"/>
      </g>
      <g transform="matrix(.625 0 0 .625 63.4 36.55)">
        <rect width="2.46" height="6.56" x="310.43" y="63.56" ry="1.11"/>
        <rect width="2.46" height="6.56" x="65.61" y="-314.95" ry="1.11" transform="rotate(90)"/>
      </g>
      <g transform="matrix(.625 0 0 .625 96.76 36.55)">
        <rect width="2.46" height="6.56" x="310.43" y="63.56" ry="1.11"/>
        <rect width="2.46" height="6.56" x="65.61" y="-314.95" ry="1.11" transform="rotate(90)"/>
      </g>
      <g transform="matrix(.625 0 0 .625 91.83 43.53)">
        <rect width="2.46" height="6.56" x="310.43" y="63.56" ry="1.11"/>
        <rect width="2.46" height="6.56" x="65.61" y="-314.95" ry="1.11" transform="rotate(90)"/>
      </g>
      <g transform="matrix(.625 0 0 .625 68.04 43.53)">
        <rect width="2.46" height="6.56" x="310.43" y="63.56" ry="1.11"/>
        <rect width="2.46" height="6.56" x="65.61" y="-314.95" ry="1.11" transform="rotate(90)"/>
      </g>
      <g transform="matrix(.625 0 0 -.625 63.4 109.16)">
        <rect width="2.46" height="6.56" x="310.43" y="63.56" ry="1.11"/>
        <rect width="2.46" height="6.56" x="65.61" y="-314.95" ry="1.11" transform="rotate(90)"/>
      </g>
      <g transform="matrix(.625 0 0 -.625 90.74 101.23)">
        <rect width="2.46" height="6.56" x="310.43" y="63.56" ry="1.11"/>
        <rect width="2.46" height="6.56" x="65.61" y="-314.95" ry="1.11" transform="rotate(90)"/>
      </g>
      <g transform="matrix(.625 0 0 -.625 79.87 101.23)">
        <rect width="2.46" height="6.56" x="310.43" y="63.56" ry="1.11"/>
        <rect width="2.46" height="6.56" x="65.61" y="-314.95" ry="1.11" transform="rotate(90)"/>
      </g>
      <g transform="matrix(.625 0 0 -.625 69 101.23)">
        <rect width="2.46" height="6.56" x="310.43" y="63.56" ry="1.11"/>
        <rect width="2.46" height="6.56" x="65.61" y="-314.95" ry="1.11" transform="rotate(90)"/>
      </g>
      <g transform="matrix(.625 0 0 -.625 96.76 109.16)">
        <rect width="2.46" height="6.56" x="310.43" y="63.56" ry="1.11"/>
        <rect width="2.46" height="6.56" x="65.61" y="-314.95" ry="1.11" transform="rotate(90)"/>
      </g>
      <g transform="matrix(.625 0 0 .625 86.18 25.61)">
        <rect width="2.46" height="6.56" x="310.43" y="63.56" ry="1.11"/>
        <rect width="2.46" height="6.56" x="65.61" y="-314.95" ry="1.11" transform="rotate(90)"/>
      </g>
      <g transform="matrix(.625 0 0 .625 73.56 25.61)">
        <rect width="2.46" height="6.56" x="310.43" y="63.56" ry="1.11"/>
        <rect width="2.46" height="6.56" x="65.61" y="-314.95" ry="1.11" transform="rotate(90)"/>
      </g>
      <path d="M254.81 85.07v4.38a17.3 17.3 0 0 0 17.34 17.33h5.02a17.3 17.3 0 0 0 17.33-17.33v-4.38a17.3 17.3 0 0 1-17.33 17.33h-5.02a17.3 17.3 0 0 1-17.34-17.33z" opacity=".51"/>
      <path d="M258.83 74.3c-.1.28-.17.6-.17.95 0 1.18.73 2.12 1.64 2.12h1.24l-.03-.73v-1.18h-1.21c-.64 0-1.2-.48-1.47-1.17zm31.65 0c-.27.68-.82 1.16-1.46 1.16h-1.22v1.18c0 .24-.01.49-.03.73h1.25c.9 0 1.64-.94 1.64-2.12 0-.34-.07-.67-.18-.96z" opacity=".8"/>
    </g>
    <rect width="13.62" height="1.19" x="275.98" y="71.86" fill="#d3ffe5" opacity=".59" rx=".7" ry="1.19"/>
    <rect width="1.19" height="2.89" x="274.85" y="45.5" fill="#f9c1d4" opacity=".85" rx=".6" ry="0"/>
    <path fill="none" stroke="#fff3c5" stroke-linecap="round" stroke-linejoin="round" stroke-width="1.32" d="M288.6 49.33s.43 2.45-.13 5.46M260.37 49.08s2 1.49 3.65 4.07" opacity=".67"/>
  </g>
  <path fill="none" stroke="#f9c8d9" stroke-linecap="round" stroke-linejoin="round" stroke-width="2.65" d="M37.4 12.82s9.9.7 10.66 11.03" opacity=".69"/>
</svg>
