<svg xmlns="http://www.w3.org/2000/svg" viewBox="0 0 270.93 135.47">
  <g transform="translate(-296.4 -300.11)">
    <path fill="#fff" stroke="#f57c00" stroke-linecap="round" stroke-linejoin="round" stroke-width="1.32" d="M512.61 360.7a5.18 5.18 0 0 0-5.14 5.24v8.59h21.6c2.9 0 5.23 2.33 5.23 5.22v36.52h26.8a5.18 5.18 0 0 0 5.14-5.25l-9.91-22.54 9.91-22.54c1.17-2.65-2.3-5.25-5.14-5.25z"/>
    <path fill="#f57c00" d="M512.19 360.59c-2.15-.1-4.7 3.24-4.7 5.7v8.24h23.79c-.5-.4-1.06-.87-1.69-1.44-3.47-3.15-16.27-12.06-16.27-12.06a1.92 1.92 0 0 0-1.13-.44z"/>
    <g>
      <path fill="#fff" stroke="#f57c00" stroke-linecap="round" stroke-linejoin="round" stroke-width="1.32" d="M302.65 360.7c-2.85 0-6.31 2.59-5.15 5.24l9.92 22.54-9.92 22.54c0 2.9 2.3 5.25 5.15 5.25h26.72v-36.52c0-2.9 2.33-5.22 5.22-5.22h21.69v-8.6c0-2.9-2.3-5.24-5.15-5.24z"/>
      <path fill="#f57c00" d="M351.56 360.59c-.4.02-.78.15-1.13.44 0 0-12.8 8.91-16.28 12.06-.62.57-1.18 1.03-1.69 1.44h23.79v-8.23c0-2.47-2.55-5.81-4.7-5.71z"/>
    </g>
    <rect width="204.93" height="55.37" x="329.37" y="374.53" fill="#fff" stroke="#f57c00" stroke-linecap="round" stroke-linejoin="round" stroke-width="1.32" ry="5.23"/>
  </g>
  <g fill="#f57c00" stroke-width=".22" font-family="Funhouse" font-size="21.17" font-weight="400" letter-spacing="0" word-spacing="0">
    <g aria-label="1-digit" style="line-height:1.25;-inkscape-font-specification:'Funhouse, Normal';font-variant-ligatures:normal;font-variant-caps:normal;font-variant-numeric:normal;font-feature-settings:normal;text-align:start">
      <path d="M105.85 97.76l-7.07-.3 1.18-9.77-2.43.98-.97-4.07 7.44-2.28zM116.44 87.9l-.8 5.23-9.42-.96-.48-3.57zM117.6 97.9l-.65-14.47q14.1 0 14.1 7.24 0 7.23-13.44 7.23zm3.69-10.63l.69 5q4.47.02 4.47-2.5 0-2.5-5.16-2.5zM136.38 83.52l1.05 13.94-5.85 1.1.27-14.68zM154.5 97.76l-5.88 1.49.1-1.64q-1.14.3-2.41.3-3.46 0-5.91-2.13-2.45-2.12-2.45-5.11 0-3 2.45-5.12t5.9-2.12q3.47 0 5.92 2.12 1.23 1.07 1.85 2.36l-4.96 1.25q-.25-.66-.87-1.2-1.05-.91-2.53-.91-1.48 0-2.53.9-1.06.92-1.06 2.2 0 1.28 1.06 2.2 1.05.9 2.53.9 1.48 0 2.53-.9.57-.5.88-1.1l4.7-.21zM159.82 83.52l1.05 13.94-5.85 1.1.27-14.68zM169.75 87.84l.5 8.8-5.6 1.45.96-10.52-4.22-.37.33-3.82 12.12-.72.45 5.65z" style="-inkscape-font-specification:'Funhouse, Normal';font-variant-ligatures:normal;font-variant-caps:normal;font-variant-numeric:normal;font-feature-settings:normal;text-align:start"/>
    </g>
    <g aria-label="long divisions" style="line-height:1.25;-inkscape-font-specification:'Funhouse, Normal';font-variant-ligatures:normal;font-variant-caps:normal;font-variant-numeric:normal;font-feature-settings:normal;text-align:start">
      <path d="M47.6 105.87l5.09.27L51 116.4l5.19-.8-1.15 5.5-8.17-.57zM65.14 120.54q-3.5 0-5.96-2.12-2.46-2.11-2.46-5.11 0-3 2.46-5.12 2.47-2.12 5.96-2.12 3.48 0 5.94 2.12 2.47 2.12 2.47 5.12t-2.47 5.11q-2.46 2.12-5.94 2.12zm-.58-4.51q1.49 0 2.54-.91 1.07-.91 1.07-2.2 0-1.28-1.07-2.19-1.05-.9-2.54-.9-1.5 0-2.56.9-1.06.91-1.06 2.2 0 1.28 1.06 2.19 1.06.9 2.56.9zM79.26 113.3l1.02 5.93-5.16 1.31-1.04-13.57 5.18-.9 5.1 6.76.07-6.76 6.4-.66-2.27 15.13-4.1.6zM107.3 120.4l-5.88 1.49.1-1.64q-1.15.3-2.42.3-3.46 0-5.91-2.13-2.45-2.11-2.45-5.11 0-3 2.45-5.12t5.91-2.12q3.46 0 5.91 2.12 1.23 1.07 1.85 2.36l-4.96 1.25q-.25-.66-.87-1.2-1.05-.9-2.53-.9-1.48 0-2.53.9-1.05.91-1.05 2.2 0 1.27 1.05 2.18 1.05.91 2.53.91 1.48 0 2.53-.9.57-.5.88-1.1l4.7-.21zM113.73 120.54l-.67-14.47q14.1 0 14.1 7.24 0 7.23-13.43 7.23zm3.68-10.63l.69 5q4.47.02 4.47-2.5 0-2.5-5.16-2.5zM132.5 106.16l1.05 13.94-5.85 1.1.27-14.68zM139.47 120.54l-5.4-10.75 4.37-3.72 3.1 8.27 2.02-7.3 5.78 1.62-5.64 11.38zM154.65 106.16l1.06 13.94-5.85 1.1.27-14.68zM159.96 114.83q-3.73-.53-3.3-4.64.43-4.12 9.59-4.87l.87 4.67q-4.54-.1-4.87 1.08-.33 1.17 3.47 1.35 3.8.17 3.72 4.63-.08 4.45-10.01 4.75l-1.83-4.88q5.08.54 5.6-.51.5-1.07-3.24-1.58zM174.83 106.16l1.05 13.94-5.85 1.1.27-14.68zM184.82 120.54q-3.5 0-5.96-2.12-2.46-2.11-2.46-5.11 0-3 2.46-5.12 2.47-2.12 5.96-2.12 3.49 0 5.95 2.12 2.47 2.12 2.47 5.12t-2.47 5.11q-2.46 2.12-5.95 2.12zm-.58-4.51q1.5 0 2.55-.91 1.06-.91 1.06-2.2 0-1.28-1.06-2.19-1.06-.9-2.55-.9-1.5 0-2.56.9-1.05.91-1.05 2.2 0 1.28 1.05 2.19 1.07.9 2.56.9zM198.94 113.3l1.02 5.93-5.15 1.31-1.05-13.57 5.18-.9 5.1 6.76.07-6.76 6.4-.66-2.27 15.13-4.1.6zM214.15 114.83q-3.73-.53-3.3-4.64.44-4.12 9.6-4.87l.87 4.67q-4.54-.1-4.87 1.08-.33 1.17 3.47 1.35 3.8.17 3.72 4.63-.08 4.45-10.01 4.75l-1.83-4.88q5.08.54 5.59-.51.5-1.07-3.24-1.58z" style="-inkscape-font-specification:'Funhouse, Normal';font-variant-ligatures:normal;font-variant-caps:normal;font-variant-numeric:normal;font-feature-settings:normal;text-align:start"/>
    </g>
  </g>
  <g>
    <g fill="#fff" stroke="#f57c00" aria-label="13,384" font-family="Funhouse" font-size="28.22" font-weight="400" letter-spacing="0" style="line-height:1.25;-inkscape-font-specification:'Funhouse, Normal';font-variant-ligatures:normal;font-variant-caps:normal;font-variant-numeric:normal;font-feature-settings:normal;text-align:start" word-spacing="0">
      <path stroke-width="1.06286" d="M64.97 43.02l-10.02-.42 1.69-13.85-3.46 1.4-1.36-5.78 10.53-3.23zM77.52 32.97q4.68.47 3.8 5.36-.87 4.9-14.39 6.13l-1.23-7.31q8.9.22 8.9-1.16 0-1.4-3.5-.8l-.97-5.1q4.46-.05 4.42-1.78-.04-1.72-7.9.18l.84-6.17q12.58-.83 13.64 4.05 1.07 4.86-3.6 6.6zM87.98 38.33l.07 8.78-7.46.5 2.68-9.73zM100.6 32.97q4.68.47 3.8 5.36-.86 4.9-14.38 6.13l-1.23-7.31q8.89.22 8.89-1.16 0-1.4-3.5-.8l-.97-5.1q4.47-.05 4.42-1.78-.04-1.72-7.9.18l.84-6.17q12.59-.83 13.64 4.05 1.07 4.86-3.6 6.6zM113.4 26.26q-.81 0-1.38.46-.56.45-.56 1.1 0 .64.56 1.1.57.45 1.37.45.8 0 1.35-.45.57-.46.57-1.1 0-.65-.57-1.1-.56-.46-1.35-.46zm.29 7.53q-1.22 0-2.08.5-.87.5-.87 1.22 0 .71.87 1.23.86.5 2.08.5 1.23 0 2.1-.5.86-.52.86-1.23 0-.72-.87-1.22-.86-.5-2.1-.5zm5.37-2.39q.57.31 1.1.7 2.42 1.82 2.42 4.42 0 2.57-2.43 4.4-2.42 1.84-5.85 1.84-3.44 0-5.87-1.83-2.42-1.84-2.42-4.41 0-2.6 2.43-4.43.38-.27.78-.52-1.55-1.53-1.55-3.62 0-2.3 1.87-3.91 1.88-1.63 4.53-1.63 2.63 0 4.5 1.63 1.88 1.6 1.88 3.9 0 1.99-1.39 3.46zM130.76 21.1l-7.47 14.55 8.37 1.1-1.19 7.03 8.66-1.07-.25-4.96 3.18.33 1.18-6.41-4.54-.12V20.71zm-.8 9.85l1.68-4 1.75.18-.72 4.07z" style="-inkscape-font-specification:'Funhouse, Normal';font-variant-ligatures:normal;font-variant-caps:normal;font-variant-numeric:normal;font-feature-settings:normal;text-align:start"/>
    </g>
    <g transform="translate(-255.32 824.38) scale(1.06286)">
      <rect width="7.84" height="18.82" x="-746.85" y="-400.34" fill="#9c27b0" ry="3.92" transform="rotate(90)"/>
      <rect width="2.21" height="6.35" x="-745.57" y="-397.83" fill="#eeccf4" ry="1.1" transform="rotate(90)"/>
      <circle cx="390.93" cy="-751.91" r="3.56" fill="#9c27b0"/>
      <circle cx="390.93" cy="-733.95" r="3.56" fill="#9c27b0"/>
      <ellipse cx="754.53" cy="-390.09" fill="#eeccf4" rx=".76" ry="1.42" transform="rotate(-35.13)"/>
      <ellipse cx="744.11" cy="-375.27" fill="#eeccf4" rx=".76" ry="1.42" transform="rotate(-35.13)"/>
    </g>
    <path fill="#fff" stroke="#f57c00" stroke-width="1.06" d="M190.35 35.8q-5.28.72-4.36 3.52l7.72-.57 1.74 8.4-18.4-1.9q-.24-12.62 5.15-12.87 5.39-.25 4.92-1.92-.47-1.67-6.9-1.52l1.23-6.62q12.98 1.07 13.6 6.9.6 5.82-4.7 6.57z" font-family="Funhouse" font-size="28.22" font-weight="400" letter-spacing="0" style="line-height:1.25;-inkscape-font-specification:'Funhouse, Normal';font-variant-ligatures:normal;font-variant-caps:normal;font-variant-numeric:normal;font-feature-settings:normal;text-align:start" word-spacing="0"/>
    <g transform="matrix(0 .91414 -.91414 0 -105.85 677.06)">
      <rect width="7.84" height="18.82" x="-712.05" y="-356.04" fill="#e91e63" ry="3.92"/>
      <rect width="7.84" height="18.82" x="-701.07" y="-356.04" fill="#e91e63" ry="3.92"/>
      <rect width="2.21" height="6.35" x="-710.76" y="-353.53" fill="#facedd" ry="1.1"/>
      <rect width="2.21" height="6.35" x="-699.77" y="-353.53" fill="#facedd" ry="1.1"/>
    </g>
  </g>
</svg>
