<svg xmlns="http://www.w3.org/2000/svg" viewBox="0 0 270.93 135.47">
  <g transform="translate(-296.4 -801.17)">
    <rect width="204.93" height="55.37" x="329.37" y="875.59" fill="#fff" stroke="#f57c00" stroke-linecap="round" stroke-linejoin="round" stroke-width="1.32" ry="5.23"/>
    <path fill="#fff" stroke="#f57c00" stroke-linecap="round" stroke-linejoin="round" stroke-width="1.32" d="M302.65 861.76c-2.85 0-6.31 2.6-5.15 5.24l9.92 22.54-9.92 22.55c0 2.9 2.3 5.24 5.15 5.24h26.72v-36.51c0-2.9 2.33-5.23 5.22-5.23h21.69V867c0-2.9-2.3-5.24-5.15-5.24z"/>
    <path fill="#f57c00" d="M351.56 861.65c-.4.02-.78.16-1.13.44 0 0-12.8 8.92-16.28 12.07-.62.56-1.18 1.03-1.69 1.43h23.79v-8.23c0-2.46-2.55-5.8-4.7-5.7z"/>
    <g>
      <path fill="#fff" stroke="#f57c00" stroke-linecap="round" stroke-linejoin="round" stroke-width="1.32" d="M512.61 861.76a5.18 5.18 0 0 0-5.14 5.24v8.6h21.6c2.9 0 5.23 2.32 5.23 5.22v36.51h26.8a5.18 5.18 0 0 0 5.14-5.24l-9.91-22.55 9.91-22.54c1.17-2.65-2.3-5.24-5.14-5.24z"/>
      <path fill="#f57c00" d="M512.19 861.65c.4.02.78.16 1.13.44 0 0 12.8 8.92 16.27 12.07.63.56 1.19 1.03 1.69 1.43H507.5v-8.23c0-2.46 2.54-5.8 4.69-5.7z"/>
    </g>
  </g>
  <g fill="#f57c00" stroke-width=".26" font-family="Funhouse" font-size="19.4" font-weight="400" letter-spacing="0" word-spacing="0">
    <g aria-label="additions with" style="line-height:1.25;-inkscape-font-specification:'Funhouse, Normal';font-variant-ligatures:normal;font-variant-caps:normal;font-variant-numeric:normal;font-feature-settings:normal;text-align:start">
      <path d="M55.04 95.92l-.67 1.9-3.73-2.26 4.68-11.01 3.56-.25 5.6 11.4-4.42 2.11-.98-2.66zm3.24-4.15l-1.06-3.43-1.25 3.79zM65.57 97.81l-.6-13.26q12.92 0 12.92 6.63t-12.32 6.63zm3.37-9.75l.64 4.59q4.1.02 4.1-2.29 0-2.3-4.74-2.3zM78.99 97.81l-.6-13.26q12.91 0 12.91 6.63T79 97.81zm3.37-9.75l.63 4.59q4.1.02 4.1-2.29 0-2.3-4.73-2.3zM96.2 84.62l.96 12.78-5.36 1.02.24-13.46zM105.3 88.58l.46 8.08-5.13 1.32.88-9.64-3.88-.33.3-3.51 11.12-.66.4 5.18zM114.34 84.62l.97 12.78-5.36 1.02.24-13.46zM123.5 97.81q-3.2 0-5.46-1.94t-2.26-4.69q0-2.75 2.26-4.69 2.26-1.94 5.47-1.94 3.19 0 5.44 1.94 2.27 1.94 2.27 4.69 0 2.75-2.27 4.69-2.25 1.94-5.44 1.94zm-.52-4.14q1.36 0 2.33-.83.97-.84.97-2.01 0-1.18-.97-2-.97-.84-2.33-.84-1.38 0-2.35.83-.97.83-.97 2 0 1.18.97 2.02.97.83 2.35.83zM136.45 91.18l.94 5.43-4.73 1.2-.96-12.44 4.75-.82 4.68 6.2.05-6.2 5.88-.6-2.09 13.86-3.76.55zM150.4 92.57q-3.43-.48-3.03-4.25.4-3.77 8.8-4.46l.79 4.28q-4.16-.1-4.46.98-.3 1.08 3.18 1.24 3.49.17 3.41 4.25-.08 4.08-9.18 4.36l-1.68-4.48q4.66.5 5.13-.47.46-.97-2.97-1.45zM175.72 91.18l-1.9 6.63-3.74.5-5.64-11.16 4.65-2.6 2.84 7.58 2.22-6 3.8.53 1.56 5.47 2.27-7.86 5.15 2.83-5.53 10.71-4.23-.9zM191.8 84.62l.97 12.78-5.36 1.02.24-13.46zM200.9 88.58l.47 8.08-5.13 1.32.88-9.64-3.88-.33.3-3.51 11.12-.66.4 5.18zM210.5 93.81l.34 3.2-3.63.64-1.65-10.5 4.04-1.72.45 4.55 3.64-.42.06-4.14 6.31.63-2.41 11.65-4.07-1.2.05-3.03z" style="-inkscape-font-specification:'Funhouse, Normal';font-variant-ligatures:normal;font-variant-caps:normal;font-variant-numeric:normal;font-feature-settings:normal;text-align:start"/>
    </g>
    <g aria-label="2 hundreds" style="line-height:1.25;-inkscape-font-specification:'Funhouse, Normal';font-variant-ligatures:normal;font-variant-caps:normal;font-variant-numeric:normal;font-feature-settings:normal;text-align:start">
      <path d="M80.29 112.46q-3.42.48-2.83 2.29l5-.37 1.12 5.44-11.9-1.24q-.16-8.16 3.33-8.32 3.49-.16 3.18-1.24-.3-1.08-4.46-.99l.8-4.28q8.4.69 8.79 4.46.4 3.77-3.03 4.25zM93.93 114.66l.34 3.2-3.63.64L89 108l4.04-1.72.45 4.55 3.64-.42.06-4.14 6.32.63-2.42 11.65-4.06-1.2.05-3.03zM104.87 106.06l5.05.99q-2.52 7.74.72 7.82 3.85-.03 2.23-8.01l4.62-1.46q2.12 13.15-6.85 13.26-9.06-.09-5.77-12.6zM123.41 112.03l.94 5.43-4.73 1.2-.95-12.44 4.74-.82 4.68 6.2.06-6.2 5.87-.61-2.08 13.87-3.76.55zM135.11 118.66l-.6-13.26q12.92 0 12.92 6.63t-12.32 6.63zm3.38-9.75l.63 4.59q4.1.02 4.1-2.29 0-2.3-4.73-2.3zM152.56 108.52l.14 2.56q4.73 0 4.73-.95 0-.94-4.87-1.6zm.64 9.37l-5.28.74 1.1-14.14q12.2.9 12.61 4.89.42 3.97-4.2 5.5l3.8 2.05-3.89 3.44-4.44-5.5zM172.02 103.7l.25 5.01-5.9.64.08 1.14 3.87-.36.34 3.43-4.04.3.07.93 5.72-.44.86 4.31-11.29.39 1.15-13.67zM174.34 118.66l-.61-13.26q12.92 0 12.92 6.63t-12.31 6.63zm3.37-9.75l.63 4.59q4.1.02 4.1-2.29 0-2.3-4.73-2.3zM190.57 113.42q-3.42-.48-3.03-4.25.4-3.77 8.8-4.47l.8 4.29q-4.17-.1-4.47.98-.3 1.08 3.18 1.24 3.49.16 3.41 4.25-.07 4.08-9.18 4.36l-1.67-4.49q4.66.5 5.12-.46.46-.98-2.96-1.45z" style="-inkscape-font-specification:'Funhouse, Normal';font-variant-ligatures:normal;font-variant-caps:normal;font-variant-numeric:normal;font-feature-settings:normal;text-align:start"/>
    </g>
  </g>
  <g fill="#fff" stroke="#f57c00" stroke-width="1.06" aria-label="600" font-family="Funhouse" font-size="28.22" font-weight="400" letter-spacing="0" style="line-height:1.25;-inkscape-font-specification:'Funhouse, Normal';font-variant-ligatures:normal;font-variant-caps:normal;font-variant-numeric:normal;font-feature-settings:normal;text-align:start" word-spacing="0">
    <path d="M56.4 28.43Q45.69 28.3 49.96 9.6l7.91 1.4-2.5 4.97q10.95-2.27 11.35 5.15.4 7.42-10.32 7.3zm.88-5.4q2.44 0 2.44-1.66 0-1.65-2.44-1.65-2.43 0-2.43 1.65 0 1.66 2.43 1.66zM79.02 28.54q-4.65 0-7.95-2.83-3.28-2.82-3.28-6.82t3.28-6.82q3.3-2.83 7.95-2.83t7.93 2.83q3.3 2.82 3.3 6.82t-3.3 6.82q-3.28 2.83-7.93 2.83zm-.77-6.02q1.99 0 3.4-1.22 1.41-1.21 1.41-2.92 0-1.7-1.42-2.92-1.4-1.21-3.39-1.21-2 0-3.41 1.21-1.41 1.21-1.41 2.92t1.4 2.92q1.42 1.22 3.42 1.22zM102.18 28.54q-4.66 0-7.96-2.83-3.28-2.82-3.28-6.82t3.28-6.82q3.3-2.83 7.96-2.83 4.64 0 7.92 2.83 3.3 2.82 3.3 6.82t-3.3 6.82q-3.28 2.83-7.92 2.83zm-.78-6.02q1.99 0 3.4-1.22 1.41-1.21 1.41-2.92 0-1.7-1.42-2.92-1.4-1.21-3.39-1.21-2 0-3.41 1.21-1.4 1.21-1.4 2.92t1.4 2.92q1.42 1.22 3.41 1.22z" style="-inkscape-font-specification:'Funhouse, Normal';font-variant-ligatures:normal;font-variant-caps:normal;font-variant-numeric:normal;font-feature-settings:normal;text-align:start"/>
  </g>
  <g fill="#fff" stroke="#f57c00" stroke-width="1.06" aria-label="876" font-family="Funhouse" font-size="28.22" font-weight="400" letter-spacing="0" style="line-height:1.25;-inkscape-font-specification:'Funhouse, Normal';font-variant-ligatures:normal;font-variant-caps:normal;font-variant-numeric:normal;font-feature-settings:normal;text-align:start" word-spacing="0">
    <path d="M156.53 13.38q-.76 0-1.3.43-.52.43-.52 1.03 0 .6.52 1.04.54.42 1.3.42.74 0 1.26-.42.54-.43.54-1.04 0-.6-.54-1.03-.52-.43-1.26-.43zm.27 7.08q-1.14 0-1.96.47-.8.47-.8 1.15 0 .67.8 1.15.82.47 1.96.47 1.16 0 1.97-.47.82-.48.82-1.15 0-.68-.82-1.15-.81-.47-1.97-.47zm5.06-2.24q.54.29 1.03.65 2.28 1.72 2.28 4.16 0 2.42-2.3 4.15-2.26 1.72-5.49 1.72-3.24 0-5.53-1.72-2.27-1.73-2.27-4.15 0-2.44 2.29-4.16.36-.27.73-.5-1.46-1.43-1.46-3.4 0-2.17 1.76-3.68 1.77-1.53 4.26-1.53 2.48 0 4.24 1.53 1.77 1.51 1.77 3.68 0 1.86-1.31 3.25zM175.36 28.39l-9.15-3.85 6.22-9-6.62.86-1.84-6.35 17.76-1.44zM189.12 29.23q-10.71-.12-6.44-18.82l7.91 1.39-2.5 4.97q10.95-2.27 11.35 5.16.4 7.4-10.32 7.3zm.88-5.4q2.44 0 2.44-1.66 0-1.65-2.44-1.65-2.43 0-2.43 1.65 0 1.66 2.43 1.66z" style="-inkscape-font-specification:'Funhouse, Normal';font-variant-ligatures:normal;font-variant-caps:normal;font-variant-numeric:normal;font-feature-settings:normal;text-align:start"/>
  </g>
  <g fill="#00c853">
    <path d="M131.49 7.96a3.63 3.63 0 0 1 3.64 3.65v14.57a3.63 3.63 0 1 1-7.29 0V11.6a3.63 3.63 0 0 1 3.65-3.65z"/>
    <path d="M142.42 18.9a3.63 3.63 0 0 1-3.65 3.63H124.2a3.63 3.63 0 1 1 0-7.28h14.57a3.63 3.63 0 0 1 3.65 3.64z"/>
  </g>
  <path fill="#c7ffde" d="M133.06 9.71c.52 0 .94.42.94.94v3.51a.93.93 0 1 1-1.87 0v-3.5c0-.53.41-.95.93-.95z"/>
  <g>
    <path fill="#e91e63" d="M222.72 14.2c0 1.85-1.5 3.35-3.35 3.35h-9.4a3.35 3.35 0 1 1 0-6.71h9.4c1.86 0 3.35 1.5 3.35 3.35zM222.72 23.59c0 1.86-1.5 3.35-3.35 3.35h-9.4a3.35 3.35 0 1 1 0-6.7h9.4c1.86 0 3.35 1.49 3.35 3.35z"/>
    <path fill="#facedd" d="M220.58 12.88c0 .53-.42.95-.95.95h-3.54a.94.94 0 1 1 0-1.9h3.54c.53 0 .95.43.95.95zM220.58 22.3c0 .52-.42.94-.95.94h-3.54a.94.94 0 1 1 0-1.9h3.54c.53 0 .95.43.95.95z"/>
  </g>
  <g>
    <g fill="#fff" stroke="#f57c00" stroke-width="1.06" aria-label="300" font-family="Funhouse" font-size="28.22" font-weight="400" letter-spacing="0" style="line-height:1.25;-inkscape-font-specification:'Funhouse, Normal';font-variant-ligatures:normal;font-variant-caps:normal;font-variant-numeric:normal;font-feature-settings:normal;text-align:start" word-spacing="0">
      <path d="M150.06 47.68q4.4.44 3.57 5.04-.81 4.6-13.53 5.76l-1.16-6.87q8.37.2 8.37-1.1t-3.3-.74l-.9-4.8q4.2-.05 4.15-1.67-.04-1.63-7.44.16l.8-5.8q11.84-.79 12.83 3.8 1 4.58-3.39 6.22zM166.38 57.32q-4.66 0-7.95-2.82-3.28-2.83-3.28-6.82 0-4 3.28-6.82 3.29-2.83 7.95-2.83 4.64 0 7.92 2.83 3.3 2.82 3.3 6.82t-3.3 6.82q-3.28 2.82-7.92 2.82zm-.77-6.02q1.98 0 3.39-1.21 1.42-1.21 1.42-2.92T169 44.25q-1.41-1.22-3.4-1.22-2 0-3.41 1.22-1.4 1.2-1.4 2.92 0 1.7 1.4 2.92 1.42 1.21 3.42 1.21zM189.53 57.32q-4.66 0-7.95-2.82-3.28-2.83-3.28-6.82 0-4 3.28-6.82 3.3-2.83 7.95-2.83 4.64 0 7.92 2.83 3.3 2.82 3.3 6.82t-3.3 6.82q-3.28 2.82-7.92 2.82zm-.77-6.02q1.98 0 3.39-1.21 1.42-1.21 1.42-2.92t-1.42-2.92q-1.4-1.22-3.4-1.22t-3.41 1.22q-1.4 1.2-1.4 2.92 0 1.7 1.4 2.92 1.42 1.21 3.42 1.21z" style="-inkscape-font-specification:'Funhouse, Normal';font-variant-ligatures:normal;font-variant-caps:normal;font-variant-numeric:normal;font-feature-settings:normal;text-align:start"/>
    </g>
    <g fill="#fff" stroke="#f57c00" stroke-width="1.06" aria-label="945" font-family="Funhouse" font-size="28.22" font-weight="400" letter-spacing="0" style="line-height:1.25;-inkscape-font-specification:'Funhouse, Normal';font-variant-ligatures:normal;font-variant-caps:normal;font-variant-numeric:normal;font-feature-settings:normal;text-align:start" word-spacing="0">
      <path d="M58.21 39.14q10.72.1 6.45 18.8l-7.9-1.39 2.5-4.97q-10.95 2.27-11.35-5.14-.4-7.43 10.3-7.3zm-.88 5.38q-2.42 0-2.42 1.66 0 1.65 2.42 1.65 2.44 0 2.44-1.65 0-1.66-2.44-1.66zM74.16 37.23l-7.03 13.7L75 51.96l-1.12 6.62 8.15-1-.24-4.68 3 .32 1.1-6.04-4.26-.1v-10.2zm-.76 9.28l1.58-3.76 1.64.16-.67 3.83zM98.62 47.07q4.99.7 4.4 6.18-.57 5.48-12.78 6.49l-1.16-6.23q6.05.14 6.5-1.44.43-1.57-4.64-1.8-5.07-.23-4.85-12.11l17.32-1.8-1.64 7.92-7.26-.54q-.87 2.63 4.1 3.33z" style="-inkscape-font-specification:'Funhouse, Normal';font-variant-ligatures:normal;font-variant-caps:normal;font-variant-numeric:normal;font-feature-settings:normal;text-align:start"/>
    </g>
    <g fill="#00c853">
      <path d="M121.2 37.1a3.63 3.63 0 0 1 3.64 3.65v14.57a3.63 3.63 0 1 1-7.29 0V40.75a3.63 3.63 0 0 1 3.65-3.64z"/>
      <path d="M132.12 48.03a3.63 3.63 0 0 1-3.64 3.65h-14.57a3.63 3.63 0 1 1 0-7.29h14.57a3.63 3.63 0 0 1 3.64 3.64z"/>
    </g>
    <path fill="#c7ffde" d="M122.77 38.86c.52 0 .94.41.94.93v3.52a.93.93 0 1 1-1.88 0v-3.52c0-.52.42-.93.94-.93z"/>
    <g>
      <path fill="#e91e63" d="M223.57 43.34c0 1.86-1.5 3.35-3.36 3.35h-9.4a3.35 3.35 0 1 1 0-6.7h9.4c1.86 0 3.36 1.49 3.36 3.35zM223.57 52.73c0 1.86-1.5 3.36-3.36 3.36h-9.4a3.35 3.35 0 1 1 0-6.71h9.4c1.86 0 3.36 1.5 3.36 3.35z"/>
      <path fill="#facedd" d="M221.43 42.03c0 .52-.43.94-.95.94h-3.54a.94.94 0 1 1 0-1.89h3.54c.52 0 .95.42.95.95zM221.43 51.44c0 .52-.43.94-.95.94h-3.54a.94.94 0 1 1 0-1.89h3.54c.52 0 .95.42.95.95z"/>
    </g>
  </g>
</svg>
