<svg xmlns="http://www.w3.org/2000/svg" viewBox="0 0 270.93 135.47">
  <g transform="translate(-296.4 -801.17)">
    <rect width="204.93" height="55.37" x="329.37" y="875.59" fill="#fff" stroke="#f57c00" stroke-linecap="round" stroke-linejoin="round" stroke-width="1.32" ry="5.23"/>
    <path fill="#fff" stroke="#f57c00" stroke-linecap="round" stroke-linejoin="round" stroke-width="1.32" d="M302.65 861.76c-2.85 0-6.31 2.6-5.15 5.24l9.92 22.54-9.92 22.55c0 2.9 2.3 5.24 5.15 5.24h26.72v-36.51c0-2.9 2.33-5.23 5.22-5.23h21.69V867c0-2.9-2.3-5.24-5.15-5.24z"/>
    <path fill="#f57c00" d="M351.56 861.65c-.4.02-.78.16-1.13.44 0 0-12.8 8.92-16.28 12.07-.62.56-1.18 1.03-1.69 1.43h23.79v-8.23c0-2.46-2.55-5.8-4.7-5.7z"/>
    <g>
      <path fill="#fff" stroke="#f57c00" stroke-linecap="round" stroke-linejoin="round" stroke-width="1.32" d="M512.61 861.76a5.18 5.18 0 0 0-5.14 5.24v8.6h21.6c2.9 0 5.23 2.32 5.23 5.22v36.51h26.8a5.18 5.18 0 0 0 5.14-5.24l-9.91-22.55 9.91-22.54c1.17-2.65-2.3-5.24-5.14-5.24z"/>
      <path fill="#f57c00" d="M512.19 861.65c.4.02.78.16 1.13.44 0 0 12.8 8.92 16.27 12.07.63.56 1.19 1.03 1.69 1.43H507.5v-8.23c0-2.46 2.54-5.8 4.69-5.7z"/>
    </g>
  </g>
  <g fill="#f57c00" stroke-width=".26" font-family="Funhouse" font-size="15.88" font-weight="400" letter-spacing="0" word-spacing="0">
    <g aria-label="additions with" style="line-height:1.25;-inkscape-font-specification:'Funhouse, Normal';font-variant-ligatures:normal;font-variant-caps:normal;font-variant-numeric:normal;font-feature-settings:normal;text-align:start">
      <path d="M69.66 89.15l-.54 1.55-3.06-1.85 3.83-9 2.92-.2 4.58 9.32-3.62 1.73-.8-2.18zm2.65-3.4l-.87-2.8-1.02 3.1zM78.28 90.7l-.5-10.85q10.58 0 10.58 5.42 0 5.43-10.08 5.43zm2.76-7.98l.52 3.75q3.36.02 3.36-1.87 0-1.88-3.88-1.88zM89.26 90.7l-.5-10.85q10.57 0 10.57 5.42 0 5.43-10.07 5.43zm2.76-7.98l.52 3.75q3.35.02 3.35-1.87 0-1.88-3.87-1.88zM103.33 79.9l.8 10.46-4.4.83.2-11.01zM110.78 83.15l.38 6.6-4.2 1.09.72-7.9-3.17-.27.25-2.86 9.1-.55.33 4.24zM118.18 79.9l.8 10.46-4.4.83.21-11.01zM125.68 90.7q-2.62 0-4.47-1.6-1.85-1.58-1.85-3.83t1.85-3.84q1.85-1.58 4.47-1.58 2.61 0 4.46 1.58 1.85 1.6 1.85 3.84 0 2.25-1.85 3.84-1.85 1.59-4.46 1.59zm-.43-3.39q1.11 0 1.9-.68.8-.68.8-1.65 0-.96-.8-1.64-.79-.68-1.9-.68-1.13 0-1.93.68-.79.68-.79 1.64 0 .97.8 1.65.8.68 1.92.68zM136.27 85.27l.77 4.44-3.87.99-.78-10.18 3.88-.67 3.83 5.06.04-5.06 4.81-.5-1.7 11.35-3.08.45zM147.68 86.41q-2.8-.4-2.47-3.48.32-3.08 7.19-3.65l.65 3.5q-3.4-.07-3.65.8-.25.9 2.6 1.02 2.86.14 2.8 3.48-.07 3.34-7.52 3.56l-1.37-3.66q3.82.4 4.2-.38.38-.8-2.43-1.19zM168.4 85.27l-1.55 5.43-3.06.4-4.62-9.12 3.8-2.13 2.33 6.2 1.82-4.9 3.1.42 1.28 4.48 1.86-6.43 4.22 2.31-4.53 8.77-3.47-.75zM181.56 79.9l.8 10.46-4.4.83.2-11.01zM189.01 83.15l.38 6.6-4.2 1.09.72-7.9-3.17-.27.25-2.86 9.09-.55.33 4.24zM196.85 87.43l.28 2.62-2.97.52-1.34-8.6 3.3-1.4.37 3.72 2.98-.34.04-3.4 5.17.53-1.97 9.52-3.33-.98.04-2.47z" style="-inkscape-font-specification:'Funhouse, Normal';font-variant-ligatures:normal;font-variant-caps:normal;font-variant-numeric:normal;font-feature-settings:normal;text-align:start"/>
    </g>
    <g aria-label="thousands" style="line-height:1.25;-inkscape-font-specification:'Funhouse, Normal';font-variant-ligatures:normal;font-variant-caps:normal;font-variant-numeric:normal;font-feature-settings:normal;text-align:start">
      <path d="M90.1 99.91l.38 6.6-4.2 1.09.72-7.9-3.17-.26.25-2.87 9.09-.54.33 4.24zM97.95 104.19l.27 2.62-2.96.52-1.35-8.6 3.3-1.4.37 3.72 2.98-.34.04-3.39 5.17.52-1.97 9.53-3.33-.99.04-2.47zM112.47 107.46q-2.62 0-4.47-1.59-1.85-1.59-1.85-3.84 0-2.24 1.85-3.83 1.85-1.6 4.47-1.6 2.61 0 4.46 1.6 1.85 1.59 1.85 3.83 0 2.25-1.85 3.84-1.85 1.59-4.46 1.59zm-.43-3.39q1.11 0 1.9-.68.8-.68.8-1.64 0-.96-.8-1.65-.79-.68-1.9-.68-1.13 0-1.93.68-.79.69-.79 1.65t.8 1.64q.8.68 1.92.68z" style="-inkscape-font-specification:'Funhouse, Normal';font-variant-ligatures:normal;font-variant-caps:normal;font-variant-numeric:normal;font-feature-settings:normal;text-align:start"/>
      <path d="M120.14 97.15l4.13.8q-2.06 6.34.59 6.4 3.15-.01 1.82-6.55l3.78-1.2q1.74 10.77-5.6 10.86-7.42-.07-4.72-10.31z" style="-inkscape-font-specification:'Funhouse, Normal';font-variant-ligatures:normal;font-variant-caps:normal;font-variant-numeric:normal;font-feature-settings:normal;text-align:start"/>
      <path d="M133.97 103.17q-2.8-.4-2.47-3.48.33-3.08 7.2-3.65l.65 3.5q-3.4-.07-3.66.81-.24.89 2.6 1.02 2.86.13 2.8 3.47-.06 3.34-7.51 3.57l-1.37-3.67q3.81.41 4.19-.38.38-.8-2.43-1.19zM145.13 105.9l-.54 1.56-3.06-1.85 3.83-9 2.92-.2 4.58 9.32-3.62 1.73-.8-2.18zm2.65-3.39l-.87-2.8-1.02 3.1zM157.14 102.03l.76 4.45-3.87.98-.78-10.18 3.89-.67 3.82 5.07.05-5.07 4.8-.5-1.7 11.35-3.08.45zM166.7 107.46l-.49-10.85q10.58 0 10.58 5.42 0 5.43-10.08 5.43zm2.77-7.98l.52 3.75q3.35.02 3.35-1.86 0-1.89-3.87-1.89zM179.99 103.17q-2.8-.4-2.48-3.48.33-3.08 7.2-3.65l.65 3.5q-3.4-.07-3.65.81-.25.89 2.6 1.02t2.8 3.47q-.07 3.34-7.52 3.57l-1.37-3.67q3.81.41 4.2-.38.37-.8-2.43-1.19z" style="-inkscape-font-specification:'Funhouse, Normal';font-variant-ligatures:normal;font-variant-caps:normal;font-variant-numeric:normal;font-feature-settings:normal;text-align:start"/>
    </g>
    <g aria-label="3 numbers" style="line-height:1.25;-inkscape-font-specification:'Funhouse, Normal';font-variant-ligatures:normal;font-variant-caps:normal;font-variant-numeric:normal;font-feature-settings:normal;text-align:start">
      <path d="M95.08 118.12q2.47.25 2 2.83-.45 2.6-7.6 3.24l-.66-3.86q4.7.11 4.7-.62t-1.85-.41l-.5-2.71q2.36-.02 2.33-.94-.02-.91-4.18.1l.45-3.27q6.66-.44 7.21 2.14.57 2.57-1.9 3.5zM105.76 118.12l.77 4.44-3.87.98-.78-10.17 3.88-.68 3.83 5.07.04-5.07 4.81-.5-1.7 11.35-3.08.45z" style="-inkscape-font-specification:'Funhouse, Normal';font-variant-ligatures:normal;font-variant-caps:normal;font-variant-numeric:normal;font-feature-settings:normal;text-align:start"/>
      <path d="M115.36 113.23l4.13.81q-2.06 6.33.6 6.4 3.14-.02 1.81-6.55l3.79-1.2q1.73 10.76-5.6 10.85-7.42-.07-4.73-10.3z" style="-inkscape-font-specification:'Funhouse, Normal';font-variant-ligatures:normal;font-variant-caps:normal;font-variant-numeric:normal;font-feature-settings:normal;text-align:start"/>
      <path d="M138.8 112.7l.65 10.22-3.95.33-.2-5.23-.8 3.6-3.56.49-1.44-3.71.52 4.4-3.62.74.5-10.85 3.55-.47 1.97 6.2 2.4-6.02zM142.86 116.5q2.4-.45 2.35-1.37-.04-.91-2.45-.28zm.37 4.6q3.51-.14 3.52-1.22.01-1.09-3.64-1.04zm-3.37 2.44l.28-10.03q5.55-2.26 7.62-.22 2.08 2.04-.52 4.1 3.95 1.22 2.55 3.98-1.4 2.75-9.93 2.17z" style="-inkscape-font-specification:'Funhouse, Normal';font-variant-ligatures:normal;font-variant-caps:normal;font-variant-numeric:normal;font-feature-settings:normal;text-align:start"/>
      <path d="M158.86 111.3l.2 4.1-4.82.52.07.94 3.16-.3.28 2.81-3.3.24.05.76 4.68-.35.7 3.52-9.23.32.94-11.18zM164.06 115.25l.1 2.1q3.88 0 3.88-.78t-3.98-1.32zm.52 7.67l-4.32.6.9-11.57q9.98.74 10.32 4 .34 3.24-3.44 4.5l3.1 1.67-3.18 2.82-3.63-4.5zM175 119.26q-2.8-.4-2.48-3.48.33-3.09 7.2-3.65l.65 3.5q-3.4-.08-3.65.8-.25.89 2.6 1.02t2.79 3.47q-.06 3.34-7.51 3.57l-1.37-3.67q3.81.41 4.2-.38.37-.8-2.44-1.18z" style="-inkscape-font-specification:'Funhouse, Normal';font-variant-ligatures:normal;font-variant-caps:normal;font-variant-numeric:normal;font-feature-settings:normal;text-align:start"/>
    </g>
  </g>
  <g fill="#fff" stroke="#f57c00" stroke-width="1.06" aria-label="7000" font-family="Funhouse" font-size="28.22" font-weight="400" letter-spacing="0" style="line-height:1.25;-inkscape-font-specification:'Funhouse, Normal';font-variant-ligatures:normal;font-variant-caps:normal;font-variant-numeric:normal;font-feature-settings:normal;text-align:start" word-spacing="0">
    <path stroke-width=".865225" d="M111.58 23.01l-7.47-3.13 5.08-7.36-5.4.7-1.5-5.18 14.49-1.17zM124.63 23.8q-3.8 0-6.49-2.32-2.68-2.3-2.68-5.56 0-3.27 2.68-5.57 2.69-2.3 6.5-2.3 3.78 0 6.46 2.3 2.69 2.3 2.69 5.57 0 3.26-2.7 5.56-2.67 2.31-6.46 2.31zm-.63-4.92q1.62 0 2.77-1 1.16-.98 1.16-2.38t-1.16-2.38q-1.15-1-2.77-1-1.63 0-2.79 1-1.15.99-1.15 2.38 0 1.4 1.15 2.39 1.16.99 2.8.99zM143.53 23.8q-3.8 0-6.5-2.32-2.67-2.3-2.67-5.56 0-3.27 2.68-5.57 2.69-2.3 6.49-2.3 3.79 0 6.47 2.3 2.68 2.3 2.68 5.57 0 3.26-2.68 5.56-2.68 2.31-6.47 2.31zm-.63-4.92q1.62 0 2.77-1 1.15-.98 1.15-2.38t-1.15-2.38q-1.15-1-2.77-1-1.63 0-2.8 1-1.14.99-1.14 2.38 0 1.4 1.15 2.39 1.16.99 2.79.99zM162.43 23.8q-3.8 0-6.5-2.32-2.67-2.3-2.67-5.56 0-3.27 2.68-5.57 2.68-2.3 6.49-2.3 3.79 0 6.46 2.3 2.7 2.3 2.7 5.57 0 3.26-2.7 5.56-2.67 2.31-6.46 2.31zm-.63-4.92q1.62 0 2.76-1 1.16-.98 1.16-2.38t-1.16-2.38q-1.14-1-2.76-1-1.64 0-2.8 1-1.14.99-1.14 2.38 0 1.4 1.15 2.39 1.15.99 2.79.99z" style="-inkscape-font-specification:'Funhouse, Normal';font-variant-ligatures:normal;font-variant-caps:normal;font-variant-numeric:normal;font-feature-settings:normal;text-align:start"/>
  </g>
  <g fill="#fff" stroke="#f57c00" stroke-width="1.06" aria-label="4000" font-family="Funhouse" font-size="28.22" font-weight="400" letter-spacing="0" style="line-height:1.25;-inkscape-font-specification:'Funhouse, Normal';font-variant-ligatures:normal;font-variant-caps:normal;font-variant-numeric:normal;font-feature-settings:normal;text-align:start" word-spacing="0">
    <path stroke-width=".865225" d="M9.88 6.72L4.15 17.9l6.42.84-.91 5.4 6.65-.82-.2-3.81 2.45.26.9-4.93-3.48-.1V6.44zm-.61 7.57l1.29-3.07 1.34.13-.55 3.13zM29.2 23.71q-3.8 0-6.5-2.3-2.67-2.3-2.67-5.57 0-3.26 2.68-5.57 2.69-2.3 6.49-2.3 3.79 0 6.47 2.3 2.68 2.3 2.68 5.57 0 3.26-2.68 5.57-2.68 2.3-6.47 2.3zm-.63-4.91q1.62 0 2.77-1 1.15-.98 1.15-2.38t-1.15-2.38q-1.15-.99-2.77-.99-1.63 0-2.8.99-1.14.99-1.14 2.38 0 1.4 1.15 2.39 1.16.99 2.79.99zM48.1 23.71q-3.8 0-6.5-2.3-2.67-2.3-2.67-5.57 0-3.26 2.67-5.57 2.7-2.3 6.5-2.3 3.79 0 6.46 2.3 2.7 2.3 2.7 5.57 0 3.26-2.7 5.57-2.67 2.3-6.46 2.3zm-.63-4.91q1.62 0 2.76-1 1.16-.98 1.16-2.38t-1.16-2.38q-1.14-.99-2.76-.99-1.64 0-2.8.99-1.14.99-1.14 2.38 0 1.4 1.15 2.39 1.15.99 2.79.99zM67 23.71q-3.81 0-6.5-2.3-2.67-2.3-2.67-5.57 0-3.26 2.67-5.57 2.69-2.3 6.5-2.3 3.78 0 6.46 2.3 2.69 2.3 2.69 5.57 0 3.26-2.69 5.57-2.68 2.3-6.47 2.3zm-.64-4.91q1.62 0 2.77-1 1.16-.98 1.16-2.38t-1.16-2.38q-1.15-.99-2.77-.99-1.63 0-2.79.99-1.14.99-1.14 2.38 0 1.4 1.14 2.39 1.16.99 2.8.99z" style="-inkscape-font-specification:'Funhouse, Normal';font-variant-ligatures:normal;font-variant-caps:normal;font-variant-numeric:normal;font-feature-settings:normal;text-align:start"/>
  </g>
  <g fill="#fff" stroke="#f57c00" stroke-width="1.06" aria-label="2616" font-family="Funhouse" font-size="28.22" font-weight="400" letter-spacing="0" style="line-height:1.25;-inkscape-font-specification:'Funhouse, Normal';font-variant-ligatures:normal;font-variant-caps:normal;font-variant-numeric:normal;font-feature-settings:normal;text-align:start" word-spacing="0">
    <path stroke-width=".865225" d="M207.82 16.1q-4.06.57-3.36 2.71l5.93-.44 1.34 6.46-14.14-1.46q-.18-9.7 3.96-9.89 4.14-.19 3.78-1.47-.36-1.28-5.3-1.17l.95-5.09q9.96.83 10.44 5.3.47 4.48-3.6 5.05z" style="-inkscape-font-specification:'Funhouse, Normal';font-variant-ligatures:normal;font-variant-caps:normal;font-variant-numeric:normal;font-feature-settings:normal;text-align:start"/>
    <path stroke-width=".865225" d="M218.61 23.37q-8.74-.1-5.25-15.37l6.46 1.14-2.05 4.06q8.94-1.86 9.27 4.2.33 6.06-8.43 5.97zm.72-4.41q2 0 2-1.35t-2-1.35q-1.98 0-1.98 1.35t1.98 1.35z" style="-inkscape-font-specification:'Funhouse, Normal';font-variant-ligatures:normal;font-variant-caps:normal;font-variant-numeric:normal;font-feature-settings:normal;text-align:start"/>
    <path stroke-width=".865225" d="M235.27 23.3l-7.7-.32 1.3-10.63-2.65 1.06-1.05-4.43 8.09-2.48z" style="-inkscape-font-specification:'Funhouse, Normal';font-variant-ligatures:normal;font-variant-caps:normal;font-variant-numeric:normal;font-feature-settings:normal;text-align:start"/>
    <path stroke-width=".865225" d="M241.79 23.37q-8.74-.1-5.26-15.37L243 9.14l-2.05 4.06q8.94-1.86 9.27 4.2.33 6.06-8.42 5.97zm.72-4.41q1.99 0 1.99-1.35t-2-1.35q-1.97 0-1.97 1.35t1.98 1.35z" style="-inkscape-font-specification:'Funhouse, Normal';font-variant-ligatures:normal;font-variant-caps:normal;font-variant-numeric:normal;font-feature-settings:normal;text-align:start"/>
  </g>
  <g fill="#00c853">
    <path d="M89.15 6.39a2.97 2.97 0 0 1 2.97 2.97v11.9a2.97 2.97 0 1 1-5.94 0V9.35a2.97 2.97 0 0 1 2.97-2.97z"/>
    <path d="M98.07 15.3a2.97 2.97 0 0 1-2.97 2.98H83.2a2.97 2.97 0 1 1 0-5.95h11.9a2.97 2.97 0 0 1 2.97 2.98z"/>
  </g>
  <path fill="#c7ffde" d="M90.43 7.82c.43 0 .77.34.77.76v2.87a.76.76 0 1 1-1.53 0V8.58c0-.42.34-.76.76-.76z"/>
  <g fill="#00c853">
    <path d="M184.58 6.39a2.97 2.97 0 0 1 2.98 2.97v11.9a2.97 2.97 0 1 1-5.95 0V9.35a2.97 2.97 0 0 1 2.97-2.97z"/>
    <path d="M193.5 15.3a2.97 2.97 0 0 1-2.97 2.98h-11.9a2.97 2.97 0 1 1 0-5.95h11.9a2.97 2.97 0 0 1 2.97 2.98z"/>
  </g>
  <path fill="#c7ffde" d="M185.87 7.82c.42 0 .76.34.76.76v2.87a.76.76 0 1 1-1.53 0V8.58c0-.42.34-.76.77-.76z"/>
  <g>
    <path fill="#e91e63" d="M267.45 11.47a2.73 2.73 0 0 1-2.74 2.74h-7.67a2.73 2.73 0 1 1 0-5.48h7.67a2.73 2.73 0 0 1 2.74 2.74zM267.45 19.14a2.73 2.73 0 0 1-2.74 2.74h-7.67a2.73 2.73 0 1 1 0-5.48h7.67a2.73 2.73 0 0 1 2.74 2.74z"/>
    <path fill="#facedd" d="M265.7 10.4c0 .43-.35.77-.77.77h-2.9a.77.77 0 1 1 0-1.54h2.9c.42 0 .77.35.77.77zM265.7 18.08c0 .43-.35.77-.77.77h-2.9a.77.77 0 1 1 0-1.54h2.9c.42 0 .77.35.77.77z"/>
  </g>
  <g>
    <g fill="#fff" stroke="#f57c00" stroke-width="1.06" aria-label="9000" font-family="Funhouse" font-size="28.22" font-weight="400" letter-spacing="0" style="line-height:1.25;-inkscape-font-specification:'Funhouse, Normal';font-variant-ligatures:normal;font-variant-caps:normal;font-variant-numeric:normal;font-feature-settings:normal;text-align:start" word-spacing="0">
      <path stroke-width=".865225" d="M12.34 37.87q8.75.09 5.27 15.35l-6.46-1.13 2.05-4.06q-8.95 1.85-9.27-4.2-.33-6.06 8.41-5.96zm-.72 4.4q-1.98 0-1.98 1.35t1.98 1.35q2 0 2-1.35t-2-1.35z" style="-inkscape-font-specification:'Funhouse, Normal';font-variant-ligatures:normal;font-variant-caps:normal;font-variant-numeric:normal;font-feature-settings:normal;text-align:start"/>
      <path stroke-width=".865225" d="M28.79 53.31q-3.8 0-6.5-2.3-2.67-2.3-2.67-5.57 0-3.26 2.68-5.57 2.68-2.3 6.49-2.3 3.79 0 6.46 2.3 2.7 2.3 2.7 5.57 0 3.26-2.7 5.57-2.67 2.3-6.46 2.3zm-.63-4.91q1.62 0 2.76-1 1.16-.98 1.16-2.38t-1.16-2.38q-1.14-1-2.76-1-1.64 0-2.8 1-1.14.99-1.14 2.38 0 1.4 1.15 2.39 1.15.99 2.79.99zM47.68 53.31q-3.8 0-6.49-2.3-2.67-2.3-2.67-5.57 0-3.26 2.67-5.57 2.7-2.3 6.5-2.3 3.78 0 6.46 2.3 2.69 2.3 2.69 5.57 0 3.26-2.69 5.57-2.68 2.3-6.47 2.3zm-.63-4.91q1.62 0 2.77-1 1.16-.98 1.16-2.38t-1.16-2.38q-1.15-1-2.77-1-1.63 0-2.79 1-1.14.99-1.14 2.38 0 1.4 1.14 2.39 1.16.99 2.8.99zM66.58 53.31q-3.8 0-6.49-2.3-2.68-2.3-2.68-5.57 0-3.26 2.68-5.57 2.69-2.3 6.49-2.3 3.8 0 6.47 2.3 2.69 2.3 2.69 5.57 0 3.26-2.7 5.57-2.67 2.3-6.46 2.3zm-.63-4.91q1.62 0 2.77-1 1.16-.98 1.16-2.38t-1.16-2.38q-1.15-1-2.77-1-1.63 0-2.79 1-1.15.99-1.15 2.38 0 1.4 1.15 2.39 1.16.99 2.79.99z" style="-inkscape-font-specification:'Funhouse, Normal';font-variant-ligatures:normal;font-variant-caps:normal;font-variant-numeric:normal;font-feature-settings:normal;text-align:start"/>
    </g>
    <g fill="#fff" stroke="#f57c00" stroke-width="1.06" aria-label="4125" font-family="Funhouse" font-size="28.22" font-weight="400" letter-spacing="0" style="line-height:1.25;-inkscape-font-specification:'Funhouse, Normal';font-variant-ligatures:normal;font-variant-caps:normal;font-variant-numeric:normal;font-feature-settings:normal;text-align:start" word-spacing="0">
      <path stroke-width=".865225" d="M107.51 36.61l-5.73 11.18 6.42.84-.91 5.4 6.65-.82-.2-3.81 2.45.26.9-4.93-3.48-.09v-8.32zm-.61 7.57l1.29-3.07 1.34.13-.55 3.13z" style="-inkscape-font-specification:'Funhouse, Normal';font-variant-ligatures:normal;font-variant-caps:normal;font-variant-numeric:normal;font-feature-settings:normal;text-align:start"/>
      <path stroke-width=".865225" d="M125.06 53.45l-7.7-.33 1.3-10.63-2.65 1.07-1.05-4.43 8.09-2.49zM136.03 46.25q-4.06.56-3.35 2.71l5.92-.44 1.34 6.46-14.14-1.46q-.18-9.7 3.96-9.9 4.14-.18 3.78-1.46-.36-1.29-5.3-1.17l.95-5.09q9.97.82 10.44 5.3.47 4.48-3.6 5.05zM151.06 44.64q4.07.56 3.6 5.04-.48 4.48-10.44 5.3l-.95-5.09q4.94.12 5.3-1.17.36-1.28-3.78-1.47-4.14-.19-3.96-9.89l14.14-1.46-1.34 6.46-5.93-.44q-.7 2.15 3.36 2.72z" style="-inkscape-font-specification:'Funhouse, Normal';font-variant-ligatures:normal;font-variant-caps:normal;font-variant-numeric:normal;font-feature-settings:normal;text-align:start"/>
    </g>
    <g fill="#fff" stroke="#f57c00" stroke-width="1.06" aria-label="3000" font-family="Funhouse" font-size="28.22" font-weight="400" letter-spacing="0" style="line-height:1.25;-inkscape-font-specification:'Funhouse, Normal';font-variant-ligatures:normal;font-variant-caps:normal;font-variant-numeric:normal;font-feature-settings:normal;text-align:start" word-spacing="0">
      <path stroke-width=".865225" d="M190.05 45.15q3.59.36 2.91 4.12-.66 3.75-11.04 4.7l-.95-5.61q6.83.16 6.83-.9t-2.69-.6l-.74-3.93q3.43-.03 3.4-1.36-.04-1.32-6.08.14l.65-4.74q9.67-.64 10.48 3.1.82 3.74-2.77 5.08zM203.37 53.02q-3.8 0-6.5-2.3-2.67-2.3-2.67-5.57 0-3.26 2.68-5.57 2.69-2.3 6.49-2.3 3.79 0 6.47 2.3 2.68 2.3 2.68 5.57 0 3.26-2.68 5.57-2.68 2.3-6.47 2.3zm-.63-4.91q1.62 0 2.76-1 1.16-.98 1.16-2.38t-1.16-2.38q-1.14-1-2.76-1-1.63 0-2.8 1-1.14.99-1.14 2.38 0 1.4 1.15 2.39 1.16.99 2.79.99zM222.26 53.02q-3.8 0-6.49-2.3-2.67-2.3-2.67-5.57 0-3.26 2.67-5.57 2.7-2.3 6.5-2.3 3.79 0 6.46 2.3 2.7 2.3 2.7 5.57 0 3.26-2.7 5.57-2.67 2.3-6.47 2.3zm-.63-4.91q1.62 0 2.77-1 1.16-.98 1.16-2.38t-1.16-2.38q-1.15-1-2.77-1-1.63 0-2.78 1-1.15.99-1.15 2.38 0 1.4 1.15 2.39 1.15.99 2.78.99zM241.16 53.02q-3.8 0-6.49-2.3-2.68-2.3-2.68-5.57 0-3.26 2.68-5.57 2.69-2.3 6.5-2.3 3.78 0 6.46 2.3 2.69 2.3 2.69 5.57 0 3.26-2.69 5.57-2.68 2.3-6.47 2.3zm-.63-4.91q1.62 0 2.77-1 1.16-.98 1.16-2.38t-1.16-2.38q-1.15-1-2.77-1-1.63 0-2.79 1-1.14.99-1.14 2.38 0 1.4 1.14 2.39 1.16.99 2.8.99z" style="-inkscape-font-specification:'Funhouse, Normal';font-variant-ligatures:normal;font-variant-caps:normal;font-variant-numeric:normal;font-feature-settings:normal;text-align:start"/>
    </g>
    <g fill="#00c853">
      <path d="M88.64 36.52a2.97 2.97 0 0 1 2.97 2.97v11.9a2.97 2.97 0 1 1-5.94 0v-11.9a2.97 2.97 0 0 1 2.97-2.97z"/>
      <path d="M97.56 45.44a2.97 2.97 0 0 1-2.97 2.97h-11.9a2.97 2.97 0 1 1 0-5.94h11.9a2.97 2.97 0 0 1 2.97 2.97z"/>
    </g>
    <path fill="#c7ffde" d="M89.93 37.95c.42 0 .76.34.76.76v2.87a.76.76 0 1 1-1.53 0v-2.87c0-.42.34-.76.77-.76z"/>
    <g fill="#00c853">
      <path d="M167.99 36.52a2.97 2.97 0 0 1 2.97 2.97v11.9a2.97 2.97 0 1 1-5.95 0v-11.9a2.97 2.97 0 0 1 2.98-2.97z"/>
      <path d="M176.9 45.44a2.97 2.97 0 0 1-2.97 2.97h-11.89a2.97 2.97 0 1 1 0-5.94h11.9a2.97 2.97 0 0 1 2.97 2.97z"/>
    </g>
    <path fill="#c7ffde" d="M169.27 37.95c.43 0 .77.34.77.76v2.87a.76.76 0 1 1-1.53 0v-2.87c0-.42.34-.76.76-.76z"/>
    <g>
      <path fill="#e91e63" d="M267.45 41.6a2.73 2.73 0 0 1-2.74 2.74h-7.67a2.73 2.73 0 1 1 0-5.47h7.67a2.73 2.73 0 0 1 2.74 2.74zM267.45 49.27a2.73 2.73 0 0 1-2.74 2.74h-7.67a2.73 2.73 0 1 1 0-5.47h7.67a2.73 2.73 0 0 1 2.74 2.73z"/>
      <path fill="#facedd" d="M265.7 40.54c0 .42-.35.77-.77.77h-2.9a.77.77 0 1 1 0-1.55h2.9c.42 0 .77.35.77.78zM265.7 48.22c0 .42-.35.77-.77.77h-2.9a.77.77 0 1 1 0-1.55h2.9c.42 0 .77.35.77.78z"/>
    </g>
  </g>
</svg>
