<svg xmlns="http://www.w3.org/2000/svg" viewBox="0 0 270.93 135.47">
  <g transform="translate(-296.4 -801.17)">
    <rect width="204.93" height="55.37" x="329.37" y="875.59" fill="#fff" stroke="#f57c00" stroke-linecap="round" stroke-linejoin="round" stroke-width="1.32" ry="5.23"/>
    <path fill="#fff" stroke="#f57c00" stroke-linecap="round" stroke-linejoin="round" stroke-width="1.32" d="M302.65 861.76c-2.85 0-6.31 2.6-5.15 5.24l9.92 22.54-9.92 22.55c0 2.9 2.3 5.24 5.15 5.24h26.72v-36.51c0-2.9 2.33-5.23 5.22-5.23h21.69V867c0-2.9-2.3-5.24-5.15-5.24z"/>
    <path fill="#f57c00" d="M351.56 861.65c-.4.02-.78.16-1.13.44 0 0-12.8 8.92-16.28 12.07-.62.56-1.18 1.03-1.69 1.43h23.79v-8.23c0-2.46-2.55-5.8-4.7-5.7z"/>
    <g>
      <path fill="#fff" stroke="#f57c00" stroke-linecap="round" stroke-linejoin="round" stroke-width="1.32" d="M512.61 861.76a5.18 5.18 0 0 0-5.14 5.24v8.6h21.6c2.9 0 5.23 2.32 5.23 5.22v36.51h26.8a5.18 5.18 0 0 0 5.14-5.24l-9.91-22.55 9.91-22.54c1.17-2.65-2.3-5.24-5.14-5.24z"/>
      <path fill="#f57c00" d="M512.19 861.65c.4.02.78.16 1.13.44 0 0 12.8 8.92 16.27 12.07.63.56 1.19 1.03 1.69 1.43H507.5v-8.23c0-2.46 2.54-5.8 4.69-5.7z"/>
    </g>
  </g>
  <g fill="#f57c00" stroke-width=".26" font-family="Funhouse" font-size="19.4" font-weight="400" letter-spacing="0" word-spacing="0">
    <g aria-label="additions with" style="line-height:1.25;-inkscape-font-specification:'Funhouse, Normal';font-variant-ligatures:normal;font-variant-caps:normal;font-variant-numeric:normal;font-feature-settings:normal;text-align:start">
      <path d="M55.04 95.92l-.67 1.9-3.73-2.26 4.68-11.01 3.56-.25 5.6 11.4-4.42 2.11-.98-2.66zm3.24-4.15l-1.06-3.43-1.25 3.79zM65.57 97.81l-.6-13.26q12.92 0 12.92 6.63t-12.32 6.63zm3.37-9.75l.64 4.59q4.1.02 4.1-2.29 0-2.3-4.74-2.3zM78.99 97.81l-.6-13.26q12.91 0 12.91 6.63T79 97.81zm3.37-9.75l.63 4.59q4.1.02 4.1-2.29 0-2.3-4.73-2.3zM96.2 84.62l.96 12.78-5.36 1.02.24-13.46zM105.3 88.58l.46 8.08-5.13 1.32.88-9.64-3.88-.33.3-3.51 11.12-.66.4 5.18zM114.34 84.62l.97 12.78-5.36 1.02.24-13.46zM123.5 97.81q-3.2 0-5.46-1.94t-2.26-4.69q0-2.75 2.26-4.69 2.26-1.94 5.47-1.94 3.19 0 5.44 1.94 2.27 1.94 2.27 4.69 0 2.75-2.27 4.69-2.25 1.94-5.44 1.94zm-.52-4.14q1.36 0 2.33-.83.97-.84.97-2.01 0-1.18-.97-2-.97-.84-2.33-.84-1.38 0-2.35.83-.97.83-.97 2 0 1.18.97 2.02.97.83 2.35.83zM136.45 91.18l.94 5.43-4.73 1.2-.96-12.44 4.75-.82 4.68 6.2.05-6.2 5.88-.6-2.09 13.86-3.76.55zM150.4 92.57q-3.43-.48-3.03-4.25.4-3.77 8.8-4.46l.79 4.28q-4.16-.1-4.46.98-.3 1.08 3.18 1.24 3.49.17 3.41 4.25-.08 4.08-9.18 4.36l-1.68-4.48q4.66.5 5.13-.47.46-.97-2.97-1.45zM175.72 91.18l-1.9 6.63-3.74.5-5.64-11.16 4.65-2.6 2.84 7.58 2.22-6 3.8.53 1.56 5.47 2.27-7.86 5.15 2.83-5.53 10.71-4.23-.9zM191.8 84.62l.97 12.78-5.36 1.02.24-13.46zM200.9 88.58l.47 8.08-5.13 1.32.88-9.64-3.88-.33.3-3.51 11.12-.66.4 5.18zM210.5 93.81l.34 3.2-3.63.64-1.65-10.5 4.04-1.72.45 4.55 3.64-.42.06-4.14 6.31.63-2.41 11.65-4.07-1.2.05-3.03z" style="-inkscape-font-specification:'Funhouse, Normal';font-variant-ligatures:normal;font-variant-caps:normal;font-variant-numeric:normal;font-feature-settings:normal;text-align:start"/>
    </g>
    <g aria-label="3 hundreds" style="line-height:1.25;-inkscape-font-specification:'Funhouse, Normal';font-variant-ligatures:normal;font-variant-caps:normal;font-variant-numeric:normal;font-feature-settings:normal;text-align:start">
      <path d="M80 112.03q3.02.3 2.45 3.47-.55 3.16-9.3 3.96l-.8-4.73q5.76.14 5.76-.75 0-.9-2.27-.51l-.62-3.3q2.89-.04 2.86-1.15-.03-1.12-5.12.1l.55-3.98q8.14-.54 8.82 2.62.7 3.14-2.33 4.27zM93.24 114.66l.35 3.2-3.63.64L88.3 108l4.03-1.72.46 4.55 3.64-.42.05-4.14 6.32.63-2.41 11.65-4.07-1.2.05-3.03zM104.19 106.06l5.05.99q-2.52 7.74.72 7.82 3.84-.03 2.22-8.01l4.63-1.46q2.12 13.15-6.85 13.26-9.07-.09-5.77-12.6zM122.73 112.03l.94 5.43-4.73 1.2-.96-12.44 4.75-.82 4.68 6.2.06-6.2 5.87-.61-2.09 13.87-3.76.55zM134.43 118.66l-.6-13.26q12.91 0 12.91 6.63t-12.31 6.63zm3.37-9.75l.64 4.59q4.1.02 4.1-2.29 0-2.3-4.74-2.3zM151.88 108.52l.13 2.56q4.74 0 4.74-.95 0-.94-4.87-1.6zm.63 9.37l-5.27.74 1.1-14.14q12.2.9 12.6 4.89.42 3.97-4.2 5.5l3.8 2.05-3.89 3.44-4.44-5.5zM171.34 103.7l.25 5.01-5.9.64.08 1.14 3.86-.36.34 3.43-4.03.3.07.93 5.72-.44.85 4.31-11.28.39 1.14-13.67zM173.65 118.66l-.6-13.26q12.92 0 12.92 6.63t-12.32 6.63zm3.37-9.75l.64 4.59q4.1.02 4.1-2.29 0-2.3-4.74-2.3zM189.88 113.42q-3.42-.48-3.02-4.25.4-3.77 8.79-4.47l.8 4.29q-4.16-.1-4.47.98-.3 1.08 3.19 1.24 3.48.16 3.4 4.25-.07 4.08-9.17 4.36l-1.68-4.49q4.66.5 5.13-.46.46-.98-2.97-1.45z" style="-inkscape-font-specification:'Funhouse, Normal';font-variant-ligatures:normal;font-variant-caps:normal;font-variant-numeric:normal;font-feature-settings:normal;text-align:start"/>
    </g>
  </g>
  <g fill="#fff" stroke="#f57c00" stroke-width="1.06" aria-label="200" font-family="Funhouse" font-size="28.22" font-weight="400" letter-spacing="0" style="line-height:1.25;-inkscape-font-specification:'Funhouse, Normal';font-variant-ligatures:normal;font-variant-caps:normal;font-variant-numeric:normal;font-feature-settings:normal;text-align:start" word-spacing="0">
    <path d="M17.79 18.54q-4.98.69-4.11 3.32l7.26-.54 1.64 7.91-17.32-1.8q-.22-11.87 4.85-12.1 5.07-.24 4.63-1.81-.44-1.57-6.5-1.43l1.17-6.23q12.2 1 12.78 6.49.58 5.48-4.4 6.19zM34.68 27.55q-4.66 0-7.95-2.83-3.28-2.82-3.28-6.82t3.28-6.82q3.3-2.82 7.95-2.82 4.64 0 7.92 2.82 3.3 2.83 3.3 6.82 0 4-3.3 6.82-3.28 2.83-7.92 2.83zm-.77-6.02q1.98 0 3.39-1.22 1.42-1.2 1.42-2.92 0-1.7-1.42-2.92-1.4-1.21-3.4-1.21-1.99 0-3.4 1.21t-1.41 2.92q0 1.71 1.4 2.92 1.42 1.22 3.42 1.22zM57.83 27.55q-4.66 0-7.95-2.83-3.28-2.82-3.28-6.82t3.28-6.82q3.3-2.82 7.95-2.82 4.64 0 7.92 2.82 3.3 2.83 3.3 6.82 0 4-3.3 6.82-3.28 2.83-7.92 2.83zm-.77-6.02q1.98 0 3.39-1.22 1.42-1.2 1.42-2.92 0-1.7-1.42-2.92-1.4-1.21-3.4-1.21-1.99 0-3.4 1.21t-1.41 2.92q0 1.71 1.4 2.92 1.42 1.22 3.42 1.22z" style="-inkscape-font-specification:'Funhouse, Normal';font-variant-ligatures:normal;font-variant-caps:normal;font-variant-numeric:normal;font-feature-settings:normal;text-align:start"/>
  </g>
  <g fill="#fff" stroke="#f57c00" stroke-width="1.06" aria-label="500" font-family="Funhouse" font-size="28.22" font-weight="400" letter-spacing="0" style="line-height:1.25;-inkscape-font-specification:'Funhouse, Normal';font-variant-ligatures:normal;font-variant-caps:normal;font-variant-numeric:normal;font-feature-settings:normal;text-align:start" word-spacing="0">
    <path d="M113 16.6q4.99.69 4.4 6.17-.57 5.49-12.78 6.5l-1.16-6.23q6.05.13 6.5-1.44.43-1.57-4.64-1.8-5.07-.24-4.85-12.12L117.8 5.9l-1.64 7.91-7.26-.54q-.87 2.64 4.1 3.34zM129.9 27.58q-4.66 0-7.96-2.82-3.28-2.83-3.28-6.82 0-4 3.28-6.82 3.3-2.83 7.95-2.83t7.93 2.83q3.29 2.82 3.29 6.82t-3.3 6.82q-3.27 2.82-7.92 2.82zm-.78-6.02q1.99 0 3.4-1.21t1.41-2.92q0-1.71-1.42-2.92-1.4-1.22-3.39-1.22-2 0-3.42 1.22-1.4 1.2-1.4 2.92 0 1.7 1.4 2.92 1.42 1.21 3.42 1.21zM153.04 27.58q-4.65 0-7.95-2.82-3.28-2.83-3.28-6.82 0-4 3.28-6.82 3.3-2.83 7.95-2.83t7.93 2.83q3.3 2.82 3.3 6.82t-3.3 6.82q-3.28 2.82-7.93 2.82zm-.77-6.02q1.99 0 3.4-1.21t1.41-2.92q0-1.71-1.42-2.92-1.4-1.22-3.39-1.22-2 0-3.42 1.22-1.4 1.2-1.4 2.92 0 1.7 1.4 2.92 1.42 1.21 3.42 1.21z" style="-inkscape-font-specification:'Funhouse, Normal';font-variant-ligatures:normal;font-variant-caps:normal;font-variant-numeric:normal;font-feature-settings:normal;text-align:start"/>
  </g>
  <g fill="#fff" stroke="#f57c00" stroke-width="1.06" aria-label="921" font-family="Funhouse" font-size="28.22" font-weight="400" letter-spacing="0" style="line-height:1.25;-inkscape-font-specification:'Funhouse, Normal';font-variant-ligatures:normal;font-variant-caps:normal;font-variant-numeric:normal;font-feature-settings:normal;text-align:start" word-spacing="0">
    <path d="M206 8.63q10.72.1 6.45 18.8l-7.91-1.38 2.5-4.98q-10.95 2.28-11.35-5.14-.4-7.43 10.3-7.3zm-.88 5.39q-2.43 0-2.43 1.65t2.43 1.65q2.43 0 2.43-1.65t-2.43-1.65z" style="-inkscape-font-specification:'Funhouse, Normal';font-variant-ligatures:normal;font-variant-caps:normal;font-variant-numeric:normal;font-feature-settings:normal;text-align:start"/>
    <path d="M227.22 18.54q-4.98.69-4.1 3.32l7.25-.54 1.64 7.91-17.32-1.8q-.22-11.87 4.85-12.1 5.07-.24 4.63-1.81-.44-1.57-6.49-1.43l1.16-6.23q12.21 1 12.79 6.49.58 5.48-4.41 6.19zM245.26 27.36l-9.43-.4 1.59-13.03-3.26 1.31-1.28-5.43 9.91-3.04z" style="-inkscape-font-specification:'Funhouse, Normal';font-variant-ligatures:normal;font-variant-caps:normal;font-variant-numeric:normal;font-feature-settings:normal;text-align:start"/>
  </g>
  <g fill="#00c853">
    <path d="M84.76 6.63a3.63 3.63 0 0 1 3.64 3.65v14.57a3.63 3.63 0 1 1-7.29 0V10.28a3.63 3.63 0 0 1 3.65-3.65z"/>
    <path d="M95.68 17.56a3.63 3.63 0 0 1-3.64 3.64H77.47a3.63 3.63 0 1 1 0-7.28h14.57a3.63 3.63 0 0 1 3.64 3.64z"/>
  </g>
  <path fill="#c7ffde" d="M86.33 8.38c.52 0 .94.42.94.94v3.51a.93.93 0 1 1-1.88 0v-3.5c0-.53.42-.95.94-.95z"/>
  <path fill="#e91e63" d="M266.21 12.86c0 1.86-1.5 3.36-3.35 3.36h-9.4a3.35 3.35 0 1 1 0-6.71h9.4c1.86 0 3.35 1.5 3.35 3.35zM266.21 22.26c0 1.86-1.5 3.35-3.35 3.35h-9.4a3.35 3.35 0 1 1 0-6.7h9.4c1.86 0 3.35 1.49 3.35 3.35z"/>
  <path fill="#facedd" d="M264.07 11.55c0 .53-.42.95-.95.95h-3.54a.94.94 0 1 1 0-1.9h3.54c.53 0 .95.43.95.95zM264.07 20.96c0 .53-.42.95-.95.95h-3.54a.94.94 0 1 1 0-1.9h3.54c.53 0 .95.43.95.95z"/>
  <g>
    <g fill="#00c853">
      <path d="M179.97 6.63a3.63 3.63 0 0 1 3.64 3.65v14.57a3.63 3.63 0 1 1-7.28 0V10.28a3.63 3.63 0 0 1 3.64-3.65z"/>
      <path d="M190.9 17.56a3.63 3.63 0 0 1-3.65 3.64h-14.57a3.63 3.63 0 1 1 0-7.28h14.57a3.63 3.63 0 0 1 3.65 3.64z"/>
    </g>
    <path fill="#c7ffde" d="M181.54 8.38c.52 0 .94.42.94.94v3.51a.93.93 0 1 1-1.87 0v-3.5c0-.53.41-.95.93-.95z"/>
  </g>
  <g>
    <g fill="#fff" stroke="#f57c00" stroke-width="1.06" aria-label="127" font-family="Funhouse" font-size="28.22" font-weight="400" letter-spacing="0" style="line-height:1.25;-inkscape-font-specification:'Funhouse, Normal';font-variant-ligatures:normal;font-variant-caps:normal;font-variant-numeric:normal;font-feature-settings:normal;text-align:start" word-spacing="0">
      <path d="M17.72 53l-9.42-.4 1.58-13.03-3.25 1.31-1.28-5.43 9.9-3.04zM31.16 44.17q-4.98.7-4.1 3.33l7.26-.54 1.64 7.9-17.33-1.78q-.22-11.88 4.85-12.12 5.08-.23 4.63-1.8-.44-1.57-6.49-1.43l1.16-6.23q12.21 1 12.79 6.49.58 5.48-4.41 6.18zM47.23 52.24l-9.15-3.85 6.21-9.01-6.61.87-1.85-6.36 17.76-1.43z" style="-inkscape-font-specification:'Funhouse, Normal';font-variant-ligatures:normal;font-variant-caps:normal;font-variant-numeric:normal;font-feature-settings:normal;text-align:start"/>
    </g>
    <g fill="#fff" stroke="#f57c00" stroke-width="1.06" aria-label="600" font-family="Funhouse" font-size="28.22" font-weight="400" letter-spacing="0" style="line-height:1.25;-inkscape-font-specification:'Funhouse, Normal';font-variant-ligatures:normal;font-variant-caps:normal;font-variant-numeric:normal;font-feature-settings:normal;text-align:start" word-spacing="0">
      <path d="M93.75 52.74q-10.7-.13-6.43-18.83l7.9 1.4-2.5 4.97q10.96-2.28 11.36 5.15.4 7.42-10.33 7.3zm.89-5.4q2.43 0 2.43-1.66 0-1.65-2.43-1.65t-2.43 1.65q0 1.65 2.43 1.65zM116.38 52.85q-4.66 0-7.95-2.83-3.28-2.82-3.28-6.82t3.28-6.82q3.3-2.83 7.95-2.83t7.92 2.83q3.3 2.82 3.3 6.82t-3.3 6.82q-3.27 2.83-7.92 2.83zm-.77-6.03q1.98 0 3.39-1.2 1.42-1.22 1.42-2.93 0-1.7-1.42-2.92-1.4-1.21-3.4-1.21-1.99 0-3.4 1.2-1.41 1.22-1.41 2.93 0 1.7 1.4 2.92 1.42 1.21 3.42 1.21zM139.53 52.85q-4.66 0-7.95-2.83-3.28-2.82-3.28-6.82t3.28-6.82q3.3-2.83 7.95-2.83t7.93 2.83q3.29 2.82 3.29 6.82t-3.3 6.82q-3.27 2.83-7.92 2.83zm-.77-6.03q1.98 0 3.39-1.2 1.42-1.22 1.42-2.93 0-1.7-1.42-2.92-1.4-1.21-3.39-1.21-2 0-3.42 1.2-1.4 1.22-1.4 2.93 0 1.7 1.4 2.92 1.42 1.21 3.42 1.21z" style="-inkscape-font-specification:'Funhouse, Normal';font-variant-ligatures:normal;font-variant-caps:normal;font-variant-numeric:normal;font-feature-settings:normal;text-align:start"/>
    </g>
    <g fill="#fff" stroke="#f57c00" stroke-width="1.06" aria-label="800" font-family="Funhouse" font-size="28.22" font-weight="400" letter-spacing="0" style="line-height:1.25;-inkscape-font-specification:'Funhouse, Normal';font-variant-ligatures:normal;font-variant-caps:normal;font-variant-numeric:normal;font-feature-settings:normal;text-align:start" word-spacing="0">
      <path d="M189.98 37.03q-.76 0-1.3.43-.52.43-.52 1.03 0 .61.52 1.04.54.42 1.3.42.74 0 1.27-.42.53-.43.53-1.04 0-.6-.53-1.03-.53-.43-1.27-.43zm.27 7.09q-1.14 0-1.95.46-.82.47-.82 1.15 0 .67.82 1.16.81.46 1.95.46 1.16 0 1.97-.46.82-.49.82-1.16 0-.68-.82-1.15-.8-.46-1.97-.46zm5.06-2.25q.54.29 1.03.65 2.28 1.72 2.28 4.16 0 2.42-2.29 4.15-2.27 1.72-5.5 1.72-3.24 0-5.52-1.72-2.28-1.73-2.28-4.15 0-2.44 2.3-4.16.35-.26.72-.5-1.46-1.43-1.46-3.4 0-2.17 1.76-3.68 1.77-1.53 4.26-1.53 2.48 0 4.25 1.53 1.76 1.51 1.76 3.68 0 1.86-1.3 3.25zM210.53 52.99q-4.66 0-7.96-2.82-3.28-2.83-3.28-6.83t3.28-6.82q3.3-2.82 7.96-2.82 4.64 0 7.92 2.82 3.3 2.83 3.3 6.82 0 4-3.3 6.83-3.28 2.82-7.92 2.82zm-.78-6.02q1.99 0 3.4-1.21 1.41-1.22 1.41-2.93 0-1.7-1.42-2.92-1.4-1.21-3.39-1.21-2 0-3.41 1.21-1.41 1.22-1.41 2.92 0 1.71 1.4 2.93 1.43 1.2 3.42 1.2zM233.68 52.99q-4.66 0-7.96-2.82-3.27-2.83-3.27-6.83t3.27-6.82q3.3-2.82 7.96-2.82 4.64 0 7.92 2.82 3.3 2.83 3.3 6.82 0 4-3.3 6.83-3.28 2.82-7.92 2.82zm-.78-6.02q1.99 0 3.4-1.21 1.41-1.22 1.41-2.93 0-1.7-1.42-2.92-1.4-1.21-3.39-1.21-2 0-3.41 1.21-1.4 1.22-1.4 2.92 0 1.71 1.4 2.93 1.42 1.2 3.41 1.2z" style="-inkscape-font-specification:'Funhouse, Normal';font-variant-ligatures:normal;font-variant-caps:normal;font-variant-numeric:normal;font-feature-settings:normal;text-align:start"/>
    </g>
    <g fill="#00c853">
      <path d="M69.95 32.27a3.63 3.63 0 0 1 3.65 3.64v14.57a3.63 3.63 0 1 1-7.29 0V35.91a3.63 3.63 0 0 1 3.64-3.64z"/>
      <path d="M80.88 43.2a3.63 3.63 0 0 1-3.64 3.64H62.67a3.63 3.63 0 1 1 0-7.28h14.57a3.63 3.63 0 0 1 3.64 3.64z"/>
    </g>
    <path fill="#c7ffde" d="M71.53 34.02c.52 0 .93.42.93.94v3.51a.93.93 0 1 1-1.87 0v-3.51c0-.52.42-.94.94-.94z"/>
    <path fill="#e91e63" d="M266.21 38.5c0 1.86-1.5 3.36-3.35 3.36h-9.4a3.35 3.35 0 1 1 0-6.71h9.4c1.86 0 3.35 1.5 3.35 3.35zM266.21 47.9c0 1.86-1.5 3.35-3.35 3.35h-9.4a3.35 3.35 0 1 1 0-6.7h9.4c1.86 0 3.35 1.49 3.35 3.35z"/>
    <path fill="#facedd" d="M264.07 37.2c0 .51-.42.94-.95.94h-3.54a.94.94 0 1 1 0-1.9h3.54c.53 0 .95.43.95.95zM264.07 46.6c0 .52-.42.95-.95.95h-3.54a.94.94 0 1 1 0-1.9h3.54c.53 0 .95.43.95.95z"/>
    <g>
      <g fill="#00c853">
        <path d="M166.9 32.27a3.63 3.63 0 0 1 3.63 3.64v14.57a3.63 3.63 0 1 1-7.28 0V35.91a3.63 3.63 0 0 1 3.64-3.64z"/>
        <path d="M177.82 43.2a3.63 3.63 0 0 1-3.64 3.64H159.6a3.63 3.63 0 1 1 0-7.28h14.57a3.63 3.63 0 0 1 3.64 3.64z"/>
      </g>
      <path fill="#c7ffde" d="M168.47 34.02c.51 0 .93.42.93.94v3.51a.93.93 0 1 1-1.87 0v-3.51c0-.52.42-.94.94-.94z"/>
    </g>
  </g>
</svg>
