<svg xmlns="http://www.w3.org/2000/svg" viewBox="0 0 270.93 135.47">
  <g transform="translate(-874 -354.45)">
    <rect width="204.93" height="55.37" x="906.95" y="428.87" fill="#fff" stroke="#f57c00" stroke-linecap="round" stroke-linejoin="round" stroke-width="1.32" ry="5.23"/>
    <path fill="#fff" stroke="#f57c00" stroke-linecap="round" stroke-linejoin="round" stroke-width="1.32" d="M880.24 415.03c-2.85 0-6.32 2.6-5.15 5.25l9.91 22.54-9.91 22.54c0 2.9 2.3 5.25 5.15 5.25h26.71v-36.52c0-2.9 2.33-5.22 5.23-5.22h21.68v-8.6c0-2.9-2.3-5.24-5.14-5.24z"/>
    <path fill="#f57c00" d="M929.15 414.93c-.4.02-.79.15-1.14.44 0 0-12.8 8.91-16.27 12.06-.62.57-1.18 1.03-1.69 1.44h23.79v-8.23c0-2.47-2.55-5.81-4.7-5.71z"/>
    <path fill="#fff" stroke="#f57c00" stroke-linecap="round" stroke-linejoin="round" stroke-width="1.32" d="M1090.2 415.03a5.18 5.18 0 0 0-5.14 5.25v8.59h21.6c2.9 0 5.22 2.33 5.22 5.22v36.52h26.8a5.18 5.18 0 0 0 5.15-5.25l-9.91-22.54 9.91-22.54c1.17-2.65-2.3-5.25-5.15-5.25z"/>
    <path fill="#f57c00" d="M1089.77 414.93c.4.02.79.15 1.14.44 0 0 12.8 8.91 16.27 12.06.62.57 1.18 1.03 1.69 1.44h-23.79v-8.23c0-2.47 2.55-5.81 4.7-5.71z"/>
    <g fill="#f57c00" stroke-width=".26" font-family="Funhouse" font-size="19.4" font-weight="400" letter-spacing="0" word-spacing="0">
      <g aria-label="additions with" style="line-height:1.25;-inkscape-font-specification:'Funhouse, Normal';font-variant-ligatures:normal;font-variant-caps:normal;font-variant-numeric:normal;font-feature-settings:normal;text-align:start">
        <path d="M929.03 450.64l-.66 1.9-3.74-2.26 4.68-11 3.57-.25 5.6 11.4-4.43 2.1-.97-2.66zm3.24-4.15l-1.06-3.43-1.25 3.8zM939.57 452.54l-.61-13.27q12.92 0 12.92 6.63 0 6.64-12.31 6.64zm3.37-9.75l.63 4.58q4.1.02 4.1-2.28t-4.73-2.3zM952.98 452.54l-.6-13.27q12.92 0 12.92 6.63 0 6.64-12.32 6.64zm3.37-9.75l.64 4.58q4.1.02 4.1-2.28t-4.74-2.3zM970.19 439.35l.96 12.78-5.36 1.01.25-13.46zM979.29 443.3l.46 8.08-5.13 1.33.88-9.65-3.87-.33.3-3.5 11.11-.67.4 5.18zM988.34 439.35l.96 12.78-5.36 1.01.25-13.46zM997.5 452.54q-3.2 0-5.47-1.95-2.25-1.94-2.25-4.69 0-2.74 2.25-4.69 2.27-1.94 5.47-1.94 3.2 0 5.45 1.94 2.26 1.95 2.26 4.7 0 2.74-2.26 4.68-2.26 1.95-5.45 1.95zm-.53-4.14q1.36 0 2.33-.84.97-.83.97-2 0-1.18-.97-2.01-.97-.84-2.33-.84-1.38 0-2.35.84-.97.83-.97 2 0 1.18.97 2.01.97.84 2.35.84zM1010.44 445.9l.94 5.43-4.73 1.2-.96-12.43 4.75-.83 4.68 6.2.06-6.2 5.87-.6-2.08 13.87-3.76.55zM1024.39 447.3q-3.42-.49-3.03-4.26.4-3.77 8.8-4.46l.8 4.28q-4.17-.1-4.47.99-.3 1.08 3.18 1.24 3.49.16 3.41 4.24-.07 4.09-9.18 4.36l-1.67-4.48q4.66.5 5.12-.46.47-.98-2.96-1.45zM1049.71 445.9l-1.9 6.64-3.74.49-5.63-11.15 4.64-2.6 2.84 7.57 2.23-5.99 3.79.53 1.56 5.46 2.27-7.85 5.16 2.82-5.54 10.72-4.23-.91zM1065.8 439.35l.96 12.78-5.36 1.01.25-13.46zM1074.9 443.3l.47 8.08-5.14 1.33.88-9.65-3.87-.33.3-3.5 11.11-.67.41 5.18zM1084.49 448.54l.34 3.2-3.63.64-1.65-10.5 4.04-1.73.45 4.55 3.64-.42.06-4.14 6.32.64-2.42 11.64-4.06-1.2.05-3.02z" style="-inkscape-font-specification:'Funhouse, Normal';font-variant-ligatures:normal;font-variant-caps:normal;font-variant-numeric:normal;font-feature-settings:normal;text-align:start"/>
      </g>
      <g aria-label="2 tens" style="line-height:1.25;-inkscape-font-specification:'Funhouse, Normal';font-variant-ligatures:normal;font-variant-caps:normal;font-variant-numeric:normal;font-feature-settings:normal;text-align:start">
        <path d="M984 467.19q-3.43.47-2.83 2.28l5-.37 1.12 5.44-11.91-1.23q-.15-8.17 3.33-8.33 3.5-.16 3.19-1.24-.3-1.08-4.46-.98l.8-4.29q8.38.7 8.78 4.47.4 3.77-3.03 4.25zM1000.36 464.16l.47 8.07-5.14 1.33.88-9.65-3.87-.33.3-3.5 11.11-.67.41 5.18zM1014.45 458.42l.25 5.02-5.9.63.08 1.15 3.86-.36.35 3.43-4.04.3.07.92 5.72-.44.85 4.32-11.28.38 1.14-13.67zM1020.9 466.75l.94 5.43-4.73 1.2-.95-12.43 4.74-.83 4.68 6.2.06-6.2 5.87-.6-2.08 13.87-3.76.54zM1034.85 468.15q-3.42-.49-3.02-4.26.4-3.77 8.79-4.46l.8 4.28q-4.17-.1-4.47.99-.3 1.08 3.18 1.24 3.5.16 3.41 4.24-.07 4.09-9.18 4.36l-1.67-4.48q4.66.5 5.12-.46.47-.98-2.96-1.45z" style="-inkscape-font-specification:'Funhouse, Normal';font-variant-ligatures:normal;font-variant-caps:normal;font-variant-numeric:normal;font-feature-settings:normal;text-align:start"/>
      </g>
    </g>
    <g>
      <g fill="#fff" stroke="#f57c00" stroke-width="1.06" aria-label="20" font-family="Funhouse" font-size="28.22" font-weight="400" letter-spacing="0" style="line-height:1.25;-inkscape-font-specification:'Funhouse, Normal';font-variant-ligatures:normal;font-variant-caps:normal;font-variant-numeric:normal;font-feature-settings:normal;text-align:start" word-spacing="0">
        <path d="M954.62 375.66q-4.97.69-4.1 3.32l7.26-.54 1.64 7.91-17.32-1.79q-.22-11.88 4.85-12.11 5.07-.24 4.63-1.8-.44-1.58-6.5-1.44l1.17-6.23q12.2 1 12.78 6.49.58 5.48-4.4 6.19zM971.52 384.67q-4.66 0-7.95-2.82-3.28-2.83-3.28-6.83t3.28-6.82q3.3-2.82 7.95-2.82 4.64 0 7.92 2.82 3.3 2.83 3.3 6.82 0 4-3.3 6.83-3.28 2.82-7.92 2.82zm-.77-6.02q1.98 0 3.39-1.21 1.42-1.22 1.42-2.93 0-1.7-1.42-2.92-1.4-1.21-3.4-1.21t-3.41 1.21q-1.4 1.22-1.4 2.92 0 1.71 1.4 2.93 1.42 1.2 3.42 1.2z" style="-inkscape-font-specification:'Funhouse, Normal';font-variant-ligatures:normal;font-variant-caps:normal;font-variant-numeric:normal;font-feature-settings:normal;text-align:start"/>
      </g>
      <g fill="#fff" stroke="#f57c00" stroke-width="1.06" aria-label="35" font-family="Funhouse" font-size="28.22" font-weight="400" letter-spacing="0" style="line-height:1.25;-inkscape-font-specification:'Funhouse, Normal';font-variant-ligatures:normal;font-variant-caps:normal;font-variant-numeric:normal;font-feature-settings:normal;text-align:start" word-spacing="0">
        <path d="M1030.93 375.06q4.4.44 3.57 5.04-.81 4.6-13.53 5.76l-1.16-6.87q8.37.2 8.37-1.1t-3.3-.74l-.9-4.8q4.2-.05 4.15-1.67-.04-1.63-7.44.16l.8-5.8q11.84-.79 12.83 3.8 1 4.58-3.39 6.22zM1048.76 373.72q5 .69 4.41 6.17-.58 5.49-12.79 6.5l-1.15-6.23q6.05.13 6.49-1.44.44-1.57-4.63-1.8-5.07-.24-4.85-12.11l17.32-1.8-1.64 7.91-7.26-.53q-.87 2.63 4.1 3.33z" style="-inkscape-font-specification:'Funhouse, Normal';font-variant-ligatures:normal;font-variant-caps:normal;font-variant-numeric:normal;font-feature-settings:normal;text-align:start"/>
      </g>
      <g fill="#00c853">
        <path d="M1001.22 363.75a3.63 3.63 0 0 1 3.65 3.65v14.57a3.63 3.63 0 1 1-7.29 0V367.4a3.63 3.63 0 0 1 3.64-3.65z"/>
        <path d="M1012.15 374.68a3.63 3.63 0 0 1-3.64 3.65h-14.57a3.63 3.63 0 1 1 0-7.29h14.57a3.63 3.63 0 0 1 3.64 3.64z"/>
      </g>
      <path fill="#c7ffde" d="M1002.8 365.5c.52 0 .94.42.94.94v3.51a.93.93 0 1 1-1.88 0v-3.5c0-.53.42-.94.94-.94z"/>
      <g>
        <path fill="#e91e63" d="M1077.36 369.98c0 1.86-1.5 3.36-3.36 3.36h-9.4a3.35 3.35 0 1 1 0-6.71h9.4c1.86 0 3.36 1.5 3.36 3.35zM1077.36 379.38c0 1.86-1.5 3.36-3.36 3.36h-9.4a3.35 3.35 0 1 1 0-6.72h9.4c1.86 0 3.36 1.5 3.36 3.36z"/>
        <path fill="#facedd" d="M1075.22 368.67c0 .53-.43.95-.95.95h-3.54a.94.94 0 1 1 0-1.89h3.54c.52 0 .95.42.95.94zM1075.22 378.08c0 .53-.43.95-.95.95h-3.54a.94.94 0 1 1 0-1.9h3.54c.52 0 .95.43.95.95z"/>
      </g>
      <g>
        <g fill="#fff" stroke="#f57c00" stroke-width="1.06" aria-label="76" font-family="Funhouse" font-size="28.22" font-weight="400" letter-spacing="0" style="line-height:1.25;-inkscape-font-specification:'Funhouse, Normal';font-variant-ligatures:normal;font-variant-caps:normal;font-variant-numeric:normal;font-feature-settings:normal;text-align:start" word-spacing="0">
          <path d="M953.65 413.32l-9.16-3.84 6.22-9.01-6.61.86-1.85-6.35 17.76-1.43zM967.4 414.16q-10.7-.12-6.44-18.82l7.91 1.4-2.5 4.97q10.95-2.28 11.35 5.15.4 7.41-10.32 7.3zm.88-5.4q2.44 0 2.44-1.65 0-1.66-2.44-1.66-2.43 0-2.43 1.66 0 1.65 2.43 1.65z" style="-inkscape-font-specification:'Funhouse, Normal';font-variant-ligatures:normal;font-variant-caps:normal;font-variant-numeric:normal;font-feature-settings:normal;text-align:start"/>
        </g>
        <g fill="#fff" stroke="#f57c00" stroke-width="1.06" aria-label="80" font-family="Funhouse" font-size="28.22" font-weight="400" letter-spacing="0" style="line-height:1.25;-inkscape-font-specification:'Funhouse, Normal';font-variant-ligatures:normal;font-variant-caps:normal;font-variant-numeric:normal;font-feature-settings:normal;text-align:start" word-spacing="0">
          <path d="M1021.84 397.66q-.76 0-1.3.43-.52.42-.52 1.03 0 .6.52 1.03.54.43 1.3.43.74 0 1.27-.43.53-.42.53-1.03 0-.6-.53-1.03-.53-.43-1.27-.43zm.27 7.08q-1.14 0-1.95.47-.82.47-.82 1.14 0 .68.82 1.16.81.47 1.95.47 1.16 0 1.97-.47.82-.48.82-1.16 0-.67-.82-1.14-.8-.47-1.97-.47zm5.06-2.24q.54.28 1.03.64 2.28 1.73 2.28 4.16t-2.29 4.15q-2.27 1.73-5.5 1.73-3.24 0-5.52-1.73-2.28-1.72-2.28-4.15 0-2.43 2.29-4.16.36-.26.73-.5-1.46-1.43-1.46-3.4 0-2.16 1.76-3.68 1.77-1.53 4.26-1.53 2.48 0 4.25 1.53 1.76 1.52 1.76 3.68 0 1.86-1.3 3.26zM1042.38 413.62q-4.65 0-7.95-2.83-3.28-2.82-3.28-6.82t3.28-6.82q3.3-2.83 7.95-2.83t7.93 2.83q3.3 2.82 3.3 6.82t-3.3 6.82q-3.28 2.83-7.93 2.83zm-.77-6.03q1.99 0 3.4-1.2 1.41-1.22 1.41-2.93 0-1.7-1.42-2.92-1.4-1.21-3.39-1.21-2 0-3.41 1.2-1.41 1.22-1.41 2.93 0 1.7 1.4 2.92 1.42 1.21 3.42 1.21z" style="-inkscape-font-specification:'Funhouse, Normal';font-variant-ligatures:normal;font-variant-caps:normal;font-variant-numeric:normal;font-feature-settings:normal;text-align:start"/>
        </g>
        <g fill="#00c853">
          <path d="M996.31 392.9a3.63 3.63 0 0 1 3.65 3.64v14.57a3.63 3.63 0 1 1-7.29 0v-14.57a3.63 3.63 0 0 1 3.64-3.64z"/>
          <path d="M1007.24 403.83a3.63 3.63 0 0 1-3.64 3.64h-14.57a3.63 3.63 0 1 1 0-7.29h14.57a3.63 3.63 0 0 1 3.64 3.65z"/>
        </g>
        <path fill="#c7ffde" d="M997.89 394.65c.52 0 .93.42.93.93v3.52a.93.93 0 1 1-1.87 0v-3.52c0-.51.42-.93.94-.93z"/>
        <g>
          <path fill="#e91e63" d="M1077.36 399.13c0 1.86-1.5 3.35-3.36 3.35h-9.4a3.35 3.35 0 1 1 0-6.7h9.4c1.86 0 3.36 1.49 3.36 3.35zM1077.36 408.52c0 1.86-1.5 3.36-3.36 3.36h-9.4a3.35 3.35 0 1 1 0-6.71h9.4c1.86 0 3.36 1.5 3.36 3.35z"/>
          <path fill="#facedd" d="M1075.22 397.82c0 .52-.43.94-.95.94h-3.54a.94.94 0 1 1 0-1.89h3.54c.52 0 .95.42.95.95zM1075.22 407.23c0 .52-.43.94-.95.94h-3.54a.94.94 0 1 1 0-1.89h3.54c.52 0 .95.42.95.95z"/>
        </g>
      </g>
    </g>
  </g>
</svg>
