<svg xmlns="http://www.w3.org/2000/svg" viewBox="0 0 270.93 135.47">
  <g transform="translate(-296.4 -801.17)">
    <rect width="204.93" height="55.37" x="329.37" y="875.59" fill="#fff" stroke="#f57c00" stroke-linecap="round" stroke-linejoin="round" stroke-width="1.32" ry="5.23"/>
    <path fill="#fff" stroke="#f57c00" stroke-linecap="round" stroke-linejoin="round" stroke-width="1.32" d="M302.65 861.76c-2.85 0-6.31 2.6-5.15 5.24l9.92 22.54-9.92 22.55c0 2.9 2.3 5.24 5.15 5.24h26.72v-36.51c0-2.9 2.33-5.23 5.22-5.23h21.69V867c0-2.9-2.3-5.24-5.15-5.24z"/>
    <path fill="#f57c00" d="M351.56 861.65c-.4.02-.78.16-1.13.44 0 0-12.8 8.92-16.28 12.07-.62.56-1.18 1.03-1.69 1.43h23.79v-8.23c0-2.46-2.55-5.8-4.7-5.7z"/>
    <g>
      <path fill="#fff" stroke="#f57c00" stroke-linecap="round" stroke-linejoin="round" stroke-width="1.32" d="M512.61 861.76a5.18 5.18 0 0 0-5.14 5.24v8.6h21.6c2.9 0 5.23 2.32 5.23 5.22v36.51h26.8a5.18 5.18 0 0 0 5.14-5.24l-9.91-22.55 9.91-22.54c1.17-2.65-2.3-5.24-5.14-5.24z"/>
      <path fill="#f57c00" d="M512.19 861.65c.4.02.78.16 1.13.44 0 0 12.8 8.92 16.27 12.07.63.56 1.19 1.03 1.69 1.43H507.5v-8.23c0-2.46 2.54-5.8 4.69-5.7z"/>
    </g>
  </g>
  <g fill="#f57c00" stroke-width=".26" font-size="15.88" font-weight="400" letter-spacing="0" word-spacing="0">
    <g aria-label="with thousands" font-family="Funhouse" style="line-height:1.25;-inkscape-font-specification:'Funhouse, Normal';font-variant-ligatures:normal;font-variant-caps:normal;font-variant-numeric:normal;font-feature-settings:normal;text-align:start">
      <path d="M68.14 118.48l-1.55 5.43-3.06.4-4.61-9.12 3.8-2.13 2.32 6.2 1.82-4.9 3.1.43 1.28 4.47 1.86-6.43 4.22 2.31-4.53 8.77-3.46-.74zM81.3 113.12l.8 10.46-4.4.83.2-11.02zM88.75 116.36l.38 6.6-4.2 1.09.72-7.9-3.17-.26.25-2.87 9.1-.54.32 4.24zM96.6 120.64l.28 2.62-2.97.52-1.35-8.6 3.3-1.4.37 3.72 2.98-.34.05-3.39 5.17.52-1.98 9.53-3.33-.99.04-2.47zM115.01 116.36l.38 6.6-4.2 1.09.72-7.9-3.17-.26.25-2.87 9.1-.54.33 4.24zM122.86 120.64l.28 2.62-2.97.52-1.35-8.6 3.3-1.4.37 3.72 2.98-.34.05-3.39 5.17.52-1.98 9.53-3.32-.99.03-2.47zM137.38 123.91q-2.62 0-4.47-1.59-1.84-1.59-1.84-3.84 0-2.24 1.84-3.83 1.85-1.6 4.47-1.6 2.62 0 4.46 1.6 1.85 1.59 1.85 3.83 0 2.25-1.85 3.84-1.84 1.59-4.46 1.59zm-.43-3.39q1.12 0 1.9-.68.8-.68.8-1.64 0-.96-.8-1.65-.78-.68-1.9-.68-1.12 0-1.92.68-.8.69-.8 1.65t.8 1.64q.8.68 1.92.68z" style="-inkscape-font-specification:'Funhouse, Normal';font-variant-ligatures:normal;font-variant-caps:normal;font-variant-numeric:normal;font-feature-settings:normal;text-align:start"/>
      <path d="M145.05 113.6l4.13.8q-2.06 6.34.6 6.4 3.14-.01 1.81-6.55l3.79-1.2q1.73 10.77-5.6 10.86-7.43-.07-4.73-10.31z" style="-inkscape-font-specification:'Funhouse, Normal';font-variant-ligatures:normal;font-variant-caps:normal;font-variant-numeric:normal;font-feature-settings:normal;text-align:start"/>
      <path d="M158.89 119.62q-2.8-.4-2.48-3.48.33-3.08 7.2-3.65l.65 3.5q-3.4-.07-3.65.81-.25.89 2.6 1.02t2.8 3.47q-.07 3.34-7.52 3.57l-1.37-3.67q3.81.41 4.2-.38.37-.8-2.43-1.19zM170.04 122.36l-.54 1.55-3.06-1.85 3.83-9 2.92-.2 4.58 9.32-3.62 1.73-.8-2.18zm2.65-3.4l-.87-2.8-1.02 3.1zM182.05 118.48l.77 4.45-3.87.98-.79-10.18 3.89-.67 3.83 5.07.04-5.07 4.81-.5-1.7 11.35-3.08.45zM191.62 123.91l-.5-10.85q10.58 0 10.58 5.42 0 5.43-10.08 5.43zm2.76-7.98l.52 3.76q3.36.01 3.36-1.87 0-1.89-3.88-1.89zM204.9 119.62q-2.8-.4-2.47-3.48.32-3.08 7.19-3.65l.65 3.5q-3.4-.07-3.65.81-.25.89 2.6 1.02 2.86.13 2.8 3.47-.07 3.34-7.52 3.57l-1.37-3.67q3.82.41 4.2-.38.38-.8-2.43-1.19z" style="-inkscape-font-specification:'Funhouse, Normal';font-variant-ligatures:normal;font-variant-caps:normal;font-variant-numeric:normal;font-feature-settings:normal;text-align:start"/>
    </g>
    <g aria-label="subtraction" font-family="Funhouse" style="line-height:1.25;-inkscape-font-specification:'Funhouse, Normal';font-variant-ligatures:normal;font-variant-caps:normal;font-variant-numeric:normal;font-feature-settings:normal;text-align:start">
      <path d="M79.62 102.95q-2.8-.4-2.47-3.48.33-3.09 7.2-3.66l.64 3.5q-3.4-.07-3.65.81-.24.89 2.6 1.02 2.86.13 2.8 3.47-.06 3.34-7.51 3.57l-1.37-3.67q3.8.41 4.19-.38.38-.8-2.43-1.18z" style="-inkscape-font-specification:'Funhouse, Normal';font-variant-ligatures:normal;font-variant-caps:normal;font-variant-numeric:normal;font-feature-settings:normal;text-align:start"/>
      <path d="M88.11 96.92l4.13.81q-2.06 6.33.6 6.4 3.14-.02 1.81-6.56l3.79-1.19q1.73 10.76-5.6 10.85-7.43-.07-4.73-10.3z" style="-inkscape-font-specification:'Funhouse, Normal';font-variant-ligatures:normal;font-variant-caps:normal;font-variant-numeric:normal;font-feature-settings:normal;text-align:start"/>
      <path d="M102.4 100.19q2.4-.45 2.35-1.37-.04-.91-2.45-.28zm.37 4.6q3.51-.14 3.52-1.22.01-1.09-3.64-1.04zm-3.37 2.44l.28-10.04q5.55-2.25 7.62-.21 2.08 2.04-.52 4.1 3.95 1.22 2.55 3.98-1.4 2.75-9.93 2.17z" style="-inkscape-font-specification:'Funhouse, Normal';font-variant-ligatures:normal;font-variant-caps:normal;font-variant-numeric:normal;font-feature-settings:normal;text-align:start"/>
      <path d="M115.25 99.68l.38 6.6-4.2 1.1.72-7.9-3.17-.27.25-2.87 9.09-.54.33 4.24zM122.85 98.94l.11 2.1q3.88 0 3.88-.78t-3.99-1.32zm.52 7.66l-4.32.61.9-11.57q9.99.74 10.32 4 .34 3.24-3.43 4.5l3.1 1.67-3.18 2.82-3.64-4.5zM133.69 105.68l-.54 1.55-3.06-1.84 3.83-9 2.92-.21 4.58 9.32-3.62 1.73-.8-2.18zm2.65-3.4l-.87-2.8-1.02 3.1zM151.59 105.64q-1.84 1.6-4.44 1.6-2.6 0-4.43-1.6-1.84-1.59-1.84-3.83 0-2.25 1.84-3.84 1.84-1.59 4.43-1.59 2.6 0 4.44 1.59.92.8 1.38 1.77l-3.72.94q-.18-.5-.65-.9-.79-.69-1.9-.69-1.1 0-1.9.69-.79.68-.79 1.64 0 .96.8 1.64.79.68 1.9.68 1.1 0 1.9-.68.42-.37.62-.83l3.74 1.65q-.46.97-1.38 1.76zM159.65 99.68l.38 6.6-4.2 1.1.72-7.9-3.17-.27.25-2.87 9.09-.54.33 4.24zM167.05 96.44l.8 10.46-4.4.83.2-11.02zM174.55 107.23q-2.62 0-4.48-1.59-1.84-1.59-1.84-3.83 0-2.25 1.84-3.84 1.86-1.59 4.48-1.59 2.6 0 4.45 1.59 1.86 1.59 1.86 3.84 0 2.24-1.86 3.83-1.84 1.6-4.45 1.6zm-.44-3.38q1.12 0 1.91-.69.8-.68.8-1.64 0-.96-.8-1.64-.8-.69-1.9-.69-1.13 0-1.93.69-.79.68-.79 1.64 0 .96.8 1.64.79.69 1.91.69zM185.14 101.8l.76 4.45-3.86.98-.79-10.17 3.89-.68 3.82 5.07.05-5.07 4.8-.5-1.7 11.35-3.08.45z" style="-inkscape-font-specification:'Funhouse, Normal';font-variant-ligatures:normal;font-variant-caps:normal;font-variant-numeric:normal;font-feature-settings:normal;text-align:start"/>
    </g>
    <g aria-label="addition" font-family="Funhouse" style="line-height:1.25;-inkscape-font-specification:'Funhouse, Normal';font-variant-ligatures:normal;font-variant-caps:normal;font-variant-numeric:normal;font-feature-settings:normal;text-align:start">
      <path d="M91 89.35l-.54 1.55-3.06-1.85 3.83-9 2.92-.2 4.58 9.32-3.62 1.73-.8-2.18zm2.65-3.4l-.87-2.8-1.02 3.1zM99.62 90.9l-.5-10.85q10.58 0 10.58 5.42 0 5.43-10.08 5.43zm2.76-7.98l.52 3.75q3.36.02 3.36-1.87 0-1.88-3.88-1.88zM110.6 90.9l-.5-10.85q10.57 0 10.57 5.42 0 5.43-10.07 5.43zm2.76-7.98l.52 3.75q3.35.02 3.35-1.87 0-1.88-3.87-1.88zM124.67 80.1l.8 10.46-4.4.83.2-11.01zM132.12 83.35l.38 6.6-4.2 1.09.72-7.9-3.17-.27.25-2.86 9.1-.55.33 4.24zM139.52 80.1l.8 10.46-4.4.83.21-11.01zM147.02 90.9q-2.62 0-4.47-1.6-1.85-1.58-1.85-3.83t1.85-3.84q1.85-1.58 4.47-1.58 2.61 0 4.46 1.58 1.85 1.6 1.85 3.84 0 2.25-1.85 3.84-1.85 1.59-4.46 1.59zm-.43-3.39q1.11 0 1.9-.68.8-.68.8-1.65 0-.96-.8-1.64-.79-.68-1.9-.68-1.13 0-1.93.68-.79.68-.79 1.64 0 .97.8 1.65.8.68 1.92.68zM157.6 85.47l.78 4.44-3.87.99-.78-10.18 3.88-.67 3.83 5.06.04-5.06 4.81-.5-1.7 11.35-3.08.45z" style="-inkscape-font-specification:'Funhouse, Normal';font-variant-ligatures:normal;font-variant-caps:normal;font-variant-numeric:normal;font-feature-settings:normal;text-align:start"/>
    </g>
    <g style="line-height:1.25;-inkscape-font-specification:'SC Gum Kids, Normal';font-variant-ligatures:normal;font-variant-caps:normal;font-variant-numeric:normal;font-feature-settings:normal;text-align:start">
      <path d="M177.97 81.69q-.3 0-.46.14l-.01.01q-.02.03-.02.11 0 .26.16.68.1.24.25.54.28-.24.48-.47.34-.4.34-.63l-.02-.08-.11-.12q-.24-.18-.6-.18zm-1.23 5.22q-.2.32-.21.66 0 .56.46 1 .48.48 1.11.48.53 0 1.03-.35-1.1-1.2-1.92-2.28-.3.23-.47.5zm1.36 4.48q-1.6 0-2.75-1.14t-1.16-2.68q0-1.04.59-1.94.43-.66 1.14-1.17-.26-.47-.43-.91-.35-.87-.35-1.6 0-.54.19-1 .22-.52.64-.89.83-.71 2-.71.82 0 1.55.36.8.42 1.22 1.15.3.56.3 1.2 0 1.12-.9 2.16-.4.48-.96.92.37.49.81 1l.58.67q.4-.85.7-1.95l2.26.6q-.5 1.86-1.26 3.14.5.52.92.91l.07.05-1.6 1.72-.25-.24-.66-.64q-1.23 1-2.63 1z" aria-label="&amp;" font-family="SC Gum Kids" style="-inkscape-font-specification:'SC Gum Kids, Normal';font-variant-ligatures:normal;font-variant-caps:normal;font-variant-numeric:normal;font-feature-settings:normal;text-align:start"/>
    </g>
  </g>
  <g fill="#fff" stroke="#f57c00" stroke-width="1.06" aria-label="3000" font-family="Funhouse" font-size="28.22" font-weight="400" letter-spacing="0" style="line-height:1.25;-inkscape-font-specification:'Funhouse, Normal';font-variant-ligatures:normal;font-variant-caps:normal;font-variant-numeric:normal;font-feature-settings:normal;text-align:start" word-spacing="0">
    <path stroke-width=".8340292" d="M18.33 17.34q3.46.34 2.81 3.97-.64 3.62-10.65 4.53l-.9-5.41q6.57.16 6.57-.86 0-1.03-2.59-.59l-.71-3.78q3.3-.03 3.27-1.31-.03-1.28-5.85.13l.63-4.57q9.3-.61 10.09 3 .8 3.6-2.67 4.89zM31.17 24.93q-3.66 0-6.26-2.23-2.58-2.22-2.58-5.36 0-3.15 2.58-5.37 2.6-2.22 6.26-2.22 3.65 0 6.24 2.22Q40 14.19 40 17.34q0 3.14-2.6 5.36-2.58 2.23-6.23 2.23zm-.6-4.74q1.55 0 2.66-.96 1.12-.95 1.12-2.3 0-1.34-1.12-2.3-1.1-.95-2.67-.95-1.57 0-2.69.96-1.1.95-1.1 2.3 0 1.34 1.1 2.3 1.12.95 2.7.95zM49.39 24.93q-3.67 0-6.26-2.23-2.58-2.22-2.58-5.36 0-3.15 2.58-5.37 2.6-2.22 6.26-2.22 3.65 0 6.23 2.22 2.6 2.22 2.6 5.37 0 3.14-2.6 5.36-2.58 2.23-6.23 2.23zm-.61-4.74q1.56 0 2.67-.96 1.11-.95 1.11-2.3 0-1.34-1.11-2.3-1.1-.95-2.67-.95-1.57 0-2.69.96-1.1.95-1.1 2.3 0 1.34 1.1 2.3 1.12.95 2.69.95zM67.6 24.93q-3.66 0-6.25-2.23-2.58-2.22-2.58-5.36 0-3.15 2.58-5.37 2.59-2.22 6.25-2.22t6.24 2.22q2.59 2.22 2.59 5.37 0 3.14-2.6 5.36-2.57 2.23-6.23 2.23zm-.6-4.74q1.56 0 2.66-.96 1.12-.95 1.12-2.3 0-1.34-1.12-2.3-1.1-.95-2.67-.95-1.57 0-2.68.96-1.11.95-1.11 2.3 0 1.34 1.1 2.3 1.12.95 2.7.95z" style="-inkscape-font-specification:'Funhouse, Normal';font-variant-ligatures:normal;font-variant-caps:normal;font-variant-numeric:normal;font-feature-settings:normal;text-align:start"/>
  </g>
  <g fill="#fff" stroke="#f57c00" stroke-width="1.06" aria-label="2000" font-family="Funhouse" font-size="28.22" font-weight="400" letter-spacing="0" style="line-height:1.25;-inkscape-font-specification:'Funhouse, Normal';font-variant-ligatures:normal;font-variant-caps:normal;font-variant-numeric:normal;font-feature-settings:normal;text-align:start" word-spacing="0">
    <path stroke-width=".8340292" d="M111.72 18.38q-3.92.55-3.24 2.62l5.72-.43 1.29 6.23-13.63-1.41q-.17-9.35 3.82-9.53 3.99-.19 3.64-1.42-.35-1.24-5.1-1.13l.9-4.9q9.61.79 10.07 5.1.45 4.32-3.47 4.87zM125 25.48q-3.66 0-6.25-2.23-2.58-2.22-2.58-5.36 0-3.15 2.58-5.37 2.6-2.22 6.26-2.22 3.65 0 6.23 2.22 2.6 2.22 2.6 5.37 0 3.14-2.6 5.36-2.58 2.23-6.23 2.23zm-.6-4.74q1.56 0 2.67-.96 1.12-.95 1.12-2.3 0-1.34-1.12-2.3-1.1-.95-2.67-.95-1.57 0-2.69.96-1.1.95-1.1 2.3 0 1.34 1.1 2.3 1.12.95 2.7.95zM143.22 25.48q-3.66 0-6.25-2.23-2.58-2.22-2.58-5.36 0-3.15 2.58-5.37 2.59-2.22 6.25-2.22t6.24 2.22q2.6 2.22 2.6 5.37 0 3.14-2.6 5.36-2.58 2.23-6.24 2.23zm-.6-4.74q1.56 0 2.66-.96 1.12-.95 1.12-2.3 0-1.34-1.12-2.3-1.1-.95-2.66-.95-1.57 0-2.7.96-1.1.95-1.1 2.3 0 1.34 1.1 2.3 1.13.95 2.7.95zM161.44 25.48q-3.66 0-6.26-2.23-2.58-2.22-2.58-5.36 0-3.15 2.58-5.37 2.6-2.22 6.26-2.22 3.65 0 6.23 2.22 2.6 2.22 2.6 5.37 0 3.14-2.6 5.36-2.58 2.23-6.23 2.23zm-.6-4.74q1.55 0 2.66-.96 1.12-.95 1.12-2.3 0-1.34-1.12-2.3-1.1-.95-2.67-.95-1.57 0-2.69.96-1.1.95-1.1 2.3 0 1.34 1.1 2.3 1.12.95 2.7.95z" style="-inkscape-font-specification:'Funhouse, Normal';font-variant-ligatures:normal;font-variant-caps:normal;font-variant-numeric:normal;font-feature-settings:normal;text-align:start"/>
  </g>
  <g fill="#fff" stroke="#f57c00" stroke-width="1.06" aria-label="5611" font-family="Funhouse" font-size="28.22" font-weight="400" letter-spacing="0" style="line-height:1.25;-inkscape-font-specification:'Funhouse, Normal';font-variant-ligatures:normal;font-variant-caps:normal;font-variant-numeric:normal;font-feature-settings:normal;text-align:start" word-spacing="0">
    <path stroke-width=".8340292" d="M208.02 16.86q3.93.54 3.47 4.86-.45 4.31-10.06 5.1l-.91-4.9q4.76.11 5.1-1.12.35-1.24-3.64-1.42-3.99-.19-3.81-9.53l13.62-1.41-1.29 6.22-5.71-.42q-.68 2.07 3.23 2.62z" style="-inkscape-font-specification:'Funhouse, Normal';font-variant-ligatures:normal;font-variant-caps:normal;font-variant-numeric:normal;font-feature-settings:normal;text-align:start"/>
    <path stroke-width=".8340292" d="M218.43 25.42q-8.42-.1-5.06-14.82l6.22 1.1-1.97 3.91q8.62-1.79 8.93 4.06.32 5.83-8.12 5.75zm.7-4.26q1.91 0 1.91-1.3t-1.92-1.3q-1.9 0-1.9 1.3t1.9 1.3z" style="-inkscape-font-specification:'Funhouse, Normal';font-variant-ligatures:normal;font-variant-caps:normal;font-variant-numeric:normal;font-feature-settings:normal;text-align:start"/>
    <path stroke-width=".8340292" d="M234.49 25.35l-7.42-.31 1.25-10.25-2.56 1.03-1-4.27 7.79-2.4zM243.77 25.35l-7.42-.31 1.25-10.25-2.56 1.03-1-4.27 7.79-2.4z" style="-inkscape-font-specification:'Funhouse, Normal';font-variant-ligatures:normal;font-variant-caps:normal;font-variant-numeric:normal;font-feature-settings:normal;text-align:start"/>
  </g>
  <g fill="#00c853">
    <path d="M184.21 9.02a2.86 2.86 0 0 1 2.87 2.86v11.47a2.86 2.86 0 1 1-5.73 0V11.88a2.86 2.86 0 0 1 2.86-2.86z"/>
    <path d="M192.81 17.62a2.86 2.86 0 0 1-2.87 2.86h-11.46a2.86 2.86 0 1 1 0-5.73h11.46a2.86 2.86 0 0 1 2.87 2.87z"/>
  </g>
  <path fill="#c7ffde" d="M185.45 10.4c.4 0 .74.32.74.73v2.77a.74.74 0 1 1-1.48 0v-2.77c0-.4.33-.73.74-.73z"/>
  <path fill="#e91e63" d="M261.84 13.92a2.63 2.63 0 0 1-2.64 2.64h-7.39a2.63 2.63 0 1 1 0-5.28h7.4a2.63 2.63 0 0 1 2.63 2.64zM261.84 21.31a2.63 2.63 0 0 1-2.64 2.64h-7.39a2.63 2.63 0 1 1 0-5.28h7.4a2.63 2.63 0 0 1 2.63 2.64z"/>
  <path fill="#facedd" d="M260.16 12.89c0 .41-.33.74-.75.74h-2.78a.74.74 0 1 1 0-1.48h2.78c.42 0 .75.33.75.74zM260.16 20.3c0 .4-.33.74-.75.74h-2.78a.74.74 0 1 1 0-1.49h2.78c.42 0 .75.33.75.74z"/>
  <g>
    <path fill="#e91e63" d="M96.5 17.62c0 1.7-1.36 3.07-3.06 3.07h-8.6a3.06 3.06 0 1 1 0-6.14h8.6c1.7 0 3.07 1.37 3.07 3.07z"/>
    <path fill="#facedd" d="M94.54 16.42c0 .48-.38.86-.86.86h-3.24a.86.86 0 1 1 0-1.73h3.24c.48 0 .86.39.86.87z"/>
  </g>
  <g>
    <g fill="#fff" stroke="#f57c00" stroke-width="1.06" aria-label="8642" font-family="Funhouse" font-size="28.22" font-weight="400" letter-spacing="0" style="line-height:1.25;-inkscape-font-specification:'Funhouse, Normal';font-variant-ligatures:normal;font-variant-caps:normal;font-variant-numeric:normal;font-feature-settings:normal;text-align:start" word-spacing="0">
      <path stroke-width=".8340292" d="M14.97 38.98q-.6 0-1.02.34-.41.33-.41.8 0 .49.41.82.42.34 1.02.34.58 0 1-.34.42-.33.42-.81 0-.48-.42-.81-.42-.34-1-.34zm.22 5.57q-.9 0-1.54.37t-.64.9q0 .53.64.91.64.37 1.54.37t1.55-.37q.64-.38.64-.9 0-.54-.64-.9-.64-.38-1.55-.38zm3.98-1.76q.42.22.8.5 1.8 1.36 1.8 3.28 0 1.9-1.8 3.26-1.8 1.36-4.33 1.36-2.55 0-4.35-1.36-1.79-1.35-1.79-3.26 0-1.92 1.8-3.28l.58-.39q-1.15-1.12-1.15-2.67 0-1.7 1.39-2.9t3.35-1.2q1.95 0 3.34 1.2t1.39 2.9q0 1.46-1.03 2.56z" style="-inkscape-font-specification:'Funhouse, Normal';font-variant-ligatures:normal;font-variant-caps:normal;font-variant-numeric:normal;font-feature-settings:normal;text-align:start"/>
      <path stroke-width=".8340292" d="M28.9 51.45q-8.42-.1-5.06-14.81l6.22 1.1-1.97 3.9q8.62-1.78 8.93 4.06.32 5.84-8.12 5.75zm.7-4.25q1.92 0 1.92-1.3t-1.92-1.3q-1.91 0-1.91 1.3t1.9 1.3zM43.4 35.15l-5.53 10.78 6.19.81-.88 5.2 6.41-.78-.18-3.68 2.35.25.88-4.75-3.36-.09v-8.02zm-.6 7.3l1.25-2.96 1.29.13-.53 3.01z" style="-inkscape-font-specification:'Funhouse, Normal';font-variant-ligatures:normal;font-variant-caps:normal;font-variant-numeric:normal;font-feature-settings:normal;text-align:start"/>
      <path stroke-width=".8340292" d="M62.64 44.44q-3.9.55-3.23 2.62l5.72-.43 1.29 6.23-13.63-1.41q-.17-9.35 3.82-9.53 3.99-.19 3.64-1.42-.35-1.24-5.1-1.13l.9-4.9q9.6.79 10.06 5.1.46 4.32-3.47 4.87z" style="-inkscape-font-specification:'Funhouse, Normal';font-variant-ligatures:normal;font-variant-caps:normal;font-variant-numeric:normal;font-feature-settings:normal;text-align:start"/>
    </g>
    <g fill="#fff" stroke="#f57c00" stroke-width="1.06" aria-label="4000" font-family="Funhouse" font-size="28.22" font-weight="400" letter-spacing="0" style="line-height:1.25;-inkscape-font-specification:'Funhouse, Normal';font-variant-ligatures:normal;font-variant-caps:normal;font-variant-numeric:normal;font-feature-settings:normal;text-align:start" word-spacing="0">
      <path stroke-width=".8340292" d="M96.13 35.4L90.6 46.18l6.2.8-.88 5.21 6.4-.79-.18-3.67 2.35.25.88-4.75-3.36-.1v-8.01zm-.6 7.3l1.25-2.97 1.3.13-.54 3.02zM114.75 51.78q-3.67 0-6.26-2.22-2.58-2.22-2.58-5.37 0-3.14 2.58-5.37 2.6-2.22 6.26-2.22 3.65 0 6.23 2.22 2.6 2.23 2.6 5.37 0 3.15-2.6 5.37-2.58 2.22-6.23 2.22zm-.6-4.74q1.55 0 2.66-.95 1.12-.96 1.12-2.3 0-1.34-1.12-2.3-1.1-.95-2.67-.95-1.57 0-2.69.95-1.1.96-1.1 2.3 0 1.34 1.1 2.3 1.12.95 2.7.95zM132.96 51.78q-3.66 0-6.25-2.22-2.58-2.22-2.58-5.37 0-3.14 2.58-5.37 2.59-2.22 6.25-2.22t6.24 2.22q2.6 2.23 2.6 5.37 0 3.15-2.6 5.37-2.58 2.22-6.24 2.22zm-.6-4.74q1.56 0 2.66-.95 1.12-.96 1.12-2.3 0-1.34-1.12-2.3-1.1-.95-2.66-.95-1.57 0-2.7.95-1.1.96-1.1 2.3 0 1.34 1.1 2.3 1.13.95 2.7.95zM151.18 51.78q-3.66 0-6.26-2.22-2.58-2.22-2.58-5.37 0-3.14 2.58-5.37 2.6-2.22 6.26-2.22 3.65 0 6.24 2.22Q160 41.05 160 44.2q0 3.15-2.6 5.37-2.58 2.22-6.23 2.22zm-.6-4.74q1.55 0 2.66-.95 1.12-.96 1.12-2.3 0-1.34-1.12-2.3-1.1-.95-2.67-.95-1.57 0-2.69.95-1.1.96-1.1 2.3 0 1.34 1.1 2.3 1.12.95 2.7.95z" style="-inkscape-font-specification:'Funhouse, Normal';font-variant-ligatures:normal;font-variant-caps:normal;font-variant-numeric:normal;font-feature-settings:normal;text-align:start"/>
    </g>
    <g fill="#fff" stroke="#f57c00" stroke-width="1.06" aria-label="1000" font-family="Funhouse" font-size="28.22" font-weight="400" letter-spacing="0" style="line-height:1.25;-inkscape-font-specification:'Funhouse, Normal';font-variant-ligatures:normal;font-variant-caps:normal;font-variant-numeric:normal;font-feature-settings:normal;text-align:start" word-spacing="0">
      <path stroke-width=".8340292" d="M191.2 51.76l-7.4-.31 1.24-10.25-2.56 1.03-1-4.27 7.79-2.4zM200.59 51.92q-3.67 0-6.26-2.23-2.58-2.22-2.58-5.36 0-3.15 2.58-5.37 2.6-2.22 6.26-2.22 3.65 0 6.23 2.22 2.6 2.22 2.6 5.37 0 3.14-2.6 5.36-2.58 2.23-6.23 2.23zm-.61-4.74q1.56 0 2.67-.96 1.11-.95 1.11-2.3 0-1.34-1.11-2.3-1.1-.95-2.67-.95-1.57 0-2.69.96-1.1.95-1.1 2.3 0 1.34 1.1 2.3 1.12.95 2.69.95zM218.8 51.92q-3.66 0-6.25-2.23-2.58-2.22-2.58-5.36 0-3.15 2.58-5.37 2.59-2.22 6.25-2.22t6.24 2.22q2.59 2.22 2.59 5.37 0 3.14-2.6 5.36-2.57 2.23-6.23 2.23zm-.6-4.74q1.56 0 2.66-.96 1.12-.95 1.12-2.3 0-1.34-1.12-2.3-1.1-.95-2.66-.95-1.58 0-2.7.96-1.1.95-1.1 2.3 0 1.34 1.1 2.3 1.12.95 2.7.95zM237.02 51.92q-3.67 0-6.26-2.23-2.58-2.22-2.58-5.36 0-3.15 2.58-5.37 2.6-2.22 6.26-2.22 3.65 0 6.23 2.22 2.6 2.22 2.6 5.37 0 3.14-2.6 5.36-2.58 2.23-6.23 2.23zm-.6-4.74q1.55 0 2.66-.96 1.12-.95 1.12-2.3 0-1.34-1.12-2.3-1.1-.95-2.67-.95-1.57 0-2.69.96-1.1.95-1.1 2.3 0 1.34 1.1 2.3 1.12.95 2.7.95z" style="-inkscape-font-specification:'Funhouse, Normal';font-variant-ligatures:normal;font-variant-caps:normal;font-variant-numeric:normal;font-feature-settings:normal;text-align:start"/>
    </g>
    <g fill="#00c853">
      <path d="M78.45 35.08a2.86 2.86 0 0 1 2.87 2.86v11.47a2.86 2.86 0 1 1-5.73 0V37.94a2.86 2.86 0 0 1 2.86-2.86z"/>
      <path d="M87.05 43.68a2.86 2.86 0 0 1-2.87 2.86H72.72a2.86 2.86 0 1 1 0-5.73h11.46a2.86 2.86 0 0 1 2.87 2.87z"/>
    </g>
    <path fill="#c7ffde" d="M79.7 36.46c.4 0 .73.32.73.73v2.77a.74.74 0 1 1-1.48 0v-2.77c0-.4.33-.73.74-.73z"/>
    <path fill="#e91e63" d="M178.06 43.68c0 1.7-1.36 3.07-3.06 3.07h-8.6a3.06 3.06 0 1 1 0-6.14h8.6c1.7 0 3.06 1.37 3.06 3.07z"/>
    <path fill="#facedd" d="M176.1 42.48c0 .48-.38.86-.86.86H172a.86.86 0 1 1 0-1.73h3.24c.48 0 .86.39.86.87z"/>
    <g>
      <path fill="#e91e63" d="M261.85 39.98a2.63 2.63 0 0 1-2.65 2.64h-7.39a2.63 2.63 0 1 1 0-5.28h7.4a2.63 2.63 0 0 1 2.64 2.64zM261.85 47.37a2.63 2.63 0 0 1-2.65 2.64h-7.39a2.63 2.63 0 1 1 0-5.28h7.4a2.63 2.63 0 0 1 2.64 2.64z"/>
      <path fill="#facedd" d="M260.16 38.95c0 .41-.33.74-.75.74h-2.78a.74.74 0 1 1 0-1.48h2.78c.42 0 .75.33.75.74zM260.16 46.35c0 .41-.33.75-.75.75h-2.78a.74.74 0 1 1 0-1.49h2.78c.42 0 .75.33.75.74z"/>
    </g>
  </g>
</svg>
