<svg xmlns="http://www.w3.org/2000/svg" viewBox="0 0 270.93 135.47">
  <g transform="translate(-296.4 -801.17)">
    <rect width="204.93" height="55.37" x="329.37" y="875.59" fill="#fff" stroke="#f57c00" stroke-linecap="round" stroke-linejoin="round" stroke-width="1.32" ry="5.23"/>
    <path fill="#fff" stroke="#f57c00" stroke-linecap="round" stroke-linejoin="round" stroke-width="1.32" d="M302.65 861.76c-2.85 0-6.31 2.6-5.15 5.24l9.92 22.54-9.92 22.55c0 2.9 2.3 5.24 5.15 5.24h26.72v-36.51c0-2.9 2.33-5.23 5.22-5.23h21.69V867c0-2.9-2.3-5.24-5.15-5.24z"/>
    <path fill="#f57c00" d="M351.56 861.65c-.4.02-.78.16-1.13.44 0 0-12.8 8.92-16.28 12.07-.62.56-1.18 1.03-1.69 1.43h23.79v-8.23c0-2.46-2.55-5.8-4.7-5.7z"/>
    <g>
      <path fill="#fff" stroke="#f57c00" stroke-linecap="round" stroke-linejoin="round" stroke-width="1.32" d="M512.61 861.76a5.18 5.18 0 0 0-5.14 5.24v8.6h21.6c2.9 0 5.23 2.32 5.23 5.22v36.51h26.8a5.18 5.18 0 0 0 5.14-5.24l-9.91-22.55 9.91-22.54c1.17-2.65-2.3-5.24-5.14-5.24z"/>
      <path fill="#f57c00" d="M512.19 861.65c.4.02.78.16 1.13.44 0 0 12.8 8.92 16.27 12.07.63.56 1.19 1.03 1.69 1.43H507.5v-8.23c0-2.46 2.54-5.8 4.69-5.7z"/>
    </g>
  </g>
  <g fill="#f57c00" stroke-width=".26" font-size="15.88" font-weight="400" letter-spacing="0" word-spacing="0">
    <g aria-label="with hundreds" font-family="Funhouse" style="line-height:1.25;-inkscape-font-specification:'Funhouse, Normal';font-variant-ligatures:normal;font-variant-caps:normal;font-variant-numeric:normal;font-feature-settings:normal;text-align:start">
      <path d="M74.67 118.03l-1.55 5.43-3.06.4-4.62-9.12 3.8-2.13 2.33 6.2 1.82-4.9 3.1.43 1.28 4.47 1.86-6.43 4.22 2.31-4.53 8.77-3.47-.74zM87.83 112.67l.79 10.46-4.39.83.2-11.02zM95.28 115.91l.38 6.6-4.2 1.09.72-7.9-3.17-.26.25-2.87 9.09-.54.33 4.24zM103.12 120.19l.28 2.62-2.97.52-1.35-8.59 3.3-1.41.38 3.72 2.98-.34.04-3.39 5.17.52-1.97 9.53-3.33-.99.04-2.47zM119.3 120.19l.29 2.62-2.97.52-1.35-8.59 3.3-1.41.37 3.72 2.98-.34.05-3.39 5.17.52-1.98 9.53-3.32-.99.03-2.47zM128.26 113.15l4.13.8q-2.06 6.34.6 6.41 3.14-.02 1.81-6.56l3.79-1.2q1.73 10.77-5.6 10.86-7.43-.07-4.73-10.3zM143.43 118.03l.77 4.45-3.87.98-.78-10.18 3.88-.67 3.83 5.07.05-5.07 4.8-.5-1.7 11.35-3.08.45zM153 123.46l-.5-10.85q10.58 0 10.58 5.42 0 5.43-10.08 5.43zm2.76-7.98l.52 3.76q3.36.01 3.36-1.87 0-1.89-3.88-1.89zM167.28 115.17l.11 2.09q3.88 0 3.88-.78 0-.77-3.99-1.31zm.52 7.66l-4.32.6.9-11.57q9.99.75 10.32 4 .34 3.25-3.43 4.5l3.1 1.68-3.18 2.82-3.64-4.5zM183.2 111.21l.2 4.11-4.82.52.07.94 3.16-.3.28 2.81-3.3.24.05.76 4.68-.36.7 3.53-9.23.32.93-11.19zM185.1 123.46l-.5-10.85q10.57 0 10.57 5.42 0 5.43-10.08 5.43zm2.75-7.98l.52 3.76q3.36.01 3.36-1.87 0-1.89-3.88-1.89zM198.37 119.17q-2.8-.4-2.47-3.48.33-3.08 7.2-3.65l.64 3.5q-3.4-.07-3.65.81-.24.89 2.6 1.02 2.86.13 2.8 3.47-.06 3.34-7.51 3.57l-1.37-3.67q3.8.41 4.19-.38.38-.8-2.43-1.19z" style="-inkscape-font-specification:'Funhouse, Normal';font-variant-ligatures:normal;font-variant-caps:normal;font-variant-numeric:normal;font-feature-settings:normal;text-align:start"/>
    </g>
    <g aria-label="subtraction" font-family="Funhouse" style="line-height:1.25;-inkscape-font-specification:'Funhouse, Normal';font-variant-ligatures:normal;font-variant-caps:normal;font-variant-numeric:normal;font-feature-settings:normal;text-align:start">
      <path d="M79.62 102.95q-2.8-.4-2.47-3.48.33-3.09 7.2-3.66l.64 3.5q-3.4-.07-3.65.81-.24.89 2.6 1.02 2.86.13 2.8 3.47-.06 3.34-7.51 3.57l-1.37-3.67q3.8.41 4.19-.38.38-.8-2.43-1.18z" style="-inkscape-font-specification:'Funhouse, Normal';font-variant-ligatures:normal;font-variant-caps:normal;font-variant-numeric:normal;font-feature-settings:normal;text-align:start"/>
      <path d="M88.11 96.92l4.13.81q-2.06 6.33.6 6.4 3.14-.02 1.81-6.56l3.79-1.19q1.73 10.76-5.6 10.85-7.43-.07-4.73-10.3z" style="-inkscape-font-specification:'Funhouse, Normal';font-variant-ligatures:normal;font-variant-caps:normal;font-variant-numeric:normal;font-feature-settings:normal;text-align:start"/>
      <path d="M102.4 100.19q2.4-.45 2.35-1.37-.04-.91-2.45-.28zm.37 4.6q3.51-.14 3.52-1.22.01-1.09-3.64-1.04zm-3.37 2.44l.28-10.04q5.55-2.25 7.62-.21 2.08 2.04-.52 4.1 3.95 1.22 2.55 3.98-1.4 2.75-9.93 2.17z" style="-inkscape-font-specification:'Funhouse, Normal';font-variant-ligatures:normal;font-variant-caps:normal;font-variant-numeric:normal;font-feature-settings:normal;text-align:start"/>
      <path d="M115.25 99.68l.38 6.6-4.2 1.1.72-7.9-3.17-.27.25-2.87 9.09-.54.33 4.24zM122.85 98.94l.11 2.1q3.88 0 3.88-.78t-3.99-1.32zm.52 7.66l-4.32.61.9-11.57q9.99.74 10.32 4 .34 3.24-3.43 4.5l3.1 1.67-3.18 2.82-3.64-4.5zM133.69 105.68l-.54 1.55-3.06-1.84 3.83-9 2.92-.21 4.58 9.32-3.62 1.73-.8-2.18zm2.65-3.4l-.87-2.8-1.02 3.1zM151.59 105.64q-1.84 1.6-4.44 1.6-2.6 0-4.43-1.6-1.84-1.59-1.84-3.83 0-2.25 1.84-3.84 1.84-1.59 4.43-1.59 2.6 0 4.44 1.59.92.8 1.38 1.77l-3.72.94q-.18-.5-.65-.9-.79-.69-1.9-.69-1.1 0-1.9.69-.79.68-.79 1.64 0 .96.8 1.64.79.68 1.9.68 1.1 0 1.9-.68.42-.37.62-.83l3.74 1.65q-.46.97-1.38 1.76zM159.65 99.68l.38 6.6-4.2 1.1.72-7.9-3.17-.27.25-2.87 9.09-.54.33 4.24zM167.05 96.44l.8 10.46-4.4.83.2-11.02zM174.55 107.23q-2.62 0-4.48-1.59-1.84-1.59-1.84-3.83 0-2.25 1.84-3.84 1.86-1.59 4.48-1.59 2.6 0 4.45 1.59 1.86 1.59 1.86 3.84 0 2.24-1.86 3.83-1.84 1.6-4.45 1.6zm-.44-3.38q1.12 0 1.91-.69.8-.68.8-1.64 0-.96-.8-1.64-.8-.69-1.9-.69-1.13 0-1.93.69-.79.68-.79 1.64 0 .96.8 1.64.79.69 1.91.69zM185.14 101.8l.76 4.45-3.86.98-.79-10.17 3.89-.68 3.82 5.07.05-5.07 4.8-.5-1.7 11.35-3.08.45z" style="-inkscape-font-specification:'Funhouse, Normal';font-variant-ligatures:normal;font-variant-caps:normal;font-variant-numeric:normal;font-feature-settings:normal;text-align:start"/>
    </g>
    <g aria-label="addition" font-family="Funhouse" style="line-height:1.25;-inkscape-font-specification:'Funhouse, Normal';font-variant-ligatures:normal;font-variant-caps:normal;font-variant-numeric:normal;font-feature-settings:normal;text-align:start">
      <path d="M91 89.35l-.54 1.55-3.06-1.85 3.83-9 2.92-.2 4.58 9.32-3.62 1.73-.8-2.18zm2.65-3.4l-.87-2.8-1.02 3.1zM99.62 90.9l-.5-10.85q10.58 0 10.58 5.42 0 5.43-10.08 5.43zm2.76-7.98l.52 3.75q3.36.02 3.36-1.87 0-1.88-3.88-1.88zM110.6 90.9l-.5-10.85q10.57 0 10.57 5.42 0 5.43-10.07 5.43zm2.76-7.98l.52 3.75q3.35.02 3.35-1.87 0-1.88-3.87-1.88zM124.67 80.1l.8 10.46-4.4.83.2-11.01zM132.12 83.35l.38 6.6-4.2 1.09.72-7.9-3.17-.27.25-2.86 9.1-.55.33 4.24zM139.52 80.1l.8 10.46-4.4.83.21-11.01zM147.02 90.9q-2.62 0-4.47-1.6-1.85-1.58-1.85-3.83t1.85-3.84q1.85-1.58 4.47-1.58 2.61 0 4.46 1.58 1.85 1.6 1.85 3.84 0 2.25-1.85 3.84-1.85 1.59-4.46 1.59zm-.43-3.39q1.11 0 1.9-.68.8-.68.8-1.65 0-.96-.8-1.64-.79-.68-1.9-.68-1.13 0-1.93.68-.79.68-.79 1.64 0 .97.8 1.65.8.68 1.92.68zM157.6 85.47l.78 4.44-3.87.99-.78-10.18 3.88-.67 3.83 5.06.04-5.06 4.81-.5-1.7 11.35-3.08.45z" style="-inkscape-font-specification:'Funhouse, Normal';font-variant-ligatures:normal;font-variant-caps:normal;font-variant-numeric:normal;font-feature-settings:normal;text-align:start"/>
    </g>
    <g style="line-height:1.25;-inkscape-font-specification:'SC Gum Kids, Normal';font-variant-ligatures:normal;font-variant-caps:normal;font-variant-numeric:normal;font-feature-settings:normal;text-align:start">
      <path d="M177.97 81.69q-.3 0-.46.14l-.01.01q-.02.03-.02.11 0 .26.16.68.1.24.25.54.28-.24.48-.47.34-.4.34-.63l-.02-.08-.11-.12q-.24-.18-.6-.18zm-1.23 5.22q-.2.32-.21.66 0 .56.46 1 .48.48 1.11.48.53 0 1.03-.35-1.1-1.2-1.92-2.28-.3.23-.47.5zm1.36 4.48q-1.6 0-2.75-1.14t-1.16-2.68q0-1.04.59-1.94.43-.66 1.14-1.17-.26-.47-.43-.91-.35-.87-.35-1.6 0-.54.19-1 .22-.52.64-.89.83-.71 2-.71.82 0 1.55.36.8.42 1.22 1.15.3.56.3 1.2 0 1.12-.9 2.16-.4.48-.96.92.37.49.81 1l.58.67q.4-.85.7-1.95l2.26.6q-.5 1.86-1.26 3.14.5.52.92.91l.07.05-1.6 1.72-.25-.24-.66-.64q-1.23 1-2.63 1z" aria-label="&amp;" font-family="SC Gum Kids" style="-inkscape-font-specification:'SC Gum Kids, Normal';font-variant-ligatures:normal;font-variant-caps:normal;font-variant-numeric:normal;font-feature-settings:normal;text-align:start"/>
    </g>
  </g>
  <g fill="#fff" stroke="#f57c00" stroke-width="1.06" aria-label="600" font-family="Funhouse" font-size="28.22" font-weight="400" letter-spacing="0" style="line-height:1.25;-inkscape-font-specification:'Funhouse, Normal';font-variant-ligatures:normal;font-variant-caps:normal;font-variant-numeric:normal;font-feature-settings:normal;text-align:start" word-spacing="0">
    <path d="M18.4 27.65q-10.71-.12-6.44-18.82l7.9 1.39-2.5 4.97q10.96-2.27 11.36 5.16.4 7.41-10.33 7.3zm.88-5.4q2.44 0 2.44-1.65 0-1.66-2.44-1.66-2.43 0-2.43 1.66 0 1.65 2.43 1.65zM41.02 27.76q-4.66 0-7.95-2.82-3.28-2.83-3.28-6.82 0-4 3.28-6.83 3.3-2.82 7.95-2.82t7.93 2.82q3.29 2.83 3.29 6.83t-3.3 6.82q-3.27 2.82-7.92 2.82zm-.77-6.02q1.98 0 3.39-1.21 1.42-1.21 1.42-2.92t-1.42-2.93q-1.4-1.2-3.39-1.2-2 0-3.42 1.2-1.4 1.22-1.4 2.93 0 1.7 1.4 2.92 1.42 1.21 3.42 1.21zM64.17 27.76q-4.66 0-7.95-2.82-3.28-2.83-3.28-6.82 0-4 3.28-6.83 3.3-2.82 7.95-2.82t7.93 2.82q3.29 2.83 3.29 6.83t-3.3 6.82q-3.27 2.82-7.92 2.82zm-.77-6.02q1.99 0 3.4-1.21t1.41-2.92q0-1.71-1.42-2.93-1.4-1.2-3.39-1.2-2 0-3.42 1.2-1.4 1.22-1.4 2.93 0 1.7 1.4 2.92 1.42 1.21 3.42 1.21z" style="-inkscape-font-specification:'Funhouse, Normal';font-variant-ligatures:normal;font-variant-caps:normal;font-variant-numeric:normal;font-feature-settings:normal;text-align:start"/>
  </g>
  <g fill="#fff" stroke="#f57c00" stroke-width="1.06" aria-label="500" font-family="Funhouse" font-size="28.22" font-weight="400" letter-spacing="0" style="line-height:1.25;-inkscape-font-specification:'Funhouse, Normal';font-variant-ligatures:normal;font-variant-caps:normal;font-variant-numeric:normal;font-feature-settings:normal;text-align:start" word-spacing="0">
    <path d="M113.3 17.15q5 .7 4.42 6.18-.58 5.48-12.8 6.49l-1.15-6.23q6.05.14 6.49-1.43.44-1.57-4.63-1.8-5.07-.24-4.85-12.12l17.32-1.8-1.64 7.92-7.26-.54q-.87 2.63 4.1 3.33zM130.2 28.14q-4.66 0-7.95-2.83-3.28-2.82-3.28-6.82t3.28-6.82q3.3-2.82 7.95-2.82 4.64 0 7.92 2.82 3.3 2.83 3.3 6.82 0 4-3.3 6.82-3.28 2.83-7.92 2.83zm-.77-6.02q1.98 0 3.39-1.22 1.42-1.21 1.42-2.92 0-1.7-1.42-2.92-1.4-1.21-3.4-1.21-1.99 0-3.4 1.21t-1.41 2.92q0 1.71 1.4 2.92 1.42 1.22 3.42 1.22zM153.35 28.14q-4.66 0-7.95-2.83-3.28-2.82-3.28-6.82t3.28-6.82q3.3-2.82 7.95-2.82t7.93 2.82q3.29 2.83 3.29 6.82 0 4-3.3 6.82-3.27 2.83-7.92 2.83zm-.77-6.02q1.98 0 3.39-1.22 1.42-1.21 1.42-2.92 0-1.7-1.42-2.92-1.4-1.21-3.39-1.21-2 0-3.42 1.21-1.4 1.21-1.4 2.92t1.4 2.92q1.42 1.22 3.42 1.22z" style="-inkscape-font-specification:'Funhouse, Normal';font-variant-ligatures:normal;font-variant-caps:normal;font-variant-numeric:normal;font-feature-settings:normal;text-align:start"/>
  </g>
  <g fill="#fff" stroke="#f57c00" stroke-width="1.06" aria-label="148" font-family="Funhouse" font-size="28.22" font-weight="400" letter-spacing="0" style="line-height:1.25;-inkscape-font-specification:'Funhouse, Normal';font-variant-ligatures:normal;font-variant-caps:normal;font-variant-numeric:normal;font-feature-settings:normal;text-align:start" word-spacing="0">
    <path d="M205.56 28.22l-9.43-.4 1.59-13.02-3.25 1.31-1.29-5.43 9.91-3.04zM213.28 7.6l-7.03 13.7 7.87 1.03-1.12 6.61 8.14-1-.23-4.68 3 .32 1.1-6.04-4.27-.1V7.23zm-.76 9.27l1.58-3.76 1.64.16-.67 3.83zM232.65 12.46q-.76 0-1.3.43-.52.42-.52 1.03 0 .6.53 1.03.53.43 1.3.43.74 0 1.26-.43.54-.42.54-1.03 0-.6-.54-1.03-.52-.43-1.27-.43zm.28 7.08q-1.15 0-1.96.47t-.81 1.14q0 .68.81 1.16.81.47 1.96.47t1.97-.47q.81-.48.81-1.16 0-.67-.81-1.14-.82-.47-1.97-.47zm5.05-2.24q.54.28 1.04.64 2.27 1.73 2.27 4.16T239 26.25q-2.27 1.72-5.5 1.72t-5.52-1.72q-2.27-1.72-2.27-4.15 0-2.43 2.28-4.16.36-.26.73-.5-1.46-1.43-1.46-3.4 0-2.16 1.77-3.68 1.76-1.53 4.25-1.53t4.25 1.53q1.76 1.52 1.76 3.68 0 1.86-1.3 3.26z" style="-inkscape-font-specification:'Funhouse, Normal';font-variant-ligatures:normal;font-variant-caps:normal;font-variant-numeric:normal;font-feature-settings:normal;text-align:start"/>
  </g>
  <g fill="#00c853">
    <path d="M178.83 7.19a3.63 3.63 0 0 1 3.64 3.64V25.4a3.63 3.63 0 1 1-7.29 0V10.83a3.63 3.63 0 0 1 3.65-3.64z"/>
    <path d="M189.75 18.12a3.63 3.63 0 0 1-3.64 3.64h-14.57a3.63 3.63 0 1 1 0-7.29h14.57a3.63 3.63 0 0 1 3.64 3.65z"/>
  </g>
  <path fill="#c7ffde" d="M180.4 8.94c.52 0 .94.42.94.94v3.5a.93.93 0 1 1-1.88 0v-3.5c0-.52.42-.94.94-.94z"/>
  <path fill="#e91e63" d="M260.73 13.42c0 1.86-1.5 3.35-3.36 3.35h-9.4a3.35 3.35 0 1 1 0-6.7h9.4c1.86 0 3.36 1.49 3.36 3.35zM260.73 22.81c0 1.86-1.5 3.36-3.36 3.36h-9.4a3.35 3.35 0 1 1 0-6.71h9.4c1.86 0 3.36 1.5 3.36 3.35z"/>
  <path fill="#facedd" d="M258.58 12.1c0 .53-.42.95-.94.95h-3.55a.94.94 0 1 1 0-1.89h3.55c.52 0 .94.42.94.95zM258.58 21.52c0 .52-.42.94-.94.94h-3.55a.94.94 0 1 1 0-1.89h3.55c.52 0 .94.42.94.95z"/>
  <g>
    <path fill="#e91e63" d="M97.44 18.12a3.9 3.9 0 0 1-3.9 3.9H82.62a3.9 3.9 0 1 1 0-7.8h10.92a3.9 3.9 0 0 1 3.9 3.9z"/>
    <path fill="#facedd" d="M94.95 16.6c0 .6-.5 1.1-1.1 1.1h-4.12a1.1 1.1 0 1 1 0-2.2h4.12c.6 0 1.1.48 1.1 1.1z"/>
  </g>
  <g>
    <g fill="#fff" stroke="#f57c00" stroke-width="1.06" aria-label="900" font-family="Funhouse" font-size="28.22" font-weight="400" letter-spacing="0" style="line-height:1.25;-inkscape-font-specification:'Funhouse, Normal';font-variant-ligatures:normal;font-variant-caps:normal;font-variant-numeric:normal;font-feature-settings:normal;text-align:start" word-spacing="0">
      <path d="M19.36 34.3q10.73.11 6.45 18.81l-7.9-1.4 2.5-4.97Q9.46 49.02 9.06 41.6q-.4-7.42 10.3-7.3zm-.88 5.39q-2.42 0-2.42 1.65 0 1.66 2.42 1.66 2.44 0 2.44-1.66 0-1.65-2.44-1.65z" style="-inkscape-font-specification:'Funhouse, Normal';font-variant-ligatures:normal;font-variant-caps:normal;font-variant-numeric:normal;font-feature-settings:normal;text-align:start"/>
      <path d="M39.51 53.22q-4.66 0-7.95-2.82-3.28-2.83-3.28-6.83t3.28-6.82q3.3-2.82 7.95-2.82t7.93 2.82q3.29 2.83 3.29 6.82 0 4-3.3 6.83-3.27 2.82-7.92 2.82zm-.77-6.02q1.98 0 3.39-1.21 1.42-1.22 1.42-2.93 0-1.7-1.42-2.92-1.4-1.21-3.39-1.21-2 0-3.42 1.21-1.4 1.22-1.4 2.92 0 1.71 1.4 2.93 1.42 1.2 3.42 1.2zM62.66 53.22q-4.65 0-7.95-2.82-3.28-2.83-3.28-6.83t3.28-6.82q3.3-2.82 7.95-2.82t7.93 2.82q3.29 2.83 3.29 6.82 0 4-3.3 6.83-3.27 2.82-7.92 2.82zm-.77-6.02q1.99 0 3.4-1.21 1.41-1.22 1.41-2.93 0-1.7-1.42-2.92-1.4-1.21-3.39-1.21-2 0-3.42 1.21-1.4 1.22-1.4 2.92 0 1.71 1.4 2.93 1.42 1.2 3.42 1.2z" style="-inkscape-font-specification:'Funhouse, Normal';font-variant-ligatures:normal;font-variant-caps:normal;font-variant-numeric:normal;font-feature-settings:normal;text-align:start"/>
    </g>
    <g fill="#fff" stroke="#f57c00" stroke-width="1.06" aria-label="221" font-family="Funhouse" font-size="28.22" font-weight="400" letter-spacing="0" style="line-height:1.25;-inkscape-font-specification:'Funhouse, Normal';font-variant-ligatures:normal;font-variant-caps:normal;font-variant-numeric:normal;font-feature-settings:normal;text-align:start" word-spacing="0">
      <path d="M115.26 44.55q-4.98.69-4.11 3.32l7.26-.54 1.64 7.91-17.32-1.79q-.22-11.88 4.85-12.11 5.07-.24 4.63-1.8-.44-1.58-6.49-1.44l1.16-6.23q12.2 1 12.79 6.5.57 5.48-4.41 6.18zM133.67 44.55q-4.98.69-4.11 3.32l7.26-.54 1.64 7.91-17.32-1.79q-.22-11.88 4.85-12.11 5.07-.24 4.63-1.8-.44-1.58-6.49-1.44l1.16-6.23q12.2 1 12.79 6.5.57 5.48-4.41 6.18zM151.7 53.37l-9.42-.4 1.58-13.02-3.25 1.3-1.28-5.42 9.9-3.05z" style="-inkscape-font-specification:'Funhouse, Normal';font-variant-ligatures:normal;font-variant-caps:normal;font-variant-numeric:normal;font-feature-settings:normal;text-align:start"/>
    </g>
    <g fill="#fff" stroke="#f57c00" stroke-width="1.06" aria-label="400" font-family="Funhouse" font-size="28.22" font-weight="400" letter-spacing="0" style="line-height:1.25;-inkscape-font-specification:'Funhouse, Normal';font-variant-ligatures:normal;font-variant-caps:normal;font-variant-numeric:normal;font-feature-settings:normal;text-align:start" word-spacing="0">
      <path d="M184.8 33.05l-7.04 13.7 7.87 1.03-1.11 6.62 8.14-1-.23-4.68 2.99.32 1.11-6.04-4.27-.1V32.7zm-.77 9.28l1.59-3.77 1.64.17-.68 3.83zM208.45 53.87q-4.65 0-7.95-2.82-3.28-2.83-3.28-6.82 0-4 3.28-6.82 3.3-2.83 7.95-2.83t7.93 2.83q3.29 2.82 3.29 6.82t-3.3 6.82q-3.27 2.82-7.92 2.82zm-.77-6.02q1.99 0 3.4-1.21t1.41-2.92q0-1.71-1.42-2.92-1.4-1.22-3.39-1.22-2 0-3.42 1.22-1.4 1.2-1.4 2.92 0 1.7 1.4 2.92 1.42 1.21 3.42 1.21zM231.6 53.87q-4.65 0-7.95-2.82-3.28-2.83-3.28-6.82 0-4 3.28-6.82 3.3-2.83 7.95-2.83t7.93 2.83q3.3 2.82 3.3 6.82t-3.3 6.82q-3.28 2.82-7.93 2.82zm-.77-6.02q1.99 0 3.4-1.21t1.41-2.92q0-1.71-1.42-2.92-1.4-1.22-3.39-1.22-2 0-3.42 1.22-1.4 1.2-1.4 2.92 0 1.7 1.4 2.92 1.42 1.21 3.42 1.21z" style="-inkscape-font-specification:'Funhouse, Normal';font-variant-ligatures:normal;font-variant-caps:normal;font-variant-numeric:normal;font-feature-settings:normal;text-align:start"/>
    </g>
    <g fill="#00c853">
      <path d="M88.3 32.65a3.63 3.63 0 0 1 3.64 3.64v14.57a3.63 3.63 0 1 1-7.28 0V36.29a3.63 3.63 0 0 1 3.64-3.64z"/>
      <path d="M99.23 43.57a3.63 3.63 0 0 1-3.64 3.65H81a3.63 3.63 0 1 1 0-7.29H95.6a3.63 3.63 0 0 1 3.64 3.64z"/>
    </g>
    <path fill="#c7ffde" d="M89.87 34.4c.52 0 .94.41.94.93v3.52a.93.93 0 1 1-1.87 0v-3.52c0-.52.42-.93.93-.93z"/>
    <path fill="#e91e63" d="M173.99 43.57a3.9 3.9 0 0 1-3.9 3.9h-10.92a3.9 3.9 0 1 1 0-7.8h10.92a3.9 3.9 0 0 1 3.9 3.9z"/>
    <path fill="#facedd" d="M171.5 42.05c0 .6-.5 1.1-1.1 1.1h-4.12a1.1 1.1 0 1 1 0-2.2h4.12c.6 0 1.1.5 1.1 1.1z"/>
    <g>
      <path fill="#e91e63" d="M262.42 38.88c0 1.86-1.5 3.35-3.36 3.35h-9.4a3.35 3.35 0 1 1 0-6.7h9.4c1.86 0 3.36 1.49 3.36 3.35zM262.42 48.27c0 1.86-1.5 3.36-3.36 3.36h-9.4a3.35 3.35 0 1 1 0-6.71h9.4c1.86 0 3.36 1.5 3.36 3.35z"/>
      <path fill="#facedd" d="M260.27 37.57c0 .52-.42.94-.94.94h-3.54a.94.94 0 1 1 0-1.89h3.54c.52 0 .94.42.94.95zM260.27 46.98c0 .52-.42.94-.94.94h-3.54a.94.94 0 1 1 0-1.89h3.54c.52 0 .94.42.94.95z"/>
    </g>
  </g>
</svg>
