<svg xmlns="http://www.w3.org/2000/svg" viewBox="0 0 270.93 135.47">
  <g transform="translate(0 -518.73)">
    <rect width="204.93" height="55.37" x="32.96" y="593.15" fill="#fff" stroke="#f57c00" stroke-linecap="round" stroke-linejoin="round" stroke-width="1.32" ry="5.23"/>
    <path fill="#fff" stroke="#f57c00" stroke-linecap="round" stroke-linejoin="round" stroke-width="1.32" d="M6.24 579.31c-2.85 0-6.3 2.6-5.14 5.25L11 607.1 1.1 629.64c0 2.9 2.3 5.24 5.14 5.24h26.72v-36.5c0-2.9 2.33-5.23 5.23-5.23h21.68v-8.6c0-2.9-2.3-5.24-5.15-5.24z"/>
    <path fill="#f57c00" d="M55.15 579.2c-.4.02-.78.16-1.13.44 0 0-12.8 8.92-16.27 12.07-.63.57-1.19 1.03-1.7 1.44h23.79v-8.23c0-2.47-2.54-5.82-4.69-5.71z"/>
    <path fill="#fff" stroke="#f57c00" stroke-linecap="round" stroke-linejoin="round" stroke-width="1.32" d="M216.2 579.31a5.18 5.18 0 0 0-5.14 5.25v8.59h21.6c2.9 0 5.23 2.33 5.23 5.22v36.51h26.8a5.18 5.18 0 0 0 5.15-5.24l-9.92-22.54 9.92-22.54c1.16-2.65-2.3-5.25-5.15-5.25z"/>
    <path fill="#f57c00" d="M215.78 579.2c.4.02.78.16 1.13.44 0 0 12.8 8.92 16.28 12.07.62.57 1.18 1.03 1.68 1.44H211.1v-8.23c0-2.47 2.54-5.82 4.7-5.71z"/>
    <g fill="#f57c00" stroke-width=".26" font-family="Funhouse" font-size="19.4" font-weight="400" letter-spacing="0" word-spacing="0">
      <g aria-label="additions with" style="line-height:1.25;-inkscape-font-specification:'Funhouse, Normal';font-variant-ligatures:normal;font-variant-caps:normal;font-variant-numeric:normal;font-feature-settings:normal;text-align:start">
        <path d="M55.04 614.92l-.67 1.9-3.73-2.26 4.68-11 3.56-.26 5.6 11.4-4.42 2.11-.98-2.66zm3.24-4.15l-1.06-3.43-1.25 3.79zM65.57 616.81l-.6-13.26q12.92 0 12.92 6.63t-12.32 6.63zm3.37-9.74l.64 4.58q4.1.02 4.1-2.28t-4.74-2.3zM78.99 616.81l-.6-13.26q12.91 0 12.91 6.63T79 616.81zm3.37-9.74l.63 4.58q4.1.02 4.1-2.28t-4.73-2.3zM96.2 603.63l.96 12.78-5.36 1.01.24-13.46zM105.3 607.59l.46 8.07-5.13 1.32.88-9.64-3.88-.33.3-3.5 11.12-.67.4 5.18zM114.34 603.63l.97 12.78-5.36 1.01.24-13.46zM123.5 616.81q-3.2 0-5.46-1.94t-2.26-4.69q0-2.74 2.26-4.69 2.26-1.94 5.47-1.94 3.19 0 5.44 1.94 2.27 1.95 2.27 4.7 0 2.74-2.27 4.68-2.25 1.94-5.44 1.94zm-.52-4.14q1.36 0 2.33-.83t.97-2q0-1.18-.97-2.02-.97-.83-2.33-.83-1.38 0-2.35.83-.97.84-.97 2.01 0 1.18.97 2.01.97.83 2.35.83zM136.45 610.18l.94 5.43-4.73 1.2-.96-12.44 4.75-.82 4.68 6.2.05-6.2 5.88-.6-2.09 13.86-3.76.55zM150.4 611.58q-3.43-.49-3.03-4.26.4-3.77 8.8-4.46l.79 4.28q-4.16-.1-4.46.99-.3 1.08 3.18 1.24 3.49.16 3.41 4.24-.08 4.09-9.18 4.36l-1.68-4.48q4.66.5 5.13-.47.46-.97-2.97-1.44zM175.72 610.18l-1.9 6.63-3.74.5-5.64-11.15 4.65-2.6 2.84 7.57 2.22-5.99 3.8.52 1.56 5.47 2.27-7.85 5.15 2.82-5.53 10.71-4.23-.9zM191.8 603.63l.97 12.78-5.36 1.01.24-13.46zM200.9 607.59l.47 8.07-5.13 1.32.88-9.64-3.88-.33.3-3.5 11.12-.67.4 5.18zM210.5 612.82l.34 3.2-3.63.63-1.65-10.5 4.04-1.72.45 4.55 3.64-.42.06-4.14 6.31.64-2.41 11.64-4.07-1.2.05-3.02z" style="-inkscape-font-specification:'Funhouse, Normal';font-variant-ligatures:normal;font-variant-caps:normal;font-variant-numeric:normal;font-feature-settings:normal;text-align:start"/>
      </g>
      <g aria-label="3 tens" style="line-height:1.25;-inkscape-font-specification:'Funhouse, Normal';font-variant-ligatures:normal;font-variant-caps:normal;font-variant-numeric:normal;font-feature-settings:normal;text-align:start">
        <path d="M109.71 631.03q3.02.3 2.45 3.47-.55 3.16-9.3 3.96l-.8-4.73q5.76.14 5.76-.75 0-.9-2.27-.5l-.62-3.32q2.89-.02 2.86-1.14-.03-1.12-5.12.11l.55-3.99q8.14-.54 8.82 2.62.7 3.14-2.33 4.27zM125.68 628.44l.47 8.07-5.14 1.32.88-9.64-3.87-.33.3-3.5 11.12-.67.4 5.18zM139.77 622.7l.25 5.02-5.9.63.08 1.15 3.87-.36.34 3.43-4.04.29.07.93 5.72-.44.85 4.31-11.28.4 1.15-13.68zM146.22 631.03l.94 5.43-4.73 1.2-.95-12.44 4.74-.82 4.68 6.2.06-6.2 5.87-.6-2.08 13.86-3.76.55zM160.17 632.42q-3.42-.48-3.02-4.25.4-3.77 8.79-4.46l.8 4.28q-4.16-.1-4.47.99-.3 1.08 3.19 1.24 3.48.16 3.4 4.24-.07 4.08-9.17 4.36l-1.68-4.48q4.66.5 5.12-.47.47-.97-2.96-1.45z" style="-inkscape-font-specification:'Funhouse, Normal';font-variant-ligatures:normal;font-variant-caps:normal;font-variant-numeric:normal;font-feature-settings:normal;text-align:start"/>
      </g>
    </g>
    <g>
      <g fill="#fff" stroke="#f57c00" stroke-width="1.06" aria-label="20" font-family="Funhouse" font-size="28.22" font-weight="400" letter-spacing="0" style="line-height:1.25;-inkscape-font-specification:'Funhouse, Normal';font-variant-ligatures:normal;font-variant-caps:normal;font-variant-numeric:normal;font-feature-settings:normal;text-align:start" word-spacing="0">
        <path d="M44.95 537.26q-4.97.7-4.1 3.33l7.26-.54 1.64 7.9-17.32-1.78q-.22-11.88 4.85-12.12 5.07-.23 4.63-1.8-.44-1.57-6.5-1.43l1.17-6.23q12.2 1 12.78 6.49.58 5.48-4.4 6.18zM61.85 546.28q-4.66 0-7.95-2.83-3.28-2.82-3.28-6.82t3.28-6.82q3.3-2.83 7.95-2.83 4.64 0 7.92 2.83 3.3 2.82 3.3 6.82t-3.3 6.82q-3.28 2.83-7.92 2.83zm-.77-6.03q1.98 0 3.39-1.2 1.42-1.22 1.42-2.93 0-1.7-1.42-2.92-1.4-1.21-3.4-1.21t-3.41 1.2q-1.4 1.22-1.4 2.93 0 1.7 1.4 2.92 1.42 1.21 3.42 1.21z" style="-inkscape-font-specification:'Funhouse, Normal';font-variant-ligatures:normal;font-variant-caps:normal;font-variant-numeric:normal;font-feature-settings:normal;text-align:start"/>
      </g>
      <g fill="#fff" stroke="#f57c00" stroke-width="1.06" aria-label="40" font-family="Funhouse" font-size="28.22" font-weight="400" letter-spacing="0" style="line-height:1.25;-inkscape-font-specification:'Funhouse, Normal';font-variant-ligatures:normal;font-variant-caps:normal;font-variant-numeric:normal;font-feature-settings:normal;text-align:start" word-spacing="0">
        <path d="M113.95 525.77l-7.03 13.7 7.87 1.03-1.12 6.61 8.15-1-.24-4.67 3 .31 1.11-6.03-4.27-.11v-10.2zm-.76 9.27l1.59-3.76 1.64.16-.68 3.84zM137.61 546.59q-4.66 0-7.95-2.83-3.28-2.82-3.28-6.82t3.28-6.82q3.3-2.82 7.95-2.82 4.64 0 7.92 2.82 3.3 2.83 3.3 6.82 0 4-3.3 6.82-3.28 2.83-7.92 2.83zm-.77-6.02q1.98 0 3.39-1.22 1.42-1.2 1.42-2.92 0-1.7-1.42-2.92-1.4-1.21-3.4-1.21-1.99 0-3.4 1.21t-1.41 2.92q0 1.71 1.4 2.92 1.42 1.22 3.42 1.22z" style="-inkscape-font-specification:'Funhouse, Normal';font-variant-ligatures:normal;font-variant-caps:normal;font-variant-numeric:normal;font-feature-settings:normal;text-align:start"/>
      </g>
      <g fill="#fff" stroke="#f57c00" stroke-width="1.06" aria-label="39" font-family="Funhouse" font-size="28.22" font-weight="400" letter-spacing="0" style="line-height:1.25;-inkscape-font-specification:'Funhouse, Normal';font-variant-ligatures:normal;font-variant-caps:normal;font-variant-numeric:normal;font-feature-settings:normal;text-align:start" word-spacing="0">
        <path d="M193.62 535.93q4.4.44 3.57 5.05-.82 4.6-13.54 5.76l-1.15-6.88q8.36.2 8.36-1.09 0-1.3-3.3-.74l-.9-4.81q4.2-.04 4.16-1.67-.04-1.62-7.44.17l.8-5.8q11.83-.79 12.83 3.8 1 4.57-3.4 6.21zM209.4 526.66q10.73.1 6.46 18.8l-7.91-1.38 2.5-4.98q-10.95 2.28-11.35-5.14-.4-7.42 10.3-7.3zm-.87 5.39q-2.43 0-2.43 1.65t2.43 1.65q2.44 0 2.44-1.65t-2.44-1.65z" style="-inkscape-font-specification:'Funhouse, Normal';font-variant-ligatures:normal;font-variant-caps:normal;font-variant-numeric:normal;font-feature-settings:normal;text-align:start"/>
      </g>
      <g fill="#00c853">
        <path d="M165.61 525.36a3.63 3.63 0 0 1 3.64 3.64v14.57a3.63 3.63 0 1 1-7.28 0V529a3.63 3.63 0 0 1 3.64-3.64z"/>
        <path d="M176.54 536.29a3.63 3.63 0 0 1-3.64 3.64h-14.57a3.63 3.63 0 1 1 0-7.28h14.57a3.63 3.63 0 0 1 3.64 3.64z"/>
      </g>
      <path fill="#c7ffde" d="M167.19 527.11c.52 0 .93.42.93.94v3.51a.93.93 0 1 1-1.87 0v-3.51c0-.52.42-.94.94-.94z"/>
      <path fill="#e91e63" d="M239.04 531.6c0 1.85-1.5 3.35-3.35 3.35h-9.4a3.35 3.35 0 1 1 0-6.71h9.4c1.86 0 3.35 1.5 3.35 3.35zM239.04 540.99c0 1.86-1.5 3.35-3.35 3.35h-9.4a3.35 3.35 0 1 1 0-6.7h9.4c1.86 0 3.35 1.49 3.35 3.35z"/>
      <path fill="#facedd" d="M236.9 530.28c0 .52-.42.95-.95.95h-3.54a.94.94 0 1 1 0-1.9h3.54c.53 0 .95.43.95.95zM236.9 539.69c0 .52-.42.95-.95.95h-3.54a.94.94 0 1 1 0-1.9h3.54c.53 0 .95.43.95.95z"/>
      <g>
        <g fill="#00c853">
          <path d="M89.85 525.36A3.63 3.63 0 0 1 93.5 529v14.57a3.63 3.63 0 1 1-7.28 0V529a3.63 3.63 0 0 1 3.64-3.64z"/>
          <path d="M100.78 536.29a3.63 3.63 0 0 1-3.64 3.64H82.57a3.63 3.63 0 1 1 0-7.28h14.57a3.63 3.63 0 0 1 3.64 3.64z"/>
        </g>
        <path fill="#c7ffde" d="M91.43 527.11c.52 0 .93.42.93.94v3.51a.93.93 0 1 1-1.87 0v-3.51c0-.52.42-.94.94-.94z"/>
      </g>
      <g>
        <g fill="#fff" stroke="#f57c00" stroke-width="1.06" aria-label="80" font-family="Funhouse" font-size="28.22" font-weight="400" letter-spacing="0" style="line-height:1.25;-inkscape-font-specification:'Funhouse, Normal';font-variant-ligatures:normal;font-variant-caps:normal;font-variant-numeric:normal;font-feature-settings:normal;text-align:start" word-spacing="0">
          <path d="M36.86 556.6q-.76 0-1.3.42-.52.43-.52 1.04 0 .6.53 1.03.53.43 1.3.43.74 0 1.26-.43.54-.43.54-1.03 0-.61-.54-1.04-.52-.43-1.27-.43zm.28 7.08q-1.15 0-1.96.47-.81.46-.81 1.14 0 .68.81 1.16.81.47 1.96.47 1.16 0 1.97-.47.81-.48.81-1.16 0-.68-.81-1.14-.81-.47-1.97-.47zm5.06-2.25q.53.3 1.03.65 2.27 1.72 2.27 4.16 0 2.43-2.28 4.15-2.28 1.72-5.5 1.72-3.24 0-5.53-1.72-2.27-1.72-2.27-4.15 0-2.44 2.28-4.16.36-.26.73-.5-1.46-1.43-1.46-3.4 0-2.16 1.77-3.68 1.76-1.53 4.26-1.53 2.48 0 4.24 1.53 1.76 1.52 1.76 3.68 0 1.86-1.3 3.25zM57.4 572.55q-4.65 0-7.94-2.82-3.28-2.83-3.28-6.82 0-4 3.28-6.83 3.3-2.82 7.95-2.82 4.64 0 7.92 2.82 3.3 2.83 3.3 6.83t-3.3 6.82q-3.28 2.82-7.92 2.82zm-.76-6.02q1.98 0 3.39-1.21 1.42-1.22 1.42-2.92 0-1.71-1.42-2.93-1.4-1.2-3.4-1.2t-3.41 1.2q-1.4 1.22-1.4 2.93 0 1.7 1.4 2.92 1.42 1.21 3.42 1.21z" style="-inkscape-font-specification:'Funhouse, Normal';font-variant-ligatures:normal;font-variant-caps:normal;font-variant-numeric:normal;font-feature-settings:normal;text-align:start"/>
        </g>
        <g fill="#fff" stroke="#f57c00" stroke-width="1.06" aria-label="74" font-family="Funhouse" font-size="28.22" font-weight="400" letter-spacing="0" style="line-height:1.25;-inkscape-font-specification:'Funhouse, Normal';font-variant-ligatures:normal;font-variant-caps:normal;font-variant-numeric:normal;font-feature-settings:normal;text-align:start" word-spacing="0">
          <path d="M117.11 572.11l-9.15-3.84 6.22-9.02-6.62.87-1.84-6.35 17.76-1.43zM127.63 552.24l-7.03 13.7 7.87 1.03-1.12 6.61 8.14-1-.23-4.67 3 .31 1.1-6.03-4.27-.11v-10.2zm-.76 9.27l1.58-3.76 1.64.17-.67 3.83z" style="-inkscape-font-specification:'Funhouse, Normal';font-variant-ligatures:normal;font-variant-caps:normal;font-variant-numeric:normal;font-feature-settings:normal;text-align:start"/>
        </g>
        <g fill="#fff" stroke="#f57c00" stroke-width="1.06" aria-label="60" font-family="Funhouse" font-size="28.22" font-weight="400" letter-spacing="0" style="line-height:1.25;-inkscape-font-specification:'Funhouse, Normal';font-variant-ligatures:normal;font-variant-caps:normal;font-variant-numeric:normal;font-feature-settings:normal;text-align:start" word-spacing="0">
          <path d="M184.06 572.3q-10.7-.13-6.44-18.83l7.91 1.4-2.5 4.97q10.95-2.27 11.35 5.15.4 7.42-10.32 7.3zm.88-5.4q2.44 0 2.44-1.66 0-1.65-2.44-1.65-2.43 0-2.43 1.65 0 1.66 2.43 1.66zM206.69 572.4q-4.66 0-7.96-2.82-3.28-2.82-3.28-6.82t3.28-6.82q3.3-2.83 7.96-2.83 4.64 0 7.92 2.83 3.3 2.82 3.3 6.82t-3.3 6.82q-3.28 2.83-7.92 2.83zm-.78-6.01q1.99 0 3.4-1.22 1.41-1.21 1.41-2.92 0-1.7-1.42-2.92-1.4-1.21-3.39-1.21-2 0-3.41 1.21-1.4 1.21-1.4 2.92t1.4 2.92q1.42 1.22 3.41 1.22z" style="-inkscape-font-specification:'Funhouse, Normal';font-variant-ligatures:normal;font-variant-caps:normal;font-variant-numeric:normal;font-feature-settings:normal;text-align:start"/>
        </g>
        <g fill="#00c853">
          <path d="M87.1 551.83a3.63 3.63 0 0 1 3.63 3.65v14.57a3.63 3.63 0 1 1-7.28 0v-14.57a3.63 3.63 0 0 1 3.64-3.65z"/>
          <path d="M98.02 562.76a3.63 3.63 0 0 1-3.64 3.64H79.8a3.63 3.63 0 1 1 0-7.28h14.57a3.63 3.63 0 0 1 3.64 3.64z"/>
        </g>
        <path fill="#c7ffde" d="M88.67 553.58c.51 0 .93.42.93.94v3.51a.93.93 0 1 1-1.87 0v-3.5c0-.53.42-.95.94-.95z"/>
        <path fill="#e91e63" d="M241.55 558.06c0 1.86-1.5 3.36-3.36 3.36h-9.4a3.35 3.35 0 1 1 0-6.71h9.4c1.86 0 3.36 1.5 3.36 3.35zM241.55 567.46c0 1.86-1.5 3.35-3.36 3.35h-9.4a3.35 3.35 0 1 1 0-6.7h9.4c1.86 0 3.36 1.49 3.36 3.35z"/>
        <path fill="#facedd" d="M239.4 556.75c0 .53-.42.95-.94.95h-3.55a.94.94 0 1 1 0-1.9h3.55c.52 0 .94.43.94.95zM239.4 566.16c0 .53-.42.95-.94.95h-3.55a.94.94 0 1 1 0-1.9h3.55c.52 0 .94.43.94.95z"/>
        <g>
          <g fill="#00c853">
            <path d="M157.94 551.83a3.63 3.63 0 0 1 3.64 3.65v14.57a3.63 3.63 0 1 1-7.29 0v-14.57a3.63 3.63 0 0 1 3.65-3.65z"/>
            <path d="M168.86 562.76a3.63 3.63 0 0 1-3.64 3.64h-14.57a3.63 3.63 0 1 1 0-7.28h14.57a3.63 3.63 0 0 1 3.64 3.64z"/>
          </g>
          <path fill="#c7ffde" d="M159.51 553.58c.52 0 .94.42.94.94v3.51a.93.93 0 1 1-1.88 0v-3.5c0-.53.42-.95.94-.95z"/>
        </g>
      </g>
    </g>
  </g>
</svg>
