<svg xmlns="http://www.w3.org/2000/svg" viewBox="0 0 270.93 135.47">
  <g transform="translate(-296.4 -801.17)">
    <rect width="204.93" height="55.37" x="329.37" y="875.59" fill="#fff" stroke="#f57c00" stroke-linecap="round" stroke-linejoin="round" stroke-width="1.32" ry="5.23"/>
    <path fill="#fff" stroke="#f57c00" stroke-linecap="round" stroke-linejoin="round" stroke-width="1.32" d="M302.65 861.76c-2.85 0-6.31 2.6-5.15 5.24l9.92 22.54-9.92 22.55c0 2.9 2.3 5.24 5.15 5.24h26.72v-36.51c0-2.9 2.33-5.23 5.22-5.23h21.69V867c0-2.9-2.3-5.24-5.15-5.24z"/>
    <path fill="#f57c00" d="M351.56 861.65c-.4.02-.78.16-1.13.44 0 0-12.8 8.92-16.28 12.07-.62.56-1.18 1.03-1.69 1.43h23.79v-8.23c0-2.46-2.55-5.8-4.7-5.7z"/>
    <g>
      <path fill="#fff" stroke="#f57c00" stroke-linecap="round" stroke-linejoin="round" stroke-width="1.32" d="M512.61 861.76a5.18 5.18 0 0 0-5.14 5.24v8.6h21.6c2.9 0 5.23 2.32 5.23 5.22v36.51h26.8a5.18 5.18 0 0 0 5.14-5.24l-9.91-22.55 9.91-22.54c1.17-2.65-2.3-5.24-5.14-5.24z"/>
      <path fill="#f57c00" d="M512.19 861.65c.4.02.78.16 1.13.44 0 0 12.8 8.92 16.27 12.07.63.56 1.19 1.03 1.69 1.43H507.5v-8.23c0-2.46 2.54-5.8 4.69-5.7z"/>
    </g>
  </g>
  <g fill="#f57c00" stroke-width=".26" font-family="Funhouse" font-size="15.88" font-weight="400" letter-spacing="0" word-spacing="0">
    <g aria-label="additions with" style="line-height:1.25;-inkscape-font-specification:'Funhouse, Normal';font-variant-ligatures:normal;font-variant-caps:normal;font-variant-numeric:normal;font-feature-settings:normal;text-align:start">
      <path d="M69.66 89.15l-.54 1.55-3.06-1.85 3.83-9 2.92-.2 4.58 9.32-3.62 1.73-.8-2.18zm2.65-3.4l-.87-2.8-1.02 3.1zM78.28 90.7l-.5-10.85q10.58 0 10.58 5.42 0 5.43-10.08 5.43zm2.76-7.98l.52 3.75q3.36.02 3.36-1.87 0-1.88-3.88-1.88zM89.26 90.7l-.5-10.85q10.57 0 10.57 5.42 0 5.43-10.07 5.43zm2.76-7.98l.52 3.75q3.35.02 3.35-1.87 0-1.88-3.87-1.88zM103.33 79.9l.8 10.46-4.4.83.2-11.01zM110.78 83.15l.38 6.6-4.2 1.09.72-7.9-3.17-.27.25-2.86 9.1-.55.33 4.24zM118.18 79.9l.8 10.46-4.4.83.21-11.01zM125.68 90.7q-2.62 0-4.47-1.6-1.85-1.58-1.85-3.83t1.85-3.84q1.85-1.58 4.47-1.58 2.61 0 4.46 1.58 1.85 1.6 1.85 3.84 0 2.25-1.85 3.84-1.85 1.59-4.46 1.59zm-.43-3.39q1.11 0 1.9-.68.8-.68.8-1.65 0-.96-.8-1.64-.79-.68-1.9-.68-1.13 0-1.93.68-.79.68-.79 1.64 0 .97.8 1.65.8.68 1.92.68zM136.27 85.27l.77 4.44-3.87.99-.78-10.18 3.88-.67 3.83 5.06.04-5.06 4.81-.5-1.7 11.35-3.08.45zM147.68 86.41q-2.8-.4-2.47-3.48.32-3.08 7.19-3.65l.65 3.5q-3.4-.07-3.65.8-.25.9 2.6 1.02 2.86.14 2.8 3.48-.07 3.34-7.52 3.56l-1.37-3.66q3.82.4 4.2-.38.38-.8-2.43-1.19zM168.4 85.27l-1.55 5.43-3.06.4-4.62-9.12 3.8-2.13 2.33 6.2 1.82-4.9 3.1.42 1.28 4.48 1.86-6.43 4.22 2.31-4.53 8.77-3.47-.75zM181.56 79.9l.8 10.46-4.4.83.2-11.01zM189.01 83.15l.38 6.6-4.2 1.09.72-7.9-3.17-.27.25-2.86 9.09-.55.33 4.24zM196.85 87.43l.28 2.62-2.97.52-1.34-8.6 3.3-1.4.37 3.72 2.98-.34.04-3.4 5.17.53-1.97 9.52-3.33-.98.04-2.47z" style="-inkscape-font-specification:'Funhouse, Normal';font-variant-ligatures:normal;font-variant-caps:normal;font-variant-numeric:normal;font-feature-settings:normal;text-align:start"/>
    </g>
    <g aria-label="thousands" style="line-height:1.25;-inkscape-font-specification:'Funhouse, Normal';font-variant-ligatures:normal;font-variant-caps:normal;font-variant-numeric:normal;font-feature-settings:normal;text-align:start">
      <path d="M90.1 99.91l.38 6.6-4.2 1.09.72-7.9-3.17-.26.25-2.87 9.09-.54.33 4.24zM97.95 104.19l.27 2.62-2.96.52-1.35-8.6 3.3-1.4.37 3.72 2.98-.34.04-3.39 5.17.52-1.97 9.53-3.33-.99.04-2.47zM112.47 107.46q-2.62 0-4.47-1.59-1.85-1.59-1.85-3.84 0-2.24 1.85-3.83 1.85-1.6 4.47-1.6 2.61 0 4.46 1.6 1.85 1.59 1.85 3.83 0 2.25-1.85 3.84-1.85 1.59-4.46 1.59zm-.43-3.39q1.11 0 1.9-.68.8-.68.8-1.64 0-.96-.8-1.65-.79-.68-1.9-.68-1.13 0-1.93.68-.79.69-.79 1.65t.8 1.64q.8.68 1.92.68z" style="-inkscape-font-specification:'Funhouse, Normal';font-variant-ligatures:normal;font-variant-caps:normal;font-variant-numeric:normal;font-feature-settings:normal;text-align:start"/>
      <path d="M120.14 97.15l4.13.8q-2.06 6.34.59 6.4 3.15-.01 1.82-6.55l3.78-1.2q1.74 10.77-5.6 10.86-7.42-.07-4.72-10.31z" style="-inkscape-font-specification:'Funhouse, Normal';font-variant-ligatures:normal;font-variant-caps:normal;font-variant-numeric:normal;font-feature-settings:normal;text-align:start"/>
      <path d="M133.97 103.17q-2.8-.4-2.47-3.48.33-3.08 7.2-3.65l.65 3.5q-3.4-.07-3.66.81-.24.89 2.6 1.02 2.86.13 2.8 3.47-.06 3.34-7.51 3.57l-1.37-3.67q3.81.41 4.19-.38.38-.8-2.43-1.19zM145.13 105.9l-.54 1.56-3.06-1.85 3.83-9 2.92-.2 4.58 9.32-3.62 1.73-.8-2.18zm2.65-3.39l-.87-2.8-1.02 3.1zM157.14 102.03l.76 4.45-3.87.98-.78-10.18 3.89-.67 3.82 5.07.05-5.07 4.8-.5-1.7 11.35-3.08.45zM166.7 107.46l-.49-10.85q10.58 0 10.58 5.42 0 5.43-10.08 5.43zm2.77-7.98l.52 3.75q3.35.02 3.35-1.86 0-1.89-3.87-1.89zM179.99 103.17q-2.8-.4-2.48-3.48.33-3.08 7.2-3.65l.65 3.5q-3.4-.07-3.65.81-.25.89 2.6 1.02t2.8 3.47q-.07 3.34-7.52 3.57l-1.37-3.67q3.81.41 4.2-.38.37-.8-2.43-1.19z" style="-inkscape-font-specification:'Funhouse, Normal';font-variant-ligatures:normal;font-variant-caps:normal;font-variant-numeric:normal;font-feature-settings:normal;text-align:start"/>
    </g>
    <g aria-label="2 numbers" style="line-height:1.25;-inkscape-font-specification:'Funhouse, Normal';font-variant-ligatures:normal;font-variant-caps:normal;font-variant-numeric:normal;font-feature-settings:normal;text-align:start">
      <path d="M95.31 118.47q-2.8.4-2.3 1.87l4.08-.3.92 4.45-9.74-1q-.13-6.69 2.72-6.82 2.86-.13 2.6-1.02-.24-.88-3.64-.8l.65-3.5q6.87.56 7.2 3.64.32 3.09-2.49 3.48zM106.32 118.12l.77 4.44-3.87.98-.78-10.17 3.88-.68 3.83 5.07.04-5.07 4.81-.5-1.7 11.35-3.08.45z" style="-inkscape-font-specification:'Funhouse, Normal';font-variant-ligatures:normal;font-variant-caps:normal;font-variant-numeric:normal;font-feature-settings:normal;text-align:start"/>
      <path d="M115.92 113.23l4.13.81q-2.06 6.33.6 6.4 3.14-.02 1.82-6.55l3.78-1.2q1.73 10.76-5.6 10.85-7.42-.07-4.73-10.3z" style="-inkscape-font-specification:'Funhouse, Normal';font-variant-ligatures:normal;font-variant-caps:normal;font-variant-numeric:normal;font-feature-settings:normal;text-align:start"/>
      <path d="M139.36 112.7l.65 10.22-3.95.33-.2-5.23-.8 3.6-3.56.49-1.44-3.71.52 4.4-3.62.74.5-10.85 3.56-.47 1.96 6.2 2.4-6.02zM143.42 116.5q2.4-.45 2.35-1.37-.04-.91-2.45-.28zm.37 4.6q3.51-.14 3.52-1.22.01-1.09-3.64-1.04zm-3.37 2.44l.28-10.03q5.55-2.26 7.62-.22 2.08 2.04-.52 4.1 3.95 1.22 2.55 3.98-1.4 2.75-9.93 2.17z" style="-inkscape-font-specification:'Funhouse, Normal';font-variant-ligatures:normal;font-variant-caps:normal;font-variant-numeric:normal;font-feature-settings:normal;text-align:start"/>
      <path d="M159.42 111.3l.2 4.1-4.82.52.07.94 3.16-.3.28 2.81-3.3.24.05.76 4.68-.35.7 3.52-9.23.32.94-11.18zM164.62 115.25l.1 2.1q3.88 0 3.88-.78t-3.98-1.32zm.52 7.67l-4.32.6.9-11.57q9.98.74 10.32 4 .34 3.24-3.44 4.5l3.1 1.67-3.18 2.82-3.63-4.5zM175.56 119.26q-2.8-.4-2.48-3.48.33-3.09 7.2-3.65l.65 3.5q-3.4-.08-3.65.8-.25.89 2.6 1.02t2.8 3.47q-.07 3.34-7.52 3.57l-1.37-3.67q3.81.41 4.2-.38.37-.8-2.43-1.18z" style="-inkscape-font-specification:'Funhouse, Normal';font-variant-ligatures:normal;font-variant-caps:normal;font-variant-numeric:normal;font-feature-settings:normal;text-align:start"/>
    </g>
  </g>
  <g fill="#fff" stroke="#f57c00" stroke-width="1.06" aria-label="9000" font-family="Funhouse" font-size="28.22" font-weight="400" letter-spacing="0" style="line-height:1.25;-inkscape-font-specification:'Funhouse, Normal';font-variant-ligatures:normal;font-variant-caps:normal;font-variant-numeric:normal;font-feature-settings:normal;text-align:start" word-spacing="0">
    <path d="M35.12 8.29q10.72.1 6.45 18.8l-7.91-1.38 2.5-4.98Q25.22 23 24.82 15.6q-.4-7.43 10.31-7.3zm-.88 5.39q-2.43 0-2.43 1.65t2.43 1.65q2.44 0 2.44-1.65t-2.44-1.65z" style="-inkscape-font-specification:'Funhouse, Normal';font-variant-ligatures:normal;font-variant-caps:normal;font-variant-numeric:normal;font-feature-settings:normal;text-align:start"/>
    <path d="M55.27 27.2q-4.66 0-7.95-2.82-3.28-2.82-3.28-6.82t3.28-6.82q3.29-2.83 7.95-2.83 4.64 0 7.92 2.83 3.3 2.82 3.3 6.82t-3.3 6.82q-3.28 2.83-7.92 2.83zm-.77-6.01q1.98 0 3.39-1.22 1.42-1.21 1.42-2.92 0-1.7-1.42-2.92-1.41-1.21-3.4-1.21-2 0-3.41 1.21-1.4 1.21-1.4 2.92t1.4 2.92q1.42 1.22 3.42 1.22zM78.42 27.2q-4.66 0-7.95-2.82-3.28-2.82-3.28-6.82t3.28-6.82q3.3-2.83 7.95-2.83 4.64 0 7.92 2.83 3.3 2.82 3.3 6.82t-3.3 6.82q-3.28 2.83-7.92 2.83zm-.77-6.01q1.98 0 3.39-1.22 1.42-1.21 1.42-2.92 0-1.7-1.42-2.92-1.4-1.21-3.4-1.21t-3.41 1.21q-1.4 1.21-1.4 2.92t1.4 2.92q1.42 1.22 3.42 1.22zM101.57 27.2q-4.66 0-7.95-2.82-3.28-2.82-3.28-6.82t3.28-6.82q3.3-2.83 7.95-2.83 4.64 0 7.92 2.83 3.3 2.82 3.3 6.82t-3.3 6.82q-3.28 2.83-7.92 2.83zm-.77-6.01q1.98 0 3.39-1.22 1.42-1.21 1.42-2.92 0-1.7-1.42-2.92-1.4-1.21-3.4-1.21-1.99 0-3.4 1.21t-1.41 2.92q0 1.71 1.4 2.92 1.42 1.22 3.42 1.22z" style="-inkscape-font-specification:'Funhouse, Normal';font-variant-ligatures:normal;font-variant-caps:normal;font-variant-numeric:normal;font-feature-settings:normal;text-align:start"/>
  </g>
  <g fill="#fff" stroke="#f57c00" stroke-width="1.06" aria-label="1926" font-family="Funhouse" font-size="28.22" font-weight="400" letter-spacing="0" style="line-height:1.25;-inkscape-font-specification:'Funhouse, Normal';font-variant-ligatures:normal;font-variant-caps:normal;font-variant-numeric:normal;font-feature-settings:normal;text-align:start" word-spacing="0">
    <path d="M165.84 27.36l-9.43-.4L158 13.93l-3.25 1.31-1.28-5.43 9.9-3.04zM176.41 8.63q10.72.1 6.45 18.8l-7.91-1.38 2.5-4.98q-10.95 2.28-11.35-5.14-.4-7.43 10.31-7.3zm-.88 5.39q-2.43 0-2.43 1.65t2.43 1.65q2.44 0 2.44-1.65t-2.44-1.65z" style="-inkscape-font-specification:'Funhouse, Normal';font-variant-ligatures:normal;font-variant-caps:normal;font-variant-numeric:normal;font-feature-settings:normal;text-align:start"/>
    <path d="M197.63 18.54q-4.97.69-4.1 3.32l7.26-.54 1.64 7.91-17.32-1.8q-.23-11.87 4.85-12.1 5.07-.24 4.63-1.81-.45-1.57-6.5-1.43l1.16-6.23q12.21 1 12.8 6.49.57 5.48-4.42 6.19z" style="-inkscape-font-specification:'Funhouse, Normal';font-variant-ligatures:normal;font-variant-caps:normal;font-variant-numeric:normal;font-feature-settings:normal;text-align:start"/>
    <path d="M210.86 27.44q-10.7-.13-6.43-18.83l7.9 1.4-2.5 4.97q10.95-2.27 11.35 5.15.4 7.42-10.32 7.3zm.88-5.4q2.44 0 2.44-1.66 0-1.65-2.44-1.65-2.42 0-2.42 1.65 0 1.66 2.42 1.66z" style="-inkscape-font-specification:'Funhouse, Normal';font-variant-ligatures:normal;font-variant-caps:normal;font-variant-numeric:normal;font-feature-settings:normal;text-align:start"/>
  </g>
  <g fill="#00c853">
    <path d="M133.08 6.63a3.63 3.63 0 0 1 3.64 3.65v14.57a3.63 3.63 0 1 1-7.29 0V10.28a3.63 3.63 0 0 1 3.65-3.65z"/>
    <path d="M144 17.56a3.63 3.63 0 0 1-3.64 3.64H125.8a3.63 3.63 0 1 1 0-7.28h14.57a3.63 3.63 0 0 1 3.64 3.64z"/>
  </g>
  <path fill="#c7ffde" d="M134.65 8.38c.52 0 .94.42.94.94v3.51a.93.93 0 1 1-1.88 0v-3.5c0-.53.42-.95.94-.95z"/>
  <g>
    <path fill="#e91e63" d="M246.66 12.86c0 1.86-1.5 3.36-3.35 3.36h-9.4a3.35 3.35 0 1 1 0-6.71h9.4c1.86 0 3.35 1.5 3.35 3.35zM246.66 22.26c0 1.86-1.5 3.35-3.35 3.35h-9.4a3.35 3.35 0 1 1 0-6.7h9.4c1.86 0 3.35 1.49 3.35 3.35z"/>
    <path fill="#facedd" d="M244.52 11.55c0 .53-.42.95-.95.95h-3.54a.94.94 0 1 1 0-1.9h3.54c.53 0 .95.43.95.95zM244.52 20.96c0 .53-.42.95-.95.95h-3.54a.94.94 0 1 1 0-1.9h3.54c.53 0 .95.43.95.95z"/>
  </g>
  <g>
    <g fill="#fff" stroke="#f57c00" stroke-width="1.06" aria-label="8546" font-family="Funhouse" font-size="28.22" font-weight="400" letter-spacing="0" style="line-height:1.25;-inkscape-font-specification:'Funhouse, Normal';font-variant-ligatures:normal;font-variant-caps:normal;font-variant-numeric:normal;font-feature-settings:normal;text-align:start" word-spacing="0">
      <path d="M31.74 37.26q-.75 0-1.3.43-.51.43-.51 1.03 0 .61.52 1.04.54.42 1.3.42.74 0 1.26-.42.54-.43.54-1.04 0-.6-.54-1.03-.52-.43-1.27-.43zm.28 7.09q-1.14 0-1.96.46-.8.47-.8 1.15 0 .67.8 1.16.82.46 1.96.46 1.16 0 1.97-.46.81-.49.81-1.16 0-.68-.8-1.15-.82-.46-1.98-.46zm5.06-2.25q.54.29 1.03.65 2.28 1.72 2.28 4.16 0 2.42-2.3 4.15-2.27 1.72-5.5 1.72t-5.52-1.72q-2.27-1.73-2.27-4.15 0-2.44 2.29-4.16.36-.26.73-.5-1.46-1.43-1.46-3.4 0-2.17 1.76-3.68 1.76-1.53 4.26-1.53 2.48 0 4.24 1.53 1.77 1.51 1.77 3.68 0 1.86-1.31 3.25z" style="-inkscape-font-specification:'Funhouse, Normal';font-variant-ligatures:normal;font-variant-caps:normal;font-variant-numeric:normal;font-feature-settings:normal;text-align:start"/>
      <path d="M52.37 42.24q5 .69 4.41 6.17-.58 5.49-12.78 6.5l-1.16-6.24q6.05.14 6.49-1.43.44-1.57-4.63-1.8-5.07-.24-4.85-12.12l17.32-1.79-1.64 7.91-7.26-.54q-.87 2.64 4.1 3.34zM65.07 32.4l-7.03 13.7 7.87 1.03-1.12 6.61 8.14-1-.23-4.67 2.99.31 1.12-6.03-4.28-.11v-10.2zm-.76 9.27l1.58-3.76 1.64.17-.67 3.83zM85.78 53.11Q75.07 53 79.34 34.3l7.91 1.39-2.5 4.97q10.95-2.27 11.35 5.16.4 7.41-10.32 7.3zm.88-5.4q2.44 0 2.44-1.65 0-1.66-2.44-1.66-2.43 0-2.43 1.66 0 1.65 2.43 1.65z" style="-inkscape-font-specification:'Funhouse, Normal';font-variant-ligatures:normal;font-variant-caps:normal;font-variant-numeric:normal;font-feature-settings:normal;text-align:start"/>
    </g>
    <g fill="#fff" stroke="#f57c00" stroke-width="1.06" aria-label="3000" font-family="Funhouse" font-size="28.22" font-weight="400" letter-spacing="0" style="line-height:1.25;-inkscape-font-specification:'Funhouse, Normal';font-variant-ligatures:normal;font-variant-caps:normal;font-variant-numeric:normal;font-feature-settings:normal;text-align:start" word-spacing="0">
      <path d="M147.54 42.84q4.4.44 3.57 5.05-.81 4.6-13.53 5.76l-1.16-6.88q8.37.2 8.37-1.09 0-1.3-3.3-.74l-.9-4.81q4.2-.04 4.16-1.67-.04-1.62-7.44.17l.8-5.8q11.83-.79 12.82 3.8 1.01 4.57-3.39 6.21zM163.86 52.49q-4.66 0-7.95-2.83-3.28-2.82-3.28-6.82t3.28-6.82q3.3-2.82 7.95-2.82 4.64 0 7.92 2.82 3.3 2.83 3.3 6.82 0 4-3.3 6.82-3.28 2.83-7.92 2.83zm-.77-6.02q1.98 0 3.39-1.21 1.42-1.22 1.42-2.93 0-1.7-1.42-2.92-1.4-1.21-3.4-1.21-1.99 0-3.4 1.21t-1.41 2.92q0 1.71 1.4 2.93 1.42 1.2 3.42 1.2zM187.01 52.49q-4.66 0-7.95-2.83-3.28-2.82-3.28-6.82t3.28-6.82q3.3-2.82 7.95-2.82t7.92 2.82q3.3 2.83 3.3 6.82 0 4-3.3 6.82-3.27 2.83-7.92 2.83zm-.77-6.02q1.98 0 3.39-1.21 1.42-1.22 1.42-2.93 0-1.7-1.42-2.92-1.4-1.21-3.4-1.21-1.99 0-3.4 1.21t-1.41 2.92q0 1.71 1.4 2.93 1.42 1.2 3.42 1.2zM210.16 52.49q-4.66 0-7.95-2.83-3.28-2.82-3.28-6.82t3.28-6.82q3.3-2.82 7.95-2.82t7.93 2.82q3.29 2.83 3.29 6.82 0 4-3.3 6.82-3.27 2.83-7.92 2.83zm-.77-6.02q1.98 0 3.39-1.21 1.42-1.22 1.42-2.93 0-1.7-1.42-2.92-1.4-1.21-3.39-1.21-2 0-3.42 1.21-1.4 1.21-1.4 2.92t1.4 2.93q1.42 1.2 3.42 1.2z" style="-inkscape-font-specification:'Funhouse, Normal';font-variant-ligatures:normal;font-variant-caps:normal;font-variant-numeric:normal;font-feature-settings:normal;text-align:start"/>
    </g>
    <g fill="#00c853">
      <path d="M116.22 32.27a3.63 3.63 0 0 1 3.64 3.64v14.57a3.63 3.63 0 1 1-7.28 0V35.91a3.63 3.63 0 0 1 3.64-3.64z"/>
      <path d="M127.15 43.2a3.63 3.63 0 0 1-3.65 3.64h-14.57a3.63 3.63 0 1 1 0-7.28h14.57a3.63 3.63 0 0 1 3.65 3.64z"/>
    </g>
    <path fill="#c7ffde" d="M117.8 34.02c.51 0 .93.42.93.94v3.51a.93.93 0 1 1-1.87 0v-3.51c0-.52.41-.94.93-.94z"/>
    <g>
      <path fill="#e91e63" d="M246.66 38.5c0 1.86-1.5 3.36-3.35 3.36h-9.4a3.35 3.35 0 1 1 0-6.71h9.4c1.86 0 3.35 1.5 3.35 3.35zM246.66 47.9c0 1.86-1.5 3.35-3.35 3.35h-9.4a3.35 3.35 0 1 1 0-6.7h9.4c1.86 0 3.35 1.49 3.35 3.35z"/>
      <path fill="#facedd" d="M244.52 37.2c0 .51-.42.94-.95.94h-3.54a.94.94 0 1 1 0-1.9h3.54c.53 0 .95.43.95.95zM244.52 46.6c0 .52-.42.95-.95.95h-3.54a.94.94 0 1 1 0-1.9h3.54c.53 0 .95.43.95.95z"/>
    </g>
  </g>
</svg>
