<svg xmlns="http://www.w3.org/2000/svg" viewBox="0 0 270.93 135.47">
  <path fill="#f57c00" d="M215.78 60.48c-2.15-.1-4.69 3.24-4.69 5.7v8.24h23.78c-.5-.4-1.06-.87-1.68-1.44-3.48-3.15-16.28-12.06-16.28-12.06a1.92 1.92 0 0 0-1.13-.44z"/>
  <path fill="#fff" stroke="#f57c00" stroke-linecap="round" stroke-linejoin="round" stroke-width="1.32" d="M6.24 60.58c-2.85 0-6.3 2.6-5.14 5.25L11 88.37 1.1 110.91c0 2.9 2.3 5.25 5.14 5.25h26.72V79.64c0-2.9 2.33-5.22 5.23-5.22h21.68v-8.6c0-2.9-2.3-5.24-5.15-5.24z"/>
  <path fill="#f57c00" d="M55.15 60.48c-.4.02-.78.15-1.13.44 0 0-12.8 8.91-16.27 12.06-.63.57-1.19 1.03-1.7 1.44h23.79v-8.23c0-2.47-2.54-5.81-4.69-5.71z"/>
  <g fill="#fff" stroke="#f57c00" stroke-linecap="round" stroke-linejoin="round" stroke-width="1.32" transform="translate(-296.4 -801.17)">
    <path d="M512.61 861.76a5.18 5.18 0 0 0-5.14 5.24v8.6h21.6c2.9 0 5.23 2.32 5.23 5.22v36.51h26.8a5.18 5.18 0 0 0 5.14-5.24l-9.91-22.55 9.91-22.54c1.17-2.65-2.3-5.24-5.14-5.24z"/>
    <rect width="204.93" height="55.37" x="329.37" y="875.59" ry="5.23"/>
  </g>
  <g fill="#f57c00" stroke-width=".26" font-size="15.88" font-weight="400" letter-spacing="0" word-spacing="0">
    <g aria-label="subtraction" font-family="Funhouse" style="line-height:1.25;-inkscape-font-specification:'Funhouse, Normal';font-variant-ligatures:normal;font-variant-caps:normal;font-variant-numeric:normal;font-feature-settings:normal;text-align:start">
      <path d="M79.58 102.95q-2.8-.4-2.47-3.48.32-3.09 7.2-3.66l.64 3.5q-3.4-.07-3.65.81-.25.89 2.6 1.02 2.86.13 2.8 3.47-.06 3.34-7.51 3.57l-1.38-3.67q3.82.41 4.2-.38.38-.8-2.43-1.18z" style="-inkscape-font-specification:'Funhouse, Normal';font-variant-ligatures:normal;font-variant-caps:normal;font-variant-numeric:normal;font-feature-settings:normal;text-align:start"/>
      <path d="M88.07 96.92l4.13.81q-2.06 6.33.59 6.4 3.15-.02 1.82-6.56l3.78-1.19q1.74 10.76-5.6 10.85-7.42-.07-4.72-10.3z" style="-inkscape-font-specification:'Funhouse, Normal';font-variant-ligatures:normal;font-variant-caps:normal;font-variant-numeric:normal;font-feature-settings:normal;text-align:start"/>
      <path d="M102.36 100.19q2.4-.45 2.35-1.37-.04-.91-2.46-.28zm.37 4.6q3.5-.14 3.52-1.22.01-1.09-3.64-1.04zm-3.37 2.44l.28-10.04q5.54-2.25 7.62-.21t-.53 4.1q3.96 1.22 2.55 3.98-1.39 2.75-9.92 2.17z" style="-inkscape-font-specification:'Funhouse, Normal';font-variant-ligatures:normal;font-variant-caps:normal;font-variant-numeric:normal;font-feature-settings:normal;text-align:start"/>
      <path d="M115.2 99.68l.39 6.6-4.2 1.1.72-7.9-3.17-.27.24-2.87 9.1-.54.33 4.24zM122.81 98.94l.11 2.1q3.88 0 3.88-.78t-3.99-1.32zm.52 7.66l-4.32.61.9-11.57q9.99.74 10.32 4 .34 3.24-3.43 4.5l3.1 1.67-3.18 2.82-3.64-4.5zM133.65 105.68l-.54 1.55-3.06-1.84 3.83-9 2.91-.21 4.59 9.32-3.62 1.73-.8-2.18zm2.65-3.4l-.87-2.8-1.02 3.1zM151.55 105.64q-1.84 1.6-4.44 1.6-2.6 0-4.43-1.6-1.84-1.59-1.84-3.83 0-2.25 1.84-3.84 1.84-1.59 4.43-1.59 2.6 0 4.44 1.59.92.8 1.38 1.77l-3.72.94q-.18-.5-.65-.9-.79-.69-1.9-.69-1.1 0-1.9.69-.79.68-.79 1.64 0 .96.8 1.64.78.68 1.9.68 1.1 0 1.9-.68.42-.37.62-.83l3.74 1.65q-.46.97-1.38 1.76zM159.6 99.68l.39 6.6-4.2 1.1.72-7.9-3.17-.27.24-2.87 9.1-.54.33 4.24zM167.01 96.44l.8 10.46-4.4.83.2-11.02zM174.5 107.23q-2.61 0-4.47-1.59-1.84-1.59-1.84-3.83 0-2.25 1.84-3.84 1.86-1.59 4.48-1.59 2.6 0 4.45 1.59 1.86 1.59 1.86 3.84 0 2.24-1.86 3.83-1.84 1.6-4.45 1.6zm-.43-3.38q1.12 0 1.9-.69.8-.68.8-1.64 0-.96-.8-1.64-.78-.69-1.9-.69-1.12 0-1.92.69-.8.68-.8 1.64 0 .96.8 1.64.8.69 1.92.69zM185.1 101.8l.76 4.45-3.87.98-.78-10.17 3.88-.68 3.83 5.07.05-5.07 4.8-.5-1.7 11.35-3.08.45z" style="-inkscape-font-specification:'Funhouse, Normal';font-variant-ligatures:normal;font-variant-caps:normal;font-variant-numeric:normal;font-feature-settings:normal;text-align:start"/>
    </g>
    <g aria-label="equations" font-family="Funhouse" style="line-height:1.25;-inkscape-font-specification:'Funhouse, Normal';font-variant-ligatures:normal;font-variant-caps:normal;font-variant-numeric:normal;font-feature-settings:normal;text-align:start">
      <path d="M96.9 111.66l.2 4.11-4.82.52.07.94 3.16-.3.28 2.8-3.3.25.05.76 4.68-.36.7 3.53-9.23.32.94-11.19zM104.84 119.68q.68-.68.68-1.65 0-.96-.68-1.64-.68-.68-1.64-.68-.96 0-1.65.68-.68.68-.68 1.64 0 .97.68 1.65.69.68 1.65.68t1.64-.68zm5.09.77l1.4.42-2.94 3.62-.87-1.46q-1.52.88-3.46.88-2.6 0-4.45-1.59-1.84-1.59-1.84-3.84 0-2.24 1.84-3.83 1.84-1.6 4.45-1.6 2.6 0 4.43 1.6 1.85 1.59 1.85 3.83 0 1.07-.41 1.97z" style="-inkscape-font-specification:'Funhouse, Normal';font-variant-ligatures:normal;font-variant-caps:normal;font-variant-numeric:normal;font-feature-settings:normal;text-align:start"/>
      <path d="M112.25 113.6l4.13.8q-2.06 6.34.6 6.4 3.14-.01 1.81-6.55l3.79-1.2q1.73 10.77-5.6 10.86-7.43-.07-4.73-10.31z" style="-inkscape-font-specification:'Funhouse, Normal';font-variant-ligatures:normal;font-variant-caps:normal;font-variant-numeric:normal;font-feature-settings:normal;text-align:start"/>
      <path d="M126.14 122.36l-.54 1.55-3.05-1.85 3.82-9 2.92-.2 4.58 9.32-3.62 1.73-.8-2.18zm2.65-3.4l-.86-2.8-1.03 3.1z" style="-inkscape-font-specification:'Funhouse, Normal';font-variant-ligatures:normal;font-variant-caps:normal;font-variant-numeric:normal;font-feature-settings:normal;text-align:start"/>
      <path d="M138.15 116.36l.38 6.6-4.2 1.09.72-7.9-3.17-.26.25-2.87 9.09-.54.33 4.24zM145.55 113.12l.8 10.46-4.4.83.2-11.02zM153.05 123.91q-2.62 0-4.48-1.59-1.84-1.59-1.84-3.84 0-2.24 1.84-3.83 1.86-1.6 4.48-1.6 2.61 0 4.45 1.6 1.86 1.59 1.86 3.83 0 2.25-1.86 3.84-1.84 1.59-4.45 1.59zm-.44-3.39q1.12 0 1.91-.68.8-.68.8-1.64 0-.96-.8-1.65-.79-.68-1.9-.68-1.13 0-1.93.68-.79.69-.79 1.65t.8 1.64q.79.68 1.91.68zM163.64 118.48l.76 4.45-3.86.98-.79-10.18 3.89-.67 3.83 5.07.04-5.07 4.8-.5-1.7 11.35-3.07.45zM175.05 119.62q-2.8-.4-2.48-3.48.33-3.08 7.2-3.65l.65 3.5q-3.4-.07-3.65.81-.25.89 2.6 1.02t2.8 3.47q-.07 3.34-7.52 3.57l-1.37-3.67q3.81.41 4.2-.38.37-.8-2.43-1.19z" style="-inkscape-font-specification:'Funhouse, Normal';font-variant-ligatures:normal;font-variant-caps:normal;font-variant-numeric:normal;font-feature-settings:normal;text-align:start"/>
    </g>
    <g aria-label="addition" font-family="Funhouse" style="line-height:1.25;-inkscape-font-specification:'Funhouse, Normal';font-variant-ligatures:normal;font-variant-caps:normal;font-variant-numeric:normal;font-feature-settings:normal;text-align:start">
      <path d="M90.96 89.35l-.54 1.55-3.06-1.85 3.83-9 2.92-.2 4.58 9.32-3.62 1.73-.8-2.18zm2.65-3.4l-.87-2.8-1.02 3.1zM99.58 90.9l-.5-10.85q10.58 0 10.58 5.42 0 5.43-10.08 5.43zm2.76-7.98l.52 3.75q3.35.02 3.35-1.87 0-1.88-3.87-1.88zM110.55 90.9l-.5-10.85q10.58 0 10.58 5.42 0 5.43-10.08 5.43zm2.76-7.98l.52 3.75q3.36.02 3.36-1.87 0-1.88-3.88-1.88zM124.63 80.1l.8 10.46-4.4.83.2-11.01zM132.08 83.35l.38 6.6-4.2 1.09.72-7.9-3.17-.27.25-2.86 9.09-.55.33 4.24zM139.48 80.1l.8 10.46-4.4.83.2-11.01zM146.98 90.9q-2.62 0-4.47-1.6-1.85-1.58-1.85-3.83t1.85-3.84q1.85-1.58 4.47-1.58 2.61 0 4.46 1.58 1.85 1.6 1.85 3.84 0 2.25-1.85 3.84-1.85 1.59-4.46 1.59zm-.44-3.39q1.12 0 1.91-.68.8-.68.8-1.65 0-.96-.8-1.64-.79-.68-1.9-.68-1.13 0-1.93.68-.79.68-.79 1.64 0 .97.8 1.65.8.68 1.91.68zM157.57 85.47l.76 4.44-3.86.99-.79-10.18 3.89-.67 3.83 5.06.04-5.06 4.8-.5-1.7 11.35-3.07.45z" style="-inkscape-font-specification:'Funhouse, Normal';font-variant-ligatures:normal;font-variant-caps:normal;font-variant-numeric:normal;font-feature-settings:normal;text-align:start"/>
    </g>
    <g style="line-height:1.25;-inkscape-font-specification:'SC Gum Kids, Normal';font-variant-ligatures:normal;font-variant-caps:normal;font-variant-numeric:normal;font-feature-settings:normal;text-align:start">
      <path d="M177.93 81.69q-.31 0-.46.14l-.01.01q-.02.03-.02.11 0 .26.16.68.09.24.24.54.3-.24.49-.47.34-.4.34-.63l-.02-.08-.12-.12q-.23-.18-.6-.18zm-1.23 5.22q-.2.32-.21.66 0 .56.46 1 .48.48 1.11.48.53 0 1.03-.35-1.1-1.2-1.92-2.28-.3.23-.47.5zm1.36 4.48q-1.6 0-2.75-1.14t-1.16-2.68q0-1.04.59-1.94.43-.66 1.14-1.17-.26-.47-.43-.91-.35-.87-.35-1.6 0-.54.19-1 .21-.52.64-.89.83-.71 2-.71.82 0 1.55.36.8.42 1.22 1.15.3.56.3 1.2 0 1.12-.9 2.16-.4.48-.96.92.37.49.81 1 .27.33.58.67.4-.85.7-1.95l2.26.6q-.5 1.86-1.27 3.14l.93.91.07.05-1.6 1.72-.25-.24-.66-.64q-1.23 1-2.63 1z" aria-label="&amp;" font-family="SC Gum Kids" style="-inkscape-font-specification:'SC Gum Kids, Normal';font-variant-ligatures:normal;font-variant-caps:normal;font-variant-numeric:normal;font-feature-settings:normal;text-align:start"/>
    </g>
  </g>
  <g>
    <g style="line-height:1.25;-inkscape-font-specification:'SC Gum Kids, Normal';font-variant-ligatures:normal;font-variant-caps:normal;font-variant-numeric:normal;font-feature-settings:normal;text-align:start">
      <path fill="#fff" stroke="#f57c00" stroke-width=".9922978000000001" d="M75.74 13.67q-3.1-.05-4.66 2.36-.88 1.35-1.1 3.03.15-1.4-.48-2.64-.56-2.17-2.64-2.75-1.68-.48-3.82 1.5l.03-1.74-5.4-.03.16 15.52 5.3-.15.22-4.3q.56-5.13 2.13-5.04 1.67.07 1.51 4.63-.07 2.28-.48 4.55l5.4.02q.13-2.42.54-4.75.39-4.54 1.78-4.15 1.41.38 1.34 4.72-.19 2.26-.65 4.43l5.05-.27q.58-3.71.39-7.43-.18-3.25-1.06-5.12-1.1-2.35-3.56-2.4z" aria-label="m" font-family="SC Gum Kids" font-size="31.75" font-weight="400" letter-spacing="0" style="-inkscape-font-specification:'SC Gum Kids, Normal';font-variant-ligatures:normal;font-variant-caps:normal;font-variant-numeric:normal;font-feature-settings:normal;text-align:start" word-spacing="0"/>
    </g>
    <g fill="#fff" stroke="#f57c00" stroke-width="1.06" aria-label="12" font-family="Funhouse" font-size="31.75" font-weight="400" letter-spacing="0" style="line-height:1.25;-inkscape-font-specification:'Funhouse, Normal';font-variant-ligatures:normal;font-variant-caps:normal;font-variant-numeric:normal;font-feature-settings:normal;text-align:start" word-spacing="0">
      <path stroke-width=".9922978000000001" d="M128.12 28.46l-9.93-.42 1.67-13.71-3.42 1.38-1.35-5.72 10.43-3.21zM142.27 19.17q-5.24.73-4.33 3.5l7.65-.56 1.73 8.33-18.24-1.9q-.24-12.5 5.1-12.75 5.35-.24 4.88-1.9-.46-1.65-6.83-1.5l1.21-6.57q12.86 1.06 13.47 6.84.61 5.77-4.64 6.51z" style="-inkscape-font-specification:'Funhouse, Normal';font-variant-ligatures:normal;font-variant-caps:normal;font-variant-numeric:normal;font-feature-settings:normal;text-align:start"/>
    </g>
    <g fill="#fff" stroke="#f57c00" stroke-width="1.06" aria-label="34" font-family="Funhouse" font-size="31.75" font-weight="400" letter-spacing="0" style="line-height:1.25;-inkscape-font-specification:'Funhouse, Normal';font-variant-ligatures:normal;font-variant-caps:normal;font-variant-numeric:normal;font-feature-settings:normal;text-align:start" word-spacing="0">
      <path stroke-width=".9922978000000001" d="M187.96 18.51q4.63.47 3.76 5.32-.85 4.84-14.25 6.06l-1.22-7.24q8.81.22 8.81-1.15 0-1.38-3.47-.78l-.96-5.07q4.43-.04 4.39-1.75-.05-1.71-7.84.17l.84-6.1q12.47-.83 13.51 4 1.06 4.82-3.57 6.54zM200.72 6.74l-7.4 14.43 8.28 1.09-1.17 6.96 8.58-1.06-.25-4.92 3.15.34 1.17-6.36-4.5-.11V6.37zm-.8 9.77l1.67-3.96 1.73.17-.71 4.04z" style="-inkscape-font-specification:'Funhouse, Normal';font-variant-ligatures:normal;font-variant-caps:normal;font-variant-numeric:normal;font-feature-settings:normal;text-align:start"/>
    </g>
    <g transform="matrix(.84847 0 0 .84847 -194.38 675.12)">
      <g fill="#00c853" transform="translate(7.99 30.08) scale(1.09493)">
        <rect width="7.84" height="23.53" x="303.23" y="-746.43" ry="3.92"/>
        <rect width="7.84" height="23.53" x="-738.58" y="-318.92" ry="3.92" transform="rotate(90)"/>
      </g>
      <rect width="2.21" height="6.35" x="345.05" y="-785.14" fill="#c7ffde" ry="1.1"/>
    </g>
    <g transform="rotate(90 -377.13 242.29) scale(.85575)">
      <rect width="7.84" height="18.82" x="-712.05" y="-356.04" fill="#e91e63" ry="3.92"/>
      <rect width="7.84" height="18.82" x="-701.07" y="-356.04" fill="#e91e63" ry="3.92"/>
      <rect width="2.21" height="6.35" x="-710.76" y="-353.53" fill="#facedd" ry="1.1"/>
      <rect width="2.21" height="6.35" x="-699.77" y="-353.53" fill="#facedd" ry="1.1"/>
    </g>
    <g>
      <g fill="#fff" stroke="#f57c00" stroke-width="1.06" aria-label="63" font-family="Funhouse" font-size="31.75" font-weight="400" letter-spacing="0" style="line-height:1.25;-inkscape-font-specification:'Funhouse, Normal';font-variant-ligatures:normal;font-variant-caps:normal;font-variant-numeric:normal;font-feature-settings:normal;text-align:start" word-spacing="0">
        <path stroke-width=".9922978000000001" d="M65.82 61.95q-11.28-.13-6.78-19.82l8.33 1.46-2.64 5.24q11.54-2.4 11.96 5.43.42 7.8-10.87 7.7zm.93-5.69q2.57 0 2.57-1.74t-2.57-1.74q-2.56 0-2.56 1.74t2.56 1.74zM89.53 51.9q4.63.47 3.76 5.32-.85 4.85-14.25 6.07l-1.22-7.24q8.81.21 8.81-1.15 0-1.38-3.47-.79l-.96-5.06q4.43-.04 4.39-1.76-.05-1.7-7.84.18l.84-6.11q12.47-.83 13.51 4 1.06 4.82-3.57 6.55z" style="-inkscape-font-specification:'Funhouse, Normal';font-variant-ligatures:normal;font-variant-caps:normal;font-variant-numeric:normal;font-feature-settings:normal;text-align:start"/>
      </g>
      <g style="line-height:1.25;-inkscape-font-specification:'SC Gum Kids, Normal';font-variant-ligatures:normal;font-variant-caps:normal;font-variant-numeric:normal;font-feature-settings:normal;text-align:start">
        <path fill="#fff" stroke="#f57c00" stroke-width=".9922978000000001" d="M143.98 47.8q-3.1-.04-4.66 2.36-.89 1.35-1.1 3.04.14-1.41-.48-2.64-.57-2.18-2.65-2.76-1.68-.48-3.81 1.5l.03-1.73-5.4-.03.16 15.51 5.3-.14.21-4.3q.57-5.14 2.14-5.05 1.66.07 1.5 4.63-.07 2.28-.47 4.56l5.4.01q.13-2.42.53-4.74.4-4.55 1.79-4.15 1.4.37 1.33 4.71-.19 2.27-.65 4.43l5.05-.26q.58-3.72.4-7.43-.18-3.25-1.07-5.13-1.1-2.35-3.55-2.4z" aria-label="m" font-family="SC Gum Kids" font-size="31.75" font-weight="400" letter-spacing="0" style="-inkscape-font-specification:'SC Gum Kids, Normal';font-variant-ligatures:normal;font-variant-caps:normal;font-variant-numeric:normal;font-feature-settings:normal;text-align:start" word-spacing="0"/>
      </g>
      <g fill="#fff" stroke="#f57c00" stroke-width="1.06" aria-label="13" font-family="Funhouse" font-size="31.75" font-weight="400" letter-spacing="0" style="line-height:1.25;-inkscape-font-specification:'Funhouse, Normal';font-variant-ligatures:normal;font-variant-caps:normal;font-variant-numeric:normal;font-feature-settings:normal;text-align:start" word-spacing="0">
        <path stroke-width=".9922978000000001" d="M196.76 62.6l-9.92-.42 1.66-13.71-3.42 1.38-1.35-5.72 10.43-3.21zM209.2 52.65q4.63.46 3.76 5.3-.86 4.86-14.25 6.07l-1.22-7.24q8.8.22 8.8-1.14 0-1.38-3.46-.79l-.96-5.06q4.43-.05 4.38-1.76-.04-1.71-7.83.18l.84-6.11q12.47-.83 13.51 4 1.06 4.82-3.57 6.55z" style="-inkscape-font-specification:'Funhouse, Normal';font-variant-ligatures:normal;font-variant-caps:normal;font-variant-numeric:normal;font-feature-settings:normal;text-align:start"/>
      </g>
      <g transform="rotate(90 -483.4 304.8) scale(.99466)">
        <rect width="7.84" height="18.82" x="-743.81" y="-356.04" fill="#e91e63" ry="3.92"/>
        <rect width="2.21" height="6.35" x="-742.53" y="-353.53" fill="#facedd" ry="1.1"/>
      </g>
      <g transform="rotate(90 -420.25 233.3) scale(.85575)">
        <rect width="7.84" height="18.82" x="-712.05" y="-356.04" fill="#e91e63" ry="3.92"/>
        <rect width="7.84" height="18.82" x="-701.07" y="-356.04" fill="#e91e63" ry="3.92"/>
        <rect width="2.21" height="6.35" x="-710.76" y="-353.53" fill="#facedd" ry="1.1"/>
        <rect width="2.21" height="6.35" x="-699.77" y="-353.53" fill="#facedd" ry="1.1"/>
      </g>
    </g>
  </g>
</svg>
