<svg xmlns="http://www.w3.org/2000/svg" viewBox="0 0 270.93 135.47">
  <path fill="#f57c00" d="M215.78 60.48c-2.15-.1-4.69 3.24-4.69 5.7v8.24h23.78c-.5-.4-1.06-.87-1.68-1.44-3.48-3.15-16.28-12.06-16.28-12.06a1.92 1.92 0 0 0-1.13-.44z"/>
  <g transform="translate(-914.33 -801.17)">
    <rect width="204.93" height="55.37" x="947.29" y="875.59" fill="#fff" stroke="#f57c00" stroke-linecap="round" stroke-linejoin="round" stroke-width="1.32" ry="5.23"/>
    <path fill="#fff" stroke="#f57c00" stroke-linecap="round" stroke-linejoin="round" stroke-width="1.32" d="M920.57 861.76c-2.85 0-6.31 2.6-5.14 5.24l9.91 22.54-9.91 22.55c0 2.9 2.3 5.24 5.14 5.24h26.72v-36.51c0-2.9 2.33-5.23 5.23-5.23h21.68V867c0-2.9-2.3-5.24-5.15-5.24z"/>
    <path fill="#f57c00" d="M969.48 861.65c-.4.02-.78.16-1.13.44 0 0-12.8 8.92-16.27 12.07-.63.56-1.19 1.03-1.7 1.43h23.79v-8.23c0-2.46-2.54-5.8-4.69-5.7z"/>
    <g>
      <path fill="#fff" stroke="#f57c00" stroke-linecap="round" stroke-linejoin="round" stroke-width="1.32" d="M1130.54 861.76a5.18 5.18 0 0 0-5.15 5.24v8.6h21.6c2.9 0 5.23 2.32 5.23 5.22v36.51h26.8a5.18 5.18 0 0 0 5.15-5.24l-9.92-22.55 9.92-22.54c1.16-2.65-2.3-5.24-5.15-5.24z"/>
      <path fill="#f57c00" d="M1130.11 861.65c.4.02.78.16 1.13.44 0 0 12.8 8.92 16.28 12.07.62.56 1.18 1.03 1.68 1.43h-23.78v-8.23c0-2.46 2.54-5.8 4.69-5.7z"/>
    </g>
  </g>
  <g fill="#f57c00" stroke-width=".26" font-family="Funhouse" font-size="19.4" font-weight="400" letter-spacing="0" word-spacing="0">
    <g aria-label="short decimal" style="line-height:1.25;-inkscape-font-specification:'Funhouse, Normal';font-variant-ligatures:normal;font-variant-caps:normal;font-variant-numeric:normal;font-feature-settings:normal;text-align:start">
      <path d="M58.9 92.05q-3.41-.49-3.02-4.26.4-3.77 8.8-4.46l.8 4.28q-4.17-.1-4.47.99-.3 1.08 3.18 1.24 3.49.16 3.41 4.24-.07 4.09-9.18 4.36l-1.67-4.48q4.66.5 5.12-.46.47-.98-2.96-1.45zM72.4 93.29l.34 3.2-3.63.63-1.65-10.5 4.04-1.72.45 4.55 3.64-.42.06-4.14 6.32.64-2.42 11.64-4.06-1.2.04-3.02zM90.15 97.29q-3.2 0-5.47-1.95-2.25-1.94-2.25-4.69 0-2.74 2.25-4.69 2.27-1.94 5.47-1.94 3.2 0 5.45 1.94 2.26 1.95 2.26 4.7 0 2.74-2.26 4.68-2.26 1.95-5.45 1.95zm-.53-4.14q1.36 0 2.33-.84.98-.83.98-2 0-1.18-.98-2.02-.97-.83-2.33-.83-1.37 0-2.35.83-.97.84-.97 2.01 0 1.18.97 2.01.98.84 2.35.84zM102.99 87.15l.13 2.56q4.74 0 4.74-.95t-4.87-1.61zm.63 9.37l-5.27.74 1.1-14.15q12.2.91 12.6 4.9.42 3.96-4.2 5.49l3.8 2.05-3.89 3.44-4.44-5.5zM120.6 88.06l.46 8.07-5.13 1.33.88-9.65-3.87-.33.3-3.5 11.11-.67.4 5.18zM130.67 97.29l-.6-13.27q12.92 0 12.92 6.63 0 6.64-12.32 6.64zm3.37-9.75l.64 4.58q4.1.02 4.1-2.28t-4.74-2.3zM153.52 82.32l.25 5.02-5.9.63.08 1.15 3.87-.36.34 3.43-4.04.3.07.92 5.72-.44.85 4.32-11.28.38L144.63 84zM167.67 95.34q-2.25 1.95-5.42 1.95-3.18 0-5.42-1.95-2.25-1.94-2.25-4.69 0-2.74 2.25-4.69 2.24-1.94 5.42-1.94 3.17 0 5.42 1.94 1.12.98 1.7 2.16l-4.55 1.15q-.23-.6-.8-1.1-.97-.83-2.32-.83-1.36 0-2.32.83-.97.84-.97 2.01t.97 2q.96.84 2.32.84 1.35 0 2.32-.83.52-.46.77-1.02l4.56 2.01q-.56 1.19-1.68 2.16zM174.25 84.1l.97 12.78-5.36 1.01.24-13.46zM190.85 84.02l.8 12.5-4.84.4-.25-6.39-.98 4.4-4.34.6-1.76-4.54.64 5.39-4.43.9.6-13.26 4.36-.58 2.4 7.58 2.92-7.35zM196.53 95.4l-.66 1.89-3.73-2.26 4.68-11 3.56-.25 5.6 11.4-4.42 2.1-.98-2.66zm3.24-4.16l-1.06-3.43-1.25 3.8zM207.12 83.83l4.67.25-1.54 9.42 4.76-.74-1.05 5.05-7.5-.52z" style="-inkscape-font-specification:'Funhouse, Normal';font-variant-ligatures:normal;font-variant-caps:normal;font-variant-numeric:normal;font-feature-settings:normal;text-align:start"/>
    </g>
    <g aria-label="subtractions" style="line-height:1.25;-inkscape-font-specification:'Funhouse, Normal';font-variant-ligatures:normal;font-variant-caps:normal;font-variant-numeric:normal;font-feature-settings:normal;text-align:start">
      <path d="M61.15 115.32q-3.42-.49-3.02-4.26.4-3.77 8.8-4.46l.79 4.28q-4.16-.1-4.46.99-.3 1.08 3.18 1.24 3.49.16 3.41 4.24-.07 4.09-9.18 4.36L59 117.23q4.67.5 5.13-.46.46-.98-2.97-1.45z" style="-inkscape-font-specification:'Funhouse, Normal';font-variant-ligatures:normal;font-variant-caps:normal;font-variant-numeric:normal;font-feature-settings:normal;text-align:start"/>
      <path d="M71.53 107.95l5.05.99q-2.52 7.74.72 7.83 3.84-.03 2.22-8.02l4.63-1.46q2.12 13.15-6.85 13.27-9.07-.09-5.77-12.6z" style="-inkscape-font-specification:'Funhouse, Normal';font-variant-ligatures:normal;font-variant-caps:normal;font-variant-numeric:normal;font-feature-settings:normal;text-align:start"/>
      <path d="M88.99 111.94q2.94-.55 2.88-1.66-.06-1.12-3-.35zm.45 5.63q4.3-.17 4.3-1.5.02-1.32-4.44-1.27zm-4.12 2.99l.35-12.27q6.78-2.76 9.32-.27 2.54 2.5-.65 5.02 4.83 1.49 3.12 4.86-1.7 3.37-12.14 2.66z" style="-inkscape-font-specification:'Funhouse, Normal';font-variant-ligatures:normal;font-variant-caps:normal;font-variant-numeric:normal;font-feature-settings:normal;text-align:start"/>
      <path d="M104.7 111.33l.46 8.07-5.13 1.33.88-9.65-3.88-.33.3-3.5 11.12-.67.4 5.18zM114 110.42l.12 2.56q4.74 0 4.74-.95t-4.87-1.61zm.63 9.37l-5.28.74 1.1-14.15q12.2.91 12.6 4.9.42 3.96-4.19 5.49l3.8 2.05-3.9 3.44-4.44-5.5zM127.24 118.66l-.67 1.9-3.73-2.26 4.68-11 3.56-.25 5.6 11.4-4.42 2.1-.98-2.66zm3.24-4.15l-1.06-3.43-1.26 3.8zM149.11 118.61q-2.24 1.95-5.42 1.95-3.17 0-5.42-1.95-2.24-1.94-2.24-4.69 0-2.74 2.24-4.69 2.25-1.94 5.42-1.94 3.18 0 5.42 1.94 1.13.98 1.7 2.16l-4.55 1.15q-.23-.6-.8-1.1-.96-.83-2.32-.83-1.35 0-2.32.83-.96.83-.96 2.01 0 1.17.96 2 .97.84 2.32.84 1.36 0 2.32-.83.53-.46.77-1.02l4.57 2.01q-.56 1.19-1.69 2.16zM158.96 111.33l.47 8.07-5.14 1.33.88-9.65-3.87-.33.3-3.5 11.12-.67.4 5.18zM168.01 107.37l.97 12.78-5.36 1.01.24-13.46zM177.17 120.56q-3.2 0-5.46-1.95-2.26-1.94-2.26-4.69 0-2.74 2.26-4.69 2.26-1.94 5.46-1.94t5.45 1.94q2.27 1.95 2.27 4.7 0 2.74-2.27 4.68-2.25 1.95-5.45 1.95zm-.53-4.14q1.37 0 2.33-.84.98-.83.98-2 0-1.18-.98-2.02-.96-.83-2.33-.83t-2.35.83q-.96.84-.96 2.01 0 1.18.96 2.01.98.84 2.35.84zM190.12 113.92l.93 5.43-4.72 1.2-.96-12.43 4.75-.83 4.68 6.2.05-6.2 5.88-.6-2.09 13.87-3.76.54zM204.06 115.32q-3.42-.49-3.02-4.26.4-3.77 8.79-4.46l.8 4.28q-4.16-.1-4.47.99-.3 1.08 3.19 1.24 3.48.16 3.4 4.24-.07 4.09-9.17 4.36l-1.68-4.48q4.66.5 5.13-.46.46-.98-2.97-1.45z" style="-inkscape-font-specification:'Funhouse, Normal';font-variant-ligatures:normal;font-variant-caps:normal;font-variant-numeric:normal;font-feature-settings:normal;text-align:start"/>
    </g>
  </g>
  <g>
    <g fill="#fff" stroke="#f57c00" stroke-width="1.06" aria-label="76.4" font-family="Funhouse" font-size="31.75" font-weight="400" letter-spacing="0" style="line-height:1.25;-inkscape-font-specification:'Funhouse, Normal';font-variant-ligatures:normal;font-variant-caps:normal;font-variant-numeric:normal;font-feature-settings:normal;text-align:start" word-spacing="0">
      <path d="M66.02 28.6l-10.3-4.32 7-10.14-7.44.98-2.08-7.15 19.98-1.61zM81.5 29.55q-12.05-.14-7.25-21.18l8.9 1.57-2.82 5.6q12.32-2.56 12.77 5.8.45 8.33-11.6 8.21zm.98-6.08q2.75 0 2.75-1.86t-2.75-1.86q-2.72 0-2.72 1.86t2.72 1.86zM97.79 29.67q-1.29 0-2.2-.9-.9-.9-.9-2.2 0-1.28.9-2.18.91-.92 2.2-.92 1.28 0 2.18.92.92.9.92 2.18 0 1.3-.92 2.2-.9.9-2.18.9z" style="-inkscape-font-specification:'Funhouse, Normal';font-variant-ligatures:normal;font-variant-caps:normal;font-variant-numeric:normal;font-feature-settings:normal;text-align:start"/>
      <path d="M102.6 6.25l-7.91 15.41 8.85 1.16-1.26 7.44 9.16-1.13-.26-5.25 3.37.35 1.25-6.79-4.8-.12V5.85zm-.86 10.43l1.78-4.23 1.85.19-.76 4.3z" style="-inkscape-font-specification:'Funhouse, Normal';font-variant-ligatures:normal;font-variant-caps:normal;font-variant-numeric:normal;font-feature-settings:normal;text-align:start"/>
    </g>
    <g fill="#fff" stroke="#f57c00" stroke-width="1.06" aria-label="3.9" font-family="Funhouse" font-size="31.75" font-weight="400" letter-spacing="0" style="line-height:1.25;-inkscape-font-specification:'Funhouse, Normal';font-variant-ligatures:normal;font-variant-caps:normal;font-variant-numeric:normal;font-feature-settings:normal;text-align:start" word-spacing="0">
      <path d="M164.2 17.69q4.94.5 4 5.67-.9 5.18-15.22 6.48l-1.3-7.74q9.41.24 9.41-1.22 0-1.47-3.7-.84l-1.03-5.4q4.73-.05 4.68-1.88-.04-1.83-8.37.18l.9-6.52q13.32-.89 14.44 4.27 1.13 5.15-3.82 7zM175.8 28.54q-1.28 0-2.2-.9-.9-.92-.9-2.2 0-1.29.9-2.19.92-.91 2.2-.91 1.29 0 2.19.91.91.9.91 2.19 0 1.28-.91 2.2-.9.9-2.19.9z" style="-inkscape-font-specification:'Funhouse, Normal';font-variant-ligatures:normal;font-variant-caps:normal;font-variant-numeric:normal;font-feature-settings:normal;text-align:start"/>
      <path d="M184.75 7.25q12.06.13 7.25 21.16l-8.9-1.56 2.83-5.6q-12.33 2.56-12.78-5.78-.45-8.36 11.6-8.22zm-1 6.06q-2.72 0-2.72 1.86 0 1.87 2.73 1.87 2.74 0 2.74-1.87 0-1.86-2.74-1.86z" style="-inkscape-font-specification:'Funhouse, Normal';font-variant-ligatures:normal;font-variant-caps:normal;font-variant-numeric:normal;font-feature-settings:normal;text-align:start"/>
    </g>
    <g transform="matrix(0 1.06253 -1.06253 0 -234.56 804.24)">
      <rect width="7.84" height="18.82" x="-743.81" y="-356.04" fill="#e91e63" ry="3.92"/>
      <rect width="2.21" height="6.35" x="-742.53" y="-353.53" fill="#facedd" ry="1.1"/>
    </g>
    <g transform="matrix(0 .91414 -.91414 0 -107.04 660.39)">
      <rect width="7.84" height="18.82" x="-712.05" y="-356.04" fill="#e91e63" ry="3.92"/>
      <rect width="7.84" height="18.82" x="-701.07" y="-356.04" fill="#e91e63" ry="3.92"/>
      <rect width="2.21" height="6.35" x="-710.76" y="-353.53" fill="#facedd" ry="1.1"/>
      <rect width="2.21" height="6.35" x="-699.77" y="-353.53" fill="#facedd" ry="1.1"/>
    </g>
    <g>
      <g fill="#fff" stroke="#f57c00" stroke-width="1.06" aria-label="18.3" font-family="Funhouse" font-size="31.75" font-weight="400" letter-spacing="0" style="line-height:1.25;-inkscape-font-specification:'Funhouse, Normal';font-variant-ligatures:normal;font-variant-caps:normal;font-variant-numeric:normal;font-feature-settings:normal;text-align:start" word-spacing="0">
        <path d="M70.1 60.97l-10.6-.45 1.79-14.65-3.66 1.48-1.44-6.11 11.14-3.43zM78.7 43.24q-.86 0-1.46.48-.59.48-.59 1.16 0 .68.59 1.16.6.48 1.46.48.83 0 1.42-.48.6-.48.6-1.16 0-.68-.6-1.16-.59-.48-1.42-.48zm.3 7.97q-1.28 0-2.2.52-.9.53-.9 1.29t.9 1.3q.92.53 2.2.53 1.3 0 2.22-.53.92-.54.92-1.3t-.92-1.29q-.91-.52-2.21-.52zm5.7-2.53q.6.32 1.16.73 2.56 1.94 2.56 4.68 0 2.73-2.58 4.67-2.55 1.93-6.18 1.93-3.65 0-6.22-1.93-2.56-1.94-2.56-4.67 0-2.74 2.58-4.68.4-.3.82-.56-1.64-1.61-1.64-3.83 0-2.43 1.98-4.14 1.98-1.72 4.79-1.72 2.8 0 4.77 1.72 1.99 1.7 1.99 4.14 0 2.1-1.47 3.66zM92.28 61.19q-1.29 0-2.2-.9-.9-.91-.9-2.2t.9-2.19q.91-.91 2.2-.91 1.28 0 2.18.91.92.9.92 2.19t-.92 2.2q-.9.9-2.18.9zM108.7 50.34q4.94.5 4.01 5.67-.91 5.18-15.22 6.48l-1.3-7.73q9.4.23 9.4-1.23 0-1.47-3.7-.84l-1.02-5.4q4.72-.05 4.68-1.88-.05-1.83-8.37.18l.9-6.52q13.31-.89 14.43 4.28 1.13 5.14-3.81 6.99z" style="-inkscape-font-specification:'Funhouse, Normal';font-variant-ligatures:normal;font-variant-caps:normal;font-variant-numeric:normal;font-feature-settings:normal;text-align:start"/>
      </g>
      <g fill="#fff" stroke="#f57c00" stroke-width="1.06" aria-label="2.7" font-family="Funhouse" font-size="31.75" font-weight="400" letter-spacing="0" style="line-height:1.25;-inkscape-font-specification:'Funhouse, Normal';font-variant-ligatures:normal;font-variant-caps:normal;font-variant-numeric:normal;font-feature-settings:normal;text-align:start" word-spacing="0">
        <path d="M162.64 51.2q-5.6.77-4.62 3.73l8.17-.6 1.84 8.9-19.49-2.02q-.24-13.37 5.46-13.63 5.7-.26 5.21-2.03-.5-1.77-7.3-1.61l1.3-7.01q13.74 1.13 14.39 7.3.65 6.17-4.96 6.96zM172.1 61.33q-1.28 0-2.2-.9-.9-.91-.9-2.2t.9-2.19q.92-.91 2.2-.91 1.3 0 2.2.91.91.9.91 2.19t-.91 2.2q-.9.9-2.2.9zM186.36 60.26l-10.3-4.33 7-10.13-7.45.97-2.07-7.14L193.52 38z" style="-inkscape-font-specification:'Funhouse, Normal';font-variant-ligatures:normal;font-variant-caps:normal;font-variant-numeric:normal;font-feature-settings:normal;text-align:start"/>
      </g>
      <g transform="matrix(0 1.06253 -1.06253 0 -237.6 836.25)">
        <rect width="7.84" height="18.82" x="-743.81" y="-356.04" fill="#e91e63" ry="3.92"/>
        <rect width="2.21" height="6.35" x="-742.53" y="-353.53" fill="#facedd" ry="1.1"/>
      </g>
      <g transform="matrix(0 .91414 -.91414 0 -110.1 692.4)">
        <rect width="7.84" height="18.82" x="-712.05" y="-356.04" fill="#e91e63" ry="3.92"/>
        <rect width="7.84" height="18.82" x="-701.07" y="-356.04" fill="#e91e63" ry="3.92"/>
        <rect width="2.21" height="6.35" x="-710.76" y="-353.53" fill="#facedd" ry="1.1"/>
        <rect width="2.21" height="6.35" x="-699.77" y="-353.53" fill="#facedd" ry="1.1"/>
      </g>
    </g>
  </g>
</svg>
