<svg xmlns="http://www.w3.org/2000/svg" viewBox="0 0 270.93 135.47">
  <g transform="translate(-914.33 -300.11)">
    <path fill="#fff" stroke="#f57c00" stroke-linecap="round" stroke-linejoin="round" stroke-width="1.32" d="M1130.54 360.7a5.18 5.18 0 0 0-5.15 5.24v8.59h21.6c2.9 0 5.23 2.33 5.23 5.22v36.52h26.8a5.18 5.18 0 0 0 5.15-5.25l-9.92-22.54 9.92-22.54c1.16-2.65-2.3-5.25-5.15-5.25z"/>
    <path fill="#f57c00" d="M1130.11 360.59c-2.15-.1-4.69 3.24-4.69 5.7v8.24h23.78c-.5-.4-1.06-.87-1.68-1.44-3.48-3.15-16.28-12.06-16.28-12.06a1.92 1.92 0 0 0-1.13-.44z"/>
    <g>
      <path fill="#fff" stroke="#f57c00" stroke-linecap="round" stroke-linejoin="round" stroke-width="1.32" d="M920.57 360.7c-2.85 0-6.31 2.59-5.14 5.24l9.91 22.54-9.91 22.54c0 2.9 2.3 5.25 5.14 5.25h26.72v-36.52c0-2.9 2.33-5.22 5.23-5.22h21.68v-8.6c0-2.9-2.3-5.24-5.15-5.24z"/>
      <path fill="#f57c00" d="M969.48 360.59c-.4.02-.78.15-1.13.44 0 0-12.8 8.91-16.27 12.06-.63.57-1.19 1.03-1.7 1.44h23.79v-8.23c0-2.47-2.54-5.81-4.69-5.71z"/>
    </g>
    <rect width="204.93" height="55.37" x="947.29" y="374.53" fill="#fff" stroke="#f57c00" stroke-linecap="round" stroke-linejoin="round" stroke-width="1.32" ry="5.23"/>
  </g>
  <g fill="#f57c00" stroke-width=".26" font-family="Funhouse" font-size="19.4" font-weight="400" letter-spacing="0" word-spacing="0">
    <g aria-label="short decimal" style="line-height:1.25;-inkscape-font-specification:'Funhouse, Normal';font-variant-ligatures:normal;font-variant-caps:normal;font-variant-numeric:normal;font-feature-settings:normal;text-align:start">
      <path d="M58.9 92.05q-3.41-.49-3.02-4.26.4-3.77 8.8-4.46l.8 4.28q-4.17-.1-4.47.99-.3 1.08 3.18 1.24 3.49.16 3.41 4.24-.07 4.09-9.18 4.36l-1.67-4.48q4.66.5 5.12-.46.47-.98-2.96-1.45zM72.4 93.29l.34 3.2-3.63.63-1.65-10.5 4.04-1.72.45 4.55 3.64-.42.06-4.14 6.32.64-2.42 11.64-4.06-1.2.04-3.02zM90.15 97.29q-3.2 0-5.47-1.95-2.25-1.94-2.25-4.69 0-2.74 2.25-4.69 2.27-1.94 5.47-1.94 3.2 0 5.45 1.94 2.26 1.95 2.26 4.7 0 2.74-2.26 4.68-2.26 1.95-5.45 1.95zm-.53-4.14q1.36 0 2.33-.84.98-.83.98-2 0-1.18-.98-2.02-.97-.83-2.33-.83-1.37 0-2.35.83-.97.84-.97 2.01 0 1.18.97 2.01.98.84 2.35.84zM102.99 87.15l.13 2.56q4.74 0 4.74-.95t-4.87-1.61zm.63 9.37l-5.27.74 1.1-14.15q12.2.91 12.6 4.9.42 3.96-4.2 5.49l3.8 2.05-3.89 3.44-4.44-5.5zM120.6 88.06l.46 8.07-5.13 1.33.88-9.65-3.87-.33.3-3.5 11.11-.67.4 5.18zM130.67 97.29l-.6-13.27q12.92 0 12.92 6.63 0 6.64-12.32 6.64zm3.37-9.75l.64 4.58q4.1.02 4.1-2.28t-4.74-2.3zM153.52 82.32l.25 5.02-5.9.63.08 1.15 3.87-.36.34 3.43-4.04.3.07.92 5.72-.44.85 4.32-11.28.38L144.63 84zM167.67 95.34q-2.25 1.95-5.42 1.95-3.18 0-5.42-1.95-2.25-1.94-2.25-4.69 0-2.74 2.25-4.69 2.24-1.94 5.42-1.94 3.17 0 5.42 1.94 1.12.98 1.7 2.16l-4.55 1.15q-.23-.6-.8-1.1-.97-.83-2.32-.83-1.36 0-2.32.83-.97.84-.97 2.01t.97 2q.96.84 2.32.84 1.35 0 2.32-.83.52-.46.77-1.02l4.56 2.01q-.56 1.19-1.68 2.16zM174.25 84.1l.97 12.78-5.36 1.01.24-13.46zM190.85 84.02l.8 12.5-4.84.4-.25-6.39-.98 4.4-4.34.6-1.76-4.54.64 5.39-4.43.9.6-13.26 4.36-.58 2.4 7.58 2.92-7.35zM196.53 95.4l-.66 1.89-3.73-2.26 4.68-11 3.56-.25 5.6 11.4-4.42 2.1-.98-2.66zm3.24-4.16l-1.06-3.43-1.25 3.8zM207.12 83.83l4.67.25-1.54 9.42 4.76-.74-1.05 5.05-7.5-.52z" style="-inkscape-font-specification:'Funhouse, Normal';font-variant-ligatures:normal;font-variant-caps:normal;font-variant-numeric:normal;font-feature-settings:normal;text-align:start"/>
    </g>
    <g aria-label="additions" style="line-height:1.25;-inkscape-font-specification:'Funhouse, Normal';font-variant-ligatures:normal;font-variant-caps:normal;font-variant-numeric:normal;font-feature-settings:normal;text-align:start">
      <path d="M85.6 118.84l-.67 1.89-3.73-2.25 4.68-11.01 3.56-.25 5.6 11.4-4.42 2.11-.98-2.66zm3.24-4.15l-1.07-3.43-1.25 3.79zM96.13 120.73l-.6-13.26q12.92 0 12.92 6.63t-12.32 6.63zm3.37-9.75l.64 4.59q4.1.02 4.1-2.29 0-2.3-4.74-2.3zM109.55 120.73l-.61-13.26q12.92 0 12.92 6.63t-12.31 6.63zm3.37-9.75l.63 4.59q4.1.02 4.1-2.29 0-2.3-4.73-2.3zM126.75 107.54l.97 12.78-5.36 1.02.24-13.47zM135.86 111.5l.46 8.07-5.14 1.33.89-9.64-3.88-.34.3-3.5 11.12-.66.4 5.18zM144.9 107.54l.97 12.78-5.36 1.02.24-13.47zM154.06 120.73q-3.2 0-5.46-1.94t-2.26-4.7q0-2.74 2.26-4.68 2.26-1.94 5.46-1.94t5.45 1.94q2.27 1.94 2.27 4.69 0 2.75-2.27 4.69-2.25 1.94-5.45 1.94zm-.53-4.14q1.37 0 2.33-.83.98-.84.98-2.01 0-1.18-.98-2.01-.96-.83-2.33-.83t-2.35.83q-.96.83-.96 2 0 1.18.96 2.02.98.83 2.35.83zM167 114.1l.94 5.43-4.72 1.2-.96-12.44 4.75-.82 4.68 6.2.05-6.2 5.88-.61-2.09 13.87-3.76.55zM180.95 115.5q-3.42-.5-3.02-4.26.4-3.77 8.8-4.46l.79 4.28q-4.16-.1-4.46.98-.3 1.08 3.18 1.24 3.48.16 3.4 4.25-.07 4.08-9.17 4.36l-1.68-4.48q4.66.5 5.13-.47.46-.97-2.97-1.45z" style="-inkscape-font-specification:'Funhouse, Normal';font-variant-ligatures:normal;font-variant-caps:normal;font-variant-numeric:normal;font-feature-settings:normal;text-align:start"/>
    </g>
  </g>
  <g>
    <g transform="matrix(0 .79504 -.79504 0 -62.45 576.9)">
      <rect width="7.84" height="18.82" x="-712.05" y="-356.04" fill="#e91e63" ry="3.92"/>
      <rect width="7.84" height="18.82" x="-701.07" y="-356.04" fill="#e91e63" ry="3.92"/>
      <rect width="2.21" height="6.35" x="-710.76" y="-353.53" fill="#facedd" ry="1.1"/>
      <rect width="2.21" height="6.35" x="-699.77" y="-353.53" fill="#facedd" ry="1.1"/>
    </g>
    <g fill="#fff" stroke="#f57c00" stroke-width="1.06" aria-label="76.4" font-family="Funhouse" font-size="31.75" font-weight="400" letter-spacing="0" style="line-height:1.25;-inkscape-font-specification:'Funhouse, Normal';font-variant-ligatures:normal;font-variant-caps:normal;font-variant-numeric:normal;font-feature-settings:normal;text-align:start" word-spacing="0">
      <path d="M63.75 28.78l-10.3-4.32 7-10.14-7.44.98-2.08-7.15L70.9 6.54zM79.22 29.73q-12.04-.14-7.24-21.18l8.9 1.57-2.82 5.6q12.32-2.56 12.77 5.8.45 8.33-11.6 8.21zm1-6.08q2.74 0 2.74-1.86t-2.75-1.86q-2.72 0-2.72 1.86t2.72 1.86zM95.52 29.85q-1.3 0-2.2-.9-.9-.9-.9-2.2 0-1.28.9-2.18.9-.92 2.2-.92 1.28 0 2.18.92.92.9.92 2.18 0 1.3-.92 2.2-.9.9-2.18.9z" style="-inkscape-font-specification:'Funhouse, Normal';font-variant-ligatures:normal;font-variant-caps:normal;font-variant-numeric:normal;font-feature-settings:normal;text-align:start"/>
      <path d="M100.32 6.43l-7.9 15.41 8.85 1.16-1.26 7.44 9.16-1.13-.26-5.25 3.36.35 1.26-6.79-4.8-.12V6.03zm-.85 10.43l1.78-4.23 1.85.19-.76 4.3z" style="-inkscape-font-specification:'Funhouse, Normal';font-variant-ligatures:normal;font-variant-caps:normal;font-variant-numeric:normal;font-feature-settings:normal;text-align:start"/>
    </g>
    <g fill="#fff" stroke="#f57c00" stroke-width="1.06" aria-label="13.9" font-family="Funhouse" font-size="31.75" font-weight="400" letter-spacing="0" style="line-height:1.25;-inkscape-font-specification:'Funhouse, Normal';font-variant-ligatures:normal;font-variant-caps:normal;font-variant-numeric:normal;font-feature-settings:normal;text-align:start" word-spacing="0">
      <path d="M158.12 29.15l-10.6-.45 1.78-14.65-3.66 1.47-1.44-6.11 11.15-3.43zM171.4 18.51q4.95.5 4.02 5.67-.91 5.18-15.22 6.48l-1.3-7.73q9.4.23 9.4-1.23 0-1.47-3.7-.83l-1.02-5.41q4.73-.05 4.68-1.88-.05-1.83-8.37.19l.9-6.53q13.31-.88 14.43 4.28 1.13 5.15-3.81 6.99zM183.02 29.36q-1.29 0-2.2-.9-.9-.91-.9-2.2t.9-2.18q.91-.92 2.2-.92t2.18.92q.92.9.92 2.18 0 1.29-.92 2.2-.9.9-2.18.9z" style="-inkscape-font-specification:'Funhouse, Normal';font-variant-ligatures:normal;font-variant-caps:normal;font-variant-numeric:normal;font-feature-settings:normal;text-align:start"/>
      <path d="M191.96 8.08q12.07.12 7.26 21.16l-8.9-1.57 2.82-5.6q-12.32 2.56-12.77-5.78-.45-8.35 11.6-8.21zm-.99 6.06q-2.73 0-2.73 1.86t2.73 1.86q2.75 0 2.75-1.86t-2.75-1.86z" style="-inkscape-font-specification:'Funhouse, Normal';font-variant-ligatures:normal;font-variant-caps:normal;font-variant-numeric:normal;font-feature-settings:normal;text-align:start"/>
    </g>
    <g transform="matrix(.79034 0 0 .79034 -143.25 630.24)">
      <g fill="#00c853" transform="translate(7.99 30.08) scale(1.09493)">
        <rect width="7.84" height="23.53" x="303.23" y="-746.43" ry="3.92"/>
        <rect width="7.84" height="23.53" x="-738.58" y="-318.92" ry="3.92" transform="rotate(90)"/>
      </g>
      <rect width="2.21" height="6.35" x="345.05" y="-785.14" fill="#c7ffde" ry="1.1"/>
    </g>
    <g>
      <g fill="#fff" stroke="#f57c00" stroke-width="1.06" aria-label="18.3" font-family="Funhouse" font-size="31.75" font-weight="400" letter-spacing="0" style="line-height:1.25;-inkscape-font-specification:'Funhouse, Normal';font-variant-ligatures:normal;font-variant-caps:normal;font-variant-numeric:normal;font-feature-settings:normal;text-align:start" word-spacing="0">
        <path d="M72.27 60.59l-10.6-.45 1.78-14.65-3.66 1.47-1.44-6.1 11.14-3.43zM80.86 42.85q-.86 0-1.46.48-.59.48-.59 1.17 0 .68.59 1.16.6.48 1.46.48.83 0 1.42-.48.6-.48.6-1.16 0-.69-.6-1.17-.59-.48-1.42-.48zm.3 7.97q-1.28 0-2.2.53-.91.52-.91 1.28t.92 1.3q.91.53 2.2.53 1.3 0 2.21-.52.92-.55.92-1.3 0-.77-.92-1.3-.91-.52-2.21-.52zm5.7-2.53q.6.33 1.16.73 2.56 1.94 2.56 4.68 0 2.73-2.58 4.67-2.55 1.94-6.18 1.94-3.65 0-6.22-1.94-2.56-1.94-2.56-4.67 0-2.74 2.58-4.68.4-.3.82-.56-1.65-1.6-1.65-3.83 0-2.43 1.99-4.13 1.98-1.73 4.79-1.73 2.79 0 4.77 1.73 1.99 1.7 1.99 4.13 0 2.1-1.47 3.66zM94.44 60.8q-1.29 0-2.2-.9-.9-.9-.9-2.2 0-1.28.9-2.18.91-.92 2.2-.92 1.28 0 2.18.92.92.9.92 2.18 0 1.3-.92 2.2-.9.9-2.18.9zM110.85 49.95q4.95.5 4.02 5.68-.91 5.17-15.22 6.48l-1.3-7.74q9.4.23 9.4-1.22 0-1.48-3.7-.84l-1.02-5.41q4.72-.05 4.68-1.88-.05-1.83-8.37.19l.9-6.53q13.31-.88 14.43 4.28 1.13 5.15-3.82 7z" style="-inkscape-font-specification:'Funhouse, Normal';font-variant-ligatures:normal;font-variant-caps:normal;font-variant-numeric:normal;font-feature-settings:normal;text-align:start"/>
      </g>
      <g fill="#fff" stroke="#f57c00" stroke-width="1.06" aria-label="2.5" font-family="Funhouse" font-size="31.75" font-weight="400" letter-spacing="0" style="line-height:1.25;-inkscape-font-specification:'Funhouse, Normal';font-variant-ligatures:normal;font-variant-caps:normal;font-variant-numeric:normal;font-feature-settings:normal;text-align:start" word-spacing="0">
        <path d="M161.76 50.82q-5.6.78-4.62 3.74l8.17-.6 1.84 8.9-19.49-2.02q-.24-13.37 5.46-13.63 5.7-.26 5.21-2.03-.5-1.77-7.3-1.61l1.3-7.01q13.74 1.13 14.39 7.3.65 6.17-4.96 6.96zM171.23 60.96q-1.29 0-2.2-.9-.9-.91-.9-2.2t.9-2.19q.91-.91 2.2-.91t2.19.91q.91.9.91 2.2 0 1.28-.91 2.2-.9.9-2.2.9z" style="-inkscape-font-specification:'Funhouse, Normal';font-variant-ligatures:normal;font-variant-caps:normal;font-variant-numeric:normal;font-feature-settings:normal;text-align:start"/>
        <path d="M186.5 48.6q5.61.78 4.96 6.95-.65 6.17-14.39 7.3l-1.3-7q6.8.15 7.3-1.62.5-1.76-5.2-2.03-5.71-.26-5.46-13.62l19.48-2.02-1.84 8.9-8.17-.6q-.98 2.95 4.62 3.75z" style="-inkscape-font-specification:'Funhouse, Normal';font-variant-ligatures:normal;font-variant-caps:normal;font-variant-numeric:normal;font-feature-settings:normal;text-align:start"/>
      </g>
      <g transform="matrix(.79034 0 0 .79034 -140.78 661.69)">
        <g fill="#00c853" transform="translate(7.99 30.08) scale(1.09493)">
          <rect width="7.84" height="23.53" x="303.23" y="-746.43" ry="3.92"/>
          <rect width="7.84" height="23.53" x="-738.58" y="-318.92" ry="3.92" transform="rotate(90)"/>
        </g>
        <rect width="2.21" height="6.35" x="345.05" y="-785.14" fill="#c7ffde" ry="1.1"/>
      </g>
      <g transform="matrix(0 .79504 -.79504 0 -69.93 608.33)">
        <rect width="7.84" height="18.82" x="-712.05" y="-356.04" fill="#e91e63" ry="3.92"/>
        <rect width="7.84" height="18.82" x="-701.07" y="-356.04" fill="#e91e63" ry="3.92"/>
        <rect width="2.21" height="6.35" x="-710.76" y="-353.53" fill="#facedd" ry="1.1"/>
        <rect width="2.21" height="6.35" x="-699.77" y="-353.53" fill="#facedd" ry="1.1"/>
      </g>
    </g>
  </g>
</svg>
