<svg xmlns="http://www.w3.org/2000/svg" viewBox="0 0 270.93 135.47">
  <g transform="translate(-914.33 -300.11)">
    <path fill="#fff" stroke="#f57c00" stroke-linecap="round" stroke-linejoin="round" stroke-width="1.32" d="M1130.54 360.7a5.18 5.18 0 0 0-5.15 5.24v8.59h21.6c2.9 0 5.23 2.33 5.23 5.22v36.52h26.8a5.18 5.18 0 0 0 5.15-5.25l-9.92-22.54 9.92-22.54c1.16-2.65-2.3-5.25-5.15-5.25z"/>
    <path fill="#f57c00" d="M1130.11 360.59c-2.15-.1-4.69 3.24-4.69 5.7v8.24h23.78c-.5-.4-1.06-.87-1.68-1.44-3.48-3.15-16.28-12.06-16.28-12.06a1.92 1.92 0 0 0-1.13-.44z"/>
    <g>
      <path fill="#fff" stroke="#f57c00" stroke-linecap="round" stroke-linejoin="round" stroke-width="1.32" d="M920.57 360.7c-2.85 0-6.31 2.59-5.14 5.24l9.91 22.54-9.91 22.54c0 2.9 2.3 5.25 5.14 5.25h26.72v-36.52c0-2.9 2.33-5.22 5.23-5.22h21.68v-8.6c0-2.9-2.3-5.24-5.15-5.24z"/>
      <path fill="#f57c00" d="M969.48 360.59c-.4.02-.78.15-1.13.44 0 0-12.8 8.91-16.27 12.06-.63.57-1.19 1.03-1.7 1.44h23.79v-8.23c0-2.47-2.54-5.81-4.69-5.71z"/>
    </g>
    <rect width="204.93" height="55.37" x="947.29" y="374.53" fill="#fff" stroke="#f57c00" stroke-linecap="round" stroke-linejoin="round" stroke-width="1.32" ry="5.23"/>
  </g>
  <g fill="#f57c00" stroke-width=".26" font-family="Funhouse" font-size="19.4" font-weight="400" letter-spacing="0" word-spacing="0">
    <g aria-label="short decimal" style="line-height:1.25;-inkscape-font-specification:'Funhouse, Normal';font-variant-ligatures:normal;font-variant-caps:normal;font-variant-numeric:normal;font-feature-settings:normal;text-align:start">
      <path d="M58.9 92.05q-3.41-.49-3.02-4.26.4-3.77 8.8-4.46l.8 4.28q-4.17-.1-4.47.99-.3 1.08 3.18 1.24 3.49.16 3.41 4.24-.07 4.09-9.18 4.36l-1.67-4.48q4.66.5 5.12-.46.47-.98-2.96-1.45zM72.4 93.29l.34 3.2-3.63.63-1.65-10.5 4.04-1.72.45 4.55 3.64-.42.06-4.14 6.32.64-2.42 11.64-4.06-1.2.04-3.02zM90.15 97.29q-3.2 0-5.47-1.95-2.25-1.94-2.25-4.69 0-2.74 2.25-4.69 2.27-1.94 5.47-1.94 3.2 0 5.45 1.94 2.26 1.95 2.26 4.7 0 2.74-2.26 4.68-2.26 1.95-5.45 1.95zm-.53-4.14q1.36 0 2.33-.84.98-.83.98-2 0-1.18-.98-2.02-.97-.83-2.33-.83-1.37 0-2.35.83-.97.84-.97 2.01 0 1.18.97 2.01.98.84 2.35.84zM102.99 87.15l.13 2.56q4.74 0 4.74-.95t-4.87-1.61zm.63 9.37l-5.27.74 1.1-14.15q12.2.91 12.6 4.9.42 3.96-4.2 5.49l3.8 2.05-3.89 3.44-4.44-5.5zM120.6 88.06l.46 8.07-5.13 1.33.88-9.65-3.87-.33.3-3.5 11.11-.67.4 5.18zM130.67 97.29l-.6-13.27q12.92 0 12.92 6.63 0 6.64-12.32 6.64zm3.37-9.75l.64 4.58q4.1.02 4.1-2.28t-4.74-2.3zM153.52 82.32l.25 5.02-5.9.63.08 1.15 3.87-.36.34 3.43-4.04.3.07.92 5.72-.44.85 4.32-11.28.38L144.63 84zM167.67 95.34q-2.25 1.95-5.42 1.95-3.18 0-5.42-1.95-2.25-1.94-2.25-4.69 0-2.74 2.25-4.69 2.24-1.94 5.42-1.94 3.17 0 5.42 1.94 1.12.98 1.7 2.16l-4.55 1.15q-.23-.6-.8-1.1-.97-.83-2.32-.83-1.36 0-2.32.83-.97.84-.97 2.01t.97 2q.96.84 2.32.84 1.35 0 2.32-.83.52-.46.77-1.02l4.56 2.01q-.56 1.19-1.68 2.16zM174.25 84.1l.97 12.78-5.36 1.01.24-13.46zM190.85 84.02l.8 12.5-4.84.4-.25-6.39-.98 4.4-4.34.6-1.76-4.54.64 5.39-4.43.9.6-13.26 4.36-.58 2.4 7.58 2.92-7.35zM196.53 95.4l-.66 1.89-3.73-2.26 4.68-11 3.56-.25 5.6 11.4-4.42 2.1-.98-2.66zm3.24-4.16l-1.06-3.43-1.25 3.8zM207.12 83.83l4.67.25-1.54 9.42 4.76-.74-1.05 5.05-7.5-.52z" style="-inkscape-font-specification:'Funhouse, Normal';font-variant-ligatures:normal;font-variant-caps:normal;font-variant-numeric:normal;font-feature-settings:normal;text-align:start"/>
    </g>
    <g aria-label="multiplications" style="line-height:1.25;-inkscape-font-specification:'Funhouse, Normal';font-variant-ligatures:normal;font-variant-caps:normal;font-variant-numeric:normal;font-feature-settings:normal;text-align:start">
      <path d="M64.7 107.47l.8 12.5-4.84.4-.26-6.4-.97 4.4-4.34.6-1.76-4.53.63 5.38-4.42.91.6-13.26 4.35-.58 2.4 7.58 2.93-7.35z" style="-inkscape-font-specification:'Funhouse, Normal';font-variant-ligatures:normal;font-variant-caps:normal;font-variant-numeric:normal;font-feature-settings:normal;text-align:start"/>
      <path d="M66.93 108.13l5.05.99q-2.52 7.74.72 7.82 3.85-.03 2.23-8.01l4.62-1.46q2.12 13.15-6.85 13.26-9.06-.08-5.77-12.6z" style="-inkscape-font-specification:'Funhouse, Normal';font-variant-ligatures:normal;font-variant-caps:normal;font-variant-numeric:normal;font-feature-settings:normal;text-align:start"/>
      <path d="M81.08 107.28l4.67.24-1.54 9.42 4.76-.74-1.05 5.05-7.5-.52z" style="-inkscape-font-specification:'Funhouse, Normal';font-variant-ligatures:normal;font-variant-caps:normal;font-variant-numeric:normal;font-feature-settings:normal;text-align:start"/>
      <path d="M94.11 111.5l.47 8.07-5.14 1.33.88-9.64-3.87-.34.3-3.5 11.11-.66.41 5.18zM103.16 107.54l.97 12.78-5.37 1.02.25-13.47zM109.72 116.91l.76 2.84-4.94.98-.94-12.69q12.62-2.03 13.25 4.16 0 4.74-8.13 4.71zm-1.3-5.6l.53 1.84q5.12 0 4.81-1.34-.3-1.35-5.34-.5zM118.97 107.28l4.67.24-1.53 9.42 4.75-.74-1.05 5.05-7.5-.52zM131.73 107.54l.97 12.78-5.36 1.02.24-13.47zM146.26 118.79q-2.25 1.94-5.42 1.94t-5.42-1.94q-2.25-1.94-2.25-4.7 0-2.74 2.25-4.68 2.25-1.94 5.42-1.94t5.42 1.94q1.13.97 1.7 2.16l-4.55 1.15q-.23-.61-.8-1.1-.97-.84-2.32-.84-1.36 0-2.32.84-.97.83-.97 2 0 1.18.97 2.01.96.84 2.32.84 1.35 0 2.32-.84.52-.45.77-1.02l4.56 2.02q-.55 1.18-1.68 2.16zM152.84 118.84l-.66 1.89-3.73-2.25 4.68-11.01 3.56-.25 5.6 11.4-4.43 2.11-.97-2.66zm3.24-4.15l-1.06-3.43-1.25 3.79z" style="-inkscape-font-specification:'Funhouse, Normal';font-variant-ligatures:normal;font-variant-caps:normal;font-variant-numeric:normal;font-feature-settings:normal;text-align:start"/>
      <path d="M167.52 111.5l.46 8.07-5.13 1.33.88-9.64-3.88-.34.3-3.5 11.12-.66.4 5.18zM176.57 107.54l.96 12.78-5.36 1.02.25-13.47zM185.73 120.73q-3.2 0-5.47-1.94-2.25-1.94-2.25-4.7 0-2.74 2.25-4.68 2.26-1.94 5.47-1.94 3.19 0 5.44 1.94 2.27 1.94 2.27 4.69 0 2.75-2.27 4.69-2.25 1.94-5.44 1.94zm-.53-4.14q1.36 0 2.33-.83.97-.84.97-2.01 0-1.18-.97-2.01-.97-.83-2.33-.83-1.38 0-2.35.83-.97.83-.97 2 0 1.18.97 2.02.97.83 2.35.83zM198.67 114.1l.94 5.43-4.73 1.2-.96-12.44 4.75-.82 4.68 6.2.06-6.2 5.87-.61-2.09 13.87-3.76.55zM212.61 115.5q-3.42-.5-3.02-4.26.4-3.77 8.8-4.46l.79 4.28q-4.16-.1-4.46.98-.3 1.08 3.18 1.24 3.49.16 3.41 4.25-.07 4.08-9.18 4.36l-1.68-4.48q4.67.5 5.13-.47.46-.97-2.97-1.45z" style="-inkscape-font-specification:'Funhouse, Normal';font-variant-ligatures:normal;font-variant-caps:normal;font-variant-numeric:normal;font-feature-settings:normal;text-align:start"/>
    </g>
  </g>
  <g>
    <g fill="#fff" stroke="#f57c00" stroke-width="1.06" aria-label=".5" font-family="Funhouse" font-size="31.75" font-weight="400" letter-spacing="0" style="line-height:1.25;-inkscape-font-specification:'Funhouse, Normal';font-variant-ligatures:normal;font-variant-caps:normal;font-variant-numeric:normal;font-feature-settings:normal;text-align:start" word-spacing="0">
      <path d="M74.59 61q-5.24 0-8.95-3.18-3.69-3.18-3.69-7.68t3.7-7.67q3.7-3.18 8.94-3.18 5.22 0 8.91 3.18 3.7 3.18 3.7 7.67 0 4.5-3.7 7.68Q79.81 61 74.6 61zm-.87-6.78q2.23 0 3.81-1.36 1.6-1.37 1.6-3.29t-1.6-3.29q-1.58-1.36-3.81-1.36-2.25 0-3.85 1.36-1.58 1.37-1.58 3.29t1.58 3.29q1.6 1.36 3.85 1.36zM89.6 61q-1.28 0-2.2-.9-.9-.92-.9-2.2 0-1.3.9-2.2.92-.9 2.2-.9 1.3 0 2.2.9.91.9.91 2.2 0 1.28-.91 2.2-.9.9-2.2.9z" style="-inkscape-font-specification:'Funhouse, Normal';font-variant-ligatures:normal;font-variant-caps:normal;font-variant-numeric:normal;font-feature-settings:normal;text-align:start"/>
      <path d="M104.88 48.64q5.61.77 4.96 6.94-.65 6.18-14.39 7.3l-1.3-7q6.8.15 7.3-1.61.5-1.77-5.2-2.03-5.71-.27-5.46-13.63l19.48-2.02-1.84 8.9-8.17-.6q-.98 2.96 4.62 3.75z" style="-inkscape-font-specification:'Funhouse, Normal';font-variant-ligatures:normal;font-variant-caps:normal;font-variant-numeric:normal;font-feature-settings:normal;text-align:start"/>
    </g>
    <g fill="#fff" stroke="#f57c00" stroke-width="1.06" aria-label=".9" font-family="Funhouse" font-size="31.75" font-weight="400" letter-spacing="0" style="line-height:1.25;-inkscape-font-specification:'Funhouse, Normal';font-variant-ligatures:normal;font-variant-caps:normal;font-variant-numeric:normal;font-feature-settings:normal;text-align:start" word-spacing="0">
      <path d="M156.2 60.6q-5.24 0-8.94-3.19-3.7-3.17-3.7-7.67t3.7-7.67q3.7-3.18 8.94-3.18 5.23 0 8.92 3.18 3.7 3.17 3.7 7.67t-3.7 7.67q-3.7 3.18-8.92 3.18zm-.87-6.78q2.24 0 3.82-1.37 1.6-1.36 1.6-3.28 0-1.93-1.6-3.29-1.58-1.36-3.82-1.36-2.24 0-3.84 1.36-1.58 1.36-1.58 3.29 0 1.92 1.58 3.28 1.6 1.37 3.84 1.37zM174.02 60.6q-1.3 0-2.2-.9-.9-.92-.9-2.2 0-1.3.9-2.2.9-.9 2.2-.9 1.28 0 2.18.9.92.9.92 2.2 0 1.28-.92 2.2-.9.9-2.18.9z" style="-inkscape-font-specification:'Funhouse, Normal';font-variant-ligatures:normal;font-variant-caps:normal;font-variant-numeric:normal;font-feature-settings:normal;text-align:start"/>
      <path d="M182.96 39.3q12.06.13 7.26 21.17l-8.9-1.57 2.82-5.6q-12.33 2.56-12.77-5.78-.45-8.35 11.6-8.21zm-1 6.07q-2.72 0-2.72 1.86t2.73 1.86q2.74 0 2.74-1.86t-2.74-1.86z" style="-inkscape-font-specification:'Funhouse, Normal';font-variant-ligatures:normal;font-variant-caps:normal;font-variant-numeric:normal;font-feature-settings:normal;text-align:start"/>
    </g>
    <g transform="matrix(.84812 0 0 .84812 -204.46 706.46)">
      <g fill="#f57c00" transform="rotate(45 327.21 -723.68) scale(1.09493)">
        <rect width="7.84" height="23.53" x="303.23" y="-746.43" ry="3.92"/>
        <rect width="7.84" height="23.53" x="-738.58" y="-318.92" ry="3.92" transform="rotate(90)"/>
      </g>
      <rect width="2.21" height="6.35" x="-826.54" y="-267.47" fill="#ffd4a9" ry="1.1" transform="scale(-1 1) rotate(45)"/>
    </g>
    <g transform="rotate(90 -325.4 265.24) scale(.76982)">
      <rect width="7.84" height="18.82" x="-712.05" y="-356.04" fill="#e91e63" ry="3.92"/>
      <rect width="7.84" height="18.82" x="-701.07" y="-356.04" fill="#e91e63" ry="3.92"/>
      <rect width="2.21" height="6.35" x="-710.76" y="-353.53" fill="#facedd" ry="1.1"/>
      <rect width="2.21" height="6.35" x="-699.77" y="-353.53" fill="#facedd" ry="1.1"/>
    </g>
    <g>
      <g fill="#fff" stroke="#f57c00" stroke-width="1.06" aria-label=".02" font-family="Funhouse" font-size="31.75" font-weight="400" letter-spacing="0" style="line-height:1.25;-inkscape-font-specification:'Funhouse, Normal';font-variant-ligatures:normal;font-variant-caps:normal;font-variant-numeric:normal;font-feature-settings:normal;text-align:start" word-spacing="0">
        <path d="M47.05 30.26q-5.24 0-8.94-3.18-3.7-3.18-3.7-7.67 0-4.5 3.7-7.68 3.7-3.17 8.94-3.17 5.23 0 8.92 3.17 3.7 3.18 3.7 7.68t-3.7 7.67q-3.7 3.18-8.92 3.18zm-.86-6.77q2.23 0 3.8-1.37 1.6-1.36 1.6-3.29 0-1.92-1.6-3.28-1.57-1.37-3.8-1.37-2.25 0-3.85 1.37-1.58 1.36-1.58 3.28 0 1.93 1.58 3.3 1.6 1.36 3.85 1.36zM62.08 30.26q-1.3 0-2.2-.9-.9-.91-.9-2.2t.9-2.19q.9-.91 2.2-.91 1.28 0 2.18.91.92.9.92 2.19t-.92 2.2q-.9.9-2.18.9zM77.13 30.26q-5.24 0-8.95-3.18-3.69-3.18-3.69-7.67 0-4.5 3.7-7.68 3.7-3.17 8.94-3.17 5.22 0 8.91 3.17 3.7 3.18 3.7 7.68t-3.7 7.67q-3.69 3.18-8.91 3.18zm-.87-6.77q2.23 0 3.81-1.37 1.6-1.36 1.6-3.29 0-1.92-1.6-3.28-1.58-1.37-3.8-1.37-2.26 0-3.85 1.37-1.58 1.36-1.58 3.28 0 1.93 1.58 3.3 1.6 1.36 3.84 1.36zM104.88 20.12q-5.6.78-4.62 3.74l8.17-.6 1.84 8.9-19.48-2.02q-.25-13.37 5.45-13.63 5.7-.26 5.21-2.03-.5-1.77-7.3-1.61l1.3-7.01q13.74 1.13 14.39 7.3.65 6.17-4.96 6.96z" style="-inkscape-font-specification:'Funhouse, Normal';font-variant-ligatures:normal;font-variant-caps:normal;font-variant-numeric:normal;font-feature-settings:normal;text-align:start"/>
      </g>
      <g fill="#fff" stroke="#f57c00" stroke-width="1.06" aria-label=".08" font-family="Funhouse" font-size="31.75" font-weight="400" letter-spacing="0" style="line-height:1.25;-inkscape-font-specification:'Funhouse, Normal';font-variant-ligatures:normal;font-variant-caps:normal;font-variant-numeric:normal;font-feature-settings:normal;text-align:start" word-spacing="0">
        <path d="M156.2 30.02q-5.24 0-8.94-3.18-3.7-3.18-3.7-7.67 0-4.5 3.7-7.68 3.7-3.17 8.94-3.17 5.23 0 8.92 3.17 3.7 3.18 3.7 7.68t-3.7 7.67q-3.7 3.18-8.92 3.18zm-.87-6.78q2.24 0 3.82-1.36 1.6-1.36 1.6-3.29 0-1.92-1.6-3.28-1.58-1.37-3.82-1.37-2.24 0-3.84 1.37-1.58 1.36-1.58 3.28 0 1.93 1.58 3.3 1.6 1.35 3.84 1.35zM171.23 30.02q-1.3 0-2.2-.9-.9-.91-.9-2.2t.9-2.19q.9-.91 2.2-.91 1.28 0 2.18.91.92.9.92 2.19t-.92 2.2q-.9.9-2.18.9zM186.28 30.02q-5.24 0-8.95-3.18-3.69-3.18-3.69-7.67 0-4.5 3.7-7.68 3.7-3.17 8.94-3.17 5.22 0 8.91 3.17 3.7 3.18 3.7 7.68t-3.7 7.67q-3.69 3.18-8.91 3.18zm-.87-6.78q2.23 0 3.81-1.36 1.6-1.36 1.6-3.29 0-1.92-1.6-3.28-1.58-1.37-3.8-1.37-2.26 0-3.85 1.37-1.59 1.36-1.59 3.28 0 1.93 1.59 3.3 1.6 1.35 3.84 1.35zM207.5 12.07q-.85 0-1.45.48t-.6 1.16q0 .68.6 1.16.6.48 1.45.48.84 0 1.43-.48.6-.48.6-1.16 0-.68-.6-1.16-.6-.48-1.43-.48zm.31 7.97q-1.28 0-2.2.52-.91.53-.91 1.29t.91 1.3q.92.53 2.2.53 1.3 0 2.22-.53.91-.54.91-1.3t-.91-1.29q-.92-.52-2.22-.52zm5.7-2.53q.6.32 1.15.73 2.56 1.94 2.56 4.68 0 2.73-2.57 4.67-2.56 1.93-6.19 1.93-3.64 0-6.21-1.93-2.56-1.94-2.56-4.67 0-2.74 2.57-4.68.4-.3.82-.56-1.64-1.61-1.64-3.83 0-2.43 1.99-4.14Q205.4 8 208.22 8q2.79 0 4.77 1.72 1.98 1.7 1.98 4.14 0 2.1-1.47 3.66z" style="-inkscape-font-specification:'Funhouse, Normal';font-variant-ligatures:normal;font-variant-caps:normal;font-variant-numeric:normal;font-feature-settings:normal;text-align:start"/>
      </g>
      <g transform="matrix(.84812 0 0 .84812 -204.46 675.72)">
        <g fill="#f57c00" transform="rotate(45 327.21 -723.68) scale(1.09493)">
          <rect width="7.84" height="23.53" x="303.23" y="-746.43" ry="3.92"/>
          <rect width="7.84" height="23.53" x="-738.58" y="-318.92" ry="3.92" transform="rotate(90)"/>
        </g>
        <rect width="2.21" height="6.35" x="-826.54" y="-267.47" fill="#ffd4a9" ry="1.1" transform="scale(-1 1) rotate(45)"/>
      </g>
      <g transform="rotate(90 -298.48 261.43) scale(.76982)">
        <rect width="7.84" height="18.82" x="-712.05" y="-356.04" fill="#e91e63" ry="3.92"/>
        <rect width="7.84" height="18.82" x="-701.07" y="-356.04" fill="#e91e63" ry="3.92"/>
        <rect width="2.21" height="6.35" x="-710.76" y="-353.53" fill="#facedd" ry="1.1"/>
        <rect width="2.21" height="6.35" x="-699.77" y="-353.53" fill="#facedd" ry="1.1"/>
      </g>
    </g>
  </g>
</svg>
