<svg xmlns="http://www.w3.org/2000/svg" viewBox="0 0 264.58 87.31">
  <g fill="#fff" stroke="#e91e63" stroke-width=".79" aria-label="a game" style="font-feature-settings:normal;font-variant-caps:normal;font-variant-ligatures:normal;font-variant-numeric:normal">
    <path d="M123.05 52.72l-1.2 3.44-6.79-4.1 8.51-20.01 6.48-.45 10.18 20.72-8.05 3.84-1.77-4.84zm5.9-7.55l-1.93-6.23-2.28 6.89zM177.45 55.92l-9.8 2.48.17-2.72q-1.9.48-4.03.48-5.77 0-9.85-3.53t-4.08-8.53q0-5 4.08-8.52 4.08-3.53 9.85-3.53t9.86 3.53q2.05 1.77 3.08 3.92l-8.27 2.09q-.41-1.1-1.45-2-1.75-1.52-4.22-1.52-2.46 0-4.22 1.52t-1.75 3.65 1.75 3.65q1.76 1.52 4.22 1.52 2.47 0 4.22-1.52.95-.82 1.47-1.82l7.82-.35zM186.3 52.72l-1.2 3.44-6.79-4.1 8.51-20.01 6.48-.45 10.18 20.72-8.04 3.84-1.78-4.84zm5.9-7.55l-1.93-6.23-2.28 6.89zM231.92 32.05l1.45 22.72-8.79.74-.46-11.63-1.78 8-7.89 1.1-3.2-8.26 1.15 9.79-8.04 1.65 1.1-24.11 7.9-1.05 4.38 13.78 5.3-13.37zM252.52 28.95l.45 9.12-10.72 1.16.14 2.08 7.03-.65.62 6.23-7.34.54.12 1.69 10.4-.8 1.56 7.84-20.52.7 2.09-24.85z" style="font-feature-settings:normal;font-variant-caps:normal;font-variant-ligatures:normal;font-variant-numeric:normal"/>
  </g>
  <g stroke-width="2.87">
    <path fill="#b3b3b3" d="M74.74 24.97H63.72a15.44 15.44 0 0 1-25.64 0h-9.5a8.09 8.09 0 0 0-8.08 8.1v46.15a8.09 8.09 0 0 0 8.09 8.1h46.15a8.09 8.09 0 0 0 8.1-8.1V33.06a8.1 8.1 0 0 0-8.1-8.09z"/>
    <path fill="#e7eced" d="M50.9 31.8c-1.58 0-3.12-.24-4.56-.69v23a4.56 4.56 0 1 0 9.13 0v-23c-1.45.45-2.98.69-4.57.69z"/>
    <path fill="#666" d="M55.47 34.65V54.1a4.56 4.56 0 1 1-9.13 0V34.65a19.76 19.76 0 1 0 9.13 0z"/>
    <path fill="#333" d="M55.47 39.66v14.45a4.56 4.56 0 1 1-9.13 0V39.66a14.32 14.32 0 1 0 9.13 0z"/>
  </g>
  <g transform="matrix(.5306 0 0 .5306 -55.06 338.84)">
    <circle cx="199.71" cy="-607.79" r="29.12" fill="#e91e63"/>
    <path fill="#f2759f" d="M218.68-609a2.86 2.86 0 0 0 2.86-2.87c0-9.48-7.7-17.2-17.19-17.2a2.86 2.86 0 1 0 0 5.74c6.32 0 11.46 5.14 11.46 11.46a2.86 2.86 0 0 0 2.87 2.87z"/>
    <path fill="#a7a7a7" d="M157.65-591.53a15.25 15.25 0 0 0-15.25 15.25v87c0 8.41 6.83 15.24 15.25 15.24h9.19a15.25 15.25 0 0 1-15.25-15.25v-86.99c0-8.42 6.82-15.25 15.25-15.25z"/>
    <path fill="#d41556" d="M199.71-636.9a29.12 29.12 0 0 0-29.12 29.11 29.12 29.12 0 0 0 29.12 29.13 29.12 29.12 0 0 0 2.92-.18 29.12 29.12 0 0 1-26-28.95 29.12 29.12 0 0 1 26.2-28.94 29.12 29.12 0 0 0-3.12-.18z"/>
    <path fill="#a7a7a7" d="M161.03-504.23a7.93 7.93 0 0 0-7.93 7.93 7.93 7.93 0 0 0 7.93 7.93 7.93 7.93 0 0 0 1.44-.14 7.93 7.93 0 0 1-6.48-7.79 7.93 7.93 0 0 1 6.48-7.79 7.93 7.93 0 0 0-1.44-.14z"/>
    <circle cx="163.13" cy="-496.3" r="7.93" fill="#e91e63"/>
    <path fill="#d41556" d="M163.13-504.23a7.93 7.93 0 0 0-7.93 7.93 7.93 7.93 0 0 0 7.93 7.93 7.93 7.93 0 0 0 1.44-.14 7.93 7.93 0 0 1-6.48-7.79 7.93 7.93 0 0 1 6.48-7.79 7.93 7.93 0 0 0-1.44-.14z"/>
    <path fill="#a7a7a7" d="M208.31-579.96a29.1 29.1 0 0 1-3.83.9 29.12 29.12 0 0 1-.06.01c-.92.15-1.85.26-2.8.32a29.12 29.12 0 0 1-.23.01 29.27 29.27 0 0 1-4.56-.1 29.12 29.12 0 0 1-.04 0c-1.95-.2-3.85-.58-5.67-1.14v6a29.12 29.12 0 0 0 8.6 1.33 29.12 29.12 0 0 0 8.6-1.3z" opacity=".55"/>
    <rect width="4.99" height="39.1" x="249.03" y="-577.88" fill="#dedede" ry="2.49"/>
  </g>
</svg>
