<svg xmlns="http://www.w3.org/2000/svg" width="512" height="512">
  <g fill="#fff8e1" transform="matrix(5.91029 0 0 5.91029 12074 5710.9)">
    <ellipse cx="-1999.6" cy="-928.2" rx="33.5" ry="29.4"/>
    <rect width="63.5" height="13.3" x="-2031.3" y="-911.6" ry="6.6"/>
    <rect width="10.9" height="20.8" x="-2020.8" y="-909.1" ry="6.6"/>
    <rect width="10.9" height="20.8" x="-2010.3" y="-909.1" ry="6.6"/>
    <rect width="10.9" height="20.8" x="-1999.7" y="-909.1" ry="6.6"/>
    <rect width="10.9" height="20.8" x="-1989.2" y="-909.1" ry="6.6"/>
  </g>
  <path fill="none" stroke="#fff" stroke-linecap="round" stroke-linejoin="round" stroke-width="27.778363" d="M280 82S425.9 110 417.3 234.2" opacity=".8"/>
  <path fill="none" stroke="#fff" stroke-linecap="round" stroke-linejoin="round" stroke-width="18.321899" d="M408.3 340.7s17.9 6.4 15.6 28" opacity=".8"/>
  <g transform="translate(718.5 1971.8) scale(3.4652)">
    <path fill="#e53935" d="M-141-498.5a4 4 0 0 0-5.6 0l-.8.7.3-1a4 4 0 1 0-7.6-2l-.3 1-.2-1a4 4 0 1 0-7.6 2l.3 1-.8-.7a4 4 0 1 0-5.5 5.5l.7.8-1-.3a4 4 0 1 0-2 7.6l1 .3-1 .2a4 4 0 1 0 2 7.6l1-.2-.8.7a4 4 0 1 0 5.6 5.6l.8-.8-.3 1a4 4 0 1 0 7.6 2l.2-1 .3 1a4 4 0 1 0 7.6-2l-.3-1 .8.8a4 4 0 1 0 5.5-5.6l-.7-.7 1 .2a4 4 0 1 0 2-7.6l-1-.2 1-.3a4 4 0 1 0-2-7.6l-1 .3.7-.8a4 4 0 0 0 0-5.5z"/>
    <circle cx="-452.3" cy="-233.1" r="15" fill="#1e857b" transform="rotate(45)"/>
    <circle cx="-452.3" cy="-233.1" r="12.9" fill="none" stroke="#26a69a" stroke-dasharray="1.6 3.3" stroke-linecap="round" stroke-linejoin="round" stroke-width=".8" transform="rotate(45)"/>
    <circle cx="-452.3" cy="-233.1" r="9.7" fill="#0c1038" transform="rotate(45)"/>
    <g fill="#ffc107" transform="rotate(45 1007.6 -817) scale(1.35643)">
      <rect width="3.4" height="11.2" x="308.3" y="171.4" ry="1.7"/>
      <rect width="3.4" height="11.2" x="175.3" y="-315.6" ry="1.7" transform="rotate(90)"/>
    </g>
    <path fill="#e53935" d="M-98.1-498.5a4 4 0 0 0-5.6 0l-.7.7.3-1a4 4 0 1 0-7.7-2l-.2 1-.3-1a4 4 0 1 0-7.6 2l.3 1-.7-.7a4 4 0 1 0-5.6 5.5l.7.8-1-.3a4 4 0 1 0-2 7.6l1 .3-1 .2a4 4 0 1 0 2 7.6l1-.2-.7.7a4 4 0 1 0 5.6 5.6l.7-.8-.3 1a4 4 0 1 0 7.6 2l.3-1 .3 1a4 4 0 1 0 7.6-2l-.3-1 .7.8a4 4 0 1 0 5.6-5.6l-.8-.7 1 .2a4 4 0 1 0 2-7.6l-1-.2 1-.3a4 4 0 1 0-2-7.6l-1 .3.8-.8a4 4 0 0 0 0-5.5z"/>
    <circle cx="-421.9" cy="-263.5" r="15" fill="#1e857b" transform="rotate(45)"/>
    <circle cx="-421.9" cy="-263.5" r="12.9" fill="none" stroke="#26a69a" stroke-dasharray="1.6 3.3" stroke-linecap="round" stroke-linejoin="round" stroke-width=".8" transform="rotate(45)"/>
    <circle cx="-421.9" cy="-263.5" r="9.7" fill="#0c1038" transform="rotate(45)"/>
    <g fill="#ffc107" transform="rotate(45 1029 -765.1) scale(1.35643)">
      <rect width="3.4" height="11.2" x="308.3" y="171.4" ry="1.7"/>
      <rect width="3.4" height="11.2" x="175.3" y="-315.6" ry="1.7" transform="rotate(90)"/>
    </g>
  </g>
  <path fill="#e53935" d="M256.8 337.7a15.5 15.5 0 0 0-14 7.8L227 373.2a15.5 15.5 0 0 0 5.7 21.2l.4.3c7.4 4.3 17 1.8 21.2-5.7l2.9-4.9 2.8 4.9a15.5 15.5 0 0 0 21.3 5.7l.3-.2a15.5 15.5 0 0 0 5.8-21.3l-16-27.7a15.5 15.5 0 0 0-14.2-7.8h-.3z"/>
  <g transform="translate(718.5 1971.8) scale(3.4652)">
    <path fill="#e53935" d="M-133.3-533.5c2 0 4 1.8 3.8 3.9l-2.1 14c-.2 1.2-.4 2.3-1.7 2.3-1.3 0-1.5-1-1.7-2.3l-2-14c-.3-2.1 1.6-3.9 3.7-3.9zm10.3 9.1c1.1.7 1.6 2.2.8 3.3l-5.5 7c-.5.5-1 1-1.6.7-.7-.4-.5-1-.2-1.8l3.2-8.2c.5-1.3 2.2-1.6 3.3-1zm-20.5 0c-1.2.7-1.7 2.2-.8 3.3l5.5 7c.5.5.9 1 1.6.7.7-.4.4-1 .1-1.8l-3.2-8.2c-.5-1.3-2.1-1.6-3.2-1z"/>
    <circle cx="-133.3" cy="-508.1" r="3.5" fill="#ffc107"/>
  </g>
  <g fill="#ffe699">
    <path d="M107.6 322.8a39.1 39.1 0 0 0-39.3 39.3 39.1 39.1 0 0 0 39.3 39.1H124a39.1 39.1 0 0 1-39.3-39.1c0-21.8 7.2-39.3 29-39.3zm22.7 78.5v20.1c0 21.7 14.4 39.2 32.3 39.2 2.8 0 5.5-.4 8.1-1.3-13.8-4.3-24-19.6-24-37.9v-20.1zm62.3 0v20.1c0 21.7 14.4 39.2 32.3 39.2 2.8 0 5.5-.4 8.2-1.3-14-4.3-24-19.6-24-37.9v-20.1zm62.3 0v20.1c0 21.7 14.4 39.2 32.2 39.2 2.9 0 5.6-.4 8.3-1.3-14-4.3-24-19.6-24-37.9v-20.1zm62.3 0v20.1c0 21.7 14.4 39.2 32.2 39.2 2.9 0 5.7-.4 8.3-1.3-14-4.3-24.1-19.6-24.1-37.9v-20.1z"/>
    <path d="M256 51.4A198.2 173.9 0 0 0 57.8 225.3 198.2 173.9 0 0 0 94 325.2a39 39 0 0 1 13.5-2.4h1.2A198.2 173.9 0 0 1 74 225.3 198.2 173.9 0 0 1 262.7 51.7a198.2 173.9 0 0 0-6.8-.3z"/>
  </g>
</svg>
