<?xml version="1.0" encoding="UTF-8"?>
<!-- Created with Inkscape (http://www.inkscape.org/) -->
<svg width="1969.917" height="1308.0524" version="1.1" viewBox="0 0 521.2072 346.08886" xmlns="http://www.w3.org/2000/svg" xmlns:cc="http://creativecommons.org/ns#" xmlns:dc="http://purl.org/dc/elements/1.1/" xmlns:rdf="http://www.w3.org/1999/02/22-rdf-syntax-ns#">
 <metadata>
  <rdf:RDF>
   <cc:Work rdf:about="">
    <dc:format>image/svg+xml</dc:format>
    <dc:type rdf:resource="http://purl.org/dc/dcmitype/StillImage"/>
    <dc:title/>
   </cc:Work>
  </rdf:RDF>
 </metadata>
 <path d="m377.59283 10.169905c-3.65753 0.163872-132.00001-35.858093-155.44171 115.272435l13.12047 26.47998-5e-3 3e-3 0.27317 0.27176 0.27169 0.27311 5e-3 -3e-3 26.46609 13.15157c144.93716-20.29742 115.14187-151.792145 115.31043-155.448991z" fill="#e91e63" stroke-width="2.78629398"/>
 <g transform="rotate(-45)" fill="#fff" stroke-width=".50327218" style="font-feature-settings:normal;font-variant-caps:normal;font-variant-ligatures:normal;font-variant-numeric:normal" aria-label="EK">
  <path d="m135.61427 247.64959 0.83604 17.04248-20.00079 2.15443 0.25724 3.89083 13.1195-1.22191 1.1576 11.64033-13.6983 0.99682 0.22509 3.15126 19.422-1.47916 2.894 14.6308-38.29734 1.31839 3.89083-46.40057z" style="font-feature-settings:normal;font-variant-caps:normal;font-variant-ligatures:normal;font-variant-numeric:normal"/>
  <path d="m153.13908 269.99775 10.35411-19.45415 19.7114 2.894-18.45733 22.50894 17.13895 10.67567-14.75943 11.83326-12.86225-16.07781 2.25089 13.18381-15.11314 2.894v-45.01787l10.25764 1.12545z" style="font-feature-settings:normal;font-variant-caps:normal;font-variant-ligatures:normal;font-variant-numeric:normal"/>
 </g>
 <g transform="matrix(.34567094 .34567094 -.34567094 .34567094 54.97226 -218.82788)">
  <g transform="translate(73.28534,-76.682679)">
   <rect x="686.26147" y="400.37601" width="74.741341" height="222.2827" ry="37.047115" fill="#fd5" opacity=".58899997"/>
   <rect x="699.85083" y="429.496" width="47.562672" height="164.04269" ry="27.340446" fill="#ff7f2a" opacity=".71600001"/>
   <rect x="715.38147" y="458.616" width="16.501333" height="105.80267" ry="11.162667" fill="#e91e63" opacity=".85500004"/>
  </g>
  <g transform="matrix(.63636361 0 0 .63636361 423.29901 48.171636)">
   <rect x="686.26147" y="400.37601" width="74.741341" height="222.2827" ry="37.047115" fill="#fd5" opacity=".58899997"/>
   <rect x="699.85083" y="429.496" width="47.562672" height="164.04269" ry="27.340446" fill="#ff7f2a" opacity=".71600001"/>
   <rect x="715.38147" y="458.616" width="16.501333" height="105.80267" ry="11.162667" fill="#e91e63" opacity=".85500004"/>
  </g>
  <g transform="matrix(.63636361 0 0 .63636361 249.54967 48.171636)">
   <rect x="686.26147" y="400.37601" width="74.741341" height="222.2827" ry="37.047115" fill="#fd5" opacity=".58899997"/>
   <rect x="699.85083" y="429.496" width="47.562672" height="164.04269" ry="27.340446" fill="#ff7f2a" opacity=".71600001"/>
   <rect x="715.38147" y="458.616" width="16.501333" height="105.80267" ry="11.162667" fill="#e91e63" opacity=".85500004"/>
  </g>
 </g>
 <path d="m297.43387 28.431922s-33.38432 7.538397-47.38419 47.384194" fill="none" stroke="#ef5a8c" stroke-linecap="round" stroke-width="5.29166651"/>
 <path d="m368.5758 57.574107c-5.91917 33.637924-25.46597 73.183983-81.98723 91.395733l9.15529 9.15529c56.51353-18.21039 76.06584-57.756 81.98723-91.395736z" fill="#d21455" stroke-width="2.78629398"/>
 <path d="m370.35571 74.796181c-14.26324 1.554408-61.85527-46.165507-60.24307-60.404956 1.6122-14.23944819 55.26917-20.0869807 67.92022-7.4019407 12.65104 12.6850407 6.5861 66.2524887-7.67715 67.8068967z" fill="#2196f3" stroke-width=".44317555"/>
 <path d="m378.03256 6.9892854c-1.40672-1.4104989-3.3221-2.5907272-5.61487-3.5568924 7.68674 18.31226 1.48691 60.843398-11.19974 62.225991-6.29056 0.685543-19.06342-8.214996-31.23942-19.598999 14.33003 15.322185 32.47166 29.598286 40.37717 28.736745 14.26325-1.554408 20.32789-55.121812 7.67686-67.8068446z" fill="#138ff2" stroke-width=".26458335"/>
 <path d="m320.41743 4.4427763c-5.87603 2.9008299-9.90919 6.3784287-10.59275 10.1711667-2.77975 15.423036 44.86311 63.213217 60.30748 60.493836 3.80998-0.670847 7.3152-4.710919 10.24593-10.602027-15.69771 1.80321-61.67357-44.287259-59.96066-60.0629771z" fill="#e6e6e6"/>
 <path d="m380.3781 64.505523c-4.30825 0.494891-10.8986-2.622091-18.15636-7.725439l-9.17503 11.684628c6.90013 4.648306 13.07811 7.348755 17.08573 6.643109 3.80998-0.670847 7.31493-4.71119 10.24566-10.602298z" fill="#dadada" stroke-width=".26458335"/>
 <path d="m225.2569 132.80624 29.20654 29.20654c2.39029 2.39029 2.22596 5.10551 1.23027 7.39894l-5.6022 12.90384c-0.99568 2.29341-5.00863 1.16001-7.39892-1.23028l-36.50818-36.50818c-2.39029-2.39029-3.52369-6.40324-1.23027-7.39892l12.90383-5.6022c2.29342-0.9957 5.00864-1.16003 7.39893 1.23026z" fill="#666"/>
 <g transform="rotate(45,81.92492,476.39208)" fill="#555">
  <path d="m-17.695928 139.4939 3.085289 14.40483h4.9449393c1.4628018 0 3.0376049-2.03627 2.6405166-4.36201l-2.1460464-5.68081c-0.3970923-2.32576-1.1777145-4.36201-2.6405105-4.36201z"/>
  <path d="m-65.984968 136.5154-3.931462 10.56542h7.881389c3.131702 0 5.65303-1.94552 5.65303-4.36201v-2.34869c0-2.4165-2.521328-4.36201-5.65303-4.36201z"/>
  <rect x="-63.539455" y="133.88866" width="49.823284" height="7.3200078" ry="3.0197687"/>
 </g>
 <path d="m243.75844 94.177437c-0.85386-0.85386-1.77644-1.597262-2.75042-2.233736 4.55661 6.972377 3.55471 16.610679-2.8648 23.030179l-18.11178 18.11179 4.98379 4.98378 18.11179-18.11179c7.31609-7.31609 7.59775-18.8139 0.63142-25.780223z" fill="#d21455"/>
 <rect transform="rotate(45)" x="232.06737" y="-70.425964" width="83.547295" height="10.065939" ry="3.0197792" fill="#c5c5c5"/>
 <path d="m240.1664 89.796104c-6.96633-6.966324-18.46456-6.684825-25.78065 0.631268l-18.11188 18.111878 25.1492 25.1492 18.11188-18.11188c7.31609-7.31609 7.59777-18.814142 0.63145-25.780466z" fill="#2196f3"/>
 <path d="m297.29087 146.92056c-6.96632-6.96632-18.46458-6.68481-25.78067 0.63128l-18.11187 18.11188 25.1492 25.14921 18.11188-18.11188c7.31609-7.31609 7.59778-18.81417 0.63146-25.78049z" fill="#2196f3"/>
 <rect transform="rotate(45)" x="299.99075" y="-92.401581" width="4.6990466" height="25.061583" ry="2.3495233" fill="#6fbbf7"/>
 <rect transform="rotate(45)" x="218.93221" y="-92.009979" width="4.6990466" height="25.061583" ry="2.3495233" fill="#6fbbf7"/>
 <path d="m225.33184 125.7345c-0.47095-0.47095-1.80248 0.10248-2.98544 1.28544l-2.84689 2.84689c-1.18296 1.18296-1.75639 2.51449-1.28544 2.98544l6.01255 6.01255 7.11777-7.11777z" fill="#b6b6b6"/>
 <path d="m240.16629 89.796101c-0.85386-0.853859-1.77644-1.597258-2.75042-2.233735 4.55661 6.972375 3.5547 16.610684-2.8648 23.030184l-18.11179 18.11179 4.9838 4.98379 18.11179-18.11179c7.31609-7.3161 7.59775-18.813915 0.63142-25.780239z" fill="#138ff2"/>
 <rect transform="rotate(45)" x="212.51566" y="-64.050911" width="41.605881" height="11.072534" ry="4.3618989" fill="#e6e6e6"/>
 <path d="m216.35154 125.76977-7.82958 7.82959 5.33449 5.3345c1.82588 1.82588 4.67158 1.9202 6.3803 0.21148l1.66077-1.66077c1.70873-1.70873 1.6144-4.55442-0.21148-6.3803z" fill="#d6d6d6"/>
 <path d="m297.29092 146.92073c-0.85386-0.85386-1.77644-1.59726-2.75042-2.23374 4.55661 6.97238 3.5547 16.61068-2.8648 23.03018l-18.11178 18.11178 4.98379 4.9838 18.11179-18.11179c7.31609-7.3161 7.59774-18.81391 0.63142-25.78023z" fill="#138ff2"/>
 <path d="m255.72209 169.53104-4.69092 10.25084-5.57298-5.57298c-2.21445-2.21445-2.62161-5.37299-0.91289-7.08171l1.66077-1.66077c1.70873-1.70872 4.86726-1.30156 7.08171 0.91289z" fill="#555"/>
 <rect transform="rotate(45)" x="293.30182" y="-64.050911" width="41.605881" height="11.072534" ry="4.3618989" fill="#e6e6e6"/>
 <path d="m273.19917 182.61739-7.82959 7.82959 5.50566 5.50566c1.88445 1.88446 4.77732 2.02594 6.48604 0.31723l1.66077-1.66078c1.70872-1.70872 1.56723-4.60158-0.31722-6.48604z" fill="#d6d6d6"/>
 <path d="m335.7579 11.141492s15.35632-5.7255706 28.33322-0.83669" fill="none" stroke="#6fbbf7" stroke-linecap="round" stroke-width="5.29166651"/>
 <g transform="translate(233.70469,-5.7553673)">
  <g fill="#2196f3">
   <path d="m-188.05717 276.05211 1.11965 22.82376-26.78561 2.88526 0.3445 5.21071 17.56999-1.63642 1.55029 15.58906-18.34513 1.33497 0.30145 4.22024 26.01047-1.98093 3.87573 19.59398-51.28886 1.76561 5.21071-62.1409z" style="font-feature-settings:normal;font-variant-caps:normal;font-variant-ligatures:normal;font-variant-numeric:normal"/>
   <path d="m-179.09992 286.81803 22.95294 4.47863q-11.45494 35.18303 3.27284 35.57061 17.48386-0.1292 10.11997-36.43189l21.01508-6.63181q9.64627 59.77241-31.13505 60.28917-41.21195-0.38757-26.22578-57.27471z" style="font-feature-settings:normal;font-variant-caps:normal;font-variant-ligatures:normal;font-variant-numeric:normal"/>
   <path d="m-114.80583 282.9423 21.230397 1.11966-6.976317 42.80531 21.617972-3.35897-4.78007 22.95295-34.063382-2.36851z" style="font-feature-settings:normal;font-variant-caps:normal;font-variant-ligatures:normal;font-variant-numeric:normal"/>
   <path d="m-31.133071 276.05211 1.119656 22.82376-26.785617 2.88526 0.34451 5.21071 17.569986-1.63642 1.550293 15.58906-18.345133 1.33497 0.301446 4.22024 26.01047-1.98093 3.875733 19.59398-51.288858 1.76561 5.210706-62.1409z" style="font-feature-settings:normal;font-variant-caps:normal;font-variant-ligatures:normal;font-variant-numeric:normal"/>
   <path d="m-2.2804039 298.01459 0.6028917 11.6272q21.5318472 0 21.5318472-4.30637t-22.1347389-7.32083zm2.88526741 42.58999-23.98647651 3.35897 4.995389-64.29409q55.466036 4.13411 57.317775 22.22086 1.894802 18.04369-19.077216 24.97695l17.225477 9.34482-17.656114 15.63212-20.19687266-24.97694z" style="font-feature-settings:normal;font-variant-caps:normal;font-variant-ligatures:normal;font-variant-numeric:normal"/>
   <path d="m102.40742 305.98137 13.86651-26.05353 26.39804 3.87573-24.71856 30.14459 22.95295 14.29714-19.76623 15.84744-17.22548-21.53184 3.01446 17.65611-20.239941 3.87573v-60.28917l13.737321 1.50723z" style="font-feature-settings:normal;font-variant-caps:normal;font-variant-ligatures:normal;font-variant-numeric:normal"/>
   <path d="m164.89283 284.14808 4.3925 58.09292-24.37405 4.60782 1.11965-61.19351z" style="font-feature-settings:normal;font-variant-caps:normal;font-variant-ligatures:normal;font-variant-numeric:normal"/>
   <path d="m174.19461 344.09274-2.75608-60.28917q58.73888 0 58.73888 30.14459 0 30.14458-55.9828 30.14458zm15.33067-44.31254 2.88527 20.84283q18.64658 0.0861 18.64658-10.37835 0-10.46448-21.53185-10.46448z" style="font-feature-settings:normal;font-variant-caps:normal;font-variant-ligatures:normal;font-variant-numeric:normal"/>
   <path d="m247.9627 320.27852q-15.54599-2.19625-13.73731-19.3356 1.80867-17.13935 39.9631-20.283l3.61735 19.46479q-18.90496-0.43063-20.283 4.47863-1.37803 4.90926 14.4694 5.64134 15.84744 0.73208 15.50293 19.29253-0.34451 18.56046-41.72871 19.8093l-7.62228-20.36912q21.18734 2.28237 23.29746-2.11012 2.11012-4.43556-13.47894-6.58875z" style="font-feature-settings:normal;font-variant-caps:normal;font-variant-ligatures:normal;font-variant-numeric:normal"/>
  </g>
  <circle cx="62.888866" cy="313.94815" r="11.261312" fill="#e91e63"/>
 </g>
</svg>
