<?xml version="1.0" encoding="UTF-8"?>
<!-- Created with Inkscape (http://www.inkscape.org/) -->
<svg width="512" height="512" version="1.1" viewBox="0 0 135.46666 135.46667" xmlns="http://www.w3.org/2000/svg" xmlns:cc="http://creativecommons.org/ns#" xmlns:dc="http://purl.org/dc/elements/1.1/" xmlns:rdf="http://www.w3.org/1999/02/22-rdf-syntax-ns#">
 <metadata>
  <rdf:RDF>
   <cc:Work rdf:about="">
    <dc:format>image/svg+xml</dc:format>
    <dc:type rdf:resource="http://purl.org/dc/dcmitype/StillImage"/>
    <dc:title/>
   </cc:Work>
  </rdf:RDF>
 </metadata>
 <circle cx="67.733322" cy="67.73333" r="67.73333" opacity="0" stroke-width="9.86256504"/>
 <path d="m111.30477 25.186273c-1.36221 0.060507-49.162072-13.239847-57.892696 42.561924l4.886586 9.777175-0.0019 0.0012 0.101742 0.100343 0.101188 0.100838 0.0019-0.0012 9.857029 4.855941c53.980371-7.494392 42.883421-56.046057 42.946201-57.396271z" fill="#e91e63" stroke-width="1.03324401"/>
 <g transform="matrix(.71017469 -.70405212 .71017469 .70405212 0 0)" fill="#fff" stroke-width=".18662891" style="font-feature-settings:normal;font-variant-caps:normal;font-variant-ligatures:normal;font-variant-numeric:normal" aria-label="EK">
  <path d="m14.423103 86.409125 0.310031 6.319879-7.4169145 0.798928 0.095394 1.44284 4.8651141-0.453123 0.429275 4.316597-5.0797517 0.369653 0.08347 1.168581 7.2022776-0.548517 1.073187 5.425557-14.2018418 0.4889 1.4428403-17.20677z" style="font-feature-settings:normal;font-variant-caps:normal;font-variant-ligatures:normal;font-variant-numeric:normal"/>
  <path d="m20.921847 94.696514 3.839624-7.214202 7.309596 1.073187-6.844548 8.34701 6.355652 3.958871-5.473254 4.38814-4.76972-5.962151 0.834701 4.888961-5.604421 1.07319v-16.694021l3.803852 0.41735z" style="font-feature-settings:normal;font-variant-caps:normal;font-variant-ligatures:normal;font-variant-numeric:normal"/>
 </g>
 <g transform="matrix(.12874164 .12763173 -.12874164 .12763173 -8.8519994 -59.366349)">
  <g transform="translate(73.28534,-76.682679)">
   <rect x="686.26147" y="400.37601" width="74.741341" height="222.2827" ry="37.047115" fill="#fd5" opacity=".58899997"/>
   <rect x="699.85083" y="429.496" width="47.562672" height="164.04269" ry="27.340446" fill="#ff7f2a" opacity=".71600001"/>
   <rect x="715.38147" y="458.616" width="16.501333" height="105.80267" ry="11.162667" fill="#e91e63" opacity=".85500004"/>
  </g>
  <g transform="matrix(.63636361 0 0 .63636361 423.29901 48.171636)">
   <rect x="686.26147" y="400.37601" width="74.741341" height="222.2827" ry="37.047115" fill="#fd5" opacity=".58899997"/>
   <rect x="699.85083" y="429.496" width="47.562672" height="164.04269" ry="27.340446" fill="#ff7f2a" opacity=".71600001"/>
   <rect x="715.38147" y="458.616" width="16.501333" height="105.80267" ry="11.162667" fill="#e91e63" opacity=".85500004"/>
  </g>
  <g transform="matrix(.63636361 0 0 .63636361 249.54967 48.171636)">
   <rect x="686.26147" y="400.37601" width="74.741341" height="222.2827" ry="37.047115" fill="#fd5" opacity=".58899997"/>
   <rect x="699.85083" y="429.496" width="47.562672" height="164.04269" ry="27.340446" fill="#ff7f2a" opacity=".71600001"/>
   <rect x="715.38147" y="458.616" width="16.501333" height="105.80267" ry="11.162667" fill="#e91e63" opacity=".85500004"/>
  </g>
 </g>
 <path d="m81.450372 31.929139s-12.43365 2.783395-17.647763 17.495618" fill="none" stroke="#ef5a8c" stroke-linecap="round" stroke-width="1.96231377"/>
 <path d="m107.94647 42.689283c-2.20454 12.420097-9.484546 27.021649-30.535316 33.745956l3.409794 3.380397c21.047892-6.723805 28.329952-21.32519 30.535312-33.745955z" fill="#d21455" stroke-width="1.03324413"/>
 <path d="m108.60938 49.04817c-5.31221 0.573933-23.037376-17.045644-22.436928-22.303261s20.584448-7.416695 25.296198-2.733011c4.71175 4.683685 2.45293 24.46234-2.85927 25.036272z" fill="#2196f3" stroke-width=".16434322"/>
 <path d="m111.46854 24.011901c-0.52392-0.520797-1.23728-0.956572-2.0912-1.313308 2.86285 6.761417 0.55378 22.465147-4.17123 22.97564-2.34286 0.253122-7.099978-3.033215-11.634806-7.236519 5.337072 5.657395 12.093746 10.928545 15.038066 10.610439 5.3122-0.573932 7.57092-20.35257 2.85917-25.036252z" fill="#138ff2" stroke-width=".09811569"/>
 <path d="m90.010365 23.071651c-2.188468 1.071071-3.690577 2.355101-3.945162 3.75549-1.03529 5.694632 16.708807 23.340152 22.460907 22.336078 1.41899-0.247697 2.72448-1.739408 3.816-3.914576-5.84646 0.665798-22.969699-16.35214-22.331745-22.176992z" fill="#e6e6e6" stroke-width=".37083095"/>
 <path d="m112.34211 45.248563c-1.60456 0.182728-4.05907-0.968152-6.76215-2.852456l-3.41715 4.314303c2.56989 1.71629 4.87081 2.713374 6.36341 2.452829 1.41899-0.247696 2.72437-1.739508 3.81589-3.914676z" fill="#dadada" stroke-width=".09811569"/>
 <path d="m54.568789 70.467163 10.877682 10.783903c0.890239 0.882564 0.829035 1.885101 0.4582 2.731902l-2.086481 4.76447c-0.370833 0.846793-1.865415 0.428309-2.755654-0.454255l-13.597102-13.479877c-0.890239-0.882564-1.312362-2.364262-0.458203-2.731895l4.805901-2.068495c0.854162-0.367641 1.865418-0.428317 2.755657 0.454247z" fill="#666" stroke-width=".37083095"/>
 <g transform="matrix(.26335476 .26108432 -.26335476 .26108432 105.07105 51.5612)" fill="#555">
  <path d="m-17.695928 139.4939 3.085289 14.40483h4.9449393c1.4628018 0 3.0376049-2.03627 2.6405166-4.36201l-2.1460464-5.68081c-0.3970923-2.32576-1.1777145-4.36201-2.6405105-4.36201z"/>
  <path d="m-65.984968 136.5154-3.931462 10.56542h7.881389c3.131702 0 5.65303-1.94552 5.65303-4.36201v-2.34869c0-2.4165-2.521328-4.36201-5.65303-4.36201z"/>
  <rect x="-63.539455" y="133.88866" width="49.823284" height="7.3200078" ry="3.0197687"/>
 </g>
 <path d="m61.459503 56.204289c-0.318012-0.31527-0.661618-0.589755-1.024366-0.82476 1.697061 2.574404 1.323914 6.133144-1.066966 8.503411l-6.74555 6.687396 1.856161 1.840158 6.745553-6.687398c2.724805-2.701314 2.829704-6.946638 0.235168-9.518807z" fill="#d21455" stroke-width=".37083095"/>
 <rect transform="matrix(.71016138 .70403893 -.71016138 .70403893 0 0)" x="80.632271" y="9.7509212" width="30.982504" height="3.7328317" ry="1.1198486" fill="#c5c5c5" stroke-width=".3708379"/>
 <path d="m60.121682 54.586574c-2.594537-2.572169-6.876938-2.468231-9.601743 0.233083l-6.745585 6.687429 9.366565 9.285813 6.745585-6.687429c2.724804-2.701314 2.829715-6.946727 0.235178-9.518896z" fill="#2196f3" stroke-width=".37083095"/>
 <path d="m81.397112 75.678579c-2.594534-2.572166-6.876943-2.468226-9.601748 0.233088l-6.745585 6.687429 9.366568 9.285816 6.745584-6.687429c2.724805-2.701314 2.829718-6.946736 0.235181-9.518904z" fill="#2196f3" stroke-width=".37083095"/>
 <rect transform="matrix(.71016138 .70403893 -.71016138 .70403893 0 0)" x="105.82084" y="1.6015298" width="1.7425846" height="9.2937851" ry=".87129229" fill="#6fbbf7" stroke-width=".3708379"/>
 <rect transform="matrix(.71016138 .70403893 -.71016138 .70403893 0 0)" x="75.761253" y="1.7467506" width="1.7425846" height="9.2937851" ry=".87129229" fill="#6fbbf7" stroke-width=".3708379"/>
 <path d="m54.596702 67.856071c-0.175402-0.173889-0.671315 0.03784-1.111897 0.474623l-1.060296 1.051154c-0.440582 0.436784-0.654151 0.928422-0.47875 1.102311l2.239314 2.220008 2.650942-2.628088z" fill="#b6b6b6" stroke-width=".37083095"/>
 <path d="m60.121643 54.586573c-0.318011-0.31527-0.661617-0.589754-1.024367-0.82476 1.697063 2.574403 1.323912 6.133145-1.066965 8.50341l-6.745553 6.687398 1.856164 1.840161 6.745553-6.687398c2.724806-2.701315 2.829705-6.946642 0.235168-9.518811z" fill="#138ff2" stroke-width=".37083095"/>
 <rect transform="matrix(.71016138 .70403893 -.71016138 .70403893 0 0)" x="73.381752" y="12.115033" width="15.429038" height="4.1061153" ry="1.6175574" fill="#e6e6e6" stroke-width=".3708379"/>
 <g stroke-width=".37083095">
  <path d="m51.252081 67.869094-2.916051 2.890911 1.98678 1.969652c0.680029 0.674167 1.739882 0.708993 2.376276 0.07809l0.618539-0.613206c0.636397-0.63091 0.601265-1.681623-0.07876-2.35579z" fill="#d6d6d6"/>
  <path d="m81.397133 75.678641c-0.318012-0.315269-0.661618-0.589755-1.024369-0.824762 1.697064 2.574406 1.323912 6.133147-1.066965 8.503411l-6.74555 6.687396 1.856164 1.840161 6.745553-6.687398c2.724804-2.701314 2.829701-6.946641 0.235167-9.518808z" fill="#138ff2"/>
  <path d="m65.915241 84.027022-1.747085 3.784909-2.075601-2.057707c-0.824749-0.817638-0.97639-1.983862-0.339996-2.61477l0.618538-0.613206c0.636397-0.63091 1.81276-0.480573 2.637509 0.337065z" fill="#555"/>
 </g>
 <rect transform="matrix(.71016138 .70403893 -.71016138 .70403893 0 0)" x="103.34033" y="12.115033" width="15.429038" height="4.1061153" ry="1.6175574" fill="#e6e6e6" stroke-width=".3708379"/>
 <path d="m72.424402 88.858885-2.916051 2.890911 2.050528 2.032849c0.701846 0.695796 1.779264 0.748036 2.415658 0.117128l0.618539-0.613206c0.636397-0.63091 0.5837-1.699038-0.118146-2.394833z" fill="#d6d6d6" stroke-width=".37083095"/>
 <path d="m95.723768 25.545011s5.719302-2.114046 10.552422-0.30893" fill="none" stroke="#6fbbf7" stroke-linecap="round" stroke-width="1.96231377"/>
</svg>
