<?xml version="1.0" encoding="UTF-8"?>
<!-- Created with Inkscape (http://www.inkscape.org/) -->
<svg width="646.2536" height="454.4866" version="1.1" viewBox="0 0 170.98793 120.24958" xmlns="http://www.w3.org/2000/svg" xmlns:cc="http://creativecommons.org/ns#" xmlns:dc="http://purl.org/dc/elements/1.1/" xmlns:rdf="http://www.w3.org/1999/02/22-rdf-syntax-ns#">
 <metadata>
  <rdf:RDF>
   <cc:Work rdf:about="">
    <dc:format>image/svg+xml</dc:format>
    <dc:type rdf:resource="http://purl.org/dc/dcmitype/StillImage"/>
    <dc:title/>
   </cc:Work>
  </rdf:RDF>
 </metadata>
 <g transform="translate(49.990154,-47.047182)">
  <g>
   <path d="m-43.894994 113.48998v45.30327c0 4.71114 3.393086 8.50342 7.608322 8.50342h141.955672c4.21524 0 7.60884-3.79228 7.60884-8.50342v-45.30327z" fill="#b7bec8"/>
   <path d="m88.356881 113.48998v45.30327c0 4.71114-3.393604 8.50342-7.60884 8.50342h24.920959c4.21524 0 7.60884-3.79228 7.60884-8.50342v-45.30327z" fill="#a3acb8"/>
   <circle cx="89.218796" cy="93.921005" r="14.954771" fill="#08538d"/>
  </g>
  <g transform="translate(39.781014,-3.8699433)">
   <rect transform="matrix(0,-1,-1,0,0,0)" x="-113.07703" y="-44.663349" width="15.217464" height="35.190388" ry="7.6087322" fill="#0d88ea"/>
   <rect transform="matrix(0,-1,-1,0,0,0)" x="-113.07703" y="-22.285877" width="10.126149" height="17.534529" ry="5.0630746" fill="#0961a6"/>
   <rect transform="matrix(0,-1,-1,0,0,0)" x="-113.07703" y="-18.028286" width="10.126149" height="18.710968" ry="5.0630746" fill="#d59368"/>
   <rect transform="matrix(0,-1,-1,0,0,0)" x="-113.07703" y="-14.94714" width="10.126149" height="19.887405" ry="5.0630746" fill="#deaa88"/>
   <path d="m-1.6146157 102.55414a11.364571 11.124326 0 0 1 11.333722 10.52289h-22.6762393a11.364571 11.124326 0 0 1 11.3425173 -10.52289z" fill="#e3b79b"/>
   <circle cx="3.067878" cy="107.33282" r="5.0529785" fill="#e9c6af"/>
   <rect transform="matrix(.7016412 -.71253044 .71056916 .70362736 0 0)" x="-73.646194" y="68.290459" width="4.4738693" height="10.284492" ry="2.1597435" fill="#e9c6af"/>
  </g>
  <g transform="matrix(.88638729 0 0 .88638729 5.9350944 5.3451577)">
   <g>
    <ellipse cx="61.709488" cy="70.350266" rx="7.8047423" ry="9.3656912" fill="#c64f00"/>
    <rect x="59.842773" y="59.19558" width="34.506115" height="43.445942" ry="15.540764" fill="#e9c6af"/>
    <path transform="scale(.26458333)" d="m284.91406 223.73047c-1.53032 0-3.04082 0.0776-4.54101 0.19141 30.39939 2.30626 54.19531 27.53704 54.19531 58.54687v46.73047c0 31.00986-23.79589 56.24065-54.19531 58.54687 1.50017 0.11381 3.01071 0.18946 4.54101 0.18946h12.94336c32.54016 0 58.73633-26.19617 58.73633-58.73633v-46.73047c0-32.54016-26.19617-58.73828-58.73633-58.73828z" fill="#e1b293"/>
    <path transform="scale(.26458333)" d="m197.58008 178.93359c-0.0472 2.9e-4 -0.0914 2e-3 -0.13867 2e-3 0 107.44462 21.80609 82.38174 138.46484 86.54101-7e-3 0.13797-0.0139 0.276-0.0195 0.41406-3e-5 17.37747 13.20667 31.46474 29.49805 31.46485 16.29137-1.2e-4 29.49807-14.08739 29.49804-31.46485-3e-3 -2.17805-0.21869-4.34985-0.64258-6.48046-2.82637 14.60422-14.87533 25.0865-28.85546 25.10351-16.29137-1.1e-4 -25.21718-11.41182-25.21715-28.78928 6e-3 -0.13806 0.0122-0.27609 0.0195-0.41406-111.72869-3.9835-140.71694 16.07749-142.60707-76.37674z" fill="#e05900"/>
    <path d="m73.755188 47.049167c-5.812755-0.02843-12.931169 0.257091-21.515482 0.30851 0 28.428055 5.769528 21.796835 36.635488 22.897308a7.8047423 8.3250589 0 0 0 -0.0052 0.109554 7.8047423 8.3250589 0 0 0 7.804692 8.325075 7.8047423 8.3250589 0 0 0 7.804694 -8.325075 7.8047423 8.3250589 0 0 0 -7.804694 -8.325072 7.8047423 8.3250589 0 0 0 -1.28416 0.115755c-0.587699-12.949854-6.934585-15.034162-21.635338-15.106055z" fill="#f60"/>
    <path transform="scale(.26458333)" d="m197.58008 178.93359c-0.0472 2.9e-4 -0.0914 2e-3 -0.13867 2e-3 0 107.44462 21.80609 82.38174 138.46484 86.54101-7e-3 0.13797-0.0139 0.276-0.0195 0.41406-3e-5 17.37747 13.20667 31.46474 29.49805 31.46485 16.29137-1.2e-4 29.49807-14.08739 29.49804-31.46485-3e-3 -2.17805-0.21869-4.34985-0.64258-6.48046-2.82637 14.60422-14.87533 25.0865-28.85546 25.10351-16.29137-1.1e-4 -25.21718-11.41182-25.21715-28.78928 6e-3 -0.13806 0.0122-0.27609 0.0195-0.41406-111.72869-3.9835-140.71694 16.07749-142.60707-76.37674z" fill="#e05900"/>
   </g>
   <path d="m82.475607 76.160647a5.9626145 5.9626145 0 0 1 2.067574 4.510836 5.9626145 5.9626145 0 0 1 -5.962425 5.962418 5.9626145 5.9626145 0 0 1 -2.893881 -0.75086 5.9626145 5.9626145 0 0 0 3.894852 1.45211 5.9626145 5.9626145 0 0 0 5.962428 -5.962937 5.9626145 5.9626145 0 0 0 -3.068548 -5.211567z" fill="none" stroke="#e1b293" stroke-linecap="round" stroke-linejoin="round" stroke-width="1.58749998"/>
   <path d="m71.441513 82.556939a5.9626145 5.9626145 0 0 1 -5.646166 4.076753 5.9626145 5.9626145 0 0 1 -2.89388 -0.750858 5.9626145 5.9626145 0 0 0 3.894336 1.452107 5.9626145 5.9626145 0 0 0 5.834787 -4.778002z" fill="none" stroke="#e1b293" stroke-linecap="round" stroke-linejoin="round" stroke-width="1.58749998"/>
   <circle cx="76.159409" cy="81.049309" r="1.4154131"/>
   <g transform="matrix(.5486953 .14702246 -.14702246 .5486953 -.34893143 6.863964)" fill="#f0f0f0" opacity=".80400002">
    <path d="m171.17208 79.553554a10.496615 10.496615 0 0 0 -9.53844 1.04603l-4.69583 8.133428a10.496615 10.496615 0 0 0 3.8765 8.760718z" opacity=".55"/>
    <path d="m172.8252 80.362388-10.48851 18.166626a10.496615 10.496615 0 0 0 5.45581 1.303101l8.88602-15.391039a10.496615 10.496615 0 0 0 -3.85332 -4.078688z" opacity=".55"/>
   </g>
   <circle cx="78.00856" cy="79.870598" r="5.9626145" fill="none" stroke="#333" stroke-linecap="round" stroke-linejoin="round" stroke-width="2.25445294"/>
   <path d="m74.073139 75.337336s3.511056-3.579115 8.141872 0.220614" fill="none" stroke="#7e7e7e" stroke-linecap="round" stroke-linejoin="round" stroke-width="1.20237494"/>
   <circle cx="63.867657" cy="81.049309" r="1.4154131"/>
   <g transform="matrix(.5486953 .14702246 -.14702246 .5486953 -12.640679 6.863964)" fill="#f0f0f0" opacity=".80400002">
    <path d="m171.17208 79.553554a10.496615 10.496615 0 0 0 -9.53844 1.04603l-4.69583 8.133428a10.496615 10.496615 0 0 0 3.8765 8.760718z" opacity=".55"/>
    <path d="m172.8252 80.362388-10.48851 18.166626a10.496615 10.496615 0 0 0 5.45581 1.303101l8.88602-15.391039a10.496615 10.496615 0 0 0 -3.85332 -4.078688z" opacity=".55"/>
   </g>
   <circle cx="65.716812" cy="79.870598" r="5.9626145" fill="none" stroke="#333" stroke-linecap="round" stroke-linejoin="round" stroke-width="2.25445294"/>
   <path d="m66.008085 73.887123s-6.183119 0-6.294865 6.294865" fill="none" stroke="#7e7e7e" stroke-linecap="round" stroke-linejoin="round" stroke-width="1.20237494"/>
   <g>
    <path d="m66.778394 89.865562a8.7599209 8.7599209 0 0 0 -0.0026 0.05013 8.7599209 8.7599209 0 0 0 8.759673 8.759671 8.7599209 8.7599209 0 0 0 8.760188 -8.759671 8.7599209 8.7599209 0 0 0 -0.0016 -0.05013z" fill="#ff8080"/>
    <path d="m81.143408 92.794584a8.7599207 8.7599207 0 0 0 -4.013708 0.763775 8.7599207 8.7599207 0 0 0 -4.475697 4.618842 8.7599207 8.7599207 0 0 0 2.881479 0.49816 8.7599207 8.7599207 0 0 0 8.080127 -5.396571 8.7599207 8.7599207 0 0 0 -2.472201 -0.484206z" fill="#ff5050"/>
    <path d="m66.778955 89.865562c-0.0011 0.02611-0.0022 0.05222-0.0032 0.07833 0.0032 0.813231 0.146665 1.610661 0.396303 2.396489l16.582963 0.0066c0.168565 6.7e-5 0.189484-0.03772 0.293521-0.380296 0.262152-0.91179 0.252984-2.101095 0.252984-2.101095z" fill="#fff"/>
    <circle cx="94.177231" cy="80.444412" r="4.8909717" fill="#e9c6af"/>
   </g>
   <path d="m95.601967 62.807629s-0.702736 6.939529-2.752387 12.41502" fill="none" stroke="#e05900" stroke-linecap="round" stroke-linejoin="round" stroke-width="1.58749998"/>
   <ellipse cx="92.986069" cy="81.095131" rx="4.6805534" ry="6.9730611" fill="#4d4d4d"/>
   <path d="m92.791813 74.122161a4.6805536 6.9730609 0 0 1 0.737137 0.09121 4.6805536 6.9730609 0 0 0 -3.963916 6.88187 4.6805536 6.9730609 0 0 0 3.942556 6.881869 4.6805536 6.9730609 0 0 1 -0.715777 0.09121 4.6805536 6.9730609 0 0 1 -4.680849 -6.973073 4.6805536 6.9730609 0 0 1 4.680849 -6.973073z" fill="#333"/>
   <path d="m93.505897 81.055426s11.613153-28.231973-2.502834-24.127325" fill="none" stroke="#4d4d4d" stroke-linecap="round" stroke-linejoin="round" stroke-width="3.96875"/>
   <path transform="scale(.26458333)" d="m323.625 181.75586c-2.3394 6.13243-15.71475 41.18729-16.75781 43.62109-0.28331 0.66105 1.83927 3.42125 5.18164 7.18946h48.33789c-1.92646-31.17876-13.2641-44.99353-36.76172-50.81055z" fill="#f60"/>
   <path d="m96.609412 56.928101s3.003402 1.401588 1.601814 9.710999" fill="none" stroke="#7b7b7b" stroke-linecap="round" stroke-linejoin="round" stroke-width="1.58749998"/>
   <g>
    <path d="m66.778955 89.86556c-0.0011 0.0086-0.0022 0.01713-0.0032 0.0257 0.0032 0.26676 0.01571 0.480928 0.03815 0.85487l17.183553-0.05966c0.168565-5.85e-4 0.304063-0.05713 0.304063-0.128204v-0.69267z" fill="#e6e6e6"/>
    <rect x="60.344494" y="51.328732" width="17.650166" height="3.3392208" ry="1.6696104" fill="#ffa86f"/>
    <rect x="66.188133" y="56.337566" width="10.613953" height="2.3851578" ry="1.1925789" fill="#ffa86f"/>
   </g>
  </g>
  <g>
   <rect transform="matrix(.7016412 -.71253044 .71056916 .70362736 0 0)" x="-24.482176" y="112.32009" width="4.4738693" height="10.284492" ry="2.1597435" fill="#e3b699"/>
   <rect transform="rotate(-45)" x="-1.373934" y="122.32513" width="15.217464" height="35.190388" ry="7.6087322" fill="#0c85e4"/>
   <rect transform="matrix(0,-1,-1,0,0,0)" x="-109.20708" y="-118.02442" width="15.217464" height="35.190388" ry="7.6087322" fill="#2196f3"/>
   <path d="m82.955322 100.24504c-0.07828 0.43924-0.121439 0.891-0.121439 1.35341 0 4.21524 3.393602 7.60884 7.608837 7.60884h19.97294c4.21524 0 7.60884-3.3936 7.60884-7.60884 0-0.46241-0.0432-0.91417-0.12144-1.35341-0.6354 3.56465-3.73465 6.25492-7.4874 6.25492h-19.97294c-3.752741 0-6.851996-2.69027-7.487398-6.25492z" fill="#0c82df"/>
   <rect transform="matrix(0,-1,-1,0,0,0)" x="-109.20708" y="-95.64695" width="10.126149" height="17.534529" ry="5.0630746" fill="#0a6ebc"/>
   <rect transform="matrix(0,-1,-1,0,0,0)" x="-109.20708" y="-91.389359" width="10.126149" height="18.710968" ry="5.0630746" fill="#dba37e"/>
   <rect transform="matrix(0,-1,-1,0,0,0)" x="-109.20708" y="-88.308212" width="10.126149" height="19.887405" ry="5.0630746" fill="#e3b699"/>
   <rect x="99.347816" y="97.14666" width="12.451983" height="2.5264893" ry="1.2632446" fill="#9ed1fa"/>
   <circle cx="94.024147" cy="86.048149" r="1.8948671" fill="#9ed1fa"/>
   <path d="m62.264547 98.027837a11.818186 11.818186 0 0 0 -11.786105 11.179253h23.581356a11.818186 11.818186 0 0 0 -11.795251 -11.179253z" fill="#4d4d4d"/>
   <path d="m71.746454 98.684197a11.364571 11.124326 0 0 1 11.333722 10.522893h-22.676239a11.364571 11.124326 0 0 1 11.342517 -10.522893z" fill="#e9c6af"/>
   <circle cx="56.489498" cy="104.28992" r="1.6494172" fill="#808080"/>
   <circle cx="58.597088" cy="101.44928" r=".82470858" fill="#808080"/>
  </g>
  <path d="m72.639216 100.75593s-5.413907-0.72185-7.759933 3.24835" fill="none" stroke="#f5e7dc" stroke-linecap="round" stroke-linejoin="round" stroke-width="1.58749998"/>
  <g>
   <path d="m82.955322 100.24504c-0.07828 0.43924-0.121439 0.891-0.121439 1.35341 0 4.21524 3.393602 7.60884 7.608837 7.60884h19.97294c4.21524 0 7.60884-3.3936 7.60884-7.60884 0-0.46241-0.0432-0.91417-0.12144-1.35341-0.6354 3.56465-3.73465 6.25492-7.4874 6.25492h-19.97294c-3.752741 0-6.851996-2.69027-7.487398-6.25492z" fill="#0c82df"/>
   <rect transform="matrix(0,-1,-1,0,0,0)" x="-109.20708" y="-95.64695" width="10.126149" height="17.534529" ry="5.0630746" fill="#0a6ebc"/>
   <rect transform="matrix(0,-1,-1,0,0,0)" x="-109.20708" y="-91.389359" width="10.126149" height="18.710968" ry="5.0630746" fill="#dba37e"/>
   <rect transform="matrix(0,-1,-1,0,0,0)" x="-109.20708" y="-88.308212" width="10.126149" height="19.887405" ry="5.0630746" fill="#e3b699"/>
   <rect x="99.347816" y="97.14666" width="12.451983" height="2.5264893" ry="1.2632446" fill="#9ed1fa"/>
   <path d="m71.746454 98.684197a11.364571 11.124326 0 0 1 11.333722 10.522893h-22.676239a11.364571 11.124326 0 0 1 11.342517 -10.522893z" fill="#e9c6af"/>
  </g>
  <path d="m72.639216 100.75593s-5.413907-0.72185-7.759933 3.24835" fill="none" stroke="#f5e7dc" stroke-linecap="round" stroke-linejoin="round" stroke-width="1.58749998"/>
  <path d="m3.9088054 104.10062c-3.00937863 0-5.4816058 2.21285-5.8880127 5.10667h50.0124513c-0.406408-2.89382-2.878635-5.10667-5.888014-5.10667z" fill="#1c2224"/>
  <rect x="18.35358" y="105.13708" width="24.641384" height="1.6994057" ry=".84970284" fill="#6f8a91"/>
  <g transform="translate(17.433877)">
   <path d="m-31.118312 78.796544c-0.650674 0-1.277742 0.06722-1.869136 0.191019 2.66002 0.556988 4.587833 2.272956 4.587833 4.315344v26.082663h3.73879v-26.082663c0-2.496575-2.879887-4.506363-6.457487-4.506363z" fill="#53676c"/>
   <rect x="-58.799438" y="53.305206" width="77.153015" height="43.164909" ry="2.5491095" fill="#1c2224"/>
   <path d="m11.385868 53.305078c1.412207 0 2.549199 1.136991 2.549199 2.5492v38.066926c0 1.412206-1.136992 2.548681-2.549199 2.548681h4.418852c1.412206 0 2.548682-1.136475 2.548682-2.548681v-38.066926c0-1.412209-1.136476-2.5492-2.548682-2.5492z" fill="#53676c"/>
   <path d="m-33.648217 78.796544c-3.577599 0-6.457629 2.009788-6.457629 4.506363v26.082663h12.915257v-26.082663c0-2.496575-2.880029-4.506363-6.457628-4.506363z" fill="#4d4d4d"/>
   <path d="m-33.648217 78.796544c-3.577599 0-6.457629 2.009788-6.457629 4.506363v26.082663h12.915257v-26.082663c0-2.496575-2.880029-4.506363-6.457628-4.506363z" fill="#374548"/>
   <rect x="-37.386925" y="82.619995" width="3.3988111" height="16.387096" ry="1.3655913" fill="#6f8a91"/>
   <path transform="scale(.26458333)" d="m-179.30664 406.45703c-4.20295 0-7.75186 2.67238-9.06836 6.41406h153.416016c-1.316611-3.74148-4.863604-6.41406-9.066407-6.41406z" fill="#374548"/>
  </g>
  <rect x="-3.5484881" y="57.091335" width="30.547853" height="6.7884121" ry="3.394206" fill="#374548"/>
  <path d="m89.335604 77.658099s-0.299784 14.989194-14.389629 11.191931" fill="none" stroke="#333" stroke-linecap="round" stroke-linejoin="round" stroke-width="1.58749998"/>
  <circle cx="76.59478" cy="89.199776" r="2.5481632" fill="#374548"/>
  <path d="m77.382911 87.896209s-2.123958-0.637188-2.265555 1.415974" fill="none" stroke="#698489" stroke-linecap="round" stroke-linejoin="round" stroke-width="1.0583334"/>
  <g>
   <path transform="scale(.26458333)" d="m5.2578125 428.93945-117.4121125 203.36328h49.437503l117.412109-203.36328z" fill="#c5cbd2"/>
   <path transform="scale(.26458333)" d="m70.011719 428.93945-117.41211 203.36328h37.078125l117.412106-203.36328z" fill="#c5cbd2"/>
   <rect x="-49.990154" y="109.20729" width="170.98784" height="5.098217" ry="2.5491085" fill="#666"/>
   <path transform="scale(.26458333)" d="m315.36719 412.75195c5.33747 0 9.63476 4.2973 9.63476 9.63477s-4.29729 9.63476-9.63476 9.63476h132.3125c5.33747 0 9.63476-4.29729 9.63476-9.63476s-4.29729-9.63477-9.63476-9.63477z" fill="#333"/>
  </g>
 </g>
</svg>
