<?xml version="1.0" encoding="UTF-8"?>
<!-- Created with Inkscape (http://www.inkscape.org/) -->
<svg width="127.71992mm" height="16.929199mm" version="1.1" viewBox="0 0 127.71992 16.929199" xmlns="http://www.w3.org/2000/svg" xmlns:cc="http://creativecommons.org/ns#" xmlns:dc="http://purl.org/dc/elements/1.1/" xmlns:rdf="http://www.w3.org/1999/02/22-rdf-syntax-ns#">
 <metadata>
  <rdf:RDF>
   <cc:Work rdf:about="">
    <dc:format>image/svg+xml</dc:format>
    <dc:type rdf:resource="http://purl.org/dc/dcmitype/StillImage"/>
    <dc:title/>
   </cc:Work>
  </rdf:RDF>
 </metadata>
 <g transform="translate(-44.657861,-11.377764)">
  <g stroke-width=".26458332" style="font-feature-settings:normal;font-variant-caps:normal;font-variant-ligatures:normal;font-variant-numeric:normal" aria-label="Need help?">
   <g fill="#2196f3" stroke-width=".26458332">
    <path d="m49.835839 20.472815 1.023194 5.922119-5.157308 1.312582-1.043864-13.570231 5.177978-0.89917 5.105632 6.759277 0.06201-6.759277 6.407877-0.661458-2.273763 15.130859-4.103109 0.599446z" style="font-feature-settings:normal;font-variant-caps:normal;font-variant-ligatures:normal;font-variant-numeric:normal"/>
    <path d="m71.984358 11.377764 0.268718 5.477701-6.428548 0.692464 0.08268 1.25057 4.216797-0.392741 0.37207 3.741374-4.402832 0.320394 0.07235 1.012858 6.242513-0.475423 0.930176 4.702555-12.309326 0.423746 1.250569-14.913817z" style="font-feature-settings:normal;font-variant-caps:normal;font-variant-ligatures:normal;font-variant-numeric:normal"/>
    <path d="m84.800112 11.377764 0.268718 5.477701-6.428548 0.692464 0.08268 1.25057 4.216797-0.392741 0.37207 3.741374-4.402832 0.320394 0.07235 1.012858 6.242513-0.475423 0.930176 4.702555-12.309326 0.423746 1.250569-14.913817z" style="font-feature-settings:normal;font-variant-caps:normal;font-variant-ligatures:normal;font-variant-numeric:normal"/>
    <path d="m87.321921 27.707516-0.661458-14.469401q14.097327 0 14.097327 7.2347 0 7.234701-13.435869 7.234701zm3.679362-10.63501 0.692464 5.002279q4.475179 0.02067 4.475179-2.490804 0-2.511475-5.167643-2.511475z" style="font-feature-settings:normal;font-variant-caps:normal;font-variant-ligatures:normal;font-variant-numeric:normal"/>
   </g>
   <g fill="#00c853">
    <path d="m111.93024 23.346025 0.37207 3.493327-3.95841 0.692464-1.79834-11.451497 4.40283-1.881022 0.49609 4.960937 3.96875-0.454753 0.062-4.51652 6.89364 0.692465-2.6355 12.702066-4.43384-1.312581 0.0517-3.296956z"/>
    <path d="m133.16925 11.377764 0.26872 5.477701-6.42855 0.692464 0.0827 1.25057 4.2168-0.392741 0.37207 3.741374-4.40283 0.320394 0.0723 1.012858 6.24252-0.475423 0.93017 4.702555-12.30932 0.423746 1.25057-14.913817z"/>
    <path d="m135.74274 13.031409 5.09529 0.268718-1.67431 10.273274 5.18831-0.806152-1.14722 5.508707-8.17521-0.56844z"/>
    <path d="m150.44985 23.542395 0.83716 3.090251-5.39502 1.07487-1.02319-13.838948q13.7666-2.222087 14.45906 4.53719 0 5.167643-8.87801 5.136637zm-1.41593-6.118489 0.57877 2.015381q5.58106 0 5.25033-1.467611-0.33073-1.46761-5.8291-0.54777z"/>
   </g>
   <path d="m165.10529 27.707516q-0.85783 0-1.46761-0.599447-0.59945-0.609782-0.59945-1.467611 0-0.857828 0.59945-1.457275 0.60978-0.609782 1.46761-0.609782t1.45727 0.609782q0.60978 0.599447 0.60978 1.457275 0 0.857829-0.60978 1.467611-0.59944 0.599447-1.45727 0.599447zm-2.66651-8.971029q4.73356-0.330729 4.82658-1.27124 0.093-0.940511-6.50089 0.537435l-0.93018-3.98942q11.87524-3.255616 12.5057 2.211751 0.48576 4.206461-5.271 5.674072l0.29972 0.744141-4.49585 0.775146z" fill="#e91e63"/>
  </g>
 </g>
</svg>
